<?xml version="1.0" encoding="UTF-8" standalone="no"?>
<svg width="93px" height="33px" viewBox="0 0 93 33" version="1.1" xmlns="http://www.w3.org/2000/svg" xmlns:xlink="http://www.w3.org/1999/xlink">
    <!-- Generator: Sketch 46.2 (44496) - http://www.bohemiancoding.com/sketch -->
    <title>Page 1</title>
    <desc>Created with Sketch.</desc>
    <defs>
        <polygon id="path-1" points="6.7827181e-20 33 93 33 93 5.8693436e-15 6.7827181e-20 0"></polygon>
    </defs>
    <g id="design-1440" stroke="none" stroke-width="1" fill="none" fill-rule="evenodd">
        <g id="mm-landing-1440" transform="translate(-450.000000, -5451.000000)">
            <g id="Page-1" transform="translate(450.000000, 5451.000000)">
                <mask id="mask-2" fill="white">
                    <use xlink:href="#path-1"></use>
                </mask>
                <g id="Clip-2"></g>
                <path d="M16.609109,28.8756195 C9.74008467,28.8756195 4.15144313,23.3246809 4.15144313,16.5 C4.15144313,9.67697121 9.74091879,4.12603254 16.609109,4.12603254 C22.2144331,4.12603254 26.9656125,7.82252816 28.5245933,12.8902378 L32.8178377,12.8902378 C31.1612643,5.51376721 24.5333022,0 16.609109,0 C7.43622975,0 0,7.38720901 0,16.5 C0,25.612791 7.43622975,33 16.609109,33 C24.5333022,33 31.1612643,27.4862328 32.8178377,20.1097622 L28.5245933,20.1097622 C26.9647784,25.1782979 22.2144331,28.8756195 16.609109,28.8756195 L16.609109,28.8756195 Z M18.3173982,17.7844806 C19.6102929,17.1566959 20.5011391,15.8350438 20.5011391,14.3085357 C20.5011391,12.1732416 18.7578166,10.4427034 16.609109,10.4427034 C14.4587332,10.4427034 12.7162448,12.1732416 12.7162448,14.3085357 C12.7162448,15.8366959 13.6062568,17.1558698 14.9016539,17.7844806 L14.9016539,22.5589487 L18.3173982,22.5589487 L18.3173982,17.7844806 Z M90.9447145,19.4910638 L90.7603728,19.6827034 C90.356656,20.1006758 89.8828726,20.4327409 89.3515346,20.6689862 C88.8235331,20.9044055 88.2504888,21.0241802 87.647416,21.0241802 C87.0426749,21.0241802 86.4738013,20.9085357 85.954141,20.6855069 C85.4336467,20.459174 84.9748776,20.1444556 84.5920139,19.748786 C84.2066479,19.3498123 83.8946849,18.8814518 83.6644662,18.3552691 C83.43675,17.8348686 83.3208065,17.2731665 83.3208065,16.678423 C83.3208065,16.0836796 83.4375841,15.5137171 83.6653004,14.976796 C83.8946849,14.4464831 84.207482,13.9690363 84.5911798,13.5725407 C84.9748776,13.1760451 85.4336467,12.8621527 85.9549752,12.6391239 C86.4738013,12.413617 87.0426749,12.3004506 87.6482501,12.3004506 C88.2488206,12.3004506 88.8151918,12.4185732 89.3348521,12.6531665 C89.8603512,12.8927159 90.3366369,13.2148686 90.7370172,13.6171464 L90.9205249,13.7988736 L92.9641326,11.8064831 L92.7781226,11.6231039 C92.1149927,10.9787985 91.3425924,10.4625282 90.4792724,10.0866834 C89.6117818,9.71331665 88.663381,9.52332916 87.6582596,9.52332916 C86.6531383,9.52332916 85.6980645,9.71579474 84.8213985,10.0957697 C83.9489031,10.4757447 83.1756686,10.991189 82.5225483,11.6288861 C81.8710962,12.2707134 81.3447629,13.0331414 80.9627334,13.9004756 C80.5790356,14.7711139 80.3880209,15.7094869 80.3880209,16.6875094 C80.3880209,17.6655319 80.5790356,18.5989487 80.9627334,19.4588486 C81.3464312,20.3137922 81.8702621,21.0778723 82.5225483,21.7254819 C83.1773369,22.3730914 83.9489031,22.8901877 84.8255691,23.2585982 C85.701401,23.6303129 86.6564748,23.8169962 87.6615961,23.8169962 C88.6625469,23.8169962 89.6184548,23.6270088 90.4959549,23.251164 C91.3701186,22.8794493 92.1475236,22.3615269 92.8098194,21.7147434 L93,21.5330163 L90.9605629,19.5059324 L90.9447145,19.4910638 Z M75.368253,23.3833292 L78.2876926,23.3833292 L78.2876926,9.96030038 L75.368253,9.96030038 L75.368253,23.3833292 Z M76.8279728,3.26117647 C76.3116491,3.26117647 75.8678942,3.43629537 75.5067179,3.78322904 C75.1447073,4.13181477 74.9611997,4.57043805 74.9611997,5.08505632 C74.9611997,5.60132666 75.1447073,6.0391239 75.5067179,6.38770964 C75.866226,6.7346433 76.3116491,6.91058824 76.8279728,6.91058824 C77.3442966,6.91058824 77.7880514,6.7346433 78.1483936,6.38770964 C78.5120724,6.03829787 78.6964142,5.60050063 78.6964142,5.08505632 C78.6964142,4.57043805 78.5129065,4.1326408 78.1483936,3.782403 C77.7888855,3.43546934 77.3442966,3.25374218 76.8279728,3.25374218 L76.8279728,3.26117647 Z M66.4656304,18.2206258 L62.4676664,9.94543179 L59.4014207,9.94543179 L66.2604355,23.8037797 L66.6741618,23.8037797 L73.5031482,9.94543179 L70.4369024,9.94543179 L66.4656304,18.2206258 Z M54.635227,23.3684606 L57.5529984,23.3684606 L57.5529984,9.94543179 L54.635227,9.94543179 L54.635227,23.3684606 Z M56.0949468,3.24630788 C55.5777889,3.24630788 55.1332,3.42142678 54.7728577,3.76836045 C54.409179,4.11777222 54.2265055,4.55556946 54.2265055,5.07101377 C54.2265055,5.58315394 54.409179,6.02095119 54.7728577,6.36788486 C55.1315317,6.71481852 55.5769548,6.88828536 56.0941127,6.88828536 C56.6029293,6.88828536 57.052523,6.7090363 57.4120311,6.36788486 C57.7707052,6.01434293 57.9533787,5.57654568 57.9533787,5.06275344 C57.9533787,4.5489612 57.7707052,4.10703379 57.4036899,3.75762203 C57.0450159,3.41068836 56.5979246,3.23474343 56.0832691,3.23474343 L56.0949468,3.24630788 Z M50.3144564,19.6827034 C49.9115737,20.1006758 49.4377904,20.4327409 48.9064524,20.6689862 C48.3776167,20.9044055 47.8045724,21.0241802 47.2014996,21.0241802 C46.5975927,21.0241802 46.0278849,20.9085357 45.5082247,20.6855069 C44.9868962,20.459174 44.5297953,20.1444556 44.1469317,19.748786 C43.7607315,19.3498123 43.4487685,18.8814518 43.2185499,18.3552691 C42.9908336,17.8348686 42.8757243,17.2731665 42.8757243,16.678423 C42.8757243,16.0836796 42.9925018,15.5137171 43.2185499,14.9825782 C43.4496027,14.4456571 43.7615656,13.9748185 44.1469317,13.5758448 C44.5306295,13.1793492 44.9885644,12.8654568 45.5082247,12.6391239 C46.0262167,12.413617 46.5934221,12.3004506 47.1939925,12.3004506 C47.7945629,12.3004506 48.3609342,12.4185732 48.8789262,12.6531665 C49.4035912,12.8910638 49.8732039,13.2148686 50.2802572,13.6171464 L50.4637649,13.7988736 L52.5006996,11.8081352 L52.310519,11.626408 C51.6473891,10.9787985 50.8733205,10.4617021 50.0100005,10.0899875 C49.1425099,9.71331665 48.1916067,9.52332916 47.1864854,9.52332916 C46.1830323,9.52332916 45.2287926,9.71331665 44.3504583,10.0932916 C43.4779629,10.4732666 42.7047285,10.9887109 42.0524423,11.626408 C41.3976537,12.2649312 40.8721546,13.0306633 40.4926274,13.8979975 C40.1089296,14.7653317 39.9162466,15.7028786 39.9162466,16.6817272 C39.9162466,17.6605757 40.1089296,18.5939925 40.4926274,19.4538924 C40.8729887,20.3096621 41.3976537,21.0729161 42.0524423,21.7213517 C42.7030603,22.3697872 43.4787971,22.8860576 44.3546289,23.2552941 C45.2304608,23.6228786 46.1830323,23.810388 47.1873195,23.810388 C48.1924408,23.810388 49.1475147,23.6204005 50.0233465,23.2470338 C50.8958419,22.8753191 51.6749152,22.3573967 52.3380451,21.7106133 L52.5273916,21.5288861 L50.4921251,19.4993242 L50.3077834,19.6909637 L50.3144564,19.6827034 Z" id="Fill-1" fill="#404042" mask="url(#mask-2)"></path>
            </g>
        </g>
    </g>
</svg>