<?xml version="1.0" encoding="UTF-8" standalone="no"?>
<svg width="104px" height="19px" viewBox="0 0 104 19" version="1.1" xmlns="http://www.w3.org/2000/svg" xmlns:xlink="http://www.w3.org/1999/xlink">
    <!-- Generator: Sketch 46.2 (44496) - http://www.bohemiancoding.com/sketch -->
    <title>cosmos-logo</title>
    <desc>Created with Sketch.</desc>
    <defs>
        <polygon id="path-1" points="18.6316699 18.7978723 0.0571900192 18.7978723 0.0571900192 0.0162510638 18.6316699 0.0162510638 18.6316699 18.7978723"></polygon>
        <polygon id="path-3" points="9.91333589 0.165720342 9.91333589 13.3023624 0.189435701 13.3023624 0.189435701 0.165720342 9.91333589 0.165720342"></polygon>
    </defs>
    <g id="design-1440" stroke="none" stroke-width="1" fill="none" fill-rule="evenodd">
        <g id="mm-landing-1440" transform="translate(-977.000000, -5667.000000)">
            <g id="cosmos-logo" transform="translate(977.000000, 5667.000000)">
                <g id="Page-1">
                    <g id="Group-3" transform="translate(14.971209, 0.185917)">
                        <mask id="mask-2" fill="white">
                            <use xlink:href="#path-1"></use>
                        </mask>
                        <g id="Clip-2"></g>
                        <path d="M13.0272476,7.22816596 C11.1151248,9.16131489 9.26388484,11.0318043 7.41603839,12.9053255 C7.32960461,12.9930489 7.27231478,13.110283 7.20045298,13.2149851 C8.78320921,14.2521021 10.791547,14.060283 12.1690979,12.8309426 C13.5121152,11.6327298 14.1439002,9.0137617 13.0272476,7.22816596 M5.51868714,11.2717298 C7.45296737,9.32746383 9.41299808,7.35752766 11.3564607,5.40416596 C9.78568138,4.44971915 7.78113628,4.68358085 6.41356622,5.98124043 C5.25918618,7.07616596 4.48507486,9.62257021 5.51868714,11.2717298 M13.3316622,3.9516766 C14.5966296,2.63279362 15.8426334,1.33351702 17.1062035,0.0162510638 C17.5968599,0.526421277 18.0749405,1.02385745 18.6316699,1.60295319 C17.3313704,2.85129362 16.0346641,4.09599574 14.7814741,5.2992617 C16.4686296,9.36728298 16.1608215,12.1243043 13.8618426,14.2231979 C11.6019885,16.2863149 8.58778503,16.5248255 5.36997313,14.7861234 C4.16628791,16.0882298 2.92228023,17.4341979 1.66170441,18.7979532 C1.08441459,18.1954106 0.606533589,17.6967617 0.0571900192,17.1235277 C1.34611132,15.8638681 2.632238,14.6068362 3.88742418,13.3805277 C2.20485988,9.40164468 2.51506334,6.60824043 4.81723608,4.49924043 C7.0683071,2.43672979 10.1076622,2.19720851 13.3316622,3.9516766" id="Fill-1" fill="#525252" mask="url(#mask-2)"></path>
                    </g>
                    <path d="M66.9097674,15.9546638 C66.3795869,15.9546638 65.9208691,15.9607277 65.4625505,15.9516319 C65.2707194,15.9479936 65.0796868,15.9124191 64.8108038,15.8827064 L64.8108038,7.19101489 C64.7397405,7.16049362 64.6686772,7.12977021 64.5976138,7.09924894 C63.3571992,8.96488723 62.1167846,10.8305255 60.7819516,12.8386638 C59.4872415,10.8814617 58.2334526,8.98570638 56.9794641,7.08995106 C56.9173835,7.10692979 56.8557021,7.12411064 56.7936215,7.14108936 L56.7936215,15.8944298 L54.6615217,15.8944298 L54.6615217,3.30288723 C56.2957789,2.8123234 56.8604929,3.00656809 57.7463893,4.39275957 C58.7526541,5.96733404 59.7535294,7.54534468 60.8007155,9.19025957 C61.8145658,7.59850426 62.888301,6.16986596 63.6793797,4.59529149 C64.4169612,3.12784468 65.4583585,2.90611064 66.9097674,3.24750426 L66.9097674,15.9546638 Z" id="Fill-4" fill="#525252"></path>
                    <path d="M85.3134357,9.58469149 C85.317428,6.97017021 83.4809597,5.00710638 81.0372591,5.01296809 C78.6203071,5.01903191 76.7984107,6.94470213 76.7832399,9.50970213 C76.7676699,12.0860213 78.6460576,14.0814255 81.0867639,14.0816277 C83.5087063,14.0818298 85.3094434,12.1658617 85.3134357,9.58469149 M74.4960384,9.56084043 C74.4974357,5.81682979 77.3483532,2.93711702 81.0660038,2.92357447 C84.772476,2.91023404 87.6806833,5.81844681 87.6772898,9.53476596 C87.6736967,13.2266277 84.7600998,16.1495957 81.0646065,16.1685957 C77.3218042,16.1877979 74.4942418,13.3434574 74.4960384,9.56084043" id="Fill-6" fill="#525252"></path>
                    <path d="M37.478466,14.0652553 C37.9202165,13.5251702 38.3160553,13.0412766 38.5889305,12.7073617 C39.8568921,13.1997447 40.9879171,13.7335638 42.1746349,14.0581809 C42.7361551,14.2117979 43.485514,14.1220532 43.9997251,13.8507979 C44.4398787,13.6187553 44.8868192,12.9858936 44.9197559,12.5015957 C44.9481013,12.0817766 44.4935754,11.4624574 44.0849612,11.2168723 C43.4761321,10.8508191 42.7207846,10.7337872 42.0265198,10.5144787 C41.4893528,10.3448936 40.9410073,10.2070426 40.4142203,10.0101702 C38.5492069,9.31343617 37.8689152,8.27631915 37.9820975,6.35064894 C38.0735217,4.7938617 39.2582434,3.49094681 40.9312261,3.10730851 C42.8894603,2.65838298 45.0930226,3.21443617 46.7733912,4.61619149 C46.4025044,5.14111702 46.028823,5.67008511 45.7347885,6.08626596 C44.6245236,5.69110638 43.6561858,5.23611702 42.6387424,5.02812766 C42.0764238,4.91311702 41.358205,5.073 40.8396023,5.35375532 C39.8568921,5.88615957 39.8844392,7.16785106 40.8611608,7.71581915 C41.4306656,8.03538298 42.0889996,8.19829787 42.7159939,8.4052766 C43.376324,8.62317021 44.0614065,8.77052128 44.7103585,9.01691489 C46.5615985,9.71991489 47.275825,10.8053404 47.1726234,12.6750213 C47.0865889,14.2364574 46.0661512,15.5021809 44.3478557,15.8953191 C41.8009536,16.4778511 39.508562,15.8912766 37.478466,14.0652553" id="Fill-8" fill="#525252"></path>
                    <g id="Group-12" transform="translate(94.019194, 2.813577)">
                        <mask id="mask-4" fill="white">
                            <use xlink:href="#path-3"></use>
                        </mask>
                        <g id="Clip-11"></g>
                        <path d="M0.189435701,11.2682532 C0.655738964,10.7109872 1.0771286,10.2074872 1.3334357,9.9010617 C2.61596929,10.4005191 3.7366142,10.8561149 4.87342802,11.2652213 C5.14171209,11.3620404 5.47008061,11.3446574 5.76191939,11.3070617 C6.64302495,11.1940723 7.5189405,11.0151894 7.68701727,9.91339149 C7.86128215,8.77157234 7.0670096,8.38955106 6.20087524,8.11566809 C5.19041843,7.79610426 4.1550096,7.55152979 3.1583263,7.19477447 C1.35140115,6.5475617 0.55293666,5.36935957 0.668314779,3.65127447 C0.778303263,2.01363617 1.93368138,0.635934043 3.64558925,0.312529787 C5.76012284,-0.0868744681 7.73013436,0.30363617 9.52228791,1.79291277 C9.12944338,2.34532766 8.75216891,2.87591277 8.46092898,3.28602979 C7.40575816,2.89834894 6.4665643,2.47994468 5.48585029,2.22384894 C5.0031785,2.0979234 4.3556238,2.11530638 3.94341651,2.35321064 C3.48709405,2.61678511 2.9862572,3.17971064 2.93116315,3.66218936 C2.88405374,4.0739234 3.34376967,4.72295532 3.75358157,4.96874255 C4.3915547,5.35116809 5.1764453,5.48234894 5.90025336,5.71681702 C6.43602303,5.89044468 6.98456814,6.02971064 7.50816123,6.23466809 C9.23663724,6.91098723 9.97361996,7.97276383 9.90954319,9.64274255 C9.84506718,11.3288915 8.96356238,12.5513596 7.27920154,13.0140298 C4.65265259,13.7354234 2.31454894,13.0847745 0.189435701,11.2682532" id="Fill-10" fill="#525252" mask="url(#mask-4)"></path>
                    </g>
                    <path d="M10.0701543,6.5144734 C7.15555931,4.57910106 5.0679739,4.5588883 3.43092207,6.40977128 C1.95815432,8.07530319 1.9405881,10.9246968 3.39259578,12.6332819 C5.01327908,14.5405585 7.03738656,14.5122606 10.1192599,12.5449521 C10.5542234,13.0003457 10.9873904,13.4541223 11.4201582,13.9072926 C9.10860345,16.6746223 4.70447294,16.9470904 2.06474933,14.481133 C-0.594337044,11.9971862 -0.700932054,7.48387766 1.83738656,4.85864362 C4.35334818,2.25645213 8.88064184,2.28192021 11.389018,4.97890957 C10.9516591,5.48806915 10.5079125,6.00490957 10.0701543,6.5144734" id="Fill-13" fill="#525252"></path>
                </g>
            </g>
        </g>
    </g>
</svg>