<?xml version="1.0" encoding="UTF-8" standalone="no"?>
<svg width="105px" height="32px" viewBox="0 0 105 32" version="1.1" xmlns="http://www.w3.org/2000/svg" xmlns:xlink="http://www.w3.org/1999/xlink">
    <!-- Generator: Sketch 46.2 (44496) - http://www.bohemiancoding.com/sketch -->
    <title>3312c56117158034544</title>
    <desc>Created with Sketch.</desc>
    <defs></defs>
    <g id="design-768" stroke="none" stroke-width="1" fill="none" fill-rule="evenodd">
        <g id="768" transform="translate(-531.000000, -5857.000000)" fill-rule="nonzero" fill="#404040">
            <g id="3312c56117158034544" transform="translate(531.000000, 5857.000000)">
                <path d="M2.85611789,19.6608817 C3.76087214,18.7087284 4.54461727,17.8481283 5.37057489,17.0255581 C5.90948761,16.487507 6.35553286,15.9621325 6.46809949,15.1409707 C6.59051569,14.270511 7.56984533,13.6042855 8.54776789,13.5310429 C9.52569045,13.4578003 10.5486397,14.0423323 10.8314633,15.050826 C11.0594107,15.8621282 11.5758101,16.3734176 12.1245724,16.9030176 C12.441166,17.2086645 12.797158,17.474873 13.1981766,17.8100986 L11.6700847,19.2721327 C11.5551567,19.1916978 11.4460689,19.1032094 11.3436415,19.0073327 C10.7174896,18.332656 10.1560636,17.5481156 9.03461855,18.1833539 C8.74844462,18.3046956 8.42432466,18.2990664 8.14252804,18.1678603 C7.45868579,17.8227752 7.07595926,18.1678603 6.63694942,18.6185837 C5.08915832,20.2116094 3.49915474,21.7764648 1.9218149,23.3568139 C-1.15828939,18.3312475 -1.0021032,9.3632596 5.85179721,3.65315703 C12.559361,-1.9329966 22.7972956,-1.08789015 28.479096,6.01804657 C33.9480195,12.8237605 32.9359435,22.7658543 26.2080643,28.3274483 C19.2781815,34.0741722 9.91545239,32.4712869 5.17921162,27.6809419 C6.39070993,26.5161035 7.6219074,25.3667587 8.81370654,24.1779756 C12.0349881,20.9665711 15.244075,17.743429 18.4409672,14.5085494 C18.6905467,14.2409382 18.8576437,13.9068941 18.9221895,13.5465365 C19.117774,12.4098683 20.1266524,11.4844768 21.2509116,11.4929279 C22.3357724,11.4999704 23.3165092,12.359162 23.5317928,13.4324472 C23.5858803,13.7748451 23.7317725,14.0961337 23.9539177,14.3620642 C25.5875408,16.0438261 27.2535269,17.6946007 28.9110704,19.3538263 C28.9819498,19.4136171 29.0577307,19.4673301 29.1376108,19.5143966 C30.4447907,16.1522814 29.7342139,10.0632894 25.3961776,5.98424231 C20.732668,1.61761418 13.6787011,1.04222 8.37047546,4.59545072 C3.12768488,8.06742971 1.24641515,14.6381324 2.85611789,19.6608817 Z M8.47037834,27.504878 C8.82496321,27.7203802 9.09090186,27.8978525 9.37231842,28.0499717 C12.2286965,29.5908825 15.2454821,30.1021719 18.4508168,29.5105973 C22.8957914,28.6880271 26.0701702,26.1710184 28.241299,22.2708521 C28.4650252,21.868018 28.325724,21.6468818 28.0513428,21.3750393 C26.371286,19.7092405 24.6992025,18.0354603 23.0350926,16.3536984 C22.7156848,16.0311495 22.4497461,15.9522729 21.988223,16.1072091 C21.5450575,16.2632221 21.0640595,16.2755426 20.6135031,16.1424218 C20.0506699,15.9410048 19.7608109,16.1156601 19.3991906,16.4804644 C15.9490235,19.9547909 12.491352,23.4234834 9.02617605,26.8865418 C8.85169778,27.0541546 8.69551159,27.2471206 8.47037834,27.504878 Z M8.66455577,14.8015196 C8.13408554,14.8113792 7.57828783,15.376192 7.58391616,15.900158 C7.61843974,16.4827298 8.09569615,16.9402065 8.67862659,16.9494985 C9.31181386,16.9494985 9.71142538,16.5269453 9.70579705,15.8846644 C9.69876164,15.2621026 9.24005264,14.7846175 8.66314868,14.7958856 L8.66455577,14.8015196 Z M22.2879316,13.8620429 C22.270536,13.271235 21.7892992,12.8000904 21.1988495,12.7958003 C20.614805,12.8456711 20.1667439,13.3358523 20.1688649,13.9226089 C20.2102161,14.5080234 20.7087217,14.9546386 21.2945311,14.9311026 C21.856994,14.8959189 22.2935193,14.4261471 22.2879316,13.8620429 Z" id="Shape"></path>
                <path d="M81,26.9930112 C80.0365003,26.9930112 79.1410287,27.019435 78.2483337,26.9695233 C78.080346,26.9607154 77.8318353,26.6759251 77.7790788,26.4836183 C77.2237476,24.1979565 76.6961829,21.9093587 76.2005498,19.610485 C76.1033668,19.1583438 75.9367674,18.9880568 75.5174923,18.9939288 C73.573833,19.0232886 73.8820418,18.7340944 73.8514986,20.6542265 C73.8251204,22.7284976 73.8514986,24.8027688 73.8514986,26.9856712 C72.9837936,26.9856712 72.1619033,27.0003511 71.3427897,26.9680553 C71.2317235,26.9680553 71.0859491,26.7478567 71.0318043,26.5995896 C70.9974402,26.4327647 70.9908628,26.2608799 71.0123677,26.0916648 C71.0123677,19.7117763 71.0123677,13.3318879 71.0123677,6.95199952 C71.0123677,6.00074142 71.0123677,5.99486946 71.9383825,6.00074142 C73.4636923,6.01052803 74.9908532,6.0247186 76.5198652,6.04331316 C78.2997018,6.06533302 79.7754946,7.20449395 80.1656148,9.03067462 C80.6014599,11.0579939 80.6199255,13.1607087 80.2197596,15.1962364 C80.0642669,15.9889514 79.489499,16.6833111 79.1493586,17.4437304 C79.0105258,17.7373286 78.8855763,18.1248782 78.9522161,18.4184764 C79.5936236,21.2575708 80.289176,24.0775813 81,26.9930112 Z M73.8501103,12.5362369 L73.8501103,12.5362369 L73.8501103,13.9308282 C73.8501103,16.1739183 73.8501103,16.1739183 75.956204,15.9860155 C76.8504431,15.935972 77.5553666,15.1623757 77.5694413,14.2156184 C77.5930428,13.0412257 77.5888779,11.866833 77.5694413,10.6924403 C77.551393,9.76907404 76.9669069,9.13930595 76.0880952,9.07765033 C75.5327639,9.04241855 74.9774327,9.07765033 74.4221015,9.05856645 C73.9958847,9.03948256 73.8473336,9.23912933 73.852887,9.66778267 C73.8584403,10.6293167 73.8501103,11.5835108 73.8501103,12.5362369 Z" id="Shape"></path>
                <path d="M52.0739774,22.0708877 C52.1983091,21.336952 52.335074,20.5912733 52.4382693,19.8470624 C52.7142857,17.8522251 52.9716524,15.85592 53.2402089,13.8596148 C53.5153964,11.8163377 53.7926561,9.77354997 54.0719881,7.73125149 C54.1122895,7.29624395 54.1783469,6.86510282 54.2696755,6.44099249 C54.3396066,6.23587453 54.4892061,6.0833155 54.6712669,6.03145636 C55.4172572,5.99035595 56.1545443,6.01237403 57,6.01237403 C56.9191844,6.61420132 56.8595052,7.12795633 56.7799329,7.63730772 C56.2092503,11.299647 55.6273778,14.9590505 55.0629118,18.6213898 C54.7384061,20.7277853 54.4412533,22.8400523 54.1242074,24.9493836 C54.0956111,25.1402069 54.0508517,25.3295623 54.0098222,25.5174498 C53.6853164,27 53.6853164,27 52.3649136,27 L50.1741887,27 L47,6.00943828 C47.870322,6.00943828 48.6063658,5.97567724 49.3411662,6.03585997 C49.5003108,6.04907081 49.7415144,6.37493827 49.7725973,6.59218325 C50.1107796,8.91875949 50.4091757,11.254143 50.7287082,13.5851228 C51.0644038,16.0364681 51.413776,18.4848777 51.7519582,20.9347552 C51.8029342,21.3031909 51.8240706,21.6760303 51.8588835,22.0474017 L52.0739774,22.0708877 Z" id="Shape"></path>
                <path d="M105,6.08005472 C104.578529,7.33134387 104.181399,8.52982363 103.770177,9.72390261 C103.060466,11.7776011 102.328978,13.8312996 101.644889,15.9040681 C101.543188,16.2611741 101.549052,16.6470253 101.661542,16.999863 C102.669741,20.0217336 103.711248,23.0289349 104.7361,26.042004 C104.827056,26.3089848 104.888547,26.5906349 104.992314,26.9676352 C104.101973,26.9676352 103.279529,26.9896392 102.459646,26.9470983 C102.32001,26.9470983 102.130413,26.6830513 102.068921,26.4967515 C101.510377,24.8141857 100.977453,23.1228183 100.434281,21.4329178 C100.340764,21.1395323 100.239559,20.8461468 100.088394,20.4060686 C99.9269792,20.6730494 99.8116833,20.7992051 99.7617218,20.9532325 C99.1878043,22.7326156 98.6087625,24.5105317 98.0643095,26.3016502 C97.9080195,26.8136079 97.6966436,27.0351139 97.198309,26.9955069 C96.5001281,26.9382967 95.7891366,26.9808376 95,26.9808376 C95.1819114,26.3940666 95.3279529,25.8718404 95.5021778,25.3672173 C96.4386369,22.6255299 97.3712529,19.8838424 98.3294901,17.1524234 C98.5061041,16.6915013 98.5061041,16.1669551 98.3294901,15.7060329 C97.2713297,12.6797615 96.2349475,9.64468852 95.194722,6.61108247 C95.1434794,6.46438973 95.1127338,6.30156077 95.0435562,6.03311304 C95.9774532,6.03311304 96.8434538,6.00670835 97.7056111,6.05951774 C97.8465283,6.0683193 98.0233154,6.40571263 98.0963362,6.63015253 C98.657443,8.3361892 99.1954906,10.0539613 99.7489111,11.7643987 C99.8459604,11.9962024 99.9559321,12.2206167 100.078145,12.4362515 L101.715347,7.247729 C102.195747,5.72505827 101.97156,6.03751383 103.196259,6.00817528 C103.686908,5.99643986 104.177556,6.00817528 104.668204,6.02284455 C104.779651,6.03478492 104.890424,6.05388507 105,6.08005472 L105,6.08005472 Z" id="Shape"></path>
                <path d="M69.931269,24.1162342 L69.931269,27 L61.0500764,27 C61.0368209,26.7338289 61.0147283,26.4955983 61.0147283,26.2573678 C61.0147283,19.7869092 61.0147283,13.3164506 61,6.84599201 C61,6.22247509 61.1296094,5.98865625 61.8041677,6.00042072 C64.258892,6.03865524 66.7136164,6.03865524 69.1683407,6.00042072 C69.8266978,5.99159736 70.0520415,6.2077695 69.9901824,6.84305089 C69.9523262,7.35656168 69.9523262,7.87215626 69.9901824,8.38566705 C70.0211119,8.89595094 69.8222793,9.06947688 69.3112057,9.06212408 C67.8148057,9.03712458 66.3169329,9.07241799 64.820533,9.04447738 C64.2520188,9.03271291 64.0384578,9.21506219 64.0502405,9.79887403 C64.0826428,11.2694328 64.0782243,12.7399916 64.0502405,14.2105503 C64.0399306,14.7443632 64.1975239,14.9590648 64.7616196,14.9458297 C65.7660928,14.9105363 66.7735116,14.9531825 67.7794577,14.9296536 C68.2669659,14.9178891 68.507038,15.0472983 68.4672714,15.5869934 C68.4113037,16.3384489 68.694088,17.3516639 68.3052596,17.7737143 C67.9164313,18.1957646 66.8913384,17.9516519 66.1431384,17.9825336 C65.6291192,18.004592 65.1121542,17.941358 64.6010806,18.0163565 C64.4007751,18.0472382 64.0914798,18.3457616 64.0870613,18.5281109 C64.0472948,20.1927834 64.0693873,21.8603971 64.0605503,23.5280107 C64.0605503,24.0544708 64.4125578,24.0250596 64.7645652,24.0265302 L69.7722029,24.0500591 C69.8271289,24.0672452 69.8803713,24.0893952 69.931269,24.1162342 Z" id="Shape"></path>
                <path d="M92.9511215,24.0300799 L92.9511215,27 L84.0412562,27 C84.0265218,26.6907867 84,26.4036601 84,26.1165334 C84,19.7359417 84,13.3553499 84,6.9747581 C84,6.00294489 84,6 84.9680472,6 L92.9894308,6 C92.9894308,6.91586033 93.0277402,7.74484645 92.9584887,8.5649979 C92.9437543,8.74021876 92.5474001,9.0140934 92.3204911,9.02145562 C90.8735773,9.0641565 89.4237166,9.07446361 87.9768028,9.03029028 C87.2887083,9.00967606 87.0087556,9.19814893 87.0352774,9.92848128 C87.0839008,11.3007993 87.0750602,12.6760623 87.0352774,14.0513252 C87.0175962,14.7021456 87.192935,14.9774926 87.9016576,14.9347918 C89.0214687,14.8773664 90.1457,14.9200673 91.3465501,14.9200673 C91.3465501,15.8550694 91.3774922,16.6870004 91.3200283,17.5115692 C91.3082408,17.676483 90.9634568,17.9415229 90.7630696,17.9533025 C89.7581865,18.0004207 88.7503565,17.991586 87.744,17.9709718 C87.2371381,17.9606647 87.0382243,18.1653345 87.0426446,18.6644931 C87.0559055,20.2341186 87.0588524,21.8052167 87.0426446,23.3763147 C87.0426446,23.9078671 87.2813412,24.0374422 87.7646281,24.0315524 C89.2380637,24.0109382 90.7114993,24.0315524 92.184935,24.0315524 L92.9511215,24.0300799 Z" id="Shape"></path>
                <path d="M45.9796093,26.9897346 C43.0393725,26.9897346 40.3225938,26.9765363 37.5999346,27 C37.0001263,27 36.9986562,26.6700419 37.0001263,26.2506285 C37.0001263,23.0986732 37.0001263,19.9467179 37.0001263,16.7947626 C37.0001263,13.5206006 37.0001263,10.2454609 37.0001263,6.96934358 C37.0001263,6.0146648 37.0001263,6.01319832 37.9880459,6.01173184 C40.3887492,6.01173184 42.7894524,6.02786313 45.1916258,6 C45.8031951,6 46.0295933,6.19357542 45.9840196,6.79923184 C45.9521128,7.33647036 45.9521128,7.87512182 45.9840196,8.41236034 C46.0046013,8.8948324 45.7929042,9.05467877 45.3268767,9.04881285 C43.8332365,9.03268156 42.3381261,9.06201117 40.8444858,9.03414804 C40.2799604,9.02388268 40.0550323,9.19839385 40.0667932,9.78351955 C40.0961956,11.25 40.0991358,12.7164804 40.0667932,14.1829609 C40.0535622,14.7856844 40.3034823,14.927933 40.8533066,14.9162011 C41.9970586,14.8839385 43.143751,14.9059358 44.3551285,14.9059358 C44.3551285,15.8562151 44.3801205,16.7082402 44.3301365,17.5543994 C44.3213158,17.7010475 43.9831885,17.9195531 43.790603,17.9268855 C42.7879823,17.9664804 41.7824214,17.9606145 40.7783305,17.9430168 C40.2843708,17.9342179 40.0667932,18.114595 40.0726737,18.6249302 C40.088845,20.1881983 40.0932554,21.752933 40.0726737,23.3176676 C40.0653231,23.8441341 40.2887811,23.9849162 40.7768604,23.9790503 C42.2469788,23.9585196 43.7170971,24.0083799 45.1872155,23.9555866 C45.8619998,23.9306564 46.0354738,24.1652933 45.9943104,24.790014 C45.9428563,25.5041899 45.9796093,26.2271648 45.9796093,26.9897346 Z" id="Shape"></path>
            </g>
        </g>
    </g>
</svg>