<?xml version="1.0" encoding="UTF-8" standalone="no"?>
<svg width="96px" height="44px" viewBox="0 0 96 44" version="1.1" xmlns="http://www.w3.org/2000/svg" xmlns:xlink="http://www.w3.org/1999/xlink">
    <!-- Generator: Sketch 46.2 (44496) - http://www.bohemiancoding.com/sketch -->
    <title>Page 1</title>
    <desc>Created with Sketch.</desc>
    <defs>
        <polygon id="path-1" points="0 44 96 44 96 0 0 0"></polygon>
    </defs>
    <g id="design-1440" stroke="none" stroke-width="1" fill="none" fill-rule="evenodd">
        <g id="mm-landing-1440" transform="translate(-451.000000, -5869.000000)">
            <g id="Page-1" transform="translate(451.000000, 5869.000000)">
                <mask id="mask-2" fill="white">
                    <use xlink:href="#path-1"></use>
                </mask>
                <g id="Clip-2"></g>
                <path d="M45.5544192,21.6311464 L47.0085504,21.6311464 L47.0085504,0 L45.5544192,0 L45.5544192,21.6311464 Z M14.4621312,14.438367 C14.4621312,16.1772483 13.7747328,17.8107811 12.558528,19.022767 C11.3423232,20.2611187 9.703104,20.919805 7.9581312,20.919805 C6.2131584,20.919805 4.5739392,20.2347529 3.3577344,19.022767 C2.141568,17.7844536 1.4541312,16.1772483 1.4541312,14.438367 C1.4541312,12.6994474 2.141568,11.0659146 3.3577344,9.8539287 C4.5739392,8.61557702 6.2131584,7.95692899 7.9581312,7.95692899 C9.703104,7.95692899 11.3423232,8.64194284 12.558528,9.8539287 C13.801152,11.0659146 14.4621312,12.6994474 14.4621312,14.438367 L14.4621312,14.438367 Z M12.558528,31.4850368 C13.7747328,32.7233502 14.4621312,34.3305555 14.4621312,36.0694751 C14.4621312,37.8083947 13.7747328,39.4418893 12.558528,40.6538751 C11.3423232,41.8922268 9.703104,42.5509131 7.9581312,42.5509131 C6.2131584,42.5509131 4.5739392,41.865861 3.3577344,40.6538751 C2.141568,39.4155617 1.4541312,37.8083947 1.4541312,36.0694751 C1.4541312,34.3305555 2.141568,32.6970227 3.3577344,31.4850368 C4.5739392,30.2466851 6.2131584,29.5880371 7.9581312,29.5880371 C9.703104,29.5880371 11.3423232,30.2466851 12.558528,31.4850368 L12.558528,31.4850368 Z M17.6612352,3.71497849 L13.0344192,8.3257826 C11.6067072,7.14016256 9.8353152,6.48147626 7.9581312,6.48147626 C5.8430208,6.48147626 3.833664,7.29824268 2.3266176,8.80002296 C0.8196096,10.3018415 0,12.304228 0,14.4120012 C0,16.5197744 0.8196096,18.5221608 2.3266176,20.0239794 C3.648576,21.341352 5.3671296,22.1580801 7.217856,22.3161602 L7.217856,28.1652778 C5.3671296,28.3233961 3.648576,29.1137967 2.3266176,30.4574969 C0.8196096,31.9592772 0,33.9616636 0,36.0694751 C0,38.1772483 0.8196096,40.179673 2.3266176,41.6814533 C3.833664,43.1832336 5.8166016,44 7.9581312,44 C10.0732416,44 12.0826368,43.1832336 13.5896448,41.6814533 C15.0966912,40.179673 15.9162624,38.2036141 15.9162624,36.0694751 C15.9162624,33.9353361 15.0966912,31.9592772 13.5896448,30.4574969 C12.2676864,29.1401243 10.5491712,28.3233961 8.6984064,28.1652778 L8.6984064,22.3161602 C10.5491712,22.1580801 12.2676864,21.3676795 13.5896448,20.0239794 C15.0966912,18.5221608 15.9162624,16.5461402 15.9162624,14.4120012 C15.9162624,12.541329 15.2552832,10.749716 14.0655744,9.32699496 L18.692352,4.71619085 L17.6612352,3.71501676 L17.6612352,3.71497849 Z M57.5841408,9.82756287 C58.8003456,8.58924947 60.4395264,7.93056317 62.1845376,7.93056317 C63.929472,7.93056317 65.5687296,8.61557702 66.784896,9.82756287 C67.6573824,10.6970227 68.2654848,11.8036218 68.5298688,12.9629143 L55.839168,12.9629143 C56.103552,11.8036218 56.6851968,10.7233885 57.5841408,9.82756287 L57.5841408,9.82756287 Z M67.7895936,8.82638878 C66.2825472,7.32457024 64.299648,6.50780382 62.15808,6.50780382 C60.0429696,6.50780382 58.0336128,7.32457024 56.5265664,8.82638878 C55.0195584,10.3281691 54.1999488,12.304228 54.1999488,14.438367 C54.1999488,16.5461402 55.0195584,18.5485266 56.5265664,20.0503069 C58.0336128,21.5520872 60.0165504,22.3688536 62.15808,22.3688536 C64.299648,22.3688536 66.2825472,21.5521255 67.7895936,20.0503069 L66.7584768,19.022767 C65.542272,20.2610804 63.9030912,20.9197667 62.15808,20.9197667 C60.4131072,20.9197667 58.773888,20.2347529 57.5576832,19.022767 C56.3415168,17.7844536 55.65408,16.1772483 55.65408,14.438367 L70.1162112,14.438367 C70.1162112,12.304228 69.29664,10.3018032 67.7895936,8.82638878 Z M34.9787904,19.022767 C33.7625856,20.2611187 32.1233664,20.919805 30.3783936,20.919805 C28.6334208,20.919805 26.9942016,20.2347529 25.7780352,19.022767 C24.5618304,17.7844536 23.8743936,16.1772483 23.8743936,14.438367 C23.8743936,12.6994474 24.5618304,11.0659146 25.7780352,9.8539287 C26.9942016,8.61557702 28.6334208,7.95692899 30.3783936,7.95692899 C32.1233664,7.95692899 33.7625856,8.64194284 34.9787904,9.8539287 C36.1949952,11.0922421 36.8823936,12.6994474 36.8823936,14.438367 C36.8823936,16.1509208 36.1949952,17.7844536 34.9787904,19.022767 L34.9787904,19.022767 Z M30.3783936,6.48147626 C28.2632832,6.48147626 26.2539264,7.29824268 24.7469184,8.80002296 C23.239872,10.3018415 22.4202624,12.2779004 22.4202624,14.4120012 C22.4202624,16.5197744 23.239872,18.5221608 24.7469184,20.0239794 C26.2539264,21.5257596 28.2368256,22.3425643 30.3783936,22.3425643 C32.4935424,22.3425643 34.5028992,21.5257596 36.0099072,20.0239794 C37.5169152,18.5221608 38.3365632,16.5461402 38.3365632,14.4120012 C38.3365632,12.304228 37.5169152,10.3018032 36.0099072,8.80002296 C34.4764416,7.32457024 32.4935424,6.48147626 30.3783936,6.48147626 L30.3783936,6.48147626 Z M76.6202112,7.03477582 L76.6202112,21.8155923 L78.0743808,21.8155923 L78.0743808,8.48386272 L85.58304,8.48386272 L85.58304,21.8155923 L87.0371712,21.8155923 L87.0371712,8.48386272 L94.5458688,8.48386272 L94.5458688,21.8155923 L96,21.8155923 L96,7.03477582 L76.6202112,7.03477582 Z" id="Fill-1" fill="#404042" mask="url(#mask-2)"></path>
            </g>
        </g>
    </g>
</svg>