<?xml version="1.0" encoding="UTF-8" standalone="no"?>
<svg width="78px" height="33px" viewBox="0 0 78 33" version="1.1" xmlns="http://www.w3.org/2000/svg" xmlns:xlink="http://www.w3.org/1999/xlink">
    <!-- Generator: Sketch 46.2 (44496) - http://www.bohemiancoding.com/sketch -->
    <title>hive-logo</title>
    <desc>Created with Sketch.</desc>
    <defs></defs>
    <g id="design-1440" stroke="none" stroke-width="1" fill="none" fill-rule="evenodd">
        <g id="mm-landing-1440" transform="translate(-376.000000, -5656.000000)" fill="#404042">
            <g id="hive-logo" transform="translate(376.000000, 5656.000000)">
                <g id="Page-1">
                    <polygon id="Fill-1" points="15.3947368 33 17.4473684 33 17.4473684 30.9375 15.3947368 30.9375"></polygon>
                    <polygon id="Fill-2" points="12.3157895 33 14.3684211 33 14.3684211 30.9375 12.3157895 30.9375"></polygon>
                    <polygon id="Fill-3" points="0 33 5.13157895 33 5.13157895 0 0 0"></polygon>
                    <polygon id="Fill-4" points="12.3157895 11.34375 14.3684211 11.34375 14.3684211 9.28125 12.3157895 9.28125"></polygon>
                    <polygon id="Fill-5" points="9.23684211 11.34375 11.2894737 11.34375 11.2894737 9.28125 9.23684211 9.28125"></polygon>
                    <polygon id="Fill-6" points="15.3947368 14.4375 17.4473684 14.4375 17.4473684 12.375 15.3947368 12.375"></polygon>
                    <polygon id="Fill-7" points="12.3157895 14.4375 14.3684211 14.4375 14.3684211 12.375 12.3157895 12.375"></polygon>
                    <polygon id="Fill-8" points="6.15789474 14.4375 8.21052632 14.4375 8.21052632 12.375 6.15789474 12.375"></polygon>
                    <polygon id="Fill-9" points="15.3947368 17.53125 17.4473684 17.53125 17.4473684 15.46875 15.3947368 15.46875"></polygon>
                    <polygon id="Fill-10" points="12.3157895 17.53125 14.3684211 17.53125 14.3684211 15.46875 12.3157895 15.46875"></polygon>
                    <polygon id="Fill-11" points="15.3947368 20.625 17.4473684 20.625 17.4473684 18.5625 15.3947368 18.5625"></polygon>
                    <polygon id="Fill-12" points="12.3157895 20.625 14.3684211 20.625 14.3684211 18.5625 12.3157895 18.5625"></polygon>
                    <polygon id="Fill-13" points="15.3947368 23.71875 17.4473684 23.71875 17.4473684 21.65625 15.3947368 21.65625"></polygon>
                    <polygon id="Fill-14" points="12.3157895 23.71875 14.3684211 23.71875 14.3684211 21.65625 12.3157895 21.65625"></polygon>
                    <polygon id="Fill-15" points="15.3947368 26.8125 17.4473684 26.8125 17.4473684 24.75 15.3947368 24.75"></polygon>
                    <polygon id="Fill-16" points="12.3157895 26.8125 14.3684211 26.8125 14.3684211 24.75 12.3157895 24.75"></polygon>
                    <polygon id="Fill-17" points="15.3947368 29.90625 17.4473684 29.90625 17.4473684 27.84375 15.3947368 27.84375"></polygon>
                    <polygon id="Fill-18" points="12.3157895 29.90625 14.3684211 29.90625 14.3684211 27.84375 12.3157895 27.84375"></polygon>
                    <polygon id="Fill-19" points="27.8336842 33 29.8863158 33 29.8863158 30.9375 27.8336842 30.9375"></polygon>
                    <polygon id="Fill-20" points="24.7547368 33 26.8073684 33 26.8073684 30.9375 24.7547368 30.9375"></polygon>
                    <polygon id="Fill-21" points="24.7547368 11.34375 26.8073684 11.34375 26.8073684 9.28125 24.7547368 9.28125"></polygon>
                    <polygon id="Fill-22" points="27.8336842 14.4375 29.8863158 14.4375 29.8863158 12.375 27.8336842 12.375"></polygon>
                    <polygon id="Fill-23" points="27.8336842 11.34375 29.8863158 11.34375 29.8863158 9.28125 27.8336842 9.28125"></polygon>
                    <polygon id="Fill-24" points="24.7547368 5.15625 26.8073684 5.15625 26.8073684 3.09375 24.7547368 3.09375"></polygon>
                    <polygon id="Fill-25" points="27.8336842 5.15625 29.8863158 5.15625 29.8863158 3.09375 27.8336842 3.09375"></polygon>
                    <polygon id="Fill-26" points="24.7547368 14.4375 26.8073684 14.4375 26.8073684 12.375 24.7547368 12.375"></polygon>
                    <polygon id="Fill-27" points="27.8336842 17.53125 29.8863158 17.53125 29.8863158 15.46875 27.8336842 15.46875"></polygon>
                    <polygon id="Fill-28" points="24.7547368 17.53125 26.8073684 17.53125 26.8073684 15.46875 24.7547368 15.46875"></polygon>
                    <polygon id="Fill-29" points="27.8336842 20.625 29.8863158 20.625 29.8863158 18.5625 27.8336842 18.5625"></polygon>
                    <polygon id="Fill-30" points="24.7547368 20.625 26.8073684 20.625 26.8073684 18.5625 24.7547368 18.5625"></polygon>
                    <polygon id="Fill-31" points="27.8336842 23.71875 29.8863158 23.71875 29.8863158 21.65625 27.8336842 21.65625"></polygon>
                    <polygon id="Fill-32" points="24.7547368 23.71875 26.8073684 23.71875 26.8073684 21.65625 24.7547368 21.65625"></polygon>
                    <polygon id="Fill-33" points="27.8336842 26.8125 29.8863158 26.8125 29.8863158 24.75 27.8336842 24.75"></polygon>
                    <polygon id="Fill-34" points="24.7547368 26.8125 26.8073684 26.8125 26.8073684 24.75 24.7547368 24.75"></polygon>
                    <polygon id="Fill-35" points="27.8336842 29.90625 29.8863158 29.90625 29.8863158 27.84375 27.8336842 27.84375"></polygon>
                    <polygon id="Fill-36" points="24.7547368 29.90625 26.8073684 29.90625 26.8073684 27.84375 24.7547368 27.84375"></polygon>
                    <polygon id="Fill-37" points="37.0705263 11.34375 39.1231579 11.34375 39.1231579 9.28125 37.0705263 9.28125"></polygon>
                    <polygon id="Fill-38" points="40.1494737 14.4375 42.2021053 14.4375 42.2021053 12.375 40.1494737 12.375"></polygon>
                    <polygon id="Fill-39" points="40.1494737 11.34375 42.2021053 11.34375 42.2021053 9.28125 40.1494737 9.28125"></polygon>
                    <polygon id="Fill-40" points="37.0705263 14.4375 39.1231579 14.4375 39.1231579 12.375 37.0705263 12.375"></polygon>
                    <polygon id="Fill-41" points="40.1494737 17.53125 42.2021053 17.53125 42.2021053 15.46875 40.1494737 15.46875"></polygon>
                    <polygon id="Fill-42" points="37.0705263 17.53125 39.1231579 17.53125 39.1231579 15.46875 37.0705263 15.46875"></polygon>
                    <polygon id="Fill-43" points="40.1494737 20.625 42.2021053 20.625 42.2021053 18.5625 40.1494737 18.5625"></polygon>
                    <polygon id="Fill-44" points="37.0705263 20.625 39.1231579 20.625 39.1231579 18.5625 37.0705263 18.5625"></polygon>
                    <polygon id="Fill-45" points="40.1494737 23.71875 42.2021053 23.71875 42.2021053 21.65625 40.1494737 21.65625"></polygon>
                    <polygon id="Fill-46" points="37.0705263 23.71875 39.1231579 23.71875 39.1231579 21.65625 37.0705263 21.65625"></polygon>
                    <polygon id="Fill-47" points="40.1494737 26.8125 42.2021053 26.8125 42.2021053 24.75 40.1494737 24.75"></polygon>
                    <polygon id="Fill-48" points="37.0705263 26.8125 39.1231579 26.8125 39.1231579 24.75 37.0705263 24.75"></polygon>
                    <polygon id="Fill-49" points="40.1494737 29.90625 42.2021053 29.90625 42.2021053 27.84375 40.1494737 27.84375"></polygon>
                    <polygon id="Fill-50" points="62.7284211 14.4375 64.7810526 14.4375 64.7810526 12.375 62.7284211 12.375"></polygon>
                    <polygon id="Fill-51" points="62.7284211 11.34375 64.7810526 11.34375 64.7810526 9.28125 62.7284211 9.28125"></polygon>
                    <polygon id="Fill-52" points="59.6494737 14.4375 61.7021053 14.4375 61.7021053 12.375 59.6494737 12.375"></polygon>
                    <polygon id="Fill-53" points="62.7284211 17.53125 64.7810526 17.53125 64.7810526 15.46875 62.7284211 15.46875"></polygon>
                    <polygon id="Fill-54" points="59.6494737 17.53125 61.7021053 17.53125 61.7021053 15.46875 59.6494737 15.46875"></polygon>
                    <polygon id="Fill-55" points="62.7284211 20.625 64.7810526 20.625 64.7810526 18.5625 62.7284211 18.5625"></polygon>
                    <polygon id="Fill-56" points="59.6494737 20.625 61.7021053 20.625 61.7021053 18.5625 59.6494737 18.5625"></polygon>
                    <polygon id="Fill-57" points="62.7284211 23.71875 64.7810526 23.71875 64.7810526 21.65625 62.7284211 21.65625"></polygon>
                    <polygon id="Fill-58" points="59.6494737 23.71875 61.7021053 23.71875 61.7021053 21.65625 59.6494737 21.65625"></polygon>
                    <polygon id="Fill-59" points="62.7284211 26.8125 64.7810526 26.8125 64.7810526 24.75 62.7284211 24.75"></polygon>
                    <polygon id="Fill-60" points="59.6494737 26.8125 61.7021053 26.8125 61.7021053 24.75 59.6494737 24.75"></polygon>
                    <polygon id="Fill-61" points="59.6494737 29.90625 61.7021053 29.90625 61.7021053 27.84375 59.6494737 27.84375"></polygon>
                    <polygon id="Fill-62" points="62.7284211 29.90625 64.7810526 29.90625 64.7810526 27.84375 62.7284211 27.84375"></polygon>
                    <polygon id="Fill-63" points="62.7284211 33 64.7810526 33 64.7810526 30.9375 62.7284211 30.9375"></polygon>
                    <polygon id="Fill-64" points="65.8073684 11.34375 67.86 11.34375 67.86 9.28125 65.8073684 9.28125"></polygon>
                    <polygon id="Fill-65" points="65.8073684 20.625 67.86 20.625 67.86 18.5625 65.8073684 18.5625"></polygon>
                    <polygon id="Fill-66" points="65.8073684 33 67.86 33 67.86 30.9375 65.8073684 30.9375"></polygon>
                    <polygon id="Fill-67" points="68.8863158 11.34375 70.9389474 11.34375 70.9389474 9.28125 68.8863158 9.28125"></polygon>
                    <polygon id="Fill-68" points="68.8863158 20.625 70.9389474 20.625 70.9389474 18.5625 68.8863158 18.5625"></polygon>
                    <polygon id="Fill-69" points="68.8863158 33 70.9389474 33 70.9389474 30.9375 68.8863158 30.9375"></polygon>
                    <polygon id="Fill-70" points="71.9652632 14.4375 74.0178947 14.4375 74.0178947 12.375 71.9652632 12.375"></polygon>
                    <polygon id="Fill-71" points="71.9652632 11.34375 74.0178947 11.34375 74.0178947 9.28125 71.9652632 9.28125"></polygon>
                    <polygon id="Fill-72" points="71.9652632 17.53125 74.0178947 17.53125 74.0178947 15.46875 71.9652632 15.46875"></polygon>
                    <polygon id="Fill-73" points="71.9652632 20.625 74.0178947 20.625 74.0178947 18.5625 71.9652632 18.5625"></polygon>
                    <polygon id="Fill-74" points="71.9652632 26.8125 74.0178947 26.8125 74.0178947 24.75 71.9652632 24.75"></polygon>
                    <polygon id="Fill-75" points="71.9652632 29.90625 74.0178947 29.90625 74.0178947 27.84375 71.9652632 27.84375"></polygon>
                    <polygon id="Fill-76" points="71.9652632 33 74.0178947 33 74.0178947 30.9375 71.9652632 30.9375"></polygon>
                    <polygon id="Fill-77" points="75.0442105 14.4375 77.0968421 14.4375 77.0968421 12.375 75.0442105 12.375"></polygon>
                    <polygon id="Fill-78" points="75.0442105 17.53125 77.0968421 17.53125 77.0968421 15.46875 75.0442105 15.46875"></polygon>
                    <polygon id="Fill-79" points="75.0442105 20.625 77.0968421 20.625 77.0968421 18.5625 75.0442105 18.5625"></polygon>
                    <polygon id="Fill-80" points="75.0442105 26.8125 77.0968421 26.8125 77.0968421 24.75 75.0442105 24.75"></polygon>
                    <polygon id="Fill-81" points="75.0442105 29.90625 77.0968421 29.90625 77.0968421 27.84375 75.0442105 27.84375"></polygon>
                    <polygon id="Fill-82" points="46.3073684 33 48.36 33 48.36 30.9375 46.3073684 30.9375"></polygon>
                    <polygon id="Fill-83" points="49.3863158 11.34375 51.4389474 11.34375 51.4389474 9.28125 49.3863158 9.28125"></polygon>
                    <polygon id="Fill-84" points="52.4652632 14.4375 54.5178947 14.4375 54.5178947 12.375 52.4652632 12.375"></polygon>
                    <polygon id="Fill-85" points="52.4652632 11.34375 54.5178947 11.34375 54.5178947 9.28125 52.4652632 9.28125"></polygon>
                    <polygon id="Fill-86" points="49.3863158 14.4375 51.4389474 14.4375 51.4389474 12.375 49.3863158 12.375"></polygon>
                    <polygon id="Fill-87" points="52.4652632 17.53125 54.5178947 17.53125 54.5178947 15.46875 52.4652632 15.46875"></polygon>
                    <polygon id="Fill-88" points="49.3863158 17.53125 51.4389474 17.53125 51.4389474 15.46875 49.3863158 15.46875"></polygon>
                    <polygon id="Fill-89" points="52.4652632 20.625 54.5178947 20.625 54.5178947 18.5625 52.4652632 18.5625"></polygon>
                    <polygon id="Fill-90" points="49.3863158 20.625 51.4389474 20.625 51.4389474 18.5625 49.3863158 18.5625"></polygon>
                    <polygon id="Fill-91" points="52.4652632 23.71875 54.5178947 23.71875 54.5178947 21.65625 52.4652632 21.65625"></polygon>
                    <polygon id="Fill-92" points="49.3863158 23.71875 51.4389474 23.71875 51.4389474 21.65625 49.3863158 21.65625"></polygon>
                    <polygon id="Fill-93" points="52.4652632 26.8125 54.5178947 26.8125 54.5178947 24.75 52.4652632 24.75"></polygon>
                    <polygon id="Fill-94" points="49.3863158 26.8125 51.4389474 26.8125 51.4389474 24.75 49.3863158 24.75"></polygon>
                    <polygon id="Fill-95" points="49.3863158 29.90625 51.4389474 29.90625 51.4389474 27.84375 49.3863158 27.84375"></polygon>
                    <polygon id="Fill-96" points="43.2284211 33 45.2810526 33 45.2810526 30.9375 43.2284211 30.9375"></polygon>
                </g>
            </g>
        </g>
    </g>
</svg>