<?xml version="1.0" encoding="UTF-8" standalone="no"?>
<svg width="56px" height="56px" viewBox="0 0 56 56" version="1.1" xmlns="http://www.w3.org/2000/svg" xmlns:xlink="http://www.w3.org/1999/xlink">
    <!-- Generator: Sketch 46.2 (44496) - http://www.bohemiancoding.com/sketch -->
    <title>tether-usdt-icon</title>
    <desc>Created with Sketch.</desc>
    <defs></defs>
    <g id="design-1440" stroke="none" stroke-width="1" fill="none" fill-rule="evenodd">
        <g id="mm-landing-1440" transform="translate(-692.000000, -5954.000000)" fill-rule="nonzero" fill="#404042">
            <g id="tether-usdt-icon" transform="translate(692.000000, 5954.000000)">
                <path d="M31.3987613,25 L31.3987613,29.392446 C30.3102994,29.4503945 29.1718521,29.4822145 27.9997562,29.4822145 C26.7262265,29.4822145 25.4936604,29.4452205 24.3210768,29.3758893 L24.3210768,25.8689691 L24.3203453,25.8689691 L24.3203453,25.0134523 C17.8154199,25.3456215 13,26.5389988 13,27.9605484 C13,29.639762 19.7155954,31 28,31 C36.2839169,31 43,29.639762 43,27.9605484 C42.9997562,26.5180442 38.0451087,25.311732 31.3987613,25 Z" id="Shape"></path>
                <path d="M28.0001235,0 C12.536333,0 0,12.535537 0,27.9997531 C0,43.4632284 12.536333,56 28.0001235,56 C43.4639139,56 56,43.4632284 56,27.9997531 C56,12.535537 43.463667,0 28.0001235,0 Z M31.441954,32.7535475 L31.441954,45.1043752 L24.2735727,45.1043752 L24.2735727,32.7367558 C16.599955,32.2927621 10.8596198,30.5078976 10.8596198,28.3723818 C10.8596198,26.2373599 16.599955,24.4527423 24.2735727,24.0080078 L24.2735727,20.5471783 L14.5148053,20.5471783 L14.5148053,13.3790756 L41.2017092,13.3790756 L41.2017092,20.5471783 L31.441954,20.5471783 L31.4424479,23.991463 C39.259043,24.4073058 45.141121,26.2111845 45.141121,28.3723818 C45.1408741,30.534073 39.259043,32.3381986 31.441954,32.7535475 Z" id="Shape"></path>
            </g>
        </g>
    </g>
</svg>