<?xml version="1.0" encoding="UTF-8" standalone="no"?>
<svg width="72px" height="31px" viewBox="0 0 72 31" version="1.1" xmlns="http://www.w3.org/2000/svg" xmlns:xlink="http://www.w3.org/1999/xlink">
    <!-- Generator: Sketch 46.2 (44496) - http://www.bohemiancoding.com/sketch -->
    <title>Page 1</title>
    <desc>Created with Sketch.</desc>
    <defs>
        <polygon id="path-1" points="8.95816667 24.8872717 8.95816667 0.154022038 0.103876479 0.154022038 0.103876479 24.8872717"></polygon>
    </defs>
    <g id="design-1440" stroke="none" stroke-width="1" fill="none" fill-rule="evenodd">
        <g id="mm-landing-1440" transform="translate(-909.000000, -5868.000000)">
            <g id="Page-1" transform="translate(909.000000, 5868.000000)">
                <g id="Group-3" transform="translate(63.000000, 0.000000)">
                    <mask id="mask-2" fill="white">
                        <use xlink:href="#path-1"></use>
                    </mask>
                    <g id="Clip-2"></g>
                    <path d="M8.9582,9.34286624 C8.5477,9.50066879 8.1457,9.76388535 7.72486667,9.79461783 C6.78636667,9.86356688 5.83803333,9.83363057 4.89453333,9.81085987 C4.2127,9.7944586 3.9512,10.0911146 3.9537,10.7229618 C3.9657,13.9064013 3.95336667,17.0898408 3.96603333,20.2734395 C3.9697,21.209586 4.21586667,21.4170701 5.22653333,21.4263057 C6.0872,21.4342675 6.94853333,21.4450955 7.8087,21.4232803 C8.4562,21.4070382 8.71386667,21.7022611 8.70886667,22.2896815 C8.6842,25.2192994 9.06153333,24.8782166 6.1847,24.8723248 C5.16186667,24.870414 4.11603333,24.8712102 3.12153333,24.6780573 C1.24103333,24.3127707 0.317366667,23.0567197 0.140366667,20.8673885 C0.104033333,20.4185032 0.1057,19.9659554 0.105533333,19.5151592 C0.103533333,13.4665924 0.103533333,7.41802548 0.104533333,1.3694586 C0.1047,0.246687898 0.200366667,0.158630573 1.39503333,0.154808917 C1.95036667,0.153057325 2.5057,0.154490446 3.06103333,0.15656051 C3.67303333,0.158630573 3.97003333,0.431401274 3.9632,1.03824841 C3.94736667,2.47073248 3.9782,3.90369427 3.9502,5.33570064 C3.93636667,6.04780255 4.22353333,6.35480892 4.98286667,6.32598726 C5.89786667,6.29111465 6.81936667,6.2694586 7.7297,6.33952229 C8.1492,6.37184713 8.54936667,6.63601911 8.9582,6.79509554 L8.9582,9.34286624 Z" id="Fill-1" fill="#525252" mask="url(#mask-2)"></path>
                </g>
                <g id="Group-6" transform="translate(18.000000, 6.000000)" fill="#525252">
                    <path d="M3.63251304,9.32215686 C3.63251304,10.900098 3.64514348,12.478366 3.62657826,14.0559804 C3.61866522,14.7383333 3.87188261,15.0788562 4.52242609,15.0515686 C5.28146957,15.0198693 6.04523043,15.0427451 6.7997087,14.9630065 C8.86896957,14.7440523 10.0772304,13.6587582 10.2135783,11.725915 C10.3242087,10.1581046 10.2952957,8.57084967 10.2196652,6.99830065 C10.142513,5.39601307 9.26553478,4.35222222 7.83023043,4.02591503 C6.77733913,3.78653595 5.6762087,3.79339869 4.59714348,3.68457516 C3.85773043,3.60990196 3.61212174,4.00091503 3.6246,4.75156863 C3.65016522,6.27477124 3.6322087,7.79862745 3.63251304,9.32215686 M0.0908173913,12.6123529 C0.0906652174,8.82836601 0.0891434783,5.04421569 0.0915782609,1.26022876 C0.0923391304,0.239803922 0.201752174,0.0911111111 1.13214348,0.125098039 C3.55916522,0.213496732 6.01662174,0.114150327 8.40286087,0.505 C11.077013,0.942745098 13.2508174,2.56578431 13.668687,5.61986928 C13.9992087,8.03555556 14.0479043,10.5973203 13.6767522,12.9969935 C13.1662087,16.2981373 10.7454261,17.7916013 7.86933913,18.3880065 C6.81005652,18.6076144 5.70268696,18.5943791 4.61616522,18.6152941 C3.90383913,18.6290196 3.60877391,18.9195425 3.6239913,19.6911111 C3.6526,21.133268 3.61227391,22.5770588 3.64057826,24.0192157 C3.65427391,24.7180719 3.40425217,25.025098 2.74975217,24.9958497 C2.16768696,24.9700327 1.58257826,24.9654575 1.00096957,24.9971569 C0.297469565,25.0355556 0.0778826087,24.6860458 0.0816869565,23.9644771 C0.101165217,20.1806536 0.0908173913,16.3963399 0.0908173913,12.6123529" id="Fill-4"></path>
                </g>
                <path d="M45.9770421,13.8703411 C45.8562963,11.6482878 43.9563052,9.89367232 41.6084508,9.81862571 C39.3731476,9.74726728 37.3177925,11.3519499 37.084161,13.5088986 C36.9441827,14.8005663 36.9483637,16.1268709 37.0763008,17.4206232 C37.2756485,19.4379019 39.0294735,20.9654533 41.142024,21.1431277 C43.2112599,21.3172743 45.228652,20.0435665 45.7783633,18.088506 C46.0129983,17.2535323 46.0059743,14.4027231 45.9770421,13.8703411 M49.5298464,19.408236 C48.3573407,23.0338855 44.4310939,25.4138894 40.6595424,24.9400374 C36.3841026,24.4028447 33.2599294,21.3530337 33.0579059,17.3636968 C32.9734507,15.6929475 32.9376618,13.968479 33.26595,12.3400637 C34.0698631,8.35072676 38.094613,5.62868344 42.2586722,6.04127946 C46.6595404,6.47728746 49.9138248,9.83369917 49.9852355,14.013539 C49.9934301,14.4944467 49.9862389,14.9755147 49.9862389,15.4565828 C50.0422636,15.4641195 49.9343951,18.156978 49.5298464,19.408236" id="Fill-7" fill="#525252"></path>
                <path d="M16.9171369,12.1739085 C16.9171369,14.0567546 17.1292456,15.9679624 16.8747485,17.817037 C16.2749696,22.1735675 12.341695,25.2664518 8.05546211,24.9818527 C3.56579834,24.6836466 0.15887399,21.2471449 0.0418887352,16.7625775 C-0.0425542587,13.5150982 0.0290387144,10.2638484 0.0158549268,7.0144018 C0.0130179092,6.28470669 0.330263228,5.96289328 1.07740015,6.00338636 C1.63178677,6.03338731 2.18917728,6.00797667 2.74506584,6.00945213 C3.90824305,6.01240304 3.99685813,6.09355313 3.99769255,7.21014566 C4.00052956,10.2958166 3.98283993,13.3816514 4.00470165,16.4671584 C4.02105622,18.7432956 5.40819094,20.4761371 7.52827749,20.9476273 C10.2908651,21.5620729 12.9393044,19.5769284 12.9820266,16.7866766 C13.0305897,13.6196917 12.9960448,10.4515592 12.9995493,7.28391848 C13.0007175,6.13617743 13.1275489,6.0122391 14.2823819,6.00928819 C14.8384374,6.00797667 15.3953272,6.03027245 15.9500476,6.00404212 C16.6881728,5.96912299 17.0119266,6.26224697 16.9989097,7.01292634 C16.9692045,8.73265261 16.9895642,10.4533625 16.9895642,12.1737445 C16.9653662,12.1739085 16.9413349,12.1739085 16.9171369,12.1739085" id="Fill-9" fill="#525252"></path>
                <path d="M55.7276168,8.05155088 C57.265401,6.57787356 59.002219,6.04735602 60.9278147,6.00171672 C61.7896533,5.98125772 61.9763476,6.13438545 61.9923729,6.96486336 C62.0290707,8.87494683 62.0080776,8.81010755 60.124308,9.3971234 C57.1647624,10.3196668 55.6042222,12.0045439 55.7082262,14.9597674 C55.8014932,17.6054305 55.7301808,20.2566018 55.7263348,22.9054125 C55.7250527,23.8588018 55.5829086,23.9927295 54.615143,23.9987098 C54.1879095,24.0012279 53.7605157,23.9993393 53.3332822,23.9990246 C52.0522227,23.9982377 52.0100762,23.9596804 52.0097557,22.7322979 C52.008634,19.1131013 52.009275,15.494062 52.009275,11.874708 C52.009275,10.2749718 52.0301078,8.67492079 52.0004611,7.0756567 C51.9868396,6.33551313 52.2736918,6.00706753 53.0387379,6.05538224 C53.5706164,6.0890609 54.1065012,6.05805765 54.6404629,6.06262158 C55.5470121,6.07033305 55.7115915,6.23101486 55.7269758,7.11531568 C55.7313026,7.36633184 55.7276168,7.61766276 55.7276168,8.05155088" id="Fill-11" fill="#525252"></path>
            </g>
        </g>
    </g>
</svg>