<?xml version="1.0" encoding="UTF-8" standalone="no"?>
<svg width="34px" height="36px" viewBox="0 0 34 36" version="1.1" xmlns="http://www.w3.org/2000/svg" xmlns:xlink="http://www.w3.org/1999/xlink">
    <!-- Generator: Sketch 46.2 (44496) - http://www.bohemiancoding.com/sketch -->
    <title>Page 1</title>
    <desc>Created with Sketch.</desc>
    <defs>
        <polygon id="path-1" points="0.000130769231 0.497207547 33.5213846 0.497207547 33.5213846 35.3207547 0.000130769231 35.3207547"></polygon>
    </defs>
    <g id="design-1440" stroke="none" stroke-width="1" fill="none" fill-rule="evenodd">
        <g id="mm-landing-1440" transform="translate(-796.000000, -12645.000000)">
            <g id="Group-25" transform="translate(744.000000, 12620.000000)">
                <g id="Page-1" transform="translate(52.000000, 25.000000)">
                    <path d="M18.6025115,19.6906415 C17.61455,19.1615094 16.5337423,18.9393962 15.4679731,18.6697358 C15.3483192,18.6398491 15.3123577,18.6914717 15.2875115,18.8001509 C15.2162423,19.1139623 15.1358192,19.4257358 15.0606269,19.7388679 C14.8337423,20.6782642 14.6062038,21.6176604 14.3812808,22.5570566 C14.3191654,22.8178868 14.3237423,22.8341887 14.5185885,22.8892075 C15.4830115,23.1595472 16.4513577,23.4129057 17.5543962,23.4652075 C17.8577808,23.4916981 18.2566269,23.4597736 18.6463192,23.3606038 C19.2968962,23.1962264 19.7696269,22.8172075 19.9546654,22.1223396 C20.1449346,21.4091321 19.9618577,20.802566 19.4498962,20.2965283 C19.1988192,20.0472453 18.9098192,19.8550189 18.6025115,19.6906415" id="Fill-1" fill="#0077C0"></path>
                    <g id="Group-5" transform="translate(0.000000, 0.181970)">
                        <mask id="mask-2" fill="white">
                            <use xlink:href="#path-1"></use>
                        </mask>
                        <g id="Clip-4"></g>
                        <path d="M24.0819385,16.209917 C23.8969,17.0148226 23.5235538,17.6927094 22.8350538,18.148483 C22.5454,18.3400302 22.2243615,18.4609358 21.8948231,18.5621434 C21.9242462,18.6830491 22.0269,18.693917 22.0988231,18.7387472 C22.5114,18.9975396 22.8860538,19.3018415 23.1946692,19.6903698 C23.7327846,20.3682566 23.8779385,21.1595774 23.7779,22.0038792 C23.6647846,22.9602566 23.3522462,23.8459925 22.7807846,24.6148981 C22.2080154,25.3851623 21.4292846,25.7988226 20.5178231,25.9564075 C19.4952077,26.1323321 18.4778231,26.029766 17.4630538,25.8599547 C17.3976692,25.8490868 17.3329385,25.8300679 17.2669,25.821917 C17.0328231,25.7927094 17.0262846,25.7933887 16.9700538,26.0284075 C16.7634385,26.8795019 16.5614,27.7319547 16.3574,28.5837283 C16.2710923,28.9464453 16.2704385,28.9478038 15.9297846,28.8588226 C15.5414,28.7582943 15.1543231,28.6550491 14.7665923,28.552483 C14.4292077,28.4621434 14.4298615,28.4621434 14.5174769,28.0973887 C14.7169,27.2680302 14.9110923,26.4379925 15.1183615,25.6106717 C15.1948615,25.3077283 15.1556308,25.3471245 14.9411692,25.281917 C14.6207846,25.1847849 14.2964769,25.1053132 13.9734769,25.0210868 C13.7256692,24.9558792 13.7191308,24.9558792 13.6563615,25.212634 C13.4654385,25.9958038 13.2849769,26.7823698 13.0894769,27.5648604 C12.9449769,28.1456151 13.0626692,28.1048604 12.4709385,27.9622189 C12.1244,27.8786717 11.7811308,27.7822189 11.4359,27.6918792 C11.1357846,27.6130868 11.1344769,27.6130868 11.2064,27.3108226 C11.4300154,26.3687094 11.6549385,25.4279547 11.8779,24.4885585 C11.8000923,24.4009358 11.6980923,24.3900679 11.6039385,24.3649358 C10.6120538,24.1054642 9.62082308,23.8473509 8.62959231,23.5885585 C8.56486154,23.5722566 8.50078462,23.5518792 8.43670769,23.5335396 C8.19936154,23.4676528 8.19674615,23.4669736 8.28893846,23.2428226 C8.48574615,22.7653132 8.68255385,22.2871245 8.88786154,21.8130113 C8.95978462,21.6472755 8.97482308,21.4122566 9.13043846,21.3382189 C9.28474615,21.2641811 9.46847692,21.3993509 9.64043846,21.4387472 C9.86797692,21.4917283 10.0948615,21.5487849 10.3224,21.601766 C10.9232846,21.7430491 11.1900538,21.5732377 11.3410923,20.9456151 C11.6372846,19.7127849 11.9295538,18.4792755 12.2250923,17.245766 C12.5716308,15.8003321 12.9214385,14.3562566 13.2660154,12.9108226 C13.3065538,12.7437283 13.3647462,12.5800302 13.3412077,12.4007094 C13.2836692,11.9639547 13.0430538,11.6888604 12.6533615,11.5468981 C12.2963615,11.416483 11.9262846,11.3349736 11.5581692,11.244634 C11.4306692,11.2133887 11.3038231,11.1767094 11.1534385,11.1359547 C11.3070923,10.5022189 11.4614,9.88886038 11.6013231,9.27278491 C11.6418615,9.09346415 11.7386308,9.13353962 11.8478231,9.16206792 C12.6121692,9.36176604 13.3771692,9.5621434 14.1428231,9.75980377 C14.5305538,9.85965283 14.9189385,9.95542642 15.3217077,10.0559547 C15.4662077,9.66674717 15.5296308,9.26870943 15.6270538,8.88086038 C15.7702462,8.31097358 15.8997077,7.73701132 16.0389769,7.16712453 C16.0952077,6.93618113 16.0997846,6.93482264 16.3319,6.99323774 C16.7640923,7.10259623 17.1956308,7.21263396 17.6265154,7.32606792 C17.9285923,7.40553962 17.9285923,7.4082566 17.8573231,7.70848302 C17.6624769,8.52697358 17.4669769,9.34546415 17.2714769,10.1639547 C17.1975923,10.4757283 17.1982462,10.4770868 17.4996692,10.5504453 C17.8246308,10.629917 18.1522077,10.696483 18.4725923,10.7902189 C18.6399769,10.840483 18.6805154,10.7820679 18.7164769,10.6265208 C18.9067462,9.8066717 19.1074769,8.99021887 19.3055923,8.17240755 C19.3350154,8.05082264 19.3696692,7.93127547 19.4075923,7.7906717 C19.9712077,7.93399245 20.5197846,8.07527547 21.0696692,8.21248302 C21.2174385,8.24848302 21.2194,8.33203019 21.1867077,8.46652075 C20.9729,9.33935094 20.7675923,10.2148981 20.5590154,11.0890868 C20.5452846,11.1454642 20.5289385,11.200483 20.5152077,11.2561811 C20.4916692,11.3505962 20.5276308,11.4124075 20.6139385,11.4450113 C20.7492846,11.4979925 20.8846308,11.5496151 21.0193231,11.6032755 C21.6973615,11.8736151 22.3420538,12.205766 22.9207077,12.6690113 C24.0623231,13.5839547 24.4114769,14.7780679 24.0819385,16.209917 M16.7608231,0.496935849 C7.50432308,0.496935849 0.000130769231,8.29263396 0.000130769231,17.9087094 C0.000130769231,27.5254642 7.50432308,35.3211623 16.7608231,35.3211623 C26.0173231,35.3211623 33.5215154,27.5254642 33.5215154,17.9087094 C33.5215154,8.29263396 26.0173231,0.496935849 16.7608231,0.496935849" id="Fill-3" fill="#0077C0" mask="url(#mask-2)"></path>
                    </g>
                    <path d="M19.1114,13.6331321 C18.4085154,13.3043774 17.6572462,13.145434 16.9144769,12.9579623 C16.7431692,12.9144906 16.6758231,12.9844528 16.6379,13.1501887 C16.5077846,13.7221132 16.3685154,14.292 16.2312077,14.862566 C16.1017462,15.3991698 15.9696692,15.9350943 15.8428231,16.4723774 C15.8147077,16.593283 15.7728615,16.7196226 15.9572462,16.7685283 C16.8072462,16.994717 17.6565923,17.2195472 18.5915923,17.2392453 C18.8962846,17.2188679 19.2487077,17.1883019 19.5854385,17.0510943 C20.5956308,16.6394717 20.9232077,15.2979623 20.2216308,14.4380377 C19.9202077,14.0678491 19.5305154,13.8287547 19.1114,13.6331321" id="Fill-6" fill="#0077C0"></path>
                </g>
            </g>
        </g>
    </g>
</svg>