<?xml version="1.0" encoding="UTF-8" standalone="no"?>
<svg width="25px" height="30px" viewBox="0 0 25 30" version="1.1" xmlns="http://www.w3.org/2000/svg" xmlns:xlink="http://www.w3.org/1999/xlink">
    <!-- Generator: Sketch 46.2 (44496) - http://www.bohemiancoding.com/sketch -->
    <title>iconmonstr-file-9</title>
    <desc>Created with Sketch.</desc>
    <defs></defs>
    <g id="design-1440" stroke="none" stroke-width="1" fill="none" fill-rule="evenodd">
        <g id="mm-landing-1440" transform="translate(-987.000000, -12648.000000)" fill-rule="nonzero" fill="#0077C0">
            <g id="Group-24" transform="translate(930.000000, 12620.000000)">
                <g id="iconmonstr-file-9" transform="translate(57.000000, 28.000000)">
                    <path d="M17.0025,5.09375 C19.75375,6.56125 23.1325,9.16125 25,11.65875 C23.3925,10.53375 21.23625,10.375 18.6775,10.9725 C18.955,9.13625 18.44625,6.55375 17.0025,5.09375 Z M15.97125,13.75 C15.97125,13.75 17.87375,5 11.8025,5 L5,5 L5,30 L25,30 L25,16.71375 C25,12.43875 19.7325,12.81875 15.97125,13.75 Z M15,2.5 L11.25,0 L0,0 L0,27.5 L2.5,27.5 L2.5,2.5 L15,2.5 Z" id="Shape"></path>
                </g>
            </g>
        </g>
    </g>
</svg>