<?xml version="1.0" encoding="UTF-8" standalone="no"?>
<svg width="382px" height="370px" viewBox="0 0 382 370" version="1.1" xmlns="http://www.w3.org/2000/svg" xmlns:xlink="http://www.w3.org/1999/xlink">
    <!-- Generator: Sketch 46.2 (44496) - http://www.bohemiancoding.com/sketch -->
    <title>Group 23 Copy</title>
    <desc>Created with Sketch.</desc>
    <defs>
        <path d="M234.5,375 C312.096007,375 375,312.096007 375,234.5 C375,211.172685 369.315019,189.173168 359.254937,169.811328 C359.448069,169.69371 317.86309,191.256601 234.5,234.5 C234.5,140.833333 234.5,94 234.5,94 C156.903993,94 94,156.903993 94,234.5 C94,312.096007 156.903993,375 234.5,375 Z" id="path-1"></path>
        <filter x="-5.3%" y="-5.3%" width="110.7%" height="110.7%" filterUnits="objectBoundingBox" id="filter-2">
            <feOffset dx="0" dy="0" in="SourceAlpha" result="shadowOffsetOuter1"></feOffset>
            <feGaussianBlur stdDeviation="5" in="shadowOffsetOuter1" result="shadowBlurOuter1"></feGaussianBlur>
            <feColorMatrix values="0 0 0 0 0   0 0 0 0 0.178700386   0 0 0 0 0.405054209  0 0 0 0.328804348 0" type="matrix" in="shadowBlurOuter1"></feColorMatrix>
        </filter>
        <path d="M234.5,390 C320.380279,390 390,320.380279 390,234.5 C390,208.682224 383.708082,184.334004 372.57397,162.905064 C372.787721,162.774889 326.763064,186.639868 234.5,234.5 C234.5,130.833333 234.5,79 234.5,79 C148.619721,79 79,148.619721 79,234.5 C79,320.380279 148.619721,390 234.5,390 Z" id="path-3"></path>
        <filter x="-4.8%" y="-4.8%" width="109.6%" height="109.6%" filterUnits="objectBoundingBox" id="filter-4">
            <feOffset dx="0" dy="0" in="SourceAlpha" result="shadowOffsetOuter1"></feOffset>
            <feGaussianBlur stdDeviation="5" in="shadowOffsetOuter1" result="shadowBlurOuter1"></feGaussianBlur>
            <feColorMatrix values="0 0 0 0 0   0 0 0 0 0.178700386   0 0 0 0 0.405054209  0 0 0 0.328804348 0" type="matrix" in="shadowBlurOuter1"></feColorMatrix>
        </filter>
        <path d="M234.5,404 C328.112265,404 404,328.112265 404,234.5 C404,206.357794 397.141607,179.817451 385.005066,156.459217 C385.238062,156.317323 335.069707,182.330917 234.5,234.5 C234.5,121.5 234.5,65 234.5,65 C140.887735,65 65,140.887735 65,234.5 C65,328.112265 140.887735,404 234.5,404 Z" id="path-5"></path>
        <filter x="-4.4%" y="-4.4%" width="108.8%" height="108.8%" filterUnits="objectBoundingBox" id="filter-6">
            <feOffset dx="0" dy="0" in="SourceAlpha" result="shadowOffsetOuter1"></feOffset>
            <feGaussianBlur stdDeviation="5" in="shadowOffsetOuter1" result="shadowBlurOuter1"></feGaussianBlur>
            <feColorMatrix values="0 0 0 0 0   0 0 0 0 0.178700386   0 0 0 0 0.405054209  0 0 0 0.328804348 0" type="matrix" in="shadowBlurOuter1"></feColorMatrix>
        </filter>
        <path d="M234.5,415 C334.187397,415 415,334.187397 415,234.5 C415,204.531456 407.69652,176.268731 394.772357,151.394624 C395.020473,151.24352 341.596354,178.945312 234.5,234.5 C234.5,114.166667 234.5,54 234.5,54 C134.812603,54 54,134.812603 54,234.5 C54,334.187397 134.812603,415 234.5,415 Z" id="path-7"></path>
        <filter x="-4.2%" y="-4.2%" width="108.3%" height="108.3%" filterUnits="objectBoundingBox" id="filter-8">
            <feOffset dx="0" dy="0" in="SourceAlpha" result="shadowOffsetOuter1"></feOffset>
            <feGaussianBlur stdDeviation="5" in="shadowOffsetOuter1" result="shadowBlurOuter1"></feGaussianBlur>
            <feColorMatrix values="0 0 0 0 0   0 0 0 0 0.178700386   0 0 0 0 0.405054209  0 0 0 0.328804348 0" type="matrix" in="shadowBlurOuter1"></feColorMatrix>
        </filter>
    </defs>
    <g id="design-1440" stroke="none" stroke-width="1" fill="none" fill-rule="evenodd">
        <g id="mm-landing-1440-copy-3" transform="translate(-217.000000, -11983.000000)">
            <g id="Group-23-Copy" transform="translate(407.500000, 12162.500000) rotate(-30.000000) translate(-407.500000, -12162.500000) translate(173.000000, 11928.000000)">
                <g id="Oval-3-Copy-3" transform="translate(234.500000, 234.500000) rotate(-297.000000) translate(-234.500000, -234.500000) ">
                    <use fill="black" fill-opacity="1" filter="url(#filter-2)" xlink:href="#path-1"></use>
                    <use fill="#005CB3" fill-rule="evenodd" xlink:href="#path-1"></use>
                </g>
                <g id="Oval-3-Copy-2" transform="translate(234.500000, 234.500000) rotate(-313.000000) translate(-234.500000, -234.500000) ">
                    <use fill="black" fill-opacity="1" filter="url(#filter-4)" xlink:href="#path-3"></use>
                    <use fill="#0686C3" fill-rule="evenodd" xlink:href="#path-3"></use>
                </g>
                <g id="Oval-3-Copy" transform="translate(234.500000, 234.500000) rotate(-328.000000) translate(-234.500000, -234.500000) ">
                    <use fill="black" fill-opacity="1" filter="url(#filter-6)" xlink:href="#path-5"></use>
                    <use fill="#06C0B5" fill-rule="evenodd" xlink:href="#path-5"></use>
                </g>
                <g id="Oval-3">
                    <use fill="black" fill-opacity="1" filter="url(#filter-8)" xlink:href="#path-7"></use>
                    <use fill="#14E393" fill-rule="evenodd" xlink:href="#path-7"></use>
                </g>
            </g>
        </g>
    </g>
</svg>