<?xml version="1.0" encoding="UTF-8" standalone="no"?>
<svg width="32px" height="26px" viewBox="0 0 32 26" version="1.1" xmlns="http://www.w3.org/2000/svg" xmlns:xlink="http://www.w3.org/1999/xlink">
    <!-- Generator: Sketch 46.2 (44496) - http://www.bohemiancoding.com/sketch -->
    <title>twitter</title>
    <desc>Created with Sketch.</desc>
    <defs></defs>
    <g id="design-1440" stroke="none" stroke-width="1" fill="none" fill-rule="evenodd">
        <g id="mm-landing-1440" transform="translate(-425.000000, -12651.000000)" fill-rule="nonzero" fill="#0077C0">
            <g id="Group-27" transform="translate(371.000000, 12620.000000)">
                <g id="twitter" transform="translate(54.000000, 31.000000)">
                    <path d="M32,3.07803527 C30.8226667,3.60059475 29.5573334,3.95252256 28.2293334,4.1111567 C29.5853334,3.29932322 30.6266668,2.01292043 31.116,0.479901558 C29.848,1.23174734 28.4426666,1.77830188 26.9466666,2.07290812 C25.7506667,0.797169811 24.0426666,0 22.1546666,0 C17.9159999,0 14.8013333,3.95385562 15.7586667,8.05834702 C10.304,7.78506974 5.46666668,5.17227235 2.228,1.20108696 C0.508,4.15114848 1.336,8.01035686 4.25866667,9.96462264 C3.184,9.9299631 2.17066666,9.63535686 1.28666667,9.14345776 C1.21466667,12.1841674 3.39466667,15.0289172 6.55200001,15.6621206 C5.62800001,15.9127359 4.616,15.9713905 3.58666666,15.7740976 C4.42133334,18.3815629 6.84533334,20.278507 9.72000001,20.3318294 C6.96000001,22.4953856 3.48266667,23.4618539 0,23.0512715 C2.90533333,24.9135562 6.35733334,26 10.064,26 C22.2533333,26 29.14,15.7074446 28.7240001,6.47600493 C30.0066667,5.5495283 31.1200001,4.39376538 32,3.07803527 Z" id="Shape"></path>
                </g>
            </g>
        </g>
    </g>
</svg>