<svg width="30px" height="32px" viewBox="0 0 30 32" version="1.1" xmlns="http://www.w3.org/2000/svg" xmlns:xlink="http://www.w3.org/1999/xlink">
    <!-- Generator: Sketch 47 (45396) - http://www.bohemiancoding.com/sketch -->
    <desc>Created with Sketch.</desc>
    <defs>
        <polygon id="path-1" points="0.000115037169 0.437542642 29.4886278 0.437542642 29.4886278 31.0822642 0.000115037169 31.0822642"></polygon>
    </defs>
    <g id="Page-1" stroke="none" stroke-width="1" fill="none" fill-rule="evenodd">
        <g id="New" transform="translate(-686.000000, -896.000000)">
            <g id="Group-17" transform="translate(45.000000, 896.000000)">
                <g id="Page-1" transform="translate(641.000000, 0.000000)">
                    <path d="M16.3645549,17.3277645 C15.4954491,16.8621283 14.5446669,16.6666687 13.607114,16.4293675 C13.501855,16.4030672 13.4702198,16.4484951 13.4483627,16.5441328 C13.3856674,16.8202868 13.3149196,17.0946475 13.2487732,17.3702038 C13.0491837,18.1968725 12.849019,19.0235411 12.6511551,19.8502098 C12.5965125,20.0797404 12.6005388,20.094086 12.7719441,20.1425026 C13.6203433,20.3804015 14.4721935,20.603357 15.442532,20.6493826 C15.7094182,20.6726943 16.0602816,20.6446008 16.4030924,20.5573313 C16.9754023,20.4126792 17.3912616,20.0791426 17.5540392,19.4676589 C17.7214183,18.8400362 17.5603663,18.3062581 17.1099958,17.8609449 C16.8891244,17.6415758 16.6348923,17.4724166 16.3645549,17.3277645" id="Fill-1" fill="#FFFFFF"></path>
                    <g id="Group-5" transform="translate(0.000000, 0.160133)">
                        <mask id="mask-2" fill="white">
                            <use xlink:href="#path-1"></use>
                        </mask>
                        <g id="Clip-4"></g>
                        <path d="M21.1847848,14.2647269 C21.0220072,14.9730439 20.6935761,15.5695843 20.0879054,15.9706651 C19.8330981,16.1392266 19.5506819,16.2456235 19.2607882,16.3346862 C19.2866716,16.4410832 19.3769757,16.4506469 19.4402462,16.4900975 C19.8031884,16.7178349 20.1327699,16.9856205 20.4042577,17.3275254 C20.8776356,17.9240658 21.0053269,18.6204281 20.9173234,19.3634137 C20.8178163,20.2050258 20.5428774,20.9844734 20.040165,21.6611103 C19.5363022,22.3389428 18.8512559,22.7029639 18.0494468,22.8416386 C17.1498561,22.9964522 16.254867,22.9061941 15.3621785,22.7567602 C15.30466,22.7471964 15.2477166,22.7304598 15.1896228,22.7232869 C14.9837063,22.6975843 14.9779544,22.698182 14.9284884,22.9049986 C14.7467297,23.6539617 14.5689973,24.4041202 14.3895393,25.1536809 C14.3136148,25.4728718 14.3130396,25.4740673 14.0133677,25.3957639 C13.6717074,25.307299 13.3311973,25.2164432 12.9901121,25.1261851 C12.6933162,25.0466862 12.6938914,25.0466862 12.7709663,24.725702 C12.946398,23.9958666 13.1172282,23.2654334 13.2995621,22.5373911 C13.3668589,22.2708009 13.3323477,22.3054696 13.1436867,22.2480869 C12.8618457,22.1626107 12.5765535,22.0926756 12.2924117,22.0185564 C12.0744163,21.9611737 12.0686644,21.9611737 12.0134466,22.1871179 C11.8454923,22.8763073 11.686741,23.5684854 11.5147604,24.2570771 C11.3876444,24.7681413 11.4911778,24.7322771 10.9706346,24.6067526 C10.6657861,24.5332311 10.3638136,24.4483526 10.0601154,24.3688537 C9.79610514,24.2995164 9.79495477,24.2995164 9.85822521,24.0335239 C10.0549388,23.2044643 10.2528027,22.3766002 10.4489411,21.5499315 C10.380494,21.4728235 10.290765,21.4632598 10.2079382,21.4411435 C9.33538128,21.2128085 8.46339954,20.9856688 7.5914178,20.7579315 C7.5344744,20.7435858 7.47810619,20.7256537 7.42173798,20.7095149 C7.21294552,20.6515345 7.21064477,20.6509368 7.29174598,20.4536839 C7.46487691,20.0334756 7.63800785,19.6126696 7.81861621,19.19545 C7.88188665,19.0496024 7.89511593,18.8427858 8.03201016,18.7776326 C8.16775402,18.7124794 8.32938124,18.8314288 8.48065511,18.8660975 C8.68081979,18.9127209 8.88040928,18.9629307 9.08057395,19.0095541 C9.60916974,19.1338832 9.84384556,18.9844492 9.97671349,18.4321413 C10.2372727,17.3472507 10.4943808,16.2617624 10.7543648,15.1762741 C11.0592133,13.9042922 11.3669377,12.6335058 11.6700606,11.3615239 C11.7057221,11.2144809 11.7569137,11.0704266 11.736207,10.9126243 C11.6855906,10.5282802 11.4739222,10.2861971 11.1311115,10.1612703 C10.81706,10.0465051 10.4915048,9.97477675 10.1676752,9.89527789 C10.055514,9.86778204 9.9439279,9.8355043 9.81163516,9.79964015 C9.94680383,9.2419526 10.0825477,8.70219713 10.2056375,8.16005072 C10.241299,8.00224845 10.3264265,8.03751487 10.4224825,8.06261977 C11.0948748,8.23835411 11.7678422,8.41468619 12.4413848,8.58862732 C12.78247,8.67649449 13.1241304,8.76077525 13.4784449,8.84924015 C13.605561,8.50673751 13.661354,8.1564643 13.7470567,7.81515713 C13.8730224,7.31365675 13.9869092,6.80856996 14.1094238,6.30706958 C14.1588898,6.1038394 14.1629161,6.10264392 14.367107,6.15404921 C14.7473049,6.25028468 15.1269275,6.34711789 15.505975,6.44693977 C15.7717109,6.51687487 15.7717109,6.51926581 15.7090156,6.78346506 C15.5376102,7.50373675 15.3656297,8.22400845 15.1936491,8.94428015 C15.1286531,9.21864091 15.1292283,9.21983638 15.394389,9.28439185 C15.6802563,9.35432694 15.9684244,9.41290506 16.2502655,9.4953926 C16.3975131,9.53962506 16.4331746,9.48821977 16.4648098,9.35133826 C16.6321889,8.62987109 16.8087709,7.9113926 16.9830523,7.19171864 C17.0089356,7.08472392 17.0394205,6.97952242 17.0727812,6.85579109 C17.5685914,6.98191336 18.0511724,7.10624242 18.5349037,7.22698506 C18.6648957,7.25866506 18.6666212,7.33218657 18.6378619,7.45053826 C18.4497762,8.21862883 18.2691678,8.98911034 18.0856835,9.75839638 C18.0736046,9.80800845 18.059225,9.85642506 18.0471461,9.9054394 C18.0264394,9.98852468 18.0580746,10.0429186 18.1339991,10.07161 C18.2530626,10.1182334 18.3721261,10.1636613 18.4906144,10.2108824 C19.0870821,10.4487813 19.6542153,10.7410741 20.1632548,11.14873 C21.1675293,11.9538802 21.4746785,13.0046998 21.1847848,14.2647269 M14.744429,0.437303547 C6.60152296,0.437303547 0.000115037169,7.29751789 0.000115037169,15.7596643 C0.000115037169,24.2224085 6.60152296,31.0826228 14.744429,31.0826228 C22.8873349,31.0826228 29.4887429,24.2224085 29.4887429,15.7596643 C29.4887429,7.29751789 22.8873349,0.437303547 14.744429,0.437303547" id="Fill-3" fill="#FFFFFF" mask="url(#mask-2)"></path>
                    </g>
                    <path d="M16.8122221,11.9971562 C16.1938973,11.7078521 15.5330087,11.5679819 14.8795976,11.4030068 C14.7288989,11.3647517 14.6696548,11.4263185 14.636294,11.572166 C14.521832,12.0754596 14.3993174,12.57696 14.2785284,13.0790581 C14.1646416,13.5512694 14.0484541,14.022883 13.936868,14.4956921 C13.912135,14.6020891 13.8753231,14.7132679 14.0375255,14.7563049 C14.7852671,14.9553509 15.5324336,15.1532015 16.3549493,15.1705358 C16.6229859,15.1526038 16.9330111,15.1257057 17.2292318,15.004963 C18.1178939,14.6427351 18.406062,13.4622068 17.7888876,12.7054732 C17.5237269,12.3797072 17.1809162,12.1693042 16.8122221,11.9971562" id="Fill-6" fill="#FFFFFF"></path>
                </g>
            </g>
        </g>
    </g>
</svg>
