<svg width="30px" height="30px" viewBox="0 0 30 30" version="1.1" xmlns="http://www.w3.org/2000/svg" xmlns:xlink="http://www.w3.org/1999/xlink">
    <!-- Generator: Sketch 47 (45396) - http://www.bohemiancoding.com/sketch -->
    <desc>Created with Sketch.</desc>
    <defs></defs>
    <g id="Page-1" stroke="none" stroke-width="1" fill="none" fill-rule="evenodd">
        <g id="New" transform="translate(-209.000000, -897.000000)" fill="#FFFFFF">
            <g id="Group-17" transform="translate(45.000000, 896.000000)">
                <g id="if_github_291716" transform="translate(164.000000, 1.320000)">
                    <path d="M24.5153499,14.0985837 C24.5153499,12.4717269 23.9390763,11.1459284 23.0004934,10.1215201 C23.1519122,9.73025078 23.6363054,8.25392312 22.8178018,6.2057045 C22.8178018,6.2057045 21.6057161,5.81390372 18.7577592,7.71159325 C17.5456735,7.3805754 16.2125062,7.16932982 14.9701501,7.16932982 C13.6969891,7.16932982 12.363354,7.3805754 11.1815388,7.71159325 C8.30271001,5.81390372 7.09069116,6.2057045 7.09069116,6.2057045 C6.27272211,8.25392312 6.75771675,9.73025078 6.90906875,10.1215201 C5.96948352,11.1458619 5.39374449,12.4717269 5.39374449,14.0985837 C5.39374449,19.8223427 8.93912348,21.0272397 12.2725428,21.4185754 C11.8486236,21.7807487 11.4545738,22.4730098 11.303155,23.4371665 C10.4543809,23.7984098 8.24216921,24.4916009 6.90906875,22.2021106 C6.90906875,22.2021106 6.12090234,20.7864994 4.63631624,20.6962218 C4.63631624,20.6962218 3.15126238,20.6661293 4.51516781,21.5991306 C4.51516781,21.5991306 5.5148261,22.0516479 6.1819109,23.7682508 C6.1819109,23.7682508 7.09069116,26.6306285 11.27235,25.7265904 L11.27235,28.2869799 C11.27235,28.6793121 10.969646,29.1307666 10.2122177,29.0103964 C4.27253684,27.0519904 3.62376795e-13,21.4486015 3.62376795e-13,14.8816538 C3.62376795e-13,6.65722534 6.69664137,-2.77111667e-13 14.9701501,-2.77111667e-13 C23.212453,-2.77111667e-13 29.9398325,6.65729177 29.9095621,14.8816538 C29.9095621,21.4486015 25.6365575,27.0218979 19.6972776,29.0103964 C18.9393816,29.1609255 18.6366107,28.7094711 18.6366107,28.2869799 L18.6366107,24.1605166 C18.6366776,22.7739351 18.1814856,21.8710263 17.6365515,21.4185754 C20.9699709,21.0272397 24.5153499,19.8223427 24.5153499,14.0985837 Z" id="Shape"></path>
                </g>
            </g>
        </g>
    </g>
</svg>
