<svg width="28px" height="29px" viewBox="0 0 28 29" version="1.1" xmlns="http://www.w3.org/2000/svg" xmlns:xlink="http://www.w3.org/1999/xlink">
    <!-- Generator: Sketch 47 (45396) - http://www.bohemiancoding.com/sketch -->
    <desc>Created with Sketch.</desc>
    <defs>
        <polygon id="path-1" points="6.16846998e-20 0 27.3088235 0 27.3088235 27.72 0 27.72"></polygon>
    </defs>
    <g id="Page-1" stroke="none" stroke-width="1" fill="none" fill-rule="evenodd">
        <g id="New" transform="translate(-45.000000, -898.000000)">
            <g id="Group-17" transform="translate(45.000000, 896.000000)">
                <g id="Page-1" transform="translate(0.000000, 2.640000)">
                    <mask id="mask-2" fill="white">
                        <use xlink:href="#path-1"></use>
                    </mask>
                    <g id="Clip-2"></g>
                    <path d="M20.9435919,4.799025 C20.0378493,4.799025 19.3039246,5.544 19.3039246,6.462225 C19.3039246,7.38045 20.0378493,8.125425 20.9435919,8.125425 C21.8481967,8.125425 22.5798456,7.38045 22.5798456,6.462225 C22.5798456,5.544 21.8481967,4.799025 20.9435919,4.799025 M13.6544118,18.48 C11.1408621,18.48 9.10294118,16.41255 9.10294118,13.86 C9.10294118,11.308605 11.1408621,9.24 13.6544118,9.24 C16.1679614,9.24 18.2058824,11.308605 18.2058824,13.86 C18.2058824,16.41255 16.1679614,18.48 13.6544118,18.48 M13.6544118,6.74289 C9.78224816,6.74289 6.64287132,9.929535 6.64287132,13.86 C6.64287132,17.79162 9.78224816,20.978265 13.6544118,20.978265 C17.5265754,20.978265 20.6659522,17.792775 20.6659522,13.86 C20.6659522,9.929535 17.5265754,6.74289 13.6544118,6.74289 M13.6544118,0 C9.9461011,0 9.4818511,0.01617 8.02538051,0.08316 C3.06655331,0.31416 0.310637868,3.10695 0.0830643382,8.14506 C0.0159301471,9.624615 0,10.095855 0,13.86 C0,17.624145 0.0159301471,18.09654 0.0819264706,19.57494 C0.3095,24.60843 3.06086397,27.40584 8.02424265,27.63684 C9.4818511,27.704985 9.9461011,27.72 13.6544118,27.72 C17.3627224,27.72 17.8281103,27.704985 19.2845809,27.63684 C24.2388566,27.40584 27.0015993,24.61305 27.2257592,19.57494 C27.2928934,18.09654 27.3088235,17.624145 27.3088235,13.86 C27.3088235,10.095855 27.2928934,9.624615 27.2257592,8.146215 C27.003875,3.117345 24.2479596,0.315315 19.2857187,0.084315 C17.8281103,0.01617 17.3627224,0 13.6544118,0" id="Fill-1" fill="#FFFFFF" mask="url(#mask-2)"></path>
                </g>
            </g>
        </g>
    </g>
</svg>
