<svg width="32px" height="31px" viewBox="0 0 32 31" version="1.1" xmlns="http://www.w3.org/2000/svg" xmlns:xlink="http://www.w3.org/1999/xlink">
    <!-- Generator: Sketch 47 (45396) - http://www.bohemiancoding.com/sketch -->
    <desc>Created with Sketch.</desc>
    <defs></defs>
    <g id="Page-1" stroke="none" stroke-width="1" fill="none" fill-rule="evenodd">
        <g id="New" transform="translate(-1364.000000, -896.000000)" fill="#FFFFFF">
            <g id="Group-17" transform="translate(45.000000, 896.000000)">
                <g id="Page-1" transform="translate(1319.000000, 0.000000)">
                    <g id="Group-3">
                        <path d="M11.2788836,13.3133848 C11.2788836,14.4579881 11.2785644,15.6026136 11.2791603,16.747239 C11.2792879,16.9794815 11.3891117,17.0945537 11.6103766,17.0953709 C11.9366135,17.0966077 12.2631058,17.0871546 12.5889597,17.098463 C12.8523581,17.1075849 12.9474352,16.933784 12.9472649,16.7284652 C12.9452434,14.4539683 12.9461797,12.1794493 12.9457541,9.90495239 C12.9456903,9.6522575 12.8389945,9.53948239 12.5975354,9.5379584 C12.2819595,9.53599268 11.9663624,9.53683198 11.6507865,9.53760501 C11.3791316,9.53826762 11.2789262,9.64280436 11.2789049,9.92370407 C11.2787985,11.0535976 11.2788623,12.1834912 11.2788836,13.3133848 L11.2788836,13.3133848 Z M7.10411065,12.5505735 C7.10411065,11.6636567 7.10479159,10.7767177 7.10370633,9.88980086 C7.10338714,9.64382035 7.00371368,9.53965908 6.76755313,9.53806884 C6.43780507,9.53588224 6.10803574,9.53563929 5.77830896,9.5382897 C5.55306482,9.54012291 5.44687982,9.6530968 5.44685854,9.88476507 C5.44660318,12.1738393 5.44660318,14.4629355 5.44685854,16.7520097 C5.4469011,16.9791502 5.55304354,17.0962102 5.76892467,17.096409 C7.18365364,17.0978225 8.59838261,17.0977783 10.0131329,17.0964973 C10.2323549,17.0962764 10.3350288,16.9852683 10.3360289,16.7549473 C10.337561,16.416379 10.3370929,16.0777886 10.3363055,15.7392203 C10.3356884,15.4810037 10.2364406,15.3778805 9.98978918,15.3778143 C9.07502346,15.3775934 8.16021519,15.377748 7.2454282,15.3776818 C7.10487671,15.3776597 7.10432344,15.3774167 7.10430216,15.2334551 C7.10413192,14.3391391 7.10421704,13.4448674 7.10411065,12.5505735 L7.10411065,12.5505735 Z M21.4448954,13.3132743 C21.4448954,14.4579439 21.4445549,15.6026356 21.4451933,16.7473494 C21.4453422,16.9819994 21.5457817,17.0960556 21.7610032,17.0962764 C23.1794561,17.0978004 24.5979303,17.0978004 26.0163832,17.0962543 C26.2268593,17.0960335 26.3337252,16.9783993 26.3342785,16.7589008 C26.3350871,16.4202883 26.3347254,16.0816538 26.3344487,15.7430413 C26.3342359,15.4820418 26.2328814,15.3778364 25.9789524,15.3777922 C25.0604841,15.3776155 24.1420157,15.3761578 23.2235686,15.3799346 C23.1239377,15.3803543 23.0972532,15.3484389 23.0990406,15.2484741 C23.1045308,14.9394137 23.1009132,14.6301546 23.1010835,14.3209838 C23.1011686,14.1784578 23.1014452,14.1781486 23.2428266,14.1781486 C24.1612737,14.1780381 25.0797421,14.1784357 25.9981891,14.1777952 C26.227753,14.1776185 26.3340231,14.0651747 26.3343849,13.825268 C26.3348743,13.4976769 26.3345977,13.1701078 26.3344913,12.8425166 C26.3343849,12.5558744 26.2416699,12.4593551 25.9651633,12.4593109 C25.0502486,12.4590901 24.1353339,12.4579857 23.2204405,12.4610337 C23.1280872,12.4613208 23.0972744,12.4347063 23.0990194,12.3363317 C23.1045095,12.0235829 23.1062757,11.7105027 23.0982959,11.3978643 C23.0953806,11.2828364 23.1305557,11.2577237 23.2361236,11.2581875 C24.1581031,11.2624061 25.0801038,11.2609042 26.0021046,11.2603962 C26.2231992,11.2602637 26.3338529,11.1441534 26.3343423,10.9132361 C26.335002,10.585667 26.3257028,10.2577446 26.3373428,9.93059514 C26.346493,9.67359334 26.2275402,9.53367357 25.9618011,9.53475582 C24.5788425,9.5404763 23.1958201,9.53720745 21.8127977,9.53760501 C21.5361208,9.53767127 21.4449592,9.6338813 21.4449166,9.92335068 C21.4447464,11.0533105 21.4448315,12.1832924 21.4448954,13.3132743 L21.4448954,13.3132743 Z M15.6725169,12.690427 C15.6822842,12.687865 15.6920728,12.6853029 15.7018614,12.6827629 C15.7297163,12.7202663 15.7582097,12.7573058 15.7853624,12.7953613 C16.7579234,14.1583809 17.7321016,15.5201194 18.7002365,16.8864741 C18.8083153,17.0390275 18.9280554,17.1064143 19.1104638,17.0990152 C19.4078669,17.087 19.7060574,17.0959672 20.0039287,17.0957022 C20.2782861,17.0954592 20.3750868,16.9954503 20.3750868,16.7123198 C20.3751293,14.4488 20.3751293,12.1853023 20.3750868,9.92178252 C20.3750655,9.88867443 20.3765125,9.85538965 20.3738526,9.82245825 C20.3619147,9.67463142 20.2649012,9.54997361 20.1298186,9.54723485 C19.7401047,9.53928361 19.3500929,9.54005665 18.9603365,9.54643973 C18.8371066,9.54847171 18.7449661,9.64881197 18.723495,9.77634105 C18.7131744,9.83747727 18.710323,9.90062338 18.7103017,9.96286393 C18.7095782,11.2510314 18.7098123,12.5392209 18.7094505,13.8273884 C18.7094505,13.8680501 18.7053223,13.908734 18.7014494,13.9799197 C18.6572305,13.9203295 18.6333548,13.8891872 18.6105431,13.8572276 C18.1422013,13.2008968 17.6739871,12.5444776 17.2057304,11.8880805 C16.684743,11.1577589 16.1656919,10.4259354 15.6396612,9.69956739 C15.5892925,9.63001611 15.4968328,9.55302159 15.4213968,9.55008405 C15.0355771,9.53513129 14.6488849,9.53915109 14.2626609,9.5458213 C14.1336855,9.54805206 14.0413322,9.64909909 14.0199037,9.78237074 C14.0106258,9.84006142 14.0077956,9.89943069 14.0077744,9.95802693 C14.0071998,12.1957714 14.0072849,14.433516 14.0073488,16.6712605 C14.0073488,16.708057 14.0061997,16.7450082 14.0089873,16.781606 C14.0250321,16.9919385 14.1285359,17.0943107 14.3306917,17.0952604 C14.660461,17.0968065 14.9902303,17.0961439 15.320021,17.0956138 C15.5710772,17.0952163 15.6724105,16.9888242 15.672453,16.7263228 C15.6725807,15.4234235 15.6725169,14.1205462 15.6725169,12.8176469 L15.6725169,12.690427 Z M31.1775276,12.9800952 C31.1856138,15.025 30.622429,16.8977825 29.5936687,18.6293642 C28.8216037,19.9288401 27.8560224,21.06441 26.8096426,22.127756 C25.4332594,23.5264458 23.9251557,24.7622454 22.37062,25.9379028 C20.5706459,27.2991333 18.7197498,28.5801226 16.7777346,29.7148973 C16.336737,29.9725838 15.8952287,30.2344447 15.4045434,30.3795549 C15.2366051,30.429206 15.0579632,30.4555776 14.8832793,30.4612318 C14.6082623,30.4701328 14.4097452,30.2845375 14.4006589,29.9989334 C14.3933813,29.769783 14.4165547,29.5373196 14.4481123,29.3095828 C14.5215906,28.7791245 14.6253072,28.2525977 14.6828897,27.7205271 C14.714958,27.4241666 14.6908269,27.1190156 14.6704837,26.8194305 C14.65163,26.5420426 14.506014,26.3321519 14.281238,26.1816305 C13.9352962,25.9499843 13.5499021,25.8251056 13.1485057,25.7655817 C12.2116093,25.6266117 11.288885,25.4243188 10.3829929,25.1404816 C8.40939884,24.5220958 6.59240107,23.5856604 4.97747401,22.2473118 C3.29072843,20.8494393 1.97484302,19.153086 1.15317538,17.0663268 C0.79936014,16.1676597 0.566221284,15.2361055 0.454929187,14.2712002 C0.379259072,13.6154215 0.35472374,12.958406 0.397921246,12.2998885 C0.501382465,10.7228481 0.919887566,9.2388371 1.63792375,7.8459783 C2.51553535,6.14350698 3.72715092,4.73810288 5.19648324,3.56670826 C6.96849601,2.15401553 8.95541106,1.20105918 11.1118816,0.617680984 C11.8520486,0.417464295 12.6023446,0.271492746 13.3611524,0.168767118 C14.1918425,0.056301219 15.0260226,-0.00388526484 15.862671,0.0114429626 C16.4856514,0.0228839162 17.1110789,0.044595224 17.7299949,0.113903549 C21.0732691,0.488252435 24.1135862,1.65900654 26.7403989,3.88020806 C28.1406365,5.06423632 29.2720281,6.48006538 30.0788639,8.16477893 C30.5660381,9.18207407 30.9035532,10.2513173 31.0596388,11.3757334 C31.1332235,11.9057941 31.1589718,12.4430109 31.2063827,12.976981 C31.1967856,12.978019 31.1871672,12.9790571 31.1775276,12.9800952 L31.1775276,12.9800952 Z" id="Fill-1"></path>
                    </g>
                </g>
            </g>
        </g>
    </g>
</svg>
