<svg width="25px" height="25px" viewBox="0 0 25 25" version="1.1" xmlns="http://www.w3.org/2000/svg" xmlns:xlink="http://www.w3.org/1999/xlink">
    <!-- Generator: Sketch 47 (45396) - http://www.bohemiancoding.com/sketch -->
    <desc>Created with Sketch.</desc>
    <defs></defs>
    <g id="Page-1" stroke="none" stroke-width="1" fill="none" fill-rule="evenodd">
        <g id="New" transform="translate(-525.000000, -899.000000)" fill-rule="nonzero" fill="#FFFFFF">
            <g id="Group-17" transform="translate(45.000000, 896.000000)">
                <g id="iconmonstr-linkedin-1" transform="translate(480.000000, 3.960000)">
                    <path d="M5.61545073,2.82857143 C5.61545073,4.39107429 4.3587672,5.65714286 2.80772536,5.65714286 C1.25668353,5.65714286 0,4.39107429 0,2.82857143 C0,1.2672 1.25668353,0 2.80772536,0 C4.3587672,0 5.61545073,1.2672 5.61545073,2.82857143 Z M5.61545073,6.78857143 L0,6.78857143 L0,23.76 L5.61545073,23.76 L5.61545073,6.78857143 Z M13.0970043,7.29597948 L7.86163102,7.29597948 L7.86163102,23.76 L13.0980581,23.76 L13.0980581,15.1174182 C13.0980581,10.3119822 19.4515335,9.91890375 19.4515335,15.1174182 L19.4515335,23.76 L24.7079832,23.76 L24.7079832,13.335188 C24.7079832,5.2266579 15.3058092,5.52198127 13.0970043,9.51347724 L13.0970043,7.29597948 Z" id="Shape"></path>
                </g>
            </g>
        </g>
    </g>
</svg>
