<svg width="29px" height="23px" viewBox="0 0 29 23" version="1.1" xmlns="http://www.w3.org/2000/svg" xmlns:xlink="http://www.w3.org/1999/xlink">
    <!-- Generator: Sketch 47 (45396) - http://www.bohemiancoding.com/sketch -->
    <desc>Created with Sketch.</desc>
    <defs></defs>
    <g id="Page-1" stroke="none" stroke-width="1" fill="none" fill-rule="evenodd">
        <g id="New" transform="translate(-936.000000, -901.000000)" fill-rule="nonzero" fill="#FFFFFF">
            <g id="Group-17" transform="translate(45.000000, 896.000000)">
                <g id="medium-1" transform="translate(891.000000, 5.280000)">
                    <path d="M28.6092437,3.30697884 L27.4777258,3.30697884 C27.0576392,3.30697884 26.4635504,3.90743239 26.4635504,4.29175366 L26.4635504,18.223649 C26.4635504,18.6084132 27.0576392,19.1330212 27.4777258,19.1330212 L28.6092437,19.1330212 L28.6092437,22.44 L18.3576353,22.44 L18.3576353,19.1330212 L20.5033286,19.1330212 L20.5033286,4.48795571 L20.3981672,4.48795571 L15.3875264,22.44 L11.5082918,22.44 L6.56224527,4.48795571 L6.43707983,4.48795571 L6.43707983,19.1330212 L8.58277311,19.1330212 L8.58277311,22.44 L0,22.44 L0,19.1330212 L1.09910903,19.1330212 C1.55160445,19.1330212 2.14569328,18.6084132 2.14569328,18.223649 L2.14569328,4.29164294 C2.14569328,3.90732167 1.55160445,3.30686811 1.09910903,3.30686811 L0,3.30686811 L0,0 L10.7322661,0 L14.2558967,12.9915207 L14.3531235,12.9915207 L17.9090513,0 L28.6092437,0 L28.6092437,3.30697884" id="Shape"></path>
                </g>
            </g>
        </g>
    </g>
</svg>
