<svg width="34px" height="31px" viewBox="0 0 34 31" version="1.1" xmlns="http://www.w3.org/2000/svg" xmlns:xlink="http://www.w3.org/1999/xlink">
    <!-- Generator: Sketch 47 (45396) - http://www.bohemiancoding.com/sketch -->
    <desc>Created with Sketch.</desc>
    <defs>
        <polygon id="path-1" points="0 0 33.8109244 0 33.8109244 30.36 0 30.36"></polygon>
    </defs>
    <g id="Page-1" stroke="none" stroke-width="1" fill="none" fill-rule="evenodd">
        <g id="New" transform="translate(-770.000000, -897.000000)">
            <g id="Group-17" transform="translate(45.000000, 896.000000)">
                <g id="Page-1-Copy-7" transform="translate(725.000000, 1.320000)">
                    <mask id="mask-2" fill="white">
                        <use xlink:href="#path-1"></use>
                    </mask>
                    <g id="Clip-2"></g>
                    <path d="M22.0447227,19.990542 C20.8162591,19.990542 19.817428,18.918834 19.817428,17.60121 C19.817428,16.283586 20.8162591,15.21036 22.0447227,15.21036 C23.2717775,15.21036 24.2706085,16.283586 24.2706085,17.60121 C24.2706085,18.918834 23.2717775,19.990542 22.0447227,19.990542 M22.3095749,24.688752 C21.1881793,25.892526 19.4257848,26.478474 16.9237764,26.478474 L16.9054622,26.47392 L16.8857391,26.478474 C14.3837307,26.478474 12.6213363,25.892526 11.4999407,24.688752 C11.2956663,24.47016 11.2956663,24.11343 11.4999407,23.894838 C11.704215,23.674728 12.0366891,23.674728 12.2409634,23.894838 C13.1552672,24.876984 14.6767588,25.353636 16.8857391,25.353636 L16.9054622,25.35819 L16.9237764,25.353636 C19.1341656,25.353636 20.6542484,24.875466 21.5685522,23.89332 C21.7742353,23.67321 22.1067094,23.674728 22.3095749,23.89332 C22.5152581,24.11343 22.5152581,24.468642 22.3095749,24.688752 M9.54454219,17.60121 C9.54454219,16.283586 10.544782,15.21036 11.7732456,15.21036 C13.003118,15.21036 14.0019491,16.283586 14.0019491,17.60121 C14.0019491,18.918834 13.003118,19.990542 11.7732456,19.990542 C10.544782,19.990542 9.54454219,18.918834 9.54454219,17.60121 M33.8109244,14.844522 C33.8109244,12.62976 32.1302397,10.829412 30.0663645,10.829412 C29.0590807,10.829412 28.1475945,11.26356 27.4741936,11.96184 C24.9256952,10.153902 21.4755721,9.003258 17.6549377,8.856012 L19.7427623,1.76847 L25.4018657,3.196908 L25.393413,3.284952 C25.393413,5.095926 26.7669818,6.568386 28.4561192,6.568386 C30.1438479,6.568386 31.5160079,5.095926 31.5160079,3.284952 C31.5160079,1.473978 30.1424391,0 28.4561192,0 C27.1600338,0 26.0555436,0.871332 25.6075488,2.093322 L19.5089034,0.552552 C19.2440511,0.482724 18.9721549,0.648186 18.8904452,0.930534 L16.5589002,8.83476 C12.5621672,8.886372 8.94017192,10.046124 6.27615284,11.90871 C5.60838708,11.243826 4.7222591,10.827894 3.74033351,10.827894 C1.67645833,10.827894 0,12.62976 0,14.844522 C0,16.316982 0.750884279,17.59362 1.85396569,18.2919 C1.78211747,18.719976 1.73421866,19.152606 1.73421866,19.592826 C1.73421866,25.529724 8.50767384,30.36 16.8350228,30.36 C25.1623717,30.36 31.9358269,25.529724 31.9358269,19.592826 C31.9358269,19.176894 31.894972,18.767034 31.8301677,18.363246 C33.0022798,17.6847 33.8109244,16.37163 33.8109244,14.844522" id="Fill-1" fill="#FFFFFF" mask="url(#mask-2)"></path>
                </g>
            </g>
        </g>
    </g>
</svg>
