<svg width="30px" height="32px" viewBox="0 0 30 32" version="1.1" xmlns="http://www.w3.org/2000/svg" xmlns:xlink="http://www.w3.org/1999/xlink">
    <!-- Generator: Sketch 47 (45396) - http://www.bohemiancoding.com/sketch -->
    <desc>Created with Sketch.</desc>
    <defs></defs>
    <g id="Page-1" stroke="none" stroke-width="1" fill="none" fill-rule="evenodd">
        <g id="New" transform="translate(-1018.000000, -896.000000)" fill-rule="nonzero" fill="#FFFFFF">
            <g id="Group-17" transform="translate(45.000000, 896.000000)">
                <g id="Group-9" transform="translate(973.000000, 0.000000)">
                    <path d="M4.58170648,3.96543113 C4.24690675,3.8075848 5.18997301e-06,7.12373017 5.18997301e-06,9.5634853 C-0.00585563701,12.8981605 4.95386898,20.4528227 5.7890368,23.3750386 C6.50772067,25.8813637 4.56998484,28.8893655 5.10258745,29.025937 C5.58903608,29.321041 10.2161588,24.8944811 10.3963792,23.0071881 C10.6286145,20.0019313 4.99342955,11.2387152 4.54434371,8.97602247 C4.02346274,6.33518483 4.9567994,4.02445193 4.58170648,3.96543113 L4.58170648,3.96543113 L4.58170648,3.96543113 Z" id="Shape"></path>
                    <path d="M14.2580929,0.00685382483 C13.8819744,-0.192357184 9.10294477,3.99311372 9.10294477,7.07918461 C9.09777475,11.2918515 14.6768639,20.8369825 15.6158672,24.5254458 C16.4236815,27.6917449 14.2451678,31.4923918 14.8410117,31.6623671 C15.391618,32.033593 20.5939423,26.4461662 20.7988041,24.0583537 C21.0611821,20.263146 14.7195164,9.1936769 14.214794,6.33061355 C13.6292902,3.00249787 14.6768639,0.0809630409 14.2580929,0.00685382483 L14.2580929,0.00685382483 L14.2580929,0.00685382483 Z" id="Shape"></path>
                    <path d="M24.0877045,3.96543113 C23.7558572,3.8075848 19.5063065,7.12373017 19.5063065,9.5634853 C19.5011787,12.8981605 24.4598423,20.4528227 25.2956874,23.3750386 C26.0135911,25.8813637 24.0767162,28.8893655 24.6085509,29.025937 C25.0978977,29.321041 29.7254464,24.8944811 29.9027247,23.0071881 C30.134212,20.0019313 24.5001328,11.2387152 24.0503441,8.97602247 C23.5302303,6.33518483 24.4627726,4.02445193 24.0877045,3.96543113 L24.0877045,3.96543113 Z" id="Shape"></path>
                </g>
            </g>
        </g>
    </g>
</svg>
