<svg width="14px" height="12px" viewBox="0 0 14 12" version="1.1" xmlns="http://www.w3.org/2000/svg" xmlns:xlink="http://www.w3.org/1999/xlink">
    <!-- Generator: Sketch 47 (45396) - http://www.bohemiancoding.com/sketch -->
    <desc>Created with Sketch.</desc>
    <defs></defs>
    <g id="Symbols" stroke="none" stroke-width="1" fill="none" fill-rule="evenodd">
        <g id="Btn-/-Outline-/-White-/-L-/-Default" transform="translate(-31.000000, -26.000000)" fill="#FFFFFF">
            <g id="Ico-/-Telegram-/-S-/-White">
                <g transform="translate(30.000000, 24.000000)">
                    <g id="Ico-/-Telegram-/-S-">
                        <path d="M1.24728162,7.75395641 L4.47316584,8.93925491 L5.72178081,12.8924092 C5.80167424,13.1455945 6.11616132,13.2391779 6.3249016,13.0711688 L8.12306395,11.6280449 C8.31155086,11.4768504 8.58002455,11.4693159 8.77700481,11.6100816 L12.0202491,13.9281671 C12.2435493,14.0879527 12.5599031,13.9674933 12.6159032,13.7018578 L14.9917529,2.45112384 C15.0528864,2.16095542 14.7632726,1.91888806 14.4826189,2.02574869 L1.24350161,7.05366551 C0.916787849,7.17770838 0.919634519,7.63308352 1.24728162,7.75395641 Z M5.52055388,8.3082902 L11.8251355,4.48561063 C11.9384423,4.4171114 12.0550158,4.56793834 11.9577156,4.65678979 L6.75460883,9.4181982 C6.57172192,9.5857939 6.45374843,9.81008178 6.42033505,10.0535274 L6.24309482,11.3466054 C6.21962146,11.5192547 5.9732678,11.536391 5.92487441,11.3693006 L5.24321351,9.0113376 C5.16514008,8.74239429 5.27891356,8.4551202 5.52055388,8.3082902 Z" fill-rule="nonzero"></path>
                    </g>
                </g>
            </g>
        </g>
    </g>
</svg>
