<svg width="29px" height="25px" viewBox="0 0 29 25" version="1.1" xmlns="http://www.w3.org/2000/svg" xmlns:xlink="http://www.w3.org/1999/xlink">
    <!-- Generator: Sketch 47 (45396) - http://www.bohemiancoding.com/sketch -->
    <desc>Created with Sketch.</desc>
    <defs></defs>
    <g id="Page-1" stroke="none" stroke-width="1" fill="none" fill-rule="evenodd">
        <g id="New" transform="translate(-126.000000, -899.000000)" fill-rule="nonzero" fill="#FFFFFF">
            <g id="Group-17" transform="translate(45.000000, 896.000000)">
                <g id="twitter-copy-4" transform="translate(81.000000, 3.960000)">
                    <path d="M28.6092437,2.8128507 C27.5566619,3.29038967 26.4254048,3.61199754 25.2381212,3.75696473 C26.4504379,3.01507384 27.3814304,1.83949959 27.8189133,0.438556193 C26.6852721,1.12562756 25.4288494,1.62509434 24.0913673,1.89431911 C23.0220968,0.728490566 21.4950784,0 19.807133,0 C16.0176003,0 13.2329673,3.61321575 14.0888605,7.36408943 C9.21217648,7.11435604 4.88741247,4.7266612 1.99191859,1.0976087 C0.454171743,3.79351108 1.19443593,7.32023381 3.80741352,9.10613208 C2.84661975,9.07445859 1.94066036,8.80523381 1.15033001,8.35571371 C1.08595921,11.1344545 3.03496394,13.7341181 5.85774265,14.3127687 C5.03165074,14.5417925 4.12688341,14.5953938 3.20661939,14.4150985 C3.95284384,16.7979205 6.11999405,18.5314356 8.69005778,18.5801641 C6.22251051,20.5573216 3.11363936,21.440525 0,21.0653158 C2.59748092,22.7671575 5.68370309,23.76 8.99760715,23.76 C19.8953449,23.76 26.0522925,14.3541879 25.6803725,5.91807219 C26.8271263,5.0714151 27.8224896,4.01522559 28.6092437,2.8128507 Z" id="Shape"></path>
                </g>
            </g>
        </g>
    </g>
</svg>
