<svg width="37px" height="31px" viewBox="0 0 37 31" version="1.1" xmlns="http://www.w3.org/2000/svg" xmlns:xlink="http://www.w3.org/1999/xlink">
    <!-- Generator: Sketch 47 (45396) - http://www.bohemiancoding.com/sketch -->
    <desc>Created with Sketch.</desc>
    <defs></defs>
    <g id="Page-1" stroke="none" stroke-width="1" fill="none" fill-rule="evenodd">
        <g id="New" transform="translate(-1274.000000, -897.000000)" fill="#FFFFFF">
            <g id="Group-17" transform="translate(45.000000, 896.000000)">
                <g id="Page-1" transform="translate(1229.000000, 1.320000)">
                    <path d="M8.71862973,5.83729366 C7.76685389,5.82244783 6.97431713,6.63950713 6.9720958,7.62381759 C6.97000513,8.58202448 7.72843789,9.41967062 8.71227062,9.41917725 C9.6752838,9.41872874 10.4532294,8.61678438 10.4532294,7.62502858 C10.4532294,6.63874466 9.67672113,5.8384598 8.71862973,5.83729366 M17.4651501,5.83729366 C16.5696916,5.82397278 15.7325975,6.57720843 15.7267175,7.62139561 C15.7211859,8.61189557 16.503792,9.41836993 17.4645403,9.4192221 C18.4263775,9.42011913 19.2121196,8.61723289 19.208548,7.62740571 C19.2047587,6.57433794 18.3618282,5.82150594 17.4651501,5.83729366 M26.0594002,9.47546585 C25.9654945,9.47546585 25.8823469,9.47757387 25.7993301,9.47510704 C23.7440308,9.41523032 21.7632987,9.77413182 19.8689808,10.6053642 C18.5163632,11.1988838 17.2968079,12.0051339 16.2398454,13.062328 C15.1692936,14.1332018 14.351059,15.375453 13.8516511,16.8307488 C13.6267738,17.4860289 13.4813854,18.1594738 13.415573,18.8515769 C13.3027205,20.0389299 13.4266361,21.1993721 13.7788698,22.3349218 C13.7902813,22.3717448 13.8000813,22.4091061 13.8125382,22.4530157 C13.7814831,22.4567384 13.7583987,22.4612684 13.7352271,22.4620308 C12.9683446,22.4880447 12.2032043,22.4668748 11.4395884,22.3831371 C10.5162108,22.2818625 9.60890514,22.0995412 8.71880395,21.8275619 C8.40694623,21.7322973 8.1142965,21.7701071 7.83432143,21.9387487 C6.91743358,22.4910497 5.99984884,23.0420501 5.08256899,23.5935887 C4.96192012,23.6661135 4.83896281,23.7338841 4.69988994,23.7606604 C4.64892995,23.770438 4.59631485,23.7770761 4.54470153,23.7757305 C4.39495755,23.7717836 4.28916112,23.6892569 4.24011758,23.5419198 C4.19220647,23.3977671 4.19961092,23.2501161 4.23384558,23.106412 C4.30510245,22.8071181 4.383546,22.509708 4.46072643,22.211939 C4.59448552,21.6959677 4.73024816,21.1805794 4.86387658,20.664608 C4.96235568,20.2842226 4.85355392,19.9747475 4.54025886,19.7417889 C3.45481104,18.9347315 2.51222541,17.9813237 1.74782554,16.8463123 C0.996579439,15.7309458 0.46772797,14.5147981 0.196420459,13.1840549 C0.0353520407,12.394041 -0.0283261711,11.5955502 0.0115707112,10.7884928 C0.11910936,8.61418299 0.886427457,6.70364474 2.19544591,5.01265446 C3.15645553,3.7713002 4.32740289,2.78124876 5.66015912,1.99087608 C7.00227979,1.19494181 8.43743511,0.652283827 9.95281975,0.329218658 C11.2147111,0.060199515 12.4901047,-0.0412545199 13.775908,0.0149892289 C15.843185,0.105409801 17.8194745,0.586217606 19.6871799,1.51432916 C21.0099619,2.17162752 22.202208,3.02093504 23.2367829,4.09790864 C24.3401321,5.24637549 25.182235,6.56711685 25.7045967,8.09637272 C25.8457167,8.50949965 25.9564785,8.93137262 26.041978,9.36033212 C26.0489469,9.39522657 26.0527362,9.43079378 26.0594002,9.47546585" id="Fill-1"></path>
                    <g id="Group-5" transform="translate(14.279123, 10.241928)">
                        <path d="M7.39508747,8.02640535 C8.22354348,8.02544951 8.88813873,7.3336063 8.88646668,6.47403663 C8.88475064,5.62293293 8.21672328,4.934731 7.3926234,4.93509513 C6.56500342,4.93550477 5.89922013,5.62848588 5.90128819,6.48746385 C5.90335625,7.33920477 6.5712956,8.02736118 7.39508747,8.02640535 M14.695603,8.02640535 C15.5186909,8.02758876 16.1884343,7.3395689 16.1923504,6.48878381 C16.1962665,5.63303748 15.5268311,4.93577787 14.7007072,4.93509513 C13.8759033,4.93441239 13.2088879,5.6205661 13.2060278,6.47262563 C13.2032118,7.33242288 13.867367,8.02517641 14.695603,8.02640535 M11.070118,0.0163630022 C12.9613808,0.0222800823 14.7725612,0.409120572 16.4879949,1.24379299 C17.6382323,1.80345774 18.6730543,2.53658396 19.5689202,3.47271154 C20.4979631,4.44343129 21.2086717,5.55934708 21.6486845,6.85236562 C21.874103,7.51457792 22.0150391,8.1955428 22.0661686,8.89621612 C22.1932442,10.6388872 21.806737,12.2555245 20.9476122,13.7542754 C20.2716206,14.9335495 19.3727625,15.9014927 18.3058196,16.7075356 C18.2802549,16.7268344 18.2542501,16.7455415 18.2286854,16.7648858 C18.0130791,16.9283337 17.9340968,17.1492684 18.0011548,17.4165383 C18.1672156,18.078341 18.3369725,18.7390968 18.5009213,19.4014456 C18.5294341,19.5166921 18.5433385,19.637082 18.5513907,19.7560153 C18.5554388,19.8151861 18.5381463,19.8791816 18.5178618,19.9361676 C18.4759725,20.0535078 18.388322,20.1211446 18.2678465,20.1179585 C18.181604,20.1156827 18.0929854,20.0984777 18.0108791,20.0707129 C17.9316328,20.043904 17.8572706,19.9987976 17.7844045,19.9552843 C17.0196623,19.4986678 16.2543922,19.0429161 15.4922021,18.581748 C15.2620754,18.44256 15.0304087,18.4123829 14.7741893,18.492309 C14.0249356,18.7262157 13.2598414,18.880606 12.4812828,18.9664492 C11.7516537,19.0469215 11.0207925,19.0681319 10.2888313,19.0220698 C8.62707917,18.917565 7.03797312,18.5151581 5.53704564,17.7618682 C4.2001549,17.0908258 3.02769693,16.1946158 2.06305698,15.0193016 C1.23130088,14.0058879 0.629319434,12.8652569 0.299749885,11.5757431 C0.0828676011,10.7272793 0.00326929473,9.86434145 0.0616589866,8.9900246 C0.168010068,7.39869418 0.697125399,5.96402984 1.58973526,4.66982788 C2.39465058,3.5027521 3.41059602,2.57190437 4.59194225,1.83035769 C5.77020839,1.0907682 7.03902916,0.589090838 8.38731622,0.300655942 C9.31574312,0.102024115 10.1378189,0.0175009023 11.070118,0.0163630022" id="Fill-3"></path>
                    </g>
                </g>
            </g>
        </g>
    </g>
</svg>
