<svg width="28px" height="29px" viewBox="0 0 28 29" version="1.1" xmlns="http://www.w3.org/2000/svg" xmlns:xlink="http://www.w3.org/1999/xlink">
    <!-- Generator: Sketch 47 (45396) - http://www.bohemiancoding.com/sketch -->
    <desc>Created with Sketch.</desc>
    <defs></defs>
    <g id="Page-1" stroke="none" stroke-width="1" fill="none" fill-rule="evenodd">
        <g id="New" transform="translate(-377.000000, -898.000000)" fill-rule="nonzero" fill="#FFFFFF">
            <g id="Group-17" transform="translate(45.000000, 896.000000)">
                <g id="iconmonstr-whatsapp-1" transform="translate(332.000000, 2.640000)">
                    <path d="M0,27.72 L1.92874421,20.601735 C0.738570692,18.518115 0.11318653,16.15614 0.114329829,13.734105 C0.117759723,6.161925 6.21725607,0 13.7115763,0 C17.3484082,0.001155 20.7622969,1.4322 23.3301448,4.02864 C25.8968495,6.62508 27.3099661,10.07622 27.3088228,13.74681 C27.3053929,21.320145 21.2058966,27.48207 13.7115763,27.48207 C11.4364127,27.480915 9.19440481,26.90457 7.20849569,25.80963 L0,27.72 Z M7.54233879,23.322915 C9.45850671,24.47214 11.287784,25.16052 13.7070031,25.161675 C19.9356922,25.161675 25.00965,20.040405 25.0130799,13.7445 C25.0153665,7.43589 19.965418,2.32155 13.7161495,2.31924 C7.48288728,2.31924 2.41235938,7.44051 2.41007278,13.73526 C2.40892949,16.305135 3.15435997,18.229365 4.40627159,20.24253 L3.2641166,24.45597 L7.54233879,23.322915 Z M20.5610764,17.011995 C20.4764723,16.868775 20.2500992,16.783305 19.9093963,16.61121 C19.5698367,16.439115 17.899478,15.60867 17.5873575,15.494325 C17.2763804,15.37998 17.0500073,15.32223 16.822491,15.66642 C16.5961179,16.009455 15.9444379,16.783305 15.7466473,17.011995 C15.5488567,17.240685 15.3499228,17.26956 15.0103632,17.097465 C14.6708036,16.92537 13.5755238,16.563855 12.2778803,15.39384 C11.2683479,14.4837 10.5857988,13.359885 10.3880082,13.015695 C10.1902176,12.67266 10.3674288,12.486705 10.536637,12.315765 C10.689839,12.16215 10.8761966,11.91498 11.046548,11.71401 C11.2191861,11.51535 11.2752077,11.37213 11.3895375,11.142285 C11.502724,10.913595 11.4467024,10.712625 11.3609551,10.54053 C11.2752077,10.36959 10.5960885,8.679825 10.3136938,7.9926 C10.0370156,7.323855 9.75690756,7.413945 9.54882728,7.40355 L8.89714725,7.392 C8.67077419,7.392 8.30263215,7.47747 7.99165501,7.82166 C7.68067788,8.16585 6.8026248,8.99514 6.8026248,10.684905 C6.8026248,12.37467 8.02023747,14.006685 8.18944562,14.235375 C8.35979706,14.464065 10.5846555,17.931375 13.9928277,19.41786 C14.8034262,19.77129 15.4368134,19.982655 15.929575,20.14089 C16.7436034,20.40192 17.4844607,20.36496 18.0698294,20.27718 C18.7226527,20.179005 20.0797478,19.446735 20.3632858,18.645165 C20.6468237,17.84244 20.6468237,17.155215 20.5610764,17.011995 L20.5610764,17.011995 Z" id="Shape"></path>
                </g>
            </g>
        </g>
    </g>
</svg>
