<svg width="25px" height="31px" viewBox="0 0 25 31" version="1.1" xmlns="http://www.w3.org/2000/svg" xmlns:xlink="http://www.w3.org/1999/xlink">
    <!-- Generator: Sketch 47 (45396) - http://www.bohemiancoding.com/sketch -->
    <desc>Created with Sketch.</desc>
    <defs></defs>
    <g id="Page-1" stroke="none" stroke-width="1" fill="none" fill-rule="evenodd">
        <g id="New" transform="translate(-858.000000, -897.000000)" fill-rule="nonzero" fill="#FFFFFF">
            <g id="Group-17" transform="translate(45.000000, 896.000000)">
                <g id="iconmonstr-youtube-1" transform="translate(813.000000, 1.320000)">
                    <path d="M3.27627857,0 L5.05525336,0 L6.27582773,4.68307878 L7.40745336,0 L9.20372374,0 L7.14678414,6.96389754 L7.14678414,11.716552 L5.37892794,11.716552 L5.37892794,6.96389754 L3.27627857,0 Z M11.4225006,3.00187627 C10.040089,3.00187627 9.12342279,3.93798602 9.12342279,5.32317545 L9.12342279,9.55970458 C9.12342279,11.0827804 9.90048887,11.8759437 11.4225006,11.8759437 C12.6850786,11.8759437 13.6783395,11.0119397 13.6783395,9.55970458 L13.6783395,5.32317545 C13.6783395,3.97087636 12.6937264,3.00187627 11.4225006,3.00187627 Z M12.0784976,9.48759883 C12.0784976,9.95818373 11.8437717,10.3047973 11.4212652,10.3047973 C10.9876401,10.3047973 10.7368541,9.94173856 10.7368541,9.48759883 L10.7368541,5.46612194 C10.7368541,4.99300701 10.9493428,4.64259836 11.3903803,4.64259836 C11.8721859,4.64259836 12.0784976,4.98288691 12.0784976,5.46612194 L12.0784976,9.48759883 L12.0784976,9.48759883 Z M17.9207002,3.07398202 L17.9207002,9.63434036 C17.7292133,9.87975291 17.3030006,10.2820271 16.997857,10.2820271 C16.6630639,10.2820271 16.5802921,10.0467347 16.5802921,9.70012104 L16.5802921,3.07398202 L15.0113352,3.07398202 L15.0113352,10.2972073 C15.0113352,11.1510912 15.2658274,11.8405233 16.1071342,11.8405233 C16.5815275,11.8405233 17.2412307,11.5875207 17.9207002,10.7614671 L17.9207002,11.715287 L19.4896571,11.715287 L19.4896571,3.07398202 L17.9207002,3.07398202 Z M20.6422846,20.6045346 C20.0888257,20.6045346 19.9739336,21.0030138 19.9739336,21.5697397 L19.9739336,22.4033834 L21.2945753,22.4033834 L21.2945753,21.5684747 C21.2958107,21.0118689 21.1809186,20.6045346 20.6422846,20.6045346 Z M14.8322023,20.6551352 C14.7284288,20.7095307 14.6258907,20.7930216 14.5233525,20.9056078 L14.5233525,26.0352362 C14.645657,26.1693276 14.76302,26.2654686 14.8779121,26.3249242 C15.1212857,26.4514255 15.4770807,26.4602806 15.6426242,26.2401683 C15.7291021,26.1237871 15.7723411,25.9353002 15.7723411,25.6721774 L15.7723411,21.4229982 C15.7723411,21.1446953 15.7192189,20.9347031 15.6129746,20.7904916 C15.4313709,20.546344 15.0941069,20.5197787 14.8322023,20.6551352 L14.8322023,20.6551352 Z M20.7954741,14.0833917 C17.5784946,13.8594844 7.12454695,13.8594844 3.91250914,14.0833917 C0.436095903,14.3262742 0.0259433824,16.4767966 0,22.1377306 C0.0259433824,27.7885445 0.432389706,29.949187 3.91250914,30.1920695 C7.12454695,30.4159768 17.5784946,30.4159768 20.7954741,30.1920695 C24.2718873,29.949187 24.6820398,27.7973996 24.7079832,22.1377306 C24.6820398,16.4869167 24.2755935,14.3262742 20.7954741,14.0833917 Z M5.57041481,27.6013225 L3.88656576,27.6013225 L3.88656576,18.0631232 L2.14465294,18.0631232 L2.14465294,16.4439063 L7.31109223,16.4439063 L7.31109223,18.0631232 L5.56917941,18.0631232 L5.56917941,27.6013225 L5.57041481,27.6013225 Z M11.5571591,27.6013225 L10.0623262,27.6013225 L10.0623262,26.6930431 C9.78683214,27.0282715 9.50021954,27.2838042 9.20248834,27.458376 C8.39700809,27.931491 7.29132584,27.9201058 7.29132584,26.2502884 L7.29132584,19.3711468 L8.78492342,19.3711468 L8.78492342,25.6810325 C8.78492342,26.012466 8.86275357,26.2351083 9.18272195,26.2351083 C9.47427616,26.2351083 9.87948708,25.8518093 10.0610908,25.6190469 L10.0610908,19.3711468 L11.5559237,19.3711468 L11.5559237,27.6013225 L11.5571591,27.6013225 Z M17.310413,25.8960848 C17.310413,26.9144204 16.9385579,27.7063186 15.9440616,27.7063186 C15.3967797,27.7063186 14.9409174,27.5013865 14.5245879,26.9688159 L14.5245879,27.6013225 L13.0161655,27.6013225 L13.0161655,16.4439063 L14.5245879,16.4439063 L14.5245879,20.0365437 C14.8618519,19.6152943 15.320185,19.2674157 15.8538774,19.2674157 C16.9484411,19.2674157 17.3116484,20.2149106 17.3116484,21.3306522 L17.3116484,25.8960848 L17.310413,25.8960848 Z M22.8338827,23.6797817 L19.975169,23.6797817 L19.975169,25.2332178 C19.975169,25.8505443 20.0270558,26.3843798 20.6274598,26.3843798 C21.2587487,26.3843798 21.2958107,25.9492153 21.2958107,25.2332178 L21.2958107,24.6614319 L22.8338827,24.6614319 L22.8338827,25.2800233 C22.8338827,26.8650848 22.1692379,27.8264949 20.594104,27.8264949 C19.167218,27.8264949 18.4370971,26.7613538 18.4370971,25.2800233 L18.4370971,21.5849198 C18.4370971,20.15672 19.3587048,19.1636846 20.7065253,19.1636846 C22.1408237,19.1636846 22.8326473,20.0972643 22.8326473,21.5849198 L22.8326473,23.6797817 L22.8338827,23.6797817 Z" id="Shape"></path>
                </g>
            </g>
        </g>
    </g>
</svg>
