<?xml version="1.0" encoding="UTF-8" standalone="no"?>
<svg width="23px" height="22px" viewBox="0 0 23 22" version="1.1" xmlns="http://www.w3.org/2000/svg" xmlns:xlink="http://www.w3.org/1999/xlink">
    <!-- Generator: Sketch 46.2 (44496) - http://www.bohemiancoding.com/sketch -->
    <title>if_github_291716</title>
    <desc>Created with Sketch.</desc>
    <defs></defs>
    <g id="design-1440" stroke="none" stroke-width="1" fill="none" fill-rule="evenodd">
        <g id="mm-landing-1440" transform="translate(-537.000000, -8108.000000)" fill="white">
            <g id="if_github_291716" transform="translate(537.000000, 8108.000000)">
                <path d="M18.8518684,10.6807452 C18.8518684,9.44827798 18.4087242,8.44388512 17.6869707,7.66781827 C17.803409,7.3714021 18.1758988,6.25297206 17.5464841,4.70129129 C17.5464841,4.70129129 16.6144118,4.40447252 14.4243835,5.8421161 C13.4923111,5.591345 12.4671292,5.43131047 11.5117794,5.43131047 C10.5327412,5.43131047 9.50719956,5.591345 8.59840462,5.8421161 C6.38463646,4.40447252 5.4526155,4.70129129 5.4526155,4.70129129 C4.82361183,6.25297206 5.19656409,7.3714021 5.31295109,7.66781827 C4.59042674,8.4438348 4.14769366,9.44827798 4.14769366,10.6807452 C4.14769366,15.0169263 6.87402711,15.929727 9.43736736,16.2261935 C9.11138098,16.5005672 8.80836369,17.0250074 8.6919253,17.7554292 C8.03923315,18.0290983 6.33808165,18.5542431 5.31295109,16.8197807 C5.31295109,16.8197807 4.70686513,15.747348 3.5652448,15.6789559 C3.5652448,15.6789559 2.42326477,15.6561585 3.47208381,16.3629777 C3.47208381,16.3629777 4.24080327,16.7057939 4.75377963,18.0062506 C4.75377963,18.0062506 5.4526155,20.1747186 8.66823682,19.4898412 L8.66823682,21.4295303 C8.66823682,21.7267516 8.43546281,22.0687625 7.85301394,21.9775731 C3.28550491,20.4939321 3.62376795e-13,16.2489406 3.62376795e-13,11.2739801 C3.62376795e-13,5.04335253 5.14959821,-2.77111667e-13 11.5117794,-2.77111667e-13 C17.8499638,-2.77111667e-13 23.0231992,5.04340286 22.9999218,11.2739801 C22.9999218,16.2489406 19.7140571,20.4711347 15.1468564,21.9775731 C14.5640479,22.0916102 14.3312225,21.7495993 14.3312225,21.4295303 L14.3312225,18.3034217 C14.3312739,17.2529811 13.9812393,16.5689593 13.5621947,16.2261935 C16.125535,15.929727 18.8518684,15.0169263 18.8518684,10.6807452 Z" id="Shape"></path>
            </g>
        </g>
    </g>
</svg>