<?xml version="1.0" encoding="UTF-8" standalone="no"?>
<svg width="21px" height="21px" viewBox="0 0 21 21" version="1.1" xmlns="http://www.w3.org/2000/svg" xmlns:xlink="http://www.w3.org/1999/xlink">
    <!-- Generator: Sketch 46.2 (44496) - http://www.bohemiancoding.com/sketch -->
    <title>Page 1</title>
    <desc>Created with Sketch.</desc>
    <defs>
        <polygon id="path-1" points="4.7434438e-20 0 21 0 21 21 0 21"></polygon>
    </defs>
    <g id="design-1440" stroke="none" stroke-width="1" fill="none" fill-rule="evenodd">
        <g id="mm-landing-1440" transform="translate(-401.000000, -8108.000000)">
            <g id="Page-1" transform="translate(401.000000, 8108.000000)">
                <mask id="mask-2" fill="white">
                    <use xlink:href="#path-1"></use>
                </mask>
                <g id="Clip-2"></g>
                <path d="M16.10525,3.635625 C15.40875,3.635625 14.844375,4.2 14.844375,4.895625 C14.844375,5.59125 15.40875,6.155625 16.10525,6.155625 C16.800875,6.155625 17.3635,5.59125 17.3635,4.895625 C17.3635,4.2 16.800875,3.635625 16.10525,3.635625 M10.5,14 C8.567125,14 7,12.43375 7,10.5 C7,8.567125 8.567125,7 10.5,7 C12.432875,7 14,8.567125 14,10.5 C14,12.43375 12.432875,14 10.5,14 M10.5,5.10825 C7.522375,5.10825 5.10825,7.522375 5.10825,10.5 C5.10825,13.4785 7.522375,15.892625 10.5,15.892625 C13.477625,15.892625 15.89175,13.479375 15.89175,10.5 C15.89175,7.522375 13.477625,5.10825 10.5,5.10825 M10.5,0 C7.648375,0 7.291375,0.01225 6.171375,0.063 C2.358125,0.238 0.238875,2.35375 0.063875,6.1705 C0.01225,7.291375 0,7.648375 0,10.5 C0,13.351625 0.01225,13.7095 0.063,14.8295 C0.238,18.64275 2.35375,20.762 6.1705,20.937 C7.291375,20.988625 7.648375,21 10.5,21 C13.351625,21 13.7095,20.988625 14.8295,20.937 C18.63925,20.762 20.76375,18.64625 20.936125,14.8295 C20.98775,13.7095 21,13.351625 21,10.5 C21,7.648375 20.98775,7.291375 20.936125,6.171375 C20.7655,2.361625 18.64625,0.238875 14.830375,0.063875 C13.7095,0.01225 13.351625,0 10.5,0" id="Fill-1" fill="white" mask="url(#mask-2)"></path>
            </g>
        </g>
    </g>
</svg>