<?xml version="1.0" encoding="utf-8"?>
<!-- Generator: Adobe Illustrator 19.0.1, SVG Export Plug-In . SVG Version: 6.00 Build 0)  -->
<svg version="1.1" id="Слой_1" xmlns="http://www.w3.org/2000/svg" xmlns:xlink="http://www.w3.org/1999/xlink" x="0px" y="0px"
	 viewBox="0 0 32 32" style="enable-background:new 0 0 32 32;" xml:space="preserve">
<style type="text/css">
	.st0{fill:#FFFFFF;}
</style>
<path class="st0" d="M28.9,0.5h-26c-1.3,0-2.4,1.1-2.4,2.4v26c0,1.3,1.1,2.4,2.4,2.4h26c1.3,0,2.4-1.1,2.4-2.4v-26
	C31.3,1.6,30.2,0.5,28.9,0.5z M15.9,24.6c-0.8,0-1.5-0.1-2.2-0.2c-0.7,0.5-4.9,3.4-5.3,3.5c0,0-0.2,0.1-0.3,0C8,27.8,8,27.6,8,27.6
	c0-0.3,1.1-3.9,1.3-4.5c-3.5-1.7-5.9-4.8-5.9-8.4c0-5.4,5.6-9.9,12.5-9.9l0,0c6.9,0,12.5,4.4,12.5,9.9
	C28.4,20.2,22.8,24.6,15.9,24.6z"/>
<path class="st0" d="M9,18.2c-0.4,0-0.7-0.3-0.7-0.7v-4.3H7.1c-0.4,0-0.7-0.3-0.7-0.7c0-0.4,0.3-0.7,0.7-0.7h3.7
	c0.4,0,0.7,0.3,0.7,0.7c0,0.4-0.3,0.7-0.7,0.7H9.7v4.3C9.7,17.8,9.4,18.2,9,18.2z M15.3,18.1c-0.3,0-0.5-0.1-0.6-0.3l-0.4-0.9h-2.2
	l-0.4,0.9c-0.1,0.2-0.3,0.3-0.6,0.3c-0.2,0-0.3,0-0.5-0.1c-0.2-0.1-0.4-0.3-0.2-1l1.7-4.5c0.1-0.3,0.5-0.7,1-0.7
	c0.5,0,0.8,0.4,1,0.7l1.7,4.5c0.2,0.7,0,0.9-0.2,1C15.6,18.1,15.5,18.1,15.3,18.1L15.3,18.1L15.3,18.1z M14,15.6l-0.7-2l-0.7,2H14
	L14,15.6z M17.1,18.1c-0.4,0-0.7-0.3-0.7-0.7v-4.9c0-0.4,0.3-0.7,0.7-0.7c0.4,0,0.7,0.3,0.7,0.7v4.2h1.5c0.4,0,0.7,0.3,0.7,0.7
	c0,0.4-0.3,0.7-0.7,0.7H17.1L17.1,18.1z M21.1,18.1c-0.4,0-0.7-0.3-0.7-0.7v-4.9c0-0.4,0.3-0.7,0.7-0.7c0.4,0,0.7,0.3,0.7,0.7V14
	l2-2c0.1-0.1,0.2-0.2,0.4-0.2c0.2,0,0.4,0.1,0.5,0.2c0.1,0.1,0.2,0.3,0.2,0.5c0,0.2,0,0.3-0.2,0.4l-1.6,1.6l1.8,2.4
	c0.1,0.2,0.2,0.3,0.1,0.5c0,0.2-0.1,0.4-0.3,0.5c-0.1,0.1-0.3,0.1-0.4,0.1c-0.2,0-0.4-0.1-0.6-0.3l-1.7-2.2l-0.3,0.3v1.6
	C21.8,17.8,21.5,18.1,21.1,18.1L21.1,18.1z"/>
</svg>
