<?xml version="1.0" encoding="UTF-8" standalone="no"?>
<svg width="24px" height="24px" viewBox="0 0 24 24" version="1.1" xmlns="http://www.w3.org/2000/svg" xmlns:xlink="http://www.w3.org/1999/xlink">
    <!-- Generator: Sketch 46.2 (44496) - http://www.bohemiancoding.com/sketch -->
    <title>Page 1</title>
    <desc>Created with Sketch.</desc>
    <defs></defs>
    <g id="design-1440" stroke="none" stroke-width="1" fill="none" fill-rule="evenodd">
        <g id="mm-landing-1440-copy" transform="translate(-1197.000000, -744.000000)" fill="#FFFFFF">
            <g id="Page-1" transform="translate(1197.000000, 744.000000)">
                <g id="Group-3">
                    <path d="M8.67326107,10.0858975 C8.67326107,10.9530213 8.67301562,11.8201618 8.6734738,12.6873023 C8.67357198,12.8632436 8.75802454,12.9504194 8.92817328,12.9510385 C9.17904369,12.9519756 9.43011045,12.9448141 9.68068631,12.9533811 C9.88323499,12.9602916 9.95634757,12.8286242 9.95621666,12.6730797 C9.95466212,10.949976 9.95538212,9.22685554 9.95505484,7.50375181 C9.95500575,7.31231629 9.87295865,7.2268806 9.68728084,7.22572606 C9.4446086,7.22423688 9.20192,7.22487271 8.95924777,7.22545834 C8.75035001,7.22596032 8.6732938,7.30515482 8.67327744,7.51795763 C8.67319562,8.3739376 8.67324471,9.22991757 8.67326107,10.0858975 L8.67326107,10.0858975 Z M5.46293484,9.50801025 C5.46293484,8.83610353 5.46345848,8.16418009 5.46262393,7.49227338 C5.46237848,7.30592451 5.38573136,7.22701446 5.20412809,7.22580972 C4.9505577,7.22415322 4.69697094,7.22396916 4.4434169,7.22597705 C4.27020816,7.22736584 4.18855378,7.31295212 4.18853742,7.48845839 C4.18834106,9.2226055 4.18834106,10.9567694 4.18853742,12.6909165 C4.18857015,12.8629926 4.2701918,12.9516744 4.43620056,12.951825 C5.52410199,12.9528958 6.61200343,12.9528624 7.69992122,12.9518919 C7.86849907,12.9517246 7.94745345,12.8676275 7.94822254,12.6931419 C7.94940072,12.4366507 7.94904072,12.1801429 7.94843527,11.9236517 C7.94796072,11.7280331 7.87164088,11.6499095 7.68197035,11.6498593 C6.97853178,11.649692 6.27506047,11.6498091 5.57160553,11.6497589 C5.46352393,11.6497422 5.46309848,11.6495581 5.46308211,11.5404963 C5.46295121,10.8629842 5.46301666,10.1855056 5.46293484,9.50801025 L5.46293484,9.50801025 Z M16.4907434,10.0858139 C16.4907434,10.9529878 16.4904816,11.8201785 16.4909725,12.6873859 C16.4910871,12.8651511 16.5683233,12.9515572 16.7338248,12.9517246 C17.8245898,12.9528791 18.9153713,12.9528791 20.0061363,12.9517078 C20.1679887,12.9515405 20.2501667,12.8624237 20.2505922,12.696137 C20.251214,12.4396124 20.2509358,12.1830711 20.2507231,11.9265465 C20.2505595,11.7288195 20.1726196,11.649876 19.9773527,11.6498426 C19.2710669,11.6497087 18.5647811,11.6486044 17.8585116,11.6514656 C17.7818972,11.6517835 17.7613772,11.6276052 17.7627518,11.5518743 C17.7669736,11.3177377 17.7641918,11.0834504 17.7643227,10.8492301 C17.7643881,10.7412559 17.7646009,10.7410216 17.8733206,10.7410216 C18.5795901,10.740938 19.285876,10.7412392 19.9921454,10.7407539 C20.168676,10.7406201 20.2503958,10.6554354 20.250674,10.4736879 C20.2510504,10.2255128 20.2508376,9.97735439 20.2507558,9.72917926 C20.250674,9.51202602 20.1793778,9.43890539 19.9667491,9.43887192 C19.263196,9.4387046 18.5596429,9.43786798 17.8561061,9.44017705 C17.7850881,9.44039457 17.7613936,9.42023202 17.7627354,9.34570585 C17.7669572,9.10877491 17.7683154,8.87159298 17.762179,8.63474569 C17.7599372,8.5476033 17.7869863,8.52857854 17.8681661,8.52892992 C18.5771519,8.53212582 19.2861541,8.53098801 19.9951563,8.53060317 C20.1651742,8.53050277 20.2502649,8.44254048 20.2506413,8.26760312 C20.2511486,8.01944473 20.2439977,7.77101862 20.2529486,7.52317814 C20.2599849,7.3284798 20.1685124,7.22247997 19.9641637,7.22329986 C18.9006931,7.22763356 17.8371734,7.22515716 16.7736538,7.22545834 C16.5608942,7.22550854 16.4907925,7.29839493 16.4907598,7.51768991 C16.4906289,8.37372008 16.4906943,9.22976698 16.4907434,10.0858139 L16.4907434,10.0858139 Z M12.051887,9.61395987 C12.0593979,9.61201891 12.0669251,9.61007795 12.0744524,9.60815373 C12.0958723,9.63656536 12.1177832,9.66462562 12.1386632,9.69345556 C12.8865453,10.7260461 13.635671,11.7576662 14.3801495,12.7927834 C14.4632603,12.9083542 14.5553383,12.9594047 14.6956071,12.9537994 C14.9243048,12.944697 15.153608,12.9514903 15.3826657,12.9512895 C15.5936416,12.9511055 15.6680796,12.8753411 15.6680796,12.6608483 C15.6681124,10.9460606 15.6681124,9.23128963 15.6680796,7.51650191 C15.6680633,7.49142002 15.669176,7.46620428 15.6671306,7.44125625 C15.6579506,7.32926622 15.5833489,7.23482849 15.4794728,7.23275368 C15.1797897,7.22673001 14.8798776,7.22731564 14.5801618,7.23215131 C14.4854002,7.23369069 14.4145458,7.30970604 14.3980349,7.40631898 C14.3900986,7.45263429 14.3879059,7.50047226 14.3878895,7.54762419 C14.3873331,8.52350862 14.3875131,9.49940979 14.387235,10.4752942 C14.387235,10.5060986 14.3840604,10.5369197 14.3810823,10.5908482 C14.3470787,10.5457042 14.3287187,10.5221115 14.3111769,10.4978997 C13.9510304,10.0006794 13.590982,9.5033921 13.2309009,9.00612157 C12.8302708,8.45284765 12.4311298,7.89843593 12.0266216,7.34815712 C11.9878889,7.29546675 11.9167891,7.23713757 11.8587801,7.23491216 C11.5620916,7.22358431 11.2647322,7.22662961 10.9677328,7.2316828 C10.868553,7.23337277 10.797535,7.30992356 10.7810568,7.41088693 C10.7739223,7.45459199 10.7717459,7.49956871 10.7717296,7.54395979 C10.7712877,9.23922079 10.7713532,10.9344818 10.7714023,12.6297428 C10.7714023,12.657619 10.7705186,12.6856123 10.7726623,12.7133379 C10.7850004,12.8726807 10.864593,12.9502354 11.0200472,12.9509549 C11.273634,12.9521261 11.5272208,12.9516242 11.7808239,12.9512226 C11.9738817,12.9509214 12.0518051,12.8703214 12.0518379,12.6714567 C12.0519361,11.6844117 12.051887,10.6973835 12.051887,9.71033856 L12.051887,9.61395987 Z M23.9749647,9.83340545 C23.9811828,11.3825758 23.5481037,12.8013504 22.7570053,14.1131547 C22.1633011,15.0976061 21.4207862,15.9578863 20.6161387,16.7634515 C19.5577245,17.823065 18.3980196,18.7592768 17.2026093,19.6499264 C15.8184612,20.6811616 14.395155,21.651608 12.9017798,22.5112859 C12.5626605,22.7065029 12.2231484,22.9048824 11.8458201,23.0148143 C11.7166786,23.0524288 11.5793061,23.0724073 11.4449773,23.0766908 C11.2334941,23.0834339 11.080838,22.9428315 11.0738508,22.7264647 C11.0682544,22.5528659 11.0860744,22.3767573 11.1103416,22.2042294 C11.1668451,21.802367 11.2466013,21.4034831 11.2908812,21.0003993 C11.3155412,20.7758838 11.2969849,20.5447088 11.2813413,20.3177504 C11.2668431,20.107608 11.154867,19.9485999 10.9820182,19.8345685 C10.7159951,19.659079 10.4196339,19.5644739 10.1109673,19.5193801 C9.39051053,19.4140998 8.68095197,19.2608476 7.98433701,19.0458194 C6.46667827,18.5773453 5.06943927,17.8679246 3.82758906,16.8540241 C2.53051168,15.7950298 1.51861919,14.5099136 0.886771374,12.9290354 C0.614693742,12.2482271 0.435414105,11.5425041 0.34983246,10.8115153 C0.291643487,10.3147133 0.272776252,9.81697422 0.305994367,9.31809738 C0.385554206,8.12336974 0.707377191,6.99911901 1.25953426,5.94392295 C1.93440198,4.65417195 2.86611282,3.58947188 3.99600326,2.70205171 C5.3586496,1.63182994 6.88655196,0.909893322 8.54483952,0.467940139 C9.11401473,0.31626083 9.69097901,0.205676323 10.2744887,0.127853877 C10.9132747,0.0426524386 11.5547443,-0.00294338246 12.1981121,0.00866891106 C12.677173,0.0173363002 13.1581156,0.0337842606 13.634051,0.0862905676 C16.2049695,0.369888208 18.5429193,1.25682314 20.5628916,2.93955156 C21.6396494,3.83654267 22.5096694,4.90914044 23.1301118,6.18543858 C23.5047402,6.95611672 23.7642833,7.76614949 23.8843103,8.61797982 C23.9408956,9.01954096 23.9606956,9.4265234 23.9971537,9.83104618 C23.9897737,9.8318326 23.9823774,9.83261903 23.9749647,9.83340545 L23.9749647,9.83340545 Z" id="Fill-1"></path>
                </g>
            </g>
        </g>
    </g>
</svg>