<?xml version="1.0" encoding="UTF-8" standalone="no"?>
<svg width="22px" height="17px" viewBox="0 0 22 17" version="1.1" xmlns="http://www.w3.org/2000/svg" xmlns:xlink="http://www.w3.org/1999/xlink">
    <!-- Generator: Sketch 46.2 (44496) - http://www.bohemiancoding.com/sketch -->
    <title>medium-1</title>
    <desc>Created with Sketch.</desc>
    <defs></defs>
    <g id="design-1440" stroke="none" stroke-width="1" fill="none" fill-rule="evenodd">
        <g id="mm-landing-1440" transform="translate(-950.000000, -8111.000000)" fill-rule="nonzero" fill="white">
            <g id="medium-1" transform="translate(950.000000, 8111.000000)">
                <path d="M22,2.505287 L21.1298828,2.505287 C20.8068437,2.505287 20.35,2.96017605 20.35,3.25132853 L20.35,13.8057947 C20.35,14.0972827 20.8068437,14.494713 21.1298828,14.494713 L22,14.494713 L22,17 L14.1166953,17 L14.1166953,14.494713 L15.7666953,14.494713 L15.7666953,3.39996645 L15.6858281,3.39996645 L11.8327344,17 L8.84967187,17 L5.04625,3.39996645 L4.95,3.39996645 L4.95,14.494713 L6.6,14.494713 L6.6,17 L0,17 L0,14.494713 L0.845195312,14.494713 C1.19315625,14.494713 1.65,14.0972827 1.65,13.8057947 L1.65,3.25124465 C1.65,2.96009217 1.19315625,2.50520312 0.845195312,2.50520312 L0,2.50520312 L0,0 L8.25292187,0 L10.9625312,9.84206112 L11.0372969,9.84206112 L13.7717422,0 L22,0 L22,2.505287" id="Shape"></path>
            </g>
        </g>
    </g>
</svg>