<?xml version="1.0" encoding="UTF-8" standalone="no"?>
<svg width="26px" height="23px" viewBox="0 0 26 23" version="1.1" xmlns="http://www.w3.org/2000/svg" xmlns:xlink="http://www.w3.org/1999/xlink">
    <!-- Generator: Sketch 46.2 (44496) - http://www.bohemiancoding.com/sketch -->
    <title>Page 1 Copy 4</title>
    <desc>Created with Sketch.</desc>
    <defs>
        <polygon id="path-1" points="0 0 26 0 26 23 0 23"></polygon>
    </defs>
    <g id="design-1440" stroke="none" stroke-width="1" fill="none" fill-rule="evenodd">
        <g id="mm-landing-1440" transform="translate(-879.000000, -8106.000000)">
            <g id="Page-1-Copy-4" transform="translate(879.000000, 8106.000000)">
                <mask id="mask-2" fill="white">
                    <use xlink:href="#path-1"></use>
                </mask>
                <g id="Clip-2"></g>
                <path d="M16.952,15.14435 C16.0073333,15.14435 15.23925,14.33245 15.23925,13.33425 C15.23925,12.33605 16.0073333,11.523 16.952,11.523 C17.8955833,11.523 18.6636667,12.33605 18.6636667,13.33425 C18.6636667,14.33245 17.8955833,15.14435 16.952,15.14435 M17.1556667,18.7036 C16.2933333,19.61555 14.9380833,20.05945 13.0140833,20.05945 L13,20.056 L12.9848333,20.05945 C11.0608333,20.05945 9.70558333,19.61555 8.84325,18.7036 C8.68616667,18.538 8.68616667,18.26775 8.84325,18.10215 C9.00033333,17.9354 9.256,17.9354 9.41308333,18.10215 C10.1161667,18.8462 11.2861667,19.2073 12.9848333,19.2073 L13,19.21075 L13.0140833,19.2073 C14.7138333,19.2073 15.88275,18.84505 16.5858333,18.101 C16.744,17.93425 16.9996667,17.9354 17.1556667,18.101 C17.3138333,18.26775 17.3138333,18.53685 17.1556667,18.7036 M7.33958333,13.33425 C7.33958333,12.33605 8.10875,11.523 9.05341667,11.523 C9.99916667,11.523 10.76725,12.33605 10.76725,13.33425 C10.76725,14.33245 9.99916667,15.14435 9.05341667,15.14435 C8.10875,15.14435 7.33958333,14.33245 7.33958333,13.33425 M26,11.24585 C26,9.568 24.7075833,8.2041 23.1205,8.2041 C22.3459167,8.2041 21.645,8.533 21.1271667,9.062 C19.1674167,7.69235 16.5143333,6.82065 13.5763333,6.7091 L15.1818333,1.33975 L19.5335833,2.4219 L19.5270833,2.4886 C19.5270833,3.86055 20.5833333,4.97605 21.88225,4.97605 C23.1800833,4.97605 24.23525,3.86055 24.23525,2.4886 C24.23525,1.11665 23.179,0 21.88225,0 C20.8855833,0 20.03625,0.6601 19.69175,1.58585 L15.002,0.4186 C14.7983333,0.3657 14.58925,0.49105 14.5264167,0.70495 L12.7335,6.693 C9.66008333,6.7321 6.87483333,7.6107 4.82625,9.02175 C4.31275,8.51805 3.63133333,8.20295 2.87625,8.20295 C1.28916667,8.20295 0,9.568 0,11.24585 C0,12.36135 0.577416667,13.3285 1.42566667,13.8575 C1.37041667,14.1818 1.33358333,14.50955 1.33358333,14.84305 C1.33358333,19.3407 6.54225,23 12.9458333,23 C19.3494167,23 24.5580833,19.3407 24.5580833,14.84305 C24.5580833,14.52795 24.5266667,14.21745 24.4768333,13.91155 C25.3781667,13.3975 26,12.40275 26,11.24585" id="Fill-1" fill="white" mask="url(#mask-2)"></path>
            </g>
        </g>
    </g>
</svg>