<?xml version="1.0" encoding="UTF-8" standalone="no"?>
<svg width="24px" height="24px" viewBox="0 0 24 24" version="1.1" xmlns="http://www.w3.org/2000/svg" xmlns:xlink="http://www.w3.org/1999/xlink">
    <!-- Generator: Sketch 46.2 (44496) - http://www.bohemiancoding.com/sketch -->
    <title>Group</title>
    <desc>Created with Sketch.</desc>
    <defs></defs>
    <g id="design-1440" stroke="none" stroke-width="1" fill="none" fill-rule="evenodd">
        <g id="mm-landing-1440-copy" transform="translate(-443.000000, -744.000000)" fill-rule="nonzero" fill="#FFFFFF">
            <g id="if_social_slack_710268" transform="translate(443.000000, 744.000000)">
                <g id="Group">
                    <rect id="Rectangle-path" transform="translate(12.199971, 11.807520) rotate(-108.518296) translate(-12.199971, -11.807520) " x="10.6000081" y="10.1444012" width="3.1999248" height="3.32623762"></rect>
                    <path d="M22.9894737,8.58947368 C20.5473684,0.505263158 17.0526316,-1.38947368 8.92631579,1.01052632 C0.842105263,3.45263158 -1.05263158,6.94736842 1.34736842,15.0736842 C3.78947368,23.1578947 7.28421053,25.0526316 15.4105263,22.6526316 C23.5368421,20.2105263 25.4315789,16.6736842 22.9894737,8.58947368 Z M18.9052632,13.8526316 L17.3894737,14.3578947 L17.9368421,15.9578947 C18.1473684,16.5894737 17.8105263,17.3052632 17.1789474,17.5157895 C17.0526316,17.5578947 16.8842105,17.6 16.7578947,17.6 C16.2526316,17.6 15.7894737,17.2631579 15.6210526,16.7578947 L15.0315789,15.1578947 L11.8736842,16.2105263 L12.4210526,17.8105263 C12.6315789,18.4421053 12.2947368,19.1578947 11.6631579,19.3684211 C11.5368421,19.4105263 11.3684211,19.4526316 11.2421053,19.4526316 C10.7368421,19.4526316 10.2736842,19.1157895 10.1052632,18.6105263 L9.55789474,17.0105263 L8.04210526,17.5157895 C7.91578947,17.5578947 7.74736842,17.6 7.62105263,17.6 C7.11578947,17.6 6.65263158,17.2631579 6.48421053,16.7578947 C6.27368421,16.1263158 6.61052632,15.4105263 7.24210526,15.2 L8.75789474,14.6947368 L7.74736842,11.6631579 L6.23157895,12.1684211 C6.10526316,12.2105263 5.93684211,12.2526316 5.81052632,12.2526316 C5.30526316,12.2526316 4.84210526,11.9157895 4.67368421,11.4105263 C4.46315789,10.7789474 4.8,10.0631579 5.43157895,9.85263158 L6.94736842,9.34736842 L6.4,7.74736842 C6.18947368,7.11578947 6.52631579,6.4 7.15789474,6.18947368 C7.78947368,5.97894737 8.50526316,6.31578947 8.71578947,6.94736842 L9.26315789,8.54736842 L12.4210526,7.49473684 L11.9578947,5.89473684 C11.7473684,5.26315789 12.0842105,4.54736842 12.7157895,4.33684211 C13.3473684,4.12631579 14.0631579,4.46315789 14.2736842,5.09473684 L14.8210526,6.69473684 L16.3368421,6.18947368 C16.9684211,5.97894737 17.6842105,6.31578947 17.8947368,6.94736842 C18.1052632,7.57894737 17.7684211,8.29473684 17.1368421,8.50526316 L15.5789474,9.01052632 L16.5894737,12.0421053 L18.1052632,11.5368421 C18.7368421,11.3263158 19.4526316,11.6631579 19.6631579,12.2947368 C19.8736842,12.9263158 19.5368421,13.6421053 18.9052632,13.8526316 Z" id="Shape"></path>
                </g>
            </g>
        </g>
    </g>
</svg>