<?xml version="1.0" encoding="UTF-8" standalone="no"?>
<svg width="23px" height="24px" viewBox="0 0 23 24" version="1.1" xmlns="http://www.w3.org/2000/svg" xmlns:xlink="http://www.w3.org/1999/xlink">
    <!-- Generator: Sketch 46.2 (44496) - http://www.bohemiancoding.com/sketch -->
    <title>Group 9</title>
    <desc>Created with Sketch.</desc>
    <defs></defs>
    <g id="design-1440" stroke="none" stroke-width="1" fill="none" fill-rule="evenodd">
        <g id="mm-landing-1440-copy" transform="translate(-953.000000, -744.000000)" fill-rule="nonzero" fill="#FFFFFF">
            <g id="Group-9" transform="translate(953.000000, 744.000000)">
                <path d="M3.52325086,3.00411449 C3.26579582,2.88453394 3.99099702e-06,5.39676528 3.99099702e-06,7.24506462 C-0.00450288081,9.77133372 3.80943721,15.4945627 4.45166642,17.7083626 C5.00432155,19.6070937 3.51423713,21.885883 3.92379907,21.9893462 C4.29786943,22.2129098 7.85604456,18.8594553 7.99463085,17.4296879 C8.17321564,15.1529783 3.83985859,8.51417818 3.49451956,6.80001702 C3.09397135,4.79938245 3.81169065,3.04882722 3.52325086,3.00411449 L3.52325086,3.00411449 L3.52325086,3.00411449 Z" id="Shape"></path>
                <path d="M10.96422,0.00519229154 C10.6749916,-0.145725139 7.00000276,3.02508615 7.00000276,5.36301864 C6.99602711,8.55443296 11.2862475,15.7855928 12.0083244,18.5798832 C12.6295192,20.9785947 10.9542809,23.8578726 11.4124742,23.9866418 C11.8358807,24.2678735 15.8363757,20.0349744 15.9939108,18.2260255 C16.1956748,15.3508682 11.3190465,6.96490674 10.930924,4.79591936 C10.480682,2.2746196 11.2862475,0.061335637 10.96422,0.00519229154 L10.96422,0.00519229154 L10.96422,0.00519229154 Z" id="Shape"></path>
                <path d="M18.5230167,3.00411449 C18.267832,2.88453394 15.0000031,5.39676528 15.0000031,7.24506462 C14.9960599,9.77133372 18.8091841,15.4945627 19.4519341,17.7083626 C20.0039893,19.6070937 18.5145669,21.885883 18.9235383,21.9893462 C19.2998373,22.2129098 22.85834,18.8594553 22.9946639,17.4296879 C23.1726735,15.1529783 18.8401667,8.51417818 18.4942872,6.80001702 C18.0943289,4.79938245 18.8114374,3.04882722 18.5230167,3.00411449 L18.5230167,3.00411449 Z" id="Shape"></path>
            </g>
        </g>
    </g>
</svg>