<?xml version="1.0" encoding="UTF-8" standalone="no"?>
<svg width="24px" height="20px" viewBox="0 0 24 20" version="1.1" xmlns="http://www.w3.org/2000/svg" xmlns:xlink="http://www.w3.org/1999/xlink">
    <!-- Generator: Sketch 46.2 (44496) - http://www.bohemiancoding.com/sketch -->
    <title>telegram copy</title>
    <desc>Created with Sketch.</desc>
    <defs></defs>
    <g id="design-1440" stroke="none" stroke-width="1" fill="none" fill-rule="evenodd">
        <g id="mm-landing-1440" transform="translate(-674.000000, -8110.000000)" fill="white">
            <g id="telegram-copy" transform="translate(674.000000, 8110.000000)">
                <path d="M22.3797148,0.132299849 C22.5770594,0.0431257531 22.7731166,-0.000182157982 22.9570352,5.75819791e-07 C23.6776282,5.75819791e-07 24.2122795,0.664237947 23.9172741,1.84049543 L20.296653,18.7914311 C20.0439488,19.9958296 19.3112172,20.2840008 18.2963545,19.7275764 L12.781188,15.679109 L10.1305535,18.240306 C9.4329503,18.9103908 9.28710286,19.1205347 8.91503558,19.0697347 C8.52862264,19.0171074 8.43335282,18.5202542 8.186718,17.8439564 L6.31074849,11.7095826 L0.856091256,10.0180158 C-0.322091165,9.65949209 -0.33055142,8.8550979 1.12056617,8.27674541 L22.3797148,0.132299849 Z M20.3871409,3.28907113 C20.3358276,3.2894366 20.2839626,3.30368984 20.2376151,3.33237904 L7.86504441,10.9324606 C7.66071086,11.0589124 7.5422673,11.2783757 7.54061203,11.5077066 L7.54061203,11.5179397 C7.54116379,11.5859167 7.55183107,11.6544419 7.57371738,11.7216879 L9.28599935,17.0136588 C9.30255203,17.0637279 9.37575162,17.0566013 9.38200485,17.0041567 L9.79545382,13.4392029 C9.81844364,13.2420331 9.91389738,13.0603957 10.063791,12.9290101 L20.5802554,3.78994448 C20.6998025,3.68542075 20.7110215,3.50414882 20.6056362,3.38555458 C20.5499088,3.32305962 20.4721113,3.2899848 20.3930263,3.28907113 L20.3871409,3.28907113 Z" id="Combined-Shape"></path>
            </g>
        </g>
    </g>
</svg>