<?xml version="1.0" encoding="UTF-8" standalone="no"?>
<svg width="22px" height="18px" viewBox="0 0 22 18" version="1.1" xmlns="http://www.w3.org/2000/svg" xmlns:xlink="http://www.w3.org/1999/xlink">
    <!-- Generator: Sketch 46.2 (44496) - http://www.bohemiancoding.com/sketch -->
    <title>twitter</title>
    <desc>Created with Sketch.</desc>
    <defs></defs>
    <g id="design-1440" stroke="none" stroke-width="1" fill="none" fill-rule="evenodd">
        <g id="mm-landing-1440" transform="translate(-469.000000, -8110.000000)" fill-rule="nonzero" fill="white">
            <g id="twitter" transform="translate(469.000000, 8110.000000)">
                <path d="M22,2.1309475 C21.1905833,2.49271944 20.3206667,2.73636177 19.4076667,2.8461854 C20.3399167,2.28414685 21.0558334,1.3935603 21.39225,0.33223954 C20.5205,0.852748155 19.5543333,1.23113207 18.5258333,1.43509024 C17.7035834,0.551886793 16.5293333,0 15.2313333,0 C12.31725,0 10.1759167,2.73728466 10.8340833,5.57885563 C7.084,5.38966367 3.75833334,3.58080394 1.53175,0.831521739 C0.34925,2.87387203 0.918500001,5.54563167 2.92783334,6.89858491 C2.189,6.87458984 1.49233333,6.67063168 0.884583333,6.33008614 C0.835083334,8.43519279 2.33383333,10.404635 4.5045,10.8430066 C3.86925001,11.0165094 3.1735,11.0571165 2.46583333,10.9205291 C3.03966667,12.7256974 4.70616667,14.0389664 6.6825,14.0758819 C4.78500001,15.5737285 2.39433334,16.242822 0,15.9585726 C1.99741667,17.2478466 4.37066667,18 6.91900001,18 C15.2991667,18 20.03375,10.8743848 19.7477501,4.48338803 C20.6295834,3.84198113 21.3950001,3.04183757 22,2.1309475 Z" id="Shape"></path>
            </g>
        </g>
    </g>
</svg>