<?xml version="1.0" encoding="UTF-8" standalone="no"?>
<svg width="21px" height="21px" viewBox="0 0 21 21" version="1.1" xmlns="http://www.w3.org/2000/svg" xmlns:xlink="http://www.w3.org/1999/xlink">
    <!-- Generator: Sketch 46.2 (44496) - http://www.bohemiancoding.com/sketch -->
    <title>iconmonstr-whatsapp-1</title>
    <desc>Created with Sketch.</desc>
    <defs></defs>
    <g id="design-1440" stroke="none" stroke-width="1" fill="none" fill-rule="evenodd">
        <g id="mm-landing-1440-copy" transform="translate(-503.000000, -746.000000)" fill-rule="nonzero" fill="#FFFFFF">
            <g id="iconmonstr-whatsapp-1" transform="translate(503.000000, 746.000000)">
                <path d="M0,21 L1.48317002,15.607375 C0.567947737,14.028875 0.0870384303,12.2395 0.0879176064,10.404625 C0.0905551346,4.668125 4.78095944,0 10.5439585,0 C13.3406176,0.000875 15.9658373,1.085 17.9404668,3.052 C19.914217,5.019 21.0008786,7.6335 20.9999995,10.41425 C20.9973619,16.151625 16.3069576,20.81975 10.5439585,20.81975 C8.79439817,20.818875 7.07033391,20.38225 5.54320508,19.55275 L0,21 Z M5.79992449,17.668875 C7.27342358,18.5395 8.68010528,19.061 10.5404418,19.061875 C15.330193,19.061875 19.2319764,15.182125 19.2346139,10.4125 C19.2363723,5.63325 15.3530516,1.75875 10.5474752,1.757 C5.75420734,1.757 1.8550615,5.63675 1.85330314,10.4055 C1.85242397,12.352375 2.42564676,13.810125 3.38834455,15.33525 L2.51004766,18.52725 L5.79992449,17.668875 Z M15.8111023,12.887875 C15.7460433,12.779375 15.5719664,12.714625 15.309972,12.58425 C15.0488567,12.453875 13.7643805,11.82475 13.5243654,11.738125 C13.2852295,11.6515 13.1111526,11.60775 12.9361966,11.8685 C12.7621197,12.128375 12.2609894,12.714625 12.1088919,12.887875 C11.9567945,13.061125 11.8038178,13.083 11.5427025,12.952625 C11.2815873,12.82225 10.4393366,12.548375 9.44147175,11.662 C8.66515929,10.9725 8.14029118,10.121125 7.98819372,9.860375 C7.83609626,9.6005 7.97236855,9.459625 8.10248661,9.330125 C8.2202962,9.21375 8.3636019,9.0265 8.49459913,8.87425 C8.62735472,8.72375 8.67043434,8.61525 8.75835195,8.441125 C8.84539038,8.267875 8.80231075,8.115625 8.73637255,7.98525 C8.67043434,7.85575 8.14820376,6.575625 7.93104727,6.055 C7.71828667,5.548375 7.50288853,5.616625 7.34287849,5.60875 L6.84174813,5.6 C6.66767127,5.6 6.38457658,5.66475 6.14544069,5.9255 C5.9063048,6.18625 5.23109758,6.8145 5.23109758,8.094625 C5.23109758,9.37475 6.16742009,10.611125 6.29753815,10.784375 C6.42853538,10.957625 8.139412,13.584375 10.7602358,14.7105 C11.3835717,14.97825 11.8706352,15.138375 12.2495601,15.25825 C12.8755335,15.456 13.4452395,15.428 13.8953777,15.3615 C14.3973872,15.287125 15.4409692,14.732375 15.6590049,14.125125 C15.8770405,13.517 15.8770405,12.996375 15.8111023,12.887875 L15.8111023,12.887875 Z" id="Shape"></path>
            </g>
        </g>
    </g>
</svg>