<?xml version="1.0" encoding="UTF-8" standalone="no"?>
<svg width="19px" height="23px" viewBox="0 0 19 23" version="1.1" xmlns="http://www.w3.org/2000/svg" xmlns:xlink="http://www.w3.org/1999/xlink">
    <!-- Generator: Sketch 46.2 (44496) - http://www.bohemiancoding.com/sketch -->
    <title>iconmonstr-youtube-1</title>
    <desc>Created with Sketch.</desc>
    <defs></defs>
    <g id="design-1440" stroke="none" stroke-width="1" fill="none" fill-rule="evenodd">
        <g id="mm-landing-1440-copy" transform="translate(-840.000000, -745.000000)" fill-rule="nonzero" fill="#FFFFFF">
            <g id="iconmonstr-youtube-1" transform="translate(840.000000, 745.000000)">
                <path d="M2.5194,0 L3.8874,0 L4.826,3.54778696 L5.6962,0 L7.0775,0 L5.49575,5.27567995 L5.49575,8.87617579 L4.1363,8.87617579 L4.1363,5.27567995 L2.5194,0 Z M8.7837,2.27414869 C7.72065,2.27414869 7.01575,2.98332274 7.01575,4.03270867 L7.01575,7.24220044 C7.01575,8.39604579 7.6133,8.99692705 8.7837,8.99692705 C9.7546,8.99692705 10.5184,8.34237857 10.5184,7.24220044 L10.5184,4.03270867 C10.5184,3.00823967 9.76125,2.27414869 8.7837,2.27414869 Z M9.28815,7.18757487 C9.28815,7.54407858 9.10765,7.80666465 8.78275,7.80666465 C8.4493,7.80666465 8.25645,7.53162012 8.25645,7.18757487 L8.25645,4.14100147 C8.25645,3.78258107 8.41985,3.51711997 8.759,3.51711997 C9.1295,3.51711997 9.28815,3.77491432 9.28815,4.14100147 L9.28815,7.18757487 L9.28815,7.18757487 Z M13.7807,2.32877426 L13.7807,7.2987427 C13.63345,7.4846613 13.3057,7.78941447 13.07105,7.78941447 C12.8136,7.78941447 12.74995,7.61116262 12.74995,7.34857655 L12.74995,2.32877426 L11.54345,2.32877426 L11.54345,7.80091459 C11.54345,8.44779633 11.73915,8.97009344 12.3861,8.97009344 C12.7509,8.97009344 13.2582,8.77842478 13.7807,8.15262659 L13.7807,8.87521745 L14.9872,8.87521745 L14.9872,2.32877426 L13.7807,2.32877426 Z M15.87355,15.6094959 C15.44795,15.6094959 15.3596,15.9113741 15.3596,16.3407119 L15.3596,16.9722601 L16.37515,16.9722601 L16.37515,16.3397535 C16.3761,15.9180825 16.28775,15.6094959 15.87355,15.6094959 Z M11.4057,15.6478297 C11.3259,15.6890384 11.24705,15.7522891 11.1682,15.8375816 L11.1682,19.7236638 C11.26225,19.8252482 11.3525,19.8980823 11.44085,19.9431244 C11.628,20.0389587 11.9016,20.0456671 12.0289,19.8789154 C12.0954,19.7907478 12.12865,19.6479547 12.12865,19.4486193 L12.12865,16.2295441 C12.12865,16.0187085 12.0878,15.8596235 12.0061,15.7503724 C11.86645,15.5654121 11.6071,15.5452869 11.4057,15.6478297 L11.4057,15.6478297 Z M15.99135,10.6692361 C13.51755,10.4996094 5.47865,10.4996094 3.00865,10.6692361 C0.33535,10.8532381 0.01995,12.4824217 0,16.771008 C0.01995,21.0519276 0.3325,22.688778 3.00865,22.8727799 C5.47865,23.0424067 13.51755,23.0424067 15.99135,22.8727799 C18.66465,22.688778 18.98005,21.058636 19,16.771008 C18.98005,12.4900884 18.6675,10.8532381 15.99135,10.6692361 Z M4.28355,20.9100928 L2.9887,20.9100928 L2.9887,13.6841842 L1.6492,13.6841842 L1.6492,12.4575048 L5.6221,12.4575048 L5.6221,13.6841842 L4.2826,13.6841842 L4.2826,20.9100928 L4.28355,20.9100928 Z M8.88725,20.9100928 L7.73775,20.9100928 L7.73775,20.2220023 C7.5259,20.4759633 7.3055,20.6695486 7.07655,20.8018 C6.45715,21.1602204 5.6069,21.1515953 5.6069,19.8865822 L5.6069,14.6751112 L6.75545,14.6751112 L6.75545,19.4553277 C6.75545,19.7064136 6.8153,19.875082 7.06135,19.875082 C7.28555,19.875082 7.59715,19.584704 7.7368,19.4083688 L7.7368,14.6751112 L8.8863,14.6751112 L8.8863,20.9100928 L8.88725,20.9100928 Z M13.3114,19.618246 C13.3114,20.3897124 13.02545,20.9896353 12.2607,20.9896353 C11.83985,20.9896353 11.4893,20.8343837 11.16915,20.4309212 L11.16915,20.9100928 L10.0092,20.9100928 L10.0092,12.4575048 L11.16915,12.4575048 L11.16915,15.1791998 C11.4285,14.8600715 11.78095,14.596527 12.19135,14.596527 C13.03305,14.596527 13.31235,15.3143262 13.31235,16.159585 L13.31235,19.618246 L13.3114,19.618246 Z M17.55885,17.9392285 L15.36055,17.9392285 L15.36055,19.1160741 C15.36055,19.5837457 15.40045,19.9881665 15.86215,19.9881665 C16.3476,19.9881665 16.3761,19.6584964 16.3761,19.1160741 L16.3761,18.6829029 L17.55885,18.6829029 L17.55885,19.1515328 C17.55885,20.352337 17.04775,21.0806779 15.8365,21.0806779 C14.73925,21.0806779 14.1778,20.2737529 14.1778,19.1515328 L14.1778,16.352212 C14.1778,15.2702424 14.8865,14.5179429 15.92295,14.5179429 C17.0259,14.5179429 17.5579,15.2252003 17.5579,16.352212 L17.5579,17.9392285 L17.55885,17.9392285 Z" id="Shape"></path>
            </g>
        </g>
    </g>
</svg>