<?xml version="1.0" encoding="UTF-8"?>
<svg width="16px" height="22px" viewBox="0 0 16 22" version="1.1" xmlns="http://www.w3.org/2000/svg" xmlns:xlink="http://www.w3.org/1999/xlink">
    <!-- Generator: Sketch 47 (45396) - http://www.bohemiancoding.com/sketch -->
    <title>Ico / Bitcoin / 24</title>
    <desc>Created with Sketch.</desc>
    <defs></defs>
    <g id="Page-1" stroke="none" stroke-width="1" fill="none" fill-rule="evenodd">
        <g id="mm-landing-1440-edits-copy" transform="translate(-675.000000, -627.000000)" fill="#FFFFFF">
            <g id="Group" transform="translate(338.000000, 405.000000)">
                <g id="Ico-/-Bitcoin-/-24" transform="translate(333.000000, 221.000000)">
                    <g id="bitcoin-logo">
                        <path d="M19.2704021,12.5414957 C18.7594346,11.8806255 17.9884194,11.4266576 16.9567478,11.1802004 C18.2697659,10.5099994 18.8472667,9.37284823 18.6888444,7.76834137 C18.6356989,7.1867837 18.4748426,6.68271296 18.2062753,6.25491208 C17.9368967,5.82792259 17.5740063,5.48389684 17.1151701,5.22405193 C16.6571452,4.96420701 16.1587542,4.76602709 15.6216196,4.62890362 C15.0836737,4.49279438 14.4664153,4.39360299 13.7698443,4.331938 L13.7698443,1 L11.734291,1 L11.734291,4.23923767 C11.3817458,4.23923767 10.8444084,4.24796002 10.1210618,4.26520188 L10.1210618,1 L8.08550854,1 L8.08550854,4.331938 C7.79462829,4.34066035 7.36682741,4.3453258 6.80251159,4.3453258 L4,4.331938 L4,6.49974644 L5.46738339,6.49974644 C6.13697594,6.49974644 6.52927888,6.80016043 6.64408936,7.3991628 L6.64408936,11.1937911 C6.73212425,11.1937911 6.80251159,11.1976451 6.85565708,11.2071789 L6.64408936,11.2071789 L6.64408936,16.5215247 C6.57370202,16.9708271 6.31852255,17.1959855 5.87713103,17.1959855 L4.40974764,17.1959855 L4,19.6149165 L6.64408936,19.6149165 C6.81204533,19.6149165 7.053837,19.6173507 7.37149285,19.6214076 C7.68854016,19.626073 7.92688347,19.6285072 8.08550854,19.6285072 L8.08550854,23 L10.1218732,23 L10.1218732,19.668062 C10.4918631,19.6767843 11.029809,19.6814498 11.734291,19.6814498 L11.734291,23 L13.7706557,23 L13.7706557,19.6285072 C14.4931908,19.5928064 15.1343851,19.5270845 15.6944411,19.4303272 C16.2538886,19.3329615 16.7896033,19.1808274 17.3005707,18.9739252 C17.8117411,18.7664143 18.2387306,18.5088007 18.5827563,18.1998672 C18.9265792,17.8915423 19.2109684,17.4994422 19.4361268,17.0231613 C19.6602709,16.5468803 19.8036826,15.9961552 19.864739,15.3703772 C19.9803609,14.1460026 19.7815724,13.2023659 19.2704021,12.5414957 Z M10.1606166,6.64478088 C10.2224845,6.64478088 10.3967287,6.64315812 10.6827406,6.63849267 C10.969564,6.63362439 11.2072987,6.62977032 11.3975677,6.62490203 C11.5868224,6.62104797 11.8420019,6.63200162 12.1637147,6.65816868 C12.4862388,6.68433573 12.7572402,6.72003651 12.9775303,6.76364827 C13.1978203,6.8080714 13.4402205,6.88089289 13.7041224,6.98231557 C13.9688356,7.08373826 14.1804033,7.2064597 14.3388255,7.35230552 C14.4972478,7.49733996 14.6319371,7.68274063 14.7420821,7.90769614 C14.8522271,8.13204311 14.9076039,8.39026527 14.9076039,8.68114552 C14.9076039,8.92760264 14.8680491,9.15255816 14.7889394,9.35540352 C14.7096269,9.55824889 14.5899481,9.72782762 14.4315259,9.86413971 C14.2731036,10.0012632 14.1098131,10.1201306 13.9426685,10.2215532 C13.7747126,10.3229759 13.5607107,10.4045198 13.3014743,10.4663876 C13.040818,10.5274441 12.8142397,10.5765326 12.6201167,10.611422 C12.4268051,10.64692 12.1844049,10.6708557 11.8935246,10.6842435 C11.6020358,10.6968199 11.3817458,10.7063537 11.231843,10.7104106 C11.0821432,10.715076 10.877675,10.715076 10.6170187,10.7104106 C10.3571738,10.7063537 10.2050398,10.7041224 10.161428,10.7041224 L10.161428,6.64478088 L10.1606166,6.64478088 Z M15.7206082,15.6484782 C15.6366302,15.8513236 15.5289193,16.0280019 15.3966641,16.1777018 C15.2642061,16.3274016 15.0899619,16.4598597 14.8743373,16.5738588 C14.6581041,16.6888721 14.4489706,16.7815724 14.2461252,16.8519598 C14.0440912,16.92255 13.7992568,16.9836064 13.513042,17.036549 C13.2262187,17.0896945 12.9750961,17.1270181 12.758863,17.1491282 C12.5432383,17.1712384 12.2850162,17.1886831 11.9854136,17.2022737 C11.6860138,17.2148501 11.4521331,17.2219497 11.2849885,17.2219497 C11.1170326,17.2219497 10.9054648,17.2197184 10.6502854,17.2148501 C10.3942945,17.2109961 10.2312068,17.2085619 10.1606166,17.2085619 L10.1606166,12.7396756 C10.2312068,12.7396756 10.4403404,12.7356187 10.7890316,12.726085 C11.1369114,12.7173626 11.4213006,12.7135086 11.6415907,12.7135086 C11.8618807,12.7135086 12.1661488,12.726085 12.5543948,12.7530634 C12.9418295,12.7792305 13.2675991,12.8187853 13.5321095,12.8719308 C13.7968227,12.9250763 14.0852688,13.0066201 14.3982592,13.1167652 C14.7112496,13.2269102 14.9648063,13.3607881 15.1589293,13.5200218 C15.3530524,13.6786468 15.5155315,13.8814922 15.6477867,14.1279493 C15.7800419,14.375015 15.8465751,14.6571729 15.8465751,14.9740174 C15.8465751,15.2212859 15.8045861,15.4456328 15.7206082,15.6484782 Z"></path>
                    </g>
                </g>
            </g>
        </g>
    </g>
</svg>