
<svg width="16px" height="16px" viewBox="0 0 16 16" version="1.1" xmlns="http://www.w3.org/2000/svg" xmlns:xlink="http://www.w3.org/1999/xlink">
    <!-- Generator: Sketch 47 (45396) - http://www.bohemiancoding.com/sketch -->
    <desc>Created with Sketch.</desc>
    <defs>
        <polygon id="path-1" points="8.95341149e-19 0 8.95341149e-19 4.97776848 10.7589677 4.97776848 10.7589677 0"></polygon>
    </defs>
    <g id="Page-1" stroke="none" stroke-width="1" fill="none" fill-rule="evenodd">
        <g id="Artboard-2-Copy" transform="translate(-315.000000, -409.000000)">
            <g id="cute-rocket-launching" transform="translate(315.000000, 409.000000)">
                <path d="M1.48083871,8.73258065 C2.70393548,6.97225806 3.42316129,5.83819355 3.9476129,5 C1.932,5.17812903 0,7.68619355 0,7.68619355 L1.3303871,9.01664516 C1.36896774,8.91832258 1.4183871,8.82283871 1.48083871,8.73258065 Z" id="Fill-1" fill="#FFFFFF"></path>
                <g id="Group-5" transform="translate(0.000000, 10.967742)">
                    <mask id="mask-2" fill="white">
                        <use xlink:href="#path-1"></use>
                    </mask>
                    <g id="Clip-3"></g>
                    <path d="M7,3.61793548 L8.32967742,4.9476129 C8.32967742,4.9476129 10.8374839,3.0156129 11.015871,1 C10.1779355,1.52445161 9.04412903,2.24341935 7.28329032,3.46670968 C7.19406452,3.52845161 7.09903226,3.57916129 7,3.61793548 Z" id="Fill-2" fill="#FFFFFF" mask="url(#mask-2)"></path>
                    <path d="M4.72502223,2.89090323 C4.49669965,2.98316129 4.27244159,3.08090323 4.03857062,3.15929032 C3.41405449,3.36793548 2.77063513,3.50909677 2.11844159,3.59903226 C1.84502223,3.63683871 1.5692803,3.66883871 1.29282868,3.68980645 C1.29534481,3.65548387 1.29786094,3.62148387 1.3008932,3.58748387 C1.35786094,2.92290323 1.4588932,2.2616129 1.62244159,1.61445161 C1.70108675,1.30219355 1.80140933,0.998774194 1.9092803,0.695548387 C1.97631255,0.507096774 2.05998997,0.326645161 2.14437707,0.146193548 L1.99824804,0 C1.6728932,0.218516129 1.38986094,0.494709677 1.14966739,0.807225806 C0.794312553,1.26967742 0.527989973,1.79387097 0.341731908,2.34606452 C0.141602876,2.93903226 0.0221835209,3.56703226 0.00353835962,4.19303226 C0.00102223059,4.28103226 -0.00504228554,4.37096774 0.00857061769,4.45819355 C0.0261835209,4.57083871 0.0756028758,4.67767742 0.149925456,4.76412903 C0.22353836,4.84954839 0.320570618,4.91406452 0.427925456,4.94883871 C0.51786094,4.97780645 0.608635134,4.97832258 0.702119005,4.9776129 C1.27037707,4.97277419 1.84753836,4.87425806 2.39160288,4.71245161 C3.38657062,4.41683871 4.39108675,3.86064516 4.98005449,2.98187097 L4.83766739,2.83948387 C4.80037707,2.85709677 4.76282868,2.87425806 4.72502223,2.89090323 Z" id="Fill-4" fill="#FFFFFF" mask="url(#mask-2)"></path>
                </g>
                <path d="M15.7764168,0.161548387 L15.7764168,0.161548387 C15.6728039,0.058 15.5324813,0 15.3862878,0 C15.3827394,0 15.3792555,0 15.3754491,0 C13.5995136,0.0350322581 9.21770712,0.367225806 6.89054582,2.69432258 C5.83435228,3.75051613 5.49112647,4.3003871 4.73861034,5.50554839 C4.19648131,6.37322581 3.45454582,7.56148387 2.09873937,9.51335484 C1.94628776,9.73264516 1.97273937,10.0294839 2.16170712,10.2182581 L5.71919099,13.7759355 C5.8260297,13.8825806 5.96744905,13.9374839 6.10957808,13.9374839 C6.21893292,13.9374839 6.32880389,13.9052258 6.42435228,13.8389677 C8.37667486,12.4826452 9.56473937,11.7409677 10.4319007,11.1990968 C11.6368039,10.4468387 12.1869329,10.1033548 13.2433845,9.04690323 C15.5745458,6.71548387 15.9044168,2.33670968 15.9379652,0.562258065 C15.9407394,0.412322581 15.8824813,0.267677419 15.7764168,0.161548387 Z M11.6569329,6.87425806 C10.9407394,7.59045161 9.77970712,7.59045161 9.06344905,6.87425806 C8.34699744,6.158 8.34719099,4.99696774 9.06344905,4.28077419 C9.77970712,3.56451613 10.9407394,3.56451613 11.6569329,4.28051613 C12.3729329,4.99670968 12.373191,6.158 11.6569329,6.87425806 Z" id="Fill-6" fill="#FFFFFF"></path>
            </g>
        </g>
    </g>
</svg>
