
<svg width="10px" height="20px" viewBox="0 0 10 20" version="1.1" xmlns="http://www.w3.org/2000/svg" xmlns:xlink="http://www.w3.org/1999/xlink">
    <!-- Generator: Sketch 47 (45396) - http://www.bohemiancoding.com/sketch -->
    <desc>Created with Sketch.</desc>
    <defs></defs>
    <g id="Page-1" stroke="none" stroke-width="1" fill="none" fill-rule="evenodd">
        <g id="mm-landing-1440-edits-copy" transform="translate(-498.000000, -628.000000)">
            <g id="Group" transform="translate(338.000000, 405.000000)">
                <g id="Ico-/-Bitcoin-/-Fiat" transform="translate(153.000000, 221.000000)">
                    <g id="Ico-/-Bitcoin-/-24" stroke-width="1"></g>
                    <path d="M14.6840743,11.0852601 C13.9267375,10.6514354 13.1215689,10.3210325 12.3243723,9.97818603 C11.8619484,9.77991336 11.4195541,9.54854361 11.0289277,9.22645378 C10.2595832,8.59032895 10.4071144,7.55765877 11.3078469,7.14861812 C11.5629997,7.03306232 11.8300107,6.9957313 12.1011572,6.97936348 C13.1455346,6.92148231 14.1379448,7.11975499 15.0826727,7.59070422 C15.5530685,7.82610139 15.7083724,7.75164587 15.8677619,7.24362377 C16.0353725,6.70668692 16.1747324,6.1613338 16.3302356,5.62036952 C16.4339708,5.25671472 16.3062698,5.01729014 15.9754332,4.86445496 C15.369514,4.58769935 14.7478999,4.38942667 14.0941488,4.28192571 C13.2410986,4.14561325 13.2410986,4.14158583 13.2372123,3.25348948 C13.2331266,2.00178996 13.2331266,2.00178996 12.0213379,2.00178996 C11.8460045,2.00178996 11.6706212,1.99776255 11.4952878,2.00178996 C10.9292782,2.01831268 10.8335149,2.1215797 10.817571,2.71237031 C10.809599,2.97657897 10.817571,3.24099417 10.8136846,3.50943678 C10.809599,4.29442102 10.8057127,4.28192571 10.0803136,4.5546539 C8.32633148,5.21556282 7.2422437,6.45476703 7.12665018,8.43744213 C7.02291497,10.1929814 7.90790289,11.3785384 9.29891138,12.2417474 C10.1560472,12.7746569 11.1046614,13.0884853 12.0133659,13.5057874 C12.3681683,13.6669355 12.7070267,13.8527129 13.0018898,14.1088667 C13.8747703,14.8565199 13.7153808,16.0997516 12.6789753,16.5707008 C12.1250731,16.8226207 11.5390838,16.8847358 10.9372501,16.806098 C10.008516,16.6864631 9.11964178,16.4343883 8.28253549,15.9841958 C7.79225955,15.7197806 7.64881398,15.7899505 7.48145251,16.3393827 C7.33780764,16.8143593 7.21035583,17.2935699 7.08285419,17.7728322 C6.91140709,18.4172183 6.97523265,18.5698986 7.56904449,18.8714383 C8.32633148,19.2516158 9.13558572,19.4456546 9.96063442,19.5820187 C10.6064135,19.6893131 10.6262438,19.7183311 10.6342158,20.4121822 C10.6383014,20.7262172 10.6383014,21.0442796 10.6422375,21.3581081 C10.6463232,21.7546534 10.8296286,21.9859716 11.2241413,21.9942329 C11.6706212,22.0024943 12.1209875,22.0024943 12.5674674,21.9902055 C12.9341779,21.9819442 13.1215689,21.7754101 13.1215689,21.3912052 C13.1215689,20.9615628 13.141449,20.5279445 13.1254553,20.0983538 C13.105625,19.66045 13.2889802,19.4373932 13.6955505,19.3218374 C14.6323064,19.0573706 15.429503,18.5370081 16.0433444,17.7602852 C17.7492456,15.6124861 17.0995802,12.4688832 14.6840743,11.0852601 Z" id="Fill-1" fill="#FFFFFF"></path>
                </g>
            </g>
        </g>
    </g>
</svg>
