<?xml version="1.0" encoding="UTF-8" standalone="no"?>
<svg width="23px" height="24px" viewBox="0 0 23 24" version="1.1" xmlns="http://www.w3.org/2000/svg" xmlns:xlink="http://www.w3.org/1999/xlink">
    <!-- Generator: Sketch 46.2 (44496) - http://www.bohemiancoding.com/sketch -->
    <title>bitcointalk</title>
    <desc>Created with Sketch.</desc>
    <defs>
        <polygon id="path-1" points="8.84615385e-05 0.331471698 22.6762308 0.331471698 22.6762308 23.5471698 8.84615385e-05 23.5471698"></polygon>
    </defs>
    <g id="design-1440" stroke="none" stroke-width="1" fill="none" fill-rule="evenodd">
        <g id="mm-landing-1440" transform="translate(-812.000000, -8108.000000)">
            <g id="bitcointalk" transform="translate(812.000000, 8108.000000)">
                <g id="Page-1">
                    <path d="M12.5840519,13.1270943 C11.915725,12.7743396 11.1845904,12.6262642 10.4636288,12.4464906 C10.3826865,12.426566 10.3583596,12.4609811 10.3415519,12.533434 C10.2933404,12.7426415 10.2389365,12.9504906 10.1880712,13.1592453 C10.0345904,13.7855094 9.88066731,14.4117736 9.72851346,15.0380377 C9.68649423,15.2119245 9.68959038,15.2227925 9.82139808,15.2594717 C10.4738019,15.4396981 11.1288596,15.6086038 11.8750327,15.6434717 C12.0802635,15.6611321 12.3500712,15.6398491 12.6136865,15.5737358 C13.0537827,15.4641509 13.3735712,15.2114717 13.4987442,14.7482264 C13.6274558,14.2727547 13.5036096,13.8683774 13.1572827,13.5310189 C12.9874365,13.3648302 12.7919365,13.2366792 12.5840519,13.1270943" id="Fill-1" fill="#202020"></path>
                    <g id="Group-5" transform="translate(0.000000, 0.121313)">
                        <mask id="mask-2" fill="white">
                            <use xlink:href="#path-1"></use>
                        </mask>
                        <g id="Clip-4"></g>
                        <path d="M16.2907231,10.8066113 C16.16555,11.3432151 15.9129923,11.7951396 15.4472423,12.0989887 C15.2513,12.2266868 15.0341269,12.3072906 14.8112038,12.3747623 C14.8311077,12.455366 14.90055,12.4626113 14.9492038,12.4924981 C15.2283,12.6650264 15.4817423,12.8678943 15.6905115,13.1269132 C16.0545308,13.5788377 16.1527231,14.1063849 16.08505,14.6692528 C16.0085308,15.3068377 15.7971077,15.8973283 15.4105308,16.4099321 C15.0230692,16.9234415 14.4962808,17.1992151 13.8797038,17.3042717 C13.1879346,17.4215547 12.4997038,17.3531774 11.8132423,17.2399698 C11.7690115,17.2327245 11.7252231,17.2200453 11.68055,17.2146113 C11.5222038,17.1951396 11.5177808,17.1955925 11.4797423,17.3522717 C11.3399731,17.9196679 11.2033,18.4879698 11.0653,19.0558189 C11.0069154,19.2976302 11.0064731,19.2985358 10.7760308,19.2392151 C10.5133,19.1721962 10.2514538,19.103366 9.98916538,19.0349887 C9.76093462,18.9747623 9.76137692,18.9747623 9.82064615,18.7315925 C9.95555,18.1786868 10.0869154,17.6253283 10.2271269,17.0737811 C10.2788769,16.8718189 10.2523385,16.898083 10.1072615,16.8546113 C9.89053077,16.7898566 9.67114615,16.7368755 9.45264615,16.6807245 C9.28501154,16.6372528 9.28058846,16.6372528 9.23812692,16.8084226 C9.10897308,17.3305358 8.98689615,17.8549132 8.85464615,18.3765736 C8.75689615,18.7637434 8.83651154,18.7365736 8.43622308,18.6414792 C8.2018,18.5857811 7.96958846,18.5214792 7.73605,18.4612528 C7.53303077,18.4087245 7.53214615,18.4087245 7.5808,18.2072151 C7.73206923,17.5791396 7.88422308,16.9519698 8.03505,16.3257057 C7.98241538,16.2672906 7.91341538,16.2600453 7.84972308,16.2432906 C7.17874231,16.0703094 6.50820385,15.898234 5.83766538,15.7257057 C5.79387692,15.7148377 5.75053077,15.7012528 5.70718462,15.6890264 C5.54662692,15.6451019 5.54485769,15.6446491 5.60722308,15.4952151 C5.74035769,15.1768755 5.87349231,14.858083 6.01237692,14.5420075 C6.06103077,14.431517 6.07120385,14.2748377 6.17647308,14.2254792 C6.28085769,14.1761208 6.40514615,14.266234 6.52147308,14.2924981 C6.67539615,14.3278189 6.82887692,14.3658566 6.9828,14.4011774 C7.38928077,14.495366 7.56974231,14.3821585 7.67191538,13.9637434 C7.87228077,13.1418566 8.06999231,12.319517 8.26991538,11.4971774 C8.50433846,10.5335547 8.74097308,9.57083774 8.97406923,8.60721509 C9.00149231,8.49581887 9.04085769,8.38668679 9.02493462,8.26713962 C8.98601154,7.97596981 8.82324231,7.79257358 8.55962692,7.69793208 C8.31812692,7.61098868 8.06778077,7.55664906 7.81876154,7.49642264 C7.73251154,7.47559245 7.64670385,7.45113962 7.54497308,7.42396981 C7.64891538,7.00147925 7.7533,6.59257358 7.84795385,6.1818566 C7.87537692,6.06230943 7.94083846,6.08902642 8.01470385,6.10804528 C8.53176154,6.24117736 9.04926154,6.37476226 9.56720385,6.50653585 C9.82949231,6.57310189 10.0922231,6.63695094 10.3646846,6.70396981 C10.4624346,6.44449811 10.5053385,6.17913962 10.5712423,5.92057358 C10.6681077,5.54064906 10.7556846,5.15800755 10.8498962,4.77808302 C10.8879346,4.62412075 10.8910308,4.62321509 11.04805,4.66215849 C11.3404154,4.73506415 11.6323385,4.80842264 11.9238192,4.88404528 C12.1281654,4.93702642 12.1281654,4.93883774 12.0799538,5.13898868 C11.9481462,5.68464906 11.8158962,6.23030943 11.6836462,6.77596981 C11.6336654,6.98381887 11.6341077,6.98472453 11.8380115,7.03363019 C12.0578385,7.08661132 12.2794346,7.13098868 12.4961654,7.19347925 C12.6093962,7.22698868 12.6368192,7.18804528 12.6611462,7.08434717 C12.7898577,6.53778113 12.9256462,5.99347925 13.0596654,5.4482717 C13.0795692,5.36721509 13.1030115,5.28751698 13.1286654,5.19378113 C13.5099346,5.2893283 13.8810308,5.38351698 14.2530115,5.47498868 C14.3529731,5.49898868 14.3543,5.55468679 14.3321846,5.64434717 C14.18755,6.22623396 14.0486654,6.80993208 13.9075692,7.39272453 C13.8982808,7.43030943 13.8872231,7.46698868 13.8779346,7.50412075 C13.8620115,7.56706415 13.8863385,7.6082717 13.9447231,7.63000755 C14.0362808,7.6653283 14.1278385,7.6997434 14.2189538,7.73551698 C14.6776269,7.9157434 15.1137423,8.13717736 15.5051846,8.44600755 C16.2774538,9.05596981 16.5136462,9.85204528 16.2907231,10.8066113 M11.3382038,0.331290566 C5.07645385,0.331290566 8.84615385e-05,5.52842264 8.84615385e-05,11.9391396 C8.84615385e-05,18.3503094 5.07645385,23.5474415 11.3382038,23.5474415 C17.5999538,23.5474415 22.6763192,18.3503094 22.6763192,11.9391396 C22.6763192,5.52842264 17.5999538,0.331290566 11.3382038,0.331290566" id="Fill-3" fill="#202020" mask="url(#mask-2)"></path>
                    </g>
                    <path d="M12.9283,9.08875472 C12.4528192,8.86958491 11.9446077,8.76362264 11.4421462,8.63864151 C11.3262615,8.60966038 11.2807038,8.65630189 11.25505,8.76679245 C11.1670308,9.14807547 11.0728192,9.528 10.9799346,9.90837736 C10.8923577,10.2661132 10.8030115,10.6233962 10.7172038,10.9815849 C10.6981846,11.0621887 10.6698769,11.1464151 10.7946077,11.1790189 C11.3696077,11.3298113 11.9441654,11.4796981 12.5766654,11.4928302 C12.7827808,11.4792453 13.0211846,11.4588679 13.2489731,11.3673962 C13.9323385,11.0929811 14.1539346,10.1986415 13.6793385,9.62535849 C13.4754346,9.37856604 13.2118192,9.21916981 12.9283,9.08875472" id="Fill-6" fill="#202020"></path>
                </g>
            </g>
        </g>
    </g>
</svg>