<?xml version="1.0" encoding="UTF-8" standalone="no"?>
<svg width="19px" height="18px" viewBox="0 0 19 18" version="1.1" xmlns="http://www.w3.org/2000/svg" xmlns:xlink="http://www.w3.org/1999/xlink">
    <!-- Generator: Sketch 46.2 (44496) - http://www.bohemiancoding.com/sketch -->
    <title>iconmonstr-linkedin-1</title>
    <desc>Created with Sketch.</desc>
    <defs></defs>
    <g id="design-1440" stroke="none" stroke-width="1" fill="none" fill-rule="evenodd">
        <g id="mm-landing-1440-copy" transform="translate(-581.000000, -8338.000000)" fill-rule="nonzero" fill="#202020">
            <g id="iconmonstr-linkedin-1" transform="translate(581.000000, 8338.000000)">
                <path d="M4.31818182,2.14285714 C4.31818182,3.32657143 3.35181452,4.28571429 2.15909091,4.28571429 C0.966367302,4.28571429 0,3.32657143 0,2.14285714 C0,0.96 0.966367302,0 2.15909091,0 C3.35181452,0 4.31818182,0.96 4.31818182,2.14285714 Z M4.31818182,5.14285714 L0,5.14285714 L0,18 L4.31818182,18 L4.31818182,5.14285714 Z M10.0713636,5.52725718 L6.04545455,5.52725718 L6.04545455,18 L10.0721739,18 L10.0721739,11.4525896 C10.0721739,7.81210776 14.9578836,7.51432102 14.9578836,11.4525896 L14.9578836,18 L19,18 L19,10.1024152 C19,3.95958932 11.7698952,4.18331914 10.0713636,7.20717973 L10.0713636,5.52725718 Z" id="Shape"></path>
            </g>
        </g>
    </g>
</svg>