<?xml version="1.0" encoding="UTF-8" standalone="no"?>
<svg width="28px" height="23px" viewBox="0 0 28 23" version="1.1" xmlns="http://www.w3.org/2000/svg" xmlns:xlink="http://www.w3.org/1999/xlink">
    <!-- Generator: Sketch 46.2 (44496) - http://www.bohemiancoding.com/sketch -->
    <title>wechat</title>
    <desc>Created with Sketch.</desc>
    <defs></defs>
    <g id="design-1440" stroke="none" stroke-width="1" fill="none" fill-rule="evenodd">
        <g id="mm-landing-1440" transform="translate(-1017.000000, -8109.000000)" fill="#202020">
            <g id="wechat" transform="translate(1017.000000, 8109.000000)">
                <g id="Page-1">
                    <path d="M6.70447133,4.42219217 C5.97257262,4.41094532 5.36312593,5.02992965 5.36141777,5.77561938 C5.35981008,6.5015337 5.9430314,7.13611411 6.69958129,7.13574034 C7.44012131,7.13540056 8.03834769,6.52786695 8.03834769,5.7765368 C8.03834769,5.02935201 7.44122659,4.42307561 6.70447133,4.42219217 M13.43039,4.42219217 C12.7417984,4.41210059 12.0980879,4.98273366 12.0935663,5.77378455 C12.0893126,6.52416331 12.6911228,7.13512873 13.4299211,7.13577432 C14.1695568,7.13645389 14.7737785,6.52820674 14.7710321,5.77833766 C14.7681181,4.98055905 14.1199196,4.41023178 13.43039,4.42219217 M20.0392157,7.17838322 C19.9670038,7.17838322 19.9030648,7.17998021 19.8392263,7.1781114 C18.2587378,7.13275024 16.73559,7.40464532 15.2788932,8.03436681 C14.2387543,8.48400284 13.3009379,9.09479838 12.4881525,9.895703 C11.6649172,10.706971 11.0357094,11.6480705 10.6516736,12.7505673 C10.4787469,13.2469916 10.3669458,13.7571771 10.3163372,14.2814976 C10.2295557,15.1810075 10.3248445,16.0601304 10.595706,16.9203953 C10.6044813,16.9482915 10.6120173,16.9765955 10.6215964,17.0098604 C10.5977156,17.0126806 10.5799641,17.0161124 10.5621456,17.01669 C9.97242654,17.0363975 9.38404723,17.0203597 8.79684019,16.956922 C8.0867792,16.8801988 7.3890773,16.7420767 6.7046053,16.5360317 C6.46479225,16.4638616 6.23974981,16.4925054 6.02445396,16.6202642 C5.3193835,17.038674 4.61377714,17.4560986 3.90840524,17.8739308 C3.8156284,17.9288739 3.72107641,17.9802152 3.61413185,18.0005003 C3.57494452,18.0079076 3.53448444,18.0129364 3.49479471,18.0119171 C3.37964426,18.008927 3.29828868,17.9464067 3.26057507,17.8347877 C3.22373228,17.7255812 3.22942616,17.6137243 3.25575201,17.5048575 C3.31054728,17.2781198 3.37086897,17.0528091 3.43021935,16.8272265 C3.53307772,16.4363391 3.63747678,16.0458935 3.74023466,15.6550061 C3.81596333,15.3668353 3.73229671,15.1323844 3.49137838,14.9559007 C2.65668829,14.3444936 1.9318567,13.6222149 1.34404678,12.7623578 C0.766351879,11.9173832 0.359674497,10.9960592 0.151043842,9.98792035 C0.0271850911,9.38942499 -0.0217823222,8.78450772 0.00889767133,8.17310058 C0.0915929815,6.52589621 0.681646962,5.07851874 1.68825889,3.7974655 C2.42725821,2.85704561 3.32769593,2.10700664 4.35256178,1.50823945 C5.38462872,0.905258951 6.48823766,0.494154415 7.65354152,0.249408074 C8.62391355,0.0456056932 9.60466854,-0.0312534242 10.5934285,0.0113554764 C12.1831277,0.0798559099 13.7028592,0.444104247 15.1390915,1.14721906 C16.1562874,1.64517236 17.0731034,2.28858715 17.8686731,3.10447624 C18.717129,3.97452689 19.3646912,4.97508853 19.7663781,6.1336157 C19.8748969,6.44659064 19.9600707,6.76619138 20.0258183,7.0911607 C20.0311773,7.11759588 20.0340912,7.14454075 20.0392157,7.17838322" id="Fill-1"></path>
                    <g id="Group-5" transform="translate(10.980392, 7.759036)">
                        <path d="M5.68669085,6.08061011 C6.3237588,6.07988599 6.83482074,5.55576235 6.83353496,4.9045732 C6.83221535,4.25979767 6.31851419,3.73843258 5.68479602,3.73870843 C5.04837097,3.73901877 4.53639545,4.26400446 4.53798575,4.91474534 C4.53957605,5.56000361 5.05320954,6.08133423 5.68669085,6.08061011 M11.3006576,6.08061011 C11.9335975,6.08150664 12.4486183,5.56027947 12.4516297,4.91574531 C12.4546411,4.26745264 11.9398572,3.73922566 11.3045826,3.73870843 C10.670323,3.7381912 10.1574001,4.25800462 10.1552007,4.90350427 C10.1530352,5.55486582 10.6637588,6.0796791 11.3006576,6.08061011 M8.51272399,0.0123962138 C9.96707147,0.0168788502 11.3598371,0.309939827 12.6789751,0.942267418 C13.5634872,1.36625586 14.3592469,1.92165451 15.0481519,2.63084208 C15.7625694,3.36623583 16.3090917,4.21162657 16.6474536,5.19118608 C16.8207965,5.69286206 16.9291738,6.20874455 16.9684915,6.73955767 C17.0662104,8.05976306 16.7689933,9.28448829 16.1083415,10.4199056 C15.588516,11.3132951 14.8973101,12.0465854 14.07685,12.6572239 C14.0571911,12.6718442 14.037194,12.6860163 14.0175351,12.700671 C13.8517377,12.8244952 13.7910018,12.99187 13.8425681,13.1943472 C13.9702659,13.6957129 14.100806,14.1962854 14.2268797,14.6980649 C14.2488055,14.7853728 14.2594978,14.8765772 14.2656898,14.9666782 C14.2688027,15.0115046 14.2555051,15.059986 14.2399066,15.1031573 C14.2076946,15.1920514 14.1402928,15.2432914 14.0476493,15.2408777 C13.9813304,15.2391536 13.9131843,15.2261194 13.8500459,15.2050855 C13.7891069,15.1847757 13.7319238,15.1506042 13.675891,15.1176396 C13.0878179,14.771718 12.4993387,14.4264516 11.9132281,14.0770818 C11.7362648,13.9716364 11.5581172,13.9487749 11.361089,14.009325 C10.7849262,14.1865271 10.1965824,14.3034894 9.59788471,14.3685221 C9.03681286,14.429486 8.47479361,14.4455545 7.91192845,14.4106589 C6.63407057,14.3314886 5.41207626,14.0266349 4.2578897,13.4559608 C3.22984448,12.9475953 2.32824513,12.2686483 1.58645415,11.3782588 C0.946848493,10.6105211 0.483935462,9.74640674 0.230502335,8.76950233 C0.0637237126,8.12672675 0.00251402955,7.47298595 0.047414665,6.81062469 C0.129196757,5.60507135 0.536077044,4.51820442 1.22247817,3.53774839 C1.84144375,2.65360008 2.62268773,1.94841241 3.53112199,1.38663462 C4.43718771,0.826339544 5.41288833,0.446280938 6.44969713,0.227769653 C7.16364092,0.0772909966 7.79580261,0.0132582593 8.51272399,0.0123962138" id="Fill-3"></path>
                    </g>
                </g>
            </g>
        </g>
    </g>
</svg>