<?xml version="1.0" encoding="UTF-8" standalone="no"?>
<svg width="34px" height="21px" viewBox="1 2 34 20" version="1.1" xmlns="http://www.w3.org/2000/svg" xmlns:xlink="http://www.w3.org/1999/xlink">
    <!-- Generator: Sketch 46.2 (44496) - http://www.bohemiancoding.com/sketch -->
    <title>cn</title>
    <desc>Created with Sketch.</desc>
    <defs>
        <filter x="-8.8%" y="-15.8%" width="117.6%" height="136.8%" filterUnits="objectBoundingBox" id="filter-1">
            <feOffset dx="0" dy="0" in="SourceAlpha" result="shadowOffsetOuter1"></feOffset>
            <feGaussianBlur stdDeviation="1" in="shadowOffsetOuter1" result="shadowBlurOuter1"></feGaussianBlur>
            <feColorMatrix values="0 0 0 0 0   0 0 0 0 0.235294118   0 0 0 0 0.533333333  0 0 0 0.175016984 0" type="matrix" in="shadowBlurOuter1" result="shadowMatrixOuter1"></feColorMatrix>
            <feMerge>
                <feMergeNode in="shadowMatrixOuter1"></feMergeNode>
                <feMergeNode in="SourceGraphic"></feMergeNode>
            </feMerge>
        </filter>
    </defs>
    <g id="Symbols" stroke="none" stroke-width="1" fill="none" fill-rule="evenodd">
        <g id="Page-1" transform="translate(2.000000, 2.000000)">
            <g id="cn" filter="url(#filter-1)">
                <polygon id="Fill-1" fill="#CB1D23" points="0 19 34 19 34 0 0 0"></polygon>
                <polygon id="Fill-2" fill="#F7DE29" points="2.95224823 7 3.53753252 5.09314587 2 3.90685413 3.90542549 3.90294864 4.50092902 2 5.09364548 3.90294864 7 3.91075962 5.45968042 5.09314587 6.04217763 7 4.49907098 5.82151923"></polygon>
                <polygon id="Fill-3" fill="#F7DE29" points="9.08736842 8.30066701 9.81789474 8.58902001 10.3252632 8 10.2705263 8.76552078 11 9.05387378 10.2368421 9.24268856 10.18 10 9.76210526 9.35454079 9 9.53514623 9.50315789 8.95023089"></polygon>
                <polygon id="Fill-4" fill="#F7DE29" points="12 4.45285935 11.2373057 4.31993818 10.8715026 5 10.7647668 4.23956723 10 4.09840289 10.6953368 3.76455435 10.5906736 3 11.1295337 3.55126224 11.8248705 3.2174137 11.4611399 3.89747553"></polygon>
                <polygon id="Fill-5" fill="#F7DE29" points="10.3828484 8 10.6156202 7.23671498 10 6.76328502 10.7636549 6.76328502 10.9994895 6 11.2363451 6.76328502 12 6.76328502 11.3843798 7.23671498 11.6161307 8 10.9994895 7.5308642"></polygon>
                <polygon id="Fill-6" fill="#F7DE29" points="9.153125 1.23650386 9.85833333 1.56143959 10.3895833 1 10.2979167 1.76298201 11 2.09203085 10.2385417 2.23701799 10.1416667 3 9.7625 2.3285347 9 2.46940874 9.528125 1.90694087"></polygon>
            </g>
        </g>
    </g>
</svg>