<?xml version="1.0" encoding="UTF-8" standalone="no"?>
<svg width="22px" height="29px" viewBox="0 0 22 29" version="1.1" xmlns="http://www.w3.org/2000/svg" xmlns:xlink="http://www.w3.org/1999/xlink">
    <!-- Generator: Sketch 46.2 (44496) - http://www.bohemiancoding.com/sketch -->
    <title>Group 10</title>
    <desc>Created with Sketch.</desc>
    <defs></defs>
    <g id="Page-1" stroke="none" stroke-width="1" fill="none" fill-rule="evenodd">
        <g id="mm-landing-1440-edits" transform="translate(-182.000000, -3017.000000)">
            <g id="Group-10" transform="translate(183.000000, 3018.000000)">
                <path d="M10,26 C16.6666667,18.6702795 20,13.2258351 20,9.66666667 C20,4.32791409 15.5228475,0 10,0 C4.4771525,0 0,4.32791409 0,9.66666667 C0,13.2258351 3.33333333,18.6702795 10,26 Z" id="Oval-7" stroke="#83949F" stroke-width="2"></path>
                <path d="M9.033,16 C11.291,11.78125 12.859,9.61458333 15,7.66770833 L14.722,7 C12.126,8.68333333 10.729,9.95104167 8.616,12.4489583 C7.491,11.6135417 6.856,11.23125 5.856,10.7260417 L5,11.5510417 C6.711,13.2020833 7.64,14.2916667 9.033,16 Z" id="Path" fill="#83949F"></path>
            </g>
        </g>
    </g>
</svg>