<?xml version="1.0" encoding="UTF-8" standalone="no"?>
<svg width="18px" height="17px" viewBox="0 0 18 17" version="1.1" xmlns="http://www.w3.org/2000/svg" xmlns:xlink="http://www.w3.org/1999/xlink">
    <!-- Generator: Sketch 46.2 (44496) - http://www.bohemiancoding.com/sketch -->
    <title>Shape</title>
    <desc>Created with Sketch.</desc>
    <defs></defs>
    <g id="Page-1" stroke="none" stroke-width="1" fill="none" fill-rule="evenodd">
        <g id="mm-landing-1440-edits" transform="translate(-496.000000, -3530.000000)" fill="#0077C0">
            <path d="M510.753636,3538.2533 C510.753636,3537.30094 510.406828,3536.52482 509.841977,3535.92513 C509.933103,3535.69608 510.224616,3534.83184 509.732031,3533.63282 C509.732031,3533.63282 509.002583,3533.40346 507.288648,3534.51436 C506.5592,3534.32058 505.756884,3534.19692 505.009219,3534.19692 C504.243015,3534.19692 503.440417,3534.32058 502.729186,3534.51436 C500.996672,3533.40346 500.267264,3533.63282 500.267264,3533.63282 C499.775001,3534.83184 500.066876,3535.69608 500.157962,3535.92513 C499.592508,3536.52478 499.246021,3537.30094 499.246021,3538.2533 C499.246021,3541.60399 501.379673,3542.30933 503.385766,3542.53842 C503.130646,3542.75044 502.893502,3543.15569 502.802376,3543.7201 C502.291574,3543.93158 500.960238,3544.33737 500.157962,3542.9971 C500.157962,3542.9971 499.683634,3542.16841 498.790192,3542.11556 C498.790192,3542.11556 497.896468,3542.09794 498.717283,3542.64412 C498.717283,3542.64412 499.31889,3542.90902 499.720349,3543.91392 C499.720349,3543.91392 500.267264,3545.58956 502.783838,3545.06033 L502.783838,3546.55918 C502.783838,3546.78885 502.601667,3547.05313 502.145837,3546.98267 C498.571265,3545.83622 496,3542.556 496,3538.71171 C496,3533.89714 500.03012,3530 505.009219,3530 C509.969537,3530 514.018156,3533.89717 513.999939,3538.71171 C513.999939,3542.556 511.428393,3545.8186 507.854062,3546.98267 C507.39795,3547.07079 507.215739,3546.80651 507.215739,3546.55918 L507.215739,3544.14355 C507.21578,3543.33185 506.941839,3542.80329 506.613892,3542.53842 C508.619984,3542.30933 510.753636,3541.60399 510.753636,3538.2533 Z" id="Shape"></path>
        </g>
    </g>
</svg>