<?xml version="1.0" encoding="UTF-8" standalone="no"?>
<svg width="20px" height="24px" viewBox="0 0 20 24" version="1.1" xmlns="http://www.w3.org/2000/svg" xmlns:xlink="http://www.w3.org/1999/xlink">
    <!-- Generator: Sketch 46.2 (44496) - http://www.bohemiancoding.com/sketch -->
    <title>Shape</title>
    <desc>Created with Sketch.</desc>
    <defs></defs>
    <g id="Page-1" stroke="none" stroke-width="1" fill="none" fill-rule="evenodd">
        <g id="mm-landing-1440-edits" transform="translate(-184.000000, -3331.000000)" fill-rule="nonzero" fill="#83949F">
            <g id="iconmonstr-note-24" transform="translate(184.000000, 3331.000000)">
                <path d="M2,22 L2,2 L18,2 L18,13.543 C18,17.65 12,16 12,16 C12,16 13.518,22 9.362,22 L2,22 Z M20,14.386 L20,0 L0,0 L0,24 L10.189,24 C13.352,24 20,16.777 20,14.386 Z M9.033,15 C11.291,10.95 12.859,8.87 15,7.001 L14.722,6.36 C12.126,7.976 10.729,9.193 8.616,11.591 C7.491,10.789 6.856,10.422 5.856,9.937 L5,10.729 C6.711,12.314 7.64,13.36 9.033,15 Z" id="Shape"></path>
            </g>
        </g>
    </g>
</svg>