<?xml version="1.0" encoding="UTF-8" standalone="no"?>
<svg width="20px" height="17px" viewBox="0 0 20 17" version="1.1" xmlns="http://www.w3.org/2000/svg" xmlns:xlink="http://www.w3.org/1999/xlink">
    <!-- Generator: Sketch 46.2 (44496) - http://www.bohemiancoding.com/sketch -->
    <title>XMLID_497_</title>
    <desc>Created with Sketch.</desc>
    <defs></defs>
    <g id="Page-1" stroke="none" stroke-width="1" fill="none" fill-rule="evenodd">
        <g id="mm-landing-1440-edits" transform="translate(-889.000000, -416.000000)" fill-rule="nonzero" fill="#FFFFFF">
            <g id="Group-30" transform="translate(363.000000, 406.000000)">
                <g id="Group-20" transform="translate(512.000000, 0.000000)">
                    <g id="Group-18" transform="translate(14.000000, 10.000000)">
                        <g id="Group-14">
                            <path d="M0.35325945,8.15143824 L4.96166548,9.83061113 L6.74540115,15.430913 C6.85953464,15.7895922 7.30880189,15.9221687 7.60700228,15.6841557 L10.1758056,13.6397302 C10.4450727,13.425538 10.8286065,13.4148642 11.1100069,13.6142823 L15.7432129,16.8982368 C16.0622134,17.1245997 16.5141473,16.9539489 16.5941474,16.5776319 L19.9882185,0.639092113 C20.0755519,0.228020178 19.6618181,-0.114908579 19.2608842,0.0364773174 L0.347859443,7.15935947 C-0.118874501,7.33508687 -0.114807829,7.98020166 0.35325945,8.15143824 Z M6.44535432,8.47203194 L15.7506805,3.02468064 C15.9179171,2.92706865 16.0899752,3.14199834 15.9463639,3.26861241 L8.26677318,10.0536604 C7.99683896,10.2924857 7.82271451,10.6120979 7.77339762,10.95901 L7.51179768,12.8016572 C7.47715187,13.047684 7.11354311,13.0721033 7.04211627,12.8339982 L6.03601033,9.47388055 C5.92077687,9.09063401 6.08870227,8.68126596 6.44535432,8.47203194 Z" id="XMLID_497_"></path>
                        </g>
                    </g>
                </g>
            </g>
        </g>
    </g>
</svg>