<?xml version="1.0" encoding="UTF-8" standalone="no"?>
<svg width="18px" height="17px" viewBox="0 0 18 17" version="1.1" xmlns="http://www.w3.org/2000/svg" xmlns:xlink="http://www.w3.org/1999/xlink">
    <!-- Generator: Sketch 46.2 (44496) - http://www.bohemiancoding.com/sketch -->
    <title>Shape Copy 30</title>
    <desc>Created with Sketch.</desc>
    <defs></defs>
    <g id="design-1440" stroke="none" stroke-width="1" fill="none" fill-rule="evenodd">
        <g id="mm-landing-1440" transform="translate(-215.000000, -13972.000000)" fill-rule="nonzero" fill="#0077C0">
            <g id="Group-7-Copy-6" transform="translate(215.000000, 13972.000000)">
                <g id="iconmonstr-linkedin-1-copy-14">
                    <path d="M3.735,1.84782609 C3.735,2.86856522 2.9025,3.69565217 1.875,3.69565217 C0.8475,3.69565217 0.015,2.86856522 0.015,1.84782609 C0.015,0.827826087 0.8475,0 1.875,0 C2.9025,0 3.735,0.827826087 3.735,1.84782609 Z M3.75,5.17391304 L0,5.17391304 L0,17 L3.75,17 L3.75,5.17391304 Z M9.7365,5.17391304 L6.0105,5.17391304 L6.0105,17 L9.73725,17 L9.73725,10.7920435 C9.73725,7.34030435 14.259,7.05795652 14.259,10.7920435 L14.259,17 L18,17 L18,9.51186957 C18,3.68752174 11.3085,3.89965217 9.7365,6.76673913 L9.7365,5.17391304 Z" id="Shape-Copy-30"></path>
                </g>
            </g>
        </g>
    </g>
</svg>