<?xml version="1.0" encoding="UTF-8" standalone="no"?>
<svg width="21px" height="17px" viewBox="0 0 21 17" version="1.1" xmlns="http://www.w3.org/2000/svg" xmlns:xlink="http://www.w3.org/1999/xlink">
    <!-- Generator: Sketch 46.2 (44496) - http://www.bohemiancoding.com/sketch -->
    <title>Shape</title>
    <desc>Created with Sketch.</desc>
    <defs></defs>
    <g id="Page-1" stroke="none" stroke-width="1" fill="none" fill-rule="evenodd">
        <g id="mm-landing-1440-edits" transform="translate(-280.000000, -14986.000000)" fill-rule="nonzero" fill="#0077C0">
            <path d="M301,14988.5053 L300.169434,14988.5053 C299.861078,14988.5053 299.425,14988.9602 299.425,14989.2513 L299.425,14999.8058 C299.425,15000.0973 299.861078,15000.4947 300.169434,15000.4947 L301,15000.4947 L301,15003 L293.475027,15003 L293.475027,15000.4947 L295.050027,15000.4947 L295.050027,14989.4 L294.972836,14989.4 L291.294883,15003 L288.447414,15003 L284.816875,14989.4 L284.725,14989.4 L284.725,15000.4947 L286.3,15000.4947 L286.3,15003 L280,15003 L280,15000.4947 L280.806777,15000.4947 C281.138922,15000.4947 281.575,15000.0973 281.575,14999.8058 L281.575,14989.2512 C281.575,14988.9601 281.138922,14988.5052 280.806777,14988.5052 L280,14988.5052 L280,14986 L287.877789,14986 L290.464234,14995.8421 L290.535602,14995.8421 L293.145754,14986 L301,14986 L301,14988.5053" id="Shape"></path>
        </g>
    </g>
</svg>