<?xml version="1.0" encoding="UTF-8" standalone="no"?>
<svg width="10px" height="12px" viewBox="0 0 10 12" version="1.1" xmlns="http://www.w3.org/2000/svg" xmlns:xlink="http://www.w3.org/1999/xlink">
    <!-- Generator: Sketch 46.2 (44496) - http://www.bohemiancoding.com/sketch -->
    <title>Rectangle</title>
    <desc>Created with Sketch.</desc>
    <defs></defs>
    <g id="design-1440" stroke="none" stroke-width="1" fill="none" fill-rule="evenodd">
        <g id="mm-landing-1440" transform="translate(-577.000000, -412.000000)" fill="#84D0FF">
            <g id="Group-29" transform="translate(572.000000, 410.000000)">
                <g id="Group-6-Copy">
                    <path d="M11.492115,3.81920186 L12.9825681,11.8142771 L12.9825681,11.8142771 C13.0837821,12.3572082 12.7256996,12.879391 12.1827685,12.9806049 C12.0616307,13.0031876 11.9373625,13.0031866 11.8162251,12.9806021 L3.82149263,11.4900851 L3.82149263,11.4900851 C3.27856309,11.3888627 2.92048868,10.8666744 3.02171105,10.3237449 C3.05871028,10.1252909 3.15490692,9.94268176 3.29764999,9.79993257 L9.80192931,3.29537436 L9.80192931,3.29537436 C10.1924452,2.90484169 10.8256102,2.90482812 11.2161429,3.29534404 C11.3589061,3.43810117 11.4551151,3.62072779 11.492115,3.81920186 Z" id="Rectangle" transform="translate(8.002138, 8.000004) rotate(-45.000000) translate(-8.002138, -8.000004) "></path>
                </g>
            </g>
        </g>
    </g>
</svg>