<?xml version="1.0" encoding="UTF-8" standalone="no"?>
<svg width="18px" height="17px" viewBox="0 0 18 17" version="1.1" xmlns="http://www.w3.org/2000/svg" xmlns:xlink="http://www.w3.org/1999/xlink">
    <!-- Generator: Sketch 46.2 (44496) - http://www.bohemiancoding.com/sketch -->
    <title>iconmonstr-facebook-like-1</title>
    <desc>Created with Sketch.</desc>
    <defs></defs>
    <g id="Page-1" stroke="none" stroke-width="1" fill="none" fill-rule="evenodd">
        <g id="mm-landing-1440-edits" transform="translate(-223.000000, -4229.000000)" fill-rule="nonzero" fill="#0077C0">
            <g id="iconmonstr-facebook-like-1" transform="translate(223.000000, 4229.000000)">
                <path d="M15.912,5.91304348 L14.25,5.91304348 L14.25,4.61956522 L15,2.33195652 L15,0 L11.0655,0 C9.447,4.70752174 7.8765,7.3853913 6,7.39130435 L6,6.65217391 L0,6.65217391 L0,16.2608696 L6,16.2608696 L6,15.5217391 L7.5,15.5217391 L9.38025,17 L15.726,17 L18,14.8373043 L18,7.25308696 L15.912,5.91304348 Z M16.5,14.2097826 L15.12075,15.5217391 L9.90525,15.5217391 L8.025,14.0434783 L6,14.0434783 L6,8.86956522 C8.83575,8.86956522 11.04525,4.67573913 12.14175,1.47826087 L13.5,1.47826087 L13.5,2.06291304 L12.75,4.35052174 L12.75,7.39130435 L15.46725,7.39130435 L16.5,8.05430435 L16.5,14.2097826 Z" id="Shape"></path>
            </g>
        </g>
    </g>
</svg>