<?xml version="1.0" encoding="utf-8"?>
<!-- Generator: Adobe Illustrator 21.0.0, SVG Export Plug-In . SVG Version: 6.00 Build 0)  -->
<svg version="1.1" id="Layer_1" xmlns="http://www.w3.org/2000/svg" xmlns:xlink="http://www.w3.org/1999/xlink" x="0px" y="0px"
	 viewBox="0 0 369.4 106.6" style="enable-background:new 0 0 369.4 106.6;" xml:space="preserve">
<style type="text/css">
	.st0{clip-path:url(#SVGID_2_);fill:#FF6800;}
	.st1{clip-path:url(#SVGID_2_);}
	.st2{clip-path:url(#SVGID_4_);fill:#FFFFFF;}
</style>
<g id="Artwork_1">
	<g>
		<defs>
			<rect id="SVGID_1_" x="10.3" y="13.7" width="348.3" height="80.9"/>
		</defs>
		<clipPath id="SVGID_2_">
			<use xlink:href="#SVGID_1_"  style="overflow:visible;"/>
		</clipPath>
		
			<rect x="17.9" y="37.5" transform="matrix(0.7071 -0.7071 0.7071 0.7071 -28.9034 42.1276)" class="st0" width="36.9" height="36.9"/>
		<polygon class="st0" points="73.5,13.7 33.1,54.2 73.5,94.6 73.6,94.6 114,54.2 		"/>
		<g class="st1">
			<defs>
				<rect id="SVGID_3_" x="10.3" y="13.7" width="348.3" height="80.9"/>
			</defs>
			<clipPath id="SVGID_4_">
				<use xlink:href="#SVGID_3_"  style="overflow:visible;"/>
			</clipPath>
			<path class="st2" d="M281.3,54.6c-3.2,0-6-1.1-8.3-3.4c-2.3-2.3-3.4-5.1-3.4-8.3s1.1-6,3.4-8.3s5.1-3.4,8.3-3.4
				c3.2,0,6,1.1,8.3,3.4c2.3,2.3,3.4,5.1,3.4,8.3s-1.1,6-3.4,8.3C287.4,53.5,284.6,54.6,281.3,54.6 M285.5,47
				c1.1-1.1,1.7-2.5,1.7-4.2c0-1.6-0.6-3-1.7-4.2c-1.1-1.1-2.5-1.7-4.2-1.7c-1.6,0-3,0.6-4.2,1.7s-1.7,2.5-1.7,4.2
				c0,1.6,0.6,3,1.7,4.2c1.1,1.1,2.5,1.7,4.2,1.7C283,48.8,284.4,48.2,285.5,47"/>
			<path class="st2" d="M308.7,42.4v-8.4c0-0.8,0.3-1.5,0.9-2.1s1.3-0.9,2.1-0.9c0.8,0,1.5,0.3,2.1,0.9c0.6,0.6,0.9,1.3,0.9,2.1
				v17.6c0,0.8-0.3,1.5-0.9,2.1c-0.6,0.6-1.3,0.9-2.1,0.9c-0.8,0-1.5-0.3-2.1-0.9c-0.2-0.2-0.4-0.4-0.5-0.6h0l-6.2-9.8v8.4
				c0,0.8-0.3,1.5-0.9,2.1c-0.6,0.6-1.3,0.9-2.1,0.9s-1.5-0.3-2.1-0.9c-0.6-0.6-0.9-1.3-0.9-2.1V34.1c0-0.8,0.3-1.5,0.9-2.1
				s1.3-0.9,2.1-0.9s1.5,0.3,2.1,0.9c0.2,0.2,0.3,0.4,0.5,0.6h0L308.7,42.4z"/>
			<path class="st2" d="M331.3,39.9c0.8,0,1.5,0.3,2.1,0.9c0.6,0.6,0.9,1.3,0.9,2.1c0,0.8-0.3,1.5-0.9,2.1c-0.6,0.6-1.3,0.9-2.1,0.9
				h-5.9v2.9h8.8c0.8,0,1.5,0.3,2.1,0.9c0.6,0.6,0.9,1.3,0.9,2.1s-0.3,1.5-0.9,2.1c-0.6,0.6-1.3,0.9-2.1,0.9h-11.8
				c-0.8,0-1.5-0.3-2.1-0.9c-0.6-0.6-0.9-1.3-0.9-2.1V34.1c0-0.8,0.3-1.5,0.9-2.1c0.6-0.6,1.3-0.9,2.1-0.9h11.8
				c0.8,0,1.5,0.3,2.1,0.9c0.6,0.6,0.9,1.3,0.9,2.1c0,0.8-0.3,1.5-0.9,2.1c-0.6,0.6-1.3,0.9-2.1,0.9h-8.8v2.9H331.3z"/>
			<path class="st2" d="M346.8,44l-0.7-1l-4.8-7.1c-0.2-0.4-0.4-1-0.4-1.8c0-0.8,0.3-1.5,0.9-2.1c0.6-0.6,1.3-0.9,2.1-0.9
				c0.8,0,1.5,0.3,2.1,0.9c0.2,0.2,0.3,0.4,0.5,0.6l0,0l3.3,5l3.3-5l0,0c0.1-0.2,0.3-0.4,0.5-0.6c0.6-0.6,1.3-0.9,2.1-0.9
				c0.8,0,1.5,0.3,2.1,0.9c0.6,0.6,0.9,1.3,0.9,2.1c0,0.8-0.1,1.4-0.4,1.8l-4.8,7.1l-0.7,1v7.7c0,0.8-0.3,1.5-0.9,2.1
				c-0.6,0.6-1.3,0.9-2.1,0.9c-0.8,0-1.5-0.3-2.1-0.9c-0.6-0.6-0.9-1.3-0.9-2.1V44z"/>
			<path class="st2" d="M163,51.7c0,0.8-0.3,1.5-0.9,2.1c-0.6,0.6-1.3,0.9-2.1,0.9c-0.8,0-1.5-0.3-2.1-0.9c-0.6-0.6-0.9-1.3-0.9-2.1
				V34.1c0-0.8,0.3-1.5,0.9-2.1c0.6-0.6,1.3-0.9,2.1-0.9c0.8,0,1.5,0.3,2.1,0.9c0.6,0.6,0.9,1.3,0.9,2.1V51.7z"/>
			<path class="st2" d="M186.8,34.7c0.1,0.1,0.2,0.1,0.2,0.2c0.6,0.6,0.9,1.3,0.9,2.1s-0.3,1.5-0.9,2.1c-0.6,0.6-1.3,0.9-2.1,0.9
				c-0.8,0-1.5-0.3-2.1-0.9c-0.1-0.1-0.1-0.1-0.2-0.2c-0.1,0-0.1-0.1-0.2-0.1c-1.1-1.1-2.5-1.7-4.2-1.7c-1.6,0-3,0.6-4.2,1.7
				c-1.1,1.1-1.7,2.5-1.7,4.2s0.6,3,1.7,4.2c1.1,1.1,2.5,1.7,4.2,1.7c1.6,0,3-0.6,4.2-1.7c0.1-0.1,0.1-0.1,0.2-0.1
				c0.1-0.1,0.1-0.1,0.2-0.2c0.6-0.6,1.3-0.9,2.1-0.9c0.8,0,1.5,0.3,2.1,0.9c0.6,0.6,0.9,1.3,0.9,2.1c0,0.8-0.3,1.5-0.9,2.1
				c-0.1,0.1-0.2,0.2-0.3,0.3c0,0-0.1,0.1-0.1,0.1c-2.3,2.3-5.1,3.5-8.3,3.5c-3.2,0-6-1.1-8.3-3.4c-2.3-2.3-3.4-5.1-3.4-8.3
				c0-3.2,1.1-6,3.4-8.3c2.3-2.3,5.1-3.4,8.3-3.4c3.2,0,6,1.1,8.3,3.4C186.7,34.6,186.7,34.7,186.8,34.7"/>
			<path class="st2" d="M198.6,45.8h-1.4v5.9c0,0.8-0.3,1.5-0.9,2.1c-0.6,0.6-1.3,0.9-2.1,0.9c-0.8,0-1.5-0.3-2.1-0.9
				c-0.6-0.6-0.9-1.3-0.9-2.1V34.1c0-0.8,0.3-1.5,0.9-2.1c0.6-0.6,1.3-0.9,2.1-0.9h7.3c2,0,3.8,0.7,5.2,2.2c1.4,1.4,2.2,3.2,2.2,5.2
				s-0.7,3.8-2.1,5.2c-0.5,0.5-1,0.9-1.6,1.2l3.4,5.3h0c0.3,0.4,0.4,0.9,0.4,1.5c0,0.8-0.3,1.5-0.9,2.1c-0.6,0.6-1.3,0.9-2.1,0.9
				c-0.8,0-1.5-0.3-2.1-0.9c-0.2-0.2-0.4-0.4-0.5-0.6h0L198.6,45.8z M201.7,37h-4.4v2.9h4.4c0.4,0,0.7-0.1,1-0.4
				c0.3-0.3,0.4-0.6,0.4-1c0-0.4-0.1-0.7-0.4-1C202.4,37.2,202.1,37,201.7,37"/>
			<path class="st2" d="M224.3,54.6c-3.2,0-6-1.1-8.3-3.4c-2.3-2.3-3.4-5.1-3.4-8.3s1.1-6,3.4-8.3c2.3-2.3,5.1-3.4,8.3-3.4
				c3.2,0,6,1.1,8.3,3.4c2.3,2.3,3.4,5.1,3.4,8.3s-1.1,6-3.4,8.3C230.3,53.5,227.6,54.6,224.3,54.6 M228.5,47
				c1.1-1.1,1.7-2.5,1.7-4.2s-0.6-3-1.7-4.2c-1.1-1.1-2.5-1.7-4.2-1.7s-3,0.6-4.2,1.7c-1.1,1.1-1.7,2.5-1.7,4.2s0.6,3,1.7,4.2
				c1.1,1.1,2.5,1.7,4.2,1.7S227.3,48.2,228.5,47"/>
			<path class="st2" d="M151.4,31.4c-1.2-0.4-2.5,0.1-3.2,1.1l-7.7,10.9l-7.7-10.9c-0.7-1-2-1.4-3.2-1.1c-1.2,0.4-2,1.5-2,2.7v17.5
				c0,1.6,1.3,2.8,2.8,2.8c1.6,0,2.8-1.3,2.8-2.8V43l4.8,6.8c0.6,0.8,1.5,1.2,2.4,1.2c0.9,0,1.8-0.4,2.4-1.2l4.8-6.8v8.6
				c0,1.6,1.3,2.8,2.8,2.8c1.6,0,2.8-1.3,2.8-2.8V34.1C153.4,32.9,152.6,31.8,151.4,31.4"/>
			<path class="st2" d="M263.8,31.4c-1.2-0.4-2.5,0.1-3.2,1.1l-7.7,10.9l-7.7-10.9c-0.7-1-2-1.4-3.2-1.1c-1.2,0.4-2,1.5-2,2.7v17.5
				c0,1.6,1.3,2.8,2.8,2.8c1.6,0,2.8-1.3,2.8-2.8V43l4.8,6.8c0.6,0.8,1.5,1.2,2.4,1.2c0.9,0,1.8-0.4,2.4-1.2L260,43v8.6
				c0,1.6,1.3,2.8,2.8,2.8c1.6,0,2.8-1.3,2.8-2.8V34.1C265.7,32.9,264.9,31.8,263.8,31.4"/>
			<path class="st2" d="M133.2,68.1c0.1-0.2,0.3-0.3,0.5-0.3h0.4c0.1,0,0.1,0,0.2,0.1c0.1,0.1,0.1,0.1,0.1,0.2v7.1
				c0,0.1,0,0.1-0.1,0.2c-0.1,0.1-0.1,0.1-0.2,0.1h-0.4c-0.1,0-0.1,0-0.2-0.1c-0.1-0.1-0.1-0.1-0.1-0.2v-5.2l-1.7,3.3
				c-0.1,0.1-0.1,0.2-0.2,0.3c-0.1,0.1-0.2,0.1-0.3,0.1h-0.4c-0.1,0-0.2,0-0.3-0.1c-0.1-0.1-0.1-0.1-0.2-0.3l-1.7-3.3v5.2
				c0,0.1,0,0.1-0.1,0.2c-0.1,0.1-0.1,0.1-0.2,0.1h-0.4c-0.1,0-0.1,0-0.2-0.1c-0.1-0.1-0.1-0.1-0.1-0.2V68c0-0.1,0-0.1,0.1-0.2
				c0.1-0.1,0.1-0.1,0.2-0.1h0.4c0.2,0,0.4,0.1,0.5,0.3l2.2,4.3L133.2,68.1z"/>
			<path class="st2" d="M137.1,68.7c-0.1,0.1-0.1,0.1-0.2,0.1h-0.6c-0.1,0-0.1,0-0.2-0.1c-0.1-0.1-0.1-0.1-0.1-0.2v-0.6
				c0-0.1,0-0.1,0.1-0.2c0.1-0.1,0.1-0.1,0.2-0.1h0.6c0.1,0,0.1,0,0.2,0.1c0.1,0.1,0.1,0.1,0.1,0.2v0.6
				C137.2,68.6,137.2,68.7,137.1,68.7 M137,75.3c-0.1,0.1-0.1,0.1-0.2,0.1h-0.4c-0.1,0-0.1,0-0.2-0.1c-0.1-0.1-0.1-0.1-0.1-0.2V70
				c0-0.1,0-0.1,0.1-0.2c0.1-0.1,0.1-0.1,0.2-0.1h0.4c0.1,0,0.1,0,0.2,0.1c0.1,0.1,0.1,0.1,0.1,0.2v5.1
				C137.1,75.1,137.1,75.2,137,75.3"/>
			<path class="st2" d="M142.5,73.7c0-0.1,0.1-0.2,0.2-0.2c0.1,0,0.1-0.1,0.2-0.1h0.3c0.1,0,0.1,0,0.2,0.1c0.1,0.1,0.1,0.1,0.1,0.2
				c0,0.2-0.1,0.5-0.3,0.8c-0.2,0.3-0.5,0.5-0.9,0.7c-0.4,0.2-0.8,0.3-1.3,0.3c-0.5,0-1-0.1-1.3-0.3c-0.4-0.2-0.7-0.5-0.9-0.9
				c-0.2-0.4-0.3-0.8-0.3-1.3c0-0.1,0-0.3,0-0.5c0-0.2,0-0.3,0-0.4c0.1-0.7,0.3-1.3,0.8-1.8c0.4-0.5,1-0.7,1.8-0.7
				c0.5,0,0.9,0.1,1.3,0.3c0.4,0.2,0.6,0.4,0.8,0.7c0.2,0.3,0.3,0.5,0.3,0.8c0,0.1,0,0.1-0.1,0.2c-0.1,0.1-0.1,0.1-0.2,0.1h-0.3
				c-0.1,0-0.2,0-0.2-0.1c-0.1,0-0.1-0.1-0.2-0.2c-0.3-0.6-0.7-0.9-1.5-0.9c-0.4,0-0.8,0.1-1,0.4c-0.3,0.3-0.5,0.7-0.5,1.2
				c0,0.1,0,0.2,0,0.4c0,0.2,0,0.3,0,0.4c0.1,0.5,0.2,1,0.5,1.2c0.3,0.3,0.6,0.4,1,0.4C141.7,74.5,142.2,74.2,142.5,73.7"/>
			<path class="st2" d="M147.8,69.8c0.1,0.1,0.1,0.1,0.1,0.2v0.3c0,0.1,0,0.1-0.1,0.2c-0.1,0.1-0.1,0.1-0.2,0.1H147
				c-0.4,0-0.7,0.1-0.9,0.3c-0.2,0.2-0.3,0.5-0.3,0.9v3.2c0,0.1,0,0.1-0.1,0.2c-0.1,0.1-0.1,0.1-0.2,0.1H145c-0.1,0-0.2,0-0.2-0.1
				c-0.1-0.1-0.1-0.1-0.1-0.2V70c0-0.1,0-0.1,0.1-0.2c0.1-0.1,0.1-0.1,0.2-0.1h0.4c0.1,0,0.1,0,0.2,0.1c0.1,0.1,0.1,0.1,0.1,0.2v0.3
				c0.1-0.2,0.3-0.4,0.5-0.5c0.2-0.1,0.5-0.2,0.8-0.2h0.6C147.7,69.7,147.7,69.7,147.8,69.8"/>
			<path class="st2" d="M153.6,72.5c0,0.2,0,0.3,0,0.5c-0.1,0.7-0.3,1.3-0.8,1.8c-0.4,0.4-1.1,0.7-1.8,0.7s-1.4-0.2-1.8-0.7
				c-0.4-0.4-0.7-1-0.8-1.8c0-0.1,0-0.2,0-0.5c0-0.3,0-0.4,0-0.5c0.1-0.7,0.3-1.3,0.8-1.8c0.5-0.4,1.1-0.7,1.8-0.7s1.4,0.2,1.8,0.7
				c0.5,0.4,0.7,1,0.8,1.8C153.6,72.2,153.6,72.3,153.6,72.5 M152.1,70.9c-0.3-0.3-0.6-0.4-1.1-0.4c-0.5,0-0.9,0.1-1.1,0.4
				c-0.3,0.3-0.4,0.7-0.5,1.1c0,0.1,0,0.2,0,0.5c0,0.2,0,0.4,0,0.4c0,0.5,0.2,0.8,0.5,1.1c0.3,0.3,0.6,0.4,1.1,0.4
				c0.5,0,0.9-0.1,1.1-0.4c0.3-0.3,0.4-0.7,0.5-1.1c0-0.2,0-0.3,0-0.4s0-0.3,0-0.5C152.5,71.6,152.4,71.2,152.1,70.9"/>
			<path class="st2" d="M160.6,68.1c0.1-0.2,0.3-0.3,0.5-0.3h0.4c0.1,0,0.1,0,0.2,0.1c0.1,0.1,0.1,0.1,0.1,0.2v7.1
				c0,0.1,0,0.1-0.1,0.2c-0.1,0.1-0.1,0.1-0.2,0.1h-0.4c-0.1,0-0.1,0-0.2-0.1c-0.1-0.1-0.1-0.1-0.1-0.2v-5.2l-1.7,3.3
				c-0.1,0.1-0.1,0.2-0.2,0.3c-0.1,0.1-0.2,0.1-0.3,0.1h-0.4c-0.1,0-0.2,0-0.3-0.1c-0.1-0.1-0.1-0.1-0.2-0.3l-1.7-3.3v5.2
				c0,0.1,0,0.1-0.1,0.2c-0.1,0.1-0.1,0.1-0.2,0.1h-0.4c-0.1,0-0.1,0-0.2-0.1c-0.1-0.1-0.1-0.1-0.1-0.2V68c0-0.1,0-0.1,0.1-0.2
				c0.1-0.1,0.1-0.1,0.2-0.1h0.4c0.2,0,0.4,0.1,0.5,0.3l2.2,4.3L160.6,68.1z"/>
			<path class="st2" d="M168.5,72.5c0,0.2,0,0.3,0,0.5c-0.1,0.7-0.3,1.3-0.8,1.8s-1.1,0.7-1.8,0.7s-1.4-0.2-1.8-0.7
				c-0.4-0.4-0.7-1-0.8-1.8c0-0.1,0-0.2,0-0.5c0-0.3,0-0.4,0-0.5c0.1-0.7,0.3-1.3,0.8-1.8c0.5-0.4,1.1-0.7,1.8-0.7s1.4,0.2,1.8,0.7
				c0.5,0.4,0.7,1,0.8,1.8C168.5,72.2,168.5,72.3,168.5,72.5 M167,70.9c-0.3-0.3-0.6-0.4-1.1-0.4c-0.5,0-0.9,0.1-1.1,0.4
				c-0.3,0.3-0.4,0.7-0.5,1.1c0,0.1,0,0.2,0,0.5c0,0.2,0,0.4,0,0.4c0,0.5,0.2,0.8,0.5,1.1c0.3,0.3,0.6,0.4,1.1,0.4
				c0.5,0,0.9-0.1,1.1-0.4c0.3-0.3,0.4-0.7,0.5-1.1c0-0.2,0-0.3,0-0.4s0-0.3,0-0.5C167.4,71.6,167.2,71.2,167,70.9"/>
			<path class="st2" d="M174.7,75.3c-0.1,0.1-0.1,0.1-0.2,0.1h-0.4c-0.1,0-0.1,0-0.2-0.1c-0.1-0.1-0.1-0.1-0.1-0.2v-2.9
				c0-0.5-0.1-1-0.4-1.2c-0.3-0.3-0.6-0.4-1.1-0.4c-0.5,0-0.8,0.1-1.1,0.4c-0.3,0.3-0.4,0.7-0.4,1.2v2.9c0,0.1,0,0.1-0.1,0.2
				c-0.1,0.1-0.1,0.1-0.2,0.1h-0.4c-0.1,0-0.1,0-0.2-0.1c-0.1-0.1-0.1-0.1-0.1-0.2V70c0-0.1,0-0.1,0.1-0.2c0.1-0.1,0.1-0.1,0.2-0.1
				h0.4c0.1,0,0.1,0,0.2,0.1c0.1,0.1,0.1,0.1,0.1,0.2v0.3c0.2-0.2,0.4-0.4,0.7-0.5c0.3-0.1,0.6-0.2,1-0.2c0.5,0,0.9,0.1,1.2,0.3
				c0.4,0.2,0.6,0.5,0.8,0.8c0.2,0.4,0.3,0.8,0.3,1.3v3C174.8,75.1,174.8,75.2,174.7,75.3"/>
			<path class="st2" d="M180.4,70.3c0.4,0.5,0.7,1.2,0.7,2v0.3c0,0.1,0,0.1-0.1,0.2c-0.1,0.1-0.1,0.1-0.2,0.1h-3.8V73
				c0,0.5,0.2,0.9,0.4,1.1c0.3,0.3,0.6,0.4,1.1,0.4c0.4,0,0.6,0,0.8-0.1c0.2-0.1,0.4-0.2,0.5-0.4c0.1-0.1,0.1-0.1,0.2-0.1
				c0,0,0.1,0,0.2,0h0.3c0.1,0,0.2,0,0.2,0.1c0.1,0.1,0.1,0.1,0.1,0.2c0,0.2-0.1,0.4-0.3,0.6c-0.2,0.2-0.5,0.4-0.8,0.5
				c-0.3,0.1-0.8,0.2-1.2,0.2c-0.5,0-0.9-0.1-1.2-0.3c-0.4-0.2-0.7-0.5-0.9-0.9c-0.2-0.4-0.3-0.8-0.4-1.3c0-0.2,0-0.4,0-0.5
				c0-0.1,0-0.3,0-0.5c0-0.5,0.2-0.9,0.4-1.2c0.2-0.4,0.5-0.7,0.9-0.9c0.4-0.2,0.8-0.3,1.3-0.3C179.4,69.6,180,69.8,180.4,70.3
				 M180.1,72L180.1,72c0-0.5-0.1-0.8-0.4-1.1c-0.3-0.3-0.7-0.4-1.1-0.4c-0.4,0-0.8,0.1-1.1,0.4s-0.4,0.6-0.5,1.1v0H180.1z"/>
			<path class="st2" d="M183.5,77.4h-0.4c-0.1,0-0.1,0-0.2-0.1c-0.1-0.1-0.1-0.1-0.1-0.2c0,0,0-0.1,0-0.1l1-2.3l-2.2-4.8
				c0,0,0,0,0-0.1c0-0.1,0-0.1,0.1-0.2c0.1,0,0.1-0.1,0.2-0.1h0.4c0.1,0,0.3,0.1,0.3,0.3l1.7,3.7l1.7-3.7c0.1-0.2,0.2-0.3,0.3-0.3
				h0.4c0.1,0,0.1,0,0.2,0.1c0.1,0.1,0.1,0.1,0.1,0.2c0,0,0,0.1,0,0.1l-3.3,7.2C183.8,77.3,183.7,77.4,183.5,77.4"/>
			<path class="st2" d="M193.3,69.7c0.1,0,0.1,0,0.2,0.1c0.1,0.1,0.1,0.1,0.1,0.2v0.3c0,0.1,0,0.1-0.1,0.2c-0.1,0.1-0.1,0.1-0.2,0.1
				h-1.4v4.4c0,0.1,0,0.1-0.1,0.2c-0.1,0.1-0.1,0.1-0.2,0.1h-0.4c-0.1,0-0.1,0-0.2-0.1c-0.1-0.1-0.1-0.1-0.1-0.2v-4.4H190
				c-0.1,0-0.1,0-0.2-0.1c-0.1-0.1-0.1-0.1-0.1-0.2V70c0-0.1,0-0.1,0.1-0.2c0.1-0.1,0.1-0.1,0.2-0.1h0.9v-0.5c0-0.6,0.1-1.1,0.4-1.4
				c0.3-0.3,0.7-0.5,1.4-0.5h0.7c0.1,0,0.1,0,0.2,0.1c0.1,0.1,0.1,0.1,0.1,0.2v0.3c0,0.1,0,0.2-0.1,0.2c-0.1,0.1-0.1,0.1-0.2,0.1
				h-0.6c-0.4,0-0.6,0.1-0.7,0.3c-0.1,0.2-0.2,0.4-0.2,0.7v0.5H193.3z"/>
			<path class="st2" d="M199.3,72.5c0,0.2,0,0.3,0,0.5c-0.1,0.7-0.3,1.3-0.8,1.8s-1.1,0.7-1.8,0.7c-0.8,0-1.4-0.2-1.8-0.7
				c-0.4-0.4-0.7-1-0.8-1.8c0-0.1,0-0.2,0-0.5c0-0.3,0-0.4,0-0.5c0.1-0.7,0.3-1.3,0.8-1.8c0.5-0.4,1.1-0.7,1.8-0.7
				c0.8,0,1.4,0.2,1.8,0.7c0.5,0.4,0.7,1,0.8,1.8C199.3,72.2,199.3,72.3,199.3,72.5 M197.8,70.9c-0.3-0.3-0.6-0.4-1.1-0.4
				c-0.5,0-0.9,0.1-1.1,0.4c-0.3,0.3-0.4,0.7-0.5,1.1c0,0.1,0,0.2,0,0.5c0,0.2,0,0.4,0,0.4c0,0.5,0.2,0.8,0.5,1.1
				c0.3,0.3,0.6,0.4,1.1,0.4c0.5,0,0.9-0.1,1.1-0.4c0.3-0.3,0.4-0.7,0.5-1.1c0-0.2,0-0.3,0-0.4s0-0.3,0-0.5
				C198.3,71.6,198.1,71.2,197.8,70.9"/>
			<path class="st2" d="M203.7,69.8c0.1,0.1,0.1,0.1,0.1,0.2v0.3c0,0.1,0,0.1-0.1,0.2c-0.1,0.1-0.1,0.1-0.2,0.1h-0.6
				c-0.4,0-0.7,0.1-0.9,0.3c-0.2,0.2-0.3,0.5-0.3,0.9v3.2c0,0.1,0,0.1-0.1,0.2c-0.1,0.1-0.1,0.1-0.2,0.1h-0.4c-0.1,0-0.2,0-0.2-0.1
				c-0.1-0.1-0.1-0.1-0.1-0.2V70c0-0.1,0-0.1,0.1-0.2c0.1-0.1,0.1-0.1,0.2-0.1h0.4c0.1,0,0.1,0,0.2,0.1c0.1,0.1,0.1,0.1,0.1,0.2v0.3
				c0.1-0.2,0.3-0.4,0.5-0.5c0.2-0.1,0.5-0.2,0.8-0.2h0.6C203.6,69.7,203.7,69.7,203.7,69.8"/>
			<path class="st2" d="M208.1,77.1c0,0.1,0,0.2-0.1,0.2c-0.1,0.1-0.1,0.1-0.2,0.1h-0.4c-0.1,0-0.1,0-0.2-0.1
				c-0.1-0.1-0.1-0.1-0.1-0.2V70c0-0.1,0-0.1,0.1-0.2c0.1-0.1,0.1-0.1,0.2-0.1h0.4c0.1,0,0.2,0,0.2,0.1c0.1,0.1,0.1,0.1,0.1,0.2v0.3
				c0.4-0.5,0.9-0.7,1.7-0.7c0.5,0,0.9,0.1,1.2,0.3c0.4,0.2,0.7,0.5,0.9,0.9c0.2,0.4,0.3,0.9,0.4,1.4c0,0.1,0,0.2,0,0.3
				c0,0.2,0,0.3,0,0.4c0,0.5-0.1,1-0.4,1.4c-0.2,0.4-0.5,0.7-0.9,0.9c-0.4,0.2-0.8,0.3-1.2,0.3c-0.4,0-0.8-0.1-1-0.2
				c-0.3-0.1-0.5-0.3-0.7-0.5V77.1z M208.5,74.1c0.3,0.3,0.7,0.4,1.1,0.4c0.5,0,0.8-0.2,1.1-0.5c0.3-0.3,0.4-0.7,0.5-1.2
				c0-0.1,0-0.2,0-0.3c0-0.1,0-0.2,0-0.3c0-0.5-0.2-0.9-0.5-1.2c-0.3-0.3-0.7-0.5-1.1-0.5c-0.5,0-0.8,0.1-1.1,0.4
				c-0.3,0.3-0.4,0.7-0.5,1.1l0,0.4l0,0.4C208.1,73.4,208.2,73.8,208.5,74.1"/>
			<path class="st2" d="M217.6,70.3c0.5,0.5,0.7,1.2,0.7,2v0.3c0,0.1,0,0.1-0.1,0.2c-0.1,0.1-0.1,0.1-0.2,0.1h-3.8V73
				c0,0.5,0.2,0.9,0.4,1.1c0.3,0.3,0.6,0.4,1.1,0.4c0.4,0,0.6,0,0.8-0.1c0.2-0.1,0.4-0.2,0.5-0.4c0.1-0.1,0.1-0.1,0.2-0.1
				c0,0,0.1,0,0.2,0h0.3c0.1,0,0.2,0,0.2,0.1c0.1,0.1,0.1,0.1,0.1,0.2c0,0.2-0.1,0.4-0.3,0.6c-0.2,0.2-0.5,0.4-0.8,0.5
				c-0.3,0.1-0.8,0.2-1.2,0.2c-0.5,0-0.9-0.1-1.2-0.3c-0.4-0.2-0.7-0.5-0.9-0.9c-0.2-0.4-0.3-0.8-0.4-1.3c0-0.2,0-0.4,0-0.5
				c0-0.1,0-0.3,0-0.5c0-0.5,0.2-0.9,0.4-1.2c0.2-0.4,0.5-0.7,0.9-0.9c0.4-0.2,0.8-0.3,1.3-0.3C216.6,69.6,217.2,69.8,217.6,70.3
				 M217.3,72L217.3,72c0-0.5-0.1-0.8-0.4-1.1c-0.3-0.3-0.7-0.4-1.1-0.4c-0.4,0-0.8,0.1-1.1,0.4s-0.4,0.6-0.5,1.1v0H217.3z"/>
			<path class="st2" d="M224.5,72.5c0,0.2,0,0.3,0,0.5c-0.1,0.7-0.3,1.3-0.8,1.8c-0.4,0.4-1.1,0.7-1.8,0.7s-1.4-0.2-1.8-0.7
				c-0.4-0.4-0.7-1-0.8-1.8c0-0.1,0-0.2,0-0.5c0-0.3,0-0.4,0-0.5c0.1-0.7,0.3-1.3,0.8-1.8c0.5-0.4,1.1-0.7,1.8-0.7s1.4,0.2,1.8,0.7
				c0.5,0.4,0.7,1,0.8,1.8C224.5,72.2,224.5,72.3,224.5,72.5 M223,70.9c-0.3-0.3-0.6-0.4-1.1-0.4c-0.5,0-0.9,0.1-1.1,0.4
				c-0.3,0.3-0.4,0.7-0.5,1.1c0,0.1,0,0.2,0,0.5c0,0.2,0,0.4,0,0.4c0,0.5,0.2,0.8,0.5,1.1c0.3,0.3,0.6,0.4,1.1,0.4
				c0.5,0,0.9-0.1,1.1-0.4c0.3-0.3,0.4-0.7,0.5-1.1c0-0.2,0-0.3,0-0.4s0-0.3,0-0.5C223.4,71.6,223.3,71.2,223,70.9"/>
			<path class="st2" d="M226.8,77.1c0,0.1,0,0.2-0.1,0.2c-0.1,0.1-0.1,0.1-0.2,0.1h-0.4c-0.1,0-0.1,0-0.2-0.1
				c-0.1-0.1-0.1-0.1-0.1-0.2V70c0-0.1,0-0.1,0.1-0.2c0.1-0.1,0.1-0.1,0.2-0.1h0.4c0.1,0,0.2,0,0.2,0.1c0.1,0.1,0.1,0.1,0.1,0.2v0.3
				c0.4-0.5,0.9-0.7,1.7-0.7c0.5,0,0.9,0.1,1.2,0.3c0.4,0.2,0.7,0.5,0.9,0.9c0.2,0.4,0.3,0.9,0.4,1.4c0,0.1,0,0.2,0,0.3
				c0,0.2,0,0.3,0,0.4c0,0.5-0.1,1-0.4,1.4c-0.2,0.4-0.5,0.7-0.9,0.9c-0.4,0.2-0.8,0.3-1.2,0.3c-0.4,0-0.8-0.1-1-0.2
				c-0.3-0.1-0.5-0.3-0.7-0.5V77.1z M227.3,74.1c0.3,0.3,0.7,0.4,1.1,0.4c0.5,0,0.8-0.2,1.1-0.5c0.3-0.3,0.4-0.7,0.5-1.2
				c0-0.1,0-0.2,0-0.3c0-0.1,0-0.2,0-0.3c0-0.5-0.2-0.9-0.5-1.2c-0.3-0.3-0.7-0.5-1.1-0.5c-0.5,0-0.8,0.1-1.1,0.4
				c-0.3,0.3-0.4,0.7-0.5,1.1l0,0.4l0,0.4C226.8,73.4,227,73.8,227.3,74.1"/>
			<path class="st2" d="M233.2,75.3c-0.1,0.1-0.1,0.1-0.2,0.1h-0.4c-0.1,0-0.1,0-0.2-0.1c-0.1-0.1-0.1-0.1-0.1-0.2v-7.2
				c0-0.1,0-0.1,0.1-0.2c0.1-0.1,0.1-0.1,0.2-0.1h0.4c0.1,0,0.1,0,0.2,0.1c0.1,0.1,0.1,0.1,0.1,0.2v7.2
				C233.3,75.1,233.3,75.2,233.2,75.3"/>
			<path class="st2" d="M239,70.3c0.5,0.5,0.7,1.2,0.7,2v0.3c0,0.1,0,0.1-0.1,0.2c-0.1,0.1-0.1,0.1-0.2,0.1h-3.8V73
				c0,0.5,0.2,0.9,0.4,1.1c0.3,0.3,0.6,0.4,1.1,0.4c0.4,0,0.6,0,0.8-0.1c0.2-0.1,0.4-0.2,0.5-0.4c0.1-0.1,0.1-0.1,0.2-0.1
				c0,0,0.1,0,0.2,0h0.3c0.1,0,0.2,0,0.2,0.1c0.1,0.1,0.1,0.1,0.1,0.2c0,0.2-0.1,0.4-0.3,0.6c-0.2,0.2-0.5,0.4-0.8,0.5
				c-0.3,0.1-0.8,0.2-1.2,0.2c-0.5,0-0.9-0.1-1.2-0.3c-0.4-0.2-0.7-0.5-0.9-0.9c-0.2-0.4-0.3-0.8-0.4-1.3c0-0.2,0-0.4,0-0.5
				c0-0.1,0-0.3,0-0.5c0-0.5,0.2-0.9,0.4-1.2c0.2-0.4,0.5-0.7,0.9-0.9c0.4-0.2,0.8-0.3,1.3-0.3C237.9,69.6,238.5,69.8,239,70.3
				 M238.7,72L238.7,72c0-0.5-0.1-0.8-0.4-1.1c-0.3-0.3-0.7-0.4-1.1-0.4c-0.4,0-0.8,0.1-1.1,0.4s-0.4,0.6-0.5,1.1v0H238.7z"/>
			<path class="st2" d="M249.5,71.4c0.1,0,0.1,0,0.2,0.1c0,0.1,0.1,0.1,0.1,0.2c0,0.3-0.1,0.7-0.2,1.1c-0.1,0.4-0.3,0.8-0.6,1.2
				L250,75c0,0,0.1,0.1,0.1,0.2c0,0.1,0,0.1-0.1,0.1c0,0-0.1,0.1-0.1,0.1h-0.8c-0.1,0-0.1,0-0.2,0c0,0-0.1,0-0.1-0.1l-0.6-0.6
				c-0.6,0.5-1.4,0.8-2.3,0.8c-0.5,0-0.9-0.1-1.3-0.2c-0.4-0.2-0.7-0.4-0.9-0.7c-0.2-0.3-0.3-0.7-0.3-1.1c0-0.4,0.1-0.8,0.4-1.2
				c0.3-0.3,0.6-0.7,1.1-1c-0.4-0.4-0.7-0.8-0.8-1c-0.1-0.3-0.2-0.6-0.2-0.9c0-0.4,0.1-0.7,0.3-1c0.2-0.3,0.5-0.5,0.8-0.6
				c0.3-0.1,0.6-0.2,1-0.2c0.3,0,0.6,0.1,0.9,0.2c0.3,0.1,0.6,0.4,0.8,0.6c0.2,0.3,0.3,0.6,0.3,0.9c0,0.4-0.1,0.8-0.4,1.1
				c-0.2,0.3-0.6,0.7-1.1,1l1.7,1.6c0.2-0.4,0.4-0.9,0.6-1.5c0-0.1,0-0.1,0.1-0.2c0.1,0,0.1-0.1,0.2-0.1H249.5z M245.6,72
				c-0.4,0.2-0.7,0.5-0.9,0.7c-0.2,0.2-0.3,0.5-0.3,0.7c0,0.3,0.2,0.6,0.5,0.8c0.3,0.2,0.7,0.3,1,0.3c0.6,0,1.1-0.2,1.6-0.6
				L245.6,72z M246.6,70.1c0.2-0.2,0.3-0.5,0.3-0.7c0-0.2-0.1-0.4-0.3-0.6c-0.2-0.2-0.4-0.3-0.7-0.3c-0.3,0-0.5,0.1-0.7,0.2
				c-0.2,0.2-0.3,0.4-0.3,0.6c0,0.2,0.1,0.4,0.2,0.6c0.1,0.2,0.3,0.4,0.7,0.8C246.1,70.6,246.3,70.3,246.6,70.1"/>
			<path class="st2" d="M253.8,68c0-0.1,0-0.2,0.1-0.2c0.1-0.1,0.1-0.1,0.2-0.1h2.9c0.6,0,1,0.1,1.4,0.3s0.6,0.5,0.8,0.8
				c0.2,0.3,0.2,0.6,0.2,0.9c0,0.4-0.1,0.7-0.3,1c-0.2,0.2-0.4,0.4-0.6,0.6c0.3,0.2,0.6,0.5,0.7,0.8c0.2,0.3,0.3,0.7,0.3,1.1
				c0,0.4-0.1,0.7-0.3,1.1c-0.2,0.3-0.5,0.6-0.8,0.8c-0.4,0.2-0.8,0.3-1.3,0.3h-3.1c-0.1,0-0.1,0-0.2-0.1s-0.1-0.1-0.1-0.2V68z
				 M254.8,70.9h2.1c0.5,0,0.8-0.1,1.1-0.3c0.2-0.2,0.4-0.5,0.4-0.8s-0.1-0.6-0.4-0.8c-0.2-0.2-0.6-0.3-1.1-0.3h-2.1V70.9z
				 M254.8,74.4h2.2c0.5,0,0.8-0.1,1.1-0.4c0.3-0.2,0.4-0.5,0.4-0.9c0-0.4-0.1-0.7-0.4-0.9s-0.6-0.4-1.1-0.4h-2.2V74.4z"/>
			<path class="st2" d="M261.9,68.7c-0.1,0.1-0.1,0.1-0.2,0.1h-0.6c-0.1,0-0.1,0-0.2-0.1c-0.1-0.1-0.1-0.1-0.1-0.2v-0.6
				c0-0.1,0-0.1,0.1-0.2c0.1-0.1,0.1-0.1,0.2-0.1h0.6c0.1,0,0.1,0,0.2,0.1c0.1,0.1,0.1,0.1,0.1,0.2v0.6
				C262,68.6,262,68.7,261.9,68.7 M261.8,75.3c-0.1,0.1-0.1,0.1-0.2,0.1h-0.4c-0.1,0-0.1,0-0.2-0.1c-0.1-0.1-0.1-0.1-0.1-0.2V70
				c0-0.1,0-0.1,0.1-0.2c0.1-0.1,0.1-0.1,0.2-0.1h0.4c0.1,0,0.1,0,0.2,0.1c0.1,0.1,0.1,0.1,0.1,0.2v5.1
				C261.9,75.1,261.9,75.2,261.8,75.3"/>
			<path class="st2" d="M266.7,69.8c0.3,0.1,0.5,0.3,0.7,0.5V70c0-0.1,0-0.1,0.1-0.2c0.1-0.1,0.1-0.1,0.2-0.1h0.4
				c0.1,0,0.1,0,0.2,0.1c0.1,0.1,0.1,0.1,0.1,0.2v5.3c0,0.8-0.2,1.4-0.7,1.8c-0.4,0.4-1.1,0.7-1.9,0.7c-0.5,0-1-0.1-1.4-0.2
				c-0.4-0.2-0.6-0.4-0.8-0.6c-0.2-0.2-0.3-0.5-0.3-0.8c0-0.1,0-0.1,0.1-0.2c0.1-0.1,0.1-0.1,0.2-0.1h0.3c0.1,0,0.2,0,0.2,0.1
				c0.1,0,0.1,0.1,0.2,0.2c0.1,0.2,0.2,0.3,0.4,0.5c0.2,0.1,0.5,0.2,1,0.2c1.1,0,1.7-0.5,1.7-1.4v-0.7c-0.4,0.5-0.9,0.7-1.7,0.7
				c-0.5,0-0.9-0.1-1.2-0.3c-0.4-0.2-0.7-0.5-0.9-0.9c-0.2-0.4-0.3-0.8-0.4-1.4l0-0.4l0-0.4c0-0.5,0.1-1,0.4-1.4
				c0.2-0.4,0.5-0.7,0.9-0.9c0.4-0.2,0.8-0.3,1.2-0.3C266.1,69.6,266.4,69.6,266.7,69.8 M264.7,71c-0.3,0.3-0.4,0.7-0.5,1.2l0,0.3
				l0,0.3c0,0.5,0.2,0.9,0.5,1.2c0.3,0.3,0.7,0.5,1.1,0.5c0.5,0,0.8-0.1,1.1-0.4c0.3-0.3,0.4-0.7,0.5-1.2c0-0.1,0-0.2,0-0.4
				c0-0.2,0-0.3,0-0.4c0-0.5-0.2-0.9-0.5-1.2c-0.3-0.3-0.7-0.4-1.1-0.4C265.3,70.5,264.9,70.7,264.7,71"/>
			<path class="st2" d="M278.2,74c-0.3,0.4-0.6,0.8-1.1,1c-0.5,0.2-1,0.4-1.6,0.4H273c-0.1,0-0.1,0-0.2-0.1
				c-0.1-0.1-0.1-0.1-0.1-0.2V68c0-0.1,0-0.2,0.1-0.2c0.1-0.1,0.1-0.1,0.2-0.1h2.5c0.6,0,1.1,0.1,1.6,0.4s0.8,0.6,1.1,1
				c0.3,0.4,0.4,1,0.4,1.6c0,0.2,0,0.5,0,0.9c0,0.4,0,0.6,0,0.9C278.6,73,278.5,73.5,278.2,74 M273.7,68.7v5.7h1.8
				c0.7,0,1.3-0.2,1.6-0.6c0.3-0.4,0.5-0.9,0.5-1.5c0-0.2,0-0.5,0-0.8s0-0.6,0-0.8c0-0.6-0.2-1.1-0.5-1.5c-0.3-0.4-0.9-0.6-1.6-0.6
				H273.7z"/>
			<path class="st2" d="M283.4,71.8v-0.1c0-0.4-0.1-0.6-0.4-0.8c-0.2-0.2-0.5-0.3-0.9-0.3c-0.3,0-0.5,0-0.7,0.1
				c-0.2,0.1-0.3,0.2-0.5,0.4c0,0.1-0.1,0.1-0.1,0.1c-0.1,0-0.1,0-0.2,0h-0.3c-0.1,0-0.2,0-0.2-0.1C280,71.1,280,71,280,71
				c0-0.2,0.1-0.4,0.3-0.6c0.2-0.2,0.4-0.4,0.8-0.5c0.3-0.1,0.7-0.2,1-0.2c0.7,0,1.2,0.2,1.6,0.6c0.4,0.4,0.6,0.9,0.6,1.6v3.3
				c0,0.1,0,0.1-0.1,0.2c-0.1,0.1-0.1,0.1-0.2,0.1h-0.4c-0.1,0-0.1,0-0.2-0.1c-0.1-0.1-0.1-0.1-0.1-0.2v-0.4
				c-0.1,0.3-0.4,0.5-0.7,0.6c-0.4,0.2-0.8,0.2-1.1,0.2c-0.4,0-0.7-0.1-1-0.2c-0.3-0.1-0.5-0.3-0.7-0.6c-0.2-0.2-0.2-0.5-0.2-0.8
				c0-0.5,0.2-1,0.6-1.3c0.4-0.3,1-0.5,1.6-0.6L283.4,71.8z M283.4,72.6l-1.3,0.2c-0.5,0.1-0.8,0.2-1.1,0.4
				c-0.3,0.2-0.4,0.4-0.4,0.6c0,0.2,0.1,0.3,0.3,0.5c0.2,0.1,0.4,0.2,0.8,0.2c0.5,0,1-0.2,1.3-0.4c0.3-0.3,0.5-0.7,0.5-1.2V72.6z"/>
			<path class="st2" d="M287.6,74.2c0.1,0.2,0.4,0.3,0.7,0.3h0.6c0.1,0,0.1,0,0.2,0.1c0.1,0.1,0.1,0.1,0.1,0.2v0.3
				c0,0.1,0,0.1-0.1,0.2c-0.1,0.1-0.1,0.1-0.2,0.1h-0.7c-0.6,0-1.1-0.2-1.4-0.5c-0.3-0.3-0.4-0.8-0.4-1.4v-2.8h-0.8
				c-0.1,0-0.1,0-0.2-0.1c-0.1-0.1-0.1-0.1-0.1-0.2V70c0-0.1,0-0.1,0.1-0.2c0.1-0.1,0.1-0.1,0.2-0.1h0.8v-1.8c0-0.1,0-0.1,0.1-0.2
				c0.1-0.1,0.1-0.1,0.2-0.1h0.4c0.1,0,0.1,0,0.2,0.1c0.1,0.1,0.1,0.1,0.1,0.2v1.8h1.4c0.1,0,0.1,0,0.2,0.1c0.1,0.1,0.1,0.1,0.1,0.2
				v0.3c0,0.1,0,0.1-0.1,0.2c-0.1,0.1-0.1,0.1-0.2,0.1h-1.4v2.8C287.4,73.8,287.4,74,287.6,74.2"/>
			<path class="st2" d="M293.6,71.8v-0.1c0-0.4-0.1-0.6-0.4-0.8c-0.2-0.2-0.5-0.3-0.9-0.3c-0.3,0-0.5,0-0.7,0.1
				c-0.2,0.1-0.3,0.2-0.5,0.4c0,0.1-0.1,0.1-0.1,0.1c-0.1,0-0.1,0-0.2,0h-0.3c-0.1,0-0.2,0-0.2-0.1c-0.1-0.1-0.1-0.1-0.1-0.2
				c0-0.2,0.1-0.4,0.3-0.6c0.2-0.2,0.5-0.4,0.8-0.5c0.3-0.1,0.7-0.2,1-0.2c0.7,0,1.2,0.2,1.6,0.6c0.4,0.4,0.6,0.9,0.6,1.6v3.3
				c0,0.1,0,0.1-0.1,0.2c-0.1,0.1-0.1,0.1-0.2,0.1h-0.4c-0.1,0-0.1,0-0.2-0.1c-0.1-0.1-0.1-0.1-0.1-0.2v-0.4
				c-0.1,0.3-0.4,0.5-0.7,0.6c-0.4,0.2-0.8,0.2-1.1,0.2c-0.4,0-0.7-0.1-1-0.2c-0.3-0.1-0.5-0.3-0.7-0.6c-0.2-0.2-0.2-0.5-0.2-0.8
				c0-0.5,0.2-1,0.6-1.3c0.4-0.3,1-0.5,1.6-0.6L293.6,71.8z M293.6,72.6l-1.3,0.2c-0.5,0.1-0.8,0.2-1.1,0.4
				c-0.3,0.2-0.4,0.4-0.4,0.6c0,0.2,0.1,0.3,0.3,0.5c0.2,0.1,0.4,0.2,0.8,0.2c0.5,0,1-0.2,1.3-0.4c0.3-0.3,0.5-0.7,0.5-1.2V72.6z"/>
			<path class="st2" d="M301.5,69.7c0.1,0,0.1,0,0.2,0.1c0.1,0.1,0.1,0.1,0.1,0.2v0.3c0,0.1,0,0.1-0.1,0.2c-0.1,0.1-0.1,0.1-0.2,0.1
				h-1.4v4.4c0,0.1,0,0.1-0.1,0.2c-0.1,0.1-0.1,0.1-0.2,0.1h-0.4c-0.1,0-0.1,0-0.2-0.1c-0.1-0.1-0.1-0.1-0.1-0.2v-4.4h-0.9
				c-0.1,0-0.1,0-0.2-0.1c-0.1-0.1-0.1-0.1-0.1-0.2V70c0-0.1,0-0.1,0.1-0.2c0.1-0.1,0.1-0.1,0.2-0.1h0.9v-0.5c0-0.6,0.1-1.1,0.4-1.4
				c0.3-0.3,0.7-0.5,1.4-0.5h0.7c0.1,0,0.1,0,0.2,0.1c0.1,0.1,0.1,0.1,0.1,0.2v0.3c0,0.1,0,0.2-0.1,0.2c-0.1,0.1-0.1,0.1-0.2,0.1
				H301c-0.4,0-0.6,0.1-0.7,0.3s-0.2,0.4-0.2,0.7v0.5H301.5z"/>
			<path class="st2" d="M307.5,72.5c0,0.2,0,0.3,0,0.5c-0.1,0.7-0.3,1.3-0.8,1.8s-1.1,0.7-1.8,0.7c-0.8,0-1.4-0.2-1.8-0.7
				c-0.4-0.4-0.7-1-0.8-1.8c0-0.1,0-0.2,0-0.5c0-0.3,0-0.4,0-0.5c0.1-0.7,0.3-1.3,0.8-1.8c0.5-0.4,1.1-0.7,1.8-0.7
				c0.8,0,1.4,0.2,1.8,0.7c0.5,0.4,0.7,1,0.8,1.8C307.5,72.2,307.5,72.3,307.5,72.5 M306,70.9c-0.3-0.3-0.6-0.4-1.1-0.4
				s-0.9,0.1-1.1,0.4c-0.3,0.3-0.4,0.7-0.5,1.1c0,0.1,0,0.2,0,0.5c0,0.2,0,0.4,0,0.4c0,0.5,0.2,0.8,0.5,1.1c0.3,0.3,0.6,0.4,1.1,0.4
				s0.9-0.1,1.1-0.4c0.3-0.3,0.4-0.7,0.5-1.1c0-0.2,0-0.3,0-0.4s0-0.3,0-0.5C306.5,71.6,306.3,71.2,306,70.9"/>
			<path class="st2" d="M311.9,69.8c0.1,0.1,0.1,0.1,0.1,0.2v0.3c0,0.1,0,0.1-0.1,0.2c-0.1,0.1-0.1,0.1-0.2,0.1h-0.6
				c-0.4,0-0.7,0.1-0.9,0.3c-0.2,0.2-0.3,0.5-0.3,0.9v3.2c0,0.1,0,0.1-0.1,0.2c-0.1,0.1-0.1,0.1-0.2,0.1h-0.4c-0.1,0-0.1,0-0.2-0.1
				c-0.1-0.1-0.1-0.1-0.1-0.2V70c0-0.1,0-0.1,0.1-0.2c0.1-0.1,0.1-0.1,0.2-0.1h0.4c0.1,0,0.1,0,0.2,0.1c0.1,0.1,0.1,0.1,0.1,0.2v0.3
				c0.1-0.2,0.3-0.4,0.5-0.5c0.2-0.1,0.5-0.2,0.8-0.2h0.6C311.8,69.7,311.9,69.7,311.9,69.8"/>
			<path class="st2" d="M320.4,72.5c0,0.2,0,0.3,0,0.4c0,0.5-0.1,1-0.4,1.4c-0.2,0.4-0.5,0.7-0.9,0.9c-0.4,0.2-0.8,0.3-1.2,0.3
				c-0.8,0-1.3-0.2-1.7-0.7v0.3c0,0.1,0,0.2-0.1,0.2c-0.1,0.1-0.1,0.1-0.2,0.1h-0.4c-0.1,0-0.1,0-0.2-0.1c-0.1-0.1-0.1-0.1-0.1-0.2
				v-7.2c0-0.1,0-0.1,0.1-0.2c0.1-0.1,0.1-0.1,0.2-0.1h0.4c0.1,0,0.2,0,0.2,0.1c0.1,0.1,0.1,0.1,0.1,0.2v2.4
				c0.2-0.2,0.4-0.4,0.7-0.5c0.3-0.1,0.6-0.2,1-0.2c0.5,0,0.9,0.1,1.2,0.3c0.4,0.2,0.7,0.5,0.9,0.9c0.2,0.4,0.3,0.8,0.4,1.4
				C320.4,72.2,320.4,72.3,320.4,72.5 M319,74.1c0.3-0.3,0.4-0.7,0.5-1.2c0-0.1,0-0.2,0-0.3c0-0.6-0.1-1.1-0.4-1.5
				c-0.3-0.4-0.7-0.5-1.2-0.5c-0.5,0-0.8,0.1-1.1,0.4c-0.3,0.3-0.4,0.7-0.5,1.2c0,0.1,0,0.2,0,0.4c0,0.2,0,0.4,0,0.4
				c0,0.5,0.2,0.8,0.5,1.1c0.3,0.3,0.7,0.4,1.1,0.4C318.3,74.5,318.7,74.4,319,74.1"/>
			<path class="st2" d="M321.8,69.8c0.1-0.1,0.1-0.1,0.2-0.1h0.4c0.1,0,0.1,0,0.2,0.1c0.1,0.1,0.1,0.1,0.1,0.2v2.9
				c0,0.6,0.1,1,0.4,1.3c0.3,0.3,0.6,0.4,1.1,0.4c0.5,0,0.8-0.1,1.1-0.4c0.3-0.3,0.4-0.7,0.4-1.2V70c0-0.1,0-0.1,0.1-0.2
				c0.1-0.1,0.1-0.1,0.2-0.1h0.4c0.1,0,0.1,0,0.2,0.1c0.1,0.1,0.1,0.1,0.1,0.2v5.1c0,0.1,0,0.1-0.1,0.2c-0.1,0.1-0.1,0.1-0.2,0.1
				h-0.4c-0.1,0-0.1,0-0.2-0.1c-0.1-0.1-0.1-0.1-0.1-0.2v-0.3c-0.4,0.5-0.9,0.7-1.6,0.7c-0.7,0-1.3-0.2-1.7-0.7
				c-0.4-0.4-0.6-1-0.6-1.8v-3C321.7,69.9,321.7,69.8,321.8,69.8"/>
			<path class="st2" d="M328,71.2c0-0.3,0.1-0.6,0.2-0.8c0.2-0.2,0.4-0.4,0.7-0.6c0.3-0.1,0.7-0.2,1.2-0.2c0.5,0,0.8,0.1,1.2,0.2
				c0.3,0.1,0.6,0.3,0.7,0.5c0.2,0.2,0.3,0.4,0.3,0.6c0,0.1,0,0.1-0.1,0.2c-0.1,0.1-0.1,0.1-0.2,0.1h-0.4c-0.1,0-0.2-0.1-0.3-0.2
				c-0.2-0.3-0.6-0.4-1.2-0.4c-0.3,0-0.6,0.1-0.8,0.2c-0.2,0.1-0.3,0.3-0.3,0.5c0,0.2,0,0.3,0.2,0.4c0.1,0.1,0.3,0.2,0.5,0.2
				c0.2,0.1,0.6,0.1,1.1,0.3c0.6,0.1,1.1,0.4,1.4,0.6c0.3,0.3,0.4,0.6,0.4,1c0,0.3-0.1,0.6-0.3,0.8c-0.2,0.3-0.5,0.5-0.8,0.6
				c-0.3,0.2-0.7,0.2-1.2,0.2c-0.5,0-0.9-0.1-1.2-0.2c-0.3-0.1-0.6-0.3-0.8-0.5c-0.2-0.2-0.3-0.4-0.3-0.6c0-0.1,0-0.1,0.1-0.2
				c0.1-0.1,0.1-0.1,0.2-0.1h0.4c0.1,0,0.1,0,0.2,0c0.1,0,0.1,0.1,0.1,0.1c0.2,0.3,0.7,0.5,1.3,0.5c0.3,0,0.6-0.1,0.9-0.2
				c0.3-0.1,0.4-0.3,0.4-0.5c0-0.2-0.1-0.3-0.2-0.4c-0.1-0.1-0.3-0.2-0.6-0.3c-0.2-0.1-0.6-0.2-1.1-0.3
				C328.5,72.6,328,72.1,328,71.2"/>
			<path class="st2" d="M334.7,68.7c-0.1,0.1-0.1,0.1-0.2,0.1h-0.6c-0.1,0-0.1,0-0.2-0.1c-0.1-0.1-0.1-0.1-0.1-0.2v-0.6
				c0-0.1,0-0.1,0.1-0.2c0.1-0.1,0.1-0.1,0.2-0.1h0.6c0.1,0,0.1,0,0.2,0.1c0.1,0.1,0.1,0.1,0.1,0.2v0.6
				C334.8,68.6,334.8,68.7,334.7,68.7 M334.6,75.3c-0.1,0.1-0.1,0.1-0.2,0.1H334c-0.1,0-0.1,0-0.2-0.1c-0.1-0.1-0.1-0.1-0.1-0.2V70
				c0-0.1,0-0.1,0.1-0.2c0.1-0.1,0.1-0.1,0.2-0.1h0.4c0.1,0,0.1,0,0.2,0.1c0.1,0.1,0.1,0.1,0.1,0.2v5.1
				C334.7,75.1,334.7,75.2,334.6,75.3"/>
			<path class="st2" d="M341.2,75.3c-0.1,0.1-0.1,0.1-0.2,0.1h-0.4c-0.1,0-0.1,0-0.2-0.1c-0.1-0.1-0.1-0.1-0.1-0.2v-2.9
				c0-0.5-0.1-1-0.4-1.2c-0.3-0.3-0.6-0.4-1.1-0.4c-0.5,0-0.8,0.1-1.1,0.4c-0.3,0.3-0.4,0.7-0.4,1.2v2.9c0,0.1,0,0.1-0.1,0.2
				c-0.1,0.1-0.1,0.1-0.2,0.1h-0.4c-0.1,0-0.1,0-0.2-0.1c-0.1-0.1-0.1-0.1-0.1-0.2V70c0-0.1,0-0.1,0.1-0.2c0.1-0.1,0.1-0.1,0.2-0.1
				h0.4c0.1,0,0.1,0,0.2,0.1c0.1,0.1,0.1,0.1,0.1,0.2v0.3c0.2-0.2,0.4-0.4,0.7-0.5c0.3-0.1,0.6-0.2,1-0.2c0.5,0,0.9,0.1,1.2,0.3
				c0.4,0.2,0.6,0.5,0.8,0.8c0.2,0.4,0.3,0.8,0.3,1.3v3C341.3,75.1,341.3,75.2,341.2,75.3"/>
			<path class="st2" d="M346.9,70.3c0.5,0.5,0.7,1.2,0.7,2v0.3c0,0.1,0,0.1-0.1,0.2c-0.1,0.1-0.1,0.1-0.2,0.1h-3.8V73
				c0,0.5,0.2,0.9,0.4,1.1c0.3,0.3,0.6,0.4,1.1,0.4c0.4,0,0.6,0,0.8-0.1c0.2-0.1,0.4-0.2,0.5-0.4c0.1-0.1,0.1-0.1,0.2-0.1
				c0,0,0.1,0,0.2,0h0.3c0.1,0,0.2,0,0.2,0.1c0.1,0.1,0.1,0.1,0.1,0.2c0,0.2-0.1,0.4-0.3,0.6c-0.2,0.2-0.5,0.4-0.8,0.5
				c-0.3,0.1-0.8,0.2-1.2,0.2c-0.5,0-0.9-0.1-1.2-0.3c-0.4-0.2-0.7-0.5-0.9-0.9c-0.2-0.4-0.3-0.8-0.4-1.3c0-0.2,0-0.4,0-0.5
				c0-0.1,0-0.3,0-0.5c0-0.5,0.2-0.9,0.4-1.2c0.2-0.4,0.5-0.7,0.9-0.9c0.4-0.2,0.8-0.3,1.3-0.3C345.9,69.6,346.5,69.8,346.9,70.3
				 M346.6,72L346.6,72c0-0.5-0.1-0.8-0.4-1.1c-0.3-0.3-0.7-0.4-1.1-0.4c-0.4,0-0.8,0.1-1.1,0.4c-0.3,0.3-0.4,0.6-0.5,1.1v0H346.6z"
				/>
			<path class="st2" d="M348.6,71.2c0-0.3,0.1-0.6,0.2-0.8c0.2-0.2,0.4-0.4,0.7-0.6c0.3-0.1,0.7-0.2,1.2-0.2c0.5,0,0.8,0.1,1.2,0.2
				c0.3,0.1,0.6,0.3,0.7,0.5c0.2,0.2,0.3,0.4,0.3,0.6c0,0.1,0,0.1-0.1,0.2c-0.1,0.1-0.1,0.1-0.2,0.1h-0.4c-0.1,0-0.2-0.1-0.3-0.2
				c-0.2-0.3-0.6-0.4-1.2-0.4c-0.3,0-0.6,0.1-0.8,0.2c-0.2,0.1-0.3,0.3-0.3,0.5c0,0.2,0.1,0.3,0.2,0.4c0.1,0.1,0.3,0.2,0.5,0.2
				c0.2,0.1,0.6,0.1,1.1,0.3c0.6,0.1,1.1,0.4,1.4,0.6c0.3,0.3,0.4,0.6,0.4,1c0,0.3-0.1,0.6-0.3,0.8c-0.2,0.3-0.5,0.5-0.8,0.6
				c-0.3,0.2-0.7,0.2-1.2,0.2c-0.5,0-0.9-0.1-1.2-0.2c-0.3-0.1-0.6-0.3-0.8-0.5c-0.2-0.2-0.3-0.4-0.3-0.6c0-0.1,0-0.1,0.1-0.2
				c0.1-0.1,0.1-0.1,0.2-0.1h0.4c0.1,0,0.1,0,0.2,0c0.1,0,0.1,0.1,0.1,0.1c0.2,0.3,0.7,0.5,1.3,0.5c0.3,0,0.6-0.1,0.9-0.2
				c0.3-0.1,0.4-0.3,0.4-0.5c0-0.2-0.1-0.3-0.2-0.4c-0.1-0.1-0.3-0.2-0.6-0.3c-0.2-0.1-0.6-0.2-1.1-0.3
				C349.2,72.6,348.6,72.1,348.6,71.2"/>
			<path class="st2" d="M354.1,71.2c0-0.3,0.1-0.6,0.2-0.8c0.2-0.2,0.4-0.4,0.7-0.6c0.3-0.1,0.7-0.2,1.2-0.2c0.5,0,0.8,0.1,1.2,0.2
				c0.3,0.1,0.6,0.3,0.7,0.5c0.2,0.2,0.3,0.4,0.3,0.6c0,0.1,0,0.1-0.1,0.2c-0.1,0.1-0.1,0.1-0.2,0.1h-0.4c-0.1,0-0.2-0.1-0.3-0.2
				c-0.2-0.3-0.6-0.4-1.2-0.4c-0.3,0-0.6,0.1-0.8,0.2c-0.2,0.1-0.3,0.3-0.3,0.5c0,0.2,0,0.3,0.2,0.4c0.1,0.1,0.3,0.2,0.5,0.2
				c0.2,0.1,0.6,0.1,1.1,0.3c0.6,0.1,1.1,0.4,1.4,0.6c0.3,0.3,0.4,0.6,0.4,1c0,0.3-0.1,0.6-0.3,0.8c-0.2,0.3-0.5,0.5-0.8,0.6
				c-0.3,0.2-0.7,0.2-1.2,0.2c-0.5,0-0.9-0.1-1.2-0.2c-0.3-0.1-0.6-0.3-0.8-0.5c-0.2-0.2-0.3-0.4-0.3-0.6c0-0.1,0-0.1,0.1-0.2
				c0.1-0.1,0.1-0.1,0.2-0.1h0.4c0.1,0,0.1,0,0.2,0c0.1,0,0.1,0.1,0.1,0.1c0.2,0.3,0.7,0.5,1.3,0.5c0.3,0,0.6-0.1,0.9-0.2
				c0.3-0.1,0.4-0.3,0.4-0.5c0-0.2-0.1-0.3-0.2-0.4c-0.1-0.1-0.3-0.2-0.6-0.3c-0.2-0.1-0.6-0.2-1.1-0.3
				C354.6,72.6,354.1,72.1,354.1,71.2"/>
		</g>
	</g>
</g>
</svg>
