<?xml version="1.0" encoding="UTF-8" standalone="no"?>
<svg width="120px" height="13px" viewBox="0 0 120 13" version="1.1" xmlns="http://www.w3.org/2000/svg" xmlns:xlink="http://www.w3.org/1999/xlink">
    <!-- Generator: Sketch 46.2 (44496) - http://www.bohemiancoding.com/sketch -->
    <title>logo</title>
    <desc>Created with Sketch.</desc>
    <defs>
        <polygon id="path-1" points="12.5155454 12.3157895 0.0144166989 12.3157895 0.0144166989 0.157878947 12.5155454 0.157878947 12.5155454 12.3157895"></polygon>
        <polygon id="path-3" points="9.26024408 0.157736842 0.416482412 0.157736842 0.416482412 12.3156947 9.26024408 12.3156947"></polygon>
        <polygon id="path-5" points="0.265115578 12.3157895 8.97114573 12.3157895 8.97114573 0.158068421 0.265115578 0.158068421 0.265115578 12.3157895"></polygon>
        <polygon id="path-7" points="0.415104092 12.3157895 9.25909548 12.3157895 9.25909548 0.157973684 0.415104092 0.157973684 0.415104092 12.3157895"></polygon>
    </defs>
    <g id="design-1440" stroke="none" stroke-width="1" fill="none" fill-rule="evenodd">
        <g id="mm-landing-1440" transform="translate(-662.000000, -5669.000000)">
            <g id="logo" transform="translate(662.000000, 5669.000000)">
                <g>
                    <g id="Group-3" transform="translate(73.567839, 0.000000)">
                        <mask id="mask-2" fill="white">
                            <use xlink:href="#path-1"></use>
                        </mask>
                        <g id="Clip-2"></g>
                        <path d="M8.47594743,8.38719474 C9.08524778,7.79461579 9.39014148,7.07745789 9.39014148,6.23666842 C9.39014148,5.39587895 9.08524778,4.67872105 8.47594743,4.08614211 C7.86664708,3.49356316 7.12876537,3.19751053 6.26522458,3.19751053 C5.40022265,3.19751053 4.66331504,3.49356316 4.05352764,4.08614211 C3.44422729,4.67872105 3.13982064,5.39587895 3.13982064,6.23666842 C3.13982064,7.07745789 3.44422729,7.79461579 4.05352764,8.38719474 C4.66331504,8.97977368 5.40022265,9.2763 6.26522458,9.2763 C7.12876537,9.2763 7.86664708,8.97977368 8.47594743,8.38719474 M6.26522458,12.3159316 C4.54057828,12.3159316 3.06773715,11.7219316 1.8467012,10.5339316 C0.625178199,9.34593158 0.0144166989,7.91351053 0.0144166989,6.23666842 C0.0144166989,4.5603 0.625178199,3.12740526 1.8467012,1.93987895 C3.06773715,0.751405263 4.54057828,0.157878947 6.26522458,0.157878947 C7.98889679,0.157878947 9.46125087,0.751405263 10.6827739,1.93987895 C11.9047839,3.12740526 12.5155454,4.5603 12.5155454,6.23666842 C12.5155454,7.91351053 11.9047839,9.34593158 10.6827739,10.5339316 C9.46125087,11.7219316 7.98889679,12.3159316 6.26522458,12.3159316" id="Fill-1" fill="#FEFEFE" mask="url(#mask-2)"></path>
                    </g>
                    <g id="Group-6" transform="translate(86.834171, 0.000000)">
                        <mask id="mask-4" fill="white">
                            <use xlink:href="#path-3"></use>
                        </mask>
                        <g id="Clip-5"></g>
                        <path d="M6.31247667,6.00906316 L6.31247667,1.67769474 C6.31247667,1.25706316 6.45628141,0.898957895 6.74343144,0.602431579 C7.03058148,0.305905263 7.3783776,0.157642105 7.78681981,0.157642105 C8.1938837,0.157642105 8.54213927,0.305905263 8.8292893,0.602431579 C9.11689878,0.898957895 9.26024408,1.25706316 9.26024408,1.67769474 L9.26024408,10.7956421 C9.26024408,11.2162737 9.11689878,11.5748526 8.8292893,11.8713789 C8.54213927,12.1674316 8.1938837,12.3156947 7.78681981,12.3156947 C7.3783776,12.3156947 7.0319598,12.1664842 6.74710696,11.8675895 C6.64878679,11.7709579 6.56838478,11.6676947 6.50406317,11.5559053 L6.49671213,11.5559053 L3.36470926,6.46474737 L3.36470926,10.7956421 C3.36470926,11.2162737 3.22090452,11.5748526 2.93375449,11.8713789 C2.64614501,12.1674316 2.29880833,12.3156947 1.88990668,12.3156947 C1.48192391,12.3156947 1.13458722,12.1674316 0.847437186,11.8713789 C0.55982771,11.5748526 0.416482412,11.2162737 0.416482412,10.7956421 L0.416482412,1.67769474 C0.416482412,1.25706316 0.55982771,0.898957895 0.847437186,0.602431579 C1.13458722,0.305905263 1.48192391,0.157642105 1.88990668,0.157642105 C2.29880833,0.157642105 2.64660445,0.304957895 2.93697057,0.598642105 C3.02977746,0.700010526 3.10880115,0.806115789 3.17266332,0.917431579 L3.1804738,0.917431579 L6.31247667,6.00906316 Z" id="Fill-4" fill="#FEFEFE" mask="url(#mask-4)"></path>
                    </g>
                    <g id="Group-9" transform="translate(98.894472, 0.000000)">
                        <mask id="mask-6" fill="white">
                            <use xlink:href="#path-5"></use>
                        </mask>
                        <g id="Clip-8"></g>
                        <path d="M6.06898492,4.71727895 C6.47059296,4.71727895 6.81250251,4.86506842 7.09561809,5.16159474 C7.37873367,5.45764737 7.52029146,5.81622632 7.52029146,6.23685789 C7.52029146,6.65748947 7.37873367,7.01559474 7.09561809,7.31212105 C6.81250251,7.60817368 6.47059296,7.75643684 6.06898492,7.75643684 L3.16727638,7.75643684 L3.16727638,9.27648947 L7.52029146,9.27648947 C7.92144724,9.27648947 8.26380905,9.42427895 8.54692462,9.72080526 C8.82958794,10.0168579 8.97114573,10.3754368 8.97114573,10.7960684 C8.97114573,11.2162263 8.82958794,11.5748053 8.54692462,11.8713316 C8.26380905,12.1678579 7.92144724,12.3161211 7.52029146,12.3161211 L1.71642211,12.3161211 C1.31436181,12.3161211 0.972452261,12.1678579 0.689336683,11.8713316 C0.406673367,11.5748053 0.265115578,11.2162263 0.265115578,10.7960684 L0.265115578,1.67764737 C0.265115578,1.25701579 0.406673367,0.898910526 0.689336683,0.602384211 C0.972452261,0.305857895 1.31436181,0.158068421 1.71642211,0.158068421 L7.52029146,0.158068421 C7.92144724,0.158068421 8.26380905,0.305857895 8.54692462,0.602384211 C8.82958794,0.898910526 8.97114573,1.25701579 8.97114573,1.67764737 C8.97114573,2.09827895 8.82958794,2.45685789 8.54692462,2.75291053 C8.26380905,3.04943684 7.92144724,3.1977 7.52029146,3.1977 L3.16727638,3.1977 L3.16727638,4.71727895 L6.06898492,4.71727895 Z" id="Fill-7" fill="#FEFEFE" mask="url(#mask-6)"></path>
                    </g>
                    <g id="Group-12" transform="translate(110.351759, 0.000000)">
                        <mask id="mask-8" fill="white">
                            <use xlink:href="#path-7"></use>
                        </mask>
                        <g id="Clip-11"></g>
                        <path d="M3.36333094,6.81418421 L3.0164537,6.28981579 L0.598880115,2.62728947 C0.47666906,2.41460526 0.415104092,2.09818421 0.415104092,1.67755263 C0.415104092,1.25739474 0.55890883,0.898815789 0.846058866,0.602289474 C1.1332089,0.305763158 1.48100503,0.157973684 1.8889878,0.157973684 C2.29697057,0.157973684 2.64568557,0.304815789 2.93513281,0.5985 C3.02839914,0.699868421 3.10742283,0.808815789 3.171285,0.925342105 L3.17863604,0.917763158 L4.83721464,3.4785 L6.49533381,0.917763158 L6.50314429,0.925342105 C6.56654702,0.808815789 6.64557071,0.699868421 6.73883704,0.5985 C7.02874372,0.304815789 7.37699928,0.157973684 7.78544149,0.157973684 C8.19296482,0.157973684 8.54076095,0.305763158 8.82837042,0.602289474 C9.1159799,0.898815789 9.2593252,1.25739474 9.2593252,1.67755263 C9.2593252,2.09818421 9.19776023,2.41460526 9.07508973,2.62728947 L6.65751615,6.28981579 L6.31109835,6.81418421 L6.31109835,10.7959737 C6.31109835,11.2161316 6.16729361,11.5747105 5.88014358,11.8712368 C5.5925341,12.1677632 5.24473798,12.3160263 4.83721464,12.3160263 C4.42877243,12.3160263 4.08143575,12.1677632 3.79382627,11.8712368 C3.50667624,11.5747105 3.36333094,11.2161316 3.36333094,10.7959737 L3.36333094,6.81418421 Z" id="Fill-10" fill="#FEFEFE" mask="url(#mask-8)"></path>
                    </g>
                    <path d="M18.0904523,11.4517777 C18.0904523,11.8808206 17.9437882,12.2451934 17.6495198,12.5473091 C17.3557215,12.8494248 17.0003432,13 16.5829146,13 C16.165486,13 15.8101076,12.8494248 15.5163093,12.5473091 C15.2225111,12.2451934 15.0753769,11.8808206 15.0753769,11.4517777 L15.0753769,2.16630471 C15.0753769,1.73870964 15.2225111,1.37337165 15.5163093,1.07125594 C15.8101076,0.770588082 16.165486,0.619047619 16.5829146,0.619047619 C17.0003432,0.619047619 17.3557215,0.770588082 17.6495198,1.07125594 C17.9437882,1.37337165 18.0904523,1.73870964 18.0904523,2.16630471 L18.0904523,11.4517777 Z" id="Fill-13" fill="#FEFEFE"></path>
                    <path d="M31.3748614,2.51515995 C31.4167483,2.54556338 31.4596207,2.57886238 31.5015075,2.61553953 C31.8065424,2.92005643 31.959799,3.28586278 31.959799,3.71440636 C31.959799,4.14246736 31.8055568,4.50682592 31.4970725,4.80892985 C31.1890809,5.11151637 30.8165343,5.26160314 30.3789399,5.26160314 C29.942331,5.26160314 29.57077,5.10958599 29.2652423,4.80555169 C29.2287761,4.77466566 29.1937883,4.73750592 29.1627427,4.69696801 C29.1257838,4.67621646 29.0912887,4.65112157 29.0597504,4.61927035 C28.4437672,4.01602769 27.6981812,3.71440636 26.823978,3.71440636 C25.9492819,3.71440636 25.2041887,4.01602769 24.5877128,4.61927035 C23.9717296,5.2234782 23.6632453,5.95267793 23.6632453,6.80928251 C23.6632453,7.66588709 23.9717296,8.39605201 24.5877128,8.99929467 C25.2041887,9.60301993 25.9492819,9.90464126 26.823978,9.90464126 C27.6981812,9.90464126 28.4437672,9.60301993 29.0597504,8.99929467 C29.0912887,8.96840865 29.1233198,8.94331375 29.1548582,8.92207961 C29.1863965,8.88636764 29.2233555,8.84727752 29.2652423,8.80577442 C29.57077,8.50656606 29.942331,8.35744448 30.3789399,8.35744448 C30.8165343,8.35744448 31.1890809,8.50801385 31.4970725,8.80915258 C31.8055568,9.11125651 31.959799,9.47658026 31.959799,9.90464126 C31.959799,10.3327022 31.8065424,10.6965782 31.5015075,10.9957866 C31.4482866,11.046459 31.3960512,11.0937532 31.3438159,11.1347737 C31.3270611,11.1506993 31.3117847,11.1661423 31.2960156,11.1815853 C30.0581358,12.3933792 28.5674566,13 26.823978,13 C25.0804993,13 23.5908056,12.394827 22.3553899,11.1844809 C21.1199741,9.97558259 20.5025126,8.51670054 20.5025126,6.80928251 C20.5025126,5.10234708 21.1199741,3.64346503 22.3553899,2.43408414 C23.5908056,1.22422066 25.0804993,0.619047619 26.823978,0.619047619 C28.5674566,0.619047619 30.0581358,1.22229028 31.2960156,2.42974079 C31.322626,2.45531828 31.3482509,2.48427393 31.3748614,2.51515995" id="Fill-15" fill="#FEFEFE"></path>
                    <path d="M38.4415059,3.71452702 L36.1804344,3.71452702 L36.1804344,5.26178411 L38.4415059,5.26178411 C38.6473998,5.26178411 38.8246189,5.18601388 38.9736334,5.03254296 C39.1212376,4.88148511 39.1950397,4.70002265 39.1950397,4.48815556 C39.1950397,4.2767711 39.1212376,4.09482602 38.9736334,3.94328555 C38.8246189,3.79029725 38.6473998,3.71452702 38.4415059,3.71452702 L38.4415059,3.71452702 Z M36.8742684,8.35774612 L36.1804344,8.35774612 L36.1804344,11.4517777 C36.1804344,11.8808206 36.0337703,12.2451934 35.739502,12.5473091 C35.4457037,12.8494248 35.0903253,13 34.6728968,13 C34.2564083,13 33.9005599,12.8494248 33.6067616,12.5473091 C33.3129633,12.2451934 33.1658291,11.8808206 33.1658291,11.4517777 L33.1658291,2.16630471 C33.1658291,1.73870964 33.3129633,1.37337165 33.6067616,1.07125594 C33.9005599,0.770588082 34.2564083,0.619047619 34.6728968,0.619047619 L38.4415059,0.619047619 C39.4817869,0.619047619 40.3697628,0.996933552 41.1059037,1.75270542 C41.8420446,2.50847728 42.2110553,3.42013313 42.2110553,4.48815556 C42.2110553,5.55569539 41.8434549,6.46638601 41.1101344,7.2192622 C40.8530021,7.48325147 40.5775369,7.70235775 40.2804481,7.87754625 L42.0216142,10.6786318 L42.014563,10.6786318 C42.1447744,10.9107686 42.2110553,11.1684839 42.2110553,11.4517777 C42.2110553,11.8808206 42.063451,12.2451934 41.7691827,12.5473091 C41.4753844,12.8494248 41.1195359,13 40.7030475,13 C40.2856189,13 39.9316508,12.8479769 39.6402029,12.5429655 C39.5396064,12.4459603 39.4568728,12.3397855 39.391532,12.2268541 L39.3840108,12.2268541 L36.8742684,8.35774612 Z" id="Fill-17" fill="#FEFEFE"></path>
                    <path d="M52.1841126,8.99929467 C52.7713536,8.39605201 53.0652091,7.66588709 53.0652091,6.80928251 C53.0652091,5.95267793 52.7713536,5.2234782 52.1841126,4.61927035 C51.5964016,4.01602769 50.8850361,3.71440636 50.0504863,3.71440636 C49.2164068,3.71440636 48.5050413,4.01602769 47.9173302,4.61927035 C47.3296191,5.2234782 47.0352934,5.95267793 47.0352934,6.80928251 C47.0352934,7.66588709 47.3296191,8.39605201 47.9173302,8.99929467 C48.5050413,9.60301993 49.2164068,9.90415866 50.0504863,9.90415866 C50.8850361,9.90415866 51.5964016,9.60301993 52.1841126,8.99929467 M50.0504863,13 C48.3874991,13 46.9661786,12.394827 45.7879354,11.1844809 C44.6092221,9.97558259 44.0201005,8.51670054 44.0201005,6.80928251 C44.0201005,5.10234708 44.6092221,3.64346503 45.7879354,2.43408414 C46.9661786,1.22422066 48.3874991,0.619047619 50.0504863,0.619047619 C51.7144139,0.619047619 53.1347941,1.22422066 54.3130373,2.43408414 C55.4917506,3.64346503 56.080402,5.10234708 56.080402,6.80928251 C56.080402,8.51670054 55.4917506,9.97558259 54.3130373,11.1844809 C53.1347941,12.394827 51.7144139,13 50.0504863,13" id="Fill-19" fill="#FEFEFE"></path>
                    <path d="M12.2490674,0.691139749 C11.6427571,0.489835747 10.9818413,0.719967264 10.6132536,1.25840661 L6.63316583,7.08009881 L2.65213656,1.25840661 C2.28449037,0.719967264 1.62310381,0.490324349 1.01679357,0.691139749 C0.410954068,0.891466547 0,1.47485727 0,2.13593571 L0,11.4833796 C0,12.3213319 0.653854754,13 1.46069928,13 C2.26801455,13 2.92234004,12.3213319 2.92234004,11.4833796 L2.92234004,6.89394147 L5.39041813,10.5037327 C5.68557071,10.9356568 6.15866216,11.1579707 6.63316583,11.1413582 C7.1076695,11.1579707 7.58076095,10.9356568 7.87544279,10.5037327 L10.3439916,6.89394147 L10.3439916,11.4833796 C10.3439916,12.3213319 10.9983171,13 11.8056324,13 C12.6120062,13 13.2663317,12.3213319 13.2663317,11.4833796 L13.2663317,2.13593571 C13.2663317,1.47485727 12.8553776,0.891466547 12.2490674,0.691139749" id="Fill-21" fill="#FEFEFE"></path>
                    <path d="M70.1389853,0.691139749 C69.5322043,0.489835747 68.8717593,0.719967264 68.5027009,1.25840661 L64.5226131,7.08009881 L60.5415838,1.25840661 C60.1739376,0.719967264 59.5130218,0.490324349 58.9067115,0.691139749 C58.3004013,0.891466547 57.8894472,1.47485727 57.8894472,2.13593571 L57.8894472,11.4833796 C57.8894472,12.3213319 58.543302,13 59.3501465,13 C60.1574618,13 60.8117873,12.3213319 60.8117873,11.4833796 L60.8117873,6.89394147 L63.2793946,10.5037327 C63.5754887,10.9356568 64.0485801,11.1579707 64.5230838,11.1413582 C64.9975875,11.1579707 65.4702082,10.9356568 65.7653608,10.5037327 L68.2334389,6.89394147 L68.2334389,11.4833796 C68.2334389,12.3213319 68.8877643,13 69.6950796,13 C70.5014534,13 71.1557789,12.3213319 71.1557789,11.4833796 L71.1557789,2.13593571 C71.1557789,1.47485727 70.7443541,0.891466547 70.1389853,0.691139749" id="Fill-23" fill="#FEFEFE"></path>
                </g>
            </g>
        </g>
    </g>
</svg>