<?xml version="1.0" encoding="UTF-8" standalone="no"?>
<svg width="255px" height="66px" viewBox="0 0 255 66" version="1.1" xmlns="http://www.w3.org/2000/svg" xmlns:xlink="http://www.w3.org/1999/xlink">
    <!-- Generator: Sketch 46.2 (44496) - http://www.bohemiancoding.com/sketch -->
    <title>logo-2</title>
    <desc>Created with Sketch.</desc>
    <defs>
        <polygon id="path-1" points="12.2484298 16.7232064 12.2484298 0.522312766 0.0922355372 0.522312766 0.0922355372 16.7232064 12.2484298 16.7232064"></polygon>
    </defs>
    <g id="design-1440" stroke="none" stroke-width="1" fill="none" fill-rule="evenodd">
        <g id="mm-landing-1440" transform="translate(-28.000000, -17.000000)">
            <g id="logo-2" transform="translate(28.000000, 17.000000)">
                <g id="Page-1">
                    <polygon id="Fill-1" fill="#FF6800" points="0 34.2508404 21.1706198 55.4108617 42.3412397 34.2508404 21.1706198 13.0908191"></polygon>
                    <polygon id="Fill-2" fill="#FF6800" points="51.2916694 -0.000210638298 18.4732397 32.8024915 51.2916694 65.6051936 84.1108017 32.8024915"></polygon>
                    <g id="Group-24" transform="translate(94.834711, 24.179662)">
                        <path d="M109.40624,11.4883532 C110.196529,10.6984596 110.591322,9.74356596 110.591322,8.62297021 C110.591322,7.50237447 110.196529,6.54677872 109.40624,5.75758723 C108.61595,4.96769362 107.659876,4.57239574 106.539421,4.57239574 C105.417562,4.57239574 104.462893,4.96769362 103.672603,5.75758723 C102.882314,6.54677872 102.487521,7.50237447 102.487521,8.62297021 C102.487521,9.74356596 102.882314,10.6984596 103.672603,11.4883532 C104.462893,12.2782468 105.417562,12.6728426 106.539421,12.6728426 C107.659876,12.6728426 108.61595,12.2782468 109.40624,11.4883532 M106.539421,16.723417 C104.30343,16.723417 102.394793,15.931417 100.810702,14.3481191 C99.2266116,12.7655234 98.4349174,10.8578426 98.4349174,8.62297021 C98.4349174,6.3888 99.2266116,4.48041702 100.810702,2.89711915 C102.394793,1.31382128 104.30343,0.522523404 106.539421,0.522523404 C108.775413,0.522523404 110.68405,1.31382128 112.26814,2.89711915 C113.852231,4.48041702 114.643926,6.3888 114.643926,8.62297021 C114.643926,10.8578426 113.852231,12.7655234 112.26814,14.3481191 C110.68405,15.931417 108.775413,16.723417 106.539421,16.723417" id="Fill-3" fill="#FFFFFF"></path>
                        <path d="M125.406541,8.31922979 L125.406541,2.54774043 C125.406541,1.98744255 125.603938,1.51069787 125.998731,1.11469787 C126.393525,0.720102128 126.871913,0.522804255 127.433194,0.522804255 C127.992368,0.522804255 128.470756,0.720102128 128.86555,1.11469787 C129.261045,1.51069787 129.458442,1.98744255 129.458442,2.54774043 L129.458442,14.6980596 C129.458442,15.2583574 129.261045,15.7358043 128.86555,16.1311021 C128.470756,16.5256979 127.992368,16.7236979 127.433194,16.7236979 C126.871913,16.7236979 126.395632,16.5242936 126.004351,16.1254851 C125.869475,15.9976979 125.757781,15.8593787 125.669971,15.7105277 L125.660136,15.7105277 L121.35464,8.92657021 L121.35464,14.6980596 C121.35464,15.2583574 121.156541,15.7358043 120.761748,16.1311021 C120.366955,16.5256979 119.889269,16.7236979 119.327988,16.7236979 C118.767409,16.7236979 118.289723,16.5256979 117.89493,16.1311021 C117.500136,15.7358043 117.30274,15.2583574 117.30274,14.6980596 L117.30274,2.54774043 C117.30274,1.98744255 117.500136,1.51069787 117.89493,1.11469787 C118.289723,0.720102128 118.767409,0.522804255 119.327988,0.522804255 C119.889269,0.522804255 120.36836,0.718697872 120.767368,1.10978298 C120.894517,1.24529362 121.003401,1.38642128 121.091211,1.53527234 L121.101045,1.53527234 L125.406541,8.31922979 Z" id="Fill-5" fill="#FFFFFF"></path>
                        <path d="M140.992099,6.59817447 C141.551975,6.59817447 142.030364,6.79547234 142.425157,7.19077021 C142.81995,7.58466383 143.01805,8.06281277 143.01805,8.62311064 C143.01805,9.18340851 142.81995,9.66085532 142.425157,10.0554511 C142.030364,10.4500468 141.551975,10.6480468 140.992099,10.6480468 L136.939496,10.6480468 L136.939496,12.672983 L143.01805,12.672983 C143.578628,12.672983 144.056314,12.8702809 144.45181,13.2648766 C144.846603,13.6601745 145.044,14.1376213 145.044,14.6979191 C145.044,15.258217 144.846603,15.7356638 144.45181,16.1309617 C144.056314,16.5262596 143.578628,16.7235574 143.01805,16.7235574 L134.914248,16.7235574 C134.352967,16.7235574 133.875281,16.5262596 133.480488,16.1309617 C133.085694,15.7356638 132.887595,15.258217 132.887595,14.6979191 L132.887595,2.5476 C132.887595,1.98800426 133.085694,1.51055745 133.480488,1.11455745 C133.875281,0.719961702 134.352967,0.52266383 134.914248,0.52266383 L143.01805,0.52266383 C143.578628,0.52266383 144.056314,0.719961702 144.45181,1.11455745 C144.846603,1.51055745 145.044,1.98800426 145.044,2.5476 C145.044,3.10789787 144.846603,3.58604681 144.45181,3.98064255 C144.056314,4.37594043 143.578628,4.57253617 143.01805,4.57253617 L136.939496,4.57253617 L136.939496,6.59817447 L140.992099,6.59817447 Z" id="Fill-7" fill="#FFFFFF"></path>
                        <g id="Group-11" transform="translate(147.520661, 0.000000)">
                            <mask id="mask-2" fill="white">
                                <use xlink:href="#path-1"></use>
                            </mask>
                            <g id="Clip-10"></g>
                            <path d="M4.14413636,9.39229149 L3.66785537,8.69367447 L0.345128099,3.81388723 C0.176533058,3.52952553 0.0922355372,3.10824894 0.0922355372,2.54795106 C0.0922355372,1.98765319 0.289632231,1.51020638 0.68442562,1.11490851 C1.07992149,0.719610638 1.55760744,0.522312766 2.11818595,0.522312766 C2.67806198,0.522312766 3.15855785,0.718206383 3.55616116,1.10999362 C3.68471488,1.24480213 3.79289669,1.39014255 3.88070661,1.54531277 L3.89054132,1.53548298 L6.17008678,4.9478234 L8.44892975,1.53548298 L8.46016942,1.54531277 C8.54727686,1.39014255 8.65545868,1.24480213 8.78330992,1.10999362 C9.1816157,0.718206383 9.66140909,0.522312766 10.2219876,0.522312766 C10.7825661,0.522312766 11.2602521,0.719610638 11.6557479,1.11490851 C12.0505413,1.51020638 12.2486405,1.98765319 12.2486405,2.54795106 C12.2486405,3.10824894 12.164343,3.52952553 11.9950455,3.81388723 L8.67231818,8.69367447 L8.19673967,9.39229149 L8.19673967,14.6982702 C8.19673967,15.257866 7.9986405,15.7353128 7.60314463,16.1313128 C7.20835124,16.5259085 6.73066529,16.7232064 6.17008678,16.7232064 C5.60880579,16.7232064 5.13182231,16.5259085 4.73632645,16.1313128 C4.34153306,15.7353128 4.14413636,15.257866 4.14413636,14.6982702 L4.14413636,9.39229149 Z" id="Fill-9" fill="#FFFFFF" mask="url(#mask-2)"></path>
                        </g>
                        <path d="M24.9678017,14.693917 C24.9678017,15.254917 24.770405,15.7316617 24.3756116,16.1269596 C23.9808182,16.5222574 23.5031322,16.7195553 22.9425537,16.7195553 C22.3819752,16.7195553 21.9049917,16.5222574 21.5101983,16.1269596 C21.115405,15.7316617 20.9173058,15.254917 20.9173058,14.693917 L20.9173058,2.54991702 C20.9173058,1.9910234 21.115405,1.5135766 21.5101983,1.11827872 C21.9049917,0.724385106 22.3819752,0.526385106 22.9425537,0.526385106 C23.5031322,0.526385106 23.9808182,0.724385106 24.3756116,1.11827872 C24.770405,1.5135766 24.9678017,1.9910234 24.9678017,2.54991702 L24.9678017,14.693917 Z" id="Fill-12" fill="#FFFFFF"></path>
                        <path d="M41.3405579,3.00594894 C41.3939463,3.04667234 41.4487397,3.08950213 41.5021281,3.13724681 C41.8934091,3.53605532 42.0894008,4.01490638 42.0894008,4.57450213 C42.0894008,5.13409787 41.8920041,5.61154468 41.4972107,6.00614043 C41.1024174,6.40214043 40.6247314,6.59873617 40.0648554,6.59873617 C39.5042769,6.59873617 39.0279959,6.39933191 38.6360124,6.00192766 C38.5896488,5.96120426 38.5453926,5.91275745 38.5053512,5.85939574 C38.4575826,5.83201277 38.4140289,5.79971489 38.3732851,5.75828936 C37.5836983,4.96909787 36.6290289,4.57450213 35.5085744,4.57450213 C34.3874174,4.57450213 33.4320455,4.96909787 32.6424587,5.75828936 C31.8528719,6.54818298 31.457376,7.50237447 31.457376,8.62226809 C31.457376,9.74356596 31.8528719,10.6977574 32.6424587,11.4869489 C33.4320455,12.2761404 34.3874174,12.6707362 35.5085744,12.6707362 C36.6290289,12.6707362 37.5836983,12.2761404 38.3732851,11.4869489 C38.4140289,11.4462255 38.4547727,11.4139277 38.494814,11.3858426 C38.5355579,11.3388 38.582624,11.2875447 38.6360124,11.234183 C39.0279959,10.8416936 39.5042769,10.6472043 40.0648554,10.6472043 C40.6247314,10.6472043 41.1024174,10.8438 41.4972107,11.2383957 C41.8920041,11.6329915 42.0894008,12.1111404 42.0894008,12.6707362 C42.0894008,13.231034 41.8934091,13.7070766 41.5021281,14.0974596 C41.4346901,14.1648638 41.3672521,14.2259489 41.299814,14.2800128 C41.2794421,14.3003745 41.2597727,14.3207362 41.2394008,14.3410979 C39.6525,15.9258 37.7424587,16.7192043 35.5085744,16.7192043 C33.2739876,16.7192043 31.3646488,15.9279064 29.7819628,14.3446085 C28.1985744,12.763417 27.4075826,10.8557362 27.4075826,8.62226809 C27.4075826,6.38950213 28.1985744,4.48182128 29.7819628,2.89992766 C31.3646488,1.31803404 33.2739876,0.52673617 35.5085744,0.52673617 C37.7424587,0.52673617 39.6525,1.31522553 41.2394008,2.89431064 C41.2724174,2.92801277 41.3061364,2.96522553 41.3405579,3.00594894" id="Fill-14" fill="#FFFFFF"></path>
                        <path d="M51.6170579,4.57471277 L48.5795372,4.57471277 L48.5795372,6.59894681 L51.6170579,6.59894681 C51.8938347,6.59894681 52.1319752,6.49924468 52.3314793,6.2991383 C52.530281,6.1011383 52.6293306,5.86311702 52.6293306,5.5857766 C52.6293306,5.30984043 52.530281,5.07181915 52.3314793,4.87381915 C52.1319752,4.67441489 51.8938347,4.57471277 51.6170579,4.57471277 L51.6170579,4.57471277 Z M49.5110248,10.6467128 L48.5795372,10.6467128 L48.5795372,14.6937766 C48.5795372,15.2547766 48.3821405,15.7315213 47.9873471,16.1268191 C47.5925537,16.522117 47.1148678,16.7194149 46.5542893,16.7194149 C45.9944132,16.7194149 45.5160248,16.522117 45.1219339,16.1268191 C44.7271405,15.7315213 44.5297438,15.2547766 44.5297438,14.6937766 L44.5297438,2.5497766 C44.5297438,1.99088298 44.7271405,1.51343617 45.1219339,1.1181383 C45.5160248,0.724946809 45.9944132,0.526244681 46.5542893,0.526244681 L51.6170579,0.526244681 C53.0142893,0.526244681 54.2070992,1.02054255 55.1961901,2.0091383 C56.185281,2.99773404 56.6805289,4.18994681 56.6805289,5.5857766 C56.6805289,6.98301064 56.1873884,8.17381915 55.2018099,9.15890426 C54.8568926,9.50364894 54.4859835,9.79011702 54.0876777,10.0197128 L56.4269339,13.6827128 L56.4163967,13.6827128 C56.5920165,13.9860319 56.6805289,14.3237553 56.6805289,14.6937766 C56.6805289,15.2547766 56.4824298,15.7315213 56.0869339,16.1268191 C55.6921405,16.522117 55.215157,16.7194149 54.6545785,16.7194149 C54.094,16.7194149 53.619124,16.5200106 53.2271405,16.1205 C53.0922645,15.9948191 52.9805702,15.8543936 52.8927603,15.7069468 L52.8829256,15.7069468 L49.5110248,10.6467128 Z" id="Fill-16" fill="#FFFFFF"></path>
                        <path d="M70.0852397,11.4870191 C70.874124,10.6978277 71.2689174,9.74363617 71.2689174,8.6223383 C71.2689174,7.50244468 70.874124,6.54825319 70.0852397,5.75835957 C69.2956529,4.96916809 68.3409835,4.57457234 67.2198264,4.57457234 C66.0993719,4.57457234 65.144,4.96916809 64.3544132,5.75835957 C63.5648264,6.54825319 63.1693306,7.50244468 63.1693306,8.6223383 C63.1693306,9.74363617 63.5648264,10.6978277 64.3544132,11.4870191 C65.144,12.2762106 66.0993719,12.6708064 67.2198264,12.6708064 C68.3409835,12.6708064 69.2956529,12.2762106 70.0852397,11.4870191 M67.2198264,16.7192745 C64.9859421,16.7192745 63.0766033,15.9279766 61.4946198,14.3446787 C59.9112314,12.7634872 59.1195372,10.8558064 59.1195372,8.6223383 C59.1195372,6.38957234 59.9112314,4.48118936 61.4946198,2.89999787 C63.0766033,1.31810426 64.9859421,0.526806383 67.2198264,0.526806383 C69.4544132,0.526806383 71.3623471,1.31810426 72.9443306,2.89999787 C74.527719,4.48118936 75.3187107,6.38957234 75.3187107,8.6223383 C75.3187107,10.8558064 74.527719,12.7634872 72.9443306,14.3446787 C71.3623471,15.9279766 69.4544132,16.7192745 67.2198264,16.7192745" id="Fill-18" fill="#FFFFFF"></path>
                        <path d="M16.9664215,0.718557447 C16.1529504,0.458770213 15.2664215,0.755770213 14.771876,1.45157872 L9.43233058,8.97206809 L4.09208264,1.45157872 C3.59894215,0.755770213 2.71171074,0.45947234 1.89753719,0.718557447 C1.08547107,0.977642553 0.533322314,1.73102553 0.533322314,2.58481277 L0.533322314,14.6600043 C0.533322314,15.7426851 1.41071901,16.6189404 2.49323967,16.6189404 C3.57576033,16.6189404 4.4538595,15.7426851 4.4538595,14.6600043 L4.4538595,8.73194043 L7.76464463,13.3954723 C8.16154545,13.9536638 8.79658678,14.2401319 9.43303306,14.2190681 C10.0694793,14.2401319 10.7031157,13.9536638 11.099314,13.3954723 L14.4108017,8.73194043 L14.4108017,14.6600043 C14.4108017,15.7426851 15.2881983,16.6189404 16.370719,16.6189404 C17.4532397,16.6189404 18.3313388,15.7426851 18.3313388,14.6600043 L18.3313388,2.58481277 C18.3313388,1.73102553 17.7798926,0.977642553 16.9664215,0.718557447" id="Fill-20" fill="#FFFFFF"></path>
                        <path d="M94.4120289,0.718557447 C93.5978554,0.458770213 92.7113264,0.755770213 92.216781,1.45157872 L86.877938,8.97206809 L81.5369876,1.45157872 C81.0438471,0.755770213 80.1566157,0.45947234 79.3431446,0.718557447 C78.530376,0.977642553 77.9782273,1.73102553 77.9782273,2.58481277 L77.9782273,14.6600043 C77.9782273,15.7426851 78.855624,16.6189404 79.9381446,16.6189404 C81.0213678,16.6189404 81.8987645,15.7426851 81.8987645,14.6600043 L81.8987645,8.73194043 L85.2095496,13.3954723 C85.6064504,13.9536638 86.2407893,14.2401319 86.877938,14.2190681 C87.5143843,14.2401319 88.1480207,13.9536638 88.544219,13.3954723 L91.8557066,8.73194043 L91.8557066,14.6600043 C91.8557066,15.7426851 92.7331033,16.6189404 93.8163264,16.6189404 C94.8981446,16.6189404 95.7755413,15.7426851 95.7755413,14.6600043 L95.7755413,2.58481277 C95.7755413,1.73102553 95.224095,0.977642553 94.4120289,0.718557447" id="Fill-22" fill="#FFFFFF"></path>
                    </g>
                </g>
            </g>
        </g>
    </g>
</svg>