<?xml version="1.0" encoding="UTF-8" standalone="no"?>
<svg width="199px" height="21px" viewBox="0 0 199 21" version="1.1" xmlns="http://www.w3.org/2000/svg" xmlns:xlink="http://www.w3.org/1999/xlink">
    <!-- Generator: Sketch 46.2 (44496) - http://www.bohemiancoding.com/sketch -->
    <title>logo</title>
    <desc>Created with Sketch.</desc>
    <defs>
        <polygon id="path-1" points="20.7549462 19.8947368 0.0239076923 19.8947368 0.0239076923 0.255035223 20.7549462 0.255035223 20.7549462 19.8947368"></polygon>
        <polygon id="path-3" points="15.3565714 0.254805668 0.690666667 0.254805668 0.690666667 19.8945838 15.3565714 19.8945838"></polygon>
        <polygon id="path-5" points="0.43965 19.8947368 14.87715 19.8947368 14.87715 0.255341296 0.43965 0.255341296 0.43965 19.8947368"></polygon>
        <polygon id="path-7" points="0.688380952 19.8947368 15.3546667 19.8947368 15.3546667 0.255188259 0.688380952 0.255188259 0.688380952 19.8947368"></polygon>
    </defs>
    <g id="design-1440" stroke="none" stroke-width="1" fill="none" fill-rule="evenodd">
        <g id="mm-landing-1440-copy-9" transform="translate(-28.000000, -18.000000)">
            <g id="Group">
                <g id="logo" transform="translate(28.000000, 18.000000)">
                    <g id="Group-3" transform="translate(122.000000, 0.000000)">
                        <mask id="mask-2" fill="white">
                            <use xlink:href="#path-1"></use>
                        </mask>
                        <g id="Clip-2"></g>
                        <path d="M14.0559462,13.5485453 C15.0663692,12.5913024 15.5719846,11.4328166 15.5719846,10.0746182 C15.5719846,8.71641984 15.0663692,7.55793401 14.0559462,6.60069109 C13.0455231,5.64344818 11.8218692,5.16520931 10.3898308,5.16520931 C8.95536923,5.16520931 7.73333077,5.64344818 6.7221,6.60069109 C5.71167692,7.55793401 5.20686923,8.71641984 5.20686923,10.0746182 C5.20686923,11.4328166 5.71167692,12.5913024 6.7221,13.5485453 C7.73333077,14.5057883 8.95536923,14.9847923 10.3898308,14.9847923 C11.8218692,14.9847923 13.0455231,14.5057883 14.0559462,13.5485453 M10.3898308,19.8949664 C7.52979231,19.8949664 5.08733077,18.9354279 3.06244615,17.016351 C1.03675385,15.0972741 0.0239076923,12.7833632 0.0239076923,10.0746182 C0.0239076923,7.36663846 1.03675385,5.05196235 3.06244615,3.13365061 C5.08733077,1.2138085 7.52979231,0.255035223 10.3898308,0.255035223 C13.2482538,0.255035223 15.6899077,1.2138085 17.7156,3.13365061 C19.7421,5.05196235 20.7549462,7.36663846 20.7549462,10.0746182 C20.7549462,12.7833632 19.7421,15.0972741 17.7156,17.016351 C15.6899077,18.9354279 13.2482538,19.8949664 10.3898308,19.8949664" id="Fill-1" fill="#202020" mask="url(#mask-2)"></path>
                    </g>
                    <g id="Group-6" transform="translate(144.000000, 0.000000)">
                        <mask id="mask-4" fill="white">
                            <use xlink:href="#path-3"></use>
                        </mask>
                        <g id="Clip-5"></g>
                        <path d="M10.4681905,9.70694818 L10.4681905,2.71012227 C10.4681905,2.03064049 10.7066667,1.45216275 11.1828571,0.973158704 C11.6590476,0.494154656 12.2358095,0.254652632 12.9131429,0.254652632 C13.5881905,0.254652632 14.1657143,0.494154656 14.6419048,0.973158704 C15.1188571,1.45216275 15.3565714,2.03064049 15.3565714,2.71012227 L15.3565714,17.4391142 C15.3565714,18.118596 15.1188571,18.6978389 14.6419048,19.1768429 C14.1657143,19.6550818 13.5881905,19.8945838 12.9131429,19.8945838 C12.2358095,19.8945838 11.6613333,19.6535514 11.1889524,19.1707215 C11.0259048,19.0146243 10.8925714,18.8478146 10.7859048,18.6672316 L10.7737143,18.6672316 L5.57980952,10.4430534 L5.57980952,17.4391142 C5.57980952,18.118596 5.34133333,18.6978389 4.86514286,19.1768429 C4.38819048,19.6550818 3.81219048,19.8945838 3.13409524,19.8945838 C2.45752381,19.8945838 1.88152381,19.6550818 1.40533333,19.1768429 C0.928380952,18.6978389 0.690666667,18.118596 0.690666667,17.4391142 L0.690666667,2.71012227 C0.690666667,2.03064049 0.928380952,1.45216275 1.40533333,0.973158704 C1.88152381,0.494154656 2.45752381,0.254652632 3.13409524,0.254652632 C3.81219048,0.254652632 4.38895238,0.492624291 4.87047619,0.967037247 C5.02438095,1.13078623 5.15542857,1.30218704 5.26133333,1.48200486 L5.27428571,1.48200486 L10.4681905,9.70694818 Z" id="Fill-4" fill="#202020" mask="url(#mask-4)"></path>
                    </g>
                    <g id="Group-9" transform="translate(164.000000, 0.000000)">
                        <mask id="mask-6" fill="white">
                            <use xlink:href="#path-5"></use>
                        </mask>
                        <g id="Clip-8"></g>
                        <path d="M10.0644,7.62021984 C10.7304,7.62021984 11.2974,7.85895668 11.7669,8.33796073 C12.2364,8.8161996 12.47115,9.39544251 12.47115,10.0749243 C12.47115,10.7544061 12.2364,11.3328838 11.7669,11.8118879 C11.2974,12.2901267 10.7304,12.5296287 10.0644,12.5296287 L5.2524,12.5296287 L5.2524,14.9850984 L12.47115,14.9850984 C13.1364,14.9850984 13.70415,15.2238352 14.17365,15.7028393 C14.6424,16.1810781 14.87715,16.7603211 14.87715,17.4398028 C14.87715,18.1185194 14.6424,18.6977623 14.17365,19.1767664 C13.70415,19.6557704 13.1364,19.8952725 12.47115,19.8952725 L2.8464,19.8952725 C2.17965,19.8952725 1.61265,19.6557704 1.14315,19.1767664 C0.6744,18.6977623 0.43965,18.1185194 0.43965,17.4398028 L0.43965,2.71004575 C0.43965,2.03056397 0.6744,1.45208623 1.14315,0.973082186 C1.61265,0.494078138 2.17965,0.255341296 2.8464,0.255341296 L12.47115,0.255341296 C13.1364,0.255341296 13.70415,0.494078138 14.17365,0.973082186 C14.6424,1.45208623 14.87715,2.03056397 14.87715,2.71004575 C14.87715,3.38952753 14.6424,3.96877045 14.17365,4.44700931 C13.70415,4.92601336 13.1364,5.16551538 12.47115,5.16551538 L5.2524,5.16551538 L5.2524,7.62021984 L10.0644,7.62021984 Z" id="Fill-7" fill="#202020" mask="url(#mask-6)"></path>
                    </g>
                    <g id="Group-12" transform="translate(183.000000, 0.000000)">
                        <mask id="mask-8" fill="white">
                            <use xlink:href="#path-7"></use>
                        </mask>
                        <g id="Clip-11"></g>
                        <path d="M5.57752381,11.0075283 L5.00228571,10.1604717 L0.993142857,4.244083 C0.79047619,3.90051619 0.688380952,3.38937449 0.688380952,2.70989271 C0.688380952,2.03117611 0.926857143,1.4519332 1.40304762,0.97292915 C1.8792381,0.493925101 2.456,0.255188259 3.13257143,0.255188259 C3.80914286,0.255188259 4.38742857,0.492394737 4.86742857,0.966807692 C5.02209524,1.13055668 5.15314286,1.30654858 5.25904762,1.4947834 L5.2712381,1.48254049 L8.02171429,5.61911538 L10.7714286,1.48254049 L10.784381,1.4947834 C10.8895238,1.30654858 11.0205714,1.13055668 11.1752381,0.966807692 C11.656,0.492394737 12.2335238,0.255188259 12.9108571,0.255188259 C13.5866667,0.255188259 14.1634286,0.493925101 14.640381,0.97292915 C15.1173333,1.4519332 15.3550476,2.03117611 15.3550476,2.70989271 C15.3550476,3.38937449 15.2529524,3.90051619 15.0495238,4.244083 L11.040381,10.1604717 L10.4659048,11.0075283 L10.4659048,17.4396498 C10.4659048,18.1183664 10.2274286,18.6976093 9.7512381,19.1766134 C9.27428571,19.6556174 8.69752381,19.8951194 8.02171429,19.8951194 C7.34438095,19.8951194 6.76838095,19.6556174 6.29142857,19.1766134 C5.8152381,18.6976093 5.57752381,18.1183664 5.57752381,17.4396498 L5.57752381,11.0075283 Z" id="Fill-10" fill="#202020" mask="url(#mask-8)"></path>
                    </g>
                    <path d="M30,18.4990255 C30,19.1920948 29.756782,19.780697 29.268787,20.26873 C28.7815716,20.7567631 28.1922357,21 27.5,21 C26.8077643,21 26.2184284,20.7567631 25.731213,20.26873 C25.2439975,19.780697 25,19.1920948 25,18.4990255 L25,3.4994153 C25,2.80868481 25.2439975,2.21852343 25.731213,1.73049037 C26.2184284,1.24479613 26.8077643,1 27.5,1 C28.1922357,1 28.7815716,1.24479613 29.268787,1.73049037 C29.756782,2.21852343 30,2.80868481 30,3.4994153 L30,18.4990255 Z" id="Fill-13" fill="#202020"></path>
                    <path d="M52.0299785,4.06295069 C52.0994409,4.11206393 52.1705376,4.16585461 52.24,4.22510232 C52.7458495,4.71701423 53,5.30793218 53,6.00019489 C53,6.69167804 52.7442151,7.28025726 52.2326452,7.76827129 C51.7218925,8.2570649 51.104086,8.49951277 50.3784086,8.49951277 C49.6543656,8.49951277 49.0381935,8.2539466 48.5315269,7.76281427 C48.4710538,7.71292146 48.4130323,7.65289417 48.3615484,7.58740986 C48.3002581,7.55388813 48.2430538,7.51335022 48.1907527,7.46189827 C47.1692473,6.48742935 45.9328172,6.00019489 44.4830968,6.00019489 C43.0325591,6.00019489 41.7969462,6.48742935 40.7746237,7.46189827 C39.7531183,8.43792633 39.2415484,9.61586435 39.2415484,10.9996102 C39.2415484,12.3833561 39.7531183,13.5628532 40.7746237,14.5373222 C41.7969462,15.5125706 43.0325591,15.9998051 44.4830968,15.9998051 C45.9328172,15.9998051 47.1692473,15.5125706 48.1907527,14.5373222 C48.2430538,14.4874294 48.296172,14.4468914 48.3484731,14.4125901 C48.4007742,14.3549016 48.4620645,14.291756 48.5315269,14.2247125 C49.0381935,13.741376 49.6543656,13.5004872 50.3784086,13.5004872 C51.104086,13.5004872 51.7218925,13.7437147 52.2326452,14.2301696 C52.7442151,14.7181836 53,15.308322 53,15.9998051 C53,16.6912882 52.7458495,17.2790879 52.24,17.7624245 C52.1517419,17.8442799 52.0651183,17.9206782 51.9784946,17.9869421 C51.9507097,18.0126681 51.9253763,18.0376145 51.8992258,18.0625609 C49.8464086,20.0200741 47.3743656,21 44.4830968,21 C41.591828,21 39.1214194,20.0224128 37.0726882,18.0672384 C35.023957,16.1144027 34,13.757747 34,10.9996102 C34,8.24225297 35.023957,5.88559735 37.0726882,3.93198207 C39.1214194,1.97758721 41.591828,1 44.4830968,1 C47.3743656,1 49.8464086,1.97446891 51.8992258,3.92496589 C51.9433548,3.96628338 51.9858495,4.01305788 52.0299785,4.06295069" id="Fill-15" fill="#202020"></path>
                    <path d="M63.7488307,6.0003898 L59.9992205,6.0003898 L59.9992205,8.4998051 L63.7488307,8.4998051 C64.0902713,8.4998051 64.3841597,8.37740703 64.6312753,8.12949248 C64.8760524,7.88547595 64.9984409,7.59234427 64.9984409,7.25009745 C64.9984409,6.90863023 64.8760524,6.61471895 64.6312753,6.36992282 C64.3841597,6.12278787 64.0902713,6.0003898 63.7488307,6.0003898 L63.7488307,6.0003898 Z M61.1498285,13.5009745 L59.9992205,13.5009745 L59.9992205,18.4990255 C59.9992205,19.1920948 59.7560025,19.780697 59.2680075,20.26873 C58.780792,20.7567631 58.1914562,21 57.4992205,21 C56.8085438,21 56.2184284,20.7567631 55.731213,20.26873 C55.2439975,19.780697 55,19.1920948 55,18.4990255 L55,3.4994153 C55,2.80868481 55.2439975,2.21852343 55.731213,1.73049037 C56.2184284,1.24479613 56.8085438,1 57.4992205,1 L63.7488307,1 C65.4739632,1 66.9465232,1.61043112 68.1672903,2.83129337 C69.3880574,4.05215561 70,5.52483044 70,7.25009745 C70,8.97458486 69.390396,10.4457005 68.1743062,11.6618851 C67.7478952,12.0883293 67.291082,12.4422702 66.7984097,12.725267 L69.6858435,17.2500975 L69.6741503,17.2500975 C69.8900842,17.6250877 70,18.0413971 70,18.4990255 C70,19.1920948 69.7552229,19.780697 69.2672279,20.26873 C68.7800125,20.7567631 68.1898971,21 67.4992205,21 C66.8069847,21 66.2199875,20.7544243 65.7366698,20.2617136 C65.5698472,20.1050129 65.4326473,19.9334996 65.3242906,19.751072 L65.3118179,19.751072 L61.1498285,13.5009745 Z" id="Fill-17" fill="#202020"></path>
                    <path d="M86.5386535,14.5373222 C87.5124946,13.5628532 87.9998051,12.3833561 87.9998051,10.9996102 C87.9998051,9.61586435 87.5124946,8.43792633 86.5386535,7.46189827 C85.5640326,6.48742935 84.3843515,6.00019489 83.0003898,6.00019489 C81.6172079,6.00019489 80.4375268,6.48742935 79.4629059,7.46189827 C78.4882851,8.43792633 78.0001949,9.61586435 78.0001949,10.9996102 C78.0001949,12.3833561 78.4882851,13.5628532 79.4629059,14.5373222 C80.4375268,15.5125706 81.6172079,15.9990255 83.0003898,15.9990255 C84.3843515,15.9990255 85.5640326,15.5125706 86.5386535,14.5373222 M83.0003898,21 C80.2426026,21 77.8855795,20.0224128 75.9316596,18.0672384 C73.97696,16.1144027 73,13.757747 73,10.9996102 C73,8.24225297 73.97696,5.88559735 75.9316596,3.93198207 C77.8855795,1.97758721 80.2426026,1 83.0003898,1 C85.7597365,1 88.1152002,1.97758721 90.0691201,3.93198207 C92.0238197,5.88559735 93,8.24225297 93,10.9996102 C93,13.757747 92.0238197,16.1144027 90.0691201,18.0672384 C88.1152002,20.0224128 85.7597365,21 83.0003898,21" id="Fill-19" fill="#202020"></path>
                    <path d="M20.3130367,1.11645652 C19.3075722,0.79127313 18.2115535,1.16302404 17.6003123,2.03281068 L11,11.4370827 L4.39812646,2.03281068 C3.78844653,1.16302404 2.69164715,0.79206241 1.68618267,1.11645652 C0.681498829,1.44006135 0,2.38246175 0,3.45035768 L0,18.5500747 C0,19.90369 1.08430913,21 2.42232631,21 C3.76112412,21 4.8462139,19.90369 4.8462139,18.5500747 L4.8462139,11.136367 L8.93911007,16.9675681 C9.42857143,17.6652917 10.2131148,18.0244141 11,17.9975786 C11.7868852,18.0244141 12.5714286,17.6652917 13.0601093,16.9675681 L17.1537861,11.136367 L17.1537861,18.5500747 C17.1537861,19.90369 18.2388759,21 19.5776737,21 C20.9149102,21 22,19.90369 22,18.5500747 L22,3.45035768 C22,2.38246175 21.3185012,1.44006135 20.3130367,1.11645652" id="Fill-21" fill="#202020"></path>
                    <path d="M116.313817,1.11645652 C115.307572,0.79127313 114.212334,1.16302404 113.600312,2.03281068 L107,11.4370827 L100.398126,2.03281068 C99.7884465,1.16302404 98.6924278,0.79206241 97.6869633,1.11645652 C96.6814988,1.44006135 96,2.38246175 96,3.45035768 L96,18.5500747 C96,19.90369 97.0843091,21 98.4223263,21 C99.7611241,21 100.846214,19.90369 100.846214,18.5500747 L100.846214,11.136367 L104.938329,16.9675681 C105.429352,17.6652917 106.213895,18.0244141 107.000781,17.9975786 C107.787666,18.0244141 108.571429,17.6652917 109.06089,16.9675681 L113.153786,11.136367 L113.153786,18.5500747 C113.153786,19.90369 114.238876,21 115.577674,21 C116.91491,21 118,19.90369 118,18.5500747 L118,3.45035768 C118,2.38246175 117.317721,1.44006135 116.313817,1.11645652" id="Fill-23" fill="#202020"></path>
                </g>
            </g>
        </g>
    </g>
</svg>