<?xml version="1.0" encoding="UTF-8" standalone="no"?>
<svg width="181px" height="47px" viewBox="0 0 181 47" version="1.1" xmlns="http://www.w3.org/2000/svg" xmlns:xlink="http://www.w3.org/1999/xlink">
    <!-- Generator: Sketch 46.2 (44496) - http://www.bohemiancoding.com/sketch -->
    <title>Page 1</title>
    <desc>Created with Sketch.</desc>
    <defs>
        <polygon id="path-1" points="8.67280119 11.8046163 8.67280119 0.368691364 0.065309635 0.368691364 0.065309635 11.8046163 8.67280119 11.8046163"></polygon>
    </defs>
    <g id="Page-1" stroke="none" stroke-width="1" fill="none" fill-rule="evenodd">
        <g id="mm-menu-1440-edits" transform="translate(-28.000000, -7.000000)">
            <g id="Page-1" transform="translate(28.000000, 7.000000)">
                <polygon id="Fill-1" fill="#FF6800" points="0 24 15 39 30 24 15 9"></polygon>
                <polygon id="Fill-2" fill="#FF6800" points="36.4997485 0 13 23.5 36.4997485 47 60 23.5"></polygon>
                <g id="Group-24" transform="translate(67.000000, 17.000000)">
                    <path d="M77.4677722,8.10942578 C78.0273559,7.55185382 78.306899,6.87781126 78.306899,6.0868025 C78.306899,5.29579374 78.0273559,4.62125557 77.4677722,4.06417922 C76.9081885,3.50660726 76.2312166,3.22757347 75.4378512,3.22757347 C74.6434911,3.22757347 73.967514,3.50660726 73.4079303,4.06417922 C72.8483466,4.62125557 72.5688034,5.29579374 72.5688034,6.0868025 C72.5688034,6.87781126 72.8483466,7.55185382 73.4079303,8.10942578 C73.967514,8.66699775 74.6434911,8.94553592 75.4378512,8.94553592 C76.2312166,8.94553592 76.9081885,8.66699775 77.4677722,8.10942578 M75.4378512,11.804765 C73.8546024,11.804765 72.5031456,11.2457061 71.3814912,10.1280841 C70.2598368,9.0109577 69.6992583,7.66435945 69.6992583,6.0868025 C69.6992583,4.50974118 70.2598368,3.16264731 71.3814912,2.04502528 C72.5031456,0.927403254 73.8546024,0.36884005 75.4378512,0.36884005 C77.0211,0.36884005 78.3725569,0.927403254 79.4942113,2.04502528 C80.6158657,3.16264731 81.1764442,4.50974118 81.1764442,6.0868025 C81.1764442,7.66435945 80.6158657,9.0109577 79.4942113,10.1280841 C78.3725569,11.2457061 77.0211,11.804765 75.4378512,11.804765" id="Fill-3" fill="#0077C0"></path>
                    <path d="M88.7971783,5.8723975 L88.7971783,1.79840501 C88.7971783,1.40290063 88.9369499,1.06637497 89.216493,0.786845557 C89.4960362,0.508307384 89.8347709,0.369038298 90.2321996,0.369038298 C90.6281362,0.369038298 90.9668708,0.508307384 91.246414,0.786845557 C91.5264545,1.06637497 91.6662261,1.40290063 91.6662261,1.79840501 L91.6662261,10.3751009 C91.6662261,10.7706053 91.5264545,11.1076265 91.246414,11.3866603 C90.9668708,11.6651985 90.6281362,11.8049632 90.2321996,11.8049632 C89.8347709,11.8049632 89.4975284,11.6642073 89.2204723,11.3826954 C89.12497,11.2924926 89.0458822,11.1948556 88.9837062,11.0897842 L88.9767425,11.0897842 L85.9281305,6.30110839 L85.9281305,10.3751009 C85.9281305,10.7706053 85.7878616,11.1076265 85.5083184,11.3866603 C85.2287753,11.6651985 84.890538,11.8049632 84.4931092,11.8049632 C84.0961779,11.8049632 83.7579406,11.6651985 83.4783975,11.3866603 C83.1988543,11.1076265 83.0590827,10.7706053 83.0590827,10.3751009 L83.0590827,1.79840501 C83.0590827,1.40290063 83.1988543,1.06637497 83.4783975,0.786845557 C83.7579406,0.508307384 84.0961779,0.369038298 84.4931092,0.369038298 C84.890538,0.369038298 85.2297701,0.507316145 85.5122977,0.78337622 C85.6023285,0.879030788 85.6794267,0.978650313 85.7416026,1.08372165 L85.7485663,1.08372165 L88.7971783,5.8723975 Z" id="Fill-5" fill="#0077C0"></path>
                    <path d="M99.8329149,4.65753492 C100.229349,4.65753492 100.568084,4.79680401 100.847627,5.0758378 C101.12717,5.35388035 101.267439,5.69139725 101.267439,6.08690163 C101.267439,6.48240601 101.12717,6.81942728 100.847627,7.09796546 C100.568084,7.37650363 100.229349,7.51626834 99.8329149,7.51626834 L96.9633697,7.51626834 L96.9633697,8.94563504 L101.267439,8.94563504 C101.66437,8.94563504 102.002607,9.08490413 102.282648,9.3634423 C102.562191,9.6424761 102.701963,9.97949737 102.701963,10.3750018 C102.701963,10.7705061 102.562191,11.1075274 102.282648,11.3865612 C102.002607,11.665595 101.66437,11.8048641 101.267439,11.8048641 L95.5293433,11.8048641 C95.1319145,11.8048641 94.7936772,11.665595 94.5141341,11.3865612 C94.2345909,11.1075274 94.094322,10.7705061 94.094322,10.3750018 L94.094322,1.79830588 C94.094322,1.40329712 94.2345909,1.06627584 94.5141341,0.786746433 C94.7936772,0.50820826 95.1319145,0.368939174 95.5293433,0.368939174 L101.267439,0.368939174 C101.66437,0.368939174 102.002607,0.50820826 102.282648,0.786746433 C102.562191,1.06627584 102.701963,1.40329712 102.701963,1.79830588 C102.701963,2.19381026 102.562191,2.53132716 102.282648,2.80986533 C102.002607,3.08889912 101.66437,3.22767259 101.267439,3.22767259 L96.9633697,3.22767259 L96.9633697,4.65753492 L99.8329149,4.65753492 Z" id="Fill-7" fill="#0077C0"></path>
                    <g id="Group-11" transform="translate(104.455623, 0.000000)">
                        <mask id="mask-2" fill="white">
                            <use xlink:href="#path-1"></use>
                        </mask>
                        <g id="Clip-10"></g>
                        <path d="M2.93435743,6.62985282 L2.59711498,6.13671139 L0.244376418,2.69215569 C0.124998563,2.49142979 0.065309635,2.19405807 0.065309635,1.79855369 C0.065309635,1.40304931 0.205081207,1.06602804 0.484624352,0.786994243 C0.764664904,0.507960451 1.10290216,0.368691364 1.49983353,0.368691364 C1.89626749,0.368691364 2.23649438,0.506969212 2.51802715,0.783524906 C2.60905277,0.878683855 2.68565356,0.981277096 2.74782953,1.09080901 L2.75479323,1.08387034 L4.36888132,3.49258123 L5.982472,1.08387034 L5.99043052,1.09080901 C6.05210908,0.981277096 6.12870987,0.878683855 6.21923808,0.783524906 C6.50126826,0.506969212 6.84099774,0.368691364 7.23792911,0.368691364 C7.63486048,0.368691364 7.97309774,0.507960451 8.25313829,0.786994243 C8.53268143,1.06602804 8.67295041,1.40304931 8.67295041,1.79855369 C8.67295041,2.19405807 8.61326149,2.49142979 8.49338622,2.69215569 L6.14064766,6.13671139 L5.80390262,6.62985282 L5.80390262,10.3752496 C5.80390262,10.7702583 5.66363364,11.1072796 5.38359309,11.386809 C5.10404995,11.6653472 4.76581269,11.8046163 4.36888132,11.8046163 C3.97145254,11.8046163 3.63371269,11.6653472 3.35367214,11.386809 C3.074129,11.1072796 2.93435743,10.7702583 2.93435743,10.3752496 L2.93435743,6.62985282 Z" id="Fill-9" fill="#0077C0" mask="url(#mask-2)"></path>
                    </g>
                    <path d="M17.6790645,10.3721767 C17.6790645,10.7681767 17.539293,11.1047024 17.2597498,11.3837362 C16.9802067,11.66277 16.6419694,11.802039 16.245038,11.802039 C15.8481067,11.802039 15.5103668,11.66277 15.2308237,11.3837362 C14.9512805,11.1047024 14.8110115,10.7681767 14.8110115,10.3721767 L14.8110115,1.79994143 C14.8110115,1.40542829 14.9512805,1.06840701 15.2308237,0.789373217 C15.5103668,0.511330663 15.8481067,0.371565957 16.245038,0.371565957 C16.6419694,0.371565957 16.9802067,0.511330663 17.2597498,0.789373217 C17.539293,1.06840701 17.6790645,1.40542829 17.6790645,1.79994143 L17.6790645,10.3721767 Z" id="Fill-12" fill="#0077C0"></path>
                    <path d="M29.2721962,2.12184631 C29.3099992,2.15059224 29.348797,2.18082503 29.3866,2.21452716 C29.6636561,2.49603905 29.8024329,2.83405156 29.8024329,3.22906033 C29.8024329,3.62406909 29.6626613,3.96109036 29.3831182,4.23962854 C29.103575,4.51915795 28.7653378,4.65793141 28.3689038,4.65793141 C27.9719724,4.65793141 27.63473,4.51717547 27.3571765,4.23665482 C27.3243476,4.20790889 27.2930109,4.17371114 27.2646586,4.13604406 C27.2308349,4.11671489 27.1999956,4.0939164 27.171146,4.06467484 C26.6120597,3.5075985 25.9360826,3.22906033 25.1427173,3.22906033 C24.3488545,3.22906033 23.67238,3.5075985 23.1132937,4.06467484 C22.5542074,4.62224681 22.2741669,5.29579374 22.2741669,6.08630688 C22.2741669,6.87781126 22.5542074,7.5513582 23.1132937,8.10843454 C23.67238,8.66551089 24.3488545,8.94404906 25.1427173,8.94404906 C25.9360826,8.94404906 26.6120597,8.66551089 27.171146,8.10843454 C27.1999956,8.07968861 27.2288453,8.05689011 27.2571975,8.03706533 C27.2860472,8.00385882 27.3193735,7.9676786 27.3571765,7.93001151 C27.63473,7.6529602 27.9719724,7.51567359 28.3689038,7.51567359 C28.7653378,7.51567359 29.103575,7.65444706 29.3831182,7.93298523 C29.6626613,8.2115234 29.8024329,8.5490403 29.8024329,8.94404906 C29.8024329,9.33955344 29.6636561,9.67558348 29.3866,9.95114793 C29.3388489,9.99872741 29.2910977,10.0418463 29.2433466,10.080009 C29.2289218,10.094382 29.2149944,10.1087549 29.2005695,10.1231279 C28.0769255,11.2417412 26.7244738,11.8017912 25.1427173,11.8017912 C23.5604633,11.8017912 22.2085091,11.243228 21.0878494,10.125606 C19.9666924,9.00947084 19.4066113,7.66287259 19.4066113,6.08630688 C19.4066113,4.5102368 19.9666924,3.16363855 21.0878494,2.04700776 C22.2085091,0.930376971 23.5604633,0.371813767 25.1427173,0.371813767 C26.7244738,0.371813767 28.0769255,0.928394493 29.2005695,2.0430428 C29.2239477,2.06683254 29.2478233,2.09310038 29.2721962,2.12184631" id="Fill-14" fill="#0077C0"></path>
                    <path d="M36.5487242,3.22920901 L34.3979332,3.22920901 L34.3979332,4.6580801 L36.5487242,4.6580801 C36.7447028,4.6580801 36.9133241,4.58770213 37.0545879,4.44645056 C37.1953542,4.30668586 37.2654887,4.13867084 37.2654887,3.94290113 C37.2654887,3.74812265 37.1953542,3.58010763 37.0545879,3.44034293 C36.9133241,3.29958698 36.7447028,3.22920901 36.5487242,3.22920901 L36.5487242,3.22920901 Z M35.0574958,7.51532666 L34.3979332,7.51532666 L34.3979332,10.3720776 C34.3979332,10.7680776 34.2581616,11.1046033 33.9786184,11.383637 C33.6990753,11.6626708 33.360838,11.8019399 32.9639067,11.8019399 C32.5674727,11.8019399 32.2287381,11.6626708 31.9496923,11.383637 C31.6701492,11.1046033 31.5303776,10.7680776 31.5303776,10.3720776 L31.5303776,1.7998423 C31.5303776,1.40532916 31.6701492,1.06830788 31.9496923,0.789274093 C32.2287381,0.511727159 32.5674727,0.371466834 32.9639067,0.371466834 L36.5487242,0.371466834 C37.5380682,0.371466834 38.3826665,0.720382979 39.0830166,1.41821527 C39.7833667,2.11604756 40.1340391,2.95760951 40.1340391,3.94290113 C40.1340391,4.92918398 39.7848589,5.76975469 39.0869958,6.46510889 C38.8427686,6.70845807 38.5801374,6.91067084 38.2981072,7.07273842 L39.9544749,9.65838548 L39.9470138,9.65838548 C40.0713657,9.87249312 40.1340391,10.1108861 40.1340391,10.3720776 C40.1340391,10.7680776 39.9937701,11.1046033 39.7137296,11.383637 C39.4341864,11.6626708 39.0964466,11.8019399 38.6995152,11.8019399 C38.3025839,11.8019399 37.9663362,11.661184 37.6887827,11.3791765 C37.5932804,11.2904606 37.5141926,11.1913367 37.4520166,11.0872566 L37.4450529,11.0872566 L35.0574958,7.51532666 Z" id="Fill-16" fill="#0077C0"></path>
                    <path d="M49.6255734,8.10848411 C50.1841623,7.55140776 50.4637055,6.87786083 50.4637055,6.08635645 C50.4637055,5.2958433 50.1841623,4.62229637 49.6255734,4.06472441 C49.0664871,3.50764806 48.39051,3.22910989 47.5966473,3.22910989 C46.803282,3.22910989 46.1268075,3.50764806 45.5677212,4.06472441 C45.0086349,4.62229637 44.7285943,5.2958433 44.7285943,6.08635645 C44.7285943,6.87786083 45.0086349,7.55140776 45.5677212,8.10848411 C46.1268075,8.66556045 46.803282,8.94409862 47.5966473,8.94409862 C48.39051,8.94409862 49.0664871,8.66556045 49.6255734,8.10848411 M47.5966473,11.8018408 C46.0148907,11.8018408 44.6629365,11.2432776 43.5427743,10.1256556 C42.4216173,9.0095204 41.8610388,7.66292215 41.8610388,6.08635645 C41.8610388,4.51028636 42.4216173,3.16319249 43.5427743,2.04705732 C44.6629365,0.930426533 46.0148907,0.371863329 47.5966473,0.371863329 C49.1789013,0.371863329 50.5298607,0.930426533 51.6500229,2.04705732 C52.7711799,3.16319249 53.331261,4.51028636 53.331261,6.08635645 C53.331261,7.66292215 52.7711799,9.0095204 51.6500229,10.1256556 C50.5298607,11.2432776 49.1789013,11.8018408 47.5966473,11.8018408" id="Fill-18" fill="#0077C0"></path>
                    <path d="M12.013491,0.507217021 C11.4374928,0.323837797 10.8097643,0.533484856 10.4595892,1.0246438 L6.67879308,6.33322453 L2.89749951,1.0246438 C2.54831929,0.533484856 1.92009332,0.324333417 1.34359776,0.507217021 C0.768594425,0.690100626 0.377631949,1.22190038 0.377631949,1.82457372 L0.377631949,10.3482383 C0.377631949,11.1124836 0.998894205,11.7310168 1.76539952,11.7310168 C2.53190483,11.7310168 3.15366449,11.1124836 3.15366449,10.3482383 L3.15366449,6.16372265 L5.49794713,9.45562753 C5.7789825,9.84964506 6.22863908,10.0518578 6.67929049,10.0369892 C7.12994189,10.0518578 7.57860367,9.84964506 7.85914163,9.45562753 L10.2039217,6.16372265 L10.2039217,10.3482383 C10.2039217,11.1124836 10.8251839,11.7310168 11.5916892,11.7310168 C12.3581945,11.7310168 12.9799542,11.1124836 12.9799542,10.3482383 L12.9799542,1.82457372 C12.9799542,1.22190038 12.5894891,0.690100626 12.013491,0.507217021" id="Fill-20" fill="#0077C0"></path>
                    <path d="M66.8507534,0.507217021 C66.2742578,0.323837797 65.6465293,0.533484856 65.2963542,1.0246438 L61.5160555,6.33322453 L57.7342645,1.0246438 C57.3850843,0.533484856 56.7568583,0.324333417 56.1808602,0.507217021 C55.6053594,0.690100626 55.214397,1.22190038 55.214397,1.82457372 L55.214397,10.3482383 C55.214397,11.1124836 55.8356592,11.7310168 56.6021645,11.7310168 C57.3691672,11.7310168 57.9904295,11.1124836 57.9904295,10.3482383 L57.9904295,6.16372265 L60.3347121,9.45562753 C60.6157475,9.84964506 61.0649067,10.0518578 61.5160555,10.0369892 C61.9667069,10.0518578 62.4153687,9.84964506 62.6959066,9.45562753 L65.0406867,6.16372265 L65.0406867,10.3482383 C65.0406867,11.1124836 65.6619489,11.7310168 66.4289516,11.7310168 C67.1949596,11.7310168 67.8162218,11.1124836 67.8162218,10.3482383 L67.8162218,1.82457372 C67.8162218,1.22190038 67.4257567,0.690100626 66.8507534,0.507217021" id="Fill-22" fill="#0077C0"></path>
                </g>
            </g>
        </g>
    </g>
</svg>