<?xml version="1.0" encoding="UTF-8" standalone="no"?>
<svg width="92px" height="92px" viewBox="0 0 92 92" version="1.1" xmlns="http://www.w3.org/2000/svg" xmlns:xlink="http://www.w3.org/1999/xlink">
    <!-- Generator: Sketch 46.2 (44496) - http://www.bohemiancoding.com/sketch -->
    <title>Group 3 Copy 4</title>
    <desc>Created with Sketch.</desc>
    <defs>
        <circle id="path-1" cx="36" cy="36" r="36"></circle>
        <filter x="-20.8%" y="-20.8%" width="141.7%" height="141.7%" filterUnits="objectBoundingBox" id="filter-2">
            <feOffset dx="0" dy="0" in="SourceAlpha" result="shadowOffsetOuter1"></feOffset>
            <feGaussianBlur stdDeviation="5" in="shadowOffsetOuter1" result="shadowBlurOuter1"></feGaussianBlur>
            <feColorMatrix values="0 0 0 0 0   0 0 0 0 0.235294118   0 0 0 0 0.533333333  0 0 0 0.175016984 0" type="matrix" in="shadowBlurOuter1"></feColorMatrix>
        </filter>
    </defs>
    <g id="Hoverlist" stroke="none" stroke-width="1" fill="none" fill-rule="evenodd">
        <g id="Desktop-HD" transform="translate(-221.000000, -1957.000000)">
            <g id="Group-3-Copy-4" transform="translate(231.000000, 1967.000000)">
                <g id="Oval">
                    <use fill="black" fill-opacity="1" filter="url(#filter-2)" xlink:href="#path-1"></use>
                    <use fill="#FFFFFF" fill-rule="evenodd" xlink:href="#path-1"></use>
                </g>
                <path d="M40.9841862,26.9823454 L44.0915919,43.6511476 L44.0915919,43.6511476 C44.1928053,44.1940788 43.8347224,44.7162612 43.2917912,44.8174747 C43.1706534,44.8400573 43.0463852,44.8400562 42.9252478,44.8174715 L26.2572449,41.7099169 L26.2572449,41.7099169 C25.7143155,41.608694 25.3562415,41.0865054 25.4574644,40.543576 C25.4944636,40.3451232 25.5906595,40.162515 25.7334014,40.0197663 L39.2939986,26.4585188 L39.2939986,26.4585188 C39.6845135,26.0679852 40.3176785,26.06797 40.7082121,26.4584849 C40.8509766,26.6012425 40.9471864,26.7838702 40.9841862,26.9823454 Z" id="Rectangle" fill="#0077C0" transform="translate(34.774527, 35.500010) rotate(-45.000000) translate(-34.774527, -35.500010) "></path>
            </g>
        </g>
    </g>
</svg>