<?xml version="1.0" encoding="UTF-8" standalone="no"?>
<svg width="197px" height="54px" viewBox="0 0 197 54" version="1.1" xmlns="http://www.w3.org/2000/svg" xmlns:xlink="http://www.w3.org/1999/xlink">
    <!-- Generator: Sketch 46.2 (44496) - http://www.bohemiancoding.com/sketch -->
    <title>Слой_3</title>
    <desc>Created with Sketch.</desc>
    <defs></defs>
    <g id="Page-1" stroke="none" stroke-width="1" fill="none" fill-rule="evenodd">
        <g id="mm-landing-1440-edits" transform="translate(-1010.000000, -23409.000000)" fill-rule="nonzero" fill="#404042">
            <g id="Слой_3" transform="translate(1010.000000, 23409.000000)">
                <path d="M80.9997841,0 C80.6928261,0 78,0.0563883811 78,2.00008125 C78,3.94361162 80.6928261,4 80.9997841,4 C81.3067421,4 84,3.94377412 84,2.00008125 C84.0001439,0.0563883811 81.306886,0 80.9997841,0 M80.9997841,2.75896811 C79.7964167,2.75896811 79.00319,2.3041235 78.814813,2.00024375 C79.0033339,1.69522649 79.7964167,1.2416819 80.9997841,1.2416819 C82.2032955,1.2416819 82.9970978,1.69652651 83.185187,2.00024375 C82.9972417,2.3041235 82.2032955,2.75896811 80.9997841,2.75896811" id="Shape"></path>
                <path d="M17.8877965,20.2384331 C18.0071458,20.3608337 18.0668964,20.5301211 18.0668964,20.7483068 C18.0668964,20.9912511 17.8877965,21.3005797 17.5300527,21.6772208 C17.1720049,22.0535525 16.6950639,22.423385 16.0990776,22.7881111 C15.5027874,23.1517539 14.8170991,23.4612372 14.0418609,23.7164062 C13.7437158,23.8146671 13.4335597,23.876409 13.1232516,23.936913 L13.1232516,9.71615622 C13.2912528,9.74849722 13.467312,9.76613777 13.6307521,9.80668008 C14.4654369,10.0129507 15.1924792,10.2562045 15.8130955,10.5352037 C16.4327995,10.8145124 16.9215994,11.1051172 17.2794952,11.408875 C17.6375431,11.7124781 17.8163389,11.9611479 17.8163389,12.1550392 C17.8163389,12.3493947 17.7567403,12.506767 17.6375431,12.6287034 L18.1024731,12.8467344 L20.3206973,8.95049458 L19.891192,8.65973503 C19.8197344,8.75691279 19.7599838,8.83598576 19.7123961,8.89587078 C19.6642003,8.95714847 19.5454592,8.98732309 19.3548044,8.98732309 C19.1877154,8.98732309 18.8834887,8.88426516 18.4424285,8.67799455 C18.0009122,8.47203342 17.4347253,8.24719382 16.7432597,8.00378522 C16.0510339,7.76161455 15.240371,7.53692969 14.3105108,7.33050434 C13.9407561,7.24849127 13.5343604,7.19572437 13.1234036,7.14636179 L13.1234036,4 L11.2761504,4 L11.2761504,7.02844866 C11.2240016,7.02813917 11.1789986,7.02164002 11.1262416,7.02164002 C10.6438273,7.02164002 10.1788972,7.04686291 9.72415366,7.08709574 L9.72415366,4 L7.8770525,4 L7.8770525,7.3831165 C7.39995946,7.49453048 6.93442124,7.62203759 6.49351308,7.78590899 C5.12152848,8.29593744 3.95327387,8.98190713 2.98722887,9.8424254 C2.0213359,10.7046458 1.28213055,11.6940639 0.769308737,12.810989 C0.256030813,13.92745 0,15.1050339 0,16.3434312 C0,17.8239992 0.274123252,19.1888205 0.822825867,20.4386687 C1.37137644,21.6899097 2.14053314,22.7696968 3.130448,23.6797324 C4.12005879,24.5900775 5.30670991,25.288117 6.68994527,25.7735416 C7.07353537,25.9078573 7.47080884,26.0197355 7.87690047,26.1167585 L7.87690047,30 L9.72400162,30 L9.72400162,26.4185047 C10.2264849,26.4681768 10.7379384,26.5012915 11.2693087,26.5012915 C11.2715893,26.5012915 11.2737178,26.5012915 11.2759984,26.5012915 L11.2759984,30 L13.1230995,30 L13.1230995,26.4095297 C13.8490776,26.3366464 14.5122643,26.2226018 15.0974559,26.0579567 C16.1460572,25.7617812 17.0113014,25.4232065 17.6909082,25.0413041 C18.370971,24.6600207 18.8947395,24.3095309 19.2651024,23.99262 C19.6348571,23.6744712 19.879029,23.5157063 19.9980742,23.5157063 C20.2130549,23.5157063 20.3921549,23.6014331 20.5349179,23.7705658 L21,23.442823 L18.3527265,19.9476735 L17.8877965,20.2384331 Z M5.61656193,22.0283296 C4.80574701,21.3743914 4.15593959,20.5934104 3.66668356,19.6846127 C3.17788364,18.7772077 2.93371174,17.7789694 2.93371174,16.6885051 C2.93371174,15.4296818 3.17165011,14.3458714 3.64919927,13.4381569 C4.12644435,12.5305972 4.74021893,11.7867541 5.49158727,11.2047708 C6.19217515,10.6622466 6.9900669,10.2582162 7.8770525,9.97906227 L7.8770525,23.325993 C7.05255423,22.9843235 6.28628624,22.5679137 5.61656193,22.0283296 L5.61656193,22.0283296 Z M9.72400162,23.9098332 L9.72400162,9.58632798 C10.1328299,9.53603695 10.540898,9.49750628 10.9475978,9.49750628 C11.0601054,9.49750628 11.164251,9.51267096 11.2759984,9.51592053 L11.2759984,24.0850008 C10.7517738,24.0682887 10.2343908,24.0102606 9.72400162,23.9098332 L9.72400162,23.9098332 Z" id="Shape"></path>
                <path d="M36.5723754,10.3696132 C35.7858335,9.64511458 34.8396155,9.06827195 33.7326587,8.64044827 C32.6260056,8.21323035 31.3816848,8 30,8 C28.6201366,8 27.3758158,8.21323035 26.2687073,8.64044827 C25.1619024,9.06827195 24.2147736,9.64511458 23.4291424,10.3696132 C22.6430559,11.0942632 22.0413863,11.94355 21.6250443,12.9173221 C21.2083987,13.8913971 21,14.9368014 21,16.0536862 C21,17.1702681 21.2083987,18.2149151 21.6250443,19.1888387 C22.0415381,20.1638224 22.6432077,21.0131092 23.4291424,21.7374563 C24.2147736,22.4621064 25.1619024,23.0198673 26.2687073,23.4122536 C27.3756641,23.8035797 28.6199848,24 30,24 C31.3816848,24 32.6260056,23.8035797 33.7326587,23.4122536 C34.8396155,23.0198673 35.7859853,22.4621064 36.5723754,21.7374563 C37.3584619,21.0131092 37.9599798,20.1638224 38.3757146,19.1888387 C38.7920567,18.2150666 39,17.1702681 39,16.0536862 C39,14.9368014 38.7920567,13.8913971 38.3757146,12.9173221 C37.9599798,11.9437014 37.3586137,11.0942632 36.5723754,10.3696132 M36.179408,18.4052778 C35.8700734,19.1421946 35.4292942,19.7830972 34.858892,20.3295 C34.286213,20.8760542 33.5895269,21.3094812 32.768682,21.6297811 C31.946471,21.9508381 31.0246901,22.1116696 30,22.1116696 C28.9766759,22.1116696 28.0532254,21.9508381 27.2325323,21.6297811 C26.4118391,21.3093298 25.7154566,20.8759027 25.1427776,20.3295 C24.5722236,19.7832486 24.1308373,19.142346 23.8215027,18.4052778 C23.5117126,17.6692696 23.3573488,16.8725332 23.3573488,16.0174916 C23.3573488,15.1865292 23.5118644,14.4025139 23.8215027,13.6659 C24.1306856,12.9297404 24.5722236,12.2883835 25.1427776,11.7415263 C25.7154566,11.1951236 26.4118391,10.7677542 27.2325323,10.4583582 C28.0532254,10.1497194 28.9766759,9.99555139 30,9.99555139 C31.0246901,9.99555139 31.9463193,10.1497194 32.768682,10.4583582 C33.5895269,10.7677542 34.286213,11.1951236 34.858892,11.7415263 C35.4292942,12.288232 35.8700734,12.9295889 36.179408,13.6659 C36.4885909,14.4025139 36.6431065,15.1866807 36.6431065,16.0174916 C36.6431065,16.8725332 36.4885909,17.6692696 36.179408,18.4052778" id="Shape"></path>
                <path d="M42,8.43609952 C42.3806777,8.43609952 42.6250522,8.50347705 42.7329716,8.63653222 C42.8398285,8.77020553 42.8932569,9.0424973 42.8932569,9.4546438 L42.8932569,22.5456653 C42.8932569,22.9581208 42.8396767,23.2308762 42.7329716,23.3636223 C42.6250522,23.496832 42.3806777,23.5637459 42,23.5637459 L42,24 L46,24 L46,23.5637459 C45.6191705,23.5637459 45.3750996,23.496832 45.2682427,23.3636223 C45.1613858,23.2308762 45.1079573,22.9579663 45.1079573,22.5456653 L45.1079573,9.45448926 C45.1079573,9.04234276 45.1613858,8.770051 45.2682427,8.63637769 C45.3750996,8.50332252 45.6191705,8.43594499 46,8.43594499 L46,8 L42,8 L42,8.43609952 Z" id="Shape"></path>
                <path d="M62.9090909,8.43609952 C63.3056175,8.43609952 63.5719177,8.50347705 63.7087818,8.63653222 C63.8446977,8.77020553 63.9136039,9.0424973 63.9136039,9.4546438 L63.9136039,20.6912378 L53.8348113,9.38139391 C53.5617153,9.04234276 53.4264316,8.83665585 53.4264316,8.76325143 C53.4264316,8.66728481 53.4939154,8.58769896 53.6299893,8.52743007 C53.7665373,8.46685211 54.0337858,8.43594499 54.4301544,8.43594499 L54.4301544,8 L49,8 L49,8.43594499 C49.3963686,8.43594499 49.6639331,8.50332252 49.8001651,8.63637769 C49.936397,8.770051 50.004513,9.04234276 50.004513,9.45448926 L50.004513,22.5455107 C50.004513,22.9579663 49.936397,23.2307217 49.8001651,23.3634678 C49.6639331,23.4966775 49.3963686,23.5635914 49,23.5635914 L49,23.9998455 L53.0920154,23.9998455 L53.0920154,23.5635914 C52.6942245,23.5635914 52.4280823,23.4966775 52.2918503,23.3634678 C52.1557764,23.2307217 52.0875024,22.9578118 52.0875024,22.5455107 L52.0875024,10.8368104 L62.6122886,22.5816721 C62.7354031,22.7272446 62.8406589,22.8431463 62.928372,22.9276773 C63.0146628,23.0128265 63.0584403,23.1149745 63.0584403,23.2367486 C63.0584403,23.3579045 63.007867,23.4424355 62.909407,23.4912687 C62.8099988,23.5397929 62.5128804,23.5637459 62.0171036,23.5637459 L62.0171036,24 L67,24 L67,23.5637459 C66.6037895,23.5637459 66.336383,23.496832 66.2003091,23.3636223 C66.0640771,23.2308762 65.9962772,22.9579663 65.9962772,22.5456653 L65.9962772,9.45448926 C65.9962772,9.04234276 66.0640771,8.770051 66.2003091,8.63637769 C66.3362249,8.50332252 66.6037895,8.43594499 67,8.43594499 L67,8 L62.909565,8 L62.909565,8.43609952 L62.9090909,8.43609952 Z" id="Shape"></path>
                <path d="M79,5.43349977 C79.3565482,5.43349977 79.5982538,5.51286215 79.7260914,5.66913084 C79.8534416,5.82539952 79.9171168,6.03539516 79.9171168,6.30126683 L79.9171168,22.7001147 C79.9171168,22.9649119 79.8534416,23.175982 79.7260914,23.3325577 C79.5980914,23.4888264 79.3565482,23.5669608 79,23.5669608 L79,24 L83,24 L83,23.5669608 C82.6424772,23.5669608 82.400934,23.4888264 82.2732589,23.3325577 C82.1452589,23.175982 82.0820711,22.9649119 82.0820711,22.7001147 L82.0820711,6.30126683 C82.0820711,6.03554866 82.1452589,5.82539952 82.2732589,5.66913084 C82.400934,5.51286215 82.6424772,5.43349977 83,5.43349977 L83,5 L79,5 L79,5.43349977 Z" id="Shape"></path>
                <path d="M101.056327,10.3090935 C100.39022,9.5943594 99.5362452,9.03060801 98.4951737,8.61814845 C97.4534847,8.20615251 96.2192963,8 94.7909103,8 L86,8 L86,8.4359492 C86.38716,8.4359492 86.6356958,8.50317284 86.7445267,8.63638383 C86.8530488,8.77036751 86.9075414,9.04250736 86.9075414,9.45450331 L86.9075414,22.5459603 C86.9075414,22.9581108 86.8528944,23.2308688 86.7445267,23.3637707 C86.6356958,23.4968272 86.38716,23.5637417 86,23.5637417 L86,24 L94.7909103,24 C96.2192963,24 97.4534847,23.794002 98.4951737,23.3821606 C99.5362452,22.9703192 100.390066,22.4067224 101.056327,21.6904428 C101.721816,20.9763268 102.21225,20.1274545 102.527628,19.1452166 C102.841925,18.1639059 103,17.1156807 103,16.0006954 C103,14.8608297 102.842079,13.8068866 102.527628,12.836239 C102.212404,11.8677549 101.721816,11.0244458 101.056327,10.3090935 M100.257462,18.3090163 C100.02637,19.0251413 99.6636005,19.6544164 99.1673008,20.200396 C98.6706924,20.7452939 98.0294393,21.1759888 97.2423065,21.4907809 C96.4548649,21.8063457 95.4922134,21.9639735 94.3538888,21.9639735 L89.1596459,21.9639735 L89.1596459,10.0363355 L94.3538888,10.0363355 C95.4922134,10.0363355 96.4548649,10.1947361 97.2423065,10.5092191 C98.0294393,10.8243203 98.6706924,11.2548607 99.1673008,11.8005312 C99.6636005,12.3455836 100.026216,12.976095 100.257462,13.6911383 C100.487473,14.406336 100.602016,15.1768581 100.602016,16.00085 C100.602016,16.8242237 100.487473,17.5949003 100.257462,18.3090163" id="Shape"></path>
                <path d="M120.571354,9.36948415 C119.786495,8.6449787 118.840293,8.06828206 117.732596,7.64045433 C116.624899,7.21323237 115.380751,7 114.000304,7 C112.619401,7 111.374646,7.21323237 110.268315,7.64045433 C109.161073,8.06843351 108.214719,8.64513015 107.428494,9.36948415 C106.643028,10.094141 106.040913,10.9435873 105.625489,11.9173687 C105.208092,12.8914529 105,13.9367156 105,15.0537624 C105,16.1702035 105.208092,17.2148604 105.625489,18.1887932 C106.040913,19.1637861 106.643028,20.0129295 107.428494,20.7372835 C108.214719,21.4620918 109.161073,22.019858 110.268315,22.412248 C111.374646,22.8034264 112.619401,23 114.000304,23 C115.380751,23 116.624899,22.8034264 117.732596,22.412248 C118.840293,22.019858 119.786495,21.4620918 120.571354,20.7372835 C121.35849,20.0129295 121.959087,19.1637861 122.375422,18.1887932 C122.792516,17.2148604 123,16.1702035 123,15.0537624 C123,13.9367156 122.792516,12.8913015 122.375422,11.9173687 C121.959087,10.9435873 121.358338,10.094141 120.571354,9.36948415 M120.179759,17.4052248 C119.869367,18.1421486 119.429506,18.7830573 118.858051,19.3294652 C118.286292,19.8760246 117.589922,20.3093043 116.76818,20.6297586 C115.947045,20.9508187 115.023914,21.1118031 114.000304,21.1118031 C112.976238,21.1118031 112.053865,20.9508187 111.232882,20.6297586 C110.411292,20.3093043 109.71477,19.8760246 109.143163,19.3294652 C108.572012,18.7832087 108.130936,18.1423 107.821759,17.4052248 C107.511518,16.6692097 107.356854,15.8724657 107.356854,15.017416 C107.356854,14.1864458 107.511518,13.4024231 107.821759,12.6656507 C108.130936,11.9296356 108.572012,11.2881212 109.143163,10.7414103 C109.71477,10.1950024 110.411141,9.76762896 111.232882,9.45823 C112.053865,9.14928538 112.976238,8.99526739 114.000304,8.99526739 C115.023914,8.99526739 115.947045,9.14928538 116.76818,9.45823 C117.58977,9.76762896 118.286292,10.1950024 118.858051,10.7414103 C119.429506,11.2879697 119.869367,11.9296356 120.179759,12.6656507 C120.489089,13.4024231 120.643602,14.1864458 120.643602,15.017416 C120.643602,15.8726171 120.489089,16.6692097 120.179759,17.4052248" id="Shape"></path>
                <path d="M141.561757,21.1110432 C141.561757,21.5319389 141.501213,21.8215605 141.379349,21.9824264 C141.257175,22.1423479 141.014379,22.222466 140.648012,22.222466 L129.178391,22.222466 L129.178391,9.48084775 C129.178391,9.06136867 129.233656,8.78418192 129.342635,8.6480283 C129.452079,8.51250428 129.701706,8.44371916 130.091204,8.44371916 L130.091204,8 L126,8 L126,8.44371916 C126.389653,8.44371916 126.63928,8.51250428 126.7495,8.6480283 C126.859255,8.78418192 126.913745,9.06136867 126.913745,9.48084775 L126.913745,22.8150885 C126.913745,23.2345676 126.859255,23.5130135 126.7495,23.6483801 C126.63928,23.7839042 126.389653,23.8523745 126,23.8523745 L126,24.2964084 L140.647857,24.2964084 C141.014224,24.2964084 141.25702,24.3455182 141.379194,24.4448395 C141.501058,24.543059 141.561601,24.7280076 141.561601,25 L142,25 L142,21.1108858 L141.561757,21.1108858 L141.561757,21.1110432 Z" id="Shape"></path>
                <path d="M144.999682,20 C145.560904,20 146.034132,20.1950732 146.420797,20.5853862 C146.806667,20.9756992 147,21.4510441 147,22.0120879 C147,22.5571256 146.802689,23.0243008 146.408545,23.4146138 C146.014082,23.8047601 145.544355,24 144.999682,24 C144.446734,24 143.975416,23.8029261 143.585249,23.4087783 C143.194924,23.0146305 143,22.5407861 143,21.9880789 C143,21.4435413 143.192855,20.9780334 143.579044,20.5917219 C143.965391,20.2052436 144.438778,20.0081697 144.999682,20 Z" id="Shape"></path>
                <path d="M161.164524,19.5288172 L162.999839,22.7010511 L162.750014,22.9192926 C162.576132,22.7737451 162.438696,22.7010511 162.337385,22.7010511 C162.214239,22.7010511 161.928449,22.8596708 161.479374,23.1762724 C160.487299,23.8611268 159.611145,24.3365075 158.850912,24.6016175 C158.09068,24.8670464 157.214686,25 156.222611,25 C154.238621,25 152.620216,24.4393313 151.36804,23.3175156 C150.658062,22.675385 150.093386,21.8704898 149.673693,20.9029896 C149.224297,19.8586505 149,18.7242409 149,17.4997609 C149,15.8131317 149.412789,14.323701 150.238368,13.0306718 C151.534216,11.0102239 153.521738,10 156.200936,10 C157.193011,10 158.074464,10.1327942 158.845453,10.3979042 C159.617085,10.6634925 160.494845,11.1387138 161.479535,11.8235682 C161.92861,12.1404887 162.2144,12.2986301 162.337546,12.2986301 C162.438857,12.2986301 162.576293,12.225936 162.750175,12.0803886 L163,12.3115428 L161.164685,15.4579512 L160.925777,15.2535789 C160.932521,15.1509145 160.940067,15.0871478 160.947292,15.0614817 C160.954517,14.9848023 160.95837,14.9294847 160.95837,14.8953695 C160.95837,14.477857 160.469477,14.0051864 159.491852,13.4765604 C158.564962,12.9739194 157.631008,12.7223598 156.689668,12.7223598 C155.371985,12.7223598 154.285985,13.1325391 153.431506,13.9521006 C152.454041,14.8743265 151.965308,16.0568799 151.965308,17.4996015 C151.965308,18.9512504 152.454041,20.138108 153.431506,21.0603339 C154.292889,21.8714463 155.37921,22.2770025 156.689668,22.2770025 C157.717869,22.2770025 158.742376,21.9731542 159.763513,21.3652982 C160.560191,20.885932 160.95837,20.4665065 160.95837,20.1067029 C160.95837,20.0896454 160.947292,19.9699234 160.925777,19.7470588 L161.164524,19.5288172 Z" id="Shape"></path>
                <path d="M171.482612,10 C173.516109,10 175.210897,10.5821838 176.566666,11.7467107 C178.188629,13.1508385 179,15.1070206 179,17.6154165 C179,19.9701362 178.188785,21.8491615 176.566666,23.2532893 C175.225868,24.4176568 173.538877,25 171.505536,25 C169.472195,25 167.785204,24.4176568 166.444562,23.2532893 C164.814646,21.8491615 164,19.9313984 164,17.4998406 C164,15.0427764 164.814646,13.1250133 166.444562,11.7467107 C167.792689,10.6078496 169.472039,10.0255064 171.482612,10 Z M171.494308,12.7224903 C170.17581,12.7224903 169.101207,13.1977065 168.270655,14.1481391 C167.50092,15.0386316 167.116209,16.1559717 167.116209,17.4998406 C167.116209,18.8357387 167.501076,19.9486152 168.270655,20.8389483 C169.101207,21.7978298 170.179397,22.2771909 171.50538,22.2771909 C172.823722,22.2771909 173.898169,21.7976704 174.728878,20.8389483 C175.498612,19.9572236 175.883479,18.8655493 175.883479,17.5640849 C175.883479,16.1516675 175.498456,15.0129658 174.728878,14.1481391 C173.890528,13.2149234 172.812182,12.7395477 171.494308,12.7224903 Z" id="Shape"></path>
                <path d="M188.224259,24 L183.535166,14.7905394 L183.535166,22.7127578 C183.535166,22.9707959 183.588793,23.1687854 183.696048,23.3062609 C183.803145,23.4437364 183.99429,23.5580924 184.269953,23.6497944 L184.269953,23.9998448 L180,23.9998448 L180,23.6497944 C180.267666,23.5748501 180.457086,23.4667007 180.568261,23.3248806 C180.678965,23.1833708 180.734631,22.983209 180.734631,22.7248606 L180.734631,11.2749842 C180.734631,11.016791 180.681004,10.8188015 180.574063,10.681326 C180.466494,10.5438505 180.275506,10.4335288 180.000157,10.3500504 L180.000157,10 L185.431564,10 L185.431564,10.3498953 C185.071854,10.4751128 184.891998,10.7123588 184.891998,11.0624093 C184.891998,11.404236 185.022146,11.8208519 185.282442,12.312412 L188.488788,18.6454387 L191.718185,12.3999246 C192.085422,11.7417181 192.269197,11.2749842 192.269197,10.9998781 C192.269197,10.6583617 192.081658,10.4417525 191.706424,10.3498953 L191.706424,10 L197,10 L197,10.3498953 C196.724651,10.4330633 196.533035,10.5435402 196.426094,10.6808605 C196.318683,10.818336 196.265526,11.0160152 196.265526,11.2740532 L196.265526,22.7133785 C196.265526,22.9715717 196.31884,23.171268 196.426094,23.3127778 C196.533192,23.4542875 196.724651,23.5664712 197,23.6497944 L197,23.9998448 L192.454697,23.9998448 L192.454697,23.6497944 C192.722206,23.5748501 192.911783,23.4663903 193.022644,23.3245703 C193.133506,23.1824398 193.189171,22.9825884 193.189171,22.7239296 L193.189171,14.7905394 L188.224259,24 Z" id="Shape"></path>
                <path d="M45.037589,35.7667924 C46.345813,36.2359259 47,37.2028142 47,38.6680968 C47,39.3773934 46.8240804,40.0014657 46.4722412,40.5406335 C46.125801,41.074045 45.6586317,41.450439 45.0704333,41.6702954 C44.4820849,41.8899919 43.6438797,42 42.5553677,42 L36,42 L36,41.7185839 C36.2089139,41.660222 36.3491397,41.5810737 36.4205274,41.4812989 C36.491915,41.381684 36.5277588,41.2088369 36.5277588,40.9625978 L36.5277588,31.0372423 C36.5277588,30.7910032 36.491915,30.6167171 36.4205274,30.514224 C36.3489897,30.4115711 36.2089139,30.3340218 36,30.2812562 L36,30 L42.7120906,30 C43.3718267,30 43.9172825,30.0556436 44.3489079,30.1669309 C44.7803834,30.2782182 45.1611676,30.4630575 45.4909607,30.7208091 C46.2495296,31.30107 46.6288141,32.1333262 46.6288141,33.2175778 C46.6291141,34.3720236 46.0985057,35.2217085 45.037589,35.7667924 Z M37.8224852,35.1777372 L42.159736,35.1777372 C42.7753797,35.1777372 43.2358002,35.1572706 43.5408475,35.1161774 C43.8458948,35.0752442 44.1275462,34.998974 44.3861015,34.8875268 C44.7047964,34.7468187 44.9522537,34.5301603 45.1281733,34.2370718 C45.3040929,33.9439833 45.3919777,33.6040454 45.3919777,33.2172581 C45.3919777,32.7014351 45.2354048,32.2618822 44.9219589,31.8984397 C44.6689526,31.6114272 44.3406593,31.4136364 43.9366291,31.3050674 C43.5325989,31.1966582 42.912756,31.1422937 42.0772503,31.1422937 L37.8223352,31.1422937 L37.8223352,35.1777372 L37.8224852,35.1777372 Z M37.8224852,40.8570667 L42.3412047,40.8570667 C42.9898427,40.8570667 43.4709596,40.8350011 43.7842554,40.7911898 C44.0975513,40.7472185 44.388951,40.6608749 44.6583045,40.5318392 C44.9880975,40.3677864 45.2450031,40.1217072 45.4293213,39.7932817 C45.6134895,39.4651761 45.7055736,39.084145 45.7055736,38.6505083 C45.7055736,38.0761636 45.5433016,37.5868832 45.2190576,37.1823475 C44.9497041,36.8481659 44.6059635,36.6211142 44.1882857,36.5008728 C43.7704578,36.3807912 43.1273689,36.3206705 42.2587189,36.3206705 L37.8224852,36.3206705 L37.8224852,40.8570667 L37.8224852,40.8570667 Z" id="Shape"></path>
                <path d="M50.8250905,40.3709398 L58.0257273,40.3709398 C58.2570176,40.3709398 58.4205728,40.3345891 58.5169938,40.2617351 C58.6132646,40.1890337 58.6862563,40.0462275 58.7358185,39.8333164 L59,39.8333164 L59,42 L58.7358185,42 C58.6862563,41.7870889 58.6132646,41.6444354 58.5169938,41.571734 C58.4205728,41.49888 58.2568674,41.4625293 58.0257273,41.4625293 L49,41.4625293 L49,41.1937175 C49.2147695,41.1379697 49.3563973,41.0623664 49.4253338,40.9670604 C49.4941201,40.8719071 49.5285133,40.7068018 49.5285133,40.4715915 L49.5285133,30.9907851 C49.5285133,30.7555748 49.4926182,30.5906221 49.4211285,30.4953162 C49.3494886,30.4003157 49.2092126,30.3245596 49,30.268659 L49,30 L51.3534536,30 L51.3534536,30.268659 C51.144241,30.3245596 51.0038148,30.4003157 50.9323251,30.4953162 C50.8606852,30.5906221 50.8249403,30.7555748 50.8249403,30.9907851 L50.8249403,40.3709398 L50.8250905,40.3709398 Z" id="Shape"></path>
                <path d="M66.9784822,30 C69.0416992,30 70.7048092,30.5350564 71.9681242,31.6051693 C72.6766534,32.1996937 73.2083621,32.9273642 73.5627826,33.7878722 C73.8543648,34.4956171 74,35.2571149 74,36.0723655 C74,37.1763055 73.6828459,38.2096565 73.0483817,39.1721093 C72.3509233,40.2366616 71.3821531,41.0035655 70.1420711,41.4735934 C69.2161807,41.8243767 68.1672644,42 66.9956341,42 C64.9436438,42 63.2891097,41.4649436 62.0318758,40.3948307 C61.328804,39.7947457 60.7974072,39.0672296 60.4372174,38.2122823 C60.1456352,37.5102524 60,36.7714606 60,35.9955978 C60,34.8464004 60.3143474,33.7875632 60.9430423,32.8193953 C61.6289622,31.7721428 62.6005391,31.0077102 63.8579289,30.5264066 C64.737977,30.1924597 65.7783173,30.0168364 66.9784822,30 Z M66.9784822,31.1635624 C65.2238434,31.1635624 63.8350077,31.6504267 62.8119751,32.6241553 C61.8745461,33.5187993 61.4059876,34.642665 61.4059876,35.9957523 C61.4059876,37.3545547 61.8745461,38.4813551 62.8119751,39.3758447 C63.8292384,40.3497278 65.2238434,40.8365921 66.9956341,40.8365921 C68.7730381,40.8365921 70.1732564,40.3497278 71.1964449,39.3758447 C72.1279487,38.4813551 72.5938565,37.3774151 72.5938565,36.0637156 C72.5938565,34.6428194 72.1279487,33.4962479 71.1964449,32.6241553 C70.6362016,32.1033093 70.0361972,31.7383156 69.3961197,31.5285562 C68.6872786,31.2909936 67.8814515,31.169123 66.9784822,31.1635624 Z" id="Shape"></path>
                <path d="M88.6813534,31.2058695 L87.4072365,33.3034367 L87.1748672,33.1676664 C87.2265396,32.9977603 87.2523758,32.8647702 87.2523758,32.7683872 C87.2523758,32.5363882 86.8850319,32.2447677 86.1503439,31.89368 C85.1400696,31.4069764 84.0381942,31.163393 82.8444046,31.163393 C81.237392,31.163393 79.9346205,31.6017505 78.9359334,32.4784657 C77.9200222,33.3723259 77.4120665,34.5289226 77.4120665,35.9488737 C77.4120665,37.3631098 77.9400648,38.5368516 78.9962179,39.4702536 C80.0177662,40.3811044 81.2776339,40.8364526 82.7756646,40.8364526 C84.239247,40.8364526 85.5305879,40.4160124 86.649844,39.5752864 C87.1548246,39.196087 87.4073931,38.9271721 87.4073931,38.7683872 C87.4073931,38.6891492 87.3585392,38.5590938 87.2609879,38.3779122 L87.467521,38.2165015 L89,40.0508688 L88.7846982,40.2212383 C88.6238874,40.0794439 88.4918878,40.0085468 88.3886995,40.0085468 C88.3254399,40.0085468 88.2164581,40.0681684 88.0615974,40.1871026 C87.5334425,40.5786588 87.0959493,40.8722873 86.748648,41.0679882 C86.4013466,41.2638435 86.0211628,41.4297336 85.60794,41.5659673 C84.752683,41.8551165 83.8114619,42 82.7841201,42 C80.80397,42 79.194139,41.4564551 77.9543139,40.3693654 C76.6513858,39.2314584 76,37.7790707 76,36.0128202 C76,34.6198996 76.4074293,33.4140301 77.222601,32.3949028 C78.4967178,30.7982495 80.4049962,30 82.9477494,30 C84.6292955,30 86.2565072,30.4389754 87.829228,31.3163084 C87.9325729,31.3728408 88.004288,31.4012614 88.0445298,31.4012614 C88.1190634,31.4012614 88.2538815,31.2939117 88.4491406,31.07844 L88.6813534,31.2058695 Z" id="Shape"></path>
                <path d="M92.955738,37.3931512 L92.955738,40.9622918 C92.955738,41.2027715 92.9940447,41.3741772 93.0708192,41.4766689 C93.1474328,41.5793205 93.2979237,41.6599067 93.522131,41.7184277 L93.522131,41.9998401 L91,41.9998401 L91,41.7184277 C91.2242073,41.6600666 91.3746982,41.5809194 91.4513118,41.4811459 C91.5279253,41.3815323 91.566393,41.2086875 91.566393,40.9624517 L91.566393,31.0372285 C91.566393,30.7909927 91.5279253,30.6167089 91.4513118,30.5142172 C91.3745373,30.4115656 91.2242073,30.3340173 91,30.2812525 L91,30 L93.522131,30 L93.522131,30.2812525 C93.2979237,30.3397735 93.1474328,30.4190806 93.0708192,30.5186942 C92.9940447,30.6183078 92.955738,30.7914724 92.955738,31.0377082 L92.955738,36.0249434 L99.4748109,30.9580813 C99.7043296,30.7821985 99.81925,30.6387742 99.81925,30.5274883 C99.81925,30.3984544 99.7073877,30.316429 99.4836633,30.2812525 L99.4836633,30 L102.672622,30 L102.672622,30.2812525 C102.318526,30.3047568 101.970385,30.4481812 101.62836,30.7120053 L96.7199421,34.4936442 L102.123934,41.2878348 C102.253662,41.4518854 102.374698,41.5618921 102.486721,41.617535 C102.598745,41.6733378 102.769998,41.7070753 103,41.7185876 L103,42 L100.052953,42 L100.052953,41.7185876 C100.306615,41.6602265 100.433446,41.5751632 100.433446,41.4637175 C100.433446,41.3933644 100.303557,41.1910993 100.044101,40.8570819 L95.6708514,35.3020653 L92.955738,37.3931512 Z" id="Shape"></path>
                <path d="M115.681506,31.2058695 L114.407374,33.3034367 L114.174845,33.1676664 C114.226518,32.9977603 114.252355,32.8647702 114.252355,32.7683872 C114.252355,32.5363882 113.885006,32.2447677 113.150466,31.89368 C112.14018,31.4069764 111.038134,31.163393 109.844487,31.163393 C108.237299,31.163393 106.934511,31.6017505 105.935812,32.4784657 C104.919889,33.3723259 104.411927,34.5289226 104.411927,35.9488737 C104.411927,37.3631098 104.939932,38.5368516 105.996097,39.4702536 C107.017501,40.3811044 108.277541,40.8364526 109.77559,40.8364526 C111.239346,40.8364526 112.530703,40.4160124 113.649816,39.5752864 C114.154802,39.196087 114.407531,38.9271721 114.407531,38.7683872 C114.407531,38.6891492 114.358519,38.5590938 114.260967,38.3779122 L114.467659,38.2165015 L116,40.0508688 L115.784852,40.2212383 C115.624196,40.0794439 115.492195,40.0085468 115.388849,40.0085468 C115.325588,40.0085468 115.216605,40.0681684 115.061743,40.1871026 C114.533581,40.5786588 114.095926,40.8722873 113.748777,41.0679882 C113.401315,41.2638435 113.021284,41.4297336 112.608056,41.5659673 C111.752632,41.8551165 110.811399,42 109.784202,42 C107.804028,42 106.194021,41.4564551 104.954181,40.3693654 C103.651394,39.2314584 103,37.7790707 103,36.0128202 C103,34.6198996 103.407591,33.4140301 104.222616,32.3949028 C105.496748,30.7982495 107.405049,30 109.947833,30 C111.629556,30 113.256787,30.4389754 114.829371,31.3163084 C114.932717,31.3728408 115.004433,31.4012614 115.044675,31.4012614 C115.119209,31.4012614 115.254186,31.2939117 115.449291,31.07844 L115.681506,31.2058695 Z" id="Shape"></path>
                <path d="M128.074072,36.3998934 L119.925928,36.3998934 L119.925928,40.9624517 C119.925928,41.2086875 119.962224,41.3815323 120.034976,41.4811459 C120.107568,41.5809194 120.257033,41.6600666 120.483688,41.7184277 L120.483688,41.9998401 L118,41.9998401 L118,41.7184277 C118.226654,41.6600666 118.376119,41.5809194 118.448871,41.4811459 C118.521463,41.3815323 118.557918,41.2086875 118.557918,40.9624517 L118.557918,31.0372285 C118.557918,30.7909927 118.520037,30.6167089 118.444591,30.5142172 C118.368828,30.4115656 118.22079,30.3340173 118,30.2812525 L118,30 L120.483688,30 L120.483688,30.2812525 C120.262739,30.3397735 120.114701,30.4190806 120.039255,30.5185343 C119.963651,30.6183078 119.925928,30.7909927 119.925928,31.0372285 L119.925928,35.2571352 L128.074072,35.2571352 L128.074072,31.0372285 C128.074072,30.7909927 128.036191,30.6167089 127.960745,30.5142172 C127.885141,30.4115656 127.737102,30.3340173 127.516312,30.2812525 L127.516312,30 L130,30 L130,30.2812525 C129.779052,30.3397735 129.630855,30.4190806 129.555409,30.5185343 C129.479805,30.6183078 129.442082,30.7909927 129.442082,31.0372285 L129.442082,40.9624517 C129.442082,41.2029314 129.479805,41.3743371 129.555409,41.4768288 C129.630855,41.5794803 129.779052,41.6600666 130,41.7185876 L130,42 L127.516312,42 L127.516312,41.7185876 C127.737102,41.6602265 127.885141,41.5810793 127.960745,41.4813058 C128.036191,41.3816922 128.074072,41.2088474 128.074072,40.9626116 L128.074072,36.3998934 Z" id="Shape"></path>
                <path d="M140.564734,38.6328497 L134.287178,38.6328497 L133.255254,40.9098613 C133.157675,41.1266739 133.108886,41.2790502 133.108886,41.3668306 C133.108886,41.542711 133.278554,41.6600712 133.618046,41.7184315 L133.618046,41.9998401 L131,41.9998401 L131,41.7184315 C131.234877,41.6774993 131.413927,41.5895591 131.537464,41.4547708 C131.660532,41.3199824 131.822381,41.0270616 132.023168,40.5756885 L136.321942,31.0899788 C136.42515,30.8614942 136.476754,30.7063996 136.476754,30.6242155 C136.476754,30.4718391 136.336329,30.3575169 136.055477,30.2812488 L136.055477,30 L138.909964,30 L138.909964,30.2812488 C138.629112,30.3751049 138.488687,30.4980613 138.488687,30.6505976 C138.488687,30.7150338 138.540291,30.8614942 138.643499,31.0899788 L142.761815,40.2328816 C143.065497,40.9069833 143.266284,41.3025543 143.363706,41.4197546 C143.461129,41.5369549 143.673174,41.6365671 144,41.7185914 L144,42 L141.214319,42 L141.214319,41.7185914 C141.547869,41.6717432 141.714409,41.542711 141.714409,41.3318144 C141.714409,41.2381181 141.65139,41.0563217 141.525351,40.786745 L140.564734,38.6328497 Z M140.068709,37.4899468 L137.426112,31.5605388 L134.78633,37.4899468 L140.068709,37.4899468 Z" id="Shape"></path>
                <path d="M145.449266,40.9625978 L145.449266,31.0372423 C145.449266,30.7910032 145.418762,30.6167171 145.358009,30.514224 C145.297001,30.4115711 145.177792,30.3340218 145,30.2812562 L145,30 L147,30 L147,30.2812562 C146.82208,30.339778 146.702872,30.4190862 146.642119,30.5185412 C146.581238,30.618316 146.550862,30.7910032 146.550862,31.0372423 L146.550862,40.9625978 C146.550862,41.2088369 146.580089,41.381684 146.638673,41.4812989 C146.697128,41.5810737 146.817486,41.660222 147,41.7185839 L147,42 L145,42 L145,41.7185839 C145.182514,41.660222 145.302872,41.5810737 145.361455,41.4812989 C145.420038,41.381684 145.449266,41.2088369 145.449266,40.9625978 Z" id="Shape"></path>
                <path d="M151.746825,31.5205863 L151.746825,40.9622918 C151.746825,41.2027715 151.783201,41.3741772 151.856567,41.4766689 C151.929627,41.5793205 152.072983,41.6599067 152.286942,41.7184277 L152.286942,41.9998401 L150,41.9998401 L150,41.7184277 C150.219485,41.6600666 150.364222,41.5809194 150.434672,41.4811459 C150.504969,41.3815323 150.540271,41.2086875 150.540271,40.9624517 L150.540271,31.0372285 C150.540271,30.7909927 150.503588,30.6167089 150.430528,30.5142172 C150.357162,30.4115656 150.213806,30.3340173 150,30.2812525 L150,30 L153.30962,30 L153.30962,30.2812525 C153.04501,30.3751099 152.912858,30.5068621 152.912858,30.6768288 C152.912858,30.7941905 153.04501,31.014044 153.30962,31.3362292 L160.253329,39.793471 L160.253329,31.0373884 C160.253329,30.7911526 160.216646,30.6168688 160.143586,30.5143771 C160.070373,30.4117255 159.926864,30.3341772 159.713058,30.2814124 L159.713058,30.0001599 L162,30.0001599 L162,30.2814124 C161.78604,30.3341772 161.642684,30.4117255 161.569625,30.5143771 C161.496259,30.6170286 161.459883,30.7911526 161.459883,31.0373884 L161.459883,40.9626116 C161.459883,41.2088474 161.496259,41.3816922 161.569625,41.4813058 C161.642684,41.5810793 161.78604,41.6602265 162,41.7185876 L162,42 L159.340854,42 L159.340854,41.7185876 C159.599785,41.6483944 159.729174,41.5283145 159.729174,41.3581879 C159.729174,41.2293138 159.610836,41.0184144 159.374468,40.7251699 L151.746825,31.5205863 Z" id="Shape"></path>
                <path d="M57.1645776,47.0138048 L57.1645776,53.3083071 C57.1645776,53.468475 57.1889106,53.5827884 57.2377318,53.6510858 C57.2863979,53.7195447 57.3820253,53.7733107 57.524614,53.812384 L57.524614,53.9998385 L56,53.9998385 L56,53.812384 C56.1463084,53.7733107 56.2427107,53.7206749 56.289827,53.6541535 C56.3366333,53.5877937 56.3601914,53.4725115 56.3601914,53.3083071 L56.3601914,46.6915314 C56.3601914,46.527327 56.3357034,46.4112376 56.2870372,46.3427787 C56.2383711,46.2744813 56.1425887,46.2226528 56.000155,46.1874546 L56.000155,46 L58.2065599,46 L58.2065599,46.1874546 C58.0301839,46.2501009 57.9419959,46.3380964 57.9419959,46.4512796 C57.9419959,46.529426 58.0301839,46.6760313 58.2065599,46.890934 L62.8355774,52.5289416 L62.8355774,46.6916929 C62.8355774,46.5274885 62.8110894,46.411399 62.7624232,46.3429402 C62.7136021,46.2746428 62.6179747,46.2228142 62.475386,46.187616 L62.475386,46.0001615 L64,46.0001615 L64,46.187616 C63.8574113,46.2228142 63.7617839,46.2746428 63.7131178,46.3429402 C63.6642966,46.411399 63.6399636,46.52765 63.6399636,46.6916929 L63.6399636,53.3084686 C63.6399636,53.472673 63.6642966,53.5877937 63.7131178,53.654315 C63.7617839,53.7208364 63.8574113,53.7734722 64,53.8125454 L64,54 L62.2272507,54 L62.2272507,53.8125454 C62.399752,53.7655607 62.4860802,53.6856382 62.4860802,53.5722935 C62.4860802,53.486397 62.4071914,53.3457657 62.2497239,53.1502382 L57.1645776,47.0138048 Z" id="Shape"></path>
                <path d="M66.274258,49.2440123 L66.274258,51.9606229 L71.3195062,51.9606229 C71.4808932,51.9606229 71.5952619,51.9374469 71.6626123,51.8909473 C71.7298039,51.8445953 71.7807933,51.7533675 71.8154216,51.6175591 L72,51.6175591 L72,53 L71.8154216,53 C71.776981,52.8641916 71.7240855,52.7731114 71.6568939,52.7266118 C71.5897023,52.6802598 71.4753336,52.6569362 71.3141055,52.6569362 L65,52.6569362 L65,52.4855519 C65.1499501,52.4498284 65.2487519,52.401705 65.2970409,52.3408864 C65.3450123,52.2802155 65.3691568,52.1748164 65.3691568,52.0246891 L65.3691568,45.9751633 C65.3691568,45.825036 65.3440592,45.7199321 65.2941817,45.6589659 C65.2443043,45.598295 65.1461378,45.550024 65.0001588,45.5143005 L65.0001588,45.3429162 L71.24469,45.3429162 C71.4062358,45.3429162 71.5194926,45.3200354 71.5849369,45.2742739 C71.6502224,45.2285124 71.7021648,45.137137 71.7406054,45 L71.9251838,45 L71.9251838,46.3824409 L71.7406054,46.3824409 C71.7059771,46.2481086 71.6549877,46.1574713 71.5877961,46.1102336 C71.5206045,46.0629959 71.4062358,46.0395247 71.24469,46.0395247 L66.2744168,46.0395247 L66.2744168,48.5472562 L69.5321775,48.5472562 C69.6937233,48.5472562 69.8079332,48.5240802 69.8752837,48.4774329 C69.9424753,48.4312285 69.9934646,48.3400007 70.0280929,48.2041923 L70.2126713,48.2041923 L70.2126713,49.5866332 L70.0280929,49.5866332 C69.9934646,49.4508248 69.9424753,49.3597446 69.8752837,49.313245 C69.808092,49.2667454 69.6937233,49.2435694 69.5321775,49.2435694 L66.274258,49.2435694 L66.274258,49.2440123 Z" id="Shape"></path>
                <path d="M78.0330747,47.1969 L76.1330558,53.0444821 C76.0596405,53.2752079 76.0228571,53.4352143 76.0228571,53.5251473 C76.0228571,53.6541535 76.1273037,53.7498991 76.3363482,53.812384 L76.3363482,53.9998385 L74.5132261,53.9998385 L74.5132261,53.812384 C74.7221192,53.7692742 74.8267171,53.6736902 74.8267171,53.5251473 C74.8267171,53.4431259 74.7863009,53.2829579 74.7054683,53.0444821 L72.6982781,47.1544361 C72.5590161,46.7522403 72.4516935,46.4990716 72.3766131,46.395576 C72.3013813,46.2920804 72.175894,46.2226528 72,46.1874546 L72,46 L73.7613623,46 L73.7613623,46.1874546 C73.5414191,46.2149027 73.4315232,46.3145233 73.4315232,46.4864778 C73.4315232,46.5491241 73.4810218,46.7307661 73.5800189,47.0315654 L75.4477956,52.6842658 L77.3014948,47.0315654 C77.4080605,46.699443 77.4613434,46.5081133 77.4613434,46.4570921 C77.4613434,46.3164608 77.3567455,46.2265278 77.147701,46.1874546 L77.147701,46 L79.0640681,46 L79.0640681,46.1874546 C78.8550237,46.2423509 78.7504257,46.3419714 78.7504257,46.4864778 C78.7504257,46.5450876 78.7999243,46.7267296 78.8992242,47.0315654 L80.7170482,52.6842658 L82.5157994,47.0315654 C82.6040492,46.7503027 82.6482498,46.5646242 82.6482498,46.4748527 C82.6482498,46.3263098 82.5454683,46.2305643 82.3399054,46.187616 L82.3399054,46.0001615 L84,46.0001615 L84,46.187616 C83.8203217,46.2266893 83.6892337,46.3019294 83.606736,46.4131751 C83.5242384,46.5245822 83.4225166,46.7717769 83.3015705,47.1545976 L81.3823273,53.0446436 C81.3090634,53.2713328 81.27228,53.4218132 81.27228,53.4959231 C81.27228,53.6523775 81.3767266,53.7578106 81.5856197,53.8125454 L81.5856197,54 L79.7930747,54 L79.7930747,53.8125454 C80.0018165,53.7618471 80.1064144,53.654315 80.1064144,53.4901106 C80.1064144,53.4394123 80.0697824,53.306531 79.9963671,53.0916283 L78.0330747,47.1969 Z" id="Shape"></path>
                <path d="M92.8885152,46.6156606 L92.0523793,48.077523 L91.8885354,47.9926689 C91.9547496,47.8228046 91.9879372,47.7170488 91.9879372,47.6755576 C91.9879372,47.5623148 91.843587,47.439713 91.5552087,47.3075963 C90.7715931,46.9528935 89.9410959,46.7753861 89.0640393,46.7753861 C88.3427714,46.7753861 87.7151056,46.905319 87.1810419,47.1653408 C86.923757,47.293402 86.7199589,47.4590547 86.56997,47.6626111 C86.41982,47.8660115 86.3449061,48.0807986 86.3449061,48.3066604 C86.3449061,48.4950866 86.4033872,48.6730619 86.5203496,48.8405865 C86.637312,49.008267 86.7913285,49.1335205 86.9823993,49.2165029 C87.1929637,49.31056 87.441549,49.3756044 87.727994,49.4113243 C88.0146002,49.4470441 88.481483,49.474497 89.1286425,49.4932148 C90.0251928,49.5195757 90.6665526,49.560287 91.0525606,49.6148807 C91.4385686,49.6696303 91.756268,49.7649353 92.0058199,49.9007955 C92.6686066,50.2593979 93,50.8048666 93,51.5370457 C93,52.2355327 92.6996999,52.8073623 92.099422,53.2526907 C91.4327688,53.7508969 90.5146304,54 89.3450067,54 C88.6704594,54 88.0819421,53.9338637 87.5789717,53.801747 C87.0760014,53.6696303 86.4755624,53.4262985 85.7778158,53.0712837 C85.5828785,52.9844018 85.4678494,52.9410388 85.4327285,52.9410388 C85.3742473,52.9410388 85.2825785,53.009047 85.1578831,53.1449072 L85,53.0488223 L85.8772177,51.6276712 L86.0409006,51.7182967 C85.9667922,51.8692872 85.9298991,51.9711433 85.9298991,52.0240212 C85.9298991,52.1447512 86.1792899,52.3317735 86.6783938,52.5846202 C87.1267495,52.8109499 87.5585114,52.974419 87.9738405,53.0744034 C88.3890086,53.1745438 88.8402642,53.224458 89.3276074,53.224458 C90.3138933,53.224458 91.0625491,53.0149743 91.5732525,52.5960069 C91.9123789,52.3166433 92.0820227,51.9845578 92.0820227,51.5994385 C92.0820227,51.0937451 91.79155,50.7445016 91.2106047,50.55202 C91.0234005,50.4877554 90.8294299,50.4472001 90.6286928,50.4301981 C90.4277947,50.4133521 89.8576434,50.387927 88.9182391,50.3539229 C88.2475582,50.327562 87.7223554,50.2784277 87.3421471,50.206676 C86.9621,50.1350803 86.6237791,50.0179379 86.3275067,49.8557167 C86.050728,49.7047263 85.8313027,49.4933708 85.6697142,49.2216503 C85.5079646,48.9497738 85.4270898,48.6534082 85.4270898,48.3327094 C85.4270898,47.7853689 85.6376543,47.3155514 86.0586221,46.9229449 C86.3705218,46.6360942 86.801317,46.4105444 87.3510079,46.2462954 C87.9006988,46.0820465 88.5030711,46 89.1579636,46 C89.6920273,46 90.1880702,46.051318 90.6462533,46.1539541 C91.1042753,46.2565902 91.6219063,46.4334737 92.1988239,46.6842926 C92.327547,46.7374825 92.407294,46.7641554 92.4385484,46.7641554 C92.5087903,46.7641554 92.6041646,46.6881922 92.7251546,46.5359538 L92.8885152,46.6156606 Z" id="Shape"></path>
                <path d="M101.486259,46 C102.812491,46 103.881674,46.3567167 104.69381,47.0699942 C105.149299,47.4663287 105.490916,47.9512576 105.718812,48.5250926 C105.906169,48.9969195 106,49.5044648 106,50.0480406 C106,50.7842464 105.796093,51.4730357 105.388279,52.1145642 C104.939926,52.8244102 104.317121,53.335699 103.519864,53.6490544 C102.924693,53.8830181 102.250418,54 101.497343,54 C100.178248,54 99.1145301,53.6432833 98.3063414,52.9300058 C97.8543449,52.5300838 97.5125765,52.044843 97.2811883,51.4749074 C97.0938307,51.0069799 97,50.5144083 97,49.9971924 C97,49.2310392 97.2020851,48.5250926 97.6062554,47.8796647 C98.0471684,47.1813609 98.6717951,46.6719438 99.4801356,46.3509456 C100.045853,46.1285241 100.714662,46.0113862 101.486259,46 Z M101.486259,46.7756678 C100.358166,46.7756678 99.4652563,47.1004094 98.8076826,47.7494248 C98.2050711,48.3458764 97.9038413,49.0951842 97.9038413,49.9971924 C97.9038413,50.9031 98.2050711,51.6542796 98.8076826,52.2505752 C99.4616124,52.8997465 100.358166,53.2243322 101.497191,53.2243322 C102.639708,53.2243322 103.539906,52.8997465 104.197631,52.2505752 C104.796447,51.6542796 105.096007,50.9180737 105.096007,50.0424254 C105.096007,49.0951842 104.796447,48.3307467 104.197631,47.7494248 C103.837492,47.4022227 103.451693,47.1589004 103.040387,47.0189901 C102.584746,46.8606746 102.066704,46.7794112 101.486259,46.7756678 Z" id="Shape"></path>
                <path d="M109.289986,46.6797437 L109.289986,51.0281045 C109.289986,51.5426724 109.317312,51.9045995 109.371805,52.1138856 C109.426298,52.3231718 109.538981,52.5046907 109.710175,52.6581249 C110.126346,53.0267161 110.902427,53.2110911 112.038258,53.2110911 C113.275197,53.2110911 114.08616,52.9941887 114.471307,52.5602253 C114.599743,52.4142486 114.68526,52.2405046 114.728179,52.0389932 C114.770937,51.8373232 114.792316,51.5003074 114.792316,51.0281045 L114.792316,46.6797437 C114.792316,46.5223428 114.766919,46.4100042 114.716444,46.3428866 C114.665809,46.2756104 114.566468,46.2227732 114.418743,46.1843749 L114.418743,46.0001587 L116,46.0001587 L116,46.1843749 C115.852114,46.2189651 115.752934,46.2698983 115.702299,46.3370158 C115.651824,46.404292 115.626427,46.5185347 115.626427,46.6797437 L115.626427,51.2067673 C115.626427,51.7635415 115.571934,52.187826 115.462948,52.4794621 C115.26073,53.0016462 114.880405,53.3857871 114.322295,53.6314088 C113.763864,53.8771892 112.990837,54 112.002893,54 C110.524674,54 109.513262,53.7178841 108.968655,53.1533351 C108.746986,52.9267538 108.592348,52.6685972 108.504742,52.3787064 C108.417296,52.0888157 108.373573,51.6981693 108.373573,51.2066086 L108.373573,46.6795851 C108.373573,46.5182173 108.348176,46.4041334 108.297701,46.3368571 C108.247066,46.2697396 108.147725,46.2188064 108,46.1842163 L108,46 L109.662916,46 L109.662916,46.1842163 C109.51503,46.2226145 109.41585,46.2754517 109.365375,46.3427279 C109.315223,46.4098455 109.289986,46.5221841 109.289986,46.6797437 Z" id="Shape"></path>
                <path d="M119.917247,46.0860789 L119.917247,52.3394382 C119.917247,52.4924332 119.940236,52.6016271 119.986361,52.6668659 C120.03234,52.7322589 120.122832,52.783617 120.257546,52.8209404 L120.257546,53 L118.7426,53 L118.7426,52.8209404 C118.877314,52.783617 118.967514,52.7333385 119.013785,52.6697962 C119.059764,52.6064082 119.082899,52.4962889 119.082899,52.3394382 L119.082899,46.0860789 L116.627152,46.0860789 C116.478381,46.0860789 116.372953,46.1096759 116.311013,46.1571784 C116.248928,46.2046808 116.202071,46.3003027 116.17015,46.4443523 L116,46.4443523 L116,45 L116.17015,45 C116.202071,45.1434327 116.248928,45.2389003 116.311013,45.286557 C116.372953,45.334368 116.478527,45.3582734 116.627152,45.3582734 L122.372848,45.3582734 C122.521766,45.3582734 122.627047,45.334368 122.689133,45.286557 C122.751072,45.2387461 122.798076,45.1432785 122.829997,45 L123,45 L123,46.4443523 L122.829997,46.4443523 C122.798076,46.3001484 122.751072,46.2045266 122.689133,46.1571784 C122.627047,46.1096759 122.521619,46.0860789 122.372848,46.0860789 L119.917247,46.0860789 Z" id="Shape"></path>
                <path d="M126.277736,52.9140753 L131.317978,52.9140753 C131.479924,52.9140753 131.594418,52.8898614 131.661935,52.8412793 C131.729293,52.7928515 131.780409,52.6975381 131.815123,52.5556477 L132,52.5556477 L132,54 L131.815123,54 C131.780409,53.8581095 131.729293,53.7629504 131.661935,53.7143683 C131.594418,53.6659405 131.479765,53.6415724 131.317978,53.6415724 L125.000159,53.6415724 L125.000159,53.4625128 C125.150481,53.4251894 125.249687,53.3749108 125.297937,53.3113686 C125.346027,53.2479806 125.370072,53.1378612 125.370072,52.9810106 L125.370072,46.6605618 C125.370072,46.5037111 125.345072,46.3939003 125.294911,46.3302038 C125.24491,46.2668158 125.1465,46.216383 125,46.1790596 L125,46 L126.64749,46 L126.64749,46.1790596 C126.50099,46.216383 126.402739,46.2668158 126.352579,46.3302038 C126.302577,46.393746 126.277418,46.5037111 126.277418,46.6605618 L126.277418,52.9140753 L126.277736,52.9140753 Z" id="Shape"></path>
                <path d="M133.274417,49.2440123 L133.274417,51.9606229 L138.319665,51.9606229 C138.481211,51.9606229 138.595421,51.9374469 138.662612,51.8909473 C138.729963,51.8445953 138.780793,51.7533675 138.815422,51.6175591 L139,51.6175591 L139,53 L138.815422,53 C138.77714,52.8641916 138.724244,52.7731114 138.657053,52.7266118 C138.589861,52.6801122 138.475492,52.6569362 138.314423,52.6569362 L132.000159,52.6569362 L132.000159,52.4855519 C132.150109,52.4498284 132.24907,52.401705 132.2972,52.3408864 C132.345171,52.2802155 132.369157,52.1748164 132.369157,52.0246891 L132.369157,45.9751633 C132.369157,45.825036 132.344218,45.7199321 132.294182,45.6589659 C132.244304,45.598295 132.146138,45.550024 132,45.5143005 L132,45.3429162 L138.24469,45.3429162 C138.406077,45.3429162 138.519334,45.3200354 138.584937,45.2742739 C138.650222,45.2285124 138.702006,45.137137 138.740447,45 L138.925025,45 L138.925025,46.3824409 L138.740447,46.3824409 C138.705818,46.2481086 138.654829,46.1574713 138.587637,46.1102336 C138.520287,46.0631435 138.405918,46.0395247 138.24469,46.0395247 L133.274417,46.0395247 L133.274417,48.5472562 L136.532178,48.5472562 C136.693723,48.5472562 136.807933,48.5240802 136.875284,48.4774329 C136.942475,48.4312285 136.993465,48.3400007 137.028093,48.2041923 L137.212512,48.2041923 L137.212512,49.5866332 L137.027934,49.5866332 C136.993306,49.4508248 136.942316,49.3597446 136.875125,49.313245 C136.807774,49.266893 136.693406,49.2435694 136.532019,49.2435694 L133.274417,49.2435694 L133.274417,49.2440123 Z" id="Shape"></path>
                <path d="M143.917247,46.0860789 L143.917247,52.3394382 C143.917247,52.4924332 143.940236,52.6016271 143.986361,52.6668659 C144.03234,52.7322589 144.122832,52.783617 144.257546,52.8209404 L144.257546,53 L142.7426,53 L142.7426,52.8209404 C142.877314,52.783617 142.967514,52.7333385 143.013785,52.6697962 C143.059764,52.6064082 143.082899,52.4962889 143.082899,52.3394382 L143.082899,46.0860789 L140.627152,46.0860789 C140.478381,46.0860789 140.372953,46.1096759 140.311013,46.1571784 C140.248928,46.2046808 140.202071,46.3003027 140.17015,46.4443523 L140,46.4443523 L140,45 L140.17015,45 C140.202071,45.1434327 140.248928,45.2389003 140.311013,45.286557 C140.372953,45.334368 140.478527,45.3582734 140.627152,45.3582734 L146.372848,45.3582734 C146.521766,45.3582734 146.627047,45.334368 146.689133,45.286557 C146.751072,45.2387461 146.798076,45.1432785 146.829997,45 L147,45 L147,46.4443523 L146.829997,46.4443523 C146.798076,46.3001484 146.751072,46.2045266 146.689133,46.1571784 C146.627047,46.1096759 146.521619,46.0860789 146.372848,46.0860789 L143.917247,46.0860789 Z" id="Shape"></path>
                <rect id="Rectangle-path" x="13" y="36" width="19" height="1"></rect>
                <rect id="Rectangle-path" x="165" y="36" width="19" height="1"></rect>
            </g>
        </g>
    </g>
</svg>