<?xml version="1.0" encoding="UTF-8" standalone="no"?>
<svg width="86px" height="59px" viewBox="0 0 86 59" version="1.1" xmlns="http://www.w3.org/2000/svg" xmlns:xlink="http://www.w3.org/1999/xlink">
    <!-- Generator: Sketch 46.2 (44496) - http://www.bohemiancoding.com/sketch -->
    <title>Page 1</title>
    <desc>Created with Sketch.</desc>
    <defs>
        <filter x="-26.2%" y="-42.1%" width="152.3%" height="192.1%" filterUnits="objectBoundingBox" id="filter-1">
            <feOffset dx="0" dy="1" in="SourceAlpha" result="shadowOffsetOuter1"></feOffset>
            <feGaussianBlur stdDeviation="5.5" in="shadowOffsetOuter1" result="shadowBlurOuter1"></feGaussianBlur>
            <feColorMatrix values="0 0 0 0 0   0 0 0 0 0.235294118   0 0 0 0 0.533333333  0 0 0 0.276041667 0" type="matrix" in="shadowBlurOuter1" result="shadowMatrixOuter1"></feColorMatrix>
            <feMerge>
                <feMergeNode in="shadowMatrixOuter1"></feMergeNode>
                <feMergeNode in="SourceGraphic"></feMergeNode>
            </feMerge>
        </filter>
        <polygon id="path-2" points="0 37.9480164 64.1645588 37.9480164 64.1645588 0.80829275 0 0.80829275"></polygon>
    </defs>
    <g id="design-1440" stroke="none" stroke-width="1" fill="none" fill-rule="evenodd">
        <g id="mm-landing-1440-copy" transform="translate(-248.000000, -3228.000000)">
            <g id="Page-1" filter="url(#filter-1)" transform="translate(259.000000, 3237.000000)">
                <polygon id="Fill-1" fill="#1A0095" points="0 38 64 38 64 1 0 1"></polygon>
                <polygon id="Fill-2" fill="#BA0019" points="0 29 64 29 64 10 0 10"></polygon>
                <polygon id="Fill-3" fill="#FFFFFF" points="20 24 44 24 44 20 20 20"></polygon>
                <path d="M43.9058899,20.0523763 L20.0460948,20.0911736 L20.0960307,23.9553831 L43.9058899,23.9010669 L43.9058899,20.0523763 Z M44,24 L20.0460948,24 L20,20.0523763 L43.950064,20 L44,24 Z" id="Fill-4" fill="#BA0019"></path>
                <polygon id="Fill-5" fill="#FFFFFF" points="20.3925379 23 20 24 45 24 44.6094054 23"></polygon>
                <path d="M20.4172139,23.028463 L20,24 L45,24 L44.5344974,23 L20.4172139,23.028463 Z M20.4616395,23.0948767 L44.4939349,23.0664137 L44.851271,23.8956357 L20.1429344,23.8956357 L20.4616395,23.0948767 Z" id="Fill-6" fill="#BA0019"></path>
                <polygon id="Fill-7" fill="#FFFFFF" points="38.5022207 23 38 24 44 24 43.4977793 23"></polygon>
                <path d="M38.5284148,23.0227273 L38,24 L44,24 L43.4317049,23 L38.5284148,23.0227273 Z M38.5722832,23.0965909 L43.3878365,23.0738636 L43.8364905,23.8958333 L38.1615155,23.8958333 L38.5722832,23.0965909 Z" id="Fill-8" fill="#BA0019"></path>
                <polygon id="Fill-9" fill="#FFFFFF" points="40.2501695 23 40 24 43 24 42.7498305 23"></polygon>
                <path d="M40.1970803,23.0378788 L40,24 L43,24 L42.6914399,23 L40.1970803,23.0378788 Z M40.2448573,23.0965909 L42.6436629,23.0606061 L42.876576,23.9015152 L40.047777,23.9545455 L40.2448573,23.0965909 Z" id="Fill-10" fill="#BA0019"></path>
                <polygon id="Fill-11" fill="#FFFFFF" points="41.1661409 23 41 24 43 24 42.8359621 23"></polygon>
                <path d="M41.1119023,23.0436433 L41,24 L43,24 L42.7761953,23 L41.1119023,23.0436433 Z M41.1607325,23.0948767 L42.7253306,23.0588235 L42.8779247,23.9032258 L41.0508647,23.9468691 L41.1607325,23.0948767 Z" id="Fill-12" fill="#BA0019"></path>
                <polygon id="Fill-13" fill="#FFFFFF" points="29.4993498 23 29 24 35 24 34.5026008 23"></polygon>
                <path d="M29.5204179,23.0227273 L29,24 L35,24 L34.4358974,23 L29.5204179,23.0227273 Z M29.5641026,23.0965909 L34.3903134,23.0738636 L34.8423552,23.8958333 L29.1538462,23.8958333 L29.5641026,23.0965909 Z" id="Fill-14" fill="#BA0019"></path>
                <polygon id="Fill-15" fill="#FFFFFF" points="20 21 44 21 44 20 20 20"></polygon>
                <path d="M20,20.0439771 L20.0474834,21 L44,21 L43.9525166,20 L20,20.0439771 Z M20.0474834,20.0975143 L43.9050332,20.0439771 L43.9050332,20.9024857 L20.0930674,20.9483748 L20.0474834,20.0975143 Z" id="Fill-16" fill="#BA0019"></path>
                <polygon id="Fill-17" fill="#FFFFFF" points="39 24 44 24 44 20 39 20"></polygon>
                <path d="M43.9026619,20.044878 L39.0516488,20.0897561 L39.0993246,23.955122 L43.9026619,23.902439 L43.9026619,20.044878 Z M44,24 L39.0516488,24 L39,20.044878 L43.9483512,20 L44,24 Z" id="Fill-18" fill="#BA0019"></path>
                <polygon id="Fill-19" fill="#FFFFFF" points="42 23 42.5303235 23 42.5303235 21 42 21"></polygon>
                <path d="M42,21.0413297 L42.0536765,23 L42.6333824,23 L42.5861471,21 L42,21.0413297 Z M42.0536765,21.0898473 L42.5303235,21.0413297 L42.5303235,22.9155436 L42.1073529,22.9568733 L42.0536765,21.0898473 Z" id="Fill-20" fill="#BA0019"></path>
                <polygon id="Fill-21" fill="#FFFFFF" points="40 23 40.5303235 23 40.5303235 21 40 21"></polygon>
                <path d="M40,21.0413297 L40.0515294,23 L40.6376765,23 L40.5818529,21 L40,21.0413297 Z M40.0515294,21.0898473 L40.5281765,21.0413297 L40.5281765,22.9155436 L40.1052059,22.9568733 L40.0515294,21.0898473 Z" id="Fill-22" fill="#BA0019"></path>
                <polygon id="Fill-23" fill="#FFFFFF" points="31.2504854 23 31 24 34 24 33.7495146 23"></polygon>
                <path d="M31.1997464,23.0378788 L31,24 L34,24 L33.6918199,23 L31.1997464,23.0378788 Z M31.2435003,23.0965909 L33.6499683,23.0606061 L33.8801522,23.9015152 L31.043754,23.9545455 L31.2435003,23.0965909 Z" id="Fill-24" fill="#BA0019"></path>
                <polygon id="Fill-25" fill="#FFFFFF" points="31.1630547 23 31 24 33 24 32.8307534 23"></polygon>
                <path d="M31.1141141,23.0378788 L31,24 L33,24 L32.7777778,23 L31.1141141,23.0378788 Z M31.1601602,23.0965909 L32.7297297,23.0606061 L32.8798799,23.9015152 L31.0500501,23.9545455 L31.1601602,23.0965909 Z" id="Fill-26" fill="#BA0019"></path>
                <polygon id="Fill-27" fill="#FFFFFF" points="30 24 35 24 35 20 30 20"></polygon>
                <path d="M34.9093656,20.0523763 L30.0490937,20.0911736 L30.0925227,23.9553831 L34.9093656,23.9010669 L34.9093656,20.0523763 Z M35,24 L30.0490937,24 L30,20.0523763 L34.9527946,20 L35,24 Z" id="Fill-28" fill="#BA0019"></path>
                <polygon id="Fill-29" fill="#FFFFFF" points="34 23 34.5303235 23 34.5303235 21 34 21"></polygon>
                <path d="M33,21.0413297 L33.0515294,23 L33.6376765,23 L33.5818529,21 L33,21.0413297 Z M33.0515294,21.0898473 L33.5303235,21.0413297 L33.5303235,22.9083558 L33.1052059,22.9568733 L33.0515294,21.0898473 Z" id="Fill-30" fill="#BA0019"></path>
                <polygon id="Fill-31" fill="#FFFFFF" points="30 23 30.5303235 23 30.5303235 21 30 21"></polygon>
                <path d="M30,21.0413297 L30.0515294,23 L30.6376765,23 L30.584,21 L30,21.0413297 Z M30.0515294,21.0898473 L30.5303235,21.0413297 L30.5303235,22.9083558 L30.1030588,22.9568733 L30.0515294,21.0898473 Z" id="Fill-32" fill="#BA0019"></path>
                <polygon id="Fill-33" fill="#FFFFFF" points="31 24 33 24 33 19 31 19"></polygon>
                <path d="M33.8854087,19.0451689 L31.0572956,19.0981932 L31.1145913,23.9548311 L33.8854087,23.9018068 L33.8854087,19.0451689 Z M34,24 L31.0572956,24 L31,19.0451689 L33.9427044,19 L34,24 Z" id="Fill-34" fill="#BA0019"></path>
                <polygon id="Fill-35" fill="#FFFFFF" points="33 23 33.5346176 23 33.5346176 21 33 21"></polygon>
                <path d="M33,21.0413297 L33.0515294,23 L33.6355294,23 L33.5882941,21 L33,21.0413297 Z M33.0515294,21.0898473 L33.5324706,21.0413297 L33.5324706,22.9083558 L33.1052059,22.9568733 L33.0515294,21.0898473 Z" id="Fill-36" fill="#BA0019"></path>
                <polygon id="Fill-37" fill="#FFFFFF" points="31 23 31.5303235 23 31.5303235 21 31 21"></polygon>
                <path d="M31,21.0413297 L31.0515294,23 L31.6355294,23 L31.584,21 L31,21.0413297 Z M31.0515294,21.0898473 L31.5281765,21.0413297 L31.5281765,22.9083558 L31.1052059,22.9568733 L31.0515294,21.0898473 Z" id="Fill-38" fill="#BA0019"></path>
                <polygon id="Fill-39" fill="#FFFFFF" points="31 19 31.969863 20 33 19"></polygon>
                <path d="M31,19 L31.9714286,21 L33,19 L31,19 Z M31.1563025,19.1128451 L32.8352941,19.1128451 L31.9714286,20.8031212 L31.1563025,19.1128451 Z" id="Fill-40" fill="#BA0019"></path>
                <polygon id="Fill-41" fill="#FFFFFF" points="41 25 42 25 42 20 41 20"></polygon>
                <path d="M41,20.0531705 L41.0307487,25 L42,25 L41.9665775,20 L41,20.0531705 Z M41.0307487,20.0925561 L41.9358289,20.0531705 L41.9358289,24.8995668 L41.0641711,24.9448602 L41.0307487,20.0925561 Z" id="Fill-42" fill="#BA0019"></path>
                <polygon id="Fill-43" fill="#FFFFFF" points="41 25 41.9983824 25 41.9983824 20 41 20"></polygon>
                <path d="M41,20.0531705 L41.0447471,25 L42,25 L41.9513619,20 L41,20.0531705 Z M41.0447471,20.0925561 L41.9066148,20.0531705 L41.9066148,24.8995668 L41.0933852,24.9448602 L41.0447471,20.0925561 Z" id="Fill-44" fill="#BA0019"></path>
                <polygon id="Fill-45" fill="#FFFFFF" points="20.5042706 23 20 24 26 24 25.4977793 23"></polygon>
                <path d="M20.5244267,23.0227273 L20,24 L26,24 L25.4297109,23 L20.5244267,23.0227273 Z M20.5702891,23.0965909 L25.3878365,23.0738636 L25.8364905,23.8958333 L20.1595214,23.8958333 L20.5702891,23.0965909 Z" id="Fill-46" fill="#BA0019"></path>
                <polygon id="Fill-47" fill="#FFFFFF" points="21.2489083 23 21 24 24 24 23.7510917 23"></polygon>
                <path d="M21.1918977,23.0378788 L21,24 L24,24 L23.6865672,23 L21.1918977,23.0378788 Z M21.2430704,23.0965909 L23.6375267,23.0606061 L23.8678038,23.9015152 L21.0490405,23.9545455 L21.2430704,23.0965909 Z" id="Fill-48" fill="#BA0019"></path>
                <polygon id="Fill-49" fill="#FFFFFF" points="22.1664766 23 22 24 24 24 23.8358039 23"></polygon>
                <path d="M22.1080485,23.0436433 L22,24 L24,24 L23.7750827,23 L22.1080485,23.0436433 Z M22.1609702,23.0948767 L23.7199559,23.0588235 L23.8721058,23.9032258 L22.0529217,23.9468691 L22.1609702,23.0948767 Z" id="Fill-50" fill="#BA0019"></path>
                <polygon id="Fill-51" fill="#FFFFFF" points="20 24 25 24 25 20 20 20"></polygon>
                <path d="M24.89996,20.0523763 L20.05002,20.0911736 L20.1020408,23.9553831 L24.89996,23.9010669 L24.89996,20.0523763 Z M25,24 L20.05002,24 L20,20.0523763 L24.9479792,20 L25,24 Z" id="Fill-52" fill="#BA0019"></path>
                <polygon id="Fill-53" fill="#FFFFFF" points="21 23 21.5303235 23 21.5303235 21 21 21"></polygon>
                <path d="M21,21.0413297 L21.0515294,23 L21.6355294,23 L21.584,21 L21,21.0413297 Z M21.0515294,21.0898473 L21.5303235,21.0413297 L21.5303235,22.9155436 L21.1073529,22.9568733 L21.0515294,21.0898473 Z" id="Fill-54" fill="#BA0019"></path>
                <polygon id="Fill-55" fill="#FFFFFF" points="24 23 24.5324706 23 24.5324706 21 24 21"></polygon>
                <path d="M23,21.0413297 L23.0536765,23 L23.6376765,23 L23.5882941,21 L23,21.0413297 Z M23.0536765,21.0898473 L23.5324706,21.0413297 L23.5324706,22.9155436 L23.1052059,22.9568733 L23.0536765,21.0898473 Z" id="Fill-56" fill="#BA0019"></path>
                <polygon id="Fill-57" fill="#FFFFFF" points="22 25 23 25 23 20 22 20"></polygon>
                <path d="M22,20.0531705 L22.0333778,25 L23,25 L22.9666222,20 L22,20.0531705 Z M22.0333778,20.0925561 L22.9319092,20.0531705 L22.9319092,24.8995668 L22.0654206,24.9448602 L22.0333778,20.0925561 Z" id="Fill-58" fill="#BA0019"></path>
                <polygon id="Fill-59" fill="#FFFFFF" points="22 25 23 25 23 20 22 20"></polygon>
                <path d="M22,20.0531705 L22.0465116,25 L23,25 L22.9496124,20 L22,20.0531705 Z M22.0465116,20.0925561 L22.8992248,20.0531705 L22.8992248,24.8995668 L22.0949612,24.9448602 L22.0465116,20.0925561 Z" id="Fill-60" fill="#BA0019"></path>
                <polygon id="Fill-61" fill="#FFFFFF" points="20 20 45 20 45 19 20 19"></polygon>
                <path d="M20,19.0446602 L20.0464576,20 L45,20 L44.9516067,19 L20,19.0446602 Z M20.0464576,19.0893204 L44.9032133,19.0446602 L44.9032133,19.9087379 L20.0967867,19.9631068 L20.0464576,19.0893204 Z" id="Fill-62" fill="#BA0019"></path>
                <polygon id="Fill-63" fill="#FFFFFF" points="19 25 45 25 45 24 19 24"></polygon>
                <path d="M19,24.0409091 L19.0478645,25 L45,25 L44.9521355,24 L19,24.0409091 Z M19.0478645,24.0757576 L44.904271,24.0409091 L44.904271,24.9227273 L19.0938144,24.9636364 L19.0478645,24.0757576 Z" id="Fill-64" fill="#BA0019"></path>
                <polygon id="Fill-65" fill="#FFFFFF" points="19 25 46 25 46 24 19 24"></polygon>
                <path d="M19,24.0348485 L19.0482384,25 L46,25 L45.9517616,24 L19,24.0348485 Z M19.0482384,24.0772727 L45.8996641,24.0348485 L45.8996641,24.9227273 L19.0964768,24.9575758 L19.0482384,24.0772727 Z" id="Fill-66" fill="#BA0019"></path>
                <polygon id="Fill-67" fill="#FFFFFF" points="18 26 46 26 46 25 18 25"></polygon>
                <path d="M18,25.0349014 L18.0455192,26 L46,26 L45.9544808,25 L18,25.0349014 Z M18.0455192,25.0698027 L45.907065,25.0349014 L45.907065,25.9241275 L18.0910384,25.9590288 L18.0455192,25.0698027 Z" id="Fill-68" fill="#BA0019"></path>
                <polygon id="Fill-69" fill="#FFFFFF" points="17 27 47 27 47 26 17 26"></polygon>
                <path d="M17,26.0469697 L17.0474774,27 L47,27 L46.9525226,26 L17,26.0469697 Z M17.0474774,26.069697 L46.9069444,26.0469697 L46.9069444,26.9227273 L17.0930556,26.9651515 L17.0474774,26.069697 Z" id="Fill-70" fill="#BA0019"></path>
                <polygon id="Fill-71" fill="#FFFFFF" points="16 28 48 28 48 27 16 27"></polygon>
                <path d="M16,27.041411 L16.0475483,28 L48,28 L47.9505498,27 L16,27.041411 Z M16.0475483,27.0766871 L47.9087073,27.041411 L47.9087073,27.9217791 L16.0950966,27.9647239 L16.0475483,27.0766871 Z" id="Fill-72" fill="#BA0019"></path>
                <polygon id="Fill-73" fill="#FFFFFF" points="22 28 23 28 23 24 22 24"></polygon>
                <path d="M22,24.0494732 L22.0333778,28 L23,28 L22.9666222,24 L22,24.0494732 Z M22.0333778,24.091617 L22.9319092,24.0494732 L22.9319092,27.908383 L22.0654206,27.9578562 L22.0333778,24.091617 Z" id="Fill-74" fill="#BA0019"></path>
                <polygon id="Fill-75" fill="#FFFFFF" points="22 28 23 28 23 24 22 24"></polygon>
                <path d="M22,24.0494732 L22.046332,28 L23,28 L22.9498069,24 L22,24.0494732 Z M22.046332,24.091617 L22.9015444,24.0494732 L22.9015444,27.908383 L22.0945946,27.9578562 L22.046332,24.091617 Z" id="Fill-76" fill="#BA0019"></path>
                <polygon id="Fill-77" fill="#FFFFFF" points="41 28 42 28 42 24 41 24"></polygon>
                <path d="M41,24.0494732 L41.0346667,28 L42,28 L41.968,24 L41,24.0494732 Z M41.0346667,24.091617 L41.936,24.0494732 L41.936,27.908383 L41.0706667,27.9578562 L41.0346667,24.091617 Z" id="Fill-78" fill="#BA0019"></path>
                <polygon id="Fill-79" fill="#FFFFFF" points="41 28 41.9983824 28 41.9983824 24 41 24"></polygon>
                <path d="M41,24.0494732 L41.0484496,28 L42,28 L41.9515504,24 L41,24.0494732 Z M41.0484496,24.091617 L41.9011628,24.0494732 L41.9011628,27.908383 L41.0968992,27.9578562 L41.0484496,24.091617 Z" id="Fill-80" fill="#BA0019"></path>
                <polygon id="Fill-81" fill="#FFFFFF" points="32 29 33 29 33 20 32 20"></polygon>
                <path d="M32,20.0534066 L32.0409165,29 L33,29 L32.9607201,20 L32,20.0534066 Z M32.0409165,20.092967 L32.9198036,20.0534066 L32.9198036,28.9010989 L32.0818331,28.9545055 L32.0409165,20.092967 Z" id="Fill-82" fill="#BA0019"></path>
                <g id="Group-284">
                    <path d="M39.2341912,19.3743598 L39.2456618,17.0405568 C39.2456618,17.0405568 39.4865441,17.4997278 41.3466912,17.6021874 C43.1093382,17.543368 43.40375,17.2625527 43.4821324,17.0101984 L43.4113971,19.3819494 L39.2341912,19.3743598 Z" id="Fill-83" fill="#FFFFFF"></path>
                    <path d="M39.2919265,17.1655955 L39.2804559,19.37417 L43.3620735,19.3438116 L43.4308971,17.2035435 C43.2358971,17.4179498 42.7426618,17.6019977 41.3470735,17.6475353 C39.9763382,17.5735367 39.4697206,17.2984135 39.2919265,17.1655955 L39.2919265,17.1655955 Z M43.4538382,19.4329895 L39.2345735,19.4253999 L39.1963382,17.040367 L39.2001618,16.8620114 L39.2842794,17.0175982 C39.2881029,17.0251878 39.5595735,17.46159 41.3508971,17.5507679 C43.0600147,17.4919484 43.3620735,17.2320045 43.4385441,16.9948294 L43.5303088,17.0100086 L43.4538382,19.4329895 Z" id="Fill-85" fill="#BA0019"></path>
                    <path d="M40.4365,16.6394462 L39.8572353,16.1802752 C40.0522353,16.060739 40.4097353,16.2694531 40.4097353,16.2694531 C40.4097353,16.2694531 40.6028235,15.734386 41.4267941,15.5199798 C42.2469412,15.734386 42.4419412,16.2694531 42.4419412,16.2694531 C42.4419412,16.2694531 42.7956176,16.060739 42.9867941,16.1802752 L42.4132647,16.6394462 L40.4365,16.6394462 Z" id="Fill-87" fill="#FFFFFF"></path>
                    <path d="M40.0071176,16.1946955 C39.9612353,16.1946955 39.9191765,16.2022851 39.8847647,16.2174643 L40.4640294,16.6026367 L42.3968235,16.5950471 L42.9034412,16.1946955 L42.8403529,16.1946955 C42.6721176,16.1946955 42.4656471,16.3123343 42.4656471,16.3123343 C42.393,16.2838733 42.198,15.7715751 41.4122647,15.5647584 C40.6494706,15.7715751 40.4544706,16.2838733 40.4544706,16.2838733 C40.3760882,16.3123343 40.183,16.1946955 40.0071176,16.1946955 L40.0071176,16.1946955 Z M42.4293235,16.6918145 L40.4372647,16.6918145 L39.8312353,16.2174643 C39.8809412,16.1131073 39.9440294,16.097928 40.0071176,16.097928 C40.1906471,16.097928 40.3875588,16.2022851 40.4238824,16.2174643 C40.3971176,16.1719267 40.6188824,15.6823973 41.4122647,15.4755806 C42.1922647,15.6767051 42.4331471,16.1206969 42.4771176,16.2326435 C42.5057941,16.1643371 42.8499118,16.031519 43.0143235,16.1434657 L42.4293235,16.6918145 Z" id="Fill-89" fill="#BA0019"></path>
                    <path d="M40.1415147,17.8327216 L39.3901912,17.1876053 C39.6406324,17.0168393 40.1013676,17.3071416 40.1013676,17.3071416 C40.1013676,17.3071416 40.3556324,16.5728475 41.4262206,16.2616737 C42.4968088,16.5728475 42.7453382,17.3071416 42.7453382,17.3071416 C42.7453382,17.3071416 43.2079853,17.0168393 43.4565147,17.1876053 L42.7090147,17.8327216 L40.1415147,17.8327216 Z" id="Fill-91" fill="#FFFFFF"></path>
                    <path d="M39.5851912,17.1803952 C39.5221029,17.1803952 39.4628382,17.203164 39.4188676,17.231625 L40.1682794,17.7951531 L42.6918088,17.7799739 L43.4106324,17.1728056 C43.3685735,17.1955744 43.3226912,17.1803952 43.2634265,17.1803952 C43.0378382,17.1803952 42.7759265,17.3435717 42.7701912,17.3511613 C42.6994559,17.3132133 42.4413676,16.601688 41.4128382,16.3056934 C40.4091618,16.601688 40.1510735,17.3132133 40.14725,17.3208029 C40.0765147,17.3511613 39.8069559,17.1803952 39.5851912,17.1803952 L39.5851912,17.1803952 Z M42.7281324,17.8767413 L40.1415147,17.8767413 L39.3615147,17.2240354 C39.4246029,17.1063966 39.4991618,17.0836278 39.5851912,17.0836278 C39.8241618,17.0836278 40.0841618,17.2468042 40.1223971,17.2619834 C40.0879853,17.2183432 40.3651912,16.5125101 41.4128382,16.2165156 C42.4375441,16.5068179 42.7338676,17.1576264 42.7835735,17.2695731 C42.8084265,17.203164 43.2710735,17.0020395 43.4851912,17.1500368 L42.7281324,17.8767413 Z" id="Fill-93" fill="#BA0019"></path>
                    <path d="M41.4371176,13.0594304 C41.4619706,13.0594304 42.3299118,14.6001198 41.4371176,14.6228886 C40.5347647,14.6532471 41.4371176,13.1030706 41.4371176,13.0594304" id="Fill-95" fill="#FFFFFF"></path>
                    <path d="M41.4445735,13.1558183 C41.44075,13.1558183 41.4369265,13.1558183 41.4331029,13.1634079 C41.3145735,13.4233518 40.9475147,14.1633382 41.1367794,14.4593327 C41.1864853,14.5409209 41.2801618,14.5864585 41.4158971,14.5864585 L41.4158971,14.6225092 L41.4369265,14.5864585 C41.5956029,14.5788689 41.7026618,14.5124599 41.7542794,14.4005133 C41.9033971,14.0741603 41.5669265,13.3702246 41.4445735,13.1558183 L41.4445735,13.1558183 Z M41.4158971,14.6756364 C41.24575,14.6756364 41.1272206,14.616817 41.0545735,14.5048703 C40.8442794,14.1709278 41.2113382,13.4157622 41.3470735,13.1254599 C41.3681029,13.0894093 41.3853088,13.0590509 41.3891324,13.0438717 C41.4025147,13.0438717 41.4197206,13.0514613 41.4369265,13.0590509 L41.4847206,13.0590509 C41.4847206,13.0590509 41.4808971,13.0666405 41.47325,13.0894093 C41.63575,13.2525858 41.8823676,13.8445748 41.8842794,14.186107 C41.8881029,14.4972807 41.7351618,14.6680468 41.4369265,14.6756364 L41.4158971,14.6756364 Z" id="Fill-97" fill="#BA0019"></path>
                    <path d="M40.6791029,15.0162198 L40.2374853,14.7790447 C40.3846912,14.7126357 40.6580735,14.8169927 40.6580735,14.8169927 C40.6580735,14.8169927 40.8014559,14.5418696 41.4361618,14.4242308 C42.0727794,14.5418696 42.2199853,14.8169927 42.2199853,14.8169927 C42.2199853,14.8169927 42.4933676,14.7126357 42.6424853,14.7790447 L42.1951324,15.0162198 L40.6791029,15.0162198 Z" id="Fill-99" fill="#FFFFFF"></path>
                    <path d="M40.3879412,14.8012443 L40.7033824,14.9720104 L42.185,14.9720104 L42.4947059,14.8012443 C42.3666176,14.8088339 42.2385294,14.8676534 42.2385294,14.8676534 C42.1773529,14.8391923 42.0263235,14.586838 41.4298529,14.4748914 C40.8448529,14.586838 40.7014706,14.8391923 40.7014706,14.8448845 C40.6422059,14.8676534 40.5064706,14.8088339 40.3879412,14.8012443 L40.3879412,14.8012443 Z M42.2098529,15.0687778 L40.6785294,15.0687778 L40.1260294,14.7708859 L40.2158824,14.7348353 C40.3477941,14.6836055 40.6154412,14.7632963 40.6670588,14.7784755 C40.6498529,14.7424249 40.8333824,14.4976602 41.4298529,14.3781239 C42.0205882,14.4900706 42.2098529,14.7272457 42.2519118,14.7784755 C42.2672059,14.7500145 42.5329412,14.6836055 42.6591176,14.7348353 L42.7470588,14.7708859 L42.2098529,15.0687778 Z" id="Fill-101" fill="#BA0019"></path>
                    <path d="M41.0469265,15.2089958 L41.0373676,15.0154609 C41.0373676,15.0154609 41.11575,14.7422352 41.4369265,14.6226989 C41.7638382,14.7422352 41.8383971,15.0154609 41.8383971,15.0154609 L41.8288382,15.2089958 L41.0469265,15.2089958 Z" id="Fill-103" fill="#FFFFFF"></path>
                    <path d="M41.4222059,14.6752569 C41.1583824,14.7720244 41.0857353,15.0243787 41.0819118,15.0300709 L41.0991176,15.2084265 L41.7835294,15.1723759 L41.7892647,15.0167891 C41.7892647,15.0167891 41.7147059,14.7720244 41.4222059,14.6752569 L41.4222059,14.6752569 Z M41.8772059,15.2615538 L41.0475,15.2615538 L40.9920588,15.0243787 C40.9958824,14.9940202 41.0742647,14.7056153 41.4222059,14.5860791 C41.8007353,14.7056153 41.8810294,14.9940202 41.8829412,15.0091995 L41.8772059,15.2615538 Z" id="Fill-105" fill="#BA0019"></path>
                    <path d="M40.6586471,15.8019335 L40.6337941,15.5495792 C40.6337941,15.5495792 40.7886471,15.179586 41.4367353,15.0164096 C42.0924706,15.179586 42.2396765,15.5495792 42.2396765,15.5495792 L42.2186471,15.8019335 L40.6586471,15.8019335 Z" id="Fill-107" fill="#FFFFFF"></path>
                    <path d="M41.4260294,15.0680189 C40.8352941,15.2084265 40.6785294,15.5575483 40.6785294,15.5651379 L40.7033824,15.802313 L42.1773529,15.7567754 L42.1945588,15.5423691 L42.1907353,15.5423691 C42.185,15.5423691 42.0263235,15.2008369 41.4260294,15.0680189 L41.4260294,15.0680189 Z M42.2614706,15.8459532 L40.6594118,15.8459532 L40.5905882,15.5499587 C40.5982353,15.5120107 40.7607353,15.1344279 41.4260294,14.9712514 C42.1142647,15.1344279 42.2748529,15.5120107 42.2863235,15.5271899 L42.2614706,15.8459532 Z" id="Fill-109" fill="#BA0019"></path>
                    <path d="M40.6586471,16.2020953 L40.6337941,15.9345618 C40.6337941,15.9345618 40.7886471,15.5645687 41.4367353,15.4089818 C42.0924706,15.5645687 42.2396765,15.9345618 42.2396765,15.9345618 L42.2186471,16.2020953 L40.6586471,16.2020953 Z" id="Fill-111" fill="#FFFFFF"></path>
                    <path d="M41.4260294,15.4535707 C40.8352941,15.601568 40.6785294,15.9506897 40.6785294,15.9506897 L40.7033824,16.1954544 L42.1773529,16.1499168 L42.1945588,15.9355105 L42.1907353,15.9355105 C42.185,15.9355105 42.0263235,15.5939784 41.4260294,15.4535707 L41.4260294,15.4535707 Z M42.2614706,16.2466843 L40.6594118,16.2466843 L40.5905882,15.9431001 C40.5982353,15.9051521 40.7607353,15.5275694 41.4260294,15.3643929 C42.1142647,15.5275694 42.2748529,15.9051521 42.2863235,15.9203313 L42.2614706,16.2466843 Z" id="Fill-113" fill="#BA0019"></path>
                    <path d="M40.6791029,17.3731711 L40.2374853,16.7356445 C40.3846912,16.5648784 40.6580735,16.8475911 40.6580735,16.8475911 C40.6580735,16.8475911 40.8014559,16.113297 41.4361618,15.8021233 C42.0727794,16.113297 42.2199853,16.8475911 42.2199853,16.8475911 C42.2199853,16.8475911 42.4933676,16.5648784 42.6424853,16.7356445 L42.1951324,17.3731711 L40.6791029,17.3731711 Z" id="Fill-115" fill="#FFFFFF"></path>
                    <path d="M40.34875,16.7282446 C40.31625,16.7282446 40.2913971,16.7434238 40.2703676,16.7661926 L40.7177206,17.3505921 L42.1725735,17.3278233 L42.6008088,16.720655 C42.5797794,16.7358342 42.5530147,16.7282446 42.5281618,16.7282446 C42.4249265,16.7282446 42.2968382,16.8458834 42.2547794,16.8838315 L42.1897794,16.9502405 L42.1725735,16.8610627 C42.1725735,16.8534731 42.0234559,16.1419477 41.42125,15.8459532 C40.8534559,16.1419477 40.7043382,16.8534731 40.7043382,16.8610627 L40.6871324,16.9502405 L40.6278676,16.8838315 C40.5800735,16.8458834 40.4519853,16.7282446 40.34875,16.7282446 L40.34875,16.7282446 Z M42.2222794,17.4245907 L40.6794853,17.4245907 L40.1996324,16.7661926 C40.3124265,16.4758903 40.5265441,16.6846044 40.6297794,16.7718848 C40.6909559,16.5574785 40.8878676,16.0243089 41.42125,15.7567754 C41.9813971,16.0243089 42.1859559,16.5650681 42.2433088,16.7718848 C42.3465441,16.6846044 42.5683088,16.5802473 42.6772794,16.6978862 L42.2222794,17.4245907 Z" id="Fill-117" fill="#BA0019"></path>
                    <path d="M40.6791029,18.1586951 L40.2374853,17.5211684 C40.3846912,17.3504023 40.6580735,17.6463969 40.6580735,17.6463969 C40.6580735,17.6463969 40.8014559,16.8988209 41.4361618,16.5952368 C42.0727794,16.8988209 42.2199853,17.6463969 42.2199853,17.6463969 C42.2199853,17.6463969 42.4933676,17.3504023 42.6424853,17.5211684 L42.1951324,18.1586951 L40.6791029,18.1586951 Z" id="Fill-119" fill="#FFFFFF"></path>
                    <path d="M40.34875,17.5139583 C40.31625,17.5139583 40.2913971,17.5291375 40.2703676,17.5519063 L40.7177206,18.1287161 L42.1725735,18.1135369 L42.6008088,17.4987791 C42.5759559,17.5291375 42.5530147,17.5139583 42.5243382,17.5139583 C42.4249265,17.5139583 42.2968382,17.6315971 42.2547794,17.6695451 L42.1897794,17.7359542 L42.1725735,17.6467763 C42.1725735,17.6467763 42.0234559,16.9276614 41.42125,16.6316669 C40.8534559,16.9276614 40.7043382,17.6467763 40.7043382,17.6467763 L40.6871324,17.7359542 L40.6278676,17.6695451 C40.5800735,17.6315971 40.4519853,17.5139583 40.34875,17.5139583 L40.34875,17.5139583 Z M42.2222794,18.2103044 L40.6794853,18.2103044 L40.1996324,17.5519063 C40.3124265,17.261604 40.5265441,17.4627285 40.6297794,17.5519063 C40.6909559,17.3507818 40.8878676,16.8100226 41.42125,16.5424891 C41.9813971,16.8100226 42.1859559,17.3507818 42.2433088,17.5519063 C42.3465441,17.4627285 42.5721324,17.365961 42.6772794,17.4911895 L42.2222794,18.2103044 Z" id="Fill-121" fill="#BA0019"></path>
                    <path d="M40.6586471,19.3445706 L40.6337941,18.6918647 C40.6337941,18.6918647 40.7886471,17.7583435 41.4367353,17.3731711 C42.0924706,17.7583435 42.2396765,18.6918647 42.2396765,18.6918647 L42.2186471,19.3445706 L40.6586471,19.3445706 Z" id="Fill-123" fill="#FFFFFF"></path>
                    <path d="M41.4166618,17.4175703 C40.8393088,17.7875635 40.6863676,18.6850341 40.6825441,18.6926237 L40.7073971,19.3453295 L42.1737206,19.2997919 L42.1909265,18.6850341 C42.1909265,18.6850341 42.0360735,17.7875635 41.4166618,17.4175703 L41.4166618,17.4175703 Z M42.2654853,19.3813802 L40.6596029,19.3813802 L40.5869559,18.6926237 C40.5984265,18.6413938 40.7532794,17.728744 41.4166618,17.3359821 C42.1240147,17.728744 42.2826912,18.6413938 42.2884265,18.6850341 L42.2654853,19.3813802 Z" id="Fill-125" fill="#BA0019"></path>
                    <path d="M40.6791029,19.3445706 L40.2374853,18.8626308 C40.3846912,18.7374023 40.6580735,18.944219 40.6580735,18.944219 C40.6580735,18.944219 40.8014559,18.3958702 41.4361618,18.1586951 C42.0727794,18.3958702 42.2199853,18.944219 42.2199853,18.944219 C42.2199853,18.944219 42.4933676,18.7374023 42.6424853,18.8626308 L42.1951324,19.3445706 L40.6791029,19.3445706 Z" id="Fill-127" fill="#FFFFFF"></path>
                    <path d="M40.34875,18.8702204 C40.3124265,18.8702204 40.2913971,18.8853996 40.2646324,18.8929892 L40.7138971,19.3142122 L42.1763971,19.2933408 L42.5721324,18.8702204 C42.5568382,18.87781 42.5396324,18.8702204 42.5281618,18.8702204 C42.4249265,18.8702204 42.2930147,18.9518086 42.2471324,18.9878592 L42.1916912,19.0258073 L42.1763971,18.9593982 C42.1725735,18.9593982 42.0234559,18.4262286 41.4231618,18.2099249 C40.8534559,18.4262286 40.7043382,18.9593982 40.7043382,18.9593982 L40.6871324,19.0258073 L40.6278676,18.9878592 C40.6278676,18.9878592 40.4749265,18.8702204 40.34875,18.8702204 L40.34875,18.8702204 Z M42.2203676,19.3825186 L40.6794853,19.3825186 L40.2034559,18.8929892 C40.2416912,18.7962218 40.2952206,18.7734529 40.34875,18.7734529 C40.4558088,18.7734529 40.5705147,18.8322724 40.6297794,18.87781 C40.6947794,18.7146335 40.8916912,18.3142819 41.4231618,18.1207471 C41.9756618,18.3142819 42.1840441,18.7146335 42.2433088,18.87781 C42.3427206,18.811401 42.5568382,18.7298127 42.6734559,18.8265802 L42.2203676,19.3825186 Z" id="Fill-129" fill="#BA0019"></path>
                    <path d="M21.7501471,16.4688699 L21.1727941,16.0172885 C21.3639706,15.8977523 21.7214706,16.0988767 21.7214706,16.0988767 C21.7214706,16.0988767 21.9164706,15.5713993 22.7385294,15.356993 C23.5586765,15.5713993 23.7536765,16.0988767 23.7536765,16.0988767 C23.7536765,16.0988767 24.1073529,15.8977523 24.3023529,16.0172885 L23.7269118,16.4688699 L21.7501471,16.4688699 Z" id="Fill-131" fill="#FFFFFF"></path>
                    <path d="M21.3243971,16.0241192 C21.2727794,16.0241192 21.2307206,16.0241192 21.1982206,16.046888 L21.7755735,16.4320603 L23.7102794,16.4244707 L24.2188088,16.0241192 L24.1518971,16.0241192 C23.9836618,16.0241192 23.7771912,16.1360658 23.7771912,16.1360658 C23.7064559,16.113297 23.5133676,15.6009988 22.7238088,15.3941821 C21.9648382,15.6009988 21.7698382,16.113297 21.7660147,16.113297 C21.6876324,16.1360658 21.4907206,16.0241192 21.3243971,16.0241192 L21.3243971,16.0241192 Z M23.7466029,16.5136486 L21.7507206,16.5136486 L21.1427794,16.046888 C21.1982206,15.9425309 21.2555735,15.9273517 21.3243971,15.9273517 C21.5021912,15.9273517 21.6971912,16.0241192 21.7411618,16.0544776 C21.7086618,16.0089399 21.93425,15.5194105 22.7238088,15.3050042 C23.5057206,15.5118209 23.7466029,15.9577101 23.7886618,16.0620672 C23.8135147,16.0013503 24.1633676,15.8761219 24.3258676,15.9804789 L23.7466029,16.5136486 Z" id="Fill-133" fill="#BA0019"></path>
                    <path d="M21.45325,17.6621453 L20.7038382,17.017029 C20.9542794,16.8538525 21.4188382,17.1441549 21.4188382,17.1441549 C21.4188382,17.1441549 21.6673676,16.4098607 22.7379559,16.0910974 C23.8085441,16.4098607 24.0589853,17.1441549 24.0589853,17.1441549 C24.0589853,17.1441549 24.5197206,16.8538525 24.7701618,17.017029 L24.0245735,17.6621453 L21.45325,17.6621453 Z" id="Fill-135" fill="#FFFFFF"></path>
                    <path d="M20.8988382,17.0174085 C20.8319265,17.0174085 20.7764853,17.0325877 20.7306029,17.0610487 L21.4838382,17.6321663 L24.0073676,17.6169871 L24.7223676,16.9946397 C24.6841324,17.0249981 24.6344265,17.0098189 24.5770735,17.0174085 C24.3514853,17.0174085 24.0838382,17.1729953 24.0819265,17.180585 C24.0111912,17.1502265 23.7569265,16.4311116 22.7245735,16.1275275 C21.7170735,16.4311116 21.4666324,17.1502265 21.4628088,17.1578161 C21.3958971,17.180585 21.1225147,17.0174085 20.8988382,17.0174085 L20.8988382,17.0174085 Z M24.0379559,17.706165 L21.45325,17.706165 L20.67325,17.0553565 C20.7363382,16.9434098 20.8108971,16.920641 20.8988382,16.920641 C21.1378088,16.920641 21.3997206,17.0762279 21.4379559,17.0989967 C21.4035441,17.0477669 21.6769265,16.3495234 22.7245735,16.0383497 C23.7492794,16.3362416 24.0513382,16.9870501 24.0953088,17.1065863 C24.1239853,17.0325877 24.5847206,16.8466424 24.7969265,16.9794605 L24.0379559,17.706165 Z" id="Fill-137" fill="#BA0019"></path>
                    <path d="M20.7082353,19.3743598 L20.7197059,17.0405568 C20.7197059,17.0405568 20.9586765,17.4997278 22.8188235,17.6021874 C24.5833824,17.543368 24.8777941,17.2625527 24.9542647,17.0101984 L24.8835294,19.3819494 L20.7082353,19.3743598 Z" id="Fill-139" fill="#FFFFFF"></path>
                    <path d="M20.76425,17.1655955 L20.7546912,19.37417 L24.8343971,19.3438116 L24.9032206,17.2035435 C24.7082206,17.4179498 24.2149853,17.6019977 22.8193971,17.6475353 C21.4486618,17.5735367 20.9420441,17.2984135 20.76425,17.1655955 L20.76425,17.1655955 Z M24.9261618,19.4329895 L20.7088088,19.4253999 L20.6724853,17.040367 L20.6724853,16.8620114 L20.7604265,17.0175982 C20.7604265,17.0251878 21.0299853,17.46159 22.8232206,17.5507679 C24.5323382,17.4919484 24.8343971,17.2320045 24.9108676,16.9948294 L25.0007206,17.0100086 L24.9261618,19.4329895 Z" id="Fill-141" fill="#BA0019"></path>
                    <path d="M22.7209412,13.0594304 C22.7457941,13.0594304 23.6194706,14.6001198 22.7209412,14.6228886 C21.8243235,14.6532471 22.7209412,13.1030706 22.7209412,13.0594304" id="Fill-143" fill="#FFFFFF"></path>
                    <path d="M22.7283971,13.1558183 C22.7283971,13.1558183 22.72075,13.1558183 22.7169265,13.1634079 C22.6041324,13.4233518 22.23325,14.1633382 22.4206029,14.4593327 C22.4722206,14.5409209 22.5658971,14.5864585 22.6997206,14.5864585 L22.6997206,14.6225092 L22.7169265,14.5864585 C22.8851618,14.5788689 22.9883971,14.5124599 23.0419265,14.4005133 C23.1891324,14.0741603 22.8526618,13.3702246 22.7283971,13.1558183 L22.7283971,13.1558183 Z M22.6997206,14.6756364 C22.5333971,14.6756364 22.4110441,14.616817 22.3441324,14.5048703 C22.1300147,14.1709278 22.4951618,13.4157622 22.6366324,13.1254599 C22.6576618,13.0894093 22.6710441,13.0590509 22.6748676,13.0438717 C22.68825,13.0438717 22.7035441,13.0514613 22.72075,13.0590509 L22.7685441,13.0590509 C22.7685441,13.0590509 22.7666324,13.0666405 22.7589853,13.0894093 C22.9195735,13.2525858 23.1661912,13.8445748 23.1700147,14.186107 C23.1776618,14.4972807 23.0208971,14.6680468 22.72075,14.6756364 L22.6997206,14.6756364 Z" id="Fill-145" fill="#BA0019"></path>
                    <path d="M21.9648382,15.0162198 L21.5232206,14.7790447 C21.6685147,14.7126357 21.9438088,14.8169927 21.9438088,14.8169927 C21.9438088,14.8169927 22.0891029,14.5418696 22.7238088,14.4242308 C23.3585147,14.5418696 23.5057206,14.8169927 23.5057206,14.8169927 C23.5057206,14.8169927 23.7771912,14.7126357 23.9282206,14.7790447 L23.4846912,15.0162198 L21.9648382,15.0162198 Z" id="Fill-147" fill="#FFFFFF"></path>
                    <path d="M21.6717647,14.8012443 L21.9872059,14.9720104 L23.4707353,14.9720104 L23.7785294,14.8012443 C23.6542647,14.8088339 23.5261765,14.8676534 23.5261765,14.8676534 C23.4630882,14.8391923 23.3139706,14.586838 22.7136765,14.4748914 C22.1344118,14.586838 21.9833824,14.8391923 21.9833824,14.8448845 C21.9317647,14.8676534 21.7960294,14.8088339 21.6717647,14.8012443 L21.6717647,14.8012443 Z M23.4955882,15.0687778 L21.9642647,15.0687778 L21.4117647,14.7708859 L21.5054412,14.7348353 C21.6335294,14.6836055 21.8992647,14.7632963 21.9508824,14.7784755 C21.9394118,14.7424249 22.1210294,14.4976602 22.7136765,14.3781239 C23.3044118,14.4900706 23.4955882,14.7272457 23.5395588,14.7784755 C23.5510294,14.7500145 23.8186765,14.6836055 23.9448529,14.7348353 L24.0327941,14.7708859 L23.4955882,15.0687778 Z" id="Fill-149" fill="#BA0019"></path>
                    <path d="M22.3362941,15.2089958 L22.3229118,15.0154609 C22.3229118,15.0154609 22.3993824,14.7422352 22.7243824,14.6226989 C23.0474706,14.7422352 23.1220294,15.0154609 23.1220294,15.0154609 L23.1143824,15.2089958 L22.3362941,15.2089958 Z" id="Fill-151" fill="#FFFFFF"></path>
                    <path d="M22.70775,14.6752569 C22.4420147,14.7720244 22.3712794,15.0243787 22.3712794,15.0300709 L22.3808382,15.2084265 L23.0690735,15.1723759 L23.0786324,15.0167891 C23.0748088,15.0167891 23.00025,14.7720244 22.70775,14.6752569 L22.70775,14.6752569 Z M23.1570147,15.2615538 L22.3368676,15.2615538 L22.2737794,15.0243787 C22.2795147,14.9940202 22.3636324,14.7056153 22.70775,14.5860791 C23.0862794,14.7056153 23.1665735,14.9940202 23.1703971,15.0091995 L23.1570147,15.2615538 Z" id="Fill-153" fill="#BA0019"></path>
                    <path d="M21.9441912,15.8019335 L21.9193382,15.5495792 C21.9193382,15.5495792 22.0722794,15.179586 22.7241912,15.0164096 C23.3761029,15.179586 23.5252206,15.5495792 23.5252206,15.5495792 L23.5041912,15.8019335 L21.9441912,15.8019335 Z" id="Fill-155" fill="#FFFFFF"></path>
                    <path d="M22.7134853,15.0680189 C22.1208382,15.2084265 21.9678971,15.5575483 21.9640735,15.5651379 L21.9908382,15.802313 L23.4609853,15.7567754 L23.4762794,15.5423691 C23.4743676,15.5423691 23.3137794,15.2008369 22.7134853,15.0680189 L22.7134853,15.0680189 Z M23.5470147,15.8459532 L21.9449559,15.8459532 L21.8761324,15.5499587 C21.8856912,15.5120107 22.0462794,15.1344279 22.7134853,14.9712514 C23.3998088,15.1344279 23.5623088,15.5120107 23.5699559,15.5271899 L23.5470147,15.8459532 Z" id="Fill-157" fill="#BA0019"></path>
                    <path d="M21.9441912,16.2020953 L21.9193382,15.9345618 C21.9193382,15.9345618 22.0722794,15.5645687 22.7241912,15.4089818 C23.3761029,15.5645687 23.5252206,15.9345618 23.5252206,15.9345618 L23.5041912,16.2020953 L21.9441912,16.2020953 Z" id="Fill-159" fill="#FFFFFF"></path>
                    <path d="M22.7134853,15.4535707 C22.1208382,15.601568 21.9678971,15.9506897 21.9678971,15.9506897 L21.9908382,16.1954544 L23.4609853,16.1499168 L23.4762794,15.9355105 C23.4743676,15.9355105 23.3137794,15.5939784 22.7134853,15.4535707 L22.7134853,15.4535707 Z M23.5470147,16.2466843 L21.9449559,16.2466843 L21.8761324,15.9431001 C21.8856912,15.9051521 22.0462794,15.5275694 22.7134853,15.3643929 C23.3998088,15.5275694 23.5623088,15.9051521 23.5699559,15.9203313 L23.5470147,16.2466843 Z" id="Fill-161" fill="#BA0019"></path>
                    <path d="M21.9648382,17.3731711 L21.5232206,16.7356445 C21.6685147,16.5648784 21.9438088,16.8475911 21.9438088,16.8475911 C21.9438088,16.8475911 22.0891029,16.113297 22.7238088,15.8021233 C23.3585147,16.113297 23.5057206,16.8475911 23.5057206,16.8475911 C23.5057206,16.8475911 23.7771912,16.5648784 23.9282206,16.7356445 L23.4846912,17.3731711 L21.9648382,17.3731711 Z" id="Fill-163" fill="#FFFFFF"></path>
                    <path d="M21.6342941,16.7282446 C21.6017941,16.7282446 21.5788529,16.7434238 21.5578235,16.7661926 L22.0051765,17.3505921 L23.4600294,17.3278233 L23.8806176,16.720655 C23.8634118,16.7358342 23.8423824,16.7282446 23.8137059,16.7282446 C23.7104706,16.7282446 23.5842941,16.8458834 23.5384118,16.8838315 L23.4772353,16.9502405 L23.4600294,16.8610627 C23.4562059,16.8534731 23.309,16.1419477 22.7048824,15.8459532 C22.1428235,16.1419477 21.9917941,16.8534731 21.9879706,16.8610627 L21.9726765,16.9502405 L21.9115,16.8838315 C21.8637059,16.8458834 21.7375294,16.7282446 21.6342941,16.7282446 L21.6342941,16.7282446 Z M23.5078235,17.4245907 L21.9650294,17.4245907 L21.4794412,16.7661926 C21.5979706,16.4758903 21.8159118,16.6846044 21.9153235,16.7718848 C21.9765,16.5574785 22.1734118,16.0243089 22.7048824,15.7567754 C23.2669412,16.0243089 23.4753235,16.5650681 23.5326765,16.7718848 C23.6359118,16.6846044 23.8538529,16.5802473 23.9628235,16.6978862 L23.5078235,17.4245907 Z" id="Fill-165" fill="#BA0019"></path>
                    <path d="M21.9648382,18.1586951 L21.5232206,17.5211684 C21.6685147,17.3504023 21.9438088,17.6463969 21.9438088,17.6463969 C21.9438088,17.6463969 22.0891029,16.8988209 22.7238088,16.5952368 C23.3585147,16.8988209 23.5057206,17.6463969 23.5057206,17.6463969 C23.5057206,17.6463969 23.7771912,17.3504023 23.9282206,17.5211684 L23.4846912,18.1586951 L21.9648382,18.1586951 Z" id="Fill-167" fill="#FFFFFF"></path>
                    <path d="M21.6342941,17.5139583 C21.6017941,17.5139583 21.5788529,17.5291375 21.5578235,17.5519063 L22.0051765,18.1287161 L23.4600294,18.1135369 L23.8806176,17.4987791 C23.8634118,17.5291375 23.8385588,17.5139583 23.8137059,17.5139583 C23.7104706,17.5139583 23.5842941,17.6315971 23.5384118,17.6695451 L23.4772353,17.7359542 L23.4600294,17.6467763 C23.4562059,17.6467763 23.309,16.9276614 22.7048824,16.6316669 C22.1428235,16.9276614 21.9917941,17.6467763 21.9879706,17.6467763 L21.9726765,17.7359542 L21.9115,17.6695451 C21.8637059,17.6315971 21.7375294,17.5139583 21.6342941,17.5139583 L21.6342941,17.5139583 Z M23.5078235,18.2103044 L21.9650294,18.2103044 L21.4794412,17.5519063 C21.6017941,17.261604 21.8159118,17.4627285 21.9153235,17.5519063 C21.9765,17.3507818 22.1734118,16.8100226 22.7048824,16.5424891 C23.2669412,16.8100226 23.4753235,17.3507818 23.5326765,17.5519063 C23.6359118,17.4627285 23.8538529,17.365961 23.9628235,17.4911895 L23.5078235,18.2103044 Z" id="Fill-169" fill="#BA0019"></path>
                    <path d="M21.9441912,19.3445706 L21.9193382,18.6918647 C21.9193382,18.6918647 22.0722794,17.7583435 22.7241912,17.3731711 C23.3761029,17.7583435 23.5252206,18.6918647 23.5252206,18.6918647 L23.5041912,19.3445706 L21.9441912,19.3445706 Z" id="Fill-171" fill="#FFFFFF"></path>
                    <path d="M22.7002941,17.4175703 C22.1248529,17.7875635 21.9680882,18.6850341 21.9680882,18.6926237 L21.9910294,19.3453295 L23.4573529,19.2997919 L23.4764706,18.6850341 C23.4764706,18.6850341 23.3254412,17.7875635 22.7002941,17.4175703 L22.7002941,17.4175703 Z M23.5491176,19.3813802 L21.9432353,19.3813802 L21.8705882,18.6926237 C21.8820588,18.6413938 22.0388235,17.728744 22.7002941,17.3359821 C23.4095588,17.728744 23.5663235,18.6413938 23.5739706,18.6850341 L23.5491176,19.3813802 Z" id="Fill-173" fill="#BA0019"></path>
                    <path d="M21.9648382,19.3445706 L21.5232206,18.8626308 C21.6685147,18.7374023 21.9438088,18.944219 21.9438088,18.944219 C21.9438088,18.944219 22.0891029,18.3958702 22.7238088,18.1586951 C23.3585147,18.3958702 23.5057206,18.944219 23.5057206,18.944219 C23.5057206,18.944219 23.7771912,18.7374023 23.9282206,18.8626308 L23.4846912,19.3445706 L21.9648382,19.3445706 Z" id="Fill-175" fill="#FFFFFF"></path>
                    <path d="M21.6342941,18.8702204 C21.5979706,18.8702204 21.5731176,18.8853996 21.554,18.8929892 L21.9975294,19.3142122 L23.4638529,19.2933408 L23.8576765,18.8702204 C23.8462059,18.87781 23.829,18.8702204 23.8137059,18.8702204 C23.6894412,18.8702204 23.5345882,18.9878592 23.5345882,18.9878592 L23.4772353,19.0258073 L23.4600294,18.9593982 C23.4562059,18.9593982 23.309,18.4262286 22.7087059,18.2099249 C22.139,18.4262286 21.9917941,18.9593982 21.9879706,18.9593982 L21.9688529,19.0258073 L21.9134118,18.9878592 C21.9134118,18.9878592 21.7604706,18.8702204 21.6342941,18.8702204 L21.6342941,18.8702204 Z M23.5059118,19.3825186 L21.9650294,19.3825186 L21.4870882,18.8929892 C21.5310588,18.7962218 21.5788529,18.7734529 21.6342941,18.7734529 C21.7413529,18.7734529 21.8560588,18.8322724 21.9153235,18.87781 C21.9784118,18.7146335 22.1791471,18.3142819 22.7087059,18.1207471 C23.2650294,18.3142819 23.4676765,18.7146335 23.5288529,18.87781 C23.6282647,18.811401 23.8423824,18.7298127 23.959,18.8265802 L23.5059118,19.3825186 Z" id="Fill-177" fill="#BA0019"></path>
                    <path d="M29.3616471,18.2922721 L34.8025294,18.2922721 C35.0701765,18.2922721 35.2900294,18.5066784 35.2900294,18.7742119 C35.2900294,19.0341558 35.0701765,19.2561517 34.8025294,19.2561517 L29.3616471,19.2561517 C29.0920882,19.2561517 28.8760588,19.0341558 28.8760588,18.7742119 C28.8760588,18.5066784 29.0920882,18.2922721 29.3616471,18.2922721" id="Fill-179" fill="#FFFFFF"></path>
                    <path d="M29.3616471,18.3366713 C29.1150294,18.3366713 28.9219412,18.5302062 28.9219412,18.7730735 C28.9219412,19.0102486 29.1150294,19.2037834 29.3616471,19.2037834 L34.8025294,19.2037834 C35.0453235,19.2037834 35.2422353,19.0102486 35.2422353,18.7730735 C35.2422353,18.5302062 35.0453235,18.3366713 34.8025294,18.3366713 L29.3616471,18.3366713 Z M34.8025294,19.3005509 L29.3616471,19.3005509 C29.0672353,19.3005509 28.8244412,19.0633758 28.8244412,18.7730735 C28.8244412,18.4846685 29.0672353,18.2399038 29.3616471,18.2399038 L34.8025294,18.2399038 C35.0950294,18.2399038 35.3378235,18.4846685 35.3378235,18.7730735 C35.3378235,19.0633758 35.0950294,19.3005509 34.8025294,19.3005509 L34.8025294,19.3005509 Z" id="Fill-181" fill="#BA0019"></path>
                    <path d="M35.3825588,18.8628205 L35.4227059,15.6675975 C35.4227059,15.6675975 35.3003529,16.4531215 34.9294706,16.4531215 L29.2343235,16.4531215 C28.8653529,16.4531215 28.7410882,15.6675975 28.7410882,15.6675975 L28.7793235,18.8628205 L35.3825588,18.8628205 Z" id="Fill-183" fill="#FFFFFF"></path>
                    <path d="M28.7923235,16.0391086 L28.8286471,18.8548514 L35.3382059,18.8112112 L35.3726176,16.0391086 C35.2885,16.2686941 35.1508529,16.4982796 34.9290882,16.4982796 L29.2339412,16.4982796 C29.0140882,16.4982796 28.8764412,16.2686941 28.7923235,16.0391086 L28.7923235,16.0391086 Z M35.4299706,18.9003891 L28.7789412,18.9003891 L28.6929118,15.6691155 L28.7846765,15.6615259 C28.821,15.8683425 28.9643824,16.4091018 29.2339412,16.4091018 L34.9290882,16.4091018 C35.1986471,16.4091018 35.3458529,15.8683425 35.3764412,15.6615259 L35.4720294,15.6691155 L35.4299706,18.9003891 Z" id="Fill-185" fill="#BA0019"></path>
                    <path d="M34.1223235,17.4101705 L34.1337941,16.3722922 C34.1337941,16.3722922 34.8449706,16.1806547 34.7455588,15.9131212 C34.6442353,15.6379981 33.7896765,16.2546534 33.7896765,16.2546534 L30.3695294,16.2546534 C30.3695294,16.2546534 29.5168824,15.6379981 29.4155588,15.9131212 C29.3161471,16.1806547 30.0292353,16.3722922 30.0292353,16.3722922 L30.0426176,17.4101705 L34.1223235,17.4101705 Z" id="Fill-187" fill="#FFFFFF"></path>
                    <path d="M29.5352353,15.8907319 C29.4855294,15.8907319 29.4683235,15.9059111 29.4606765,15.9286799 C29.4511176,15.9495513 29.4530294,15.9874993 29.4721471,16.0159603 C29.5486176,16.165855 29.9099412,16.2910834 30.0437647,16.3271341 L30.0877353,17.4105499 L34.0775882,17.3650123 L34.0871471,16.3726717 C34.2534706,16.2910834 34.6147941,16.165855 34.6931765,16.0159603 C34.7103824,15.9874993 34.7103824,15.9571409 34.7008235,15.9286799 C34.6931765,15.9059111 34.6778824,15.8907319 34.6262647,15.8907319 C34.4255294,15.8907319 33.9743529,16.1791368 33.8195,16.2910834 L30.3706765,16.3062627 C30.1871471,16.1791368 29.7359706,15.8907319 29.5352353,15.8907319 L29.5352353,15.8907319 Z M34.1655294,17.4617798 L30.0437647,17.4617798 L29.9806765,16.3802613 C29.9692059,16.4087223 29.4989118,16.2759042 29.3861176,16.0539083 C29.3574412,16.0083707 29.3517059,15.9495513 29.3727353,15.8983215 C29.3861176,15.8527839 29.4262647,15.7939644 29.5352353,15.7939644 C29.8105294,15.7939644 30.3725882,16.194316 30.3974412,16.2170848 L33.7908235,16.2094952 C33.787,16.194316 34.3528824,15.7939644 34.6262647,15.7939644 C34.7390588,15.7939644 34.7753824,15.8527839 34.7887647,15.8983215 C34.8097941,15.9495513 34.8059706,16.0083707 34.7753824,16.0539083 C34.6625882,16.2759042 34.1655294,16.4087223 34.1445,16.4163119 L34.1693529,17.4105499 L34.1655294,17.4617798 Z" id="Fill-189" fill="#BA0019"></path>
                    <path d="M34.53125,18.3144717 L34.5446324,17.2101844 C34.5446324,17.2101844 35.3953676,17.0773663 35.2768382,16.8098328 C35.1602206,16.5290175 34.1336029,17.151365 34.1336029,17.151365 L30.0309559,17.151365 C30.0309559,17.151365 29.0024265,16.5290175 28.8858088,16.8098328 C28.7653676,17.0773663 29.6180147,17.2101844 29.6180147,17.2101844 L29.6333088,18.3144717 L34.53125,18.3144717 Z" id="Fill-191" fill="#FFFFFF"></path>
                    <path d="M29.0274706,16.7876332 C28.9471765,16.7876332 28.9318824,16.8179917 28.9280588,16.8255813 C29.0102647,17.0399876 29.4614412,17.1424472 29.6239412,17.165216 L29.6832059,18.3150409 L34.4836471,18.2619137 L34.4951176,17.2107536 C34.7054118,17.1424472 35.1508529,17.0399876 35.2311471,16.8919903 C35.2292353,16.5200997 34.1662941,17.1803952 34.1586471,17.1879848 L30.0292353,17.1955744 C30.0005588,17.1879848 29.3237941,16.7876332 29.0274706,16.7876332 L29.0274706,16.7876332 Z M34.5735,18.3586811 L29.6335,18.3586811 L29.5742353,17.2107536 C29.5474706,17.2392146 28.9682059,17.1576264 28.8496765,16.9356305 C28.8248235,16.8844007 28.821,16.8464527 28.8401176,16.7876332 C28.8611471,16.743993 28.9089412,16.6908658 29.0274706,16.6908658 C29.3486471,16.6908658 30.0235,17.0912174 30.0521765,17.1063966 L34.1337941,17.1063966 C34.1376176,17.0912174 34.8124706,16.6908658 35.1374706,16.6908658 C35.2579118,16.6908658 35.3018824,16.743993 35.321,16.7876332 C35.3458529,16.8464527 35.3420294,16.8844007 35.3133529,16.9356305 C35.1986471,17.1500368 34.6155588,17.2468042 34.5505588,17.2619834 L34.5773235,18.3150409 L34.5735,18.3586811 Z" id="Fill-193" fill="#BA0019"></path>
                    <path d="M32.6774118,12.688868 L32.6812353,12.258158 C32.1803529,12.258158 32.3046176,11.7838078 32.3046176,11.5997599 C32.4537353,11.4214042 32.4938824,11.0514111 32.0809412,10.8730554 C31.6813824,11.0798721 31.7100588,11.4214042 31.8572647,11.5845807 C31.8591765,11.7838078 32.0255,12.258158 31.4749118,12.258158 L31.4787353,12.688868 L32.6774118,12.688868 Z" id="Fill-195" fill="#FFFFFF"></path>
                    <path d="M32.06125,10.9174546 C31.9388971,11.0066324 31.8375735,11.1166817 31.8108088,11.2438075 C31.7916912,11.3538568 31.8203676,11.4658034 31.8949265,11.5473917 C31.9083088,11.6138007 31.9121324,11.6517487 31.9159559,11.6953889 C31.93125,11.8433862 31.9561029,12.0445107 31.8394853,12.1773287 C31.7630147,12.2665066 31.63875,12.296865 31.4743382,12.296865 L31.5259559,12.6896269 L32.6328676,12.6516789 L32.6347794,12.258917 C32.5353676,12.296865 32.4225735,12.2665066 32.3461029,12.1925079 C32.2256618,12.0521003 32.2447794,11.8357966 32.2524265,11.6953889 L32.2600735,11.5986215 C32.3327206,11.4885722 32.38625,11.3614464 32.3499265,11.2210387 C32.32125,11.0958103 32.2218382,10.9914532 32.06125,10.9174546 L32.06125,10.9174546 Z M32.7265441,12.7408568 L31.4781618,12.7408568 L31.4265441,12.258917 C31.6138971,12.2076871 31.7094853,12.1849183 31.76875,12.1109197 C31.8586029,12.0065627 31.8394853,11.8433862 31.8241912,11.7105681 C31.8165441,11.6593383 31.8146324,11.6213903 31.8108088,11.5853397 C31.7305147,11.5094436 31.6941912,11.3614464 31.7171324,11.2286283 C31.7400735,11.1166817 31.8165441,10.9554026 32.06125,10.8358663 C32.3365441,10.9402234 32.4168382,11.0882207 32.4436029,11.1982699 C32.4780147,11.340575 32.4397794,11.5094436 32.3403676,11.6289799 C32.3403676,11.6289799 32.3461029,11.6593383 32.3461029,11.7029785 C32.3365441,11.8357966 32.32125,12.0141523 32.41875,12.1185093 C32.4703676,12.1849183 32.5583088,12.2076871 32.6806618,12.2076871 L32.7265441,12.6896269 L32.7265441,12.7408568 Z" id="Fill-197" fill="#BA0019"></path>
                    <path d="M33.5248971,15.5497689 L33.5344559,14.7130152 C33.5344559,14.7130152 34.0353382,14.5498387 33.9665147,14.3259454 C33.8957794,14.1039495 33.2916618,14.6010685 33.2916618,14.6010685 L30.8694559,14.6010685 C30.8694559,14.6010685 30.2615147,14.1039495 30.1946029,14.3259454 C30.1276912,14.5498387 30.6266618,14.7130152 30.6266618,14.7130152 L30.6362206,15.5497689 L33.5248971,15.5497689 Z" id="Fill-199" fill="#FFFFFF"></path>
                    <path d="M30.2783382,14.3120944 C30.1942206,14.4828605 30.5249559,14.6308577 30.6434853,14.6744979 L30.6836324,15.5491997 L33.4805441,15.5055595 L33.4881912,14.712446 C33.6373088,14.6308577 33.9680441,14.4828605 33.9221618,14.3424528 C33.7443676,14.3045048 33.4308382,14.5492695 33.3237794,14.6384473 L30.8709853,14.6536265 C30.7276029,14.5492695 30.4140735,14.3120944 30.2783382,14.3120944 L30.2783382,14.3120944 Z M33.5723088,15.5947373 L30.6358382,15.5947373 L30.5784853,14.712446 C30.5612794,14.7428044 30.0680441,14.5720383 30.15025,14.3120944 C30.1655441,14.253275 30.2114265,14.2153269 30.2783382,14.2153269 C30.4733382,14.2153269 30.8556912,14.5265007 30.89775,14.5720383 L33.2912794,14.5568591 C33.3046618,14.5265007 33.6889265,14.2153269 33.8858382,14.2153269 C33.9508382,14.2153269 33.9948088,14.253275 34.0120147,14.3120944 C34.0942206,14.5720383 33.6048088,14.7428044 33.5512794,14.7636758 L33.5723088,15.5567893 L33.5723088,15.5947373 Z" id="Fill-201" fill="#BA0019"></path>
                    <path d="M33.8124265,16.2910834 L33.8238971,15.3860233 C33.8238971,15.3860233 34.4318382,15.275974 34.3438971,15.0615677 C34.2597794,14.8300848 33.5333088,15.342383 33.5333088,15.342383 L30.6274265,15.342383 C30.6274265,15.342383 29.9009559,14.8300848 29.81875,15.0615677 C29.7327206,15.275974 30.33875,15.3860233 30.33875,15.3860233 L30.3483088,16.2910834 L33.8124265,16.2910834 Z" id="Fill-203" fill="#FFFFFF"></path>
                    <path d="M29.9179706,15.0532192 L29.8663529,15.142397 C29.9256176,15.2391644 30.1913529,15.3131631 30.3481176,15.3416241 L30.3978235,16.2903245 L33.7701765,16.2390947 L33.7778235,15.3871617 C33.9307647,15.3207527 34.2328235,15.246754 34.2978235,15.142397 L34.2442941,15.0532192 C34.0779706,15.0532192 33.6956176,15.2828047 33.5656176,15.3795721 L30.6272353,15.3871617 C30.4685588,15.2828047 30.0881176,15.0532192 29.9179706,15.0532192 L29.9179706,15.0532192 Z M33.8619412,16.3358621 L30.3481176,16.3358621 L30.2888529,15.3871617 C30.2812059,15.4232123 29.8797353,15.3568033 29.7860588,15.1784476 C29.7612059,15.142397 29.7535588,15.0911672 29.7745882,15.0456295 C29.7860588,15.0095789 29.8185588,14.9564517 29.9179706,14.9564517 C30.1512059,14.9564517 30.6329706,15.2828047 30.6559118,15.2979839 L33.5350294,15.2903943 C33.5273824,15.2828047 34.0129706,14.9564517 34.2442941,14.9564517 C34.3417941,14.9564517 34.3762059,15.0095789 34.3915,15.0456295 C34.4087059,15.0911672 34.4048824,15.142397 34.3800294,15.1784476 C34.2806176,15.3568033 33.8791471,15.4232123 33.8351765,15.4383915 L33.8619412,16.2903245 L33.8619412,16.3358621 Z" id="Fill-205" fill="#BA0019"></path>
                    <path d="M33.0171324,14.2157064 L33.0228676,13.6673576 C33.0228676,13.6673576 33.3478676,13.5345395 33.3019853,13.3865423 C33.2599265,13.229058 32.8680147,13.5705902 32.8680147,13.5705902 L31.2984559,13.5705902 C31.2984559,13.5705902 30.9065441,13.229058 30.8625735,13.3865423 C30.8147794,13.5345395 31.1416912,13.6673576 31.1416912,13.6673576 L31.1474265,14.2157064 L33.0171324,14.2157064 Z" id="Fill-207" fill="#FFFFFF"></path>
                    <path d="M30.9168676,13.3929934 C30.8767206,13.4821713 31.0640735,13.5865283 31.1596618,13.6225789 L31.1940735,14.2164654 L32.9681912,14.1709278 L32.9701029,13.6605269 C33.0981912,13.5865283 33.2817206,13.4821713 33.2606912,13.3929934 C33.2109853,13.4081726 32.9987794,13.5182219 32.8974559,13.6073997 L31.2973088,13.6225789 C31.1615735,13.5182219 30.9856912,13.3929934 30.9168676,13.3929934 L30.9168676,13.3929934 Z M33.0656912,14.2676952 L31.1481912,14.2676952 L31.09275,13.6681166 C31.0831912,13.6965776 30.7601029,13.5485803 30.8136324,13.362635 L30.8251029,13.3417636 L30.9168676,13.296226 C31.0449559,13.296226 31.2801029,13.5049401 31.3298088,13.5409907 L32.8687794,13.5258115 C32.8783382,13.5049401 33.1134853,13.296226 33.2492206,13.296226 L33.2817206,13.296226 L33.3467206,13.362635 C33.4021618,13.5485803 33.0790735,13.6965776 33.0389265,13.7117568 L33.0656912,14.2164654 L33.0656912,14.2676952 Z" id="Fill-209" fill="#BA0019"></path>
                    <path d="M33.2039118,14.7196561 L33.2115588,14.1637176 C33.2115588,14.1637176 33.6015588,14.0308996 33.5480294,13.8829023 C33.4945,13.7273155 33.0222941,14.0745398 33.0222941,14.0745398 L31.1411176,14.0745398 C31.1411176,14.0745398 30.6708235,13.7273155 30.6153824,13.8829023 C30.5618529,14.0308996 30.9537647,14.1637176 30.9537647,14.1637176 L30.9614118,14.7196561 L33.2039118,14.7196561 Z" id="Fill-211" fill="#FFFFFF"></path>
                    <path d="M30.6798088,13.8895432 C30.6989265,14.0071821 30.8709853,14.0887703 30.9665735,14.1191287 L31.0086324,14.7130152 L33.1574559,14.6750672 L33.1631912,14.1646663 C33.2912794,14.0887703 33.4633382,14.0071821 33.4996618,13.9331834 C33.3906912,13.8895432 33.1670147,14.0223613 33.0503971,14.1115391 L31.1405441,14.1191287 C30.9933382,14.0223613 30.7753971,13.8895432 30.6798088,13.8895432 L30.6798088,13.8895432 Z M33.2530441,14.764245 L30.9608382,14.764245 L30.9053971,14.1646663 C30.9092206,14.200717 30.6434853,14.1039495 30.5784853,13.9711315 L30.5708382,13.9483627 L30.5708382,13.8667744 C30.5823088,13.8383134 30.6090735,13.8003654 30.6798088,13.8003654 C30.8346618,13.8003654 31.1348088,14.0071821 31.1692206,14.0299509 L33.0236324,14.0223613 C33.0274559,14.0071821 33.3276029,13.8003654 33.4843676,13.8003654 L33.5130441,13.8003654 L33.5895147,13.8667744 C33.6009853,13.9047224 33.6009853,13.9331834 33.5837794,13.9711315 C33.5168676,14.1115391 33.2568676,14.200717 33.2243676,14.2083066 L33.2530441,14.7187074 L33.2530441,14.764245 Z" id="Fill-213" fill="#BA0019"></path>
                    <path d="M32.7445147,13.2448064 L32.7483382,12.7400978 C32.7483382,12.7400978 32.97775,12.6300486 32.9471618,12.4953331 C32.9146618,12.3776943 32.6336324,12.6660992 32.6336324,12.6660992 L31.5248088,12.6660992 C31.5248088,12.6660992 31.2476029,12.3776943 31.2151029,12.4953331 C31.1883382,12.6300486 31.4139265,12.7400978 31.4139265,12.7400978 L31.41775,13.1783974 L32.7445147,13.2448064 Z" id="Fill-215" fill="#FFFFFF"></path>
                    <path d="M31.2546765,12.5184814 C31.2432059,12.5848904 31.3732059,12.6816579 31.4343824,12.6968371 L31.4649706,13.1787769 L32.6961471,13.1996483 L32.6999706,12.7404773 C32.7917353,12.6740683 32.9179118,12.5848904 32.8987941,12.5108918 C32.8720294,12.5184814 32.7535,12.6076592 32.6674706,12.6816579 L31.5261471,12.6968371 C31.4057059,12.6076592 31.2948235,12.5184814 31.2546765,12.5184814 L31.2546765,12.5184814 Z M32.7917353,13.2964157 L31.4171765,13.2300067 L31.3674706,12.7480669 C31.3674706,12.7708357 31.1323235,12.6437098 31.1686471,12.488123 L31.1801176,12.4520724 L31.2546765,12.421714 C31.3540882,12.421714 31.5089412,12.5848904 31.5605588,12.630428 L32.6349706,12.6152488 C32.6521765,12.5848904 32.8070294,12.421714 32.9064412,12.421714 L32.9465882,12.421714 L32.9905588,12.488123 C33.0307059,12.6512995 32.7993824,12.7708357 32.7707059,12.7860149 L32.7917353,13.2451859 L32.7917353,13.2964157 Z" id="Fill-217" fill="#BA0019"></path>
                    <path d="M32.8752794,13.5931692 L32.8791029,13.156767 C32.8791029,13.156767 33.1563088,13.0372308 33.1180735,12.9120023 C33.08175,12.7772869 32.7491029,13.0675892 32.7491029,13.0675892 L31.4127794,13.0675892 C31.4127794,13.0675892 31.0801324,12.7772869 31.0418971,12.9120023 C31.0036618,13.0372308 31.2808676,13.156767 31.2808676,13.156767 L31.2885147,13.5931692 L32.8752794,13.5931692 Z" id="Fill-219" fill="#FFFFFF"></path>
                    <path d="M31.0904559,12.9260431 C31.0694265,12.9772729 31.20325,13.0664508 31.30075,13.1119884 L31.3351618,13.5939282 L32.82825,13.540801 L32.8320735,13.1556286 C32.9620735,13.0664508 33.0901618,12.9772729 33.0748676,12.9260431 C33.0136912,12.9260431 32.8683971,13.0304001 32.7785441,13.1043988 L31.4135441,13.1119884 C31.2969265,13.0304001 31.1478088,12.9260431 31.0904559,12.9260431 L31.0904559,12.9260431 Z M32.9200147,13.6375684 L31.2892794,13.6375684 L31.23575,13.1556286 C31.2108971,13.1556286 30.9508971,13.0588611 30.9967794,12.8956847 L31.00825,12.8672237 L31.0904559,12.8292756 C31.20325,12.8292756 31.4039853,13.0000417 31.4460441,13.0379897 L32.7479559,13.0228105 C32.7556029,13.0000417 32.9620735,12.8292756 33.0748676,12.8292756 L33.1092794,12.8292756 L33.1666324,12.8956847 C33.2125147,13.0588611 32.9525147,13.1708078 32.8989853,13.1935766 L32.9200147,13.5939282 L32.9200147,13.6375684 Z" id="Fill-221" fill="#BA0019"></path>
                    <path d="M31.6599706,13.6153688 L31.4133529,13.3402457 C31.4974706,13.2662471 31.6446765,13.3933729 31.6446765,13.3933729 C31.6446765,13.3933729 31.7307059,13.0746096 32.0824706,12.9474837 C32.4342353,13.0746096 32.5145294,13.3933729 32.5145294,13.3933729 C32.5145294,13.3933729 32.6674706,13.2662471 32.7515882,13.3402457 L32.5049706,13.6153688 L31.6599706,13.6153688 Z" id="Fill-223" fill="#FFFFFF"></path>
                    <path d="M31.4751029,13.363394 L31.6930441,13.5853899 L32.4806912,13.5626211 L32.7120147,13.3121642 C32.6336324,13.363394 32.5648088,13.4146238 32.5456912,13.429803 L32.4864265,13.4753406 L32.4711324,13.4070342 C32.4673088,13.3937524 32.3908382,13.1034501 32.0658382,12.9858112 C31.77525,13.1034501 31.6968676,13.3937524 31.6930441,13.4070342 L31.6739265,13.4753406 L31.6184853,13.429803 C31.5936324,13.4146238 31.5248088,13.363394 31.4751029,13.363394 L31.4751029,13.363394 Z M32.52275,13.6593885 L31.6605441,13.6593885 L31.3068676,13.2893953 L31.4751029,13.2666265 C31.5286324,13.2666265 31.5859853,13.296985 31.6203971,13.3197538 C31.6662794,13.2153967 31.7867206,13.0009904 32.0658382,12.8966334 C32.3678971,13.0009904 32.4940735,13.2153967 32.5399559,13.3197538 C32.5762794,13.296985 32.6317206,13.2666265 32.68525,13.2666265 L32.7808382,13.3045746 L32.52275,13.6593885 Z" id="Fill-225" fill="#BA0019"></path>
                    <path d="M31.4900147,14.0601196 L31.1439853,13.792586 C31.2606029,13.7185874 31.4747206,13.8381237 31.4747206,13.8381237 C31.4747206,13.8381237 31.5894265,13.5193603 32.0826618,13.3922345 C32.5720735,13.5193603 32.6886912,13.8381237 32.6886912,13.8381237 C32.6886912,13.8381237 32.9028088,13.7185874 33.0175147,13.792586 L32.6714853,14.0601196 L31.4900147,14.0601196 Z" id="Fill-227" fill="#FFFFFF"></path>
                    <path d="M31.2546765,13.8229445 L31.5204118,14.0221715 L32.6540882,14.0164793 L32.9102647,13.8229445 C32.8185,13.8229445 32.7133529,13.8817639 32.7133529,13.8817639 C32.6426176,13.8457133 32.5298235,13.5554109 32.0690882,13.4377721 C31.6312941,13.5554109 31.5242353,13.8457133 31.5204118,13.8608925 C31.4535,13.8817639 31.3464412,13.8229445 31.2546765,13.8229445 L31.2546765,13.8229445 Z M32.6885,14.1113494 L31.4898235,14.1113494 L31.1170294,13.8229445 C31.1514412,13.726177 31.1935,13.7185874 31.2355588,13.7185874 C31.3349706,13.7185874 31.4496765,13.7717146 31.4821765,13.792586 C31.4649706,13.7413562 31.6121765,13.4681305 32.0690882,13.3485943 C32.5183529,13.4605409 32.6770294,13.7109978 32.721,13.8001756 C32.7477647,13.7413562 32.9485,13.6901264 33.0440882,13.7489458 L32.6885,14.1113494 Z" id="Fill-229" fill="#BA0019"></path>
                    <path d="M31.4041765,14.8456435 L31.0122647,14.4832399 C31.1441765,14.3864725 31.3869706,14.549649 31.3869706,14.549649 C31.3869706,14.549649 31.5207941,14.1265286 32.0809412,13.9481729 C32.6449118,14.1265286 32.7749118,14.549649 32.7749118,14.549649 C32.7749118,14.549649 33.0196176,14.3864725 33.1534412,14.4832399 L32.7557941,14.8456435 L31.4041765,14.8456435 Z" id="Fill-231" fill="#FFFFFF"></path>
                    <path d="M31.1128235,14.4974705 C31.0822353,14.4974705 31.0612059,14.5050601 31.0401765,14.5202393 L31.4378235,14.8162338 L32.7378235,14.8010546 L33.0647353,14.4974705 C32.9825294,14.4974705 32.8429706,14.5638795 32.8009118,14.5942379 C32.7301765,14.5638795 32.5963529,14.1635279 32.0648824,13.9927618 C31.5678235,14.1635279 31.434,14.5638795 31.434,14.5638795 C31.3594412,14.5942379 31.2237059,14.4974705 31.1128235,14.4974705 L31.1128235,14.4974705 Z M32.7741471,14.897822 L31.4034118,14.897822 L30.9828235,14.5126497 C31.0191471,14.4158822 31.0650294,14.400703 31.1128235,14.400703 C31.2313529,14.400703 31.3594412,14.4822912 31.4015,14.4974705 C31.3785588,14.4462406 31.5410588,14.0743501 32.0648824,13.9111736 C32.5867941,14.0610683 32.7626765,14.400703 32.8085588,14.4974705 C32.8391471,14.4462406 33.0704706,14.3646524 33.1794412,14.4462406 L32.7741471,14.897822 Z" id="Fill-233" fill="#BA0019"></path>
                    <path d="M31.2361324,15.8167332 L30.7467206,15.3575622 C30.9092206,15.238026 31.2112794,15.4467401 31.2112794,15.4467401 C31.2112794,15.4467401 31.3776029,14.9116731 32.0811324,14.6896772 C32.7846618,14.9116731 32.9509853,15.4467401 32.9509853,15.4467401 C32.9509853,15.4467401 33.2530441,15.238026 33.4193676,15.3575622 L32.9242206,15.8167332 L31.2361324,15.8167332 Z" id="Fill-235" fill="#FFFFFF"></path>
                    <path d="M30.8721324,15.3645826 C30.8319853,15.3645826 30.7975735,15.3721722 30.7746324,15.394941 L31.2678676,15.7801134 L32.90625,15.7649342 L33.3402206,15.356993 C33.3268382,15.3645826 33.3077206,15.3645826 33.2924265,15.3645826 C33.1490441,15.3645826 32.9750735,15.4765293 32.9750735,15.4822215 C32.9024265,15.4537605 32.7380147,14.9490518 32.0650735,14.7422352 C31.4265441,14.9490518 31.2602206,15.4537605 31.2602206,15.4537605 C31.1875735,15.4765293 31.0155147,15.3645826 30.8721324,15.3645826 L30.8721324,15.3645826 Z M32.9463971,15.8617016 L31.2353676,15.8617016 L30.7115441,15.3873514 C30.7593382,15.2829944 30.8109559,15.2678152 30.8721324,15.2678152 C31.02125,15.2678152 31.1894853,15.3645826 31.2296324,15.394941 C31.2028676,15.3418138 31.3978676,14.859874 32.0650735,14.6530573 C32.7265441,14.8465922 32.93875,15.2829944 32.9846324,15.4025306 C33.0133088,15.3342242 33.3038971,15.2165854 33.4472794,15.3209424 L32.9463971,15.8617016 Z" id="Fill-237" fill="#BA0019"></path>
                    <polygon id="Fill-239" fill="#FFFFFF" points="31.1166471 16.6022572 32.0534118 17.7653639 33.0475294 16.6022572"></polygon>
                    <path d="M31.2154853,16.6616458 L32.0528382,17.6919345 L32.9456324,16.6616458 L31.2154853,16.6616458 Z M32.0509265,17.8399317 L31.0166618,16.5648784 L33.1501912,16.5648784 L32.0509265,17.8399317 Z" id="Fill-241" fill="#BA0019"></path>
                    <path d="M31.07,16.7430443 L30.4754412,16.2250539 C30.6742647,16.0903384 31.0394118,16.3199239 31.0394118,16.3199239 C31.0394118,16.3199239 31.2363235,15.7355245 32.0813235,15.4907598 C32.9244118,15.7355245 33.1213235,16.3199239 33.1213235,16.3199239 C33.1213235,16.3199239 33.4922059,16.0903384 33.6852941,16.2250539 L33.0945588,16.7430443 L31.07,16.7430443 Z" id="Fill-243" fill="#FFFFFF"></path>
                    <path d="M30.63125,16.2316948 C30.5796324,16.2316948 30.53375,16.2392844 30.5050735,16.2696428 L31.0996324,16.706045 L33.0783088,16.6908658 L33.6097794,16.2241052 C33.5906618,16.2316948 33.5658088,16.2316948 33.5313971,16.2316948 C33.3574265,16.2316948 33.1490441,16.3645129 33.1490441,16.3645129 C33.0744853,16.3284622 32.8756618,15.7649342 32.0688971,15.5353487 C31.2888971,15.7649342 31.08625,16.3284622 31.08625,16.3360518 C31.0078676,16.3645129 30.8033088,16.2316948 30.63125,16.2316948 L30.63125,16.2316948 Z M33.1108088,16.7876332 L31.0690441,16.7876332 L30.4458088,16.2620532 C30.50125,16.1576962 30.5624265,16.1349274 30.63125,16.1349274 C30.8147794,16.1349274 31.0155147,16.2544636 31.0613971,16.2829246 C31.0250735,16.2165156 31.2544853,15.6757564 32.0688971,15.4461709 C32.8680147,15.6681668 33.1108088,16.1728754 33.1586029,16.2829246 C33.1853676,16.2165156 33.5447794,16.0685183 33.7111029,16.1880546 L33.1108088,16.7876332 Z" id="Fill-245" fill="#BA0019"></path>
                    <polygon id="Fill-247" fill="#FFFFFF" points="31.0363529 17.8845207 32.0515 19.3455193 33.1297353 17.8845207"></polygon>
                    <path d="M31.1241029,17.9365094 L32.0513088,19.2627926 L33.0339559,17.9365094 L31.1241029,17.9365094 Z M32.0513088,19.4183795 L30.9443971,17.839742 L33.2213088,17.839742 L32.0513088,19.4183795 Z" id="Fill-249" fill="#BA0019"></path>
                    <path d="M30.9858824,18.0475074 L30.3435294,17.4023911 C30.5595588,17.2392146 30.9533824,17.529517 30.9533824,17.529517 C30.9533824,17.529517 31.1694118,16.7876332 32.0813235,16.4764595 C32.9951471,16.7876332 33.2111765,17.529517 33.2111765,17.529517 C33.2111765,17.529517 33.605,17.2392146 33.8191176,17.4023911 L33.1786765,18.0475074 L30.9858824,18.0475074 Z" id="Fill-251" fill="#FFFFFF"></path>
                    <path d="M30.5079412,17.3953707 C30.4563235,17.3953707 30.4085294,17.4105499 30.3741176,17.4466005 L31.0202941,18.0177182 L33.1595588,18.002539 L33.7694118,17.3801915 C33.7407353,17.4105499 33.7025,17.3953707 33.6547059,17.3953707 C33.4635294,17.3953707 33.2379412,17.5585472 33.2379412,17.5585472 L33.1825,17.6021874 L33.1672059,17.543368 C33.1633824,17.5357784 32.9454412,16.8166635 32.0641176,16.5130793 C31.2191176,16.8166635 30.9973529,17.5357784 30.9973529,17.543368 L30.9820588,17.6021874 L30.9266176,17.5585472 C30.9227941,17.5585472 30.6991176,17.3953707 30.5079412,17.3953707 L30.5079412,17.3953707 Z M33.1958824,18.0917168 L30.9858824,18.0917168 L30.3091176,17.4390109 C30.3664706,17.3213721 30.4333824,17.2986033 30.5079412,17.2986033 C30.6666176,17.2986033 30.8463235,17.3953707 30.9266176,17.4541902 C31.0011765,17.2625527 31.2802941,16.691435 32.0641176,16.4239015 C32.8747059,16.691435 33.1595588,17.2625527 33.2341176,17.4541902 C33.3602941,17.3726019 33.6852941,17.2473735 33.8477941,17.3650123 L33.1958824,18.0917168 Z" id="Fill-253" fill="#BA0019"></path>
                    <path d="M30.9858824,19.3445706 L30.3435294,18.6994543 C30.5595588,18.5286882 30.9533824,18.8189906 30.9533824,18.8189906 C30.9533824,18.8189906 31.1694118,18.0846964 32.0813235,17.7659331 C32.9951471,18.0846964 33.2111765,18.8189906 33.2111765,18.8189906 C33.2111765,18.8189906 33.605,18.5286882 33.8191176,18.6994543 L33.1786765,19.3445706 L30.9858824,19.3445706 Z" id="Fill-255" fill="#FFFFFF"></path>
                    <path d="M30.5079412,18.6924339 C30.4563235,18.6924339 30.4085294,18.7076131 30.3741176,18.7360741 L31.0202941,19.3147814 L33.1595588,19.2920126 L33.7694118,18.6848443 C33.7407353,18.7000235 33.7025,18.6924339 33.6547059,18.6924339 C33.4635294,18.6924339 33.2379412,18.8556104 33.2379412,18.8632 L33.1825,18.891661 L33.1672059,18.8328416 C33.1633824,18.825252 32.9454412,18.1137267 32.0641176,17.8101425 C31.2152941,18.1137267 30.9973529,18.825252 30.9973529,18.8328416 L30.9820588,18.891661 L30.9266176,18.8632 C30.9227941,18.8556104 30.6991176,18.6924339 30.5079412,18.6924339 L30.5079412,18.6924339 Z M33.1958824,19.3811904 L30.9858824,19.3811904 L30.3091176,18.7303819 C30.3664706,18.6184353 30.4333824,18.6032561 30.5079412,18.6032561 C30.6704412,18.6032561 30.8463235,18.6924339 30.9266176,18.7436637 C31.0011765,18.5596159 31.2802941,17.9960878 32.0641176,17.7209647 C32.8747059,17.9960878 33.1595588,18.5596159 33.2341176,18.7436637 C33.3564706,18.6696651 33.6852941,18.5292575 33.8477941,18.6620755 L33.1958824,19.3811904 Z" id="Fill-257" fill="#BA0019"></path>
                    <mask id="mask-3" fill="white">
                        <use xlink:href="#path-2"></use>
                    </mask>
                    <g id="Clip-260"></g>
                    <polygon id="Fill-259" fill="#FFFFFF" mask="url(#mask-3)" points="25.5392647 23.1539822 26.0095588 23.1539822 26.0095588 21.1313529 25.5392647 21.1313529"></polygon>
                    <path d="M25.9619559,21.1307837 L25.5394559,21.1820135 L25.5891618,23.153413 L25.9619559,23.1097728 L25.9619559,21.1307837 Z M26.0575441,23.1989506 L25.5394559,23.1989506 L25.4935735,21.1307837 L26.00975,21.0871435 L26.0575441,23.1989506 Z" id="Fill-261" fill="#BA0019" mask="url(#mask-3)"></path>
                    <polygon id="Fill-262" fill="#FFFFFF" mask="url(#mask-3)" points="27.1413235 23.1539822 27.6135294 23.1539822 27.6135294 21.1313529 27.1413235 21.1313529"></polygon>
                    <path d="M27.5693676,21.1307837 L27.1411324,21.1820135 L27.1908382,23.153413 L27.5693676,23.1021832 L27.5693676,21.1307837 Z M27.6649559,23.1989506 L27.1411324,23.1989506 L27.09525,21.1307837 L27.6133382,21.0871435 L27.6649559,23.1989506 Z" id="Fill-263" fill="#BA0019" mask="url(#mask-3)"></path>
                    <polygon id="Fill-264" fill="#FFFFFF" mask="url(#mask-3)" points="26.39 23.1539822 26.8602941 23.1539822 26.8602941 21.1313529 26.39 21.1313529"></polygon>
                    <path d="M26.8113529,21.1307837 L26.3888529,21.1820135 L26.4385588,23.153413 L26.8113529,23.1021832 L26.8113529,21.1307837 Z M26.9069412,23.1989506 L26.3888529,23.1989506 L26.3429706,21.1307837 L26.8591471,21.0871435 L26.9069412,23.1989506 Z" id="Fill-265" fill="#BA0019" mask="url(#mask-3)"></path>
                    <polygon id="Fill-266" fill="#FFFFFF" mask="url(#mask-3)" points="34.9566176 23.1539822 35.425 23.1539822 35.425 21.1313529 34.9566176 21.1313529"></polygon>
                    <path d="M35.3789265,21.1307837 L34.9564265,21.1820135 L35.0042206,23.153413 L35.3789265,23.1097728 L35.3789265,21.1307837 Z M35.4745147,23.1989506 L34.9564265,23.1989506 L34.9086324,21.1307837 L35.4248088,21.0871435 L35.4745147,23.1989506 Z" id="Fill-267" fill="#BA0019" mask="url(#mask-3)"></path>
                    <polygon id="Fill-268" fill="#FFFFFF" mask="url(#mask-3)" points="38.1607353 23.1539822 38.6329412 23.1539822 38.6329412 21.1313529 38.1607353 21.1313529"></polygon>
                    <path d="M38.5862941,21.1307837 L38.1599706,21.1820135 L38.2077647,23.153413 L38.5862941,23.1021832 L38.5862941,21.1307837 Z M38.6818824,23.1989506 L38.1599706,23.1989506 L38.1121765,21.1307837 L38.6321765,21.0871435 L38.6818824,23.1989506 Z" id="Fill-269" fill="#BA0019" mask="url(#mask-3)"></path>
                    <polygon id="Fill-270" fill="#FFFFFF" mask="url(#mask-3)" points="36.5567647 23.1539822 37.0327941 23.1539822 37.0327941 21.1313529 36.5567647 21.1313529"></polygon>
                    <path d="M36.9807941,21.1307837 L36.5563824,21.1820135 L36.6060882,23.153413 L36.9807941,23.1021832 L36.9807941,21.1307837 Z M37.0763824,23.1989506 L36.5563824,23.1989506 L36.5105,21.1307837 L37.0324118,21.0871435 L37.0763824,23.1989506 Z" id="Fill-271" fill="#BA0019" mask="url(#mask-3)"></path>
                    <polygon id="Fill-272" fill="#FFFFFF" mask="url(#mask-3)" points="35.8073529 23.1539822 36.2757353 23.1539822 36.2757353 21.1313529 35.8073529 21.1313529"></polygon>
                    <path d="M36.2264118,21.1307837 L35.8058235,21.1820135 L35.8536176,23.153413 L36.2264118,23.1021832 L36.2264118,21.1307837 Z M36.322,23.1989506 L35.8058235,23.1989506 L35.7580294,21.1307837 L36.2742059,21.0871435 L36.322,23.1989506 Z" id="Fill-273" fill="#BA0019" mask="url(#mask-3)"></path>
                    <polygon id="Fill-274" fill="#FFFFFF" mask="url(#mask-3)" points="37.3119118 23.1539822 37.7860294 23.1539822 37.7860294 21.1313529 37.3119118 21.1313529"></polygon>
                    <path d="M37.7368971,21.1307837 L37.3105735,21.1820135 L37.3602794,23.153413 L37.7368971,23.1021832 L37.7368971,21.1307837 Z M37.8343971,23.1989506 L37.3105735,23.1989506 L37.2685147,21.1307837 L37.7846912,21.0871435 L37.8343971,23.1989506 Z" id="Fill-275" fill="#BA0019" mask="url(#mask-3)"></path>
                    <polygon id="Fill-276" fill="#FFFFFF" mask="url(#mask-3)" points="28.7452941 23.1539822 29.2175 23.1539822 29.2175 21.1313529 28.7452941 21.1313529"></polygon>
                    <path d="M29.1712353,21.1307837 L28.7449118,21.1820135 L28.7927059,23.153413 L29.1712353,23.1097728 L29.1712353,21.1307837 Z M29.2668235,23.1989506 L28.7449118,23.1989506 L28.7009412,21.1307837 L29.2171176,21.0871435 L29.2668235,23.1989506 Z" id="Fill-277" fill="#BA0019" mask="url(#mask-3)"></path>
                    <polygon id="Fill-278" fill="#FFFFFF" mask="url(#mask-3)" points="27.8964706 23.1539822 28.3686765 23.1539822 28.3686765 21.1313529 27.8964706 21.1313529"></polygon>
                    <path d="M28.3218382,21.1307837 L27.8955147,21.1820135 L27.9433088,23.153413 L28.3218382,23.1021832 L28.3218382,21.1307837 Z M28.4174265,23.1989506 L27.8955147,23.1989506 L27.8477206,21.1307837 L28.3677206,21.0871435 L28.4174265,23.1989506 Z" id="Fill-279" fill="#BA0019" mask="url(#mask-3)"></path>
                    <polygon id="Fill-280" fill="#FFFFFF" mask="url(#mask-3)" points="31.5880882 12.2723885 32.565 12.2723885 32.565 11.9023953 31.5880882 11.9023953"></polygon>
                    <path d="M32.5187353,11.903344 L31.5896176,11.9469843 L31.6355,12.2733372 L32.5187353,12.229697 L32.5187353,11.903344 Z M32.6181471,12.3112852 L31.5896176,12.3112852 L31.5399118,11.903344 L32.5646176,11.8521142 L32.6181471,12.3112852 Z" id="Fill-281" fill="#BA0019" mask="url(#mask-3)"></path>
                    <polygon id="Fill-282" fill="#FFFFFF" mask="url(#mask-3)" points="31.7180882 11.8948057 32.4407353 11.8948057 32.4407353 11.5399918 31.7180882 11.5399918"></polygon>
                    <path d="M32.3917941,11.5401815 L31.7169412,11.5838218 L31.7666471,11.8949955 L32.3917941,11.8513553 L32.3917941,11.5401815 Z M32.4873824,11.9405331 L31.7169412,11.9405331 L31.6691471,11.5401815 L32.4395882,11.4889517 L32.4873824,11.9405331 Z" id="Fill-283" fill="#BA0019" mask="url(#mask-3)"></path>
                </g>
            </g>
        </g>
    </g>
</svg>