<?xml version="1.0" encoding="UTF-8" standalone="no"?>
<svg width="86px" height="59px" viewBox="0 0 86 59" version="1.1" xmlns="http://www.w3.org/2000/svg" xmlns:xlink="http://www.w3.org/1999/xlink">
    <!-- Generator: Sketch 46.2 (44496) - http://www.bohemiancoding.com/sketch -->
    <title>Page 1</title>
    <desc>Created with Sketch.</desc>
    <defs>
        <filter x="-26.6%" y="-43.2%" width="153.1%" height="194.6%" filterUnits="objectBoundingBox" id="filter-1">
            <feOffset dx="0" dy="1" in="SourceAlpha" result="shadowOffsetOuter1"></feOffset>
            <feGaussianBlur stdDeviation="5.5" in="shadowOffsetOuter1" result="shadowBlurOuter1"></feGaussianBlur>
            <feColorMatrix values="0 0 0 0 0   0 0 0 0 0.235294118   0 0 0 0 0.533333333  0 0 0 0.276041667 0" type="matrix" in="shadowBlurOuter1" result="shadowMatrixOuter1"></feColorMatrix>
            <feMerge>
                <feMergeNode in="shadowMatrixOuter1"></feMergeNode>
                <feMergeNode in="SourceGraphic"></feMergeNode>
            </feMerge>
        </filter>
    </defs>
    <g id="design-1440" stroke="none" stroke-width="1" fill="none" fill-rule="evenodd">
        <g id="mm-landing-1440-copy" transform="translate(-593.000000, -3538.000000)">
            <g id="Page-1" filter="url(#filter-1)" transform="translate(604.000000, 3548.000000)">
                <polygon id="Fill-1" fill="#CB1D23" points="0 37 64 37 64 0 0 0"></polygon>
                <polygon id="Fill-2" fill="#F7DE29" points="5.90449647 14 7.07506503 10.1862917 4 7.81370826 7.81085098 7.80589729 9.00185805 4 10.187291 7.80589729 14 7.82151923 10.9193608 10.1862917 12.0843553 14 8.99814195 11.6430385"></polygon>
                <polygon id="Fill-3" fill="#F7DE29" points="17.1747368 15.601334 18.6357895 16.17804 19.6505263 15 19.5410526 16.5310416 21 17.1077476 19.4736842 17.4853771 19.36 19 18.5242105 17.7090816 17 18.0702925 18.0063158 16.9004618"></polygon>
                <polygon id="Fill-4" fill="#F7DE29" points="24 8.9057187 22.4746114 8.63987635 21.7430052 10 21.5295337 8.47913447 20 8.19680577 21.3906736 7.52910871 21.1813472 6 22.2590674 7.10252447 23.6497409 6.43482741 22.9222798 7.79495106"></polygon>
                <polygon id="Fill-5" fill="#F7DE29" points="20.7656968 15 21.2312404 13.47343 20 12.52657 21.5273099 12.52657 21.9989791 11 22.4726901 12.52657 24 12.52657 22.7687596 13.47343 23.2322614 15 21.9989791 14.0617284"></polygon>
                <polygon id="Fill-6" fill="#F7DE29" points="17.30625 2.47300771 18.7166667 3.12287918 19.7791667 2 19.5958333 3.52596401 21 4.1840617 19.4770833 4.47403599 19.2833333 6 18.525 4.65706941 17 4.93881748 18.05625 3.81388175"></polygon>
            </g>
        </g>
    </g>
</svg>