<?xml version="1.0" encoding="UTF-8" standalone="no"?>
<svg width="86px" height="59px" viewBox="0 0 86 59" version="1.1" xmlns="http://www.w3.org/2000/svg" xmlns:xlink="http://www.w3.org/1999/xlink">
    <!-- Generator: Sketch 46.2 (44496) - http://www.bohemiancoding.com/sketch -->
    <title>flag-of-hong-kong-seeklogo.com</title>
    <desc>Created with Sketch.</desc>
    <defs>
        <filter x="-26.6%" y="-43.2%" width="154.7%" height="191.9%" filterUnits="objectBoundingBox" id="filter-1">
            <feOffset dx="0" dy="1" in="SourceAlpha" result="shadowOffsetOuter1"></feOffset>
            <feGaussianBlur stdDeviation="5.5" in="shadowOffsetOuter1" result="shadowBlurOuter1"></feGaussianBlur>
            <feColorMatrix values="0 0 0 0 0   0 0 0 0 0.235294118   0 0 0 0 0.533333333  0 0 0 0.276041667 0" type="matrix" in="shadowBlurOuter1" result="shadowMatrixOuter1"></feColorMatrix>
            <feMerge>
                <feMergeNode in="shadowMatrixOuter1"></feMergeNode>
                <feMergeNode in="SourceGraphic"></feMergeNode>
            </feMerge>
        </filter>
    </defs>
    <g id="design-1440" stroke="none" stroke-width="1" fill="none" fill-rule="evenodd">
        <g id="mm-landing-1440-copy" transform="translate(-248.000000, -3538.000000)">
            <g id="flag-of-hong-kong-seeklogo.com" filter="url(#filter-1)" transform="translate(259.000000, 3548.000000)">
                <polygon id="Fill-1" fill="#CB2E2B" points="0 37 64 37 64 0.101143443 0 0.101143443"></polygon>
                <path d="M31.9976986,18.5453402 C25.448,15.8094631 28.3514082,7.37831557 34.6154301,7.80214754 C33.3481425,8.44585656 33.1644932,9.64684016 33.8881973,10.7595697 C34.6985863,12.0052869 33.8136329,14.0096557 32.7180274,14.4967213 C30.9177425,15.2976803 30.5571945,17.4332172 31.9976986,18.5453402" id="Fill-2" fill="#FFFFFE"></path>
                <polyline id="Fill-3" fill="#CB2E2B" points="31.6435945 12.4573238 31.2752219 13.0288525 31.1417425 12.3639139 30.4774137 12.1940779 31.0762301 11.8627459 31.0344986 11.1862828 31.5375781 11.6468115 32.1756712 11.3982746 31.8889205 12.0137787 32.3244932 12.5367828 31.6435945 12.4573238"></polyline>
                <path d="M32.0348274,18.4742213 C31.2426959,18.072377 30.603989,17.2347213 30.3256767,16.23375 C30.007474,15.0856885 30.1905096,13.8511926 30.8286027,12.8491598 L30.6912877,12.763332 C30.0292603,13.8044877 29.8393205,15.0844754 30.1694904,16.2760574 C30.4636055,17.3352582 31.1161205,18.1885328 31.9607233,18.6169139 L32.0348274,18.4742213" id="Fill-4" fill="#CB2E2B"></path>
                <path d="M32.0044493,18.5468566 C32.6130849,11.5447582 41.6231014,11.6684959 43.1509041,17.687668 C42.139989,16.6953402 40.927474,16.8938361 40.0804164,17.9180082 C39.1322521,19.0647049 36.9299945,18.8521066 36.1228274,17.9729016 C34.7957041,16.528082 32.6293479,16.8491025 32.0044493,18.5468566" id="Fill-5" fill="#FFFFFE"></path>
                <polyline id="Fill-6" fill="#CB2E2B" points="37.7531178 16.3326189 37.0892493 16.1630861 37.6880658 15.8320574 37.6460274 15.1551393 38.1500274 15.615668 38.7879671 15.3672828 38.5002959 15.9824836 38.9366356 16.5056393 38.255737 16.4261803 37.8870575 16.9972541 37.7531178 16.3326189"></polyline>
                <path d="M32.0842301,18.5597459 C32.2261479,17.6910041 32.8347836,16.8316639 33.7119123,16.2608934 C34.7183781,15.606873 35.9628055,15.397459 37.1243836,15.6876967 L37.164274,15.5321148 C35.9578959,15.2314139 34.6675945,15.4484098 33.622926,16.1271475 C32.6947068,16.7308238 32.0751781,17.6079057 31.9239014,18.5341189 L32.0842301,18.5597459" id="Fill-7" fill="#CB2E2B"></path>
                <path d="M32.0049096,18.5536803 C38.9308055,16.9619221 41.5959452,25.4694959 36.2762521,28.7656803 C36.9186411,27.5087418 36.3529644,26.4304344 35.1057753,25.9506475 C33.7093041,25.4136926 33.2332274,23.2778525 33.8298959,22.2474631 C34.810126,20.5535 33.831737,18.616459 32.0049096,18.5536803" id="Fill-8" fill="#FFFFFE"></path>
                <polyline id="Fill-9" fill="#CB2E2B" points="35.9120219 23.2731516 35.870137 22.5966885 36.3735233 23.0572172 37.0120767 22.8085287 36.7247123 23.4246393 37.1607452 23.9476434 36.4798466 23.8672746 36.1113205 24.4391066 35.9773808 23.7744713 35.3138192 23.604332 35.9120219 23.2731516"></polyline>
                <path d="M32.0171836,18.6325328 C32.897074,18.4974221 33.9119781,18.8040369 34.7323397,19.4522951 C35.6726795,20.1962377 36.2586082,21.3012336 36.338389,22.4826557 L36.5004055,22.4721926 C36.4169425,21.2454303 35.8093808,20.0994918 34.8336,19.3273443 C33.9656767,18.6413279 32.9303671,18.3300123 31.9923288,18.4740697 L32.0171836,18.6325328" id="Fill-10" fill="#CB2E2B"></path>
                <path d="M31.9986192,18.5562582 C35.6703781,24.5745205 28.3075288,29.7087254 23.4918356,25.7268279 C24.8999671,25.9423074 25.7628274,25.0773566 25.8390795,23.7567295 C25.9242301,22.2780943 27.8322192,21.1706721 29.0082192,21.4131434 C30.941063,21.8110451 32.5026192,20.292832 31.9986192,18.5562582" id="Fill-11" fill="#FFFFFE"></path>
                <polyline id="Fill-12" fill="#CB2E2B" points="28.6647014 23.687127 29.3024877 23.4387418 29.0149699 24.0543975 29.4516164 24.5775533 28.7699507 24.497791 28.4014247 25.0693197 28.2684055 24.4045328 27.6042301 24.2348484 28.2024329 23.9035164 28.1610082 23.2273566 28.6647014 23.687127"></polyline>
                <path d="M31.9263562,18.5920451 C32.3283288,19.3773852 32.3468932,20.426123 31.9766795,21.3975246 C31.5513863,22.5113156 30.6691945,23.4037131 29.5568658,23.8436189 L29.6171616,23.992832 C30.7718356,23.5351844 31.6867068,22.6100328 32.128263,21.4540861 C32.5201096,20.4264262 32.4998575,19.3569139 32.0713425,18.5197131 L31.9263562,18.5920451" id="Fill-13" fill="#CB2E2B"></path>
                <path d="M31.9941699,18.5511025 C27.3377315,23.8622705 20.1220164,18.52775 22.4654247,12.7706107 C22.6932603,14.1606885 23.7922411,14.7044672 25.0865315,14.3681311 C26.5356274,13.9913074 28.190926,15.4426475 28.3210301,16.6228566 C28.5353644,18.5627787 30.4789479,19.5614754 31.9941699,18.5511025" id="Fill-14" fill="#FFFFFE"></path>
                <polyline id="Fill-15" fill="#CB2E2B" points="26.0265644 17.0027131 26.4627507 17.5255656 25.7815452 17.4455 25.4130192 18.0176352 25.2790795 17.3522418 24.615211 17.1824057 25.213874 16.851832 25.1718356 16.1752172 25.6755288 16.6351393 26.3134685 16.387209 26.0265644 17.0027131"></polyline>
                <path d="M31.9374027,18.4942377 C31.3059068,19.1147459 30.3025096,19.4562377 29.2532384,19.4084713 C28.0500822,19.3528197 26.9188822,18.7993361 26.1517589,17.8898033 L26.0268712,17.9924631 C26.8240658,18.9365697 27.9969973,19.5105246 29.2457205,19.5684508 C30.3557479,19.6190984 31.3784767,19.2695697 32.0517041,18.6081189 L31.9374027,18.4942377" id="Fill-16" fill="#CB2E2B"></path>
            </g>
        </g>
    </g>
</svg>