<?xml version="1.0" encoding="UTF-8" standalone="no"?>
<svg width="86px" height="60px" viewBox="0 0 86 60" version="1.1" xmlns="http://www.w3.org/2000/svg" xmlns:xlink="http://www.w3.org/1999/xlink">
    <!-- Generator: Sketch 46.2 (44496) - http://www.bohemiancoding.com/sketch -->
    <title>Group 11</title>
    <desc>Created with Sketch.</desc>
    <defs>
        <filter x="-26.2%" y="-42.1%" width="152.3%" height="189.5%" filterUnits="objectBoundingBox" id="filter-1">
            <feOffset dx="0" dy="1" in="SourceAlpha" result="shadowOffsetOuter1"></feOffset>
            <feGaussianBlur stdDeviation="5.5" in="shadowOffsetOuter1" result="shadowBlurOuter1"></feGaussianBlur>
            <feColorMatrix values="0 0 0 0 0   0 0 0 0 0.235294118   0 0 0 0 0.533333333  0 0 0 0.276041667 0" type="matrix" in="shadowBlurOuter1" result="shadowMatrixOuter1"></feColorMatrix>
            <feMerge>
                <feMergeNode in="shadowMatrixOuter1"></feMergeNode>
                <feMergeNode in="SourceGraphic"></feMergeNode>
            </feMerge>
        </filter>
    </defs>
    <g id="design-1440" stroke="none" stroke-width="1" fill="none" fill-rule="evenodd">
        <g id="mm-landing-1440-copy" transform="translate(-765.000000, -3538.000000)" fill="#F8F9FA">
            <g id="Group-11" filter="url(#filter-1)" transform="translate(776.000000, 3548.000000)">
                <g id="Page-1">
                    <g fill="none">
                        <polygon id="Fill-1" fill="#D80031" points="0 2.65639 64.1626471 2.65639 64.1626471 0.00019 0 0.00019"></polygon>
                        <polygon id="Fill-2" fill="#FFFFFF" points="0 5.31449 64.1626471 5.31449 64.1626471 2.65639 0 2.65639"></polygon>
                        <polygon id="Fill-3" fill="#D80031" points="0 7.97069 64.1626471 7.97069 64.1626471 5.31259 0 5.31259"></polygon>
                        <polygon id="Fill-4" fill="#FFFFFF" points="0 10.62879 64.1626471 10.62879 64.1626471 7.97069 0 7.97069"></polygon>
                        <polygon id="Fill-5" fill="#D80031" points="0 13.28499 64.1626471 13.28499 64.1626471 10.62689 0 10.62689"></polygon>
                        <polygon id="Fill-6" fill="#FFFFFF" points="0 15.94119 64.1626471 15.94119 64.1626471 13.28499 0 13.28499"></polygon>
                        <polygon id="Fill-7" fill="#D80031" points="0 18.59929 64.1626471 18.59929 64.1626471 15.94119 0 15.94119"></polygon>
                        <polygon id="Fill-8" fill="#FFFFFF" points="0 21.25549 64.1626471 21.25549 64.1626471 18.59739 0 18.59739"></polygon>
                        <polygon id="Fill-9" fill="#D80031" points="0 23.91359 64.1626471 23.91359 64.1626471 21.25549 0 21.25549"></polygon>
                        <polygon id="Fill-10" fill="#FFFFFF" points="0 26.56979 64.1626471 26.56979 64.1626471 23.91169 0 23.91169"></polygon>
                        <polygon id="Fill-11" fill="#D80031" points="0 29.22789 64.1626471 29.22789 64.1626471 26.56979 0 26.56979"></polygon>
                        <polygon id="Fill-12" fill="#FFFFFF" points="0 31.88409 64.1626471 31.88409 64.1626471 29.22789 0 29.22789"></polygon>
                        <polygon id="Fill-13" fill="#D80031" points="0 34.54029 64.1626471 34.54029 64.1626471 31.88219 0 31.88219"></polygon>
                        <polygon id="Fill-14" fill="#FFFFFF" points="0 37.19839 64.1626471 37.19839 64.1626471 34.54029 0 34.54029"></polygon>
                        <polygon id="Fill-15" fill="#2530A9" points="0 21.25549 37.4266176 21.25549 37.4266176 0.00019 0 0.00019"></polygon>
                        <g id="Group-20" transform="translate(5.735294, 1.098390)" fill="#F5D028">
                            <path d="M4.28847059,9.52964 C4.28847059,5.67834 7.43523529,2.55284 11.3065588,2.55284 C12.6524412,2.55284 13.9065588,2.93094 14.9790588,3.58454 C13.5567059,2.32294 11.6850882,1.55914 9.63758824,1.55914 C5.20802941,1.55914 1.61582353,5.12924 1.61582353,9.52964 C1.61582353,13.93764 5.20802941,17.50014 9.63758824,17.50014 C11.6850882,17.50014 13.5567059,16.72874 14.9790588,15.47474 C13.9065588,16.12834 12.6524412,16.50644 11.3065588,16.50644 C7.43523529,16.50644 4.28847059,13.38094 4.28847059,9.52964" id="Fill-16"></path>
                            <polygon id="Fill-18" points="20.3312353 9.52964 24.1719706 8.05334 20.0674118 8.38014 22.8834412 5.38764 19.3256471 7.45104 20.553 3.54844 18.2493235 6.93994 17.6585882 2.88724 17.2303529 5.78854 17.108 6.62834 17.0621176 6.93994 14.7565294 3.54844 15.9896176 7.45104 12.4318235 5.38764 15.2478529 8.38014 11.1413824 8.05334 14.9859412 9.52964 11.1413824 11.00594 15.2478529 10.67914 12.4318235 13.67924 15.9896176 11.60824 14.7565294 15.51084 17.0621176 12.11934 17.108 12.43854 17.2303529 13.27074 17.6585882 16.17964 18.2493235 12.11934 20.553 15.51084 19.3256471 11.60824 22.8834412 13.67924 20.0674118 10.67914 24.1719706 11.00594"></polygon>
                        </g>
                    </g>
                </g>
            </g>
        </g>
    </g>
</svg>