<?xml version="1.0" encoding="UTF-8" standalone="no"?>
<svg width="86px" height="59px" viewBox="0 0 86 59" version="1.1" xmlns="http://www.w3.org/2000/svg" xmlns:xlink="http://www.w3.org/1999/xlink">
    <!-- Generator: Sketch 46.2 (44496) - http://www.bohemiancoding.com/sketch -->
    <title>Page 1</title>
    <desc>Created with Sketch.</desc>
    <defs>
        <filter x="-26.6%" y="-43.2%" width="153.1%" height="194.6%" filterUnits="objectBoundingBox" id="filter-1">
            <feOffset dx="0" dy="1" in="SourceAlpha" result="shadowOffsetOuter1"></feOffset>
            <feGaussianBlur stdDeviation="5.5" in="shadowOffsetOuter1" result="shadowBlurOuter1"></feGaussianBlur>
            <feColorMatrix values="0 0 0 0 0   0 0 0 0 0.235294118   0 0 0 0 0.533333333  0 0 0 0.276041667 0" type="matrix" in="shadowBlurOuter1" result="shadowMatrixOuter1"></feColorMatrix>
            <feMerge>
                <feMergeNode in="shadowMatrixOuter1"></feMergeNode>
                <feMergeNode in="SourceGraphic"></feMergeNode>
            </feMerge>
        </filter>
    </defs>
    <g id="design-1440" stroke="none" stroke-width="1" fill="none" fill-rule="evenodd">
        <g id="mm-landing-1440-copy" transform="translate(-405.000000, -3228.000000)">
            <g id="Page-1" filter="url(#filter-1)" transform="translate(416.000000, 3238.000000)">
                <polygon id="Fill-1" fill="#FECB00" points="0 37 64 37 64 0 0 0"></polygon>
                <polygon id="Fill-2" fill="#EA2839" points="0 37 64 37 64 25 0 25"></polygon>
                <polygon id="Fill-3" fill="#34B233" points="0 25 64 25 64 12 0 12"></polygon>
                <polygon id="Fill-4" fill="#FECB00" points="0 12 64 12 64 0 0 0"></polygon>
                <polygon id="Fill-5" fill="#FFFFFF" points="21 16.4125616 29.7955875 16.4125616 32.4980779 8 35.2178673 16.4125616 44 16.4125616 36.9035601 21.6029205 39.6098947 30 32.4980779 24.8096411 25.4054822 30 28.1079726 21.6029205"></polygon>
            </g>
        </g>
    </g>
</svg>