<?xml version="1.0" encoding="UTF-8" standalone="no"?>
<svg width="84px" height="59px" viewBox="0 0 84 59" version="1.1" xmlns="http://www.w3.org/2000/svg" xmlns:xlink="http://www.w3.org/1999/xlink">
    <!-- Generator: Sketch 46.2 (44496) - http://www.bohemiancoding.com/sketch -->
    <title>Page 1</title>
    <desc>Created with Sketch.</desc>
    <defs>
        <filter x="-27.4%" y="-43.2%" width="154.8%" height="194.6%" filterUnits="objectBoundingBox" id="filter-1">
            <feOffset dx="0" dy="1" in="SourceAlpha" result="shadowOffsetOuter1"></feOffset>
            <feGaussianBlur stdDeviation="5.5" in="shadowOffsetOuter1" result="shadowBlurOuter1"></feGaussianBlur>
            <feColorMatrix values="0 0 0 0 0   0 0 0 0 0.235294118   0 0 0 0 0.533333333  0 0 0 0.276041667 0" type="matrix" in="shadowBlurOuter1" result="shadowMatrixOuter1"></feColorMatrix>
            <feMerge>
                <feMergeNode in="shadowMatrixOuter1"></feMergeNode>
                <feMergeNode in="SourceGraphic"></feMergeNode>
            </feMerge>
        </filter>
    </defs>
    <g id="design-1440" stroke="none" stroke-width="1" fill="none" fill-rule="evenodd">
        <g id="mm-landing-1440-copy" transform="translate(-1105.000000, -3228.000000)">
            <g id="Page-1" filter="url(#filter-1)" transform="translate(1116.000000, 3238.000000)">
                <polygon id="Fill-1" fill="#2534A4" points="0 18.5 62 18.5 62 0 0 0"></polygon>
                <polygon id="Fill-2" fill="#BC0030" points="0 37 62 37 62 18.5 0 18.5"></polygon>
                <polygon id="Fill-3" fill="#FFFFFF" points="0 0 0 36.0263158 31.96875 18.0113178"></polygon>
                <polygon id="Fill-4" fill="#F3D02F" points="2.45703641 30.7022018 0.96875 30.8590369 2.26609932 31.6135877 1.95071216 33.1052632 3.06053399 32.0771223 4.34935933 32.845614 3.72881379 31.4584952 4.84375 30.4373249 3.35887319 30.6063582 2.7587852 29.2105263"></polygon>
                <path d="M7.2792296,16.5526316 L5.01008545,15.2653706 L4.91767687,14.5177294 L7.48458201,16.270464 L7.2792296,16.5526316 Z M7.69609499,16.0624426 L4.94847973,13.9369173 L4.84375,12.6990871 L5.95881359,12.6578947 L8.23822536,15.4589746 L7.69609499,16.0624426 Z M8.71875,15.0326338 L7.40654809,12.7711737 L6.64879769,12.6826101 L8.44563129,15.2406552 L8.71875,15.0326338 Z" id="Fill-5" fill="#F3D02F"></path>
                <path d="M9.28962054,14.6052632 L8.71875,12.3959574 L9.11316964,11.8666634 L9.57678571,14.5691339 L9.28962054,14.6052632 Z M9.82935268,14.5691339 L9.47126116,11.5360805 L10.1580357,10.7105263 L10.8378906,11.3879504 L10.5092076,14.5348111 L9.82935268,14.5691339 Z M11.0472098,14.5691339 L11.625,12.3616346 L11.2288504,11.8395664 L10.7600446,14.5348111 L11.0472098,14.5691339 Z" id="Fill-6" fill="#F3D02F"></path>
                <path d="M12.59375,15.0438407 L13.9180139,12.7649161 L14.6677511,12.6830762 L12.8606401,15.2578834 L12.59375,15.0438407 Z M13.0623357,15.4782214 L15.2402405,12.7250454 L16.4606007,12.6578947 L16.46875,13.7973571 L13.6531611,16.0511003 L13.0623357,15.4782214 Z M14.0585896,16.5526316 L16.3220623,15.2641788 L16.4259661,14.5024387 L13.8548567,16.2651429 L14.0585896,16.5526316 Z" id="Fill-7" fill="#F3D02F"></path>
                <path d="M14.53125,17.1285161 L16.730914,16.5526316 L17.2498552,16.9463839 L14.5689585,17.4199275 L14.53125,17.1285161 Z M14.5689585,17.6697087 L17.5892319,17.3106482 L18.40625,17.995812 L17.7328835,18.6809757 L14.6048714,18.3479341 L14.5689585,17.6697087 Z M14.5671629,18.8908614 L16.7650313,19.4736842 L17.2803811,19.0729935 L14.6048714,18.5994499 L14.5671629,18.8908614 Z" id="Fill-8" fill="#F3D02F"></path>
                <path d="M14.0242982,20.4473684 L16.290188,21.7208462 L16.3928099,22.4783282 L13.8149497,20.7301342 L14.0242982,20.4473684 Z M13.6117585,20.9385965 L16.3702331,23.0603715 L16.46875,24.2925697 L15.3583819,24.3421053 L13.0699153,21.5433437 L13.6117585,20.9385965 Z M12.59375,21.9788442 L13.9155191,24.2285862 L14.6646584,24.3173375 L12.8626192,21.7621259 L12.59375,21.9788442 Z" id="Fill-9" fill="#F3D02F"></path>
                <path d="M11.0423628,21.4210526 L11.625,23.6262671 L11.2348411,24.1473684 L10.7545122,21.457115 L11.0423628,21.4210526 Z M10.5013425,21.457115 L10.875895,24.4845517 L10.2030877,25.3157895 L9.511206,24.6396199 L9.81639693,21.4985867 L10.5013425,21.457115 Z M9.27711068,21.4625244 L8.71875,23.6749513 L9.1193131,24.1960526 L9.56496122,21.4985867 L9.27711068,21.4625244 Z" id="Fill-10" fill="#F3D02F"></path>
                <path d="M8.71875,21.9159439 L7.42435686,24.2050105 L6.67389512,24.2860211 L8.45087401,21.7040702 L8.71875,21.9159439 Z M8.24434367,21.4942737 L6.0992909,24.252786 L4.87646768,24.3421053 L4.84375,23.2141895 L7.64520119,20.9417404 L8.24434367,21.4942737 Z M7.22600594,20.4473684 L4.97666557,21.7539228 L4.88055739,22.5162526 L7.43253628,20.7236351 L7.22600594,20.4473684 Z" id="Fill-11" fill="#F3D02F"></path>
                <path d="M6.78125,18.8880794 L4.58517725,19.4736842 L4.06264481,19.0780524 L6.74354147,18.595277 L6.78125,18.8880794 Z M6.74354147,18.3443035 L3.73045065,18.7242495 L2.90625,18.0445296 L3.57243397,17.3491239 L6.70044601,17.6558692 L6.74354147,18.3443035 Z M6.7363589,17.1173219 L4.53669486,16.5526316 L4.01416242,16.9482634 L6.70044601,17.4031529 L6.7363589,17.1173219 Z" id="Fill-12" fill="#F3D02F"></path>
                <g id="Group-19" transform="translate(0.000000, 1.947368)" fill="#F3D02F">
                    <path d="M10.5935912,12.3668605 C12.7268433,12.3668605 14.4592912,14.0875228 14.4592912,16.216889 C14.4592912,18.344389 12.7268433,20.0799811 10.5935912,20.0799811 C8.45659333,20.0799811 6.72789125,18.344389 6.72789125,16.216889 C6.72789125,14.0875228 8.45659333,12.3668605 10.5935912,12.3668605" id="Fill-13"></path>
                    <polygon id="Fill-15" points="23.9016006 17.5428441 24.8755173 16.2234208 23.8978548 14.9039976 25.4561215 15.4134779 26.4150548 14.0865897 26.4075631 15.7195393 27.9733215 16.2159559 26.4075631 16.7123726 26.4188006 18.3527871 25.4636131 17.0258989"></polygon>
                    <polygon id="Fill-17" points="4.31276521 1.06013114 2.89684021 1.88313772 1.67944437 0.783929386 2.02593396 2.3870193 0.600644375 3.19696228 2.23570062 3.35559167 2.56720687 4.96054781 3.22647354 3.46569912 4.85778396 3.64112456 3.63289646 2.55497982"></polygon>
                </g>
            </g>
        </g>
    </g>
</svg>