<?xml version="1.0" encoding="UTF-8" standalone="no"?>
<svg width="86px" height="60px" viewBox="0 0 86 60" version="1.1" xmlns="http://www.w3.org/2000/svg" xmlns:xlink="http://www.w3.org/1999/xlink">
    <!-- Generator: Sketch 46.2 (44496) - http://www.bohemiancoding.com/sketch -->
    <title>Group 10</title>
    <desc>Created with Sketch.</desc>
    <defs>
        <filter x="-26.2%" y="-42.1%" width="152.3%" height="189.5%" filterUnits="objectBoundingBox" id="filter-1">
            <feOffset dx="0" dy="1" in="SourceAlpha" result="shadowOffsetOuter1"></feOffset>
            <feGaussianBlur stdDeviation="5.5" in="shadowOffsetOuter1" result="shadowBlurOuter1"></feGaussianBlur>
            <feColorMatrix values="0 0 0 0 0   0 0 0 0 0.235294118   0 0 0 0 0.533333333  0 0 0 0.276041667 0" type="matrix" in="shadowBlurOuter1" result="shadowMatrixOuter1"></feColorMatrix>
            <feMerge>
                <feMergeNode in="shadowMatrixOuter1"></feMergeNode>
                <feMergeNode in="SourceGraphic"></feMergeNode>
            </feMerge>
        </filter>
    </defs>
    <g id="design-1440" stroke="none" stroke-width="1" fill="none" fill-rule="evenodd">
        <g id="mm-landing-1440-copy" transform="translate(-937.000000, -3538.000000)" fill="#F8F9FA">
            <g id="Group-10" filter="url(#filter-1)" transform="translate(948.000000, 3548.000000)">
                <g id="Page-1">
                    <g fill="none">
                        <polygon id="Fill-1" fill="#DA1841" points="0 18.6067 64.1645588 18.6067 64.1645588 0 0 0"></polygon>
                        <polygon id="Fill-2" fill="#FFFFFF" points="0 37.2058 64.1645588 37.2058 64.1645588 18.6067 0 18.6067"></polygon>
                        <g id="Group-17" transform="translate(3.823529, 1.105800)">
                            <path d="M15.4304265,8.19375 C15.4304265,12.06025 12.28175,15.19335 8.39322059,15.19335 C4.50851471,15.19335 1.35601471,12.06025 1.35601471,8.19375 C1.35601471,4.33485 4.50851471,1.20175 8.39322059,1.20175 C12.28175,1.20175 15.4304265,4.33485 15.4304265,8.19375" id="Fill-3" fill="#FFFFFF"></path>
                            <path d="M17.6427206,8.19375 C17.6427206,11.85315 14.6680147,14.80575 10.9916912,14.80575 C7.32301471,14.80575 4.34066176,11.85315 4.34066176,8.19375 C4.34066176,4.54955 7.32301471,1.58745 10.9916912,1.58745 C14.6680147,1.58745 17.6427206,4.54955 17.6427206,8.19375" id="Fill-5" fill="#DA1841"></path>
                            <polygon id="Fill-7" fill="#FFFFFF" points="9.26383824 8.36437 8.30986765 7.63667 7.35016176 8.36437 7.71913235 7.19207 6.76133824 6.46437 7.94663235 6.47197 8.30986765 5.29207 8.67501471 6.47197 9.85648529 6.46437 8.89677941 7.19207"></polygon>
                            <polygon id="Fill-9" fill="#FFFFFF" points="16.7671324 8.36437 15.8093382 7.63667 14.8553676 8.36437 15.2224265 7.19207 14.2608088 6.46437 15.4480147 6.47197 15.8093382 5.29207 16.1725735 6.47197 17.3578676 6.46437 16.4000735 7.19207"></polygon>
                            <polygon id="Fill-11" fill="#FFFFFF" points="13.0164412 5.60348 12.0624706 4.86818 11.1085 5.60348 11.4717353 4.42358 10.5139412 3.70348 11.6992353 3.70348 12.0624706 2.52358 12.4276176 3.70348 13.6129118 3.69588 12.6532059 4.42358"></polygon>
                            <polygon id="Fill-13" fill="#FFFFFF" points="10.66975 12.79536 9.71004412 12.06766 8.75607353 12.79536 9.12313235 11.61546 8.16342647 10.89536 9.34872059 10.89536 9.71004412 9.71546 10.0732794 10.89536 11.2585735 10.89536 10.3007794 11.61546"></polygon>
                            <polygon id="Fill-15" fill="#FFFFFF" points="15.3631324 12.79536 14.4034265 12.06766 13.4494559 12.79536 13.8184265 11.61546 12.8606324 10.89536 14.0459265 10.89536 14.4034265 9.71546 14.7685735 10.89536 15.9519559 10.89536 14.9941618 11.61546"></polygon>
                        </g>
                    </g>
                </g>
            </g>
        </g>
    </g>
</svg>