<?xml version="1.0" encoding="UTF-8" standalone="no"?>
<svg width="470px" height="314px" viewBox="0 0 470 314" version="1.1" xmlns="http://www.w3.org/2000/svg" xmlns:xlink="http://www.w3.org/1999/xlink">
    <!-- Generator: Sketch 46.2 (44496) - http://www.bohemiancoding.com/sketch -->
    <title>Page 1</title>
    <desc>Created with Sketch.</desc>
    <defs></defs>
    <g id="Symbols" stroke="none" stroke-width="1" fill="none" fill-rule="evenodd">
        <g id="Page-1">
            <g>
                <polygon id="Fill-1" fill="#FEFEFE" points="0 313.075 469.613 313.075 469.613 0 0 0"></polygon>
                <polygon id="Fill-2" fill="#231F20" points="154.1402 56.8011 112.2072 121.4771 101.7842 114.8431 143.7172 50.1681"></polygon>
                <polygon id="Fill-3" fill="#231F20" points="113.8658 282.5701 71.9328 217.8981 82.3578 211.2651 124.2908 275.9391"></polygon>
                <polygon id="Fill-4" fill="#231F20" points="330.398 46.8514 372.57 111.5264 382.756 104.8934 340.823 40.2184"></polygon>
                <polygon id="Fill-5" fill="#231F20" points="128.792 40.4554 86.859 105.1294 97.283 111.7634 139.215 47.0884"></polygon>
                <polygon id="Fill-6" fill="#231F20" points="357.4058 121.2396 367.8308 114.6066 348.6418 84.7576 338.2168 91.6256"></polygon>
                <polygon id="Fill-7" fill="#231F20" points="396.732 218.1307 386.31 211.2657 366.882 241.1147 377.307 247.7477"></polygon>
                <polygon id="Fill-8" fill="#231F20" points="128.792 272.8612 139.215 266.2242 119.79 236.3752 109.366 243.2462"></polygon>
                <polygon id="Fill-9" fill="#231F20" points="387.4937 101.8138 397.6807 95.1788 378.4917 65.3298 368.0657 72.1998"></polygon>
                <polygon id="Fill-10" fill="#231F20" points="366.647 198.4725 356.46 191.8355 337.033 221.6855 347.458 228.3225"></polygon>
                <polygon id="Fill-11" fill="#231F20" points="381.8081 208.4217 371.3851 201.5507 351.9581 231.4007 362.3821 238.0327"></polygon>
                <polygon id="Fill-12" fill="#231F20" points="334.9009 86.4149 345.3259 79.7819 325.8979 49.9309 315.4729 56.8009"></polygon>
                <polygon id="Fill-13" fill="#231F20" points="373.9908 252.9608 363.5668 246.0898 344.3778 275.9398 354.5638 282.5698"></polygon>
                <polygon id="Fill-14" fill="#231F20" points="106.0479 238.033 116.4719 231.4 97.2829 201.551 86.8599 208.183"></polygon>
                <polygon id="Fill-15" fill="#231F20" points="364.7505 66.9876 375.1755 60.3546 355.7475 30.5046 345.3255 37.3746"></polygon>
                <polygon id="Fill-16" fill="#231F20" points="344.1382 233.535 333.7162 226.664 314.2892 256.514 324.7142 263.146"></polygon>
                <polygon id="Fill-17" fill="#231F20" points="359.064 243.2459 348.642 236.3749 329.453 266.2249 339.639 272.8609"></polygon>
                <polygon id="Fill-18" fill="#231F20" points="124.2906 37.3748 82.1216 102.0508 71.9336 95.4168 113.8656 30.7418"></polygon>
                <polygon id="Fill-19" fill="#231F20" points="143.7168 263.1463 101.7838 198.4723 112.2078 191.8353 154.1398 256.5133"></polygon>
                <g id="Group-24" transform="translate(158.000000, 78.075000)">
                    <path d="M56.4034,3.0567 C48.6264,5.2077 40.8594,8.8567 34.1484,13.3967 C27.2114,18.0137 21.4054,23.7467 16.2794,29.9997 C11.4534,36.3997 7.5284,43.2447 4.8064,50.6797 C2.0844,58.1147 0.7144,65.8407 0.2444,74.0107 C-0.0766,81.8787 0.9514,90.0377 3.1774,98.0387 C5.4054,106.0377 8.9774,113.5847 13.5934,120.5177 C18.1344,127.2297 23.7194,133.3337 30.1184,138.1607 C36.2984,143.0677 43.3654,146.9157 50.7994,149.6347 C58.2364,152.3567 66.0364,153.9507 73.9064,154.2737 C82.0004,154.5197 90.2364,153.7157 98.1584,151.2607 C105.9344,149.1157 113.7054,145.4637 120.4124,140.9227 C127.3504,136.3087 133.2314,130.8007 138.2814,124.3217 C143.1874,118.1447 147.0344,111.0757 149.7544,103.6387 C152.4804,96.2077 153.8504,88.4807 154.3954,80.5347 C154.6394,72.4407 153.6114,64.2857 151.4604,56.5057 C149.2344,48.5057 145.6614,40.9627 141.0444,34.0257 C136.4274,27.0907 130.9204,21.2087 124.5174,16.3827 C118.0434,11.3317 111.1964,7.4077 103.8364,4.9107 C96.4044,2.1887 88.5994,0.5937 80.5054,0.3487 C72.5634,-0.1963 64.4054,0.8307 56.4034,3.0567" id="Fill-20" fill="#EC1E25"></path>
                    <path d="M2.2422,59.3125 C1.0742,63.9655 0.5092,68.9135 0.2442,74.0105 C-0.0768,81.8785 0.9512,90.0385 3.1782,98.0395 C5.4052,106.0385 8.9772,113.5845 13.5932,120.5175 C18.1342,127.2295 23.7192,133.3335 30.1182,138.1605 C36.2982,143.0675 43.3652,146.9165 50.7992,149.6345 C58.2362,152.3565 66.0362,153.9505 73.9062,154.2735 C82.0002,154.5195 90.2362,153.7155 98.1592,151.2605 C105.9342,149.1155 113.7052,145.4635 120.4122,140.9225 C127.3502,136.3085 133.2312,130.8005 138.2822,124.3215 C143.1872,118.1445 147.0342,111.0755 149.7542,103.6385 C149.8262,103.1165 150.1242,102.5145 150.3392,101.6865 C150.3392,101.6865 150.2652,101.4665 150.4912,101.3895 C151.1492,98.9105 151.5812,96.5135 151.7902,94.1865 C152.1412,90.8155 151.9702,87.3725 151.3482,84.0805 C151.0262,80.9315 149.9552,77.7925 148.6612,74.7295 C147.9012,73.2375 147.1442,71.7455 146.3852,70.2505 C145.4022,68.8355 144.4932,67.6395 143.5092,66.2225 C142.3792,65.1075 141.3962,63.6925 140.0392,62.6495 C138.9072,61.5345 137.7762,60.4185 136.4192,59.3795 C135.1442,58.5645 133.5612,57.6025 132.2842,56.7855 C130.7802,56.0465 129.2762,55.3085 127.7742,54.5695 C124.6182,53.3915 121.6172,52.6625 118.2422,52.3105 C115.0172,51.6585 111.5732,51.8335 108.2002,52.2285 C105.1372,52.7735 101.9202,53.6205 98.8572,54.9145 C97.2872,55.4495 95.7952,56.2085 94.3012,56.9665 C92.8082,57.7265 91.3922,58.7105 90.1992,59.6175 C88.8582,60.8255 87.6652,61.7325 86.3252,62.9405 C85.2082,64.0715 84.0932,65.2025 82.7572,67.1605 C81.4232,69.1175 80.0902,71.8235 78.8372,74.7525 C77.3592,77.7595 75.8822,80.7645 74.6252,82.9485 C73.3652,85.1275 72.5502,86.4095 71.5102,87.7645 C70.4692,89.1165 69.3542,90.2505 68.2372,91.3815 C67.1212,92.5115 65.7812,93.7195 64.3662,94.7065 C63.1712,95.6105 61.7542,96.5915 60.2622,97.3525 C58.8452,98.3395 57.3502,99.0935 55.7812,99.6295 C52.9422,100.8485 49.7272,101.6925 46.3582,102.0915 C43.0672,102.7145 39.7692,102.5855 36.3952,102.2355 C33.0212,101.8805 29.9442,100.9315 26.7892,99.7505 C25.3622,99.2365 23.8592,98.4975 22.5792,97.6825 C21.0752,96.9445 19.7212,95.9045 18.3652,94.8645 C17.0872,94.0485 15.7302,93.0095 14.5992,91.8945 C13.3922,90.5535 12.2612,89.4375 11.2772,88.0205 C10.1462,86.9035 9.1622,85.4875 8.4032,83.9955 C7.4182,82.5775 6.6592,81.0845 5.9782,79.8155 C4.9072,76.6755 3.8382,73.5375 3.2142,70.2435 C2.8232,67.6255 2.4212,63.5065 2.5482,60.2105 C2.5482,60.2105 2.3952,59.7615 2.2422,59.3125" id="Fill-22" fill="#2753A4"></path>
                </g>
            </g>
        </g>
    </g>
</svg>