<?xml version="1.0" encoding="UTF-8" standalone="no"?>
<svg width="86px" height="59px" viewBox="0 0 86 59" version="1.1" xmlns="http://www.w3.org/2000/svg" xmlns:xlink="http://www.w3.org/1999/xlink">
    <!-- Generator: Sketch 46.2 (44496) - http://www.bohemiancoding.com/sketch -->
    <title>Page 1</title>
    <desc>Created with Sketch.</desc>
    <defs>
        <filter x="-26.6%" y="-43.2%" width="153.1%" height="191.9%" filterUnits="objectBoundingBox" id="filter-1">
            <feOffset dx="0" dy="1" in="SourceAlpha" result="shadowOffsetOuter1"></feOffset>
            <feGaussianBlur stdDeviation="5.5" in="shadowOffsetOuter1" result="shadowBlurOuter1"></feGaussianBlur>
            <feColorMatrix values="0 0 0 0 0   0 0 0 0 0.235294118   0 0 0 0 0.533333333  0 0 0 0.276041667 0" type="matrix" in="shadowBlurOuter1" result="shadowMatrixOuter1"></feColorMatrix>
            <feMerge>
                <feMergeNode in="shadowMatrixOuter1"></feMergeNode>
                <feMergeNode in="SourceGraphic"></feMergeNode>
            </feMerge>
        </filter>
    </defs>
    <g id="design-1440" stroke="none" stroke-width="1" fill="none" fill-rule="evenodd">
        <g id="mm-landing-1440-copy" transform="translate(-949.000000, -3228.000000)">
            <g id="Page-1" filter="url(#filter-1)" transform="translate(960.000000, 3238.000000)">
                <polygon id="Fill-1" fill="#F5CD28" points="0 37 64 37 64 0 0 0"></polygon>
                <polygon id="Fill-2" fill="#ED6F22" points="13.3731343 33.2051282 23.880597 33.2051282 23.880597 3.79487179 13.3731343 3.79487179"></polygon>
                <polygon id="Fill-3" fill="#2F742E" points="2.86567164 33.2051282 13.3731343 33.2051282 13.3731343 3.79487179 2.86567164 3.79487179"></polygon>
                <polygon id="Fill-4" fill="#8E1841" points="27.7014925 33.2051282 62.0895522 33.2051282 62.0895522 3.79487179 27.7014925 3.79487179"></polygon>
                <g id="Group-87" transform="translate(27.701493, 4.743590)">
                    <path d="M12.5447642,12.6299026 L13.1064358,12.6450821 C13.1064358,12.6450821 12.4759881,13.1782615 12.6192716,13.8898 C13.2802866,12.9183128 13.5229134,13.1042615 13.5229134,13.1042615 C13.320406,13.3186718 12.936406,13.6222615 13.2344358,14.2749795 C13.4942567,13.6089795 14.0234507,13.0890821 14.0234507,13.0890821 C14.0234507,13.0890821 13.8820776,13.8309795 14.1973015,14.5197487 C14.4246448,13.8309795 14.8162866,13.2522615 14.8162866,13.2522615 C14.8162866,13.2522615 14.7608836,13.9865692 15.0875701,14.2598 C15.3512119,14.0302103 15.5212418,13.4458 15.5212418,13.4458 C15.5212418,13.4458 16.008406,14.3053385 16.3102567,14.4305692 C16.5528836,13.8537487 16.5528836,13.3926718 16.5528836,13.3926718 C16.5528836,13.3926718 17.5596896,14.1042103 18.367809,13.6905692 C17.6475701,13.4306205 17.4049433,12.8291333 17.4049433,12.8291333 C17.4049433,12.8291333 18.7097791,13.4002615 19.2714507,13.1479026 C18.7269731,12.7342615 17.4450627,12.1175949 17.4450627,12.1175949 C17.4450627,12.1175949 18.3926448,12.4667231 18.6677493,12.3775436 C18.5378388,12.1934923 18.1213612,11.9620051 18.1213612,11.9620051 L12.5447642,12.6299026 Z" id="Fill-5" fill="#F5CD28"></path>
                    <path d="M14.229397,14.5273385 C13.8950687,13.9277487 13.9657552,13.2750308 13.9886806,13.119441 C13.9199045,13.2522615 13.4862328,13.7190308 13.2684418,14.290159 C12.9226507,13.6678 13.2340537,13.3490308 13.4384716,13.1422103 L13.4843224,13.0966718 C13.4289194,13.119441 13.1786507,13.119441 12.6456358,13.9125692 C12.4393075,13.1706718 13.077397,12.6223128 13.0850388,12.6147231 L12.5443821,12.6735436 C12.5233672,12.6735436 12.5157254,12.6526718 12.5157254,12.6299026 C12.5157254,12.6147231 12.5271881,12.5919538 12.5443821,12.5995436 L13.1060537,12.6147231 C13.1232478,12.6811333 12.5157254,13.2010308 12.6532776,13.8822103 C13.0162627,13.2446718 13.2799045,13.0814923 13.4212776,13.0663128 C13.5015164,13.0530308 13.5397254,13.0663128 13.5435463,13.0739026 L13.4862328,13.1858513 C13.2837254,13.4002615 12.9990687,13.6905692 13.2665313,14.2598 C13.4633075,13.5938 13.9925015,13.0663128 14.0001433,13.0663128 C14.0555463,13.1042615 13.9199045,13.8385692 14.229397,14.4969795 C14.395606,13.8233897 14.7872478,13.2370821 14.7891582,13.2294923 C14.8483821,13.2522615 14.7968,13.9789795 15.1120239,14.2389282 C15.3145313,14.0150308 15.4845612,13.4458 15.4845612,13.4382103 C15.5552478,13.4458 16.0366806,14.2749795 16.3251582,14.4021077 C16.5142925,13.8537487 16.5200239,13.4002615 16.5200239,13.3926718 C16.5486806,13.3793897 17.1714866,13.7778513 17.8019343,13.7778513 C17.9853373,13.7778513 18.1763821,13.7493897 18.3483224,13.6602103 C17.6280836,13.4609795 17.3797254,12.8746718 17.3701731,12.8443128 C17.4141134,12.823441 18.2871881,13.1782615 18.8966209,13.1782615 C19.0322627,13.1782615 19.1602627,13.1554923 19.2538746,13.119441 C18.7132179,12.7703128 17.4427701,12.1555436 17.4332179,12.1555436 C17.4580537,12.1043128 18.2050388,12.3547744 18.5508299,12.3547744 C18.5947701,12.3547744 18.6310687,12.3547744 18.6578149,12.3490821 C18.5145313,12.2143641 18.1095164,11.9999538 18.1037851,11.9923641 C18.1591881,11.9487231 18.564203,12.1707231 18.6960239,12.3547744 C18.4973373,12.4515436 18.0235463,12.3414923 17.7159642,12.2447231 C18.1305313,12.4230821 18.8985313,12.823441 19.2901731,13.119441 C18.7533373,13.415441 17.6051582,12.9562615 17.4141134,12.8746718 C17.501994,12.9562615 17.7656358,13.4382103 18.3769791,13.6526205 C17.6089791,14.1193897 16.6766806,13.5198 16.5486806,13.4306205 C16.5868896,13.4970308 16.5639642,13.920159 16.3442627,14.4457487 C16.0118448,14.3338 15.5724418,13.6013897 15.4998448,13.4818513 C15.5170388,13.5786205 15.3508299,14.0757487 15.1120239,14.290159 C14.7834269,14.0453897 14.7757851,13.4666718 14.779606,13.2978 C14.724203,13.4533897 14.4204418,13.9562103 14.229397,14.5273385" id="Fill-7" fill="#8E1841"></path>
                    <path d="M20.3917373,5.67010769 C22.1264239,5.51451795 24.8048716,6.92241538 26.2205134,7.86354359 C26.2205134,7.54477436 26.2205134,7.23359487 26.5395582,7.07800513 C26.8509612,6.92241538 27.3247522,7.23359487 27.170006,7.70795385 C26.6962149,8.79708205 24.8048716,7.54477436 24.1725134,7.23359487 L24.4896478,7.86354359 C23.5439761,7.70795385 23.3873194,7.54477436 22.7568716,6.76682564 C22.5983045,7.38918462 22.5983045,7.54477436 21.8092896,7.54477436 C22.1092299,7.07800513 22.2066627,6.92241538 21.8092896,6.45564615 L21.6526328,7.38918462 L20.8712597,6.30005641 L20.8712597,7.38918462 C20.7069612,7.23359487 20.0784239,6.76682564 19.7632,6.76682564 C19.2913194,6.6112359 18.9760955,7.54477436 18.8175284,8.01154359 C19.2913194,7.54477436 19.4479761,7.23359487 20.236991,7.54477436 C19.8109612,7.94513333 19.9370507,8.42708205 20.3917373,8.79708205 C20.3917373,8.79708205 20.475797,8.14626154 20.5235582,7.99826154 C20.7757373,8.18231282 21.3087522,8.87867179 21.9678567,8.95267179 C22.4416478,8.95267179 22.9135284,8.79708205 23.3873194,8.64149231 C24.9615284,8.47831282 28.4309015,8.79708205 27.6399761,11.1404154 C27.4852299,11.6147744 27.3247522,11.9183641 27.0076179,12.2295436 C29.2160955,13.0150821 27.3247522,15.8308769 26.8509612,17.2330821 C26.5395582,18.4853897 26.7573493,19.4777487 28.3105433,19.322159 C27.9953194,19.9445179 27.4852299,20.0488769 26.8509612,20.0488769 C26.8509612,20.0488769 26.9350209,20.4264667 27.3400358,20.6048256 C26.6637373,21.1987231 27.5712,22.1019026 27.170006,22.5478 C26.4898866,22.8722615 25.5938866,22.3922103 25.5938866,22.3922103 L25.5480358,22.8286205 C25.5480358,22.8286205 24.3616478,22.7546205 24.332991,22.7033897 C24.332991,22.7033897 24.6692299,22.073441 24.6501254,22.0582615 C24.332991,22.5326205 24.0273194,22.8058513 23.3873194,22.7033897 C23.3873194,22.7033897 23.436991,22.4130821 23.7885134,22.0354923 C23.3109015,22.5098513 23.257409,22.7166718 22.7568716,22.7033897 C22.7568716,21.9235436 23.2249313,20.9900051 24.1725134,21.2935949 C24.332991,21.2935949 24.8316179,21.6863641 25.0627821,21.4359026 C25.2519164,21.1683641 25.1353791,20.2500051 25.1353791,19.9445179 C25.2366328,18.5593897 24.9615284,18.6409795 24.1725134,17.855441 C23.5439761,17.3886718 23.0835582,16.6695436 22.2964537,16.5139538 C21.5112597,16.3583641 20.236991,17.2330821 19.6065433,17.5442615 C18.0323343,18.4853897 16.6147821,19.1077487 14.8800955,19.4189282 C14.8800955,19.4189282 14.9144836,19.3449282 14.9144836,19.1817487 C14.9144836,19.0849795 16.6147821,17.7662615 16.9128119,15.4532872 C16.4485731,17.7359026 14.7922149,18.9369795 14.7310806,19.3676974 C14.6642149,19.7813385 14.3279761,20.5080564 14.2878567,20.5535949 C14.4960955,20.4340564 15.1494687,20.1152872 15.9805134,20.0488769 C15.8009313,21.0203641 14.8800955,20.8268256 14.7234388,21.2935949 C14.7234388,21.7679538 15.3500657,22.3922103 14.7234388,22.7033897 L12.2016478,22.7033897 C12.2016478,22.7033897 12.5913791,22.1683128 12.6085731,22.0279026 C12.266603,22.2290308 12.0526328,22.7698 11.3132896,22.7090821 C11.3419463,22.5022615 11.6934687,22.1910821 11.6342448,22.0658513 C11.2063045,22.4586205 11.0095284,22.7906718 10.4688716,22.7033897 C10.6255284,22.2347231 10.6255284,21.6123641 11.2559761,21.6123641 C11.7278567,21.4567744 12.2016478,21.7679538 12.5187821,21.2935949 C13.1492299,20.5156462 12.4003343,18.804159 12.2455881,17.8630308 C12.2455881,17.0850821 12.2455881,16.9351846 12.044991,15.9864667 L12.2016478,18.7965692 C11.5712,18.3222103 10.9407522,18.0186205 10.4688716,17.3886718 C9.36654328,15.9864667 9.68367761,14.4229795 11.0993194,13.4818513 C11.7278567,13.0150821 12.0698269,12.7703128 12.8588418,12.4591333 C12.7021851,11.9923641 13.0823642,11.6375436 12.5245134,11.4952359 C12.3544836,11.7855436 12.1959164,12.1043128 11.8730507,12.0815436 L12.044991,11.2960051 C12.044991,11.2960051 11.4756776,11.3320564 11.588394,12.3414923 C10.9350209,12.0303128 11.2559761,11.2960051 11.2559761,11.2960051 L10.9407522,11.2960051 C10.9407522,11.2960051 10.9388418,12.2219538 10.4249313,12.4079026 C10.5624836,11.9771846 10.6255284,11.2960051 10.6255284,11.2960051 C10.6255284,11.2960051 9.7792,12.2959538 9.29203582,11.9695949 C9.58051343,11.6432359 9.80212537,11.5920051 9.76391642,11.1992359 C9.72570746,10.8140564 9.52128955,10.3093385 9.48690149,10.2277487 C9.66457313,10.3169282 10.8528716,10.6660564 11.5979463,10.2960564 C11.5482746,10.5465179 11.5712,10.8292359 11.5712,10.8292359 C12.3544836,10.6736462 12.5187821,10.6736462 13.307797,10.9772359 C13.1492299,9.89569744 12.5187821,9.72492821 11.8864239,8.95267179 L11.8864239,9.57692821 C11.2559761,9.42133846 11.0993194,9.26574872 10.7821851,8.64149231 L10.3103045,8.95267179 C9.4792597,8.46503077 8.86600597,7.30759487 10.0447522,7.37400513 C10.7497075,7.46318462 10.1517373,8.01154359 10.1517373,8.01154359 C10.1517373,8.01154359 11.9571104,7.44800513 12.6735284,7.38918462 C12.6735284,7.38918462 12.4672,6.95277436 11.7985433,6.87118462 C12.3525731,6.4632359 12.9085134,6.33041538 13.307797,7.19754359 C13.7013493,7.22600513 14.0681552,6.74405641 13.8331701,6.13687692 C14.4196776,6.12928718 14.7062448,6.49359487 14.9737075,6.87877436 C15.193409,6.91482564 15.4131104,6.69282564 15.3615284,5.91487692 C15.9079164,6.38164615 16.1830209,6.52964615 16.2193194,6.92241538 C16.6912,7.02677436 17.0083343,6.92241538 17.7171104,6.6112359 C17.5566328,7.23359487 17.5566328,7.38918462 16.9261851,7.70795385 C17.3732299,8.24872308 17.420991,8.90903077 17.3273791,9.14621026 C17.1688119,9.10256923 17.130603,9.08738974 17.0217075,9.05703077 C17.0618269,9.3018 17.1057672,9.96969744 17.0885731,10.3624667 L16.7695284,10.3624667 L17.2452299,11.7703641 L16.9261851,12.2295436 C18.0323343,11.7703641 19.1365731,11.9183641 20.236991,11.6147744 C21.4978866,11.4515949 22.7568716,10.9772359 24.1725134,10.9772359 C25.1200955,10.9772359 25.1200955,11.4515949 26.380991,11.4515949 L26.380991,10.6736462 C26.380991,10.0512872 25.9091104,9.42133846 25.1200955,9.26574872 C24.6501254,9.26574872 23.8572896,9.57692821 23.3873194,9.72492821 C22.7568716,9.89569744 21.8092896,9.89569744 21.1788418,9.89569744 C19.1365731,9.57692821 19.4575284,9.3758 18.7487522,8.99821026 C18.3208119,9.10826154 18.0800955,9.47256923 17.8661254,10.1101077 C17.4706627,9.5238 17.5566328,8.79708205 18.0323343,8.47831282 C17.5566328,6.76682564 18.8175284,5.98128718 20.3917373,5.67010769" id="Fill-9" fill="#F5CD28"></path>
                    <path d="M20.8712597,19.7376974 C20.5522149,19.2633385 19.4479761,18.4853897 19.7632,17.6998513 C20.236991,16.9219026 22.9173493,15.6676974 23.3873194,17.3886718 C23.5439761,17.855441 23.0568119,19.100159 22.9001552,19.5745179 C23.1389612,19.5081077 23.4045134,19.1456974 24.1801552,19.2785179 C24.0349612,19.8932872 23.0892896,20.3676462 23.0892896,20.3676462 C23.1905433,20.7831846 22.4416478,22.7014923 22.4416478,22.7014923 L20.3917373,22.7014923 L20.7069612,22.0791333 L20.236991,22.7014923 L19.4479761,22.7014923 L20.0784239,21.9235436 C20.0784239,21.9235436 19.3314388,22.7906718 18.6990806,22.7546205 C18.850006,21.5023128 19.6065433,21.2935949 20.7069612,21.7679538 C20.8712597,21.1455949 21.1788418,20.3600564 20.8712597,19.7376974" id="Fill-11" fill="#F5CD28"></path>
                    <path d="M19.8768716,22.1466821 L19.4756776,22.7254 L20.2360358,22.6646821 L20.6830806,22.0575026 L20.4232597,22.7178103 L22.442603,22.6646821 C22.4177672,22.6646821 23.1532896,20.7748359 23.0558567,20.3744769 C23.0883343,20.3308359 24.0110806,19.8640667 24.1486328,19.2701692 C24.0569313,19.2929385 23.9537672,19.277759 23.8582448,19.277759 C23.4990806,19.277759 23.2908418,19.4048872 23.1246328,19.499759 C23.044394,19.5528872 22.9794388,19.5813487 22.9106627,19.6117077 L22.9431403,19.3384769 C23.1341851,18.8034 23.4895284,17.7958615 23.355797,17.4030923 C23.1628418,16.7067333 22.6164537,16.5663231 22.1904239,16.5663231 C21.2237373,16.5663231 20.0679164,17.2702718 19.7928119,17.7142718 C19.5692896,18.2778103 20.0984836,18.8413487 20.5283343,19.2853487 C20.6811701,19.4485282 20.8149015,19.5965282 20.8989612,19.7160667 C21.1645134,20.2568359 20.9849313,20.9019641 20.8244537,21.4655026 C20.7977075,21.5755538 20.7671403,21.6723231 20.7384836,21.7690923 C20.3411104,21.6495538 20.0297075,21.5755538 19.7679761,21.5755538 C19.1814687,21.5755538 18.841409,21.9474513 18.7363343,22.7254 C19.3400358,22.7178103 20.0469015,21.9095026 20.0545433,21.9019128 C20.0602746,21.9246821 19.9914985,22.029041 19.8768716,22.1466821 M18.7325134,22.7918103 L18.6962149,22.7842205 C18.8012896,21.5546821 19.5062448,21.2207333 20.7212896,21.7387333 C20.7021851,21.6571436 20.7270209,21.5546821 20.7594985,21.4427333 C20.9123343,20.8943744 21.0938269,20.2644256 20.8397373,19.7521179 C20.7556776,19.6344769 20.6257672,19.4940667 20.4786627,19.3384769 C20.0392597,18.8698103 19.4928716,18.2929897 19.7316776,17.6839128 C20.0545433,17.1583231 21.2753194,16.4923231 22.1904239,16.4923231 C22.8342448,16.4923231 23.2602746,16.7959128 23.4188418,17.3803231 C23.5621254,17.7958615 23.2144239,18.7749385 23.0080955,19.3593487 L22.9354985,19.5756564 C22.9584239,19.5225282 23.0195582,19.4864769 23.0902448,19.4409385 C23.2984836,19.3232974 23.6060657,19.1449385 24.1887522,19.2492974 C24.0664836,19.9077077 23.1456478,20.3744769 23.1074388,20.3972462 C23.2220657,20.7824256 22.5056478,22.6286308 22.4731701,22.7178103 L20.3926925,22.7329897 L20.6811701,22.0575026 L20.2646925,22.7254 L19.4470209,22.7329897 L19.8520358,22.1694513 C19.6055881,22.4350923 19.1528119,22.7918103 18.7325134,22.7918103" id="Fill-13" fill="#8E1841"></path>
                    <path d="M12.4272716,7.96771282 C12.2190328,8.09294359 12.3890627,8.95437949 12.7176597,8.81207179 C13.1226746,8.62802051 12.5915701,7.87094359 12.4272716,7.96771282" id="Fill-15" fill="#F5CD28"></path>
                    <path d="M12.4626149,7.98991282 C12.3613612,8.04114359 12.3441672,8.27832308 12.4072119,8.49463077 C12.4473313,8.64263077 12.531391,8.79063077 12.642197,8.79063077 L12.642197,8.82668205 L12.7052418,8.77545128 C12.8389731,8.71663077 12.8466149,8.57622051 12.8217791,8.47186154 C12.7663761,8.23468205 12.552406,7.98991282 12.4626149,7.98991282 L12.4626149,7.98991282 Z M12.642197,8.85704103 C12.5218388,8.85704103 12.4072119,8.73181026 12.3422567,8.50791282 C12.2773015,8.29350256 12.2830328,8.02027179 12.4148537,7.93868205 C12.625003,7.93109231 12.8351522,8.21191282 12.8886448,8.46427179 C12.9287642,8.64263077 12.8752716,8.77545128 12.7338985,8.84186154 L12.642197,8.85704103 Z" id="Fill-17" fill="#8E1841"></path>
                    <path d="M12.6286328,7.70093333 C13.0202746,7.96847179 13.6354388,8.69329231 14.4015284,8.64965128 C13.8245731,8.18288205 13.9411104,7.83375385 13.9411104,7.83375385 C14.2391403,8.19047179 15.2459463,8.52442051 15.5783642,8.38211282 C15.1924537,8.09370256 15.1160358,8.06334359 15.0319761,7.79770256 C15.492394,7.84893333 16.0674388,7.94570256 16.5240358,7.7521641 L12.6286328,7.70093333 Z" id="Fill-19" fill="#F5CD28"></path>
                    <path d="M14.2500299,8.64225128 C13.7055522,8.64225128 13.2489552,8.25707179 12.9088955,7.96107179 C12.7980896,7.87189231 12.7006567,7.79030256 12.6127761,7.72389231 C12.5974925,7.70871282 12.5936716,7.69353333 12.6051343,7.67835385 C12.616597,7.66317436 12.6357015,7.65558462 12.6528955,7.6707641 C12.7388657,7.73148205 12.8401194,7.81307179 12.9509254,7.90794359 C13.3215522,8.22671282 13.8163582,8.64984103 14.3990448,8.61948205 C13.7896119,8.19825128 13.9023284,7.84153333 13.9061493,7.82635385 C14.2576716,8.16030256 15.2415522,8.48666154 15.5644179,8.34625128 L15.4440597,8.32348205 C15.1498507,8.10907179 15.0772537,8.06353333 15.0008358,7.80548205 L15.1670448,7.78271282 C15.6064478,7.83394359 16.0993433,7.90035385 16.512,7.72389231 C16.1088955,7.96866154 15.6064478,7.90035385 15.1574925,7.84912308 L15.0275821,7.83394359 C15.1402985,8.01989231 15.1976119,8.06353333 15.4841791,8.27225128 L15.6007164,8.35384103 C15.249194,8.56066154 14.263403,8.24189231 13.934806,7.88707179 C13.9596418,7.96107179 13.9672836,8.24948205 14.4200597,8.62707179 C14.3646567,8.63466154 14.3054328,8.64225128 14.2500299,8.64225128" id="Fill-21" fill="#8E1841"></path>
                    <path d="M13.3767642,12.4667231 L13.4207045,11.8064154 C13.4207045,11.8064154 13.8543761,12.8082615 14.1696,12.8215436 C13.969003,12.0891333 14.0549731,11.5104154 14.0549731,11.5104154 L13.3767642,12.4667231 Z" id="Fill-23" fill="#F5CD28"></path>
                    <path d="M14.186603,12.8150923 C13.8274388,12.8150923 13.4319761,11.9176051 13.3880358,11.8227333 L13.4128716,12.4659641 C13.4128716,12.4887333 13.3899463,12.4887333 13.3765731,12.4963231 C13.3593791,12.4887333 13.346006,12.4811436 13.346006,12.4659641 L13.3880358,11.8075538 C13.5714388,12.0656051 13.930603,12.7771436 14.1732299,12.7847333 C13.9382448,12.1035538 14.0165731,11.5115538 14.020394,11.5039641 C14.0853493,11.5172462 14.0032,12.0959641 14.1980657,12.8150923 L14.186603,12.8150923 Z" id="Fill-25" fill="#8E1841"></path>
                    <path d="M14.3843343,11.6587949 C14.3843343,11.6587949 15.2459463,13.2298718 15.6662448,12.9775128 C15.0319761,12.4139744 15.1045731,11.6967436 15.1045731,11.6967436 C15.1045731,11.6967436 15.3873194,12.6663333 16.2412896,12.9623333 C16.2966925,12.4139744 15.9050507,11.5335641 15.9050507,11.5335641 C15.9050507,11.5335641 16.6157373,12.7631026 16.9710806,12.7934615 C17.2003343,12.5031538 17.1181851,12.1995641 17.1181851,12.1995641 L14.3843343,11.6587949 Z" id="Fill-27" fill="#F5CD28"></path>
                    <path d="M15.5485612,13.0374718 C15.5275463,13.0374718 15.5084418,13.0374718 15.4855164,13.0298821 C15.0346507,12.912241 14.3850985,11.7339333 14.3564418,11.6808051 C14.3468896,11.6580359 14.3526209,11.6447538 14.3717254,11.6295744 C14.3850985,11.6295744 14.4080239,11.6295744 14.4156657,11.6447538 C14.4194866,11.6580359 15.0766806,12.8515231 15.5046209,12.9634718 C15.5619343,12.9786513 15.6058746,12.9710615 15.645994,12.9482923 C15.0040836,12.4378821 15.0709493,11.6959846 15.0709493,11.6883949 C15.1397254,11.6959846 15.4301134,12.6371128 16.251606,12.9255231 C16.2611582,12.4302923 15.8809791,11.5555744 15.8771582,11.5479846 L15.8771582,11.5555744 C15.8924418,11.5555744 15.9172776,11.5840359 15.9497552,11.6371641 C16.2267701,12.0071641 16.7177552,12.7338821 16.9718448,12.7623436 C17.1590687,12.5042923 17.0864716,12.2139846 17.0826507,12.2082923 L17.0864716,12.2082923 C17.1514269,12.2082923 17.2354866,12.5194718 17.0005015,12.8154718 C16.7043821,12.8002923 16.2535164,12.1551641 16.0223522,11.7927538 C16.1541731,12.0887538 16.3089194,12.6010615 16.2764418,12.9634718 C15.5370985,12.7414718 15.2008597,12.0451128 15.1053373,11.7927538 C15.1435463,12.0071641 15.2123224,12.5327538 15.6861134,12.9482923 C15.645994,13.0147026 15.5963224,13.0374718 15.5485612,13.0374718" id="Fill-29" fill="#8E1841"></path>
                    <path d="M13.708991,10.5766872 L14.3432597,11.3774051 L14.4406925,10.3091487 C14.4406925,10.3091487 15.0596776,10.7910974 15.1781254,10.7759179 C15.2889313,10.7702256 15.0042746,9.63555897 15.0042746,9.63555897 C15.0042746,9.63555897 15.8391403,10.8954564 15.8926328,10.8650974 C15.9499463,10.8366359 15.9766925,9.62037949 15.9766925,9.62037949 C15.9766925,9.62037949 16.6147821,11.3470462 16.8287522,11.3394564 C17.0446328,11.3185846 16.9892299,11.0946872 16.9892299,11.0946872 L13.708991,10.5766872 Z" id="Fill-31" fill="#F5CD28"></path>
                    <path d="M14.3768836,11.3846154 L13.6814806,10.5990769 C13.6719284,10.5838974 13.6757493,10.5687179 13.6891224,10.5554359 C13.7005851,10.5402564 13.7235104,10.5402564 13.7368836,10.5611282 L14.3673313,11.3542564 L14.4093612,10.3030769 C14.7608836,10.5174872 15.1047642,10.7394872 15.1716299,10.7470769 C15.202197,10.6882564 15.0952119,10.1398974 14.9710328,9.64276923 C15.3263761,10.0658974 15.8288239,10.7926154 15.8976,10.8362564 C15.9014209,10.7850256 15.9319881,10.1759487 15.9453612,9.62 C16.3102567,10.4358974 16.7190925,11.3106154 16.8260776,11.3030256 C16.8776597,11.2954359 16.9120478,11.2802564 16.9292418,11.2517949 C16.9731821,11.1910769 16.9540776,11.1037949 16.9540776,11.1037949 C17.0133015,11.0810256 17.0476896,11.2062564 16.9884657,11.2954359 C16.9540776,11.3409744 16.9024955,11.3618462 16.8279881,11.3694359 L16.8260776,11.3694359 C16.6006448,11.3694359 16.098197,10.0431282 15.9491821,9.63517949 C15.9854806,10.8590256 15.9281672,10.8874872 15.9090627,10.8950769 C15.8765851,10.9102564 15.8288239,10.9406154 14.9729433,9.65794872 C15.0971224,9.87235897 15.2919881,10.6730769 15.219391,10.7926154 C15.0550925,10.8286667 14.5679284,10.4510769 14.4189134,10.3315385 L14.3768836,11.3846154 Z" id="Fill-33" fill="#8E1841"></path>
                    <path d="M13.235009,9.18321026 C13.235009,9.18321026 14.2112478,10.0579282 14.310591,10.0066974 C14.4118448,9.95356923 13.9113075,8.98397949 13.9113075,8.98397949 C13.9113075,8.98397949 14.4691582,9.50956923 14.6869493,9.54562051 C14.9009194,9.59115897 14.7614567,8.86444103 14.7614567,8.86444103 C14.7614567,8.86444103 15.4243821,9.42797949 15.5332776,9.39003077 C15.6536358,9.36915897 15.5925015,8.86444103 15.5925015,8.86444103 C15.5925015,8.86444103 16.0223522,9.29515897 16.0548299,9.29515897 C16.085397,9.29515897 15.9631284,8.06372308 15.9631284,8.06372308 C15.9631284,8.06372308 16.925994,9.07885128 17.0005015,9.06556923 L13.235009,9.18321026 Z" id="Fill-35" fill="#F5CD28"></path>
                    <path d="M14.3077254,10.0431282 C14.1701731,10.0431282 13.6390687,9.59153846 13.2111284,9.20635897 C13.1996657,9.19117949 13.1939343,9.176 13.2111284,9.15323077 C13.2206806,9.14564103 13.2455164,9.14564103 13.2588896,9.15323077 C13.7059343,9.56117949 14.2141134,9.97671795 14.301994,9.97671795 C14.3191881,9.91789744 14.101397,9.42076923 13.8816955,8.99764103 C14.0861134,9.102 14.5216955,9.48717949 14.6917254,9.51753846 C14.8044418,9.43594872 14.7643224,9.07923077 14.724203,8.87241026 C15.0871881,9.102 15.4444418,9.36953846 15.5285015,9.36194872 C15.5724418,9.34676923 15.5858149,9.11717949 15.5571582,8.87241026 C15.8112478,9.03558974 16.0290388,9.25 16.0634269,9.26517949 C16.0328597,9.22723077 15.9736358,8.50810256 15.9296955,8.07169231 C16.3366209,8.41323077 16.9250388,9.00523077 17.0014567,9.03558974 C16.9880836,9.10958974 16.9154866,9.11717949 15.9392478,8.09446154 C16.1073672,9.28035897 16.0882627,9.30123077 16.0787104,9.31641026 C16.0328597,9.33158974 16.0099343,9.33158974 15.5648,8.88758974 C15.6450388,9.02041026 15.6698746,9.39041026 15.5437851,9.42835897 C15.4310687,9.46441026 14.9209791,9.05076923 14.7509493,8.90087179 C14.8178149,8.98246154 14.8942328,9.43594872 14.779606,9.55358974 C14.7719642,9.56117949 14.6898149,9.58394872 14.6783522,9.58394872 C14.4529194,9.53841026 13.9103522,9.028 13.8893373,9.00523077 C14.2828896,9.62758974 14.4166209,9.99189744 14.3287403,10.0355385 C14.323009,10.0431282 14.3191881,10.0431282 14.3077254,10.0431282" id="Fill-37" fill="#8E1841"></path>
                    <path d="M9.32279403,9.49457949 C9.36864478,9.56857949 9.52721194,10.8284769 11.4968836,10.3180667 C11.6841075,10.2137077 11.6019582,10.6652974 11.5904955,10.7981179 C11.6802866,10.7848359 12.6202269,10.4508872 13.2659582,10.9252462 C13.1895403,10.3996564 13.0481672,10.0505282 12.4903164,9.74693846 C12.211391,9.69381026 12.0146149,9.82852821 12.0146149,9.82852821 C12.0146149,9.82852821 9.63992836,9.8494 9.32279403,9.49457949" id="Fill-39" fill="#F5CD28"></path>
                    <path d="M13.2667224,10.9620564 C13.2590806,10.9620564 13.2514388,10.9544667 13.2457075,10.9544667 C13.0240955,10.7912872 12.7375284,10.7096974 12.4012896,10.7096974 C12.0726925,10.7096974 11.7823045,10.7836974 11.6600358,10.8216462 C11.6504836,10.8216462 11.6084537,10.8292359 11.6027224,10.8140564 C11.5912597,10.8064667 11.5587821,10.8064667 11.5587821,10.7912872 L11.5664239,10.7172872 C11.5778866,10.6072359 11.6027224,10.3833385 11.5587821,10.3396974 C11.1938866,10.4288769 10.905409,10.4725179 10.6474985,10.4725179 C9.94063284,10.4725179 9.48785672,10.1613385 9.31018507,9.54656923 C9.30636418,9.53897949 9.30254328,9.53138974 9.30254328,9.5238 C9.63687164,10.3245179 10.3418269,10.5768769 11.4880955,10.2808769 L11.6084537,10.294159 C11.6676776,10.3624667 11.6543045,10.5313385 11.6352,10.7172872 L11.6313791,10.7988769 C11.7708418,10.7172872 12.0631403,10.6356974 12.4012896,10.6356974 C12.7222448,10.6356974 12.9954388,10.7096974 13.2189612,10.8501077 C13.1463642,10.3757487 12.9858866,10.0569795 12.475797,9.78374872 C12.441409,9.77615897 12.3974687,9.76856923 12.3535284,9.76856923 C12.1682149,9.76856923 12.0344836,9.85774872 12.0344836,9.85774872 C11.4116776,9.86533846 9.59484179,9.84256923 9.30254328,9.51621026 C9.30254328,9.50862051 9.30636418,9.49533846 9.31400597,9.48774872 C9.32546866,9.48015897 9.34075224,9.45738974 9.35030448,9.47256923 C9.56618507,9.71733846 10.8901254,9.79892821 11.9561552,9.79892821 C11.9848119,9.79892821 12.1395582,9.70215897 12.3535284,9.70215897 C12.4012896,9.70215897 12.4471403,9.70974872 12.4968119,9.71733846 C13.0718567,10.0209282 13.2208716,10.3757487 13.3011104,10.9184154 C13.3011104,10.9316974 13.2972896,10.9468769 13.2839164,10.9544667 C13.2800955,10.9544667 13.2724537,10.9620564 13.2667224,10.9620564" id="Fill-41" fill="#8E1841"></path>
                    <path d="M8.25370746,17.5290821 C8.21740896,17.6770821 8.11997612,17.7150308 7.82385672,18.1362615 C7.95376716,18.3222103 8.55173731,18.6030308 8.71794627,18.447441 C8.86122985,18.373441 8.87269254,17.9806718 8.87269254,17.9806718 C9.18982687,18.447441 9.74576716,19.1893385 10.3762149,19.3525179 C10.8461851,19.5005179 11.3199761,19.1893385 11.3199761,18.7225692 C11.3199761,18.2482103 10.6073791,17.4987231 10.2940657,17.1875436 C9.5031403,16.2464154 9.57573731,14.4761077 8.08367761,14.7208769 C8.07985672,14.734159 8.01872239,14.9428769 7.87734925,14.9789282 C7.99579701,15.2009282 8.06266269,15.3944667 7.77800597,15.4684667 C7.99961791,15.6828769 8.03209552,15.8384667 7.74552836,15.9504154 C7.9193791,16.1800051 8.12570746,16.2691846 7.72642388,16.4627231 C8.14099104,16.8687744 8.22887164,17.4626718 8.25370746,17.5290821" id="Fill-43" fill="#F5CD28"></path>
                    <path d="M8.84327164,17.981241 C9.43933134,18.7516 9.92076418,19.1974974 10.3869134,19.3151385 C10.8396896,19.4707282 11.2848239,19.151959 11.2848239,18.7231385 C11.2848239,18.2620615 10.5741373,17.5068821 10.2703761,17.2108821 C10.001003,16.8921128 9.83479403,16.4841641 9.67240597,16.0838051 C9.35527164,15.3134462 9.05533134,14.5943179 8.09055522,14.7574974 C8.05616716,14.8903179 7.97783881,14.9794974 7.88231642,15.0098564 C7.97401791,15.0914462 8.04470448,15.2394462 7.99694328,15.3570872 C7.96446567,15.4234974 7.8976,15.4690359 7.78297313,15.5050872 C7.94345075,15.5790872 8.00267463,15.6910359 7.9816597,15.7878051 C7.96446567,15.8693949 7.8937791,15.9282154 7.76004776,15.9794462 C7.80398806,15.9718564 7.83837612,16.0098051 7.86894328,16.0401641 C7.94345075,16.1274462 8.00649552,16.1957538 7.98930149,16.2773436 C7.97210746,16.3513436 7.89951045,16.4101641 7.73903284,16.4917538 C8.12494328,16.7953436 8.2376597,17.3133436 8.27395821,17.4765231 C8.26249552,17.6264205 8.21855522,17.685241 8.13449552,17.7820103 C8.07145075,17.8636 7.97783881,17.981241 7.84983881,18.1596 C7.97401791,18.277241 8.57007761,18.5371897 8.69425672,18.425241 C8.80888358,18.3664205 8.83945075,18.0856 8.84327164,17.981241 M10.6257194,19.4194974 C10.5359284,19.4194974 10.4518687,19.4119077 10.3658985,19.373959 C9.89592836,19.2639077 9.40494328,18.8180103 8.87383881,18.0324718 C8.90058507,18.129241 8.87001791,18.411959 8.73437612,18.4783692 C8.70380896,18.5144205 8.64840597,18.5220103 8.57580896,18.5220103 C8.32936119,18.5220103 7.90715224,18.3151897 7.79443582,18.1596 C7.92434627,17.9376 8.01413731,17.8256513 8.08482388,17.7440615 C8.16506269,17.6397026 8.20327164,17.6036513 8.21855522,17.5220615 C8.17079403,17.3361128 8.06380896,16.8389846 7.70273433,16.4841641 C7.84219701,16.3646256 7.91097313,16.3133949 7.92052537,16.2621641 C7.92816716,16.2166256 7.87849552,16.1578051 7.8135403,16.0838051 C7.78297313,16.0458564 7.75431642,16.0173949 7.71801791,15.9661641 C7.84219701,15.8769846 7.90333134,15.8314462 7.91670448,15.7726256 C7.92816716,15.7062154 7.87658507,15.6094462 7.75431642,15.4918051 C7.8536597,15.4102154 7.91097313,15.3722667 7.92816716,15.3286256 C7.96828657,15.2546256 7.92434627,15.1350872 7.84601791,14.9870872 C7.93962985,14.9206769 8.00076418,14.8466769 8.04852537,14.7195487 C8.17843582,14.6759077 8.26631642,14.6683179 8.35228657,14.6683179 C9.16040597,14.6683179 9.4374209,15.3419077 9.73162985,16.0610359 C9.89592836,16.4538051 10.0602269,16.8541641 10.3162269,17.1653436 C10.6295403,17.4689333 11.3536,18.2411897 11.3536,18.7231385 C11.3536,19.1159077 11.0326448,19.4194974 10.6257194,19.4194974" id="Fill-45" fill="#8E1841"></path>
                    <path d="M7.86569552,4.28403077 C7.38808358,4.96521026 7.34223284,12.4657744 7.49315821,13.970441 C7.01363582,14.2835179 6.13100896,14.1563897 5.88647164,14.0596205 C6.00109851,13.5188513 6.40993433,4.8248 7.86569552,4.28403077" id="Fill-47" fill="#F5CD28"></path>
                    <path d="M7.83761194,4.26923077 C6.70662687,4.74358974 6.20608955,10.7774359 6.01695522,13.0524615 C5.97110448,13.6008205 5.94053731,13.9632308 5.91952239,14.0675897 C6.03223881,14.0751795 6.34173134,14.134 6.65695522,14.134 C6.89767164,14.134 7.232,14.1055385 7.47080597,13.9499487 C7.3198806,12.6141538 7.34471642,4.97317949 7.83761194,4.26923077 M6.65695522,14.2004103 C6.3321791,14.2004103 6.01695522,14.1415897 5.87367164,14.090359 C5.87367164,13.955641 5.90614925,13.5704615 5.9481791,13.0524615 C6.15832836,10.5478462 6.64358209,4.69994872 7.85098507,4.25405128 C7.42877612,4.97317949 7.36573134,12.3769744 7.52047761,13.9708205 C7.25492537,14.164359 6.90531343,14.2004103 6.65695522,14.2004103" id="Fill-49" fill="#8E1841"></path>
                    <path d="M6.5241791,19.6562974 C6.5241791,19.6562974 4.43223881,19.9447077 5.31295522,18.7151692 C6.06758209,18.3888103 6.04847761,19.1515795 5.76955224,19.4115282 C6.11534328,19.4494769 6.34077612,19.2331692 6.39426866,18.8935282 C5.96823881,18.3224 6.57385075,17.9524 6.54137313,17.9524 C5.08561194,18.2768615 4.89265672,17.2845026 5.42567164,17.1289128 C6.11152239,17.1668615 5.89373134,17.3812718 6.16692537,17.5805026 C6.6521791,17.1289128 6.95020896,17.0852718 7.24250746,17.5444513 C7.53862687,17.0909641 7.96083582,17.1440923 7.97802985,17.1877333 C8.4518209,17.9884513 7.40489552,18.0339897 6.98268657,17.9372205 C7.34185075,18.3224 7.19474627,18.6999897 7.07820896,18.9751179 C7.09158209,19.2483487 7.29791045,19.2862974 7.63414925,19.3963487 C6.91391045,17.4249128 10.167403,19.9238359 6.89671642,19.6714769 C6.90435821,19.7606564 6.912,19.8498359 6.91391045,19.9314256 C7.18328358,19.9826564 7.36859701,20.0414769 7.45647761,20.3241949 C7.34185075,20.4721949 7.1641791,20.4930667 6.88334328,20.3906051 C6.88334328,20.3906051 7.04764179,20.8421949 6.74961194,20.9674256 C6.50698507,20.8194256 6.47641791,20.4721949 6.47641791,20.4721949 C6.33695522,20.6353744 6.13826866,20.5234256 5.96823881,20.3906051 C6.12107463,20.0111179 6.55092537,20.1894769 6.5241791,19.6562974" id="Fill-51" fill="#F5CD28"></path>
                    <path d="M4.72759403,13.6526205 C4.85368358,13.0890821 6.16807164,13.1554923 5.54144478,13.7645692 C5.96365373,14.4305692 7.24938507,14.3338 7.73081791,13.9562103 C7.32389254,13.1858513 8.43195224,13.3566205 8.38610149,13.9410308 C8.2504597,14.9865179 4.58431045,14.8461077 4.72759403,13.6526205" id="Fill-53" fill="#F5CD28"></path>
                    <path d="M28.8842507,23.614159 C29.2758925,24.3484667 29.973206,26.0675436 30.357206,26.4830821 C30.7259224,26.8018513 31.6238328,26.7639026 31.8989373,26.4014923 C31.8989373,26.4014923 32.477803,26.9934923 32.7108776,27.1718513 C32.8484299,27.1206205 32.9324896,26.9934923 32.9324896,26.9934923 C32.6994149,26.7411333 32.3803701,26.5931333 32.221803,26.1263641 C32.4529672,25.8151846 32.588609,25.2080051 32.4262209,24.7412359 C31.7403701,23.5913897 29.4478328,24.0448769 28.8842507,23.614159" id="Fill-55" fill="#F5CD28"></path>
                    <path d="M31.8731463,26.3787231 C31.9266388,26.3863128 32.4768478,26.9498513 32.7156537,27.1339026 C32.8360119,27.0826718 32.9047881,26.9707231 32.9047881,26.9707231 C32.8417433,26.9498513 32.7729672,26.883441 32.7003701,26.8227231 C32.5055045,26.6538513 32.3068179,26.4830821 32.1902806,26.1415436 C32.4157134,25.8151846 32.5570866,25.2231846 32.3985194,24.7488256 C31.9801313,24.058159 30.9160119,23.9632872 30.0658627,23.8892872 C29.5347582,23.8437487 29.0781612,23.8076974 28.864191,23.6369282 C29.0533254,23.8513385 29.2271761,24.2213385 29.4067582,24.6141077 C29.7468179,25.3560051 30.1346388,26.1927744 30.382997,26.4603128 C30.7096836,26.7411333 31.6266985,26.6974923 31.8731463,26.3787231 L31.8731463,26.3787231 Z M32.7080119,27.2154923 L32.6908179,27.2022103 C32.4577433,27.0238513 31.8998925,26.4527231 31.8750567,26.4299538 C31.7031164,26.7714923 30.6944,26.8303128 30.3352358,26.5039538 C30.0792358,26.2307231 29.6895045,25.3920564 29.3456239,24.6444667 C29.1603104,24.2516974 28.9902806,23.8741077 28.8565493,23.6293385 C29.1049075,23.7393897 29.5519522,23.7773385 30.0677731,23.8209795 C30.9408478,23.8949795 32.0183403,23.9917487 32.4577433,24.7260564 C32.6277731,25.2231846 32.4806687,25.8379538 32.2495045,26.1491333 C32.3679522,26.4451333 32.5570866,26.6083128 32.7443104,26.7714923 C32.8207284,26.8303128 32.8933254,26.8967231 32.9621015,26.9707231 C32.9621015,27.0238513 32.8684896,27.1566718 32.7194746,27.2079026 L32.7080119,27.2154923 Z" id="Fill-57" fill="#8E1841"></path>
                    <path d="M4.27424478,3.69848205 C3.88451343,2.9717641 3.18528955,1.23750769 2.7993791,0.821969231 C2.43830448,0.5032 1.53466269,0.541148718 1.25764776,0.903558974 C1.25764776,0.903558974 0.67878209,0.319148718 0.449528358,0.140789744 C0.310065672,0.184430769 0.224095522,0.319148718 0.224095522,0.319148718 C0.460991045,0.563917949 0.780035821,0.711917949 0.936692537,1.18627692 C0.701707463,1.49745641 0.573707463,2.09704615 0.728453731,2.57140513 C1.42194627,3.71366154 3.71257313,3.26207179 4.27424478,3.69848205" id="Fill-59" fill="#F5CD28"></path>
                    <path d="M0.429086567,0.162989744 C0.333564179,0.214220513 0.251414925,0.333758974 0.251414925,0.341348718 C0.312549254,0.362220513 0.388967164,0.430528205 0.461564179,0.489348718 C0.654519403,0.652528205 0.851295522,0.823297436 0.969743284,1.17052821 C0.7424,1.49688718 0.606758209,2.08319487 0.763414925,2.55755385 C1.18371343,3.25391282 2.24592239,3.35068205 3.09607164,3.41709231 C3.54884776,3.45314359 3.94813134,3.49868205 4.19075821,3.60873333 C4.06275821,3.35827179 3.90992239,3.03191282 3.74944478,2.69037436 C3.40938507,1.94847692 3.02347463,1.11170769 2.77320597,0.844169231 C2.45416119,0.563348718 1.52759403,0.614579487 1.28305672,0.925758974 C1.22956418,0.925758974 0.656429851,0.341348718 0.429086567,0.162989744 L0.429086567,0.162989744 Z M4.25380299,3.72068205 C4.05129552,3.57268205 3.60807164,3.52714359 3.0903403,3.49109231 C2.22299701,3.40950256 1.13977313,3.31273333 0.702280597,2.58601538 C0.536071642,2.08319487 0.679355224,1.47411795 0.908608955,1.16293846 C0.795892537,0.866938462 0.602937313,0.696169231 0.413802985,0.540579487 C0.34120597,0.474169231 0.26478806,0.415348718 0.201743284,0.341348718 C0.201743284,0.288220513 0.289623881,0.1554 0.440549254,0.104169231 C0.702280597,0.288220513 1.26013134,0.859348718 1.28305672,0.882117949 C1.45690746,0.540579487 2.46944478,0.489348718 2.82478806,0.800528205 C3.08078806,1.07375897 3.4705194,1.92001538 3.81248955,2.66001538 C3.99589254,3.05278462 4.16974328,3.43227179 4.30538507,3.68273333 L4.25380299,3.72068205 Z" id="Fill-61" fill="#8E1841"></path>
                    <path d="M4.04288955,23.4955692 C3.30736716,23.8883385 1.56694925,24.5846974 1.15047164,24.9622872 C0.825695522,25.3265949 0.865814925,26.2221846 1.2326209,26.4973128 C1.2326209,26.4973128 0.636561194,27.068441 0.456979104,27.3056205 C0.502829851,27.438441 0.636561194,27.5276205 0.636561194,27.5276205 C0.892561194,27.290441 1.03584478,26.9716718 1.50963582,26.8160821 C1.82677015,27.0456718 2.43238209,27.1784923 2.90426269,27.0229026 C4.06008358,26.3417231 3.60539701,24.0591077 4.04288955,23.4955692" id="Fill-63" fill="#F5CD28"></path>
                    <path d="M4.01671642,23.4807692 C3.80656716,23.6667179 3.42447761,23.8355897 3.02328358,24.0215385 C2.28202985,24.3554872 1.43952239,24.7406667 1.1758806,24.9930256 C1.01922388,25.1637949 0.940895522,25.4958462 0.969552239,25.8297949 C0.998208955,26.1201026 1.10328358,26.3572821 1.25420896,26.4749231 C1.25038806,26.5261538 0.660059701,27.0972821 0.48238806,27.3192821 C0.520597015,27.3951795 0.595104478,27.454 0.633313433,27.4824615 C0.698268657,27.4160513 0.75558209,27.3572308 0.809074627,27.2908205 C0.981014925,27.0972821 1.14722388,26.8980513 1.50065672,26.7785128 C1.86555224,27.0308718 2.47880597,27.127641 2.89528358,26.9872308 C3.59641791,26.5716923 3.68620896,25.5186154 3.76071642,24.6742564 C3.80656716,24.1486667 3.84477612,23.6951795 4.01671642,23.4807692 L4.01671642,23.4807692 Z M0.639044776,27.5640513 L0.619940299,27.5507692 C0.612298507,27.5507692 0.474746269,27.4615897 0.425074627,27.3135897 C0.608477612,27.0460513 1.18734328,26.4976923 1.20835821,26.4749231 C1.0440597,26.4009231 0.933253731,26.1485641 0.900776119,25.8373846 C0.870208955,25.4825641 0.952358209,25.1334359 1.12238806,24.9417949 C1.40322388,24.6894359 2.24764179,24.2966667 2.99271642,23.9627179 C3.39773134,23.7767692 3.77408955,23.606 4.02626866,23.4731795 C3.91355224,23.7255385 3.87343284,24.1619487 3.82758209,24.6818462 C3.75307463,25.5413846 3.66137313,26.6153333 2.92202985,27.0460513 C2.77683582,27.0972821 2.6201791,27.1200513 2.45014925,27.1200513 C2.09480597,27.1200513 1.72035821,27.0156923 1.48919403,26.8392308 C1.19116418,26.9568718 1.02495522,27.1504103 0.86638806,27.3344615 C0.795701493,27.4084615 0.730746269,27.4824615 0.660059701,27.5507692 L0.639044776,27.5640513 Z" id="Fill-65" fill="#8E1841"></path>
                    <path d="M28.9459582,3.69848205 C29.3376,2.9717641 30.0368239,1.23750769 30.4208239,0.821969231 C30.7818985,0.5032 31.6855403,0.541148718 31.9625552,0.903558974 C31.9625552,0.903558974 32.5414209,0.319148718 32.7725851,0.140789744 C32.9101373,0.184430769 32.9980179,0.319148718 32.9980179,0.319148718 C32.7630328,0.563917949 32.4363463,0.711917949 32.2835104,1.18627692 C32.5165851,1.49745641 32.6464955,2.09704615 32.4879284,2.57140513 C31.8001672,3.71366154 29.5076299,3.26207179 28.9459582,3.69848205" id="Fill-67" fill="#F5CD28"></path>
                    <path d="M31.1492776,0.637348718 C30.8550687,0.637348718 30.5914269,0.718938462 30.4462328,0.851758974 C30.1959642,1.11170769 29.8119642,1.94847692 29.4680836,2.69037436 C29.3056955,3.03191282 29.1566806,3.35827179 29.0344119,3.60114359 C29.2770388,3.49868205 29.6763224,3.45314359 30.1233672,3.41709231 C30.9792478,3.34309231 32.0395463,3.25391282 32.4617552,2.5499641 C32.6203224,2.08319487 32.4770388,1.49688718 32.2573373,1.20847692 C32.3681433,0.823297436 32.5687403,0.652528205 32.7597851,0.489348718 C32.8323821,0.430528205 32.9011582,0.369810256 32.9622925,0.295810256 C32.9393672,0.295810256 32.8648597,0.200938462 32.763606,0.162989744 C32.5649194,0.341348718 31.9917851,0.925758974 31.9860537,0.925758974 C31.8007403,0.754989744 31.4912478,0.637348718 31.1492776,0.637348718 M28.9656358,3.72068205 L28.9121433,3.68273333 C29.0535164,3.43227179 29.2273672,3.05278462 29.4069493,2.66001538 C29.7546507,1.92001538 30.1424716,1.07375897 30.3965612,0.808117949 C30.7576358,0.489348718 31.7205015,0.532989744 31.9898746,0.882117949 C31.9707701,0.844169231 32.5209791,0.288220513 32.7521433,0.111758974 C32.9336358,0.1554 33.0215164,0.288220513 33.0253373,0.295810256 C32.9527403,0.415348718 32.8763224,0.474169231 32.8075463,0.540579487 C32.6203224,0.696169231 32.4235463,0.866938462 32.3146507,1.19329744 C32.5439045,1.47411795 32.691009,2.09078462 32.5228896,2.57842564 C32.0758448,3.31273333 31.0002627,3.40950256 30.131009,3.49109231 C29.6132776,3.52714359 29.1681433,3.56509231 28.9656358,3.72068205" id="Fill-69" fill="#8E1841"></path>
                    <path d="M5.31715821,14.9349077 C5.2846806,15.1644974 5.85781493,15.2764462 6.44623284,15.2764462 C7.0289194,15.2840359 7.62688955,15.1796769 7.65554627,15.0164974 C7.66127761,14.7204974 7.14354627,14.9785487 6.55130746,14.9728564 C5.9648,14.9728564 5.46999403,14.7356769 5.31715821,14.9349077" id="Fill-71" fill="#F5CD28"></path>
                    <path d="M5.54106269,14.8831077 C5.44362985,14.8831077 5.37867463,14.9058769 5.34237612,14.9571077 C5.34810746,14.9722872 5.35383881,14.9950564 5.38249552,15.0235179 C5.49712239,15.1582359 5.90213731,15.2379282 6.44661493,15.2455179 L6.46762985,15.2758769 L6.46762985,15.2455179 C7.13628657,15.2455179 7.60243582,15.1202872 7.61962985,15.0159282 C7.62345075,14.9798769 7.61198806,14.9646974 7.59861493,14.9419282 C7.54894328,14.8906974 7.37509254,14.9058769 7.15730149,14.9495179 C6.98345075,14.9798769 6.78094328,15.0007487 6.57079403,15.0007487 C6.31861493,15.0007487 6.10082388,14.9722872 5.9136,14.9343385 C5.77031642,14.9058769 5.64422687,14.8831077 5.54106269,14.8831077 M6.46762985,15.3138256 L6.44661493,15.3138256 C6.23073433,15.3138256 5.52004776,15.2910564 5.33091343,15.0766462 C5.29270448,15.0311077 5.27551045,14.9798769 5.28315224,14.9267487 C5.39013731,14.7863385 5.60410746,14.8166974 5.92315224,14.8679282 C6.11228657,14.8982872 6.32625672,14.9343385 6.55168955,14.9419282 C6.77521194,14.9419282 6.97580896,14.9058769 7.14774925,14.8831077 C7.39801791,14.8394667 7.57568955,14.8242872 7.64828657,14.8906974 C7.67885373,14.9267487 7.69222687,14.9722872 7.68840597,15.0235179 C7.65019701,15.2531077 6.87646567,15.3138256 6.46762985,15.3138256" id="Fill-73" fill="#F5CD28"></path>
                    <path d="M5.36186269,15.5946462 C5.37332537,15.8166462 5.93690746,15.8697744 6.43744478,15.8830564 C6.93989254,15.8982359 7.44616119,15.8014667 7.53977313,15.6382872 C7.44998209,15.3878256 6.89404179,15.5946462 6.43744478,15.6098256 C5.98466866,15.6250051 5.48031045,15.3878256 5.36186269,15.5946462" id="Fill-75" fill="#F5CD28"></path>
                    <path d="M5.56895522,15.5426564 C5.47725373,15.5426564 5.4199403,15.5578359 5.39319403,15.6090667 C5.40274627,15.7418872 5.75426866,15.8310667 6.44202985,15.8462462 L6.54137313,15.8538359 C7.01134328,15.8538359 7.43737313,15.7494769 7.5118806,15.6242462 C7.46029851,15.5502462 7.20620896,15.5426564 6.89098507,15.5862974 C6.74197015,15.6166564 6.58340299,15.6394256 6.43820896,15.6470154 C6.26435821,15.6678872 6.06376119,15.6166564 5.90710448,15.5862974 C5.78101493,15.5578359 5.66447761,15.5426564 5.56895522,15.5426564 M6.54137313,15.9202462 L6.43820896,15.9202462 C5.92620896,15.8974769 5.33779104,15.8462462 5.32823881,15.5938872 C5.38555224,15.4838359 5.49635821,15.4762462 5.56895522,15.4762462 C5.66829851,15.4762462 5.78674627,15.4990154 5.92047761,15.5122974 C6.07522388,15.5502462 6.24334328,15.5730154 6.4038209,15.5730154 C6.57958209,15.5654256 6.73432836,15.5502462 6.88143284,15.5274769 C7.02471642,15.5047077 7.1641791,15.4838359 7.27689552,15.4838359 C7.3800597,15.4838359 7.52334328,15.4990154 7.57301493,15.6318359 C7.4641194,15.8386564 6.96167164,15.9202462 6.54137313,15.9202462" id="Fill-77" fill="#F5CD28"></path>
                    <path d="M5.52425075,16.1875949 C5.48413134,16.3507744 5.98466866,16.4684154 6.44508657,16.4760051 C6.90550448,16.4760051 7.55887761,16.3052359 7.56269851,16.1211846 C7.53595224,15.9807744 6.89213134,16.1724154 6.4584597,16.1875949 C6.02669851,16.2027744 5.52425075,16.0320051 5.52425075,16.1875949" id="Fill-79" fill="#F5CD28"></path>
                    <path d="M5.65473433,16.1504051 C5.5897791,16.1504051 5.55921194,16.1579949 5.55921194,16.1883538 C5.65855522,16.3496359 6.04828657,16.4388154 6.4494806,16.4388154 L6.45903284,16.4767641 L6.45903284,16.4388154 C6.92518209,16.4388154 7.52506269,16.2623538 7.52697313,16.1200462 C7.52506269,16.1124564 7.28625672,16.1124564 7.00351045,16.1579949 C6.82201791,16.1807641 6.62715224,16.2168154 6.45903284,16.2168154 C6.22022687,16.2168154 6.07694328,16.2016359 5.9336597,16.1807641 C5.82285373,16.1655846 5.7254209,16.1504051 5.65473433,16.1504051 M6.45903284,16.5052256 L6.4456597,16.5052256 C6.08458507,16.5052256 5.6337194,16.4255333 5.51909254,16.2832256 C5.49616716,16.2471744 5.48470448,16.2168154 5.49234627,16.1807641 C5.49234627,16.0839949 5.61461493,16.0839949 5.65473433,16.0839949 C5.72924179,16.0839949 5.82858507,16.0991744 5.93939104,16.1124564 C6.08458507,16.1352256 6.24315224,16.1504051 6.4017194,16.1504051 C6.62333134,16.1504051 6.81246567,16.1200462 6.99204776,16.0839949 C7.16398806,16.0612256 7.31682388,16.0327641 7.42189851,16.0327641 C7.46583881,16.0327641 7.58428657,16.0327641 7.59574925,16.1200462 C7.59192836,16.3439436 6.90034627,16.5052256 6.45903284,16.5052256" id="Fill-81" fill="#F5CD28"></path>
                    <path d="M5.47018507,16.7953436 C5.50839403,16.9585231 6.07579701,17.0097538 6.57442388,16.9737026 C7.07687164,16.9357538 7.5831403,16.7877538 7.6232597,16.6018051 C7.59842388,16.4917538 7.0272,16.6909846 6.55149851,16.7137538 C6.07961791,16.7441128 5.46445373,16.6549333 5.47018507,16.7953436" id="Fill-83" fill="#F5CD28"></path>
                    <path d="M5.81521194,16.7433538 C5.6337194,16.7433538 5.52864478,16.7585333 5.50380896,16.7869949 C5.52482388,16.8685846 5.79419701,16.9501744 6.2775403,16.9501744 C6.37688358,16.9501744 6.47622687,16.9425846 6.5736597,16.9368923 C7.08757015,16.8989436 7.55562985,16.7433538 7.59192836,16.6029436 C7.45628657,16.6029436 7.32637612,16.6314051 7.17736119,16.6541744 C6.98440597,16.6997128 6.75706269,16.7357641 6.55264478,16.7433538 C6.4857791,16.7509436 6.41127164,16.7509436 6.33676418,16.7509436 L5.81521194,16.7433538 Z M6.2775403,17.0184821 C6.09222687,17.0184821 5.48470448,16.9957128 5.44076418,16.7945846 C5.49616716,16.6997128 5.60124179,16.6769436 5.81521194,16.6769436 L6.33676418,16.6845333 C6.41127164,16.6845333 6.48195821,16.6845333 6.55073433,16.6769436 C6.75324179,16.6693538 6.97485373,16.6314051 7.16398806,16.5953538 C7.32064478,16.5649949 7.45246567,16.5365333 7.53843582,16.5365333 C7.56327164,16.5365333 7.64351045,16.5365333 7.65879403,16.6029436 C7.60530149,16.8173538 7.06464478,16.9729436 6.5774806,17.0033026 C6.48004776,17.0108923 6.37688358,17.0184821 6.2775403,17.0184821 L6.2775403,17.0184821 Z" id="Fill-85" fill="#F5CD28"></path>
                </g>
            </g>
        </g>
    </g>
</svg>