<?xml version="1.0" encoding="UTF-8" standalone="no"?>
<svg width="31px" height="34px" viewBox="0 0 31 34" version="1.1" xmlns="http://www.w3.org/2000/svg" xmlns:xlink="http://www.w3.org/1999/xlink">
    <!-- Generator: Sketch 46.2 (44496) - http://www.bohemiancoding.com/sketch -->
    <title>Page 1</title>
    <desc>Created with Sketch.</desc>
    <defs></defs>
    <g id="Page-1" stroke="none" stroke-width="1" fill="none" fill-rule="evenodd">
        <g id="mm-landing-1440-edits" transform="translate(-310.000000, -9519.000000)" stroke="#83949F">
            <g id="Page-1" transform="translate(311.000000, 9520.000000)">
                <polygon id="Fill-1" points="28.8250863 22.6487059 28.7228895 22.3654271 28.6133555 22.184171 28.4680526 22 28.330349 22.1917233 28.3228807 22.4494303 28.093331 22.7475488 27.916976 22.6952124 27.9733153 22.8793834 27.8488448 23.0950888 27.5066166 23.3618055 27.2711709 23.6089126 27.0873477 23.6150075 26.9348386 23.6929158 26.7022754 23.7827489 26.4948683 23.797721 26.4401013 24.074905 26.2947984 24.3189648 26.3275538 24.7234785 26.4059047 25.0006625 26.5022055 25.2104054 26.4651264 25.4920943 26.2667598 25.8306245 26.2651876 25.9790213 26.0741582 26.0569296 26 26.3804876 26.0385203 26.705503 26.1838232 27.0680152 26.2119928 27.4741189 26.3259816 27.7167211 26.6562868 27.8815476 26.8948771 28 27.2578067 27.8036393 27.5955802 27.6943291 27.7837271 27.1623531 27.9422632 26.5317993 28.1999825 25.6823602 28.4043761 25.069561 28.5673669 24.5571946 28.5939643 24.1858051 28.708084 24.0853723 28.7451631 23.8994788 28.6666812 23.5789683 28.7437219 23.4501811 28.8858802 23.7048406 28.9584662 23.5760534 29 23.3692253 28.8933485 23.1670347"></polygon>
                <path d="M10.984784,0.20897649 L10.6975697,0.240159189 L10.5259594,0.120014085 L10.0747177,0.124599776 L9.6777526,0.327418338 L9.46556786,0.250509749 L8.76768627,0.293353205 L8.05330881,0.385329064 L7.6471646,0.540849499 L7.38083617,0.752577404 L6.92360799,0.841670829 L6.51892713,1.11864657 L6.33547712,1.11275068 L5.89926787,1.00151492 L5.49764672,1.03715229 L5.24342413,0.82083869 L4.9335945,0.817956256 L4.79976513,1.13043834 L4.51853721,1.65032468 L4.20564786,1.85628772 L3.78287476,2.08295187 L3.5121563,2.41482488 L3.45508592,2.67254072 L3.29411819,3.09036268 L3.39934585,3.68728863 L3.04747837,4.08440947 L2.83675697,4.21018842 L2.50444508,4.53171087 L2.11187005,4.58359469 L1.91631421,4.74946569 L1.89968531,4.7628297 L1.89210253,4.76872559 L1.62457682,5.24275502 L1.34481224,5.41163947 L1.19129426,5.69464211 L1.18224814,5.93912495 L1.06957072,6.20430891 L0.928025542,6.27676283 L0.693491564,6.56422015 L0.549019698,6.88259812 L0.576158059,7.0337949 L0.437672596,7.26635495 L0.275374552,7.38781025 L0.255685936,7.59377329 L0.237593695,7.78191764 L0.460287898,7.97150321 L0.568575282,8.18192091 L0.526404396,8.39967573 L0.577488371,8.61743054 L0.624182317,9.04848549 L0.571501968,9.45582587 L0.454168463,9.66925704 L0.490352945,9.90037586 L0.391111682,10.1210131 L0.18650972,10.4217034 L0,10.5031977 L0.210588365,10.6543945 L0.384992247,10.9862675 L0.330848555,11.1744118 L0.400157803,11.4988167 L0.427163133,11.5890893 L0.555006101,11.6779207 L0.553542758,11.7417273 L0.649857336,11.8617414 L0.827320935,11.8883384 L1.05280879,12.06456 L1.1761287,12.1343935 L1.2379882,12.2261073 L1.28454912,12.4113692 L1.38977678,12.495746 L1.4981972,12.549071 L1.66209162,12.7136318 L1.84713799,12.960866 L1.89968531,13.2690245 L1.97351762,13.4216625 L2.19301907,13.643872 L2.49539896,13.8113152 L2.60967274,13.8422359 L2.89396038,14.1105643 L3.25341064,14.3370974 L3.63547621,14.652593 L4.07022212,14.8496467 L4.18143619,14.8466332 L4.26271824,14.8571148 L4.68083525,14.706049 L4.97270567,14.5860349 L5.47356808,14.51345 L5.7428232,14.5089953 L6.0376203,14.5904896 L6.22865308,14.5860349 L6.60473224,14.7030356 L6.98533446,14.5830215 L7.22000147,14.4408651 L7.88169858,14.1979545 L8.22012991,14.1105643 L8.56920374,14.0615629 L8.94062681,14.0615629 L9.25803921,14.0571082 L9.55735938,14.3296293 L9.69584484,14.6288784 L9.9213327,14.8881665 L10.2583007,14.8972068 L10.4207318,14.805362 L10.5816995,14.8259321 L11.0193721,14.6778798 L11.0133857,14.791998 L11.1216731,14.8512189 L11.2074782,15.0363498 L11.3999743,15.1074935 L11.5653321,15.3800146 L11.5037386,15.7058607 L11.3578034,16.1696706 L11.4376221,16.2319049 L11.351817,16.5384911 L11.249516,16.8377402 L11.1578576,16.9711183 L11.1442884,17.1072478 L11.3999743,17.5339792 L11.6797389,17.8747615 L12.1128884,18.2924524 L12.4587695,18.7295343 L12.6279852,18.5526577 L12.4587695,18.7309755 L12.571713,19.0421474 L12.6303797,19.1708088 L12.8047836,19.1146013 L12.9266402,19.1220695 L13.0755021,19.0730681 L13.0755021,19.0762125 L12.9282366,19.1265241 L12.80638,19.119056 L12.6318431,19.1753945 L12.5911355,19.2553165 L12.8017239,19.5176181 L12.887529,19.796035 L13.015372,20.1990517 L12.8860657,20.3649227 L12.8634504,20.4524439 L12.9672147,20.7026916 L13.0800251,20.957525 L13.2064048,21.1071496 L13.2290201,21.3456055 L13.1853858,21.6582186 L13.0500931,21.846363 L12.8078433,22.1233387 L12.7071387,22.2966778 L12.5701166,22.6804347 L12.5476343,22.8641243 L12.4016991,23.2566595 L12.3431654,23.6343894 L12.3821435,23.9054693 L12.3826757,23.9053382 L12.4078186,24.2328876 L12.7522363,24.6581777 L12.8438948,24.932271 L13.0649926,25.4609356 L13.2830307,25.8270048 L13.4470582,26.0105635 L13.5012019,26.2534741 L13.510248,26.7913101 L13.6517932,27.4905625 L13.7555575,27.8237457 L13.8488124,28.2727504 L14.0141701,28.6134017 L14.3270595,28.967417 L14.3278576,28.9663689 L14.6293063,29.5792792 L14.6293063,29.5807204 L14.8414911,29.9866196 L15.1181959,30.4385067 L15.1287054,30.8133542 L14.9932796,30.9021856 L15.1303018,31.2324863 L15.127242,31.5229571 L15.1828491,31.6576454 L15.2024047,31.5880739 L15.3843913,31.8117246 L15.5273998,31.820765 L15.7063268,32 L15.8988229,31.9880772 L16.1588989,31.7984916 L16.5186152,31.7184386 L16.9533611,31.5213849 L17.127765,31.5479819 L17.3834509,31.4873197 L17.8408121,31.5836193 L18.0498041,31.488761 L18.3054901,31.5627871 L18.3595007,31.4250854 L18.5747452,31.3999296 L19.0154775,31.2073306 L19.3343532,30.9836799 L19.6322101,30.6903266 L20.1088608,30.1895692 L20.3480509,29.8445942 L20.4653844,29.5985391 L20.6444443,29.3570697 L20.7271897,29.2889395 L21.0129407,29.0489113 L21.1228245,28.8370524 L21.1723121,28.4489719 L21.2776728,28.111203 L21.2763425,28.111203 L21.2791361,28.111203 L21.3153206,27.8682924 L21.2084966,27.8371097 L21.1723121,27.6445107 L21.3573585,27.474316 L21.8642073,27.228261 L22.2118178,27.0743128 L22.387685,26.9128964 L22.4510078,26.72449 L22.3515005,26.6475815 L22.4193464,26.438736 L22.4313192,26.0002129 L22.3576199,26.0224863 L22.3515005,25.8891082 L22.2688881,25.6283789 L22.0688092,25.2950647 L22.1049937,24.9810103 L22.2779343,24.8788149 L22.5725983,24.5690843 L22.7352955,24.4891622 L23.2119462,24.0226009 L23.6873997,23.8136244 L24.0723919,23.6491946 L24.341647,23.3825695 L24.5055414,23.0848926 L24.6304577,22.7781754 L24.5566254,22.5707711 L24.5401295,21.9070251 L24.4874492,21.5367633 L24.5055414,21.1175001 L24.4364983,20.9293558 L24.2829803,20.837511 L24.1085764,20.4242747 L23.9610448,20.1635454 L23.9880501,19.9634782 L23.9639715,19.8376993 L24.0799747,19.5857483 L24.0678688,19.477526 L23.7971504,19.3264603 L23.7730717,19.0908868 L23.9670312,18.5799098 L24.1371781,18.4436492 L24.2197905,18.1679837 L24.3550832,18.0021127 L24.413883,17.7102007 L24.5732543,17.6805902 L24.6770186,17.5088234 L24.9718157,17.3429524 L25.066667,17.2450806 L25.1643119,17.028898 L25.6261961,16.5281406 L26.0187712,16.2140863 L26.6505363,15.8051736 L27.07158,15.4704182 L27.5679193,14.9059851 L27.9275026,14.4423063 L28.2900126,13.8348987 L28.5502216,13.3032206 L28.7532272,12.8365283 L28.872024,12.3846412 L28.9623522,12.2335754 L28.9607558,12.011366 L29,11.7668831 L28.9893575,11.6498825 L28.8299861,11.6513237 L28.6299072,11.7964936 L28.4057497,11.8380268 L28.2119233,11.9001302 L28.0778278,11.9091706 L27.8373074,11.9238448 L27.6868492,12.0010154 L27.4777242,12.0290536 L27.1063011,12.1594183 L26.6473435,12.2084197 L26.2487821,12.3165109 L26.0399231,12.3149387 L25.8502206,12.1387172 L25.7674753,11.9655091 L25.6307192,11.8868972 L25.4741415,12.1121201 L25.3810197,12.037963 L25.280182,12.0677045 L25.0440517,12.0602363 L25.0366019,11.9328851 L25.0049405,11.8157535 L25.1462196,11.6186998 L25.2952145,11.4321277 L25.4757379,11.4692063 L25.6035808,11.3655696 L25.3959192,11.2380874 L25.2636862,11.0927865 L25.0351386,10.8468625 L24.8004716,10.6039519 L24.2259099,10.2009352 L23.9941696,9.9922207 L23.8782994,9.5966721 L23.633256,9.09591464 L23.4015156,8.93593953 L23.2421443,8.82771723 L23.0871629,8.30638967 L23.0254365,7.85293034 L23.117361,7.7730083 L22.9819353,7.33762969 L22.908103,7.24578485 L22.4162867,6.84420934 L22.4027175,6.55229735 L22.4869262,6.47381652 L22.1080534,5.97004561 L21.9726277,5.7124608 L21.8176464,5.46352328 L21.4987706,4.74055634 L21.240025,4.26954037 L21.065488,3.77035515 L21.1076589,3.72724965 L21.4085755,4.40422866 L21.5994752,4.61464637 L21.739424,4.76584315 L21.8386653,4.68290766 L21.9529391,4.43986603 L22.0434003,4.08440947 L22.1620641,3.89325166 L21.8853592,3.07110278 L21.6776976,3.19255808 L21.3484454,3.16438883 L21.0113443,3.05027064 L20.9136995,3.20893555 L20.7978293,2.96877636 L20.4985091,2.90811422 L20.1254897,2.94807524 L19.9524161,3.08590801 L19.627554,3.23841499 L19.4321312,3.16438883 L19.0140141,3.02066018 L18.6077369,2.89330899 L18.0468774,2.90064609 L17.9445765,2.74067098 L17.5248631,2.68289128 L17.3909007,2.59995578 L17.234589,2.59851456 L17.0901172,2.37918751 L16.5200785,2.27856435 L16.2298045,2.34512238 L15.9259613,2.57479999 L15.7935952,2.81194573 L15.8912401,3.18364874 L15.6896979,3.404417 L15.4836326,3.52875474 L15.0339872,3.29029881 L14.4398699,3.08892146 L14.060731,2.99406317 L13.8637118,2.56143598 L13.3041827,2.34368116 L12.9523152,2.26074567 L12.7747186,2.30372014 L12.2798426,2.13326346 L12.1190079,2.05622385 L12.0121838,1.82078137 L11.7940127,1.81187203 L11.714327,1.54079218 L11.9924952,1.2874 L12.0482353,0.849007935 L11.9023001,0.723097962 L11.9037634,0.485952227 L12.1159481,0.232691064 L12.0857501,0.133378098 L11.7277631,0.324535904 L11.739869,0.0623653977 L11.4450719,0 L10.984784,0.20897649 Z M12.9146825,18.6243255 L12.9145343,18.6243255 L12.9146825,18.6243255 Z" id="Fill-3"></path>
            </g>
        </g>
    </g>
</svg>