<?xml version="1.0" encoding="UTF-8" standalone="no"?>
<svg width="83px" height="61px" viewBox="0 0 83 61" version="1.1" xmlns="http://www.w3.org/2000/svg" xmlns:xlink="http://www.w3.org/1999/xlink">
    <!-- Generator: Sketch 46.2 (44496) - http://www.bohemiancoding.com/sketch -->
    <title>Fill 1</title>
    <desc>Created with Sketch.</desc>
    <defs></defs>
    <g id="Page-1" stroke="none" stroke-width="1" fill="none" fill-rule="evenodd">
        <g id="mm-landing-1440-edits" transform="translate(-610.000000, -2367.000000)" stroke="#83949F">
            <g id="Page-1" transform="translate(611.000000, 2368.000000)">
                <path d="M64.2742853,0.0609414571 L62.6398303,0.455403525 L61.5500237,1.54036545 L62.2734166,2.05696542 L62.2922855,3.24035162 L61.5597131,3.92167201 L60.3714822,6.14310287 L60.3855064,7.04983015 L58.5302342,8.33648535 L56.9475412,7.57076487 L56.3039586,9.09736112 L55.3737727,11.0842056 L55.712138,11.8874089 L56.4589896,11.6382884 L57.759924,11.9435057 L58.77451,11.2203677 L59.8311686,11.8448264 L61.0242442,13.2023675 L60.8786477,13.8834329 L59.840603,13.6672054 L57.9289792,13.9209157 L57.003638,14.465819 L56.0410689,15.7152464 L54.0307658,16.4429741 L52.720397,17.4295117 L51.3677006,17.0534086 L50.6256937,16.8846084 L49.9351939,18.0774291 L50.3579593,18.7819531 L50.569342,19.3829532 L49.6485905,19.9936427 L48.7046354,20.9567217 L47.16427,21.5857701 L45.1914497,21.6518113 L43.0641083,22.2668355 L41.5329224,23.2110456 L40.9505362,22.6663973 L39.3581538,22.6663973 L37.4093021,21.5903598 L36.1081127,21.3228804 L34.3561096,21.5720009 L31.6369477,21.1726941 L30.1853171,21.2147667 L29.4104171,20.1489286 L28.809417,18.4718911 L27.9967793,18.2699429 L26.4049068,17.1194498 L24.6294451,16.8608948 L23.065366,16.5413984 L22.5910936,15.7292706 L23.0982591,13.5075847 L22.1917868,11.9483504 L20.312801,11.2106783 L19.2046354,10.1634541 L18.8570906,8.76868523 L18.3402357,8.93315067 L17.3401838,10.2621334 L16.2457874,10.4452128 L16.184591,12.4131884 L15.4520186,13.2870226 L12.8407154,12.6526194 L11.8916606,16.0625362 L11.2154399,16.4807119 L8.60898141,17.2227187 L9.79236761,20.3929494 L8.89074003,20.8628871 L8.99400903,21.8818079 L8.81092967,22.2811147 L6.73484036,23.2345042 L6.26515767,23.9293389 L4.57460595,24.1361318 L4.0766199,25.2399627 L2.681596,25.009711 L1.77053397,25.3480764 L0.511927136,26.1607141 L0.695006493,26.5597659 L0.319413328,26.9493833 L0.652678954,28.5088726 L1.08462384,28.3395625 L1.88323741,28.7202553 L1.83632014,29.3681727 L2.03367867,30.3123828 L2.26826503,30.7866552 L3.24077849,31.5523757 L3.63039584,32.8015481 L5.79547497,33.4545651 L7.20936778,35.3287061 L7.07779543,36.6153613 L7.60382984,37.4185646 L7.56150231,38.2123335 L6.61754718,38.0055405 L6.98855061,39.7103714 L8.28030552,40.6828849 L10.111864,41.7441332 L10.6565124,41.3825642 L11.7136809,41.8474022 L13.0426637,42.8293501 L13.7846705,43.0450675 L14.2263048,43.7636158 L15.2503253,44.0593986 L16.3210081,44.7126706 L17.8096115,45.0553707 L19.3456422,45.2009672 L20.1485905,44.8911602 L20.261549,46.0559325 L21.1302835,44.9566914 L21.8393973,44.5810983 L22.7790176,44.9240533 L23.4738522,44.9615361 L24.0516486,45.3605879 L25.1131519,45.1772536 L26.3108173,44.069088 L27.8279791,43.1156984 L28.9361447,43.4818572 L29.8755101,42.847964 L30.4905343,43.7827397 L30.0445652,44.4071984 L31.4630478,44.6282705 L32.233358,44.5153121 L32.6749923,45.3888913 L33.247689,45.7412808 L33.2854268,46.8683153 L33.2334099,48.0754151 L31.9844925,49.2871047 L31.8246168,50.9921905 L33.2147959,50.7525045 L33.5297026,52.067463 L34.365544,52.3446319 L33.9805164,53.5234284 L34.9573646,54.0543075 L35.5257266,54.3126075 L36.4931403,53.9041213 L36.5306232,54.4865074 L36.6481713,54.8151833 L37.3526954,54.8526661 L37.1553369,53.2416698 L37.8364023,53.0351318 L38.5409263,52.687587 L39.5929951,52.6970214 L40.8750606,52.532556 L41.9977603,51.7716802 L42.6316535,52.3068941 L43.8341636,52.5654491 L43.6273706,53.3824216 L44.2523393,53.9556283 L45.5767323,54.322042 L46.201191,54.0920453 L47.9672183,54.5426041 L47.6571563,55.0875075 L48.0049561,56.1020935 L48.7329388,56.0222831 L49.1840076,54.5426041 L50.5785215,54.3266317 L52.4197694,53.6218527 L53.166366,52.9175836 L53.6222795,53.3780868 L54.4252279,52.7485284 L55.9092416,52.584318 L57.7410551,51.3866526 L59.5539997,50.0620046 L60.7753787,48.3337151 L61.8412167,46.4126568 L62.8042957,44.8110949 L63.5414579,44.6795225 L63.8749785,43.4961363 L64.0771817,42.2701676 L63.3020268,41.8007399 L62.9873751,40.9881021 L63.814037,40.5699264 L63.8374957,39.4286128 L62.9450475,38.2403819 L62.1415893,36.8078752 L61.6252443,35.2534855 L60.2067617,34.3799063 L60.8832374,33.2572066 L62.1655579,32.4448238 L62.7808371,31.5663999 L64.6452887,31.1109963 L64.4290613,30.2465966 L63.5789407,30.204524 L62.4095787,29.5609415 L60.9347444,30.7397379 L59.89211,30.2606208 L59.8497825,29.5188689 L58.77451,29.2462897 L58.0791654,28.1144106 L58.7507964,27.3254864 L60.0422963,27.2454211 L60.8549341,26.146435 L62.3435375,24.9533593 L63.4899509,24.3431798 L64.1847855,25.2493971 L63.1421511,26.4001452 L63.419575,27.0623417 L62.7193857,27.8466761 L64.1378682,27.3864279 L65.1055369,26.592659 L66.9465299,26.094928 L68.0174677,24.9910971 L69.4688433,24.0611662 L70.3750606,22.8211733 L70.9997743,23.3706663 L72.1364982,23.4364525 L71.9297052,22.5111113 L73.963467,21.7504905 L74.4849117,20.7499287 L75.3350323,21.8019975 L75.3253428,20.8955252 L75.9972288,20.848608 L76.1851528,18.7115772 L75.837353,17.1337289 L76.9692322,16.4761222 L78.5662044,16.804798 L79.4538078,14.9778293 L79.9048766,12.883126 L80.4168868,12.1737573 L81.1073867,10.4077299 L78.9328731,10.9903711 L77.7913045,11.765271 L75.7904358,11.765271 L75.2598116,9.90999888 L73.7003223,8.48692661 L71.4082605,7.83875429 L70.9153742,5.81442697 L70.4553809,4.53236151 L69.9619846,3.62104449 L69.1493469,1.45571037 L67.994009,0.652762051 L66.0214437,0 L64.2742853,0.0609414571 Z M46.9949598,56.7548555 L46.3467875,57.3844139 L46.3845253,58.5726448 L47.4646425,59 L48.6016214,58.3378035 L48.9068387,57.5394449 L49.4843801,56.9287554 L49.1883423,56.3981313 L48.4323113,56.3649832 L46.9949598,56.7548555 Z" id="Fill-1"></path>
            </g>
        </g>
    </g>
</svg>