<?xml version="1.0" encoding="UTF-8" standalone="no"?>
<svg width="70px" height="69px" viewBox="0 0 70 69" version="1.1" xmlns="http://www.w3.org/2000/svg" xmlns:xlink="http://www.w3.org/1999/xlink">
    <!-- Generator: Sketch 46.2 (44496) - http://www.bohemiancoding.com/sketch -->
    <title>Page 1</title>
    <desc>Created with Sketch.</desc>
    <defs></defs>
    <g id="Page-1" stroke="none" stroke-width="1" fill="none" fill-rule="evenodd">
        <g id="mm-landing-1440-edits" transform="translate(-975.000000, -2064.000000)" stroke="#83949F">
            <g id="Page-1" transform="translate(976.000000, 2065.000000)">
                <polygon id="Fill-1" points="37 37.76976 37.1559344 38.7202551 38.3280486 40 39 38.159171 38.6440439 37"></polygon>
                <polygon id="Stroke-2" points="37 37.76976 37.1559344 38.7202551 38.3280486 40 39 38.159171 38.6440439 37"></polygon>
                <polygon id="Fill-3" points="16.1401941 57.9744687 16.5607765 58.5582332 16.5089046 59.5008116 16.5533662 59.9440296 16.7598521 60.4153188 16.7856879 60.967575 16.5679864 61.744973 16.4942844 62.2619016 16.0849176 62.7228789 16 63.5527909 16.2471422 64.0277083 16.7119858 64.1438119 16.8079187 64.9107071 16.649299 65.8742911 17.1840394 65.7406191 17.7299954 65.9130559 18.1433677 65.593007 19.1097057 65.7830122 19.4049145 66.4865087 19.7848405 66.8978364 20.2939455 67 20.688692 66.5394046 21.3341858 66.1099356 22.3229549 66.1311322 23.6323679 66.1133729 24.3665845 65.1673573 25.1486674 64.921019 25.3699738 64.1121126 25.9676013 63.5493536 25.5656447 62.8282888 25.9639963 61.7871751 26.6022801 61.0731759 26.6944076 60.6370233 28.0186412 60.3626139 29 59.4866805 28.9447235 58.7163481 27.7456632 58.8889759 26.5800493 58.2838238 26.2037282 58.5721733 24.3002927 57.9637749 23.8869204 57.4397808 22.2158065 57.3973877 21.3564166 57.4676609 20.2570944 57.2358355 18.8663688 57.2461474 17.6010168 57"></polygon>
                <polygon id="Fill-6" points="35.6737143 60 36 59.0602048 35.8350476 58 35.2001905 58.4715749 35 58.9299082 35.2281905 59.7528249"></polygon>
                <polygon id="Stroke-7" points="35.6737143 60 36 59.0602048 35.8350476 58 35.2001905 58.4715749 35 58.9299082 35.2281905 59.7528249"></polygon>
                <polygon id="Fill-8" points="19.5757958 38.5333108 20.1262645 37.637226 20.4614528 38.1617787 20.0898568 39.004431 20.3340259 39.5098562 21.5730751 39.8354406 21.5877173 39.8622607 22.2729341 40.9918266 22.1233459 42.0413478 20.6037199 41.8804267 20.4104029 43.052198 20.9717543 44.0019232 19.9038609 44.541861 20.1917588 45.231285 21.7881576 45.5184064 21.7954787 45.5184064 20.8807351 45.8899385 19.3826767 47.6669309 19.9258242 48 20.6436892 47.360474 21.5877173 47.5519576 22.2620514 46.7629455 22.7393089 47.0962226 24.477777 46.6330028 25.8446489 46.6481802 26.763152 45.7558377 26.3549504 44.8637031 26.8761346 44.3543277 27 43.2322466 25.7607529 42.8952272 25.4692934 42.1906259 24.8386881 40.1188196 24.139027 39.8240056 23.227845 37.6064556 23.1475106 37.4074873 22.0906977 37.2850293 23.0092009 35.5500344 23.2751354 33.9339631 22.1563899 33.9225282 21.1138236 34.1982146 22.207242 32.0039503 20.9826371 32.160921 20.1662338 32 19.3717939 33.6505841 19 35.7032629 19.5176226 36.6951934"></polygon>
                <polygon id="Fill-14" points="53.570371 0.651687678 51.6460826 0.50955673 50.0382501 3.12728752 48.3024451 2.96258642 45.9866756 4.30723871 43.0833777 8.01118341 41.3136376 10.1350142 38.775654 15.2885319 36.8440062 18.7716551 34.7578103 21.2397316 31.9712412 23.1799512 31 24.6329809 31.3350588 29.5994307 31.7116167 31.794022 33.1726693 32.8090687 34.5809794 32.3446523 36.6669709 29.99634 37.3706148 31.2431883 37.367344 31.250915 38.1693182 34.0599837 39.0542904 36.2360716 39.3895537 38 40.6132645 37.9139894 41.2116276 36.4347296 42.4921696 36.6181375 43.0907372 34.8352989 43.4938708 31.5246035 44.5930845 31.0526637 45.5610549 28.7191948 44.5519943 27.543107 43.7986741 26.0187068 44.5708017 22.8688491 46.6077303 20.8690525 48.2873174 18.947743 48.1217301 17.4420496 49.1457139 15.6854412 50.9606329 14.9589264 52.429045 16.1649044 52.5422985 17.2287515 51.8343616 17.749085 49.4206707 20.3784059 48.4641483 21.8540057 47.959618 23.1947946 48.4717122 25.2210248 48.2382545 27.3633591 49.2587631 28.0638471 49.8724583 29.2135014 51.5896603 28.7716551 53.4460783 27.9965433 55.3623939 27.8277755 57.621741 25.0524603 58.6007505 23.7602684 59 22.5994307 57.4371418 21.0038634 57.8703264 19.453233 56.9176882 17.6331842 57.6293049 15.4758032 56.4017099 12.49451 57.3770397 10.4420496 55.7579636 8.57299715 55.9123073 6.55063034 56.3604153 4.45709638 55.1369089 3.35502237 56.3642994 4.45709638 55.9159871 6.55063034 56.7672286 6.28100854 58.5631356 5.08621391 57.4072952 3.17242782 58.7665423 2.33712891 55.4644038 0"></polygon>
                <polygon id="Fill-17" points="68 48.5911689 67.9887961 48.1183441 66.4391933 47.597206 65.823793 47.6119628 65.1745773 46.8522897 64.3678957 47.1092201 63.0321858 46.5359278 63.0545936 46.2118841 62.6795681 45.4932472 61.8390711 45.4152179 61.7526991 44.8975163 62.0152781 44.5550772 61.3436545 43.5981075 60.2517824 43.7618475 59.9327765 43.6763388 59.6665309 44.0634527 59.2762273 43.9927008 59.0173151 42.9017068 58.7696068 42.3284144 58.9720921 42.1644722 59.8201263 42.2241059 60.2291709 41.8442694 59.9252394 41.3789241 59.2161336 41.0698395 59.2798941 40.7496367 58.8523121 40.4255931 58.1916887 39.252729 58.4169892 38.7613066 58.3157466 37.9011659 57.287635 37.4616956 56.7359951 37.6814308 56.5858627 37.223565 55.4789163 36.754379 55.1375025 35.6409465 55.0511306 34.7138947 54.5447138 34.2707858 54.9949073 33.6526165 54.6836423 31.8057902 55.4302302 30.6367669 55.2725606 30.2791667 54.1843553 30.3424391 53.0437971 30 51.7192911 30.301403 50.3872479 30.8712589 50.4811571 32.029164 51.1489102 32.7366828 51.535547 32.4872319 51.4114891 33.6489778 51.2090039 35.1345652 50.3646364 35.1717604 49.5316765 33.7272092 48.5410471 34.3900532 48.0232227 35.5962717 47.9859442 37.014948 48.2108372 38.5638078 49.3104502 38.8840106 49.7757181 39.170859 49.6630678 39.6661221 49.7492361 40.1203492 47.8132002 40.150065 46.5188429 39.9452889 45.5017315 39.9230525 45.4231004 39.4835823 44.3762477 39.1783385 43.048075 39.7890283 41.4082298 40.6156124 40.6879201 41.1331119 40.1925036 40.5709376 39.0030556 39.8670575 38.4139336 40.3548412 37.3444693 40.690003 37.355877 40.0570768 36.2902832 39.640045 36.2715421 38.9400057 35.9863516 38.0501492 36.7441434 36.7133429 37.0556121 36.918119 37.3145243 36.2106002 36.7441434 35.9275927 36.6166225 35.3953364 36.928295 34.7696876 36.9655734 33.7716818 36.1177429 34.3190992 35.7498472 34.8515576 34.8231819 34.9708251 34.5229171 35.5443196 34.3467101 36.0579783 34.3766551 37.9644383 34.8044408 38.977201 35.5999185 39.2155337 34.8044408 38.977201 34.8531269 40.0010818 35.093298 40.6677666 34.3766551 41.5351847 34.1815034 41.1480709 33.3035241 41.2448999 33.0971685 41.6170548 32.222856 41.5687413 30.7856997 42.2948578 29.8627012 44.8045281 29.3224689 45.2662347 28.4799348 45.5931084 27.5587696 45.9213971 27.2438378 47.2656829 24.7934406 48.520417 23.7991444 47.8316979 24.133021 49.6338494 22.3658586 49.2279358 21 49.5705771 21.1051131 50.7137253 22.7148095 51.309254 23.4915461 52.0875247 24.575881 53.6737819 24.3770625 56.6079635 23.8329599 57.471743 24.2532084 58.0264377 26.189448 58.6706841 26.5720106 58.3652382 27.7539214 59.0058459 28.973518 58.8233061 29.0935017 57.9706448 30.6243634 57.5089382 32.6993278 57.8962542 33.652475 57.0882678 33.7716439 56.4672684 33.6600122 57.0957472 34.0990018 56.9912366 34.7068649 56.3211152 35.1908739 56.1238185 36.0462416 56.6041227 36.5718069 56.7717036 36.8981463 58.1865391 37.6147892 59.0020051 38.5752699 59.9143001 39.3972296 60.5399489 40.1737625 60.6290962 40.6278264 61.1839931 41.3031167 61.4334441 41.6145855 62.0218976 42.0499083 62.1931171 42.372581 62.8745588 42.7816256 63.6526274 42.5526584 63.9392736 42.3387655 64.6506332 42.3350988 65.0527061 42.7740884 64.9522384 43.3367285 63.8127288 43.7759218 63.7346996 43.8997759 63.0346602 43.1381137 62.5355562 43.58077 61.6568179 44.4962314 61.8803938 45.0816867 62.5133199 45.2768385 62.0255362 45.1680587 61.7724466 44.2674679 61.0572462 43.494398 60.6404165 42.5526584 60.137876 42.8490528 59.8621458 42.594011 59.5530612 41.7683846 59.5605407 40.5976777 58.4248719 40.0688531 57.2445283 39.0818904 56.5184119 38.7366062 55.7775386 38.8641271 55.3605068 38.8042371 54.6269108 39.6598085 54.0982932 40.4964351 54.3141875 40.2638012 54.4482118 40.2000407 54.9843089 40.5113058 55.4797742 40.8341821 54.8430073 41.5096761 55.0738606 41.5320839 55.5727624 42.0124262 56.1834523 41.7985333 56.2950381 42.683846 57.3563163 43.6445305 57.7806255 44.2560603 58.2944863 45.243023 58.8160287 45.7007537 59.0949933 45.9932777 59.5530612 46.2147077 59.6610083 46.3913221 59.8807435 46.2485231 60.3127342 46.1584844 61.254745 46.2485231 61.9064709 46.8337747 62.3643367 46.8527195 62.6623032 47.0327969 62.7552914 47.5192504 62.1017461 47.0289265 62.773889 47.1002241 63.1573642 47.6331228 63.5855142 47.5693624 63.8238469 48.0460379 64.5275249 48.5037686 64.5091295 48.9724995 64.404821 49.1827256 64.4755728 49.535547 64.5052886 49.3890813 64.7363441 49.1827256 64.6728695 48.9276838 64.50165 48.7062538 64.5610815 48.6125484 64.7137035 48.4023223 64.6767103 48.2672642 64.8554094 48.0495009 65.0490674 48.2334488 65.398986 48.3911184 65.4325426 48.5449175 65.5738442 48.6799756 65.8495744 48.4848238 66.0616279 48.627419 66.4378258 48.860053 66.6389633 48.9539621 66.5384956 48.9089428 66.2255701 49.1491139 66.2255701 49.3591363 66.6128861 49.3214504 66.8884142 49.4903239 67 49.5881035 66.5085776 49.8019963 66.515855 49.9708698 66.9814024 50.1884294 66.9814024 49.7380322 65.510774 50.1132614 65.7675022 50.4585455 65.6969525 50.1470768 65.0266289 50.6123447 64.9483976 51.1226319 65.3767497 51.1075575 64.6318334 50.5860664 64.2485604 50.0006111 63.6342319 50.3984518 63.3397019 49.8730902 62.7069779 49.6367896 61.8951506 49.8356081 61.5971841 50.3909146 62.2972235 50.9761662 62.2972235 51.509065 62.0774883 50.7810145 61.3105379 52.0568344 60.9531399 52.6048075 61.0833233 53.246486 61.1207207 53.4976574 60.9680988 53.8239967 60.1012872 53.5015278 60.9719396 53.2501528 61.1245616 53.2350784 61.4073669 53.5652882 62.0441339 54.4432675 61.3068993 54.8936647 60.8787493 56.1430026 60.8043588 56.334284 60.4655583 55.4151558 60.0186086 55.2913017 59.4823093 54.949888 58.6781636 55.3326543 57.6617623 55.8804237 57.0696701 56.1731514 55.315832 56.4921573 55.4498563 57.0022408 55.137133 56.979833 54.7536578 57.7940517 53.6551843 58.1841516 52.8247593 59.1599104 52.6385808 59.231208 53.2009572 60.8671827 53.5807937 61.0321858 53.6626638 61.2010593 53.5100419 61.350988 53.8114449 60.1654105 54.418496 59.9777959 54.7051422 61.1260949 55.137133 60.8971277 55.8260542 61.4787126 56.1201799 62.9083316 55.2747959 64.0602974 55.0217063 64.2666531 54.4928866 63.1935221 54.5822361 62.6795681 54.224838 62.1201874 53.6776227 62.615604 53.2939454 63.5237319 52.7279303 64.5066205 52.6499011 65.2083927 52.1582766 66.0488898 52.0355726 66.0827052 51.3539288 66.6229375 50.9221401 67.6398452 50.8067135 67.8048482 50.2890119 67.5760847 49.4215938"></polygon>
                <polygon id="Fill-20" points="6.70114943 15.4752294 5.40835321 14.6959525 3.84856864 16.1869401 2.24842767 14.3261738 0.692022699 14.7356719 0 16.5131139 2.15320249 17.1371829 2.19713728 17.9205613 0.380701945 18.4293578 2.61461722 19.7018888 1.60391817 20.8310847 4.46743295 21.6302213 5.81867635 22 6.70472782 21.5430113 9.66724499 19.8011873 11 17.8091743 9.84298417 15.9801403 10.0773693 14.1990286 8.37464758 14"></polygon>
                <polygon id="Fill-23" points="16.6404182 45 18.6940818 44.0217951 19.5703774 42.5183277 19.3801319 41.2920547 20 40.0913414 18.7602638 39 17.7892942 39.0731127 18.0288958 40.0219933 17.7901916 40.9560135 17.7850316 40.9562116 18.0246332 40.0182287 17.7850316 39.0693481 16.9089604 39.8979592 15.3347243 41.2664949 15.9379908 43.0073311 15 44.7519318"></polygon>
            </g>
        </g>
    </g>
</svg>