<?xml version="1.0" encoding="UTF-8" standalone="no"?>
<svg width="462px" height="314px" viewBox="0 0 462 314" version="1.1" xmlns="http://www.w3.org/2000/svg" xmlns:xlink="http://www.w3.org/1999/xlink">
    <!-- Generator: Sketch 46.2 (44496) - http://www.bohemiancoding.com/sketch -->
    <title>Blank_globe</title>
    <desc>Created with Sketch.</desc>
    <defs></defs>
    <g id="Page-1" stroke="none" stroke-width="1" fill="none" fill-rule="evenodd">
        <g id="mm-landing-1440-edits" transform="translate(-490.000000, -9975.000000)" fill-rule="nonzero">
            <g id="Blank_globe" transform="translate(0.000000, 8368.000000)">
                <g transform="translate(491.000000, 1608.000000)" id="Shape">
                    <path d="M460,230.50345 C460,357.247869 357.250958,460 230.50345,460 C103.755942,460 1,357.250169 1,230.50345 L1,230.50345 C1,103.752131 103.753642,1 230.50345,1 C357.253258,1 460,103.752131 460,230.50345 Z" stroke="#12AAD1" stroke-width="0.75"></path>
                    <path d="M213.233925,445.860107 C212.07193,445.685497 211.075606,445.120313 211.004275,444.626351 C210.942149,444.120901 210.859314,443.358132 210.808692,442.921607 C210.684439,441.855568 205.30935,437.154886 201.781948,435.022808 C200.00099,433.956768 198.574382,432.318652 197.989933,430.680536 C197.463009,429.233112 196.754307,428.045305 196.416063,428.045305 C196.084722,428.045305 195.815507,427.551343 195.815507,426.944804 C195.815507,426.331372 195.086097,425.334257 194.197919,424.700148 C193.316643,424.086716 192.810428,423.209071 193.091147,422.758762 C193.406382,422.253312 193.141769,422.120057 192.405455,422.393459 C191.535685,422.735787 191.220451,422.347509 191.220451,420.998878 C191.220451,419.831749 189.899688,417.77319 187.686146,415.45042 C184.034491,411.66644 182.467523,407.014006 184.119627,404.91639 C184.540706,404.390263 185.102145,403.020954 185.382865,401.872205 C185.658982,400.72805 186.917618,399.023307 188.169351,398.090522 C190.88911,396.087104 190.967343,395.347309 188.843538,391.756319 C187.95536,390.253756 187.433038,388.509954 187.686146,387.85287 C187.93235,387.214165 186.715132,383.758728 184.97329,380.2022 C182.62399,375.368264 180.72108,372.719248 177.513514,369.792236 C173.643266,366.270171 169.761513,360.939975 169.761513,359.141033 C169.761513,358.775731 170.283835,358.456379 170.912002,358.456379 C171.692035,358.456379 172.069395,357.659147 172.085502,355.977378 C172.101609,354.608069 172.612427,352.825211 173.235992,352.005004 C175.235544,349.358286 174.055141,343.931595 171.933638,346.036103 C171.411315,346.566825 170.541545,346.989565 169.984708,346.989565 C168.574207,346.989565 168.749081,344.744909 170.210204,344.188914 C172.428348,343.336543 169.664871,342.422138 164.784493,342.401461 C162.255716,342.389973 159.800571,342.121166 159.32887,341.817896 C158.857169,341.496246 157.559416,339.46296 156.46415,337.27804 C154.710803,333.80652 154.075733,333.22755 151.565364,332.756563 C147.711223,332.035148 142.982709,332.044338 136.054459,332.78643 C130.667865,333.369995 130.060406,333.2735 126.47548,331.355089 C123.509516,329.77441 121.167119,329.211523 116.132575,328.882981 C108.6774,328.382126 108.053835,327.989254 101.357983,319.458643 C99.2065673,316.726917 95.8747484,313.046325 93.9603332,311.270359 C91.6731592,309.149768 90.7642722,307.842491 91.3257113,307.445024 C92.6970952,306.491562 91.6570524,302.266463 89.4389078,299.775975 C88.3206316,298.519243 86.9676554,296.848962 86.43843,296.063217 C85.9046027,295.26139 84.7702197,293.579622 83.9165561,292.327485 C82.7660662,290.622741 82.5129584,289.444125 82.9225328,287.739381 C83.2308641,286.471162 83.5115837,283.730246 83.5299915,281.625738 C83.5576033,279.185795 84.0131973,277.396044 84.7886275,276.656249 C86.4016144,275.13071 87.9846885,271.305376 87.0067721,271.305376 C86.5971977,271.305376 86.2589536,270.273799 86.2589536,269.00558 C86.2589536,267.748848 86.55578,266.717272 86.9216358,266.717272 C87.2874916,266.717272 87.5452014,267.319216 87.4991818,268.052118 C87.2920936,271.059543 88.8199442,269.903902 89.1006637,266.836741 C89.3077519,264.619656 89.1397804,263.677681 88.6013511,264.020008 C87.5797161,264.642631 87.5682112,264.810348 88.9372942,258.310725 C89.869191,253.871958 90.6952428,252.155727 93.3482725,249.081674 C95.1407359,247.002439 97.2070158,245.116192 97.9433293,244.881848 C98.6842448,244.645205 99.2801986,243.951361 99.2801986,243.321846 C99.2801986,241.290858 101.606489,238.614272 103.751002,238.189235 C104.94291,237.950295 106.318896,236.916421 106.907947,235.822812 C107.722494,234.30876 108.350661,233.977921 109.738152,234.320248 C110.844923,234.607435 111.54212,234.439718 111.54212,233.892913 C111.54212,233.410439 111.970103,233.079599 112.497027,233.171499 C113.023951,233.254209 113.974256,233.104871 114.604724,232.836064 C115.232892,232.571852 116.654897,232.03194 117.750164,231.629877 C119.289519,231.069288 119.857861,230.216916 120.228319,227.960773 C120.874895,223.894201 125.474553,219.221089 130.007484,218.021795 C134.305714,216.889128 137.51328,212.923646 136.984055,209.378606 C136.753957,207.791035 136.215527,207.083405 135.242213,207.083405 C134.473685,207.083405 133.636129,206.736483 133.376118,206.320636 C133.111505,205.900194 132.234832,205.553272 131.411081,205.553272 C129.64623,205.553272 129.579501,204.935244 131.10275,202.911148 C131.822957,201.962282 132.069162,200.565403 131.788442,199.074326 C131.440994,197.20646 131.827559,196.112851 133.68675,193.778593 C136.118886,190.727515 137.568503,186.785008 137.580008,183.221588 C137.58461,181.438729 138.028699,181.027477 140.725448,180.29917 C143.332458,179.603028 144.08948,179.660466 145.184747,180.652985 C145.914157,181.310069 147.020929,181.847684 147.639892,181.847684 C148.263458,181.847684 149.105616,182.194606 149.522094,182.605858 C149.931668,183.014813 151.988744,183.878672 154.078034,184.512782 C157.729689,185.622474 157.94368,185.606391 159.202316,184.096935 C159.927125,183.22848 160.746273,181.330747 161.010886,179.890215 C161.588432,176.82765 160.819905,171.920194 159.763755,171.920194 C159.365686,171.920194 159.034344,171.442314 159.034344,170.84956 C159.034344,170.2614 158.516624,169.588233 157.883855,169.340103 C157.214269,169.082783 156.737967,167.938629 156.737967,166.585403 C156.737967,164.398184 156.905938,164.269524 159.738444,164.269524 C161.39515,164.269524 162.934505,164.701454 163.183011,165.227581 C163.424614,165.753708 163.408507,165.351646 163.155399,164.347639 C162.789544,162.900215 162.948311,162.608433 163.880208,162.966843 C164.531385,163.219568 165.205572,163.012793 165.391952,162.507343 C165.610545,161.880126 166.201897,162.020274 167.274153,162.97833 C168.758285,164.290202 168.988383,164.297094 171.790977,163.067933 L174.745435,161.767549 L172.060191,161.098977 C170.587564,160.733674 166.79555,160.301745 163.634003,160.134027 C160.470156,159.977798 157.280998,159.803188 156.549286,159.76413 C154.471501,159.640065 154.970814,158.401714 157.30861,157.880182 C158.470604,157.622862 160.106601,156.876175 160.953362,156.225983 C162.195891,155.261034 162.278726,154.918706 161.413558,154.381092 C160.003057,153.517232 160.914245,151.279469 162.683699,151.279469 C163.705334,151.279469 164.071189,150.711987 164.04818,149.181853 C164.02517,147.336962 164.28518,147.107212 166.121362,147.302499 C167.987457,147.493192 168.217555,147.274929 168.143924,145.388683 C168.093302,144.088299 167.918428,143.778137 167.706738,144.586856 C167.515756,145.326651 166.830064,145.921703 166.183489,145.921703 C165.45868,145.921703 165.173359,145.489773 165.43567,144.789036 C165.801526,143.840169 165.626652,143.808004 164.368016,144.593749 C163.541964,145.115281 162.863175,146.25484 162.863175,147.139377 C162.863175,148.019319 162.262619,149.271455 161.521704,149.914755 C159.970843,151.265684 153.594828,152.359293 151.365179,151.653961 C149.084908,150.930249 149.354122,147.637934 151.781656,146.528242 C152.939049,146.00671 153.567216,145.220966 153.325613,144.598344 C152.725058,143.038343 155.212417,139.65183 156.579199,140.16647 C157.202764,140.412302 158.353254,140.042405 159.119481,139.341668 C159.929426,138.613361 161.282402,138.236571 162.350056,138.438751 C163.581081,138.675393 164.478463,138.314686 165.069815,137.384199 C165.615147,136.515745 165.654263,135.982725 165.17566,135.982725 C163.815781,135.982725 164.345006,134.457186 165.748604,134.367584 C167.023347,134.277981 167.023347,134.261899 165.748604,133.931059 C163.944635,133.460072 164.057383,132.619188 166.215703,130.291822 C168.070292,128.288403 170.534642,127.672674 170.534642,129.202808 C170.534642,129.809347 170.865983,129.790967 171.646015,129.13618 C172.258076,128.630731 173.146254,128.446931 173.611052,128.738713 C174.071248,129.0259 175.138902,128.649111 175.960352,127.902424 C177.156862,126.820302 177.651572,126.742187 178.399391,127.498064 C179.151811,128.249346 178.82047,128.911025 176.843929,130.689289 C174.692512,132.623783 174.556755,132.933945 175.88442,132.933945 C177.918486,132.933945 177.918486,135.318748 175.88442,137.145259 C174.110364,138.748913 174.31055,141.347384 176.738083,148.056079 C178.401692,152.68324 178.664004,157.870992 177.237396,158.371846 C176.710472,158.562539 176.507985,158.960006 176.781802,159.258681 C177.635466,160.184572 181.673685,157.627457 183.848111,154.764774 C185.730313,152.301856 186.280247,152.044536 189.674192,152.044536 C193.809053,152.044536 193.937908,151.881414 194.667318,146.009008 C195.240262,141.455366 195.879935,140.540962 199.324502,139.362345 C201.611676,138.572006 202.407815,138.553626 202.863409,139.26585 C203.206255,139.803465 203.459363,139.153273 203.459363,137.705849 C203.475469,134.962636 202.380203,134.530706 199.982582,136.348027 C199.163433,136.966054 197.460708,137.480694 196.190567,137.492182 C192.775913,137.526644 191.73587,135.355508 192.39395,129.588787 C193.107254,123.397029 194.310667,121.260356 198.061264,119.57629 C199.780096,118.802033 201.179091,117.899116 201.179091,117.572871 C201.179091,117.237437 202.391708,116.529807 203.87584,116.001382 C205.691313,115.344298 207.465368,113.736049 209.296948,111.075546 C210.801789,108.90441 212.858865,106.682729 213.8805,106.145115 C214.897533,105.58912 215.59473,105.012448 215.419856,104.833243 C215.244981,104.658633 214.352201,104.922846 213.436411,105.409915 C212.520621,105.896985 211.588724,106.117545 211.363228,105.89239 C210.75577,105.281255 215.732789,100.906819 218.940355,99.2457273 C220.491215,98.4439003 221.968444,97.4398936 222.237659,97.0125589 C222.502272,96.5806292 223.730995,96.2268145 224.973524,96.2268145 C226.20915,96.2268145 227.226183,95.9511147 227.226183,95.6202749 C227.226183,94.7173581 231.79823,93.3434541 235.001194,93.2814216 C236.957027,93.2423642 238.402043,93.7914663 239.82865,95.1148253 C240.951528,96.1532945 242.368932,96.9941789 242.97409,96.9941789 C243.58615,96.9941789 244.085463,97.3411012 244.085463,97.7615433 C244.085463,98.1819855 244.764252,98.5243128 245.601809,98.5243128 C248.314664,98.5243128 256.938736,102.505877 257.826915,104.171564 C258.326227,105.085968 259.527339,105.832655 260.636411,105.899282 C262.421971,106.004967 262.472593,105.91077 261.370423,104.693096 C260.714644,103.964789 260.173914,102.79766 260.173914,102.096923 C260.173914,101.389293 259.819563,100.812621 259.403086,100.812621 C258.982006,100.812621 258.634558,100.263519 258.634558,99.5834595 C258.634558,98.6345927 259.207502,98.4278179 261.128821,98.7081126 C262.493302,98.89421 264.219037,99.3077597 264.948447,99.627112 C265.930966,100.054447 266.99862,99.3904696 269.083308,97.0860788 C270.89648,95.0619828 272.794788,93.7937638 274.458397,93.4790065 C279.375591,92.5646022 276.499366,89.3389145 271.278443,89.9224791 C269.22827,90.1522289 267.244825,89.8489592 265.712372,89.0540248 C263.694413,88.0155555 263.257227,87.2711661 262.870662,84.1902208 C262.617555,82.1936948 262.212582,79.6963141 261.975581,78.6486549 C261.043684,74.4465305 261.464764,72.3052621 263.52184,70.8118882 C264.62631,70.0031688 265.544401,68.8314446 265.544401,68.2042276 C265.544401,67.5264656 266.087432,67.1726509 266.88127,67.3357732 C267.930517,67.5425481 268.156013,68.1881451 267.925915,70.2627861 C267.757944,71.7216975 267.589972,75.4390498 267.560059,78.5360775 C267.500234,83.4940788 267.695817,84.3303682 269.223668,85.5641248 C271.503939,87.404421 278.179081,88.65426 282.021718,87.9581181 L285.088924,87.3975285 L282.976624,85.5687198 C281.819231,84.5532256 280.87583,83.0437692 280.87583,82.2028848 C280.87583,81.3620004 280.392624,80.1397313 279.808175,79.4711593 C279.219124,78.8094798 278.494316,77.0978436 278.190586,75.6733946 C277.663662,73.1875014 277.718885,73.1093865 279.589582,73.5757786 C281.285404,73.9962208 281.566124,73.794041 281.780115,71.9721248 L282.019417,69.8745089 L283.738249,71.7308875 C285.137244,73.2288564 285.463984,73.3414338 285.463984,72.2914771 C285.463984,71.5838476 285.086623,71.000283 284.614922,71.000283 C284.115609,71.000283 283.90622,70.2030511 284.127114,69.0864669 C284.322698,68.0365102 284.221454,67.1726509 283.894715,67.1726509 C283.563374,67.1726509 283.080168,65.7137394 282.810954,63.9239882 C281.826134,57.4519355 281.529308,56.6271336 280.058982,56.2388564 C277.958187,55.6897543 278.149169,53.4221235 280.295983,53.3899585 C281.971096,53.3623885 281.973397,53.3394135 280.480061,52.5031242 C279.644805,52.0252445 278.694501,51.2578801 278.390771,50.8029754 C278.004207,50.2263033 277.82473,50.2194108 277.813226,50.7868929 C277.801721,51.2349051 275.59278,52.0436245 272.902935,52.5766441 C267.739536,53.6036258 266.08283,53.2498111 263.952123,50.653638 C262.946595,49.4428564 263.070848,49.3739315 265.479974,49.8449186 C267.295447,50.2102208 268.659928,49.9965535 269.95768,49.1487766 C271.069054,48.4204697 272.553186,48.1103074 273.664559,48.3906022 C274.759825,48.666302 275.507644,48.5146671 275.507644,48.0321924 C275.507644,47.4876853 276.658134,47.3751079 278.844065,47.7013527 C281.499395,48.0942249 282.274825,47.9540775 282.652186,46.9891282 C283.229732,45.4750768 285.510003,45.4475068 290.247721,46.8834433 C293.779725,47.96097 293.887871,47.94259 293.887871,46.3848862 C293.887871,45.5049443 294.488427,44.3378152 295.229342,43.7703331 C296.448861,42.8444413 296.386735,42.7502438 294.509135,42.7272688 C292.060893,42.6996989 291.508658,42.0265319 292.100009,39.7703885 C292.452059,38.430947 293.121645,38.0978098 295.698742,38.0541573 C297.440584,38.0150998 298.434607,37.817515 297.912285,37.6061451 C297.380758,37.3924778 296.952776,36.7468807 296.952776,36.1587212 C296.952776,33.3994257 289.088027,31.2122073 286.41889,33.2248158 C283.706035,35.2787793 278.565646,33.9875853 278.565646,31.2512648 C278.565646,30.4425454 278.225101,29.578686 277.801721,29.3213662 C276.425735,28.4735893 276.991776,26.6447807 278.643879,26.6447807 C279.605689,26.6447807 280.408731,27.2559152 280.650334,28.1703196 C280.868927,29.0066089 281.414259,29.7027509 281.856047,29.7027509 C282.300136,29.7027509 283.289558,30.274828 284.04658,30.9594825 C285.339731,32.1197192 285.473187,32.1197192 285.917277,30.9594825 C286.179588,30.274828 286.876785,29.7027509 287.468137,29.7027509 C288.738278,29.7027509 288.876337,28.4804818 287.705138,27.7498774 C287.244942,27.4695826 287.042456,26.6011282 287.244942,25.8268713 C287.507254,24.8182695 286.862979,23.9704926 285.00839,22.8768835 C282.389874,21.3352621 281.586832,19.7982357 283.360888,19.7293108 C284.923253,19.6672783 277.670565,16.1796759 274.750621,15.5731363 C273.271091,15.2698666 268.273363,13.1952256 263.63919,10.9620572 C258.998113,8.72888887 254.430668,6.67722288 253.482665,6.39692808 C251.542939,5.829446 251.144869,4.4670295 252.902818,4.4670295 C253.530985,4.4670295 254.055609,4.12010726 254.055609,3.70426006 C254.055609,3.28381787 254.573329,2.94149063 255.201496,2.94149063 C255.834266,2.94149063 256.347384,3.28381787 256.347384,3.70426006 C256.347384,4.12010726 257.295388,4.4716245 258.459684,4.4716245 C259.610174,4.4762195 261.59822,5.0207266 262.863759,5.6892986 C265.953975,7.31133241 273.204363,8.08329184 273.204363,6.78980029 C273.204363,6.19015324 273.710578,6.02703086 274.548135,6.35327562 C275.282148,6.63357041 279.851894,7.70420462 284.697757,8.74267386 C289.539019,9.7696556 294.198503,10.9367847 295.040662,11.3273595 C298.809667,13.0941357 302.624691,14.4060072 303.98457,14.4060072 C304.799117,14.4060072 306.483435,14.9321343 307.719061,15.5731363 C309.753127,16.6230931 309.976322,16.6230931 309.976322,15.5731363 C309.976322,14.9344318 310.330673,14.4060072 310.751752,14.4060072 C311.16823,14.4060072 311.515677,14.9275393 311.515677,15.5501613 C311.515677,16.1773784 312.118534,16.6989105 312.864052,16.6989105 C313.61187,16.6989105 316.106132,17.4180275 318.420918,18.2979693 C320.728801,19.1733162 323.846628,20.149753 325.346867,20.4622127 C328.414074,21.0894298 336.028016,25.0158544 336.028016,25.9762087 C336.028016,26.844663 327.298098,24.9101695 320.326129,22.4932012 C319.483971,22.196824 320.086827,22.750521 321.658397,23.7223628 C323.229966,24.6942046 324.527719,25.9256637 324.527719,26.4540883 C324.534621,26.9756204 324.893574,27.4075501 325.321557,27.4075501 C325.749539,27.4075501 327.569614,28.7378016 329.343669,30.3759179 C331.122327,32.0140342 336.200589,35.5016367 340.627675,38.1230822 C345.05476,40.7491228 349.75106,43.917373 351.076424,45.1626171 C352.59277,46.5939585 353.671929,47.1200856 353.994067,46.5985535 C354.739584,45.3923669 353.79158,44.2321302 352.477721,44.7352824 C351.414668,45.1396421 351.235192,44.8593473 351.051113,42.5136015 C351.009696,41.9874744 350.448257,41.15578 349.826992,40.6687104 C347.528313,38.8789592 349.77637,38.8399017 354.916759,40.5561329 C360.268839,42.3504791 361.854214,43.4280058 360.443713,44.2918652 C359.976614,44.5882425 360.1791,44.9811147 360.938424,45.2797895 C361.647126,45.5485968 362.54911,45.5669768 362.94948,45.3188469 C363.354453,45.0661221 364.155194,45.2568145 364.746545,45.7392891 C365.335596,46.2332513 366.874952,46.6536935 368.172704,46.6881559 C369.884633,46.7432959 370.475985,47.0925156 370.331024,47.983945 C370.206771,48.7811769 370.706083,49.2131066 371.796748,49.2291891 C373.784794,49.256759 381.244571,55.3152621 381.244571,56.8959409 C381.244571,58.4490498 380.181518,58.2583574 378.492599,56.3973838 C377.694159,55.5174419 376.352688,54.4674852 375.503626,54.0631255 C373.690454,53.1992661 378.149753,57.3163831 384.852507,62.6833392 C387.597576,64.882045 390.593452,68.1743601 391.925719,70.4695609 C394.32334,74.5591079 403.552571,84.4360532 408.136123,87.8133757 L410.727026,89.7271918 L407.850801,85.8007671 C404.854925,81.7066252 404.518982,80.9323682 405.692482,80.9323682 C406.702612,80.9323682 419.875722,98.4439003 419.291273,99.0159774 C419.022058,99.2801897 418.281143,99.0619274 417.639169,98.5289078 C416.005474,97.1710863 416.189552,97.9522357 418.005025,100.042959 C419.514468,101.793653 419.974664,103.100929 419.07268,103.100929 C418.81497,103.100929 416.829224,101.210088 414.657099,98.898805 C412.482673,96.5944142 410.388782,94.6966806 410.00912,94.6966806 C409.627157,94.6966806 408.633134,94.0970335 407.80248,93.3618341 C406.313746,92.0430701 406.313746,92.0499625 407.570081,94.5059882 C408.400735,96.1165346 408.536493,96.9849889 407.975054,96.9849889 C407.498751,96.9849889 407.312372,97.529496 407.558577,98.175093 C407.857704,98.94935 407.710441,99.1790998 407.149002,98.8206901 C405.384151,97.7431634 407.351488,100.003902 409.4914,101.517953 L411.658923,103.066467 L411.396611,100.789646 C410.973231,97.1435163 412.429751,98.1544156 415.013751,103.303109 C418.092462,109.439727 418.826475,110.358727 419.5904,109.120375 C420.002276,108.46329 421.32764,109.42824 423.877126,112.23808 C428.034996,116.803209 430.034548,119.776172 433.460707,126.429727 C434.763061,128.947785 436.550923,131.764518 437.441402,132.67203 C440.13815,135.415243 441.021727,136.665082 442.172217,139.424378 C443.633339,142.895898 443.610329,144.690244 442.105488,144.113572 C441.205805,143.766649 441.095358,143.968829 441.652195,144.988919 C442.662325,146.891247 445.577667,161.071407 445.577667,164.092617 C445.577667,165.500983 446.325485,168.264874 447.241275,170.240723 C449.102768,174.268237 450.101393,181.852279 448.769126,181.852279 C448.315833,181.852279 447.556509,180.393368 447.094012,178.603616 C445.718026,173.287205 445.453414,172.545113 445.082956,172.926498 C444.887373,173.121785 445.225617,175.954601 445.853784,179.237726 C446.886924,184.689689 447.261984,185.459351 450.347598,188.308249 C454.67344,192.296706 455.9873,196.95833 456.672992,210.722643 C457.110178,219.618556 457.031944,220.852313 455.968892,220.852313 C455.313112,220.852313 454.76778,220.335376 454.76778,219.708159 C454.76778,219.074049 454.25006,218.559409 453.628795,218.559409 C453.000628,218.559409 452.482907,218.042472 452.482907,217.41985 C452.482907,215.703619 451.12763,216.034459 450.538579,217.886242 C449.910412,219.866686 450.819299,227.74251 451.672962,227.74251 C452.02041,227.74251 452.519723,229.212909 452.788938,231.000363 C453.143288,233.304754 453.766854,234.494858 454.912742,235.01639 C458.31359,236.576391 460.069238,250.655461 458.302085,262.12687 C457.683122,266.108434 456.808749,269.490352 456.357757,269.646582 C455.909066,269.789027 455.538609,270.409351 455.538609,270.992916 C455.538609,271.59486 455.191161,272.08193 454.76778,272.08193 C454.346701,272.08193 454.003855,271.560398 454.003855,270.926288 C454.003855,269.478864 450.842309,262.61394 450.016257,262.26472 C449.010729,261.844278 449.325963,260.458886 450.639822,259.500829 C451.730487,258.703597 451.645351,258.450873 449.868994,257.295231 C447.328712,255.629545 447.291897,253.010397 449.756246,250.699113 C451.346223,249.208037 451.845536,249.083972 452.84186,249.901881 C453.497639,250.446388 454.245458,250.676138 454.516973,250.407331 C455.292404,249.628479 452.381664,239.974391 451.371534,239.974391 C450.84461,239.974391 449.8828,237.435656 449.123477,234.051441 C446.836303,223.816086 446.185125,221.36925 444.539925,216.659378 L442.922336,212.071274 L442.135401,216.215961 C441.376078,220.158468 439.781498,222.166482 439.139525,219.974668 C438.978457,219.414079 438.442328,217.488775 437.959122,215.705917 C437.471315,213.916165 436.785623,212.457254 436.438175,212.457254 C436.079222,212.457254 434.475439,211.251067 432.864753,209.780668 C431.258669,208.298782 429.746925,207.104083 429.516827,207.11557 C428.706882,207.138545 424.111826,217.98044 424.111826,219.852901 C424.111826,220.879883 423.62862,223.331313 423.044171,225.309459 C421.77403,229.589699 420.138033,238.878484 420.216267,241.385055 C420.24618,242.368384 419.440837,244.891038 418.430706,247.004736 C416.730282,250.556668 416.665855,251.039143 417.685189,253.451516 C418.281143,254.892048 418.812669,257.692698 418.854087,259.682332 C418.948427,264.001629 420.034489,268.036036 421.329941,268.835565 C423.246657,270.014182 425.639676,274.310503 425.639676,276.571242 C425.639676,279.477577 424.272894,282.565415 422.722034,283.155872 C421.159669,283.755519 420.407248,282.409185 419.797488,277.965823 C419.247554,273.910739 418.269638,274.050886 416.86604,278.393158 C416.247077,280.288594 415.623511,280.883646 414.208408,280.883646 C412.742684,280.883646 411.905128,280.015192 410.181694,276.676927 C408.982883,274.372536 407.664422,272.35763 407.23874,272.224375 C406.810758,272.079633 405.621152,270.188791 404.588012,268.017656 C403.554872,265.848817 401.868253,263.183719 400.858123,262.101597 C399.847993,261.024071 398.78494,259.385954 398.488114,258.47155 C398.19589,257.559443 397.606839,256.805864 397.167352,256.805864 C396.732466,256.805864 396.550689,256.334877 396.776185,255.751312 C397.001681,255.167748 396.352805,253.467599 395.324267,251.96963 C394.304933,250.471661 393.47658,248.900172 393.47658,248.47973 C393.47658,248.052395 392.222546,247.87319 390.577345,248.068478 C388.633017,248.30512 386.707097,247.91914 384.679934,246.878374 C383.016325,246.032894 381.207755,245.336752 380.669326,245.336752 C380.130897,245.336752 379.679905,244.847385 379.679905,244.252333 C379.679905,243.652686 378.623755,242.935867 377.330604,242.655572 C376.037454,242.368384 374.797225,241.64697 374.567127,241.045025 C374.330127,240.445378 373.455754,239.574626 372.611295,239.133507 C371.405581,238.494802 370.634753,238.621165 369.060883,239.765319 C367.956412,240.562551 365.832608,241.706705 364.364583,242.290269 C362.887354,242.892214 361.012055,243.983526 360.186003,244.753188 C359.35535,245.509065 358.326812,245.998432 357.889625,245.842202 C357.445536,245.690567 355.535723,246.014514 353.646619,246.581996 C349.355291,247.87319 345.047857,247.916843 343.837541,246.710656 C342.489167,245.371215 342.620323,247.90076 344.040028,250.632486 C345.333178,253.134461 346.916253,253.924801 349.362194,253.313666 C350.422946,253.044859 352.187797,253.531929 353.968756,254.581885 C356.658601,256.157969 356.821971,256.458942 356.366377,259.025247 C356.104065,260.539299 355.69219,263.064249 355.452888,264.644928 C355.188275,266.384134 354.599224,267.509908 353.948047,267.509908 C353.22784,267.509908 352.873489,268.440395 352.873489,270.388674 C352.873489,272.43115 352.440905,273.533949 351.345639,274.218603 C350.50348,274.742433 349.806283,275.891182 349.806283,276.759637 C349.806283,277.724586 349.18732,278.521818 348.239316,278.76765 C347.289011,279.013482 346.497474,280.024382 346.239764,281.306386 C345.975152,282.636637 345.188217,283.594694 344.178086,283.858906 C341.628601,284.509098 336.920796,288.754875 336.651581,290.650311 C336.502018,291.711756 334.955759,293.303922 332.578847,294.857031 C330.47115,296.237827 327.928567,298.117181 326.939145,299.03618 C324.647369,301.149879 317.546546,305.733388 316.557124,305.733388 C316.140647,305.733388 314.872807,306.624817 313.72922,307.718426 C312.465982,308.933803 310.680422,309.749415 309.152571,309.820637 C306.904514,309.92862 306.467328,309.583995 304.909564,306.500752 C302.742041,302.192943 302.185204,300.584694 301.920591,297.779449 C301.77563,296.224042 300.533101,294.480241 297.847857,292.040298 C295.724053,290.105804 293.79123,287.822091 293.545025,286.942149 C293.303422,286.066802 291.982659,284.872103 290.62278,284.265564 C288.694559,283.420084 287.903022,282.409185 287.088475,279.739492 C285.323624,273.965879 283.775064,271.314566 281.853746,270.836686 C280.859723,270.579366 279.527456,269.389262 278.899288,268.173885 C278.266519,266.963104 277.461176,265.968287 277.097621,265.968287 C276.738668,265.968287 276.225549,265.19403 275.96784,264.252056 C275.148691,261.313555 270.631867,256.656526 269.147735,257.224008 C268.427529,257.497411 267.840779,258.244098 267.840779,258.8851 C267.840779,260.355499 271.81227,267.321514 273.952181,269.609822 C274.844962,270.556391 275.383391,271.645405 275.148691,272.02679 C274.587252,272.936599 275.470828,275.144495 276.402725,275.144495 C278.554141,275.144495 281.317618,279.810714 282.053931,284.702088 C282.458904,287.424624 283.047955,288.433226 284.794398,289.464802 C286.01852,290.186217 287.771866,292.336675 288.676151,294.236706 C289.587339,296.132142 290.705616,297.949464 291.158909,298.252733 C291.708843,298.634118 291.676629,298.820215 291.034656,298.82481 C290.523838,298.831703 290.305245,299.35783 290.546848,299.987345 C291.131297,301.494503 292.355418,301.457743 292.355418,299.932205 C292.355418,299.12808 292.916857,298.811025 294.07425,298.978743 C295.208633,299.134973 295.797684,299.746107 295.797684,300.754709 C295.797684,301.696683 297.03331,303.10505 299.039765,304.451384 C303.892531,307.681666 306.58928,310.452449 307.173728,312.77522 C308.008984,316.16403 310.20642,316.795842 314.412611,314.895811 C316.396056,313.997489 318.531365,312.936045 319.159533,312.550065 C319.7877,312.157193 320.827743,311.624173 321.451308,311.371449 C326.43293,309.391005 331.140735,306.921194 331.64695,306.02517 C331.982893,305.437011 332.935499,304.954536 333.754648,304.954536 C334.870623,304.954536 335.247984,305.480663 335.247984,307.091209 C335.247984,308.269826 335.675966,309.6713 336.20289,310.199725 C336.971418,310.973981 336.904689,311.309416 335.848539,311.904468 C335.128333,312.308828 334.725661,313.11525 334.948856,313.698814 C335.16975,314.277784 334.596806,316.21917 333.674113,318.025004 C332.758323,319.81935 331.168346,323.49305 330.162818,326.19261 C327.275088,333.847875 323.56821,338.906966 313.519831,348.891894 C299.633417,362.709048 292.323204,371.474004 294.688612,371.474004 C295.885121,371.474004 295.498557,374.401017 294.265231,374.672122 C293.264305,374.885789 293.255101,375.177572 294.198503,376.983405 C295.429527,379.338341 295.378906,380.7536 294.00292,382.412394 C292.709769,383.960908 293.625559,387.29228 295.468644,387.763267 C296.782503,388.11019 296.925164,388.847687 296.817018,394.908487 L296.692765,401.672322 L293.535821,404.7234 C291.745659,406.462606 288.660045,408.392505 286.423492,409.187439 C284.244464,409.950209 282.037825,411.094363 281.513201,411.719282 C280.986277,412.346499 279.23293,413.536603 277.599234,414.366 C274.341047,416.038579 273.344723,417.600878 274.603359,419.110334 C275.576673,420.288951 274.913991,425.41467 273.659957,426.407189 C273.188256,426.772491 271.03684,427.652433 268.885424,428.348575 C265.592722,429.426102 264.757466,430.099269 263.650695,432.532319 C262.336835,435.450142 262.083727,435.640835 251.490016,441.226053 C245.001253,444.653921 240.730634,445.478722 227.608146,445.855512 C220.857071,446.043907 214.391318,446.0508 213.233925,445.860107 Z M273.326315,393.711491 C272.691244,392.107837 271.809969,396.477679 272.336893,398.614352 C272.63372,399.792969 272.843109,399.556326 273.261887,397.536825 C273.563316,396.100889 273.588627,394.380063 273.326315,393.711491 Z M257.095203,383.030421 C257.095203,382.660524 256.381899,382.166562 255.516731,381.941407 C254.22358,381.605972 254.10623,381.727739 254.847146,382.614574 C255.859577,383.834545 257.095203,384.061998 257.095203,383.030421 Z M268.139906,365.362659 C269.709174,365.362659 271.881299,362.479299 271.352074,361.1008 C270.993121,360.158825 270.341944,359.986513 268.774977,360.372493 C267.622186,360.652787 266.554531,361.208782 266.425676,361.594762 C266.280714,361.987634 265.716974,362.302391 265.160137,362.302391 C264.617106,362.302391 264.021152,363.329373 263.841676,364.574617 C263.565558,366.396533 263.800258,366.86752 265.093409,367.053618 C265.96548,367.177683 266.789231,366.851438 266.924989,366.325311 C267.058446,365.794589 267.612982,365.362659 268.139906,365.362659 Z M453.948631,263.399684 C453.219221,262.726517 453.111075,262.850582 453.49994,263.932704 C453.769155,264.700068 454.03837,265.91085 454.095894,266.606992 C454.162623,267.310026 454.358206,267.066491 454.544585,266.076269 C454.735567,265.081453 454.459449,263.877564 453.948631,263.399684 Z M453.223823,260.998798 C453.223823,259.535292 452.74752,259.535292 452.186081,260.998798 C451.939876,261.632908 452.06643,262.149845 452.482907,262.149845 C452.892482,262.149845 453.223823,261.632908 453.223823,260.998798 Z M333.720133,255.36763 C333.731638,254.290103 333.839784,254.274021 334.449544,255.255052 C335.411353,256.769104 336.140764,255.958087 339.0446,250.106359 C340.346955,247.471128 341.752854,245.327562 342.157826,245.327562 C342.562799,245.327562 342.89414,244.900228 342.878033,244.3741 C342.861926,243.843378 341.985253,244.408563 340.912996,245.619345 C338.469355,248.385532 333.598181,249.159789 330.054672,247.330981 C328.745415,246.657814 327.143933,246.310892 326.497357,246.556724 C325.351469,246.988654 319.914254,242.104172 319.914254,240.638368 C319.914254,240.275363 319.550699,239.976689 319.099707,239.976689 C318.648715,239.976689 318.503753,239.636659 318.763764,239.213919 C319.021474,238.793477 318.869609,238.45115 318.420918,238.45115 C317.97913,238.45115 317.601769,239.220812 317.597167,240.167381 C317.585662,241.557368 317.445303,241.669945 316.844747,240.739458 C316.205074,239.751534 316.096928,239.763021 316.085423,240.870416 C316.080821,241.571153 315.648237,242.333922 315.119012,242.563672 C314.463233,242.843967 314.702535,243.376986 315.88984,244.245441 C316.833242,244.941583 317.608672,245.977754 317.608672,246.545236 C317.608672,247.121908 318.091878,247.386121 318.703939,247.151776 C319.350514,246.899051 320.344537,247.599788 321.182094,248.895577 C321.946019,250.085681 323.085004,251.517023 323.724677,252.077612 C324.359747,252.631309 324.511612,252.907009 324.058319,252.677259 C323.602725,252.458997 323.220762,252.718614 323.220762,253.267716 C323.220762,253.805331 323.715473,254.248748 324.306824,254.248748 C325.036235,254.248748 325.277838,253.649101 325.052342,252.449807 C324.755516,250.905888 324.939594,250.722088 326.329386,251.14253 C328.400268,251.769748 328.266811,251.613518 329.06295,254.361326 C329.530049,255.999442 329.456417,256.828839 328.844357,257.093051 C328.216189,257.350371 328.26451,257.676616 329.035338,258.207338 C330.42513,259.153907 333.697123,257.168869 333.720133,255.36763 Z M216.492112,243.797428 C216.828055,240.801491 217.212319,240.190356 219.554717,239.023227 C223.031497,237.295508 226.087198,237.325376 227.87506,239.112829 C228.661995,239.898574 230.638537,240.790003 232.286038,241.093273 C233.919734,241.401138 235.604051,241.92267 236.027431,242.25351 C236.448511,242.588944 237.99707,243.050741 239.4766,243.291979 C240.949227,243.528621 243.885278,244.043261 245.986072,244.440728 C249.262667,245.047267 250.127836,244.946178 251.869678,243.707826 C254.004987,242.186882 257.836118,241.823877 262.497904,242.669357 C266.025306,243.314954 266.497007,242.692332 268.519568,234.577568 C270.512216,226.579976 270.024409,222.175672 267.09296,221.759825 C266.048316,221.615082 265.015176,221.989574 264.633213,222.658146 C263.643792,224.413435 259.548047,225.063627 257.997187,223.712698 C255.963121,221.929839 253.266372,221.327895 253.266372,222.653551 C253.266372,224.852257 249.24426,225.380682 247.288427,223.432403 C246.108024,222.253787 245.986072,222.288249 245.599508,223.94934 C245.176127,225.762067 243.307732,227.039476 243.307732,225.525424 C243.307732,225.065925 242.592127,223.97691 241.717755,223.108456 C240.847984,222.240002 240.330264,221.01084 240.567265,220.376731 C240.894004,219.528954 240.622488,219.361236 239.4766,219.731134 C238.385936,220.078056 237.953352,219.859793 237.953352,218.968364 C237.953352,218.290602 238.296198,217.936787 238.717277,218.194107 C239.133754,218.451427 239.481202,218.306685 239.481202,217.858672 C239.481202,217.41066 238.954278,217.045358 238.296198,217.045358 C237.375806,217.045358 237.154911,216.277994 237.288368,213.617491 C237.389611,211.733542 237.233145,209.955278 236.94092,209.668091 C236.644094,209.371714 236.409394,209.544026 236.409394,210.033393 C236.409394,210.52276 235.891674,210.920228 235.268108,210.920228 C234.639941,210.920228 234.12222,210.410183 234.12222,209.776073 C234.12222,209.153451 234.465066,208.631919 234.886145,208.631919 C235.309526,208.631919 235.650071,208.059842 235.650071,207.3637 C235.650071,206.355098 235.357846,206.449296 234.14523,207.84158 C233.303071,208.795042 231.556628,209.799048 230.240467,210.067856 L227.85205,210.554925 L229.840097,212.691599 C230.962975,213.90238 232.210106,214.593927 232.711719,214.290658 C233.194925,213.987388 233.390508,214.072395 233.144304,214.465267 C232.898099,214.85814 234.087705,216.686948 235.783528,218.527244 C238.429654,221.383035 238.694267,221.959707 237.626612,222.554759 C236.94092,222.931549 236.581968,223.570253 236.82357,223.963125 C237.069775,224.355998 236.947823,224.682242 236.542851,224.682242 C236.137878,224.682242 235.610954,224.172198 235.373953,223.549576 C235.127748,222.903979 234.430551,222.612196 233.760966,222.871814 C232.925711,223.191166 232.580564,222.844244 232.580564,221.688602 C232.580564,219.726539 230.401536,218.676582 229.451231,220.179146 C229.085375,220.767305 228.772442,222.191754 228.760937,223.347396 C228.760937,224.503038 228.406586,225.445012 227.985507,225.445012 C227.569029,225.445012 227.221581,225.176205 227.221581,224.845365 C227.221581,224.51912 226.188442,223.857441 224.929806,223.386453 C223.378945,222.802889 222.626525,221.996467 222.626525,220.923535 C222.626525,220.043593 222.131814,219.324476 221.524355,219.324476 C219.929776,219.324476 219.193463,217.736905 220.422186,216.958053 C221.190713,216.480173 221.220626,216.289481 220.523429,216.284886 C219.996505,216.280291 219.568522,215.600232 219.568522,214.786917 C219.568522,213.969008 219.214172,213.086768 218.78849,212.824854 C217.338873,211.926532 215.783411,207.053538 216.232102,204.808882 C216.591055,203.046701 216.248209,202.194329 214.598406,200.66879 C213.464023,199.614238 211.351723,198.364399 209.918213,197.88652 C208.484703,197.420128 207.311203,196.664251 207.311203,196.220833 C207.311203,195.784309 206.535773,194.667725 205.592371,193.73494 C202.743758,190.975645 201.17679,188.788426 201.17679,187.58224 C201.17679,185.843034 199.676552,186.235906 198.928733,188.170399 C198.417916,189.500651 198.682528,190.330048 200.109136,191.844099 C201.114664,192.921626 201.940716,194.339182 201.940716,194.991672 C201.940716,196.836563 204.941194,200.213885 206.597899,200.213885 C207.407844,200.213885 208.070526,200.66879 208.070526,201.213297 C208.070526,201.769292 209.632891,203.306318 211.524297,204.64576 C215.019485,207.108678 215.511895,208.112685 214.225647,210.148268 C213.618189,211.113217 213.259236,211.016722 211.894755,209.553216 C211.006576,208.604349 209.929718,208.04376 209.497134,208.312567 C208.963306,208.638812 208.979413,209.063849 209.543153,209.624439 C209.998747,210.083938 210.38071,211.044292 210.38071,211.756517 C210.38071,213.562351 206.503559,217.803532 204.846853,217.803532 C203.841325,217.803532 203.486974,218.40318 203.486974,220.098733 C203.486974,222.639766 202.04426,223.133729 200.150553,221.242887 C199.515483,220.608778 198.767665,220.098733 198.486945,220.098733 C197.318047,220.098733 193.526032,216.856963 193.526032,215.852956 C193.526032,214.495135 197.200697,213.518698 198.268352,214.584737 C199.227861,215.538199 204.391259,214.860437 205.217311,213.670333 C206.144606,212.340082 205.116068,209.408474 203.10041,207.607235 C198.949442,203.91056 197.2076,202.509086 196.724394,202.490706 C196.436772,202.479219 195.196544,201.105315 193.960918,199.432736 C192.725291,197.755562 191.259567,196.393146 190.707332,196.393146 C190.155097,196.393146 189.701804,196.046224 189.701804,195.625781 C189.701804,195.205339 190.06766,194.863012 190.527856,194.863012 C191.639229,194.863012 190.566972,191.655704 189.089743,190.578178 C188.208468,189.939473 187.336397,190.017588 185.562341,190.89753 C181.045518,193.135293 180.527797,193.337473 179.494657,193.337473 C178.921713,193.337473 177.354746,192.788371 176.006372,192.119799 C173.012797,190.628722 171.326179,191.161742 171.326179,193.60628 C171.326179,195.809581 170.405787,196.622896 166.349159,198.019775 C162.31094,199.405166 158.148467,203.129411 158.703003,204.852535 C159.158597,206.288471 154.816648,211.218902 153.702974,210.534248 C153.348623,210.315986 152.545581,210.658313 151.905909,211.297017 C150.585146,212.615781 148.507362,212.767416 145.787603,211.728947 C143.258827,210.77089 140.674826,211.54285 140.674826,213.261378 C140.674826,214.961527 141.415742,215.464679 144.248248,215.678347 C145.444757,215.767949 146.848355,216.255019 147.370678,216.755873 C147.998845,217.3739 149.011276,217.45661 150.433282,217.020086 C158.808848,214.4354 160.674943,214.350393 175.150407,215.988509 C177.45829,216.252721 181.190479,216.431926 183.420129,216.385976 C186.257237,216.330836 187.598708,216.631808 187.886331,217.385388 C188.116429,217.985035 188.790616,218.28371 189.391172,218.05396 C190.11598,217.773665 190.474933,218.171132 190.474933,219.271634 C190.474933,220.169956 189.968718,221.09355 189.356657,221.325597 C188.479984,221.67252 188.42476,222.104449 189.092044,223.407131 C191.349306,227.78846 191.379218,227.933203 190.35068,228.590287 C189.782338,228.948697 188.760703,229.240479 188.070409,229.251967 C187.380115,229.251967 186.604685,229.801069 186.344674,230.451261 C186.086965,231.135915 186.215819,231.439185 186.659909,231.15889 C187.076386,230.90157 188.581227,231.92166 189.996329,233.419629 C191.422937,234.926787 193.316643,236.146759 194.243938,236.146759 C197.299639,236.146759 202.736855,239.112829 202.736855,240.773921 C202.736855,241.73887 203.516887,242.598134 204.837649,243.108179 C205.999644,243.551596 208.500809,244.711833 210.394516,245.683674 C215.166748,248.14889 216.031916,247.89157 216.492112,243.797428 Z M231.577336,229.481716 C230.362419,229.302512 229.559377,228.762599 229.727349,228.259447 C230.070195,227.227871 230.182943,227.220978 235.070224,228.052672 C241.828202,229.217504 238.590723,230.543161 231.577336,229.481716 Z M258.623054,229.224397 C258.623054,228.1193 260.629508,226.177914 261.190947,226.738503 C261.437152,226.984336 262.509409,226.614439 263.583966,225.913702 C265.576615,224.606425 266.234695,225.194585 264.598698,226.823511 C264.092483,227.32896 263.986638,227.737915 264.361697,227.737915 C264.732155,227.737915 264.380105,228.24796 263.558655,228.865987 C261.821416,230.177858 258.623054,230.407608 258.623054,229.224397 Z M240.726032,227.35653 C241.298976,225.893024 241.77758,225.893024 241.77758,227.35653 C241.77758,227.99064 241.441637,228.50528 241.036665,228.50528 C240.624789,228.50528 240.48673,227.995235 240.726032,227.35653 Z M199.632833,224.679945 C199.632833,223.703508 200.178165,223.703508 200.783323,224.679945 C201.041033,225.10728 200.889168,225.442714 200.440477,225.442714 C199.998689,225.442714 199.632833,225.111875 199.632833,224.679945 Z M183.454644,210.405588 C183.404022,210.051773 183.431634,209.436044 183.521372,209.015601 C183.61111,208.595159 183.673237,206.832978 183.673237,205.089177 C183.673237,202.637746 183.953956,201.959984 184.936475,202.038099 C185.925896,202.116214 186.144489,201.539542 185.965013,199.317861 C185.790138,197.119155 186.082363,196.328816 187.329494,195.660244 C188.712383,194.913557 188.903364,195.026134 188.857344,196.558566 C188.829733,197.523515 188.530605,198.998509 188.199264,199.827906 C187.856418,200.66879 187.872525,202.123107 188.222274,203.058188 C188.70548,204.349382 187.964564,208.778959 187.080988,209.867973 C186.627695,210.42167 183.521372,210.876575 183.454644,210.405588 Z M166.333053,205.615304 C165.658865,204.52629 166.519432,203.281046 167.939136,203.281046 C168.601819,203.281046 168.995286,203.814065 168.843422,204.55386 C168.551197,206.090886 167.023347,206.731888 166.333053,205.615304 Z M170.523137,204.089765 C170.523137,203.646348 170.870585,203.281046 171.291664,203.281046 C172.269581,203.281046 172.269581,203.81866 171.291664,204.4252 C170.865983,204.684817 170.523137,204.533182 170.523137,204.089765 Z M234.198152,219.115404 C233.569985,218.492782 233.351392,218.577789 233.351392,219.434756 C233.351392,220.960295 234.377629,221.987277 234.75499,220.843123 C234.918359,220.360648 234.665251,219.581796 234.198152,219.115404 Z M319.396533,208.436632 C320.519412,207.61183 320.576936,207.140843 319.755486,204.992682 C319.233164,203.630265 318.54287,202.513681 318.211529,202.513681 C317.877887,202.513681 317.608672,202.077157 317.608672,201.544137 C317.608672,201.006522 316.918378,199.290291 316.07622,197.723397 C315.234061,196.156503 314.541466,194.39662 314.541466,193.80846 C314.541466,193.231788 314.019144,192.326574 313.395578,191.800447 C312.762809,191.278915 312.245088,190.03367 312.245088,189.034259 C312.245088,187.715495 311.817106,187.221533 310.67582,187.221533 C309.822156,187.221533 308.248286,186.357673 307.203641,185.307716 C306.142889,184.253165 304.973992,183.3939 304.608136,183.3939 C304.237678,183.3939 303.301179,182.596668 302.537254,181.627124 C300.661955,179.260701 298.784356,178.642674 297.638468,180.028065 C296.941271,180.857462 296.913659,181.592662 297.514215,182.849393 C297.962906,183.775285 298.53585,185.395021 298.777453,186.449573 C299.014454,187.49953 299.470048,188.714906 299.794486,189.142241 C300.995598,190.764275 308.660161,196.388551 309.663389,196.388551 C310.243236,196.388551 310.714936,196.905488 310.714936,197.532705 C310.714936,198.159922 310.181109,198.681454 309.523029,198.681454 C308.561219,198.681454 308.388646,199.517743 308.568122,203.074271 C308.77521,207.113273 308.954687,207.499253 310.714936,207.729002 C311.771086,207.86915 312.962994,208.305674 313.35416,208.682464 C314.414912,209.704851 317.873285,209.557811 319.396533,208.436632 Z M245.601809,206.339016 C245.601809,205.918574 245.058777,205.571652 244.409901,205.571652 C243.754122,205.571652 243.42048,205.918574 243.687393,206.339016 C244.299454,207.32694 245.601809,207.32694 245.601809,206.339016 Z M255.387876,201.452237 C258.443577,199.499363 265.521391,198.148434 265.521391,199.517743 C265.521391,199.954268 265.880344,200.094416 266.319831,199.821013 C266.759318,199.547611 267.629089,199.742898 268.236547,200.252943 C268.864715,200.76988 271.572968,201.171942 274.375562,201.171942 C278.533432,201.171942 279.706932,200.88016 281.234783,199.444224 C283.53116,197.296063 282.852371,195.680921 278.756627,193.53276 C277.162048,192.696471 273.965987,191.014702 271.644299,189.774053 C267.127475,187.373167 265.532896,187.345597 262.329932,189.610931 C259.847175,191.373112 257.859128,191.467309 257.859128,189.836086 C257.859128,189.162919 257.145824,188.427719 256.264549,188.197969 C255.173885,187.910782 254.78732,187.338705 255.047331,186.357673 C255.309643,185.353666 255.005913,184.933224 254.025696,184.933224 C253.254868,184.933224 252.451826,184.501295 252.233232,183.979762 C251.722415,182.734518 248.712733,186.325508 248.689724,188.191077 C248.671316,188.930871 247.974119,190.12557 247.127358,190.844687 C246.2852,191.572994 245.599508,193.098533 245.599508,194.27715 C245.599508,195.444279 245.284273,196.402336 244.918418,196.402336 C243.625267,196.402336 243.35145,199.807228 244.490435,201.551029 C246.108024,203.99327 251.478511,203.949618 255.387876,201.452237 Z M268.825598,183.88097 C269.051094,183.297405 268.871618,182.468009 268.432131,182.029186 C267.410496,181.002205 263.988939,182.449629 263.988939,183.90854 C263.988939,185.282444 268.298674,185.254874 268.825598,183.88097 Z M212.996924,151.649366 C214.805494,150.275462 217.384893,150.197347 218.659635,151.474756 C219.317716,152.131841 219.777912,152.170898 220.152971,151.610309 C220.456701,151.162297 221.259743,150.590219 221.95694,150.330602 C222.759982,150.034225 223.355935,148.676403 223.609043,146.5673 C223.827636,144.749979 224.619173,141.469151 225.373895,139.270445 C226.519783,135.93218 227.127241,135.192386 229.087676,134.693829 C231.144752,134.172297 230.880139,134.055124 226.830415,133.712797 C224.149773,133.487642 222.106503,133.634682 221.920124,134.078099 C221.381695,135.369293 219.932077,136.545612 218.213245,137.085524 C216.48751,137.630032 215.286399,140.030917 216.089441,141.331301 C216.616365,142.167591 215.196661,145.246238 213.882801,146.11699 C213.422605,146.431748 212.269814,146.684472 211.321811,146.693662 C209.540852,146.70515 209.013928,147.782677 210.366904,148.616668 C211.517394,149.328893 211.278092,150.523592 209.980339,150.523592 C209.352172,150.523592 208.834451,150.181265 208.834451,149.760823 C208.834451,149.34038 207.973885,148.998053 206.917735,148.998053 C205.861585,148.998053 205.001019,149.34038 205.001019,149.760823 C205.001019,150.181265 205.518739,150.523592 206.146907,150.523592 C206.781977,150.523592 207.3043,151.049719 207.3043,151.672341 C207.295096,153.163418 211.004275,153.15193 212.996924,151.649366 Z M218.024565,142.395043 C218.024565,141.508209 218.546887,140.34108 219.18656,139.810357 C220.99513,138.296306 221.170004,139.26585 219.522503,141.767826 C218.199439,143.773542 218.031468,143.847062 218.024565,142.395043 Z M204.184171,144.458196 C205.083854,143.890714 205.111466,143.431215 204.347541,141.983791 C203.790704,140.917752 203.583615,140.789092 203.82982,141.636869 C204.08753,142.500728 203.71247,143.477165 202.902525,144.104382 C201.390782,145.239346 202.458436,145.547211 204.184171,144.458196 Z M231.535919,141.726471 C232.198601,140.003347 230.344011,138.045879 229.064666,139.111918 C228.254721,139.769002 228.238615,140.256072 228.958821,141.411714 C230.063292,143.180787 230.939965,143.286472 231.535919,141.726471 Z M261.69026,136.044758 C261.69026,135.006288 260.337284,134.328526 259.854078,135.114271 C259.393882,135.854065 260.056564,136.76847 261.050587,136.76847 C261.404938,136.76847 261.69026,136.444522 261.69026,136.044758 Z M238.98419,132.557155 C239.54563,131.093649 239.152162,131.093649 237.939546,132.557155 C237.385009,133.218835 237.31598,133.701309 237.766972,133.701309 C238.194954,133.705904 238.737986,133.191265 238.98419,132.557155 Z M224.349959,128.826018 C224.985029,127.895531 224.794048,119.946187 224.135967,119.946187 C223.905869,119.946187 222.670243,120.911136 221.383996,122.08286 C218.351304,124.849048 217.440116,128.134471 219.333823,129.554325 C220.778838,130.638744 223.36744,130.268847 224.349959,128.826018 Z M247.900487,129.526755 C247.900487,128.550318 245.737566,126.818004 244.499639,126.818004 C243.719607,126.818004 244.046346,128.791556 244.989748,129.72434 C246.259889,130.997154 247.900487,130.879981 247.900487,129.526755 Z M229.182016,117.182297 C232.085853,114.967508 232.626583,113.06518 230.332506,113.06518 C228.832267,113.06518 226.446151,114.937641 226.446151,116.116257 C226.446151,116.470072 226.239063,117.310956 225.985955,117.968041 C225.323273,119.688867 226.16083,119.482092 229.182016,117.182297 Z M252.882109,115.353488 C252.624399,114.937641 251.825959,114.613693 251.112655,114.641263 C250.049603,114.691808 250.095622,114.815873 251.349656,115.353488 C253.399829,116.240322 253.422839,116.240322 252.882109,115.353488 Z M256.708638,111.229478 C256.708638,109.809624 256.264549,109.63042 252.831487,109.63042 C249.359309,109.63042 248.981948,109.786649 249.246561,111.155958 C249.485863,112.41269 250.183059,112.704472 253.123712,112.766505 C256.282957,112.828537 256.708638,112.649332 256.708638,111.229478 Z M406.822263,97.0952688 C407.054662,96.7299666 406.755535,96.0177421 406.166484,95.5306725 C405.282908,94.8023655 405.156354,94.9241329 405.4992,96.2038395 C405.94559,97.9361532 406.198697,98.0992756 406.822263,97.0952688 Z M284.005162,74.6303304 C283.252742,73.8790484 283.158402,73.9732459 283.57718,75.0576651 C283.864803,75.8158395 284.292785,76.2362817 284.527485,75.9996394 C284.769088,75.7698895 284.527485,75.1472675 284.005162,74.6303304 Z M373.550094,53.1372337 C373.550094,52.9855988 372.949539,52.3790592 372.213225,51.8023872 C371.000609,50.8535204 370.972997,50.8833878 371.927904,52.0941695 C372.919626,53.360091 373.550094,53.7713432 373.550094,53.1372337 Z M318.384102,21.7304318 C318.384102,21.1537597 308.908667,18.3025643 308.485287,18.757469 C308.020489,19.2629186 308.271296,19.380091 313.789046,21.3260721 C316.85165,22.4104913 318.384102,22.5437462 318.384102,21.7304318 Z M302.822576,422.103975 C302.654604,421.800705 302.470526,420.151101 302.417603,418.43487 C302.334768,415.889242 302.751245,414.912805 304.649554,413.095484 C306.676717,411.165585 306.911417,410.515393 306.49724,408.068557 C305.947306,404.856655 307.744371,400.525871 309.610466,400.525871 C311.741173,400.525871 317.666197,397.277208 319.762389,394.972817 C328.204684,385.628891 328.266811,385.571454 329.385087,386.773046 C330.878423,388.349129 331.520396,394.12504 330.312382,395.131344 C329.787758,395.563274 329.131979,395.691934 328.855862,395.423127 C328.575142,395.142832 328.349646,395.838974 328.349646,396.960153 C328.349646,398.085927 328.002198,399.002629 327.581119,399.002629 C327.157739,399.002629 326.817193,399.338064 326.817193,399.753911 C326.817193,400.640745 321.692911,408.907144 317.238214,415.216075 C314.907322,418.524472 313.356461,419.877699 310.777063,420.858731 C306.886106,422.349807 303.273568,422.912694 302.822576,422.103975 Z M343.66957,402.864724 C343.66957,402.416712 344.010115,402.051409 344.433495,402.051409 C345.416014,402.051409 345.416014,402.593619 344.433495,403.195564 C344.012416,403.455181 343.66957,403.312736 343.66957,402.864724 Z M162.090046,355.467334 C162.090046,355.019322 162.444397,354.654019 162.858573,354.654019 C163.847994,354.654019 163.847994,355.196229 162.858573,355.798173 C162.439795,356.062386 162.090046,355.915346 162.090046,355.467334 Z M33.6102336,348.726474 C25.0943071,335.451528 14.5167027,311.488621 9.37631374,293.834644 C1.19633035,265.69948 -1.87087579,233.559776 1.12499998,207.246528 C2.37213106,196.335708 3.73201015,195.657946 3.52262099,206.063316 C3.14526029,225.307162 3.28562006,232.296152 4.08406007,233.254209 C4.55115898,233.810203 5.33119115,236.670589 5.81899888,239.604494 C6.30220465,242.542994 7.01550841,245.534337 7.39747106,246.262644 C7.77483176,246.990951 8.09926992,249.235607 8.10617286,251.232133 C8.11767776,253.240146 8.59398059,256.934524 9.17382751,259.466367 C9.75827639,261.991317 10.4485703,265.770702 10.717785,267.879806 C11.5714485,274.622963 17.8623274,289.866864 21.9304598,295.084483 C23.1039595,296.610022 25.6603482,301.168259 27.5931712,305.225641 C29.5374992,309.280725 31.4197007,312.60061 31.7901585,312.60061 C32.5932005,312.60061 33.1891543,314.036547 34.5996549,319.33228 C36.1620202,325.172521 35.959534,326.870372 33.3525238,330.107547 L31.0216312,333.002395 L33.0211827,339.049411 C35.2393273,345.781081 37.1721504,353.12848 36.7234593,353.12848 C36.5600897,353.123885 35.161094,351.148037 33.6102336,348.726474 Z M342.898742,300.375622 C344.410485,299.399185 346.179939,299.399185 345.583985,300.375622 C345.326275,300.791469 344.355262,301.138391 343.432569,301.126904 C342.068088,301.122309 341.966845,300.979864 342.898742,300.375622 Z M298.46452,295.337208 C298.46452,293.990874 300.116623,294.227516 300.588324,295.64737 C300.756296,296.145927 300.349022,296.55718 299.677136,296.55718 C299.014454,296.554882 298.46452,295.998887 298.46452,295.337208 Z M65.9113888,267.450173 C65.6352712,267.002161 65.5915526,266.450762 65.8147476,266.227904 C66.3600798,265.678802 67.8534158,266.643752 67.8534158,267.539776 C67.8603187,268.520808 66.5349543,268.458775 65.9113888,267.450173 Z M68.624244,264.438153 C68.624244,263.454824 69.1695762,263.454824 69.7747339,264.438153 C70.0324437,264.854 69.887482,265.205518 69.4318879,265.205518 C68.9900998,265.205518 68.624244,264.858595 68.624244,264.438153 Z M64.6021312,259.496234 C63.0627757,257.394023 62.9385228,256.792079 64.0245853,256.792079 C64.4410626,256.792079 64.7885106,257.191844 64.7885106,257.685806 C64.7885106,258.179768 65.3660565,259.21594 66.0632534,259.985601 C66.7604503,260.752966 67.0181601,261.366398 66.6361974,261.359505 C66.2542348,261.341125 65.3384448,260.511729 64.6021312,259.496234 Z M440.759415,236.447731 C440.455686,236.144462 440.225588,235.004902 440.246296,233.927376 L440.296918,231.94923 L441.030931,233.789526 C441.836273,235.786052 441.668302,237.357541 440.759415,236.447731 Z M100.48131,232.431704 C100.149969,231.898685 100.094745,231.25998 100.345552,231.007255 C101.031244,230.322601 101.779063,231.3335 101.406304,232.436299 C101.146293,233.210556 100.964516,233.210556 100.48131,232.431704 Z M105.791972,231.10375 C106.894141,230.014736 107.966398,229.297917 108.184991,229.504691 C108.785546,230.104338 105.966846,233.097979 104.809453,233.097979 C104.222703,233.093384 104.634579,232.263987 105.791972,231.10375 Z M97.7362411,229.268049 C97.7362411,228.852202 98.2746704,228.50528 98.9327507,228.50528 C99.5908309,228.50528 99.9152691,228.852202 99.6529574,229.268049 C99.0385957,230.267461 97.7362411,230.267461 97.7362411,229.268049 Z M103.099825,211.689889 C103.099825,210.713453 103.645157,210.713453 104.250315,211.689889 C104.508025,212.110332 104.35616,212.452659 103.914372,212.452659 C103.465681,212.452659 103.099825,212.110332 103.099825,211.689889 Z M91.6064308,182.635726 C91.6064308,181.654694 92.151763,181.654694 92.7569207,182.635726 C93.0146305,183.051573 92.8696687,183.40309 92.4209777,183.40309 C91.9653837,183.40309 91.6064308,183.056168 91.6064308,182.635726 Z M87.3657249,176.480728 C86.668528,175.348061 87.2253652,174.939107 88.4494864,175.706471 C89.1121686,176.103938 89.190402,176.503703 88.6749825,176.816163 C88.2423983,177.087267 87.6510464,176.935633 87.3657249,176.480728 Z M11.286127,169.631885 C11.286127,168.581929 11.4610015,168.149999 11.6726916,168.678424 C11.8797798,169.204551 11.8797798,170.063815 11.6726916,170.59224 C11.4587005,171.118367 11.286127,170.69333 11.286127,169.631885 Z M11.7624298,162.672763 C11.1940878,161.190877 12.7219384,154.348927 13.6285245,154.348927 C14.25209,154.348927 13.8586225,157.714762 12.7173365,161.965134 C12.3468787,163.366608 12.1006739,163.545812 11.7624298,162.672763 Z M20.3588906,135.231443 C20.3588906,134.815596 20.7017366,134.468674 21.1228159,134.468674 C21.5438952,134.468674 21.8867412,134.815596 21.8867412,135.231443 C21.8867412,135.651885 21.5438952,135.998808 21.1228159,135.998808 C20.7017366,135.998808 20.3588906,135.651885 20.3588906,135.231443 Z M22.6506665,130.997154 C22.6506665,130.043692 25.0943071,125.94955 25.4417551,126.303365 C25.8582324,126.71232 23.626282,131.419894 23.0142213,131.419894 C22.818638,131.413001 22.6506665,131.226904 22.6506665,130.997154 Z M181.268713,125.919683 C181.257208,125.200566 181.616161,124.394144 182.071755,124.118444 C183.413226,123.282155 183.61111,124.164394 182.419203,125.733585 C181.432082,127.031672 181.291723,127.047754 181.268713,125.919683 Z M25.7224746,124.623894 C25.7224746,124.203451 26.0699226,123.647457 26.4910019,123.390137 C26.9074792,123.125925 27.2549272,123.254585 27.2549272,123.677324 C27.2549272,124.100064 26.9074792,124.658356 26.4910019,124.917973 C26.0722236,125.175293 25.7224746,125.046633 25.7224746,124.623894 Z M174.681007,116.890514 C174.681007,116.04963 175.136601,115.353488 175.691138,115.353488 C176.466568,115.353488 176.517189,115.71879 175.882119,116.890514 C174.853581,118.802033 174.681007,118.802033 174.681007,116.890514 Z M75.7986992,112.111718 C75.8884374,111.585591 76.2151766,110.726326 76.5465177,110.197902 C76.9284803,109.586767 76.7098872,109.239845 75.9505639,109.239845 C75.2924836,109.239845 74.7540543,108.741288 74.7540543,108.118666 C74.7540543,107.394954 75.1981435,107.169799 76.0172923,107.491449 C77.2920351,107.978518 77.2529185,107.008974 75.7986992,102.1176 C75.5064748,101.152651 75.8723306,100.603549 76.9837038,100.316361 C77.8649791,100.086612 78.5851858,99.6661694 78.5851858,99.3789822 C78.5851858,99.0986874 79.2041494,98.8183926 79.9772786,98.7678476 C82.3081712,98.5886427 87.7960082,95.9350322 87.5267935,95.1102303 C87.3864337,94.6897881 86.4821487,94.2923209 85.5203391,94.2463709 C83.4816709,94.140686 82.2782585,92.5806847 82.8396976,90.779446 C83.0582906,90.078709 82.8788142,89.2768821 82.441628,89.0080748 C81.9975389,88.732375 81.643188,89.1482222 81.643188,89.9454541 C81.643188,90.7311985 81.1369725,92.0384751 80.5203099,92.8563845 C78.7623613,95.1791552 79.0476828,92.5485197 80.8792627,89.5410944 C82.9869603,86.1017394 82.8120858,85.0586752 80.0186963,84.4980856 C76.2542932,83.7468037 76.0587099,83.9030335 78.3113692,85.8329321 C80.3730471,87.6043033 80.384552,87.6893108 79.1029063,89.6582668 C78.3780976,90.7633635 77.2713263,91.6662803 76.6546637,91.6662803 C76.0310982,91.6662803 75.5202806,91.9741451 75.5202806,92.3440423 C75.5202806,92.7139396 74.8184818,93.2033067 73.9579153,93.426164 C73.1088537,93.6513189 72.4645794,94.122306 72.5359098,94.4761208 C72.8672509,96.169377 71.3739149,100.084314 70.4006005,100.084314 C69.7931418,100.084314 69.4848105,100.387584 69.7103065,100.745994 C69.9358025,101.111296 71.0701856,101.256038 72.2390834,101.081428 C74.1834113,100.773564 74.2547417,100.844786 73.0306204,101.839603 C72.2943069,102.434655 71.6891492,103.360547 71.6891492,103.882079 C71.6891492,105.076778 68.0213873,104.274951 66.2634387,102.698867 C65.6053584,102.103815 64.4663734,101.616746 63.7461667,101.616746 C62.6509003,101.616746 62.5841719,101.352533 63.3089805,99.9947117 C63.7875844,99.1032824 64.8368312,98.2049605 65.6352712,97.9912932 C66.4337112,97.7845183 67.0894904,97.2905562 67.0894904,96.8907915 C67.0894904,96.5048118 66.797266,96.3531769 66.4383131,96.5760342 C66.0793603,96.7942966 65.3936683,96.128022 64.9219674,95.0895528 C64.4502666,94.0464886 63.7599726,93.2056042 63.3780099,93.2056042 C62.2206171,93.2056042 58.686312,96.3072269 58.8726914,97.1595988 C58.9693325,97.607611 58.5574571,98.1521181 57.9684063,98.3657854 C57.2205879,98.6414852 57.0411114,98.3703804 57.3678506,97.5134135 C57.6370652,96.824164 57.5128123,96.2635744 57.1101408,96.2635744 C56.7074693,96.2635744 56.3692253,95.6914974 56.3692253,94.9907604 C56.3692253,93.8190362 56.2679822,93.8190362 54.9656276,94.9907604 C54.1971003,95.6914974 53.1961741,96.2635744 52.752085,96.2635744 C52.3033939,96.2635744 50.2463179,97.7776258 48.18464,99.622517 C45.1059289,102.381812 44.0451772,102.910237 42.2757237,102.579397 C40.5614937,102.253153 39.7354419,102.618455 38.2375041,104.380636 L36.3507006,106.590829 L37.6990748,104.123316 C38.4399903,102.776982 42.0019071,97.7178909 45.6029406,92.8931444 C79.6137238,47.3544304 129.215947,16.009661 184.768503,4.95409914 C206.429928,0.634802324 232.451709,-1.15494886 245.344099,0.770354724 C249.062482,1.32634931 251.317443,1.90302139 250.344128,2.06614377 C249.366212,2.22237366 248.379091,2.8404007 248.148993,3.44004776 C247.902788,4.07875229 246.676366,4.52216946 245.176127,4.52216946 C242.373534,4.52216946 240.951528,5.72835608 243.098342,6.28894566 C244.221221,6.58532294 244.184405,6.65424789 242.879749,6.72547034 C242.019183,6.7806103 240.903208,7.22402747 240.401594,7.72488211 C239.778029,8.34290915 234.644542,8.69442639 223.970297,8.83457379 C205.477322,9.0872986 204.195676,9.227446 198.820587,11.6007618 C196.528811,12.6093635 192.872554,13.6478327 190.691225,13.9051526 C188.505294,14.1624724 186.089266,14.713872 185.320738,15.1343142 C184.556813,15.5501613 182.904709,16.1107509 181.664481,16.3795582 C179.989368,16.733373 179.68794,17.0297503 180.484079,17.5191174 C181.068528,17.8775271 181.82555,18.0176745 182.159192,17.8108997 C182.485931,17.6087198 183.967762,17.7718422 185.444991,18.1762019 C187.057978,18.6242141 188.298206,18.6357016 188.562819,18.2221519 C188.804422,17.8361722 188.562819,17.5214149 188.035895,17.5214149 C187.428436,17.5214149 187.338698,17.2572026 187.78969,16.8206779 C189.098947,15.5593513 193.868878,15.6259788 195.716565,16.9171728 C197.384776,18.084302 197.407785,18.2014744 196.070916,18.8861289 C194.644309,19.6213284 189.36356,20.8826549 184.207064,21.7028618 C182.117774,22.0451891 181.291723,22.6011837 180.964983,23.9176502 C180.548506,25.567254 180.13433,25.6890214 174.947921,25.6890214 C168.976878,25.6890214 161.926676,27.3156502 162.347755,28.5999517 C162.695203,29.6499085 166.56085,30.0473757 167.706738,29.1490538 C170.829167,26.6815407 178.634091,26.1921735 177.73901,28.5264318 C177.278814,29.7257259 179.45324,30.8216326 180.132029,29.7326184 C180.378234,29.3282587 181.243402,28.997419 182.069454,28.997419 C182.918515,28.997419 183.558188,28.4712918 183.558188,27.7682574 C183.558188,26.954943 183.974665,26.6907306 184.766202,27.0008929 C185.435787,27.2536177 186.491937,27.4672851 187.120105,27.4672851 C188.114128,27.4672851 188.114128,27.6120275 187.08559,28.6344142 C185.219495,30.4976853 186.294053,31.7819869 189.423385,31.4166847 C191.340102,31.1915298 192.023493,31.3615447 191.659938,31.9542993 C191.296383,32.5470538 192.232882,32.8181586 194.648911,32.8181586 C197.064939,32.8181586 198.300566,33.1765684 198.608897,33.9577178 C198.8505,34.5849348 199.529289,35.106467 200.113738,35.106467 C201.068644,35.106467 201.505831,36.0438463 200.990411,36.9858206 C200.884566,37.1765129 201.478219,37.826705 202.304271,38.426352 C203.597421,39.3683263 203.680257,39.800256 202.904826,41.5004047 C202.405514,42.5779315 201.15148,43.6830281 200.125243,43.940348 L198.252245,44.4090376 L199.904349,46.0632364 C200.820139,46.9730457 202.313475,47.7794676 203.229265,47.8644751 C204.145055,47.94259 205.96513,48.5537246 207.274387,49.2268916 C209.145084,50.1918409 209.593775,50.8696029 209.391289,52.3951417 C209.250929,53.4611809 208.638868,54.6489876 208.031409,55.0257773 C207.200756,55.5587969 207.170843,55.7265143 207.930166,55.7334068 C208.480101,55.7380018 208.717101,56.098709 208.457091,56.5191512 C208.199381,56.9349984 208.523819,57.2819206 209.177297,57.2819206 C209.83998,57.2819206 210.373807,57.7988578 210.373807,58.4260748 C210.373807,59.0486968 209.902106,59.570229 209.317657,59.570229 C207.716175,59.570229 201.17679,62.6098192 201.17679,63.3565062 C201.17679,63.7218084 200.40136,63.8665508 199.451056,63.6988334 C198.500751,63.5242235 198.157905,63.5747685 198.682528,63.8274933 C199.384327,64.1629281 199.418842,64.6683777 198.811383,65.8125319 C198.355789,66.6534162 197.782845,67.1473784 197.541242,66.9061411 C197.299639,66.6694987 196.715191,67.002636 196.24349,67.652828 C195.764886,68.298425 194.759358,68.9210471 193.995432,69.0336245 C192.370941,69.2702668 191.197441,70.8968956 191.708258,72.2133621 C192.01659,73.0220816 190.433516,73.784851 187.752874,74.1271782 C187.336397,74.1823182 186.505743,74.6257354 185.932799,75.10821 C185.343748,75.5860897 184.393443,75.9881519 183.825101,75.9950444 C182.640097,76.0065319 176.650646,81.5641803 176.650646,82.6577895 C176.650646,83.0437692 175.914333,83.1402641 175.016951,82.8599693 C173.976908,82.5245346 173.567333,82.6302195 173.894072,83.1402641 C174.292142,83.7904561 168.293487,85.361945 166.698908,85.0196177 C160.069785,83.6227387 157.412154,83.5285413 150.794536,84.4314582 C148.086282,84.8082479 146.424975,84.6956705 145.693263,84.0891309 C144.851105,83.3929889 143.985936,83.4504264 141.85753,84.3349632 C140.345786,84.9621803 139.105558,85.7938747 139.105558,86.1683669 C139.105558,86.5382641 138.033301,86.8874838 136.717141,86.9265413 C135.407883,86.9655988 131.997831,88.2223304 129.140014,89.7134068 C123.001,92.9390944 121.852811,93.1114068 122.623639,90.7220085 C122.927369,89.7731417 123.247205,87.9052756 123.348448,86.5658341 C123.567041,83.4527239 126.12343,80.1374338 133.185137,73.8376935 C139.79125,67.9308253 149.0665,63.1083763 149.0665,65.5758895 C149.0665,65.9342993 149.93627,66.0698517 151.003925,65.8676718 C152.807893,65.5207496 152.840107,65.4242546 151.576869,64.4432229 C150.279116,63.4392161 150.290621,63.3335312 151.751743,62.189377 C152.593902,61.5276975 154.222996,61.1187428 155.375786,61.2864602 C156.915142,61.5047225 157.600834,61.1968578 157.925272,60.169876 C158.189885,59.3289916 161.015488,57.527753 164.82361,55.7448943 C172.232765,52.3009443 175.210233,49.7828862 174.602774,47.4647104 C174.271433,46.2309538 174.848979,45.5738693 177.315629,44.3125427 C179.034461,43.4371958 180.702672,42.7755163 181.029411,42.8490363 C181.360752,42.9225562 182.221318,42.7203764 182.946127,42.4010241 C183.799791,42.0311269 185.25401,42.4354866 187.046473,43.5336908 C189.287628,44.9144872 189.957213,45.0477421 190.46803,44.2183452 C191.878531,41.9415244 185.806245,40.3884156 173.008195,39.7657935 C170.732526,39.6486211 170.829167,38.0380748 173.272808,35.1432269 C174.750037,33.3879382 174.957125,32.7974812 174.082753,32.7974812 C173.44308,32.7974812 172.695262,33.1558909 172.414542,33.5993081 C172.083201,34.1323277 171.245645,33.9646103 169.94329,33.1214284 C168.208351,31.9887617 167.354688,31.9382168 162.876981,32.7400437 C160.078989,33.2386008 156.765578,34.3161275 155.534554,35.1294419 C154.292025,35.9473513 152.662931,36.6113283 151.899006,36.6205183 C151.135081,36.6205183 150.725506,36.9674406 150.983216,37.3878828 C151.774753,38.6606968 154.44389,38.2402546 156.961162,36.457396 C159.572774,34.6010173 168.489071,33.5234906 169.865057,34.8973946 C171.257149,36.2873811 166.892191,41.4429673 162.393775,43.7266806 C160.085892,44.8984047 157.994302,46.3619112 157.759602,46.9753432 C157.524902,47.5887753 156.848414,48.0919274 156.259363,48.0919274 C155.674914,48.0919274 155.180203,48.5192621 155.168698,49.0453892 C155.145689,50.0884534 149.038888,53.442801 147.163589,53.442801 C146.528519,53.442801 145.055892,54.5433026 143.9008,55.8873392 C139.018121,61.5460775 138.557925,61.8493473 135.193892,61.7206874 L131.974821,61.5966225 L134.39085,59.4484615 C135.716215,58.2583574 136.806879,57.1027158 136.806879,56.8683709 C136.806879,56.066544 133.493468,58.2261924 131.088944,60.6041032 C129.756677,61.9159747 127.370561,63.3863736 125.785186,63.8573608 C123.790236,64.4524129 123.155166,64.4639003 123.723508,63.9033108 C125.150115,62.4834568 124.616288,61.557565 123.145962,62.8832215 C120.803564,64.99692 120.527447,64.3076705 122.393541,60.9877854 C123.364555,59.2485792 125.601107,56.6524061 127.354454,55.2095772 C129.112402,53.7690457 130.904866,51.5749348 131.33745,50.3342857 C131.797646,49.0384967 132.978049,47.7587901 134.135441,47.3222655 C136.719442,46.3412337 136.804578,46.3527212 136.804578,47.7312202 C136.804578,49.330279 139.091752,50.0930484 139.933911,48.7742844 C140.417116,48.01611 140.6127,47.983945 140.624205,48.6685995 C140.628807,49.1901316 141.010769,49.6220613 141.484771,49.6220613 C141.967977,49.6220613 142.158958,48.9442993 141.92886,48.0505724 C141.632034,46.9179058 141.984084,46.2998787 143.215108,45.8357841 C144.142403,45.4819693 145.366524,44.6410849 145.934866,43.9679179 C146.496305,43.2993459 147.771048,42.7387563 148.771974,42.7387563 C149.777503,42.7387563 150.587447,42.4308916 150.587447,42.0541018 C150.587447,41.6612296 149.402443,41.6566346 147.715825,42.0426143 C146.141954,42.4194041 143.401487,42.520494 141.648141,42.2677692 C138.896169,41.8863845 137.952767,42.1620843 134.890163,44.2711877 C132.929728,45.6106292 131.098148,46.4813811 130.812827,46.1941938 C130.520602,45.9070065 130.91407,45.2246495 131.673393,44.6617624 C132.612193,43.9771079 132.780164,43.4785508 132.200317,43.1201411 C130.835836,42.2792567 133.705158,39.5636137 135.391776,40.1035258 C137.458056,40.7606103 138.560226,39.800256 137.246366,38.4929795 C136.638908,37.8864399 135.819759,37.3924778 135.421689,37.3924778 C135.016717,37.3924778 134.264296,36.8755407 133.741974,36.2483236 C132.540862,34.8008997 128.59008,34.7848172 126.079711,36.2138611 C125.023561,36.8135082 122.989495,37.8404899 121.558286,38.5021695 C120.120173,39.159254 117.497056,40.9926576 115.716098,42.5641465 C113.930537,44.1287428 111.031303,46.5755785 109.261849,47.993135 C107.492396,49.4106914 105.676923,51.3704575 105.235134,52.3400018 C104.793346,53.3095461 103.36904,54.5433026 102.07819,55.0832148 C100.785039,55.6162344 98.6796429,56.9671634 97.3933951,58.0791525 C96.1002445,59.1957367 94.0615763,60.6201857 92.8489599,61.2542952 C91.0841084,62.157212 90.8885251,62.4834568 91.8894513,62.857949 C92.5751433,63.1267563 93.1411844,63.0026914 93.1411844,62.5937367 C93.1411844,62.1962695 93.5001372,61.8539423 93.9511293,61.8539423 C94.4021213,61.8539423 96.0289141,60.9946779 97.5866774,59.9355312 C99.1490428,58.8809795 100.536534,58.3709348 100.676893,58.791377 C101.362585,60.838448 108.799352,58.4214798 111.726199,55.1843047 C112.462512,54.3709903 113.8431,53.7713432 114.788803,53.8540532 C115.739108,53.9390606 117.204832,53.6357908 118.042388,53.1808862 C119.827949,52.2159369 124.664608,50.4215907 125.529777,50.4055082 C125.856516,50.4009132 125.596505,51.2027401 124.952231,52.1837719 C124.312558,53.1602087 123.96281,54.1458354 124.192907,54.3778828 C124.418404,54.6030376 123.382963,55.8528767 121.901132,57.1601532 C120.407796,58.4605373 119.188276,59.8803912 119.188276,60.3077259 C119.188276,60.7281681 117.902029,61.6195974 116.328158,62.281277 C113.295467,63.5426035 109.998163,66.2352715 109.998163,67.4575406 C109.998163,67.8664953 111.537518,68.0135352 113.615303,67.7768929 C116.698616,67.4299707 117.03686,67.5126806 115.890972,68.353565 C114.57021,69.3185143 108.493322,74.7704778 103.049204,79.8870065 C101.53746,81.299968 99.8531426,83.8364061 99.2917035,85.5135799 C98.7348664,87.2022411 98.0284656,88.4199152 97.7247362,88.2338179 C97.409502,88.0431255 96.7422178,88.8840099 96.2360023,90.106279 C94.8761232,93.3939991 90.5111644,97.1573013 89.3652764,96.0177421 C88.6749825,95.3399801 88.5783413,95.4226901 88.9372942,96.3761519 C89.2916451,97.2790687 88.7739246,97.8465508 87.0711995,98.4347103 C85.7780488,98.8827225 84.728802,99.7856394 84.728802,100.438129 C84.728802,101.095213 84.3123247,101.621341 83.8084101,101.621341 C83.129621,101.621341 83.1112132,101.846495 83.7531866,102.4852 C84.843851,103.574214 84.158159,105.329503 81.7812468,107.532804 C80.7481069,108.486265 80.1797648,109.27201 80.5111059,109.27201 C80.842447,109.27201 80.1843668,110.131274 79.0499837,111.185826 C76.7812176,113.244384 75.5732032,113.602794 75.7986992,112.111718 Z M67.4277345,79.8088916 C67.7935903,78.2764602 67.715357,77.7733081 67.2022385,78.2764602 C66.7857611,78.6923074 66.1921083,80.0708064 65.8998839,81.3275379 C65.5340281,82.8645643 65.6191643,83.3700139 66.1253799,82.8645643 C66.5464592,82.4441221 67.13551,81.0702181 67.4277345,79.8088916 Z M65.3844644,78.2328077 C65.4857075,77.104736 65.2325997,76.477519 64.7839086,76.7463263 C63.8957304,77.3023209 63.7507687,80.1902763 64.627442,80.1902763 C64.9564821,80.1833838 65.2993281,79.3080369 65.3844644,78.2328077 Z M73.6012634,71.018663 C75.2303572,69.2243168 73.8934879,68.9256421 72.1240344,70.6878233 C70.7710582,72.0341573 70.6191935,72.5442019 71.5671972,72.5442019 C71.9284511,72.5442019 72.8373381,71.8549524 73.6012634,71.018663 Z M78.2032231,64.1307631 C78.8037789,63.1612188 77.7936487,63.1612188 76.2865069,64.1307631 C75.2924836,64.7648726 75.3154934,64.87745 76.4314687,64.8889375 C77.1470734,64.8935325 77.9386105,64.5558003 78.2032231,64.1307631 Z M85.6583979,59.3795366 C86.9791603,58.150375 87.6694543,56.9166184 87.3381132,56.3904913 C86.9676554,55.7954392 87.1080152,55.6897543 87.7591925,56.094114 C88.4172727,56.4915812 88.6243609,56.3468388 88.38736,55.6346143 C87.931766,54.2767928 86.8318976,54.4904602 85.8585831,56.1331715 C85.4421058,56.845396 84.1512561,58.3939098 82.9869603,59.5725264 C81.8295674,60.7557381 80.8792627,62.1365346 80.8792627,62.6396867 C80.8815637,63.632206 81.640887,63.1198638 85.6583979,59.3795366 Z M153.281895,42.7272688 C153.017282,42.3068267 152.462746,41.9644994 152.034764,41.9644994 C151.618286,41.9644994 151.48483,42.3068267 151.742539,42.7272688 C152.000249,43.147711 152.561688,43.4946333 152.985068,43.4946333 C153.408449,43.4946333 153.541906,43.147711 153.281895,42.7272688 Z M184.94798,33.5671431 C186.050149,33.5786306 186.066256,33.6797205 185.072232,34.318425 C184.071306,34.9640221 184.082811,35.065112 185.178078,35.069707 C185.852265,35.0811945 186.823278,34.5987198 187.324892,33.9990728 C188.033594,33.1398084 187.920846,32.8273486 186.751948,32.4505589 C184.736289,31.8118544 182.76435,32.6917962 182.83568,34.2058476 C182.874797,35.0076745 183.038166,35.1087645 183.279769,34.5091174 C183.500663,33.9760978 184.246181,33.5602506 184.94798,33.5671431 Z M162.28793,26.6723507 C162.934505,26.6723507 163.659314,26.1554135 163.900917,25.5281965 C164.496871,23.9911701 163.737547,24.0876651 160.709458,25.9210687 C159.216122,26.830878 158.406177,27.8119098 158.721411,28.3265494 C159.098772,28.9261965 159.547463,28.8090241 160.182533,27.9336772 C160.697953,27.2398327 161.641355,26.6723507 162.28793,26.6723507 Z M170.898197,19.7959382 C171.162809,19.375496 171.033954,19.0285738 170.605972,19.0285738 C170.184893,19.0285738 169.628056,19.375496 169.363443,19.7959382 C169.09883,20.2117854 169.23919,20.5587077 169.660269,20.5587077 C170.081349,20.5587077 170.640487,20.2117854 170.898197,19.7959382 Z M177.414572,13.6754027 C177.414572,13.2549605 176.896851,12.9080383 176.268684,12.9080383 C175.640516,12.9080383 175.122796,13.2549605 175.122796,13.6754027 C175.122796,14.0912499 175.640516,14.4381722 176.268684,14.4381722 C176.896851,14.4381722 177.414572,14.0912499 177.414572,13.6754027 Z M159.034344,103.484612 C159.034344,102.839015 158.512022,102.115303 157.883855,101.874065 C156.395121,101.301988 156.395121,100.072827 157.883855,100.072827 C158.512022,100.072827 159.034344,99.5512945 159.034344,98.9286725 C159.034344,98.294563 158.668489,97.7799233 158.215196,97.7799233 C157.771107,97.7799233 157.61464,97.4536786 157.860845,97.0516164 C158.10705,96.6495542 158.877878,96.5346792 159.568172,96.7988916 C160.55069,97.1756813 160.702555,96.9735014 160.288378,95.8729997 C159.687823,94.3198909 160.856721,93.2262817 163.141593,93.2079017 C164.197743,93.1964142 164.462356,93.5892864 164.170131,94.7219531 C163.8618,95.9005697 164.147122,96.2589794 165.421865,96.2635744 C166.32615,96.2635744 168.394731,96.6219842 169.98931,97.0722939 C172.669951,97.8189808 172.888544,98.0808956 172.674553,100.309469 C172.366222,103.477719 169.984708,104.644848 163.815781,104.663228 C160.023766,104.656336 159.034344,104.410503 159.034344,103.484612 Z M264.499756,97.2629862 C263.443606,96.2130295 264.046463,94.7173581 265.521391,94.7173581 C266.543026,94.7173581 267.056145,95.2274027 267.056145,96.2497895 C267.058446,97.7178909 265.555906,98.3129429 264.499756,97.2629862 Z M222.720865,75.8020545 C222.242261,74.9037327 221.855696,73.6378111 221.855696,72.9761316 C221.855696,72.3259396 221.508248,71.7814325 221.087169,71.7814325 C220.187486,71.7814325 220.081641,68.7579247 220.946809,67.4001032 C221.294257,66.8555961 222.575903,66.5913838 223.997909,66.7728861 C225.346283,66.947496 226.453054,66.7774811 226.453054,66.4144764 C226.453054,65.7022519 231.604948,65.9664642 232.357369,66.7177462 C233.109789,67.4575406 230.868635,69.5850241 229.77797,69.1622844 C228.367469,68.6246698 228.480217,70.2283236 229.973553,71.8664399 C231.400161,73.4425237 230.854829,74.7934527 228.850675,74.6372229 C227.895769,74.5637029 227.552923,74.0881208 227.794525,73.1553365 C228.413489,70.8095907 226.917852,71.6573676 225.215127,74.6142479 C223.655063,77.3229984 223.565324,77.3689484 222.720865,75.8020545 Z M119.749715,65.559807 C120.267436,65.0382749 120.879497,64.8085251 121.114196,65.0428699 C121.348896,65.2772148 120.93472,65.7045494 120.170795,65.9917367 C119.087033,66.4144764 119.004198,66.324874 119.749715,65.559807 Z M278.533432,64.4960653 C277.125233,62.8074041 277.925974,62.6121167 279.506747,64.259423 C280.240759,65.0336799 280.544489,65.660897 280.174031,65.660897 C279.798971,65.660897 279.060357,65.1393649 278.533432,64.4960653 Z M244.310959,64.4110579 C243.678189,64.1537381 243.784034,63.6436935 244.692922,62.7292891 C245.599508,61.8148848 246.250685,61.6517624 246.860445,62.203162 C247.34365,62.6350917 247.557641,63.2921762 247.332145,63.6620734 C247.102047,64.0319707 247.398874,64.1721181 247.983323,63.9699382 C248.65751,63.7401884 248.961239,62.7407766 248.809374,61.1991553 C248.572374,58.864897 248.629898,58.814352 250.657061,59.5840139 C252.168805,60.160686 252.905119,60.1400085 253.293984,59.4990065 C253.680549,58.864897 253.984278,58.8534095 254.361639,59.464544 C254.653863,59.9309362 254.501999,60.3123209 254.027997,60.3123209 C253.553995,60.3123209 253.383722,60.6592431 253.646034,61.0796853 C253.910647,61.4955325 253.669044,61.8470498 253.11911,61.8539423 C252.389699,61.8654298 252.428816,62.0676096 253.26177,62.6052242 C254.198269,63.2117638 254.097026,63.3519112 252.74405,63.3633987 C251.837464,63.3679937 250.917072,62.9429565 250.703081,62.4145319 C250.456876,61.8194798 250.293506,61.9274622 250.25439,62.7178016 C250.171555,64.5558003 246.938678,65.4770971 244.310959,64.4110579 Z M104.19049,56.5811837 C104.420588,56.2112864 105.386999,55.7127293 106.341906,55.471492 C108.017019,55.0556448 108.026223,55.0855123 106.595014,56.144659 C104.94291,57.3715231 103.543914,57.6288429 104.19049,56.5811837 Z M123.783333,48.8409118 C125.288174,47.8713676 126.305207,47.8713676 125.700049,48.8409118 C125.44234,49.256759 124.648502,49.6036813 123.935198,49.5990863 C122.81232,49.5853013 122.796213,49.4842114 123.783333,48.8409118 Z M127.614465,45.0201722 C127.614465,44.604325 128.136787,44.2528077 128.764954,44.2528077 C129.393122,44.2528077 129.910842,44.6066225 129.910842,45.0201722 C129.910842,45.4337219 129.393122,45.7875366 128.764954,45.7875366 C128.132185,45.7898341 127.614465,45.4360194 127.614465,45.0201722 Z M196.011091,31.5591296 C196.2688,31.3064048 196.926881,31.2788348 197.483718,31.4970971 C198.084274,31.7383344 197.9117,31.9244318 197.016619,31.9565968 C196.206674,31.9956542 195.757983,31.8118544 196.011091,31.5591296 Z M190.875304,30.5160653 C190.060757,30.228878 189.717911,29.8199233 190.111378,29.606256 C191.128411,29.0456664 197.762136,28.7929416 197.223707,29.3305562 C196.284907,30.2679355 192.290406,31.0146225 190.875304,30.5160653 Z M195.992683,26.931968 C194.358987,26.2748835 194.936533,25.0250444 196.76121,25.2823642 C197.704612,25.4179166 198.394906,25.8774162 198.289061,26.2909659 C198.061264,27.2214528 197.274329,27.4351201 195.992683,26.931968 Z M185.079135,26.4196258 C185.079135,26.1783885 185.859168,25.1353243 186.820977,24.115235 C188.079613,22.768901 189.662687,22.118709 192.476786,21.8200342 C194.635105,21.5902844 197.297338,21.1744372 198.397207,20.9010349 C199.885941,20.5242452 200.396758,20.6942601 200.396758,21.523657 C200.396758,23.0491958 198.385702,24.6528496 197.313445,23.9911701 C196.846346,23.6993878 194.846795,23.7108753 192.881758,24.0187401 C190.028543,24.4621573 189.607464,24.6965021 190.831585,25.1904643 C192.219076,25.7510538 192.184561,25.8084913 190.449622,25.8682263 C189.393473,25.9026887 187.759777,26.1370336 186.809472,26.3897584 C185.852265,26.6447807 185.079135,26.6562682 185.079135,26.4196258 Z M258.422868,12.4025887 C258.940589,12.1958138 259.980632,12.1843263 260.721547,12.3750187 C261.467065,12.570306 261.041383,12.7403209 259.778145,12.7564034 C258.512607,12.7724859 257.900546,12.616256 258.422868,12.4025887 Z" stroke="#4CDAFF" opacity="0.451822917"></path>
                </g>
            </g>
        </g>
    </g>
</svg>