<?xml version="1.0" encoding="UTF-8" standalone="no"?>
<svg width="72px" height="73px" viewBox="0 0 72 73" version="1.1" xmlns="http://www.w3.org/2000/svg" xmlns:xlink="http://www.w3.org/1999/xlink">
    <!-- Generator: Sketch 46.2 (44496) - http://www.bohemiancoding.com/sketch -->
    <title>Stroke 2</title>
    <desc>Created with Sketch.</desc>
    <defs></defs>
    <g id="Page-1" stroke="none" stroke-width="1" fill="none" fill-rule="evenodd">
        <g id="mm-landing-1440-edits" transform="translate(-741.000000, -2320.000000)" stroke="#83949F">
            <g id="Page-1" transform="translate(741.000000, 2219.000000)">
                <polygon id="Stroke-2" points="23.9979916 101 26.5720429 104.412568 26.3324667 106.755401 27.28195 108.21793 27.204877 109.66328 25.486057 109.287201 26.1616062 112.391013 28.5137245 114.153013 31.8487554 116.09423 30.3267964 117.342719 29.3944921 119.900056 31.72061 120.926148 33.9780122 122.25171 37.1082889 123.765312 40.3927116 124.116319 41.7777036 125.476239 43.624669 125.724172 46.5158339 126.348185 48.5081236 126.305469 48.7820577 125.24502 48.4654085 123.543379 48.6539123 122.388677 50.1159771 121.815737 50.3211955 123.936636 50.3639107 124.475683 52.5447042 125.492953 54.0583058 125.074159 56.0770604 125.253377 58.0354567 125.176304 58.2063172 123.5262 57.2312977 122.670968 59.1641578 122.328783 61.3449513 120.31885 64.1075064 118.582851 66.1169751 119.250043 67.8274378 118.104163 68.9561389 119.797447 68.1436227 120.943327 70.72696 121.345406 70.9149994 122.371498 70.0681254 122.867829 70.2645222 124.517934 68.5545238 124.030888 65.4497832 125.877854 65.5184989 127.399813 64.201294 129.623786 64.0726843 130.906633 63.0043415 133.06189 61.1313756 132.463414 61.0366594 135.156789 60.4980772 136.038021 60.7548324 137.132364 59.5657729 137.748019 58.3089264 133.643187 57.6417345 133.651545 57.2484767 135.310471 55.9400934 133.959372 56.6755366 132.480128 57.7531653 132.326447 58.8563302 130.111295 57.4792313 129.658143 55.2473653 129.700394 52.9723199 129.341494 52.7582799 127.502886 51.6128642 127.365919 49.714362 126.220039 48.8670236 128.024289 50.5946653 129.418567 49.0987068 130.401944 48.5680177 131.359785 50.0389042 132.06087 49.637289 133.63483 50.4669842 135.584405 50.8425988 137.705768 50.4920561 138.645966 48.8670236 138.612072 45.9080717 139.141833 46.0450388 141.066335 44.762656 142.57158 41.3161944 144.282042 38.6307122 147.240994 36.8259976 148.823312 34.4399857 150.456701 34.4399857 151.602581 33.2425689 152.218237 31.0789543 153.099468 29.9586105 153.235971 29.2403462 155.117759 29.7362132 158.324644 29.8648229 160.351292 28.8554456 162.669052 28.838731 166.799885 27.5985991 166.919673 26.5121489 168.757817 27.2387705 169.553154 25.050084 170.237525 24.2459251 171.879736 23.2797272 172.572 21.0130391 170.323419 19.9015169 166.936852 18.9775699 164.490482 18.1399818 163.344602 16.865492 161.001305 16.2753731 157.939744 15.856579 156.400141 13.6757855 153.005217 12.6835871 148.181656 11.9653228 144.957592 11.9741444 141.896031 11.5117066 139.501661 8.02299412 141.032442 6.32924603 140.724614 3.19943356 137.619874 4.35367088 136.687569 3.64376385 135.678192 0.83060056 133.471862 2.42963248 131.727506 7.70634494 131.735863 7.22719252 129.478461 5.88445143 128.144078 5.61098169 126.100715 4.037486 124.902834 6.67978874 122.080849 9.4678801 122.286068 11.9741444 119.44644 13.4789244 116.658813 15.8050423 113.8879 15.7706845 111.895146 17.8149753 110.261756 15.8732937 108.867478 15.0440628 106.943904 14.1976531 104.420461 15.3690693 103.172436 19.012392 103.881879 21.680231 103.445906"></polygon>
            </g>
        </g>
    </g>
</svg>