<?xml version="1.0" encoding="UTF-8" standalone="no"?>
<svg width="77px" height="94px" viewBox="0 0 77 94" version="1.1" xmlns="http://www.w3.org/2000/svg" xmlns:xlink="http://www.w3.org/1999/xlink">
    <!-- Generator: Sketch 46.2 (44496) - http://www.bohemiancoding.com/sketch -->
    <title>Combined Shape</title>
    <desc>Created with Sketch.</desc>
    <defs></defs>
    <g id="Page-1" stroke="none" stroke-width="1" fill="none" fill-rule="evenodd">
        <g id="mm-landing-1440-edits" transform="translate(-832.000000, -2219.000000)" stroke="#83949F">
            <g id="Page-1" transform="translate(741.000000, 2219.000000)">
                <g transform="translate(92.000000, 0.000000)" id="Combined-Shape">
                    <path d="M42.6516634,88.8019696 L43.4891403,88.1819688 L44.1385726,88.3604966 L44.1385726,91.7918254 L44.1417448,91.7918254 L44.1417448,88.3604966 L44.4922797,89.058394 L44.9467941,90.2042851 L46.1316335,91.1360486 L47.4074111,91.5288802 L46.9920212,92.3143672 L46.1282851,92.3954361 L45.6642538,91.8339459 L45.1156289,91.7918254 L45.1124566,91.7918254 L45.6609053,91.8339459 L45.3590118,92.476505 L44.5800455,92.9733163 L44.1320518,92.9215027 L43.59312,92.7916162 L42.9308224,92.311195 L41.9765006,92.0805011 L40.8306095,91.2010799 L39.9020183,90.3665991 L38.6489752,88.6623901 L39.3990387,88.9773251 L40.6779885,89.9933297 L41.8855625,90.5453031 L42.3562907,89.8407087 L42.6516634,88.8019696 Z M1.03556692,0.849452421 L2.1909748,0.732783718 L2.10690989,0.940390565 L3.47979387,1.46310865 L5.55744847,2.21281962 L7.36880939,2.20330284 L8.08944131,2.20330284 L8.08944131,1.76500214 L9.66711235,1.76500214 L9.99808489,2.14479225 L10.4658171,2.47928953 L11.0045728,2.94332079 L11.3064662,3.49212191 L11.5336354,4.0633051 L12.0045399,4.3782401 L12.7607716,4.69000284 L13.3319548,3.86873977 L14.0786697,3.84900126 L14.7182327,4.26456742 L15.1759195,4.97233406 L15.4906783,5.57612103 L16.0264379,6.16034573 L16.2277002,6.87128463 L16.4841246,7.34853364 L17.191715,7.66012015 L17.8377988,7.88094475 L18.1950306,7.85151322 L17.8411473,8.73128688 L17.6820055,9.44874653 L17.6138019,10.7731654 L17.526036,11.2504144 L17.6851778,11.7826493 L17.9676852,12.2598983 L18.1493853,13.0097855 L18.7533485,13.7272452 L18.9643038,14.2758701 L19.3213594,14.7464221 L20.2887227,15.0030227 L20.6651643,15.3990266 L21.4638691,15.132733 L22.1552457,15.0386226 L22.8369293,14.8667918 L23.4116373,14.7011293 L23.989165,14.3114699 L24.2068173,13.7499797 L24.2813654,12.9415819 L24.4405072,12.6592507 L25.0541634,12.4028263 L26.0181782,12.1786532 L26.8234038,12.211257 L27.3752009,12.1300119 L27.592677,12.3346227 L27.5634217,12.8020024 L27.0731312,13.3765341 L26.8590036,13.9642836 L27.0244899,14.1297698 L26.8882589,14.5451598 L26.6609135,15.2887025 L26.4303959,15.0451433 L26.2390028,15.0613571 L26.2421751,15.2009366 L26.4143584,15.2042851 L26.4013168,15.4638817 L26.2518681,15.8762756 L26.3331132,16.0221996 L26.2390028,16.3632177 L26.2941649,16.4508073 L26.1903615,16.9280563 L26.0116575,17.1811323 L25.8461712,17.2103876 L25.6642949,17.5350156 L25.9630161,17.7071988 L26.0409128,17.5642709 L26.3072064,17.6844643 L26.4013168,17.7234126 L26.6024029,17.5577501 L26.8621758,17.5447086 L26.9465932,17.6192567 L27.0895212,17.5739639 L27.5114319,17.6585575 L27.9335188,17.6324745 L28.2257193,17.5284948 L28.332695,17.4246914 L28.6217232,17.4733327 L28.8391993,17.5381878 L29.0760614,17.5156295 L29.2579377,17.4343844 L29.6735039,17.5642709 L29.8196041,17.5838331 L30.0955908,17.7588362 L30.3583597,17.9699678 L30.6895085,18.1127195 L30.9297191,18.3724924 L30.8518225,18.4634306 L30.8063535,18.6710374 L30.8971154,19.0120555 L30.6895085,19.3301627 L30.5920496,19.7034321 L30.5596221,20.1156497 L30.6116119,20.3528644 L30.6343464,20.7716028 L30.4947669,20.8623647 L30.4103496,21.2583686 L30.4718562,21.5019277 L30.2838116,21.7389661 L30.3291044,21.9855213 L30.4653354,22.1381423 L30.6992015,22.6379496 L31.0497363,23.0082229 L31.478344,23.4008783 L31.8027958,23.7286786 L31.7834098,23.9237726 L32.1469861,23.9625447 L32.2345758,23.8878203 L32.4844794,24.1149894 L32.9326494,24.0467858 L33.318784,23.8164445 L33.8707574,23.6313959 L34.1823439,23.3587577 L34.6854997,23.4105713 L34.6497237,23.5015095 L35.1595765,23.533937 L35.5652734,23.6930788 L35.8606461,23.965717 L36.2048364,24.2189691 L36.6722162,24.2482244 L37.357072,23.6086614 L37.7305176,23.5113787 L37.7402106,23.2094852 L37.9090454,22.433515 L38.4315873,22.0049073 L39.0029467,21.9886935 L39.0744988,21.7973005 L39.7886099,21.8718486 L40.5058934,21.4078173 L40.8597767,21.2000342 L41.2980774,20.755389 L41.6227054,20.8103749 L41.8595675,21.053934 L41.684212,21.3655205 L41.6584815,21.5829966 L41.1227218,21.6903248 L41.4214431,22.1090632 L41.4084016,22.5926567 L41.0090492,23.1250678 L41.3532395,23.8522205 L41.7458949,23.7937099 L41.9505057,23.1314124 L41.6681745,22.8069606 L41.6227054,22.1122355 L42.755555,21.7356176 L42.629017,21.3004892 L42.9471243,21.0084649 L43.2749246,21.657721 L43.9144876,21.6739348 L44.5054093,22.1869598 L44.5410091,22.4920256 L45.3557514,22.4983701 L46.3296355,22.4042597 L46.8523536,22.8166536 L47.5469025,22.9303263 L48.056579,22.6444703 L48.0664483,22.4107804 L49.1959494,22.3554421 L50.2868546,22.3425768 L49.5142329,22.615215 L49.8224709,23.0503435 L50.5529721,23.1185471 L51.2410002,23.5698893 L51.3872766,24.3032103 L51.8610009,24.280652 L52.2182327,24.4981281 L52.815499,24.8326253 L53.3803376,25.4263668 L53.4030722,25.8970951 L53.7472625,25.9198296 L54.2340283,26.3616551 L54.5944323,26.6795861 L55.6851613,26.8612861 L55.7826202,26.6957999 L56.5192897,26.6309447 L57.4965223,26.8776761 L57.0226217,27.6566424 L57.0229742,27.659286 L57.4965223,26.8776761 L57.8049365,26.9781311 L58.4735786,27.1924349 L59.4375934,27.9585359 L59.5870421,28.328633 L59.0482865,29.1564168 L58.7722998,29.8252351 L59.0514588,29.1564168 L59.5902144,28.328633 L59.9019771,28.2863362 L60.125974,28.7863197 L60.6356506,30.3705115 L61.1225926,30.519784 L61.1484994,31.1431333 L60.4636435,31.8863235 L60.746151,32.1589617 L62.3560734,32.3018897 L62.3886771,33.2077464 L63.0800538,32.6136524 L64.2259449,32.9414527 L65.7354123,33.4932498 L66.1802338,34.0224887 L66.030785,34.522296 L67.0890865,34.243137 L68.8614991,34.7237346 L70.221694,34.6879585 L71.565499,35.4378457 L72.7277801,36.4538503 L73.4288497,36.713447 L74.2079922,36.7523953 L74.539141,37.038075 L74.847379,38.1971839 L75,38.7458088 L74.6364237,40.2584485 L74.1723924,40.8557147 L72.8899179,42.1346645 L72.3090416,43.1767522 L71.6368748,43.9818015 L71.4097057,44.0011875 L71.1532813,44.6830474 L71.2181364,46.4358977 L70.9650605,47.890203 L70.8676016,48.5167246 L70.5819219,48.8899939 L70.4197841,50.1689437 L69.4977136,51.4286837 L69.3419204,52.4316469 L68.6050747,52.8569061 L68.3907708,53.4444793 L67.4040215,53.441307 L65.9724507,53.8209209 L65.3297154,54.2592216 L64.3103622,54.5482498 L63.2390193,55.3400813 L62.469746,56.3335277 L62.3366873,57.0865871 L62.4893083,57.6480773 L62.317125,58.680472 L62.1126905,59.1836278 L61.4762997,59.7518149 L60.4668158,61.5956034 L59.6649388,62.4364288 L59.044938,62.9362361 L58.6327203,63.96211 L58.0289334,64.5821107 L57.7756812,63.9654585 L58.1782059,63.4557819 L57.6523155,62.7252807 L56.9382044,62.1345353 L56.0000963,61.4593724 L55.6624268,61.4884515 L54.7504018,60.6768814 L54.1610663,60.7870294 L53.9354833,61.6215102 L53.6919241,62.7155877 L53.7017934,63.7867544 L53.5037033,64.0269651 L53.4325037,64.7313832 L53.3706446,65.3027426 L54.5262287,66.2475477 L54.4030393,67.0168209 L54.9710502,67.5069352 L54.9255811,68.0587323 L54.0525044,69.5260792 L52.7020025,70.14608 L50.8774238,70.3894629 L49.8778092,70.2726179 L50.0692023,70.9705153 L49.88433,71.8536375 L50.0529885,72.4540759 L49.5077121,72.8761629 L48.5759486,73.0416491 L47.6995235,72.6035247 L47.3489886,72.9182834 L47.4755266,74.1226851 L48.0890066,74.4927822 L48.5889901,74.1064713 L48.8616283,74.7426859 L48.0241515,75.1256482 L47.2938265,75.89827 L47.1607678,77.1675268 L46.946464,77.8525589 L46.0860764,77.8557311 L45.3719652,78.5180287 L45.1123685,79.4952613 L46.0081797,80.4624484 L46.8784366,80.7319143 L46.5664976,81.9426605 L45.4921586,82.7152822 L44.9012369,84.3481154 L44.0702809,84.9064333 L43.6970115,85.5750754 L43.9923842,87.0813705 L44.5993435,87.9352374 L44.2163811,87.8606893 L43.3723835,87.6301717 L43.3655102,87.6292905 L44.2001673,87.857517 L43.3917695,87.8476478 L42.953645,88.2143964 L42.132382,88.7565005 L41.9861055,90.178202 L41.5999709,90.2141543 L40.574097,89.7141708 L39.5320093,88.6590416 L38.3991597,87.8053509 L38.1136562,86.8737637 L38.3699044,86.0232453 L37.9122177,85.0689235 L37.7953727,82.6862032 L38.1816836,81.3779981 L39.1425262,80.3422549 L37.7597729,79.955944 L38.6263288,78.7973639 L38.9349193,76.6675432 L39.9475755,77.1123647 L40.421476,74.5252098 L39.8111682,74.200758 L39.5254885,75.742653 L38.9511331,75.5671212 L39.2366366,73.8079264 L39.5482231,71.5873438 L39.9671377,70.7824707 L39.7041926,69.6460964 L39.6294682,68.3542813 L40.0124306,68.3185053 L40.5707485,66.5006236 L41.2006185,64.737904 L41.5869293,63.1246331 L41.375974,61.5307483 L41.6486122,60.6640162 L41.538288,59.3783693 L42.0706991,58.1223303 L42.2360092,56.1615206 L42.5282096,54.0935591 L42.8140656,51.9025843 L42.745862,50.321741 L42.5576412,48.9745875 L43.0250209,48.7308522 L42.5576412,48.971239 L41.6454399,48.4259627 L41.5641948,48.036127 L39.7625269,47.0885022 L38.1296938,46.0594561 L37.4252756,45.4813997 L37.048834,44.7121264 L37.1981065,44.4428367 L36.428657,43.2253935 L35.5296736,41.5243568 L34.6724582,39.7001306 L34.2991888,39.2813922 L34.0135091,38.6125738 L33.3059187,38.0153076 L32.6566627,37.6483828 L32.9522117,37.2426859 L32.5105625,36.37613 L32.7930699,35.7430877 L33.5202226,35.1683798 L34.0038161,34.4932169 L33.805726,34.097213 L33.4583635,34.5191237 L32.9130871,34.1197713 L33.0983119,33.8666954 L32.9456909,33.0454323 L33.2636219,32.9090251 L33.4324567,32.3473587 L33.776647,31.7629578 L33.7116156,31.3962092 L34.2117754,31.2014676 L34.8349484,30.8412398 L34.7114065,30.5587323 L35.0524245,30.4903525 L35.0133,30.0393628 L35.2244316,29.7115625 L35.6757738,29.6497034 L36.0619084,29.0818687 L36.409271,28.6077919 L36.0716015,28.3903158 L36.2436085,27.8642493 L36.0391739,27.0334694 L36.2340917,26.796431 L36.0911637,26.0269815 L35.7210666,25.5402157 L35.4191731,25.2772706 L35.2244316,24.7838078 L35.4484284,24.5402486 L35.2179108,24.478742 L35.0492523,24.1768485 L34.5945616,23.9237726 L34.1953854,23.9819307 L34.0135091,24.300038 L33.6435883,24.5273834 L33.4454982,24.5598109 L33.3579086,24.7513802 L33.7896885,25.244843 L33.5429571,25.3615117 L33.4097222,25.4979189 L32.9878115,25.5432118 L32.8286697,24.9981116 L32.7118248,25.1539049 L32.4099313,25.101915 L32.2282312,24.7318179 L31.8547856,24.6734836 L31.6179235,24.5661554 L31.2282641,24.5661554 L31.1991851,24.7644217 L31.0952054,24.6280145 L30.6017426,24.4234037 L30.4166941,24.2318344 L30.5206737,24.0728689 L30.4882462,23.8716066 L30.2351703,23.6509582 L29.8779385,23.4722542 L29.5630034,23.3555855 L29.5044929,23.0861195 L29.2644585,22.920457 L29.3227928,23.1899229 L29.1409165,23.4073991 L28.9333097,23.1541469 L28.6412854,23.0632088 L28.5177435,22.8783364 L28.5242643,22.5991775 L28.6444577,22.3068008 L28.3878571,22.1770906 L28.5956401,22.001735 L28.2808814,21.7095346 L27.8556222,21.3364415 L27.6543599,21.0246787 L27.2712212,20.7356505 L26.8135345,20.3169121 L26.9141657,20.1741603 L27.0666104,20.3137398 L27.134814,20.2455362 L26.9790208,19.9568605 L26.6998618,19.8756153 L26.7648932,19.5021698 L26.6413512,19.4015386 L26.4531304,19.3366835 L26.0539543,19.4470077 L26.0213505,19.3204697 L25.74554,19.171021 L25.5507985,18.9861487 L25.2813325,18.9080758 L25.0672049,18.9634141 L25.11567,19.0735621 L24.9470115,19.177718 L24.6352488,19.4112316 L24.6061697,19.5476388 L24.1386137,19.3853248 L23.5704265,19.369111 L23.1548604,19.1842387 L22.6647461,18.8011001 L21.6358762,17.7916162 L21.1651479,17.4863742 L20.4217814,17.2398191 L19.9154534,17.3078465 L19.1816037,17.6617298 L18.723917,17.7558402 L18.0811817,17.5091088 L17.3994981,17.3272325 L16.5489797,16.8956288 L15.8672961,16.7623938 L14.8350777,16.3242694 L14.0754975,15.8697549 L13.8449798,15.616679 L13.3353033,15.5613406 L12.403716,15.2594472 L12.0239259,14.824495 L11.0466933,14.2823908 L10.5923551,13.6752554 L10.3747027,13.2047033 L10.6767725,13.1105929 L10.5826621,12.83443 L10.7936174,12.5845263 L10.7967897,12.2468568 L10.4915477,11.8120808 L10.4071303,11.4224215 L10.1022408,10.9291349 L9.30018752,9.94855385 L8.38481404,9.17275984 L7.94351731,8.55275909 L7.16102631,8.14371368 L6.99554004,7.89715852 L7.13511951,7.27380927 L6.67091201,7.03694713 L6.13198015,6.54348434 L5.90481103,5.83236921 L5.4145205,5.74812806 L4.88880638,5.20901996 L4.4601987,4.70621662 L4.42125039,4.38141236 L3.93095986,3.59592534 L3.60968033,2.79087604 L3.62272185,2.38500289 L2.96359654,1.96626446 L2.66187929,2.01173354 L2.14233347,1.71953307 L1.99640947,2.15131301 L2.14568197,2.65764108 L2.23344785,3.44665284 L2.54820662,3.87825655 L3.22354569,4.5957162 L3.37264195,4.8390991 L3.51222143,4.91065121 L3.62924261,5.26770678 L3.79138038,5.25149301 L3.97660516,5.9134381 L4.25241562,6.17338725 L4.44398492,6.53361509 L5.0185166,7.05316091 L5.32041009,7.99109269 L5.58987602,8.42939339 L5.84312818,8.89677315 L5.89176951,9.42283974 L6.33007021,9.45509106 L6.69681881,9.90643327 L7.02796759,10.3479062 L7.00523306,10.5232618 L6.62227068,10.8836658 L6.45978043,10.8803173 L6.21974603,10.2798789 L5.62547584,9.71821247 L4.96987527,9.23779119 L4.50231928,8.9843628 L4.53175081,8.2542141 L4.39534359,7.70876148 L3.96021515,7.39717497 L3.33386988,6.94583275 L3.21367644,7.07589545 L2.98633108,6.80942554 L2.42484092,6.56621888 L1.88925755,5.97194869 L1.95411266,5.8942283 L2.32738202,5.95273888 L2.66522779,5.56942404 L2.70082761,5.10539277 L1.99958173,4.36837084 L1.46734686,4.07969511 L1.12967732,3.42691433 L0.792007783,2.73888621 L0.370097095,1.8915401 L-2.84217094e-14,0.930697545 L1.03556692,0.849452421 Z"></path>
                </g>
            </g>
        </g>
    </g>
</svg>