<?xml version="1.0" encoding="UTF-8" standalone="no"?>
<svg width="33px" height="70px" viewBox="0 0 33 70" version="1.1" xmlns="http://www.w3.org/2000/svg" xmlns:xlink="http://www.w3.org/1999/xlink">
    <!-- Generator: Sketch 46.2 (44496) - http://www.bohemiancoding.com/sketch -->
    <title>Stroke 2</title>
    <desc>Created with Sketch.</desc>
    <defs></defs>
    <g id="Page-1" stroke="none" stroke-width="1" fill="none" fill-rule="evenodd">
        <g id="mm-landing-1440-edits" transform="translate(-518.000000, -2399.000000)" stroke="#83949F">
            <g id="Page-1" transform="translate(519.000000, 2400.000000)">
                <polygon id="Stroke-2" points="25.2836016 31.5486017 23.2408716 33.1666899 20.7748549 33.3437326 19.1804301 37.3759149 17.711098 38.045658 19.4049208 41.2941861 21.6214283 43.9861962 23.0413995 46.4133284 21.7715395 49.598725 20.5632116 50.2677818 21.3976138 52.1006544 23.7263665 54.9827452 24.1246346 57.0056985 24.0624264 58.686232 25.4330367 61.9725018 23.5147232 65.3225893 21.8209004 69 21.4848406 66.3457316 22.5559046 63.5899037 21.3847664 61.4674497 21.6714653 57.5361405 20.2514941 55.6655263 19.1182219 51.3176864 18.4826157 46.6905581 16.9760939 43.6575006 14.6723596 45.502725 10.699145 48.1068999 8.74296558 47.7782043 6.57581905 46.9314186 7.78414693 42.3687943 7.06199014 38.9054817 4.32212189 34.6207733 4.74540854 33.2675631 2.70200236 32.7879008 0.223814509 29.7287672 0 26.6826717 1.22049906 27.2638933 1.28270732 24.5464934 3.01371984 23.6365761 2.64047027 22.0184879 3.42483532 20.7167436 3.5620992 16.7353409 6.28979627 17.6198683 7.84635519 14.4351579 8.03297998 12.5391539 9.95129346 9.25219787 9.85189548 7.00210836 14.3728133 4.27235659 16.8638485 4.99287931 16.5771496 2.55339526 17.810496 1.82052073 17.5366444 0.303991964 19.5786983 0 20.7498364 2.35096269 22.2692056 3.29930782 22.3814509 6.33236534 22.2313397 9.58089347 18.9309209 12.8417734 18.5076343 17.4304738 22.1948262 16.7984724 23.0292283 20.3372683 25.2457357 21.0831808 24.2247088 24.2431876 26.8158182 25.6718812 28.3351874 26.3663279 30.8877547 25.2670161 31 26.8343245 28.0234699 29.2861604 27.2756184 30.6764261"></polygon>
            </g>
        </g>
    </g>
</svg>