<?xml version="1.0" encoding="UTF-8" standalone="no"?>
<svg width="72px" height="65px" viewBox="0 0 72 65" version="1.1" xmlns="http://www.w3.org/2000/svg" xmlns:xlink="http://www.w3.org/1999/xlink">
    <!-- Generator: Sketch 46.2 (44496) - http://www.bohemiancoding.com/sketch -->
    <title>Page 1</title>
    <desc>Created with Sketch.</desc>
    <defs></defs>
    <g id="Page-1" stroke="none" stroke-width="1" fill="none" fill-rule="evenodd">
        <g id="mm-landing-1440-edits" transform="translate(-886.000000, -2073.000000)" stroke="#83949F">
            <g id="Page-1" transform="translate(887.000000, 2074.000000)">
                <path d="M13.8360512,0.0538054486 L11.639123,0.76345569 L9.37433877,2.3837995 L5.78599832,2.05551356 L4.99288607,3.93725006 L2.09003685,4.03758995 L0,6.36831111 L1.19659991,7.52003855 L0.282733209,9.38177978 L1.65991755,10.6941965 L2.77552807,13.0249176 L4.83163693,12.9842 L6.65280362,14.2231795 L7.95629492,13.9483355 L8.39298092,12.9842 L10.422823,13.0645446 L11.9477582,14.3104316 L14.8104775,14.0490389 L16.1070373,12.7097195 L17.6866951,13.2455927 L18.835504,13.0445493 L18.1233811,13.9152524 L18.8154391,14.9662764 L18.3586881,15.9107801 L18.5334355,17.6583666 L18.4929408,17.7387112 L17.5590092,19.3325158 L16.8870162,21.1604469 L16.8333881,21.1808057 L16.5645179,21.7432181 L16.18146,23.4173673 L15.6838495,24.4418521 L15.8119003,24.5690948 L15.2675933,25.2921964 L16.5039583,29.0087714 L16.5645179,29.3166985 L16.3361424,30.1739502 L16.2485863,30.9174106 L15.9596512,32.0825894 L16.8939477,32.0760455 L17.8548758,33.5222487 L19.0036847,35.2094858 L19.7362373,36.7632999 L20.2867462,37.2250088 L20.8113531,38.2967552 L20.7106636,38.7591912 L21.3286637,39.9370943 L22.3501514,40.3591762 L23.2304549,41.1560785 L24.3125023,43.4060915 L24.2315129,44.6050805 L24.446755,45.9974782 L25.6966181,47.906481 L26.5367918,48.2278595 L27.8402831,49.5937181 L28.3710919,51.207518 L29.3787166,52.8547645 L30.3465762,53.551327 L30.4943271,54.3347779 L31.0656306,54.9237294 L31.3078691,55.7540784 L31.3881289,56.5978787 L31.1597534,56.9730627 L31.3545657,57.8572171 L30.9780745,57.951013 L31.5223815,58.7475518 L31.892306,60.1675794 L32.1947393,60.7365357 L32.1407464,61.7879232 L32.6314253,62.906204 L33.9349166,63 L34.5397833,62.7455148 L35.4740797,62.7855053 L35.7630148,62.2968937 L36.2595308,62.1561997 L36.66995,61.6537731 L37.1467659,61.5468893 L38.7260589,61.4465494 L39.9292255,61.0779094 L41.030973,60.2744632 L41.5957098,60.388618 L42.4223852,60.2882781 L44.1089344,58.9285999 L47.1194046,58.0244502 L48.9938346,57.2071891 L49.040896,56.5448004 L49.4038889,55.6875487 L50.7683047,55.1582194 L50.7679399,55.1574923 L51.63511,55.0513356 L52.8981066,54.3947637 L53.9396593,54.5758118 L54.8531611,54.0333947 L54.8469592,53.2430363 L55.5857138,52.7475172 L56.7549524,52.7609685 L57.1854365,52.3461576 L57.3667506,51.3885661 L58.5429207,50.6520131 L59.409726,50.658557 L59.5844734,50.4171596 L59.3557331,49.0916551 L59.6581664,48.0871655 L60.047791,47.6116417 L60.9010981,47.7185255 L61.6070191,46.3526669 L62.3931998,45.6895511 L62.6956331,45.1271387 L63.3807595,43.9288769 L63.3876911,43.4798922 L62.7160629,43.225407 L62.2049542,42.5557473 L61.3516471,41.3902049 L60.2364014,41.022292 L58.8519208,40.7543554 L57.7968699,40.0112585 L56.9581555,38.6250411 L56.9636277,38.6250411 L56.7082558,36.9908824 L56.3521944,36.2881396 L55.162526,37.5602022 L53.7514137,38.8860703 L52.4614206,40.2719241 L51.3257451,40.2119383 L49.7668819,40.1584964 L48.29521,40.4798749 L48.2211521,39.9174625 L47.8851556,40.018166 L47.5290942,39.2343515 L47.0048521,39.3815893 L46.4404801,38.9729588 L46.1584765,38.4712593 L45.9027398,37.7946922 L45.3653643,37.211921 L45.1234906,36.5153586 L45.3117362,35.8257036 L45.1971836,34.961908 L43.9137573,34.0846611 L43.591259,33.3415642 L42.6642589,32.8660404 L41.9247747,31.0377458 L40.5939221,31.0915512 L40.1240378,30.0801542 L38.4436905,29.872567 L39.828536,27.8101459 L41.0984641,27.991194 L42.2137098,28.0915339 L42.919266,27.2480971 L44.1155011,27.9642913 L45.1304221,27.6160101 L46.5211047,30.4753334 L47.7775346,32.4908564 L49.5921345,33.0936229 L51.4939258,34.7074228 L53.7984751,35.3970777 L55.6936996,34.3860443 L57.1449418,34.0112239 L58.0453103,34.3860443 L58.8519208,36.9370769 L60.9755208,37.211921 L63.0316296,37.6874448 L66.5729087,38.3102065 L67.2850316,35.8995043 L70,34.821214 L69.8453176,33.8570786 L68.9449491,33.5157048 L68.8909562,31.6605075 L67.0902193,30.7232747 L66.331035,29.4308533 L65.4033052,28.305665 L67.1102842,26.3435839 L66.9556018,24.9373712 L65.531356,24.5690948 L65.3836051,23.1697895 L64.7652402,21.4014807 L65.5718507,20.1763161 L64.7521068,19.8483937 L65.2690526,18.2076911 L66.0351684,15.3614556 L65.8673525,13.4128258 L64.4628069,13.3324812 L62.3125752,11.2635163 L60.8073401,11.0021236 L58.7245996,9.80349816 L57.3802488,9.58282311 L56.5535734,10.0249003 L55.2971435,9.9576435 L53.960089,11.3104143 L52.3001715,11.7655793 L52.1184926,12.3149038 L49.1751487,12.9303945 L46.5010397,12.529035 L45.1906169,11.3500413 L43.4030134,10.8614296 L42.8050783,9.11384319 L42.3413958,9.22763444 L41.1655905,7.98211102 L41.810587,6.79002949 L41.2597133,6.07347179 L40.5541571,6.2541563 L38.3298676,8.03555291 L37.6443763,8.10244617 L36.3543833,7.78797514 L35.3996571,6.67660179 L35.1041553,5.75900076 L33.8137974,6.44865573 L34.2953559,8.71939108 L33.8072307,6.44865573 L35.0975886,5.75900076 L34.3584692,5.04898696 L32.9608551,4.43967661 L33.1421692,3.24105118 L32.8196709,2.37071169 L31.0054358,1.14481998 L28.9960235,1.26588224 L26.771734,2.56484757 L25.1523111,2.34344542 L22.9553829,2.72517326 L20.2535478,1.7675817 L16.9541425,0 L13.8360512,0.0538054486 Z M35.0570939,11.8255651 L34.0290394,9.93728468 L34.3978695,9.20291302 L34.3985991,9.20727562 L34.0356061,9.93728468 L35.0640254,11.8324725 L34.1636569,12.2276518 L33.4982306,11.6314292 L31.3078691,11.3238656 L33.4982306,11.6248853 L34.1567254,12.2207443 L35.0570939,11.8255651 Z M30.5008938,11.6917786 L28.3575937,12.0535111 L27.341943,12.0135206 L27.3426726,12.0131571 L28.3575937,12.0535111 L30.5008938,11.6917786 Z M22.6190216,12.4552343 L23.6200795,12.8973115 L22.6190216,12.4621417 L20.5424829,13.1114426 L19.9314144,12.655914 L19.8234286,13.9552429 L19.3192514,14.4645769 L18.8154391,14.9662764 L19.3192514,14.4576695 L19.8234286,13.9483355 L19.9244829,12.6493701 L20.5424829,13.1048987 L22.6190216,12.4552343 Z M55.848382,39.9709044 L55.848382,39.9690867 L56.1708803,40.2384775 L56.1690562,40.2395681 L55.848382,39.9709044 Z" id="Fill-6"></path>
            </g>
        </g>
    </g>
</svg>