<?xml version="1.0" encoding="UTF-8" standalone="no"?>
<svg width="83px" height="69px" viewBox="0 0 83 69" version="1.1" xmlns="http://www.w3.org/2000/svg" xmlns:xlink="http://www.w3.org/1999/xlink">
    <!-- Generator: Sketch 46.2 (44496) - http://www.bohemiancoding.com/sketch -->
    <title>Fill 1</title>
    <desc>Created with Sketch.</desc>
    <defs></defs>
    <g id="Page-1" stroke="none" stroke-width="1" fill="none" fill-rule="evenodd">
        <g id="mm-landing-1440-edits" transform="translate(-1062.000000, -2068.000000)" stroke="#83949F">
            <g id="Page-1" transform="translate(1062.000000, 2069.000000)">
                <path d="M9.69496231,1.31115792 L8.96117094,1.1491741 L7.45081461,2.21851441 L6.67440405,2.48889923 L5.86093333,3.60085874 L5.67038229,4.7159066 L4.66342659,5.73413477 L3.24988995,5.80516676 L2.8033149,6.95140693 L3.8982885,7.62837269 L4.66342659,8.53017016 L5.22936627,9.56538423 L6.21068868,10.3390153 L6.85924165,11.5735822 L5.1754746,11.6501732 L5.28341235,10.6605123 L4.62652084,10.6605123 L2.84871361,11.6304078 L1.72826115,12.446658 L2.73784194,13.5587719 L3.07354531,14.3124831 L4.24248483,14.7562787 L5.37173909,14.5485873 L6.00037222,14.9551683 L6.24218982,14.5485873 L7.08963237,14.1420064 L7.57898103,14.1219321 L6.98709924,14.8387376 L7.4338287,15.1687275 L7.58176054,15.9991841 L6.97304725,16.5566308 L6.39274676,16.40314 L5.75006165,17.2592299 L5.2038874,16.9775726 L4.55826836,17.1055846 L4.27383156,18.0015142 L3.62234465,18.9601373 L3.31536292,19.9300328 L3.92963523,20.6354114 L3.93241474,21.5597538 L4.47858899,21.9465693 L5.15262083,22.694567 L6.19076884,22.3902104 L6.70575078,22.9533706 L6.56059845,23.528112 L6.62885093,24.446741 L7.11804517,24.446741 L7.91452998,23.8295347 L8.21301877,24.5974523 L8.42935751,24.0457191 L8.94974406,24.822284 L9.38211271,24.2676168 L9.63813671,24.5319794 L10.5569201,24.0656389 L10.1501847,24.9671275 L10.0136798,26.1050292 L9.4247319,26.6254157 L9.24560775,26.9183455 L8.13905285,27.7860167 L7.7466783,28.3718762 L6.75686293,28.5310805 L5.90648645,29.3019321 L5.12714196,29.7313668 L4.2537573,30.3771402 L4.37898979,30.607531 L5.74712772,30.2148476 L6.40988709,29.7512866 L7.2205783,29.2762988 L7.96564213,28.8837698 L8.51166197,28.991862 L9.44465174,28.3860826 L9.69789624,27.7146759 L10.9437356,26.9668325 L11.1398457,26.3155 L11.93911,25.8632116 L12.7951999,25.2345784 L13.5490655,24.1396048 L12.9658311,23.3857392 L14.1151596,22.2623528 L14.6584,21.1899242 L15.6736942,20.2740747 L15.892658,20.689303 L15.0450611,21.1928581 L14.6866583,22.7657535 L14.8004639,23.6871619 L15.6851211,23.3573264 L16.3875657,22.8282925 L17.3091286,22.498457 L17.7501446,22.3959238 L17.5850724,21.2782509 L18.4695752,20.9339001 L19.4169258,21.6252267 L20.9839533,22.3617976 L22.0875742,22.2252926 L23.4813455,22.7913867 L24.2435496,23.0900299 L25.8933448,24.6941176 L26.8289597,25.1321997 L28.0974984,25.1691055 L28.8626365,25.2657707 L29.2922257,26.6709688 L30.3191012,27.8456218 L30.5436241,29.0857477 L31.2462231,29.5323228 L31.6843052,30.0528638 L32.1392188,29.3930383 L32.1166738,28.5056017 L30.7599628,27.5953112 L29.9435581,25.9229711 L29.4457165,24.844829 L28.7148591,24.1567452 L28.1771778,23.5223986 L27.7534565,22.7117074 L26.9541922,23.2208215 L26.1777816,24.0884927 L25.4694691,23.0643967 L24.9120224,22.370445 L24.1354575,21.9266494 L23.3503995,21.8783168 L23.3533335,11.801039 L23.3590469,3.93656212 L22.4913757,3.61506514 L21.2825965,2.91540002 L20.2217491,3.2965021 L19.6074768,2.99214546 L18.0742667,2.77040211 L16.3932792,2.01947042 L15.5799628,2.2583541 L14.3597568,1.85161873 L14.4080894,1.29695152 L13.0598713,1.15195361 L12.7044025,1.62122801 L12.1268815,0.520540968 L10.9210363,0 L9.69496231,1.31115792 Z M0.610433775,17.3730355 L1.19057985,17.0146328 L1.2558984,16.8213022 L0.610433775,16.6305968 L0.610433775,17.3730355 Z M2.24015474,22.0205352 L2.72363554,22.4529039 L3.24711044,22.7487675 L3.73630468,22.5012365 L3.65940482,21.8897437 L3.02799218,21.7445914 L2.24015474,22.0205352 Z M13.1593161,25.7267066 L12.4340177,26.2555861 L12.5563162,26.9439788 L12.9630516,27.3195218 L13.759382,26.7648546 L14.4507086,26.0622556 L14.1122257,25.5986946 L13.5859713,25.4990954 L13.1593161,25.7267066 Z M29.5283298,31.3527492 L29.6762617,31.9413882 L30.0800631,32.356771 L30.3759268,32.9625503 L30.8564737,33.5598367 L31.1750367,33.5626162 L30.481085,32.5104163 L30.7171892,30.988633 L29.9520511,31.0967252 L29.5766625,30.9203806 L29.5283298,31.3527492 Z M59.8938888,37.0952225 L59.8911092,37.5617174 L58.241314,37.5617174 L55.5138399,37.5617174 L52.8031974,37.5617174 L50.4083383,37.5617174 L48.0161043,37.5617174 L45.6640189,37.5617174 L43.2320997,37.5617174 L42.4470418,37.5617174 L40.0805955,37.5617174 L37.816528,37.5617174 L38.0869128,38.5487533 L38.2147704,39.5186488 L38.0185059,39.8287189 L37.5947846,38.7166049 L36.442831,38.3126491 L36.3460113,38.5459737 L36.579336,39.097707 L36.832426,40.1017288 L36.9775784,41.6432774 L36.8807587,42.6644395 L36.7840934,43.6713952 L36.4712438,44.6981163 L36.7272678,45.523014 L36.7555262,46.43315 L36.5821155,47.3005123 L37.0058367,47.8667609 L37.1168628,48.7057104 L37.7340691,49.5560869 L38.0869128,49.8888564 L38.0583456,50.122181 L38.7238844,51.5015914 L39.4976699,52.4829138 L39.5941808,53.0148817 L39.7961587,53.1713065 L40.5356635,53.2650378 L40.8202547,53.5238414 L41.2666753,53.572174 L41.3548477,53.8453383 L41.7274568,53.9591439 L42.2450638,54.5053182 L42.3787893,54.9886446 L43.2861458,54.9176126 L44.2986605,54.8153883 L44.224849,55.0002259 L45.4277603,55.4552939 L47.2481867,56.1123398 L48.8352885,56.1066263 L49.4667012,56.1066263 L49.4696351,55.7225903 L50.851825,55.7225903 L51.1421297,56.0525803 L51.548865,56.34551 L52.0236985,56.752091 L52.2883698,57.2327923 L52.4874138,57.7361929 L52.8998626,58.0122912 L53.562622,58.2853011 L54.0660226,57.5657161 L54.7173551,57.5487302 L55.2805153,57.912692 L55.6815372,58.5328321 L55.9574811,59.0617116 L56.4267555,59.5737596 L56.6031001,60.1966793 L56.8277774,60.6146872 L57.4506971,60.8878515 L58.0167912,61.0811821 L58.3267068,61.0557032 L58.1759955,60.7542805 L58.1361558,60.3274709 L58.1448032,59.7131985 L58.3296408,59.3092427 L58.7647889,58.8796536 L59.5583398,58.4902129 L60.2836382,57.8158723 L60.9548905,57.6026219 L61.4497982,57.5371489 L62.0299443,57.7477742 L62.7269843,57.6339686 L63.3213368,58.1146699 L63.8987034,58.1430827 L64.1973466,57.9695175 L64.4932102,58.103243 L64.6439216,57.9837239 L64.473136,57.8045998 L64.4874968,57.4347702 L64.3452784,57.1901731 L64.6752683,57.0479547 L65.2839816,56.9854156 L65.9921397,57.0879488 L66.8937827,56.9713636 L67.3942495,57.198666 L67.7812194,57.6254756 L67.9234378,57.6710288 L68.7282611,57.255646 L69.0383312,57.3950849 L69.6612509,58.1572891 L69.8859282,58.6551307 L69.7210104,59.2524171 L69.8403751,59.6023269 L70.2102047,60.2846972 L70.633926,61.0470558 L70.9382826,61.2490337 L71.0635151,61.6330697 L71.4560441,61.7383824 L71.6949277,61.6272019 L71.8941261,61.089675 L71.928098,60.7456331 L71.9537313,60.1483467 L71.5754087,59.1100443 L71.5698497,58.7204492 L71.2142264,58.0805436 L70.9467756,57.2982652 L70.8045572,56.6583596 L70.9268557,56.0014681 L71.3023988,55.4495804 L71.7517533,55.002851 L72.6279175,54.3885786 L72.7417231,54.0700156 L73.1455245,53.7202603 L73.543767,53.6577212 L74.0670874,53.0944066 L74.8918306,52.8071903 L75.3981652,52.0876054 L75.2872935,51.1035034 L75.2046802,50.7593071 L74.9772234,50.6910546 L74.9430972,49.7379906 L74.3942979,49.4138685 L74.9203978,49.5730728 L74.7497666,48.9303877 L74.9032575,48.4895261 L74.9971433,49.3343436 L75.4038786,49.7211591 L75.156502,50.4036839 L75.2303135,50.4435236 L75.6798225,49.6442592 L75.9356921,49.2517303 L75.9244196,48.8678487 L75.7252212,48.6857906 L75.5603034,48.1339029 L75.8220409,48.3899269 L75.9983855,48.443973 L76.0579906,48.7057104 L76.6382911,47.9149391 L76.8117018,47.1695664 L76.5757521,47.1213882 L76.8175697,46.8313924 L76.7947159,46.9594044 L77.30383,46.9564704 L78.4218118,46.6406869 L78.1857076,46.4416429 L77.0138342,46.6406869 L77.6793731,46.3363303 L78.142934,46.2850637 L78.4899099,46.231172 L79.0787033,46.0463344 L79.4627393,46.0660999 L80.0002662,45.8926891 L80.0628052,45.5881781 L79.824076,45.3494488 L79.9063804,45.7390439 L79.5765449,45.7134106 L79.3118735,45.1476253 L79.3205209,44.5758178 L79.4570259,44.3312207 L79.8779676,43.6826677 L80.7200056,43.3556117 L81.5390353,42.9743552 L82.3895662,42.4340488 L82.2529068,42.0671531 L81.7323659,41.4270931 L81.7238729,39.8457048 L81.3682497,39.5072219 L80.8336568,39.7064203 L80.5691398,39.3991297 L79.9604265,40.2808529 L79.7158294,41.176937 L79.4313926,41.694544 L79.0929097,41.8708886 L78.8368857,41.9277142 L78.7572063,42.206592 L77.2866897,42.206592 L76.075131,42.215085 L75.7139487,42.4226219 L74.8975441,43.1991869 L74.9801574,43.3526778 L75.0283356,43.7821125 L74.4310492,44.1434491 L73.7769372,44.0523429 L73.151238,44.0125032 L72.7729154,44.1377357 L72.8441018,44.4649461 L72.8583082,44.5701043 L72.1699156,45.2157234 L71.5698497,45.5257935 L71.1603348,45.6709458 L70.687972,45.9637211 L70.1107599,46.1059395 L69.7123631,46.0520479 L69.2203893,45.8329296 L69.4933992,45.4206352 L69.6697439,45.0450922 L70.0452869,44.4507397 L70.0054472,44.0041647 L69.8632288,43.3670386 L69.5675196,43.2560125 L69.0724575,43.7394933 L68.9132532,43.7311547 L68.8734135,43.4550565 L69.3114956,43.0114154 L69.3853071,42.5023013 L69.3199885,41.9931872 L68.7282611,41.5523256 L68.0514498,41.3247144 L67.9404237,41.757083 L67.7640791,41.8708886 L67.6220151,42.4255558 L67.5478947,42.0472333 L67.2293317,42.3174637 L67.0302877,42.6928523 L66.8227507,43.2390266 L66.7827566,43.705367 L67.0472736,44.3823328 L67.0245743,45.0963587 L66.7004522,45.6196792 L66.5381595,45.7676111 L66.3221296,45.8840418 L66.0517448,45.8899096 L65.9779333,45.8187232 L65.761749,45.2557175 L65.7560355,44.9766853 L65.7788893,44.7095432 L65.6791357,44.1775754 L65.8300015,43.5575896 L66.0091256,42.7867381 L66.4245083,41.9249347 L66.3049893,41.9277142 L65.7191298,42.6500787 L65.6110376,42.5194416 L65.9238872,42.1154858 L66.3988751,41.3844739 L66.9421154,41.2820952 L67.5650351,41.0546384 L68.1936682,41.1741574 L68.2193015,41.1797165 L68.9217461,41.0773378 L68.5236581,40.6194902 L68.3100989,40.5824301 L68.0655018,40.5368769 L67.8978045,40.2126005 L67.1156805,40.3151336 L66.407368,40.5710032 L65.8471418,40.130296 L65.3948533,39.9822097 L65.6508773,39.3650035 L64.9453443,39.7547529 L64.3054387,40.1330755 L63.6911664,40.4287848 L63.2018177,40.0305424 L62.4025534,40.27236 L62.4054873,40.1017288 L62.9457937,39.6096006 L63.5118878,39.1403262 L64.3253586,38.7507312 L63.3441906,38.4406611 L62.6984171,38.5970859 L61.9247861,38.2274107 L61.1113153,38.0367052 L60.5537142,37.9627393 L60.306492,37.7581363 L60.1642736,37.0896635 L59.8938888,37.0952225 Z M8.3865839,64.2753054 L8.3439647,64.3379989 L8.61141559,64.4942693 L8.70514694,64.4091853 L8.68816103,64.2098325 L8.50888246,64.190067 L8.3865839,64.2753054 Z M9.54703046,64.7502933 L9.57837719,64.7844195 L9.68075591,64.9779045 L9.95963369,65.0090968 L10.0164593,65.0206781 L10.0590785,64.972191 L9.82868775,64.6906882 L9.76043527,64.6337082 L9.54703046,64.7502933 Z M10.3208159,65.1599626 L10.7474711,65.1855959 L10.77295,65.0944896 L10.3805754,65.0575839 L10.3208159,65.1599626 Z M10.8100102,65.3078944 L10.8157236,65.3617861 L10.9066754,65.430193 L11.0433348,65.6093171 L11.3106313,65.5495576 L11.3759498,65.4471789 L11.1711924,65.3134534 L10.8867556,65.2337741 L10.8100102,65.3078944 Z M11.4442023,65.942241 L11.4982484,66.1071587 L11.3589639,66.2436637 L11.3191242,66.3375495 L11.4499158,66.6446856 L11.4272164,66.8806354 L11.6262604,67 L11.7428455,66.8608699 L11.9988695,66.7300784 L12.3117191,66.5507999 L12.331639,66.5052467 L12.129661,66.209383 L11.99609,66.0955774 L11.8538716,66.0216115 L11.549515,65.8795475 L11.4897554,65.8625616 L11.4442023,65.942241 Z" id="Fill-1"></path>
            </g>
        </g>
    </g>
</svg>